<svg xmlns="http://www.w3.org/2000/svg" viewBox="0 0 210.0 297.0" width="210.0mm" height="297.0mm">
<rect x="0" y="0" width="210.0" height="297.0" fill="white"/>
<rect x="0.5" y="0.5" width="209.0" height="296.0" fill="none" stroke="#aaa" stroke-width="0.4"/>
<g class="grid" fill="none" stroke="#c8c8c8" stroke-width="0.2">
  <line x1="15.00" y1="15.00" x2="195.00" y2="15.00"/>
  <line x1="15.00" y1="30.00" x2="195.00" y2="30.00"/>
  <line x1="15.00" y1="45.00" x2="195.00" y2="45.00"/>
  <line x1="15.00" y1="60.00" x2="195.00" y2="60.00"/>
  <line x1="15.00" y1="75.00" x2="195.00" y2="75.00"/>
  <line x1="15.00" y1="90.00" x2="195.00" y2="90.00"/>
  <line x1="15.00" y1="105.00" x2="195.00" y2="105.00"/>
  <line x1="15.00" y1="120.00" x2="195.00" y2="120.00"/>
  <line x1="15.00" y1="135.00" x2="195.00" y2="135.00"/>
  <line x1="15.00" y1="150.00" x2="195.00" y2="150.00"/>
  <line x1="15.00" y1="165.00" x2="195.00" y2="165.00"/>
  <line x1="15.00" y1="180.00" x2="195.00" y2="180.00"/>
  <line x1="15.00" y1="195.00" x2="195.00" y2="195.00"/>
  <line x1="15.00" y1="210.00" x2="195.00" y2="210.00"/>
  <line x1="15.00" y1="225.00" x2="195.00" y2="225.00"/>
  <line x1="15.00" y1="240.00" x2="195.00" y2="240.00"/>
  <line x1="15.00" y1="255.00" x2="195.00" y2="255.00"/>
  <line x1="15.00" y1="270.00" x2="195.00" y2="270.00"/>
  <line x1="15.00" y1="282.00" x2="195.00" y2="282.00"/>
  <line x1="15.00" y1="15.00" x2="15.00" y2="282.00"/>
  <line x1="30.00" y1="15.00" x2="30.00" y2="282.00"/>
  <line x1="45.00" y1="15.00" x2="45.00" y2="282.00"/>
  <line x1="60.00" y1="15.00" x2="60.00" y2="282.00"/>
  <line x1="75.00" y1="15.00" x2="75.00" y2="282.00"/>
  <line x1="90.00" y1="15.00" x2="90.00" y2="282.00"/>
  <line x1="105.00" y1="15.00" x2="105.00" y2="282.00"/>
  <line x1="120.00" y1="15.00" x2="120.00" y2="282.00"/>
  <line x1="135.00" y1="15.00" x2="135.00" y2="282.00"/>
  <line x1="150.00" y1="15.00" x2="150.00" y2="282.00"/>
  <line x1="165.00" y1="15.00" x2="165.00" y2="282.00"/>
  <line x1="180.00" y1="15.00" x2="180.00" y2="282.00"/>
  <line x1="195.00" y1="15.00" x2="195.00" y2="282.00"/>
  </g>
<g class="chars">
<g transform="translate(15.0,15.0) scale(0.00732421875,0.00732421875)"><g fill="#222"><path d="M 926 423 L 781 439 Q 676 451 637.5 457.5 Q 599 464 533.5 477 Q 468 490 428 502.5 Q 388 515 374 516 Q 343 519 301 503.5 Q 259 488 228.5 471.5 Q 198 455 188 440.5 Q 178 426 182 416.5 Q 186 407 203 405 L 264 400 L 397 391 Q 449 388 671 367 L 1344 305 Q 1362 304 1401 298 Q 1440 292 1503 284 Q 1566 276 1607 265 Q 1648 254 1654 253 Q 1679 252 1726 267.5 Q 1773 283 1795.5 293 Q 1818 303 1844 326 Q 1870 349 1866 364.5 Q 1862 380 1847 387 Q 1836 393 1803.5 391.5 Q 1771 390 1679.5 394.5 Q 1588 399 1474 400.5 Q 1360 402 1335 403 L 1065 417 L 926 423 Z"/><path d="M 1065 417 Q 1082 431 1094 444.5 Q 1106 458 1105 473 Q 1104 477 1095.5 497.5 Q 1087 518 1085 558 L 1079 639 L 1073 803 L 1074 850 L 1060 1287 L 1057 1421 Q 1053 1537 1044.5 1605.5 Q 1036 1674 1027 1711.5 Q 1018 1749 1007 1771.5 Q 996 1794 986.5 1795.5 Q 977 1797 974 1796 Q 960 1795 945 1776 Q 930 1757 920 1730.5 Q 910 1704 900 1672 Q 890 1640 889.5 1629 Q 889 1618 913 1555 Q 920 1536 926.5 1500.5 Q 933 1465 939 1420.5 Q 945 1376 950 1313 L 957 1198 Q 965 1085 966 1070 L 970 633 Q 970 565 964.5 518.5 Q 959 472 946 453 L 926 423 L 1065 417 Z"/><path d="M 1073 803 Q 1176 825 1235 838 Q 1294 851 1364 868.5 Q 1434 886 1462 903.5 Q 1490 921 1516 956.5 Q 1542 992 1542.5 1029.5 Q 1543 1067 1527 1081 Q 1511 1095 1480 1092.5 Q 1449 1090 1388.5 1053 Q 1328 1016 1324 1012 L 1217 940 L 1074 850 L 1073 803 Z"/></g></g>
</g>

<g class="page-number"><text x="105.0" y="292.0" font-size="3" fill="#999" font-family="sans-serif" text-anchor="middle">- 1 -</text></g>
</svg>