<svg xmlns="http://www.w3.org/2000/svg" viewBox="0 0 210.0 297.0" width="210.0mm" height="297.0mm">
<rect x="0" y="0" width="210.0" height="297.0" fill="white"/>
<rect x="0.5" y="0.5" width="209.0" height="296.0" fill="none" stroke="#aaa" stroke-width="0.4"/>
<g class="grid" fill="none" stroke="#c8c8c8" stroke-width="0.2">
  <line x1="15.00" y1="15.00" x2="195.00" y2="15.00"/>
  <line x1="15.00" y1="30.00" x2="195.00" y2="30.00"/>
  <line x1="15.00" y1="45.00" x2="195.00" y2="45.00"/>
  <line x1="15.00" y1="60.00" x2="195.00" y2="60.00"/>
  <line x1="15.00" y1="75.00" x2="195.00" y2="75.00"/>
  <line x1="15.00" y1="90.00" x2="195.00" y2="90.00"/>
  <line x1="15.00" y1="105.00" x2="195.00" y2="105.00"/>
  <line x1="15.00" y1="120.00" x2="195.00" y2="120.00"/>
  <line x1="15.00" y1="135.00" x2="195.00" y2="135.00"/>
  <line x1="15.00" y1="150.00" x2="195.00" y2="150.00"/>
  <line x1="15.00" y1="165.00" x2="195.00" y2="165.00"/>
  <line x1="15.00" y1="180.00" x2="195.00" y2="180.00"/>
  <line x1="15.00" y1="195.00" x2="195.00" y2="195.00"/>
  <line x1="15.00" y1="210.00" x2="195.00" y2="210.00"/>
  <line x1="15.00" y1="225.00" x2="195.00" y2="225.00"/>
  <line x1="15.00" y1="240.00" x2="195.00" y2="240.00"/>
  <line x1="15.00" y1="255.00" x2="195.00" y2="255.00"/>
  <line x1="15.00" y1="270.00" x2="195.00" y2="270.00"/>
  <line x1="15.00" y1="282.00" x2="195.00" y2="282.00"/>
  <line x1="15.00" y1="15.00" x2="15.00" y2="282.00"/>
  <line x1="30.00" y1="15.00" x2="30.00" y2="282.00"/>
  <line x1="45.00" y1="15.00" x2="45.00" y2="282.00"/>
  <line x1="60.00" y1="15.00" x2="60.00" y2="282.00"/>
  <line x1="75.00" y1="15.00" x2="75.00" y2="282.00"/>
  <line x1="90.00" y1="15.00" x2="90.00" y2="282.00"/>
  <line x1="105.00" y1="15.00" x2="105.00" y2="282.00"/>
  <line x1="120.00" y1="15.00" x2="120.00" y2="282.00"/>
  <line x1="135.00" y1="15.00" x2="135.00" y2="282.00"/>
  <line x1="150.00" y1="15.00" x2="150.00" y2="282.00"/>
  <line x1="165.00" y1="15.00" x2="165.00" y2="282.00"/>
  <line x1="180.00" y1="15.00" x2="180.00" y2="282.00"/>
  <line x1="195.00" y1="15.00" x2="195.00" y2="282.00"/>
  </g>
<g class="chars">
<g transform="translate(15.0,15.0) scale(0.00732421875,0.00732421875)"><g fill="#222"><path d="M 1055 340 L 1302 305 L 1361 293 Q 1382 289 1401 287 Q 1426 285 1440.5 289 Q 1455 293 1481.5 306.5 Q 1508 320 1520 332.5 Q 1532 345 1530 353 Q 1528 359 1521.5 364 Q 1515 369 1498 373.5 Q 1481 378 1447.5 384 Q 1414 390 1319 400 L 1052 429 L 934 439 L 652 459 Q 615 462 575.5 461.5 Q 536 461 505.5 453 Q 475 445 464 427 Q 453 409 460 403.5 Q 467 398 482 397 L 544 389 L 733 375 Q 782 372 848 364 L 929 355 L 1055 340 Z"/><path d="M 1052 429 L 1042 577 Q 992 631.5 932 592 L 934 439 L 929 355 Q 929 331 928.5 311 Q 928 291 926 251 Q 924 211 909 182.5 Q 894 154 891.5 144.5 Q 889 135 896 127 Q 903 119 924 119 Q 947 120 998.5 133 Q 1050 146 1067 158.5 Q 1084 171 1086 179.5 Q 1088 188 1087 196 Q 1085 208 1075 228 Q 1065 248 1062 257.5 Q 1059 267 1057 305 L 1055 340 L 1052 429 Z"/><path d="M 1042 577 Q 1093 570 1125 566.5 Q 1157 563 1193 556 Q 1229 549 1239 549 Q 1258 550 1285.5 559.5 Q 1313 569 1323.5 578 Q 1334 587 1349 603.5 Q 1364 620 1364.5 626 Q 1365 632 1354 639 Q 1342 647 1316.5 645 Q 1291 643 1208.5 645.5 Q 1126 648 1114 649 L 896 669 Q 834 675 789 682.5 Q 744 690 726 689 Q 702 689 677 681 Q 652 673 633.5 658 Q 615 643 616.5 634.5 Q 618 626 638 623 L 809 604 L 932 592 L 1042 577 Z"/><path d="M 733 1084 L 693 912 Q 683 873 679 862.5 Q 675 852 660 835 L 628 801 Q 621 793 621.5 784.5 Q 622 776 655 775 Q 668 775 695.5 783 Q 723 791 736 794 Q 749 797 760 795 Q 776.5 813.5 773 844 L 796 1007 Q 803 1038.5 796 1068 L 764 1099 Q 743.5 1112.5 733 1084 Z"/><path d="M 760 795 L 1006 762 Q 1163 741 1201 730.5 Q 1239 720 1250 719 Q 1266 719 1299 732.5 Q 1332 746 1356 759.5 Q 1380 773 1386.5 783.5 Q 1393 794 1393 799 Q 1392 805 1379 817 Q 1366 829 1350.5 852 Q 1335 875 1313 914 L 1276 979 Q 1217 1004 1204 955 L 1224 852 Q 1226 838 1225 825 Q 1224 812 1214.5 804 Q 1205 796 1136 803 L 773 844 L 760 795 Z"/><path d="M 1276 979 Q 1291 989 1297.5 995.5 Q 1304 1002 1304.5 1009 Q 1305 1016 1302 1018.5 Q 1299 1021 1279 1022 L 1219 1027 L 1176 1031 L 796 1068 L 796 1007 L 1204 955 L 1276 979 Z"/><path d="M 768 1320 Q 745 1292 738 1276 L 720 1231 L 693 1172 L 668 1106 Q 659 1086 658.5 1076 Q 658 1066 662 1062 Q 666 1058 678.5 1059.5 Q 691 1061 706 1069 L 733 1084 L 764 1099 Q 791 1121 806 1138.5 Q 821 1156 830.5 1185 Q 840 1214 839.5 1246 Q 839 1278 833 1295 L 827 1313 Q 800.5 1336.5 768 1320 Z"/><path d="M 1219 1027 Q 1268 1048 1292 1062.5 Q 1316 1077 1325.5 1092.5 Q 1335 1108 1335 1116 Q 1334 1125 1313.5 1142.5 Q 1293 1160 1276 1187 L 1246 1235 L 1213 1283 Q 1119 1354 1137 1289 Q 1148 1254 1155.5 1226 Q 1163 1198 1169.5 1153 Q 1176 1108 1176 1079 L 1176 1031 L 1219 1027 Z"/><path d="M 1213 1283 L 1434 1262 L 1569 1245 Q 1661 1235 1682 1231.5 Q 1703 1228 1717 1228 Q 1734 1229 1757 1237.5 Q 1780 1246 1817.5 1268 Q 1855 1290 1865 1305 Q 1875 1320 1874.5 1328.5 Q 1874 1337 1852.5 1345.5 Q 1831 1354 1697 1354 L 1501 1354 Q 1313 1354 1159.5 1362 Q 1006 1370 904.5 1379 Q 803 1388 698 1401.5 Q 593 1415 545 1424 L 431 1446 L 378 1454 Q 329 1464 323 1463 Q 298 1463 251 1442 Q 204 1421 189 1408 Q 174 1395 173 1389.5 Q 172 1384 173 1379 Q 175 1371 192.5 1366.5 Q 210 1362 237 1360 L 333 1356 Q 393 1354 461.5 1349.5 Q 530 1345 620 1335 L 768 1320 L 827 1313 L 1137 1289 L 1213 1283 Z"/><path d="M 751 1884 Q 746 1905 738.5 1917 Q 731 1929 719 1932.5 Q 707 1936 687 1909 Q 675 1894 667 1867.5 Q 659 1841 647 1745 Q 635 1649 625.5 1617.5 Q 616 1586 598 1565.5 Q 580 1545 577 1536.5 Q 574 1528 577.5 1522.5 Q 581 1517 589.5 1516 Q 598 1515 608 1515 Q 639 1518 652 1522 L 701 1536 Q 736 1546 733 1604 Q 740 1662 741 1669 L 752 1807 L 751 1884 Z"/><path d="M 701 1536 L 1179 1482 Q 1237 1476 1258 1470 L 1295 1460 Q 1310 1457 1322 1458 Q 1333 1460 1356 1468.5 Q 1379 1477 1411.5 1498 Q 1444 1519 1467 1538.5 Q 1490 1558 1488 1571 Q 1486 1578 1479.5 1586 Q 1473 1594 1440 1623 Q 1407 1652 1384 1687 L 1354 1739 L 1325 1790 Q 1253 1833.5 1221 1763 Q 1231 1736 1236 1721 L 1253 1662 Q 1268 1613 1271 1598 Q 1274 1583 1269 1572 Q 1264 1561 1247.5 1555 Q 1231 1549 1181.5 1552.5 Q 1132 1556 1103 1558.5 Q 1074 1561 964.5 1573 Q 855 1585 810 1595 Q 765 1605 758 1604 L 733 1604 L 701 1536 Z"/><path d="M 1325 1790 Q 1346 1800 1362 1815 Q 1378 1830 1373 1841.5 Q 1368 1853 1329 1854 L 1122 1864 L 805 1887 L 751 1884 L 752 1807 Q 796 1806 842.5 1804 Q 889 1802 1050 1783 L 1221 1763 L 1325 1790 Z"/></g></g>
</g>

<g class="page-number"><text x="105.0" y="292.0" font-size="3" fill="#999" font-family="sans-serif" text-anchor="middle">- 1 -</text></g>
</svg>