<svg xmlns="http://www.w3.org/2000/svg" viewBox="0 0 210.0 297.0" width="210.0mm" height="297.0mm">
<rect x="0" y="0" width="210.0" height="297.0" fill="white"/>
<rect x="0.5" y="0.5" width="209.0" height="296.0" fill="none" stroke="#aaa" stroke-width="0.4"/>
<g class="grid" fill="none" stroke="#c8c8c8" stroke-width="0.2">
  <line x1="15.00" y1="15.00" x2="195.00" y2="15.00"/>
  <line x1="15.00" y1="30.00" x2="195.00" y2="30.00"/>
  <line x1="15.00" y1="45.00" x2="195.00" y2="45.00"/>
  <line x1="15.00" y1="60.00" x2="195.00" y2="60.00"/>
  <line x1="15.00" y1="75.00" x2="195.00" y2="75.00"/>
  <line x1="15.00" y1="90.00" x2="195.00" y2="90.00"/>
  <line x1="15.00" y1="105.00" x2="195.00" y2="105.00"/>
  <line x1="15.00" y1="120.00" x2="195.00" y2="120.00"/>
  <line x1="15.00" y1="135.00" x2="195.00" y2="135.00"/>
  <line x1="15.00" y1="150.00" x2="195.00" y2="150.00"/>
  <line x1="15.00" y1="165.00" x2="195.00" y2="165.00"/>
  <line x1="15.00" y1="180.00" x2="195.00" y2="180.00"/>
  <line x1="15.00" y1="195.00" x2="195.00" y2="195.00"/>
  <line x1="15.00" y1="210.00" x2="195.00" y2="210.00"/>
  <line x1="15.00" y1="225.00" x2="195.00" y2="225.00"/>
  <line x1="15.00" y1="240.00" x2="195.00" y2="240.00"/>
  <line x1="15.00" y1="255.00" x2="195.00" y2="255.00"/>
  <line x1="15.00" y1="270.00" x2="195.00" y2="270.00"/>
  <line x1="15.00" y1="282.00" x2="195.00" y2="282.00"/>
  <line x1="15.00" y1="15.00" x2="15.00" y2="282.00"/>
  <line x1="30.00" y1="15.00" x2="30.00" y2="282.00"/>
  <line x1="45.00" y1="15.00" x2="45.00" y2="282.00"/>
  <line x1="60.00" y1="15.00" x2="60.00" y2="282.00"/>
  <line x1="75.00" y1="15.00" x2="75.00" y2="282.00"/>
  <line x1="90.00" y1="15.00" x2="90.00" y2="282.00"/>
  <line x1="105.00" y1="15.00" x2="105.00" y2="282.00"/>
  <line x1="120.00" y1="15.00" x2="120.00" y2="282.00"/>
  <line x1="135.00" y1="15.00" x2="135.00" y2="282.00"/>
  <line x1="150.00" y1="15.00" x2="150.00" y2="282.00"/>
  <line x1="165.00" y1="15.00" x2="165.00" y2="282.00"/>
  <line x1="180.00" y1="15.00" x2="180.00" y2="282.00"/>
  <line x1="195.00" y1="15.00" x2="195.00" y2="282.00"/>
  </g>
<g class="chars">
<g transform="translate(15.0,15.0) scale(0.00732421875,0.00732421875)"><g fill="#222"><path d="M 858 274 Q 793 281 761.5 284.5 Q 730 288 671 296 Q 612 304 570.5 309 Q 529 314 506 320 Q 483 326 477 326 Q 464 327 434.5 319.5 Q 405 312 396.5 308 Q 388 304 362.5 290.5 Q 337 277 334.5 266.5 Q 332 256 337 250 Q 340 245 354.5 244.5 Q 369 244 391 241.5 Q 413 239 467 234 L 570 223 L 726 209 L 1222 157 Q 1258 154 1328.5 145 Q 1399 136 1438 129.5 Q 1477 123 1497 124 Q 1513 126 1544 136.5 Q 1575 147 1596 158.5 Q 1617 170 1629.5 188.5 Q 1642 207 1636.5 216.5 Q 1631 226 1620 229 Q 1611 232 1590.5 230 Q 1570 228 1538.5 230.5 Q 1507 233 1451 234.5 Q 1395 236 1313.5 242 Q 1232 248 1137.5 253 Q 1043 258 1026 259 L 949 265 L 858 274 Z"/><path d="M 799 446 Q 812 427 822.5 410 Q 833 393 841.5 364 Q 850 335 853 314 L 858 274 L 949 265 Q 970 278 982 286.5 Q 994 295 1000 305 Q 1006 315 1004.5 322.5 Q 1003 330 988.5 340 Q 974 350 950 373 L 908 410 L 880 438 Q 752.5 504 799 446 Z"/><path d="M 708 1033 L 702 1050 Q 696 1066 685.5 1076.5 Q 675 1087 663 1086 Q 649 1086 636 1068.5 Q 623 1051 617.5 1033.5 Q 612 1016 612 991 Q 611 981 614.5 935.5 Q 618 890 618 807 Q 617 718 616 688 L 608 588 Q 603 534 592.5 501.5 Q 582 469 580.5 459.5 Q 579 450 585 443 Q 591 436 616 438 Q 643 441 657 446 L 697 460 Q 730 459.5 713 515 Q 715 538 716 549 L 716 599 L 716 643 L 716 694 L 714 814 L 713 860 Q 713 907 713 916 L 710 974 L 708 1033 Z"/><path d="M 697 460 Q 740 456 749 454 L 799 446 L 880 438 Q 933 430 961 426 L 1081 410 Q 1144 402 1199 390 Q 1254 378 1271 375.5 Q 1288 373 1303 374 Q 1319 376 1341 383.5 Q 1363 391 1393 408.5 Q 1423 426 1439.5 441.5 Q 1456 457 1456 468 Q 1455 475 1445.5 491 Q 1436 507 1431 526 Q 1426 545 1424 573.5 Q 1422 602 1421.5 669 Q 1421 736 1422 766 L 1425 877 Q 1425 928 1422 958 Q 1417 994 1405.5 1019.5 Q 1394 1045 1377 1059.5 Q 1360 1074 1348 1072 Q 1335 1071 1327.5 1062 Q 1320 1053 1309 1027 L 1297 999 Q 1222.5 910.5 1292 938 Q 1299 936 1298.5 911.5 Q 1298 887 1299 861 L 1300 807 L 1300 767 L 1300 621 L 1296 584 L 1296 538 Q 1296 507 1291.5 490 Q 1287 473 1275.5 464 Q 1264 455 1237 454 Q 1206 454 1141 462 L 1028 476 Q 987 482 916 493 Q 845 504 807.5 508.5 Q 770 513 752 513 L 713 515 L 697 460 Z"/><path d="M 1300 621 Q 1272 630 1259.5 632.5 Q 1247 635 1175 643 L 1066 660 L 927 679 L 813 696 Q 767 702 752 699 L 716 694 L 716 643 Q 771 637 799 632 L 902 615 L 1019 596 Q 1073 587 1122.5 575 Q 1172 563 1189 562 Q 1206 562 1233 568 L 1275 579 L 1296 584 L 1300 621 Z"/><path d="M 1300 807 Q 1274 814 1258.5 817 Q 1243 820 1186.5 824 Q 1130 828 1049 838 L 922 855 Q 856 864 814 866.5 Q 772 869 755 866 L 713 860 L 714 814 Q 761 810 788.5 807 Q 816 804 917 789 Q 1018 774 1036 771 L 1152 752 Q 1188 747 1209 747 Q 1228 748 1245 752 L 1280 763 L 1300 767 L 1300 807 Z"/><path d="M 1297 999 Q 1263 1002 1242 1003.5 Q 1221 1005 1156.5 1009 Q 1092 1013 1055 1016 L 949 1027 Q 899 1032 861 1033 L 794 1035 Q 749 1038 745 1037 L 708 1033 L 710 974 Q 769 971 830 968 Q 891 965 912.5 963 Q 934 961 1035.5 948.5 Q 1137 936 1171 929.5 Q 1205 923 1220 922 Q 1239 922 1250.5 925.5 Q 1262 929 1274.5 934.5 Q 1287 940 1292 938 L 1297 999 Z"/><path d="M 733 1376 Q 709 1409 690 1433.5 Q 671 1458 629 1505 Q 587 1552 550 1589.5 Q 513 1627 478.5 1654.5 Q 444 1682 386 1720.5 Q 328 1759 304 1771 L 245 1801 Q 226 1811 221 1802 Q 216 1793 232 1779 L 288 1733 Q 314 1711 351 1677 Q 388 1643 432 1597.5 Q 476 1552 518.5 1502.5 Q 561 1453 580 1424 L 631 1349 L 669 1281 Q 682 1257 692.5 1234.5 Q 703 1212 712 1181.5 Q 721 1151 723 1131.5 Q 725 1112 725.5 1094 Q 726 1076 730 1071 Q 734 1066 745 1064 Q 757 1063 779 1071.5 Q 801 1080 820 1090.5 Q 839 1101 857.5 1114.5 Q 876 1128 884.5 1144 Q 893 1160 889 1168 L 875 1179 L 851 1203 L 802 1270 L 783 1306 L 733 1376 Z"/><path d="M 851 1203 Q 879 1202 899.5 1200 Q 920 1198 952 1194.5 Q 984 1191 1045 1180 Q 1106 1169 1137.5 1164 Q 1169 1159 1201.5 1148.5 Q 1234 1138 1246 1138 Q 1257 1139 1281.5 1146.5 Q 1306 1154 1336.5 1170.5 Q 1367 1187 1384 1206.5 Q 1401 1226 1399 1238 Q 1397 1247 1376 1263.5 Q 1355 1280 1343 1292 Q 1331 1304 1306.5 1340 Q 1282 1376 1237.5 1438 Q 1193 1500 1177 1516 L 1133 1563 L 1055 1639 Q 1033 1658 1008 1678 Q 983 1698 959 1713.5 Q 935 1729 889 1751.5 Q 843 1774 810.5 1784.5 Q 778 1795 707.5 1811 Q 637 1827 616 1828 L 552 1831 Q 529 1833 528.5 1820.5 Q 528 1808 549 1801 L 605 1782 Q 630 1774 673 1755.5 Q 716 1737 762.5 1713 Q 809 1689 859.5 1657 Q 910 1625 932 1602 L 968 1566 L 1037 1500 Q 1055 1479 1081.5 1446 Q 1108 1413 1125.5 1387 Q 1143 1361 1173 1312.5 Q 1203 1264 1208.5 1243.5 Q 1214 1223 1208 1216.5 Q 1202 1210 1173 1216 L 961 1265 L 915 1276 Q 888 1282 864 1281 Q 837 1281 823 1276 L 802 1270 L 851 1203 Z"/><path d="M 1133 1563 Q 1184 1601 1219.5 1624 Q 1255 1647 1321.5 1679.5 Q 1388 1712 1430 1727.5 Q 1472 1743 1563 1770.5 Q 1654 1798 1695.5 1809 Q 1737 1820 1747 1823 L 1806 1842 Q 1826 1849 1825.5 1862 Q 1825 1875 1806 1879 L 1748 1893 Q 1729 1898 1683 1906.5 Q 1637 1915 1617 1917 L 1550 1922 Q 1501 1926 1494 1926 Q 1463 1927 1433 1918.5 Q 1403 1910 1363 1884 Q 1323 1858 1283 1828 Q 1243 1798 1195 1758.5 Q 1147 1719 1111 1687 L 1055 1639 L 968 1566 Q 931 1536 913 1519 L 847 1459 Q 795 1413 777 1402 L 733 1376 L 631 1349 Q 615 1346 598 1342 Q 581 1338 566 1327 Q 551 1316 552 1306 Q 552 1294 566.5 1287 Q 581 1280 599 1278 Q 627 1277 640 1278 L 669 1281 L 783 1306 Q 800 1310 811.5 1315 Q 823 1320 842.5 1335.5 Q 862 1351 890 1375 Q 918 1399 983 1454 L 1037 1500 L 1133 1563 Z"/></g></g>
</g>

<g class="page-number"><text x="105.0" y="292.0" font-size="3" fill="#999" font-family="sans-serif" text-anchor="middle">- 1 -</text></g>
</svg>