<svg xmlns="http://www.w3.org/2000/svg" viewBox="0 0 210.0 297.0" width="210.0mm" height="297.0mm">
<rect x="0" y="0" width="210.0" height="297.0" fill="white"/>
<rect x="0.5" y="0.5" width="209.0" height="296.0" fill="none" stroke="#aaa" stroke-width="0.4"/>
<g class="grid" fill="none" stroke="#c8c8c8" stroke-width="0.2">
  <line x1="15.00" y1="15.00" x2="195.00" y2="15.00"/>
  <line x1="15.00" y1="30.00" x2="195.00" y2="30.00"/>
  <line x1="15.00" y1="45.00" x2="195.00" y2="45.00"/>
  <line x1="15.00" y1="60.00" x2="195.00" y2="60.00"/>
  <line x1="15.00" y1="75.00" x2="195.00" y2="75.00"/>
  <line x1="15.00" y1="90.00" x2="195.00" y2="90.00"/>
  <line x1="15.00" y1="105.00" x2="195.00" y2="105.00"/>
  <line x1="15.00" y1="120.00" x2="195.00" y2="120.00"/>
  <line x1="15.00" y1="135.00" x2="195.00" y2="135.00"/>
  <line x1="15.00" y1="150.00" x2="195.00" y2="150.00"/>
  <line x1="15.00" y1="165.00" x2="195.00" y2="165.00"/>
  <line x1="15.00" y1="180.00" x2="195.00" y2="180.00"/>
  <line x1="15.00" y1="195.00" x2="195.00" y2="195.00"/>
  <line x1="15.00" y1="210.00" x2="195.00" y2="210.00"/>
  <line x1="15.00" y1="225.00" x2="195.00" y2="225.00"/>
  <line x1="15.00" y1="240.00" x2="195.00" y2="240.00"/>
  <line x1="15.00" y1="255.00" x2="195.00" y2="255.00"/>
  <line x1="15.00" y1="270.00" x2="195.00" y2="270.00"/>
  <line x1="15.00" y1="282.00" x2="195.00" y2="282.00"/>
  <line x1="15.00" y1="15.00" x2="15.00" y2="282.00"/>
  <line x1="30.00" y1="15.00" x2="30.00" y2="282.00"/>
  <line x1="45.00" y1="15.00" x2="45.00" y2="282.00"/>
  <line x1="60.00" y1="15.00" x2="60.00" y2="282.00"/>
  <line x1="75.00" y1="15.00" x2="75.00" y2="282.00"/>
  <line x1="90.00" y1="15.00" x2="90.00" y2="282.00"/>
  <line x1="105.00" y1="15.00" x2="105.00" y2="282.00"/>
  <line x1="120.00" y1="15.00" x2="120.00" y2="282.00"/>
  <line x1="135.00" y1="15.00" x2="135.00" y2="282.00"/>
  <line x1="150.00" y1="15.00" x2="150.00" y2="282.00"/>
  <line x1="165.00" y1="15.00" x2="165.00" y2="282.00"/>
  <line x1="180.00" y1="15.00" x2="180.00" y2="282.00"/>
  <line x1="195.00" y1="15.00" x2="195.00" y2="282.00"/>
  </g>
<g class="chars">
<g transform="translate(15.0,15.0) scale(0.00732421875,0.00732421875)"><g fill="#222"><path d="M 814 523 L 660 535 Q 644 537 614 535 Q 584 533 560 525.5 Q 536 518 515.5 504.5 Q 495 491 494.5 481.5 Q 494 472 497 466 Q 503 454 539 451 L 606 446 Q 707 439 736 434 L 927 404 Q 957 400 1029.5 382.5 Q 1102 365 1147.5 349 Q 1193 333 1207 331 Q 1231 328 1248.5 332.5 Q 1266 337 1309.5 353.5 Q 1353 370 1368 378.5 Q 1383 387 1384.5 397.5 Q 1386 408 1372 418 Q 1358 428 1313 438 L 1250 452 L 1098 478 L 926 507 L 814 523 Z"/><path d="M 826 958 L 662 980 Q 600 989 582 993 Q 564 997 528.5 1005 Q 493 1013 471.5 1019.5 Q 450 1026 439 1025 Q 428 1025 407.5 1018.5 Q 387 1012 369 1003.5 Q 351 995 327 982 Q 303 969 298 956 Q 293 943 297 937 Q 301 931 322 929 L 385 923 L 614 894 L 845 867 L 979 846 L 1142 824 L 1239 806 Q 1307 795 1346.5 783.5 Q 1386 772 1395 771 Q 1418 771 1450 784 Q 1482 797 1508.5 811.5 Q 1535 826 1556 841.5 Q 1577 857 1577 869 Q 1576 879 1568 887 Q 1560 895 1534 897 L 1483 902 L 1248 916 L 982 935 L 826 958 Z"/><path d="M 845 867 L 851 707 Q 851 693 847 653.5 Q 843 614 839.5 589.5 Q 836 565 829 552 L 814 523 L 926 507 Q 962 520 983.5 531.5 Q 1005 543 1009 554 Q 1013 565 1010 583 L 1001 618 Q 999 626 991.5 664.5 Q 984 703 984 718 L 979 846 L 951 1005 Q 941 1032 928 1067 Q 915 1102 888 1161 Q 861 1220 820 1288 Q 779 1356 734.5 1405.5 Q 690 1455 621.5 1507.5 Q 553 1560 499.5 1589.5 Q 446 1619 379.5 1647.5 Q 313 1676 273.5 1690 Q 234 1704 216 1708 L 180 1717 Q 169 1720 167.5 1710.5 Q 166 1701 172 1697 L 191 1686 Q 194 1685 234 1664 Q 274 1643 340 1600 Q 406 1557 460 1517 Q 514 1477 559.5 1432.5 Q 605 1388 653.5 1324 Q 702 1260 730.5 1206.5 Q 759 1153 784.5 1087 Q 810 1021 818 989 L 826 958 L 845 867 Z"/><path d="M 982 935 Q 1013 978 1039 1012.5 Q 1065 1047 1126.5 1122 Q 1188 1197 1250.5 1264.5 Q 1313 1332 1371.5 1381 Q 1430 1430 1500 1477 Q 1570 1524 1651.5 1564.5 Q 1733 1605 1769 1619 Q 1805 1633 1833 1644 L 1861 1655 Q 1888 1666 1882.5 1677.5 Q 1877 1689 1869 1691 L 1838 1700 Q 1826 1704 1794 1706 L 1719 1714 Q 1685 1718 1627 1719 Q 1548 1722 1501.5 1717 Q 1455 1712 1421.5 1695.5 Q 1388 1679 1338.5 1613 Q 1289 1547 1252.5 1492 Q 1216 1437 1135 1309.5 Q 1054 1182 1025 1135 Q 996 1088 976 1050 L 951 1005 Q 888.5 878 982 935 Z"/></g></g>
</g>

<g class="page-number"><text x="105.0" y="292.0" font-size="3" fill="#999" font-family="sans-serif" text-anchor="middle">- 1 -</text></g>
</svg>