<svg xmlns="http://www.w3.org/2000/svg" viewBox="0 0 210.0 297.0" width="210.0mm" height="297.0mm">
<rect x="0" y="0" width="210.0" height="297.0" fill="white"/>
<rect x="0.5" y="0.5" width="209.0" height="296.0" fill="none" stroke="#aaa" stroke-width="0.4"/>
<g class="grid" fill="none" stroke="#c8c8c8" stroke-width="0.2">
  <line x1="15.00" y1="15.00" x2="195.00" y2="15.00"/>
  <line x1="15.00" y1="30.00" x2="195.00" y2="30.00"/>
  <line x1="15.00" y1="45.00" x2="195.00" y2="45.00"/>
  <line x1="15.00" y1="60.00" x2="195.00" y2="60.00"/>
  <line x1="15.00" y1="75.00" x2="195.00" y2="75.00"/>
  <line x1="15.00" y1="90.00" x2="195.00" y2="90.00"/>
  <line x1="15.00" y1="105.00" x2="195.00" y2="105.00"/>
  <line x1="15.00" y1="120.00" x2="195.00" y2="120.00"/>
  <line x1="15.00" y1="135.00" x2="195.00" y2="135.00"/>
  <line x1="15.00" y1="150.00" x2="195.00" y2="150.00"/>
  <line x1="15.00" y1="165.00" x2="195.00" y2="165.00"/>
  <line x1="15.00" y1="180.00" x2="195.00" y2="180.00"/>
  <line x1="15.00" y1="195.00" x2="195.00" y2="195.00"/>
  <line x1="15.00" y1="210.00" x2="195.00" y2="210.00"/>
  <line x1="15.00" y1="225.00" x2="195.00" y2="225.00"/>
  <line x1="15.00" y1="240.00" x2="195.00" y2="240.00"/>
  <line x1="15.00" y1="255.00" x2="195.00" y2="255.00"/>
  <line x1="15.00" y1="270.00" x2="195.00" y2="270.00"/>
  <line x1="15.00" y1="282.00" x2="195.00" y2="282.00"/>
  <line x1="15.00" y1="15.00" x2="15.00" y2="282.00"/>
  <line x1="30.00" y1="15.00" x2="30.00" y2="282.00"/>
  <line x1="45.00" y1="15.00" x2="45.00" y2="282.00"/>
  <line x1="60.00" y1="15.00" x2="60.00" y2="282.00"/>
  <line x1="75.00" y1="15.00" x2="75.00" y2="282.00"/>
  <line x1="90.00" y1="15.00" x2="90.00" y2="282.00"/>
  <line x1="105.00" y1="15.00" x2="105.00" y2="282.00"/>
  <line x1="120.00" y1="15.00" x2="120.00" y2="282.00"/>
  <line x1="135.00" y1="15.00" x2="135.00" y2="282.00"/>
  <line x1="150.00" y1="15.00" x2="150.00" y2="282.00"/>
  <line x1="165.00" y1="15.00" x2="165.00" y2="282.00"/>
  <line x1="180.00" y1="15.00" x2="180.00" y2="282.00"/>
  <line x1="195.00" y1="15.00" x2="195.00" y2="282.00"/>
  </g>
<g class="chars">
<g transform="translate(15.0,15.0) scale(0.00732421875,0.00732421875)"><g fill="#222"><path d="M 399 1217 L 396 1255 Q 391 1312 373.5 1311.5 Q 356 1311 343 1301 Q 330 1291 314.5 1260 Q 299 1229 297.5 1193.5 Q 296 1158 309 1089 Q 320 1030 323.5 998.5 Q 327 967 334.5 825.5 Q 342 684 342.5 651 Q 343 618 337 552 Q 332 503 325 484 Q 318 465 307 446.5 Q 296 428 299 418 Q 302 408 322 406.5 Q 342 405 351 409 L 407 432 Q 436.5 436.5 424 485 Q 425 519 426.5 556.5 Q 428 594 427 622 L 419 798 L 418 855 L 404 1153 L 399 1217 Z"/><path d="M 407 432 Q 466 421 494 415.5 Q 522 410 569 400 Q 616 390 635.5 384.5 Q 655 379 675.5 370.5 Q 696 362 705 362 Q 712 363 734 371.5 Q 756 380 776.5 393 Q 797 406 817 424 Q 837 442 841 451 Q 845 460 841 474 L 827 504 Q 822 516 820.5 536.5 Q 819 557 818 602.5 Q 817 648 814 759 Q 811 870 816 941 Q 817 976 825.5 1059 Q 834 1142 833 1167 Q 829 1212 809.5 1261.5 Q 790 1311 759 1339 Q 728 1367 713 1356 Q 706 1352 696 1320.5 Q 686 1289 666 1236 L 655 1208 Q 609 1108.5 663 1139 L 691 1155 Q 696 1137 702.5 1110.5 Q 709 1084 710 1047 L 716 822 L 716 774 L 719 568 Q 719 528 718 514.5 Q 717 501 709 487.5 Q 701 474 687.5 466.5 Q 674 459 645 458 Q 616 458 578.5 461 Q 541 464 518 468 L 424 485 L 407 432 Z"/><path d="M 716 822 Q 678 830 660 833 L 577 846 Q 510 857 484.5 859 Q 459 861 443 858 L 418 855 L 419 798 Q 439 796 464 792.5 Q 489 789 520.5 782.5 Q 552 776 579.5 769 Q 607 762 621 760 Q 652 757 674 763 L 716 774 L 716 822 Z"/><path d="M 655 1208 Q 549 1218 498.5 1223 Q 448 1228 437 1225 L 399 1217 L 404 1153 L 541 1139 L 621 1130 Q 650 1132 663 1139 L 655 1208 Z"/><path d="M 1113 1097 Q 1097 1163 1078.5 1230.5 Q 1060 1298 1011.5 1401 Q 963 1504 923 1557.5 Q 883 1611 840.5 1653 Q 798 1695 777 1706 L 746 1722 Q 731 1730 725 1724 Q 719 1718 729 1706 L 760 1669 L 791 1633 Q 815 1604 856.5 1528 Q 898 1452 931 1371 Q 964 1290 990.5 1177.5 Q 1017 1065 1028.5 988 Q 1040 911 1049.5 812.5 Q 1059 714 1061 637.5 Q 1063 561 1062 511 Q 1059 456 1053 412.5 Q 1047 369 1034.5 344 Q 1022 319 1023.5 310 Q 1025 301 1032.5 296 Q 1040 291 1058 293 Q 1072 296 1099 304.5 Q 1126 313 1136 318 L 1166 334 Q 1205 346.5 1192 399 Q 1190 416 1189 424 L 1181 477 Q 1176 511 1175 535 L 1166 733 L 1164 766 Q 1153 853 1152 863 L 1124 1062 L 1113 1097 Z"/><path d="M 1166 334 Q 1229 328 1264 323 Q 1299 318 1355 306.5 Q 1411 295 1444 286 Q 1477 277 1508 265 L 1561 243 Q 1571 239 1578 238 Q 1592 237 1616.5 249.5 Q 1641 262 1671.5 281 Q 1702 300 1727 320.5 Q 1752 341 1751 357 Q 1750 364 1745 374 L 1734 393 Q 1725 409 1717 430 Q 1709 451 1706.5 461.5 Q 1704 472 1695 577 L 1693 999 Q 1692 1155 1696 1315 Q 1700 1475 1693 1551 Q 1686 1616 1673.5 1663 Q 1661 1710 1642 1750 Q 1623 1790 1605 1801 Q 1587 1812 1576 1811 Q 1560 1811 1533 1775 Q 1506 1739 1470 1702 L 1395 1630 Q 1360 1597 1345 1586 L 1322 1570 Q 1310 1563 1314 1552.5 Q 1318 1542 1333 1545 L 1364 1553 L 1431 1573 Q 1455 1580 1492.5 1588 Q 1530 1596 1539 1590 Q 1547 1585 1555 1548.5 Q 1563 1512 1565 1495 L 1567 1423 L 1576 1110 L 1575 1072 L 1576 1051 L 1579 745 L 1576 716 L 1578 466 Q 1578 399 1567 381 Q 1556 363 1527 353 Q 1500 345 1442 355 L 1350 370 L 1261 387 L 1192 399 L 1166 334 Z"/><path d="M 1579 745 Q 1541 750 1523 752 L 1425 769 Q 1361 780 1300 783.5 Q 1239 787 1217 780 L 1164 766 L 1166 733 Q 1253 716 1308 705 Q 1363 694 1403.5 684.5 Q 1444 675 1461 674 Q 1501 673 1520 685 L 1576 716 L 1579 745 Z"/><path d="M 1575 1072 Q 1553 1078 1533.5 1082.5 Q 1514 1087 1475 1091 L 1357 1104 Q 1271 1115 1248 1115 Q 1194 1117 1161 1108 L 1113 1097 L 1124 1062 Q 1241 1045 1331.5 1027.5 Q 1422 1010 1440.5 1007 Q 1459 1004 1475 1005 Q 1511 1008 1536 1025 L 1576 1051 L 1575 1072 Z"/></g></g>
</g>

<g class="page-number"><text x="105.0" y="292.0" font-size="3" fill="#999" font-family="sans-serif" text-anchor="middle">- 1 -</text></g>
</svg>