<svg xmlns="http://www.w3.org/2000/svg" viewBox="0 0 210.0 297.0" width="210.0mm" height="297.0mm">
<rect x="0" y="0" width="210.0" height="297.0" fill="white"/>
<rect x="0.5" y="0.5" width="209.0" height="296.0" fill="none" stroke="#aaa" stroke-width="0.4"/>
<g class="grid" fill="none" stroke="#c8c8c8" stroke-width="0.2">
  <line x1="15.00" y1="15.00" x2="195.00" y2="15.00"/>
  <line x1="15.00" y1="30.00" x2="195.00" y2="30.00"/>
  <line x1="15.00" y1="45.00" x2="195.00" y2="45.00"/>
  <line x1="15.00" y1="60.00" x2="195.00" y2="60.00"/>
  <line x1="15.00" y1="75.00" x2="195.00" y2="75.00"/>
  <line x1="15.00" y1="90.00" x2="195.00" y2="90.00"/>
  <line x1="15.00" y1="105.00" x2="195.00" y2="105.00"/>
  <line x1="15.00" y1="120.00" x2="195.00" y2="120.00"/>
  <line x1="15.00" y1="135.00" x2="195.00" y2="135.00"/>
  <line x1="15.00" y1="150.00" x2="195.00" y2="150.00"/>
  <line x1="15.00" y1="165.00" x2="195.00" y2="165.00"/>
  <line x1="15.00" y1="180.00" x2="195.00" y2="180.00"/>
  <line x1="15.00" y1="195.00" x2="195.00" y2="195.00"/>
  <line x1="15.00" y1="210.00" x2="195.00" y2="210.00"/>
  <line x1="15.00" y1="225.00" x2="195.00" y2="225.00"/>
  <line x1="15.00" y1="240.00" x2="195.00" y2="240.00"/>
  <line x1="15.00" y1="255.00" x2="195.00" y2="255.00"/>
  <line x1="15.00" y1="270.00" x2="195.00" y2="270.00"/>
  <line x1="15.00" y1="282.00" x2="195.00" y2="282.00"/>
  <line x1="15.00" y1="15.00" x2="15.00" y2="282.00"/>
  <line x1="30.00" y1="15.00" x2="30.00" y2="282.00"/>
  <line x1="45.00" y1="15.00" x2="45.00" y2="282.00"/>
  <line x1="60.00" y1="15.00" x2="60.00" y2="282.00"/>
  <line x1="75.00" y1="15.00" x2="75.00" y2="282.00"/>
  <line x1="90.00" y1="15.00" x2="90.00" y2="282.00"/>
  <line x1="105.00" y1="15.00" x2="105.00" y2="282.00"/>
  <line x1="120.00" y1="15.00" x2="120.00" y2="282.00"/>
  <line x1="135.00" y1="15.00" x2="135.00" y2="282.00"/>
  <line x1="150.00" y1="15.00" x2="150.00" y2="282.00"/>
  <line x1="165.00" y1="15.00" x2="165.00" y2="282.00"/>
  <line x1="180.00" y1="15.00" x2="180.00" y2="282.00"/>
  <line x1="195.00" y1="15.00" x2="195.00" y2="282.00"/>
  </g>
<g class="chars">
<g transform="translate(15.0,15.0) scale(0.00732421875,0.00732421875)"><g fill="#222"><path d="M 855 458 Q 781 464 720 471.5 Q 659 479 640 479 Q 578 482 551.5 469.5 Q 525 457 513.5 441 Q 502 425 507.5 418.5 Q 513 412 526 412 L 556 412 Q 566 412 618 406 L 732 398 L 868 378 L 982 362 L 1144 337 L 1235 317 Q 1259 313 1279 312 Q 1313 312 1351 327.5 Q 1389 343 1386 360 Q 1383 377 1369 381 L 1330 393 Q 1310 399 1260 406 L 1132 426 Q 1066 436 1019 440 L 965 445 L 855 458 Z"/><path d="M 786 708 Q 752 710 734.5 711.5 Q 717 713 675.5 720.5 Q 634 728 614 728 Q 579 729 556.5 719.5 Q 534 710 521.5 697 Q 509 684 512 675.5 Q 515 667 534 665 L 571 662 Q 585 661 638.5 655.5 Q 692 650 740 645 L 808 639 L 918 621 L 1042 600 Q 1080 594 1132.5 581 Q 1185 568 1209 566 Q 1240 564 1266 569 Q 1292 574 1317.5 585.5 Q 1343 597 1343.5 610.5 Q 1344 624 1326 628 L 1306 633 Q 1292 637 1255 641 Q 1218 645 1157 654 L 1035 673 L 901 693 L 786 708 Z"/><path d="M 690 940 L 554 977 L 492 993 Q 431 1011 418 1012 Q 393 1015 367.5 1008 Q 342 1001 308.5 981 Q 275 961 265 946 Q 255 931 261 922 Q 267 913 289 912 L 339 910 Q 402 908 471 903.5 Q 540 899 598 888 L 725 867 L 845 851 Q 904 844 935 840 L 1142 822 Q 1196 817 1263 806.5 Q 1330 796 1370 786 L 1430 771 Q 1468 762 1491 762 Q 1516 763 1537.5 770.5 Q 1559 778 1601 795.5 Q 1643 813 1655.5 835 Q 1668 857 1660.5 870 Q 1653 883 1629 884 L 1584 886 L 1460 882 Q 1431 882 1349 885 Q 1267 888 1189 889 L 1116 890 L 1019 899 Q 928 908 910 910 L 811 922 L 690 940 Z"/><path d="M 725 867 Q 754 801 759 786 L 786 708 L 808 639 Q 835 558 839 538 L 855 458 L 868 378 L 878 280 Q 879 263 878 245.5 Q 877 228 872.5 196.5 Q 868 165 867 155 L 860 125 Q 857 111 860.5 105 Q 864 99 875 96 Q 890 92 920 102.5 Q 950 113 978 127.5 Q 1006 142 1026 162 Q 1046 182 1046 197 Q 1045 206 1031 229 Q 1017 252 1008 280 L 982 362 L 965 445 Q 943 524 939 541 L 918 621 L 901 693 Q 873 769 867 788 L 845 851 L 811 922 Q 751 1038 713 1093.5 Q 675 1149 609.5 1219 Q 544 1289 475 1343.5 Q 406 1398 344 1432.5 Q 282 1467 219.5 1489.5 Q 157 1512 136 1517 L 95 1528 Q 80 1532 76.5 1520.5 Q 73 1509 83 1502 L 125 1477 Q 133 1473 184.5 1444.5 Q 236 1416 299 1372.5 Q 362 1329 421 1275.5 Q 480 1222 551.5 1142.5 Q 623 1063 644 1023 L 690 940 L 725 867 Z"/><path d="M 1116 890 Q 1157 920 1181 939 Q 1205 958 1300.5 1039.5 Q 1396 1121 1472.5 1177.5 Q 1549 1234 1599 1260.5 Q 1649 1287 1745.5 1325.5 Q 1842 1364 1914 1383 L 1961 1396 Q 1969 1399 1975 1411.5 Q 1981 1424 1961 1428 L 1925 1436 L 1797 1461 Q 1701 1482 1667 1477 Q 1621 1472 1578.5 1444 Q 1536 1416 1500 1377.5 Q 1464 1339 1346 1210.5 Q 1228 1082 1166 1020 Q 1104 958 1074 937 L 1019 899 L 1116 890 Z"/><path d="M 754 1824 L 744 1856 Q 732 1892 716.5 1891.5 Q 701 1891 684 1865.5 Q 667 1840 664 1815 Q 661 1799 667 1749.5 Q 673 1700 671 1649 L 660 1374 Q 657 1317 650 1292 Q 643 1267 635.5 1252 Q 628 1237 630 1229 Q 632 1221 646 1216 Q 653 1214 679 1219 L 723 1230 Q 769.5 1238.5 760 1289 Q 762 1303 762.5 1311.5 Q 763 1320 760.5 1341.5 Q 758 1363 758 1376 L 752 1490 L 752 1545 L 756 1756 L 754 1824 Z"/><path d="M 723 1230 Q 755 1227 787.5 1222.5 Q 820 1218 868 1208 L 976 1185 Q 1032 1174 1056.5 1167 Q 1081 1160 1105 1150 Q 1129 1140 1138 1138 Q 1158 1135 1180.5 1143 Q 1203 1151 1230 1168 Q 1257 1185 1278 1203.5 Q 1299 1222 1299.5 1232 Q 1300 1242 1294 1257 Q 1287 1273 1282.5 1291.5 Q 1278 1310 1276 1325.5 Q 1274 1341 1271.5 1390 Q 1269 1439 1273 1498 Q 1275 1547 1282 1597.5 Q 1289 1648 1297.5 1700 Q 1306 1752 1305 1779 Q 1302 1829 1274.5 1881.5 Q 1247 1934 1222 1946 Q 1197 1958 1185 1955 Q 1169 1952 1150 1915 Q 1131 1878 1108 1844 L 1079 1802 Q 1006 1686.5 1121 1727 L 1163 1749 L 1173 1496 L 1174 1457 L 1172 1331 L 1172 1285 Q 1171 1253 1162.5 1244 Q 1154 1235 1134 1232 Q 1115 1230 1068 1233 L 982 1239 Q 948 1243 888.5 1257.5 Q 829 1272 805 1279.5 Q 781 1287 777 1287 L 760 1289 L 723 1230 Z"/><path d="M 1173 1496 Q 1129 1505 1107 1508 L 968 1533 Q 876 1550 838.5 1554 Q 801 1558 793 1555 L 752 1545 L 752 1490 Q 773 1490 788.5 1488.5 Q 804 1487 874 1473.5 Q 944 1460 990 1447.5 Q 1036 1435 1055 1433 Q 1073 1432 1100 1436 Q 1127 1440 1155 1450 L 1174 1457 L 1173 1496 Z"/><path d="M 1079 1802 Q 1038 1806 950.5 1813.5 Q 863 1821 848 1821 L 754 1824 L 756 1756 Q 844 1746 891 1740 Q 938 1734 995.5 1725 Q 1053 1716 1072 1716 Q 1105 1718 1121 1727 L 1079 1802 Z"/></g></g>
</g>

<g class="page-number"><text x="105.0" y="292.0" font-size="3" fill="#999" font-family="sans-serif" text-anchor="middle">- 1 -</text></g>
</svg>