<svg xmlns="http://www.w3.org/2000/svg" viewBox="0 0 210.0 297.0" width="210.0mm" height="297.0mm">
<rect x="0" y="0" width="210.0" height="297.0" fill="white"/>
<rect x="0.5" y="0.5" width="209.0" height="296.0" fill="none" stroke="#aaa" stroke-width="0.4"/>
<g class="grid" fill="none" stroke="#c8c8c8" stroke-width="0.2">
  <line x1="15.00" y1="15.00" x2="195.00" y2="15.00"/>
  <line x1="15.00" y1="30.00" x2="195.00" y2="30.00"/>
  <line x1="15.00" y1="45.00" x2="195.00" y2="45.00"/>
  <line x1="15.00" y1="60.00" x2="195.00" y2="60.00"/>
  <line x1="15.00" y1="75.00" x2="195.00" y2="75.00"/>
  <line x1="15.00" y1="90.00" x2="195.00" y2="90.00"/>
  <line x1="15.00" y1="105.00" x2="195.00" y2="105.00"/>
  <line x1="15.00" y1="120.00" x2="195.00" y2="120.00"/>
  <line x1="15.00" y1="135.00" x2="195.00" y2="135.00"/>
  <line x1="15.00" y1="150.00" x2="195.00" y2="150.00"/>
  <line x1="15.00" y1="165.00" x2="195.00" y2="165.00"/>
  <line x1="15.00" y1="180.00" x2="195.00" y2="180.00"/>
  <line x1="15.00" y1="195.00" x2="195.00" y2="195.00"/>
  <line x1="15.00" y1="210.00" x2="195.00" y2="210.00"/>
  <line x1="15.00" y1="225.00" x2="195.00" y2="225.00"/>
  <line x1="15.00" y1="240.00" x2="195.00" y2="240.00"/>
  <line x1="15.00" y1="255.00" x2="195.00" y2="255.00"/>
  <line x1="15.00" y1="270.00" x2="195.00" y2="270.00"/>
  <line x1="15.00" y1="282.00" x2="195.00" y2="282.00"/>
  <line x1="15.00" y1="15.00" x2="15.00" y2="282.00"/>
  <line x1="30.00" y1="15.00" x2="30.00" y2="282.00"/>
  <line x1="45.00" y1="15.00" x2="45.00" y2="282.00"/>
  <line x1="60.00" y1="15.00" x2="60.00" y2="282.00"/>
  <line x1="75.00" y1="15.00" x2="75.00" y2="282.00"/>
  <line x1="90.00" y1="15.00" x2="90.00" y2="282.00"/>
  <line x1="105.00" y1="15.00" x2="105.00" y2="282.00"/>
  <line x1="120.00" y1="15.00" x2="120.00" y2="282.00"/>
  <line x1="135.00" y1="15.00" x2="135.00" y2="282.00"/>
  <line x1="150.00" y1="15.00" x2="150.00" y2="282.00"/>
  <line x1="165.00" y1="15.00" x2="165.00" y2="282.00"/>
  <line x1="180.00" y1="15.00" x2="180.00" y2="282.00"/>
  <line x1="195.00" y1="15.00" x2="195.00" y2="282.00"/>
  </g>
<g class="chars">
<g transform="translate(15.0,15.0) scale(0.00732421875,0.00732421875)"><g fill="#222"><path d="M 499 238 Q 499 231 504.5 226 Q 510 221 530 223 L 589 230 Q 628 237 680 255.5 Q 732 274 756 292.5 Q 780 311 789.5 329 Q 799 347 799 385 Q 798 416 786.5 434.5 Q 775 453 745 455 Q 728 457 709.5 449 Q 691 441 668 422 Q 645 403 629 386 L 583 338 Q 505 268 501.5 254 Q 498 240 499 238 Z"/><path d="M 562 1081 Q 531 1121 501.5 1158 Q 472 1195 428 1241.5 Q 384 1288 322.5 1339 Q 261 1390 220 1413 L 140 1459 Q 112 1476 106 1464 Q 100 1452 115 1437 L 181 1373 Q 237 1318 281.5 1268 Q 326 1218 396 1126 Q 466 1034 513 960 L 619 794 Q 650 745 655 730.5 Q 660 716 660 713 Q 659 712 657.5 709 Q 656 706 650 703.5 Q 644 701 629 705 L 561 725 L 338 800 Q 328 804 321.5 803.5 Q 315 803 296 800.5 Q 277 798 248.5 783 Q 220 768 203 749.5 Q 186 731 192 722.5 Q 198 714 213 712 L 258 707 Q 352 697 417 682 L 498 662 Q 583 641 633 617 Q 683 593 688.5 591.5 Q 694 590 700 589 Q 706 589 723 593.5 Q 740 598 783 626 Q 826 654 839 671.5 Q 852 689 852 700 Q 851 710 842 721.5 Q 833 733 807 755.5 Q 781 778 753.5 809 Q 726 840 698 881 L 609 1011 L 562 1081 Z"/><path d="M 609 1011 Q 634 1037 649 1055 Q 664 1073 666 1081 L 673 1108 Q 675 1133 661 1158 Q 658 1219 656 1257 Q 654 1295 654 1306 L 648 1556 L 656 1733 Q 652 1762 641 1788.5 Q 630 1815 615.5 1832 Q 601 1849 593 1848 Q 584 1848 568.5 1830 Q 553 1812 545 1792.5 Q 537 1773 529.5 1736 Q 522 1699 523 1678 Q 523 1666 530.5 1630 Q 538 1594 545.5 1538.5 Q 553 1483 561.5 1402.5 Q 570 1322 567 1235 L 562 1081 L 609 1011 Z"/><path d="M 673 1108 Q 768 1126 800 1140.5 Q 832 1155 844.5 1166 Q 857 1177 865.5 1198 Q 874 1219 874 1236 Q 873 1254 865 1270 Q 857 1286 847 1291.5 Q 837 1297 824 1296 Q 812 1296 793.5 1289 Q 775 1282 767 1271 L 661 1158 L 673 1108 Z"/><path d="M 1353 688 L 1212 720 Q 1142 736 1106 750 L 1056 770 Q 1041 775 1033 774 Q 1028 774 1020 771 Q 1012 768 995 737 Q 978 706 976 695.5 Q 974 685 975 676 Q 975 671 976.5 663 Q 978 655 1005 630.5 Q 1032 606 1060 561 Q 1088 516 1120 456 Q 1152 396 1169.5 348 Q 1187 300 1197 260.5 Q 1207 221 1207.5 202 Q 1208 183 1210 177.5 Q 1212 172 1217.5 168.5 Q 1223 165 1240 170 Q 1265 179 1285 194 Q 1305 209 1322 227.5 Q 1339 246 1339 263 Q 1338 271 1334 280 L 1312 312 L 1247 410 L 1225 455 L 1106 661 Q 1183 657 1193 655 L 1371 628 Q 1412 650 1353 688 Z"/><path d="M 1282 856 L 1353 688 L 1371 628 Q 1408 540 1416 519 L 1448 435 Q 1411 443 1369.5 451.5 Q 1328 460 1301 463 Q 1274 466 1260 462 L 1225 455 L 1247 410 Q 1287 406 1307 401.5 Q 1327 397 1381 378.5 Q 1435 360 1456 351 Q 1477 342 1493.5 331.5 Q 1510 321 1519.5 319 Q 1529 317 1557 329 Q 1591 346 1614 359.5 Q 1637 373 1642 381 Q 1647 389 1647.5 398 Q 1648 407 1636 421 L 1605 450 Q 1579 475 1539 544 L 1445 703 L 1364 845 Q 1299 896.5 1282 856 Z"/><path d="M 1364 845 L 1690 800 Q 1796 786 1812.5 787.5 Q 1829 789 1870.5 804 Q 1912 819 1927.5 837 Q 1943 855 1941.5 864 Q 1940 873 1930 878 Q 1920 883 1877 883 L 1709 886 Q 1601 888 1450 903 L 1379 910 L 1299 918 L 1240 927 L 969 970 Q 882 984 871 983.5 Q 860 983 843 978.5 Q 826 974 795.5 954.5 Q 765 935 767 927.5 Q 769 920 773 916.5 Q 777 913 861 903 L 1282 856 L 1364 845 Z"/><path d="M 1299 918 Q 1340 930 1360.5 938.5 Q 1381 947 1387.5 957 Q 1394 967 1394 979 L 1385 1009 Q 1382 1017 1381 1043 L 1373 1131 L 1378 1422 L 1383 1656 Q 1380 1766 1354.5 1808 Q 1329 1850 1304.5 1866.5 Q 1280 1883 1266 1882 Q 1256 1882 1248 1877.5 Q 1240 1873 1232 1865 L 1165 1781 Q 1139 1750 1108 1728 L 1079 1708 Q 1069 1702 1068.5 1688.5 Q 1068 1675 1081 1678 L 1111 1685 Q 1128 1690 1167.5 1697.5 Q 1207 1705 1225 1703 Q 1236 1702 1243.5 1697 Q 1251 1692 1257 1670.5 Q 1263 1649 1270 1572 Q 1277 1495 1277 1430 L 1277 1187 Q 1277 1119 1269.5 1059.5 Q 1262 1000 1255 977 L 1240 927 L 1299 918 Z"/><path d="M 1004 1243 L 913 1113 Q 901 1097 904.5 1092 Q 908 1087 921 1087 Q 944 1088 982.5 1099 Q 1021 1110 1062.5 1128.5 Q 1104 1147 1119 1170 Q 1134 1193 1133.5 1229.5 Q 1133 1266 1116.5 1282.5 Q 1100 1299 1070.5 1298.5 Q 1041 1298 1004 1243 Z"/><path d="M 1188 1373 L 1126 1434 Q 1113 1447 1059 1494 L 993 1553 Q 956 1585 938 1607 Q 920 1629 912.5 1636 Q 905 1643 895 1644.5 Q 885 1646 865 1633 Q 836 1616 817 1598 Q 798 1580 787 1562.5 Q 776 1545 777 1531 Q 777 1525 779 1521 Q 781 1517 785.5 1513.5 Q 790 1510 808.5 1509.5 Q 827 1509 860.5 1499.5 Q 894 1490 936 1472 Q 978 1454 1088 1394 L 1173 1348 Q 1190 1339 1197 1348 Q 1204 1357 1188 1373 Z"/><path d="M 1446 1257 L 1482 1219 Q 1507 1193 1530.5 1164.5 Q 1554 1136 1566 1118 Q 1578 1100 1594 1069.5 Q 1610 1039 1618 1016 Q 1626 993 1629 987 Q 1632 981 1636.5 978.5 Q 1641 976 1652 979 Q 1662 983 1687 1004 L 1727 1036 Q 1742 1050 1755 1069 Q 1768 1088 1764 1098 Q 1760 1106 1749 1111 L 1724 1118 Q 1709 1123 1675.5 1146.5 Q 1642 1170 1609.5 1191.5 Q 1577 1213 1514 1246 L 1470 1269 Q 1449 1280 1443 1273 Q 1437 1266 1446 1257 Z"/><path d="M 1460 1353 Q 1506 1365 1540.5 1375 Q 1575 1385 1617.5 1401.5 Q 1660 1418 1707.5 1444 Q 1755 1470 1780 1496 Q 1805 1522 1820 1549 Q 1835 1576 1835.5 1608.5 Q 1836 1641 1822 1664 Q 1816 1674 1810.5 1677 Q 1805 1680 1791.5 1682.5 Q 1778 1685 1744 1658 Q 1703 1628 1668 1590 L 1559 1474 L 1489 1410 L 1457 1380 Q 1437 1362 1445 1360 L 1460 1353 Z"/></g></g>
</g>

<g class="page-number"><text x="105.0" y="292.0" font-size="3" fill="#999" font-family="sans-serif" text-anchor="middle">- 1 -</text></g>
</svg>