<svg xmlns="http://www.w3.org/2000/svg" viewBox="0 0 210.0 297.0" width="210.0mm" height="297.0mm">
<rect x="0" y="0" width="210.0" height="297.0" fill="white"/>
<rect x="0.5" y="0.5" width="209.0" height="296.0" fill="none" stroke="#aaa" stroke-width="0.4"/>
<g class="grid" fill="none" stroke="#c8c8c8" stroke-width="0.2">
  <line x1="15.00" y1="15.00" x2="195.00" y2="15.00"/>
  <line x1="15.00" y1="30.00" x2="195.00" y2="30.00"/>
  <line x1="15.00" y1="45.00" x2="195.00" y2="45.00"/>
  <line x1="15.00" y1="60.00" x2="195.00" y2="60.00"/>
  <line x1="15.00" y1="75.00" x2="195.00" y2="75.00"/>
  <line x1="15.00" y1="90.00" x2="195.00" y2="90.00"/>
  <line x1="15.00" y1="105.00" x2="195.00" y2="105.00"/>
  <line x1="15.00" y1="120.00" x2="195.00" y2="120.00"/>
  <line x1="15.00" y1="135.00" x2="195.00" y2="135.00"/>
  <line x1="15.00" y1="150.00" x2="195.00" y2="150.00"/>
  <line x1="15.00" y1="165.00" x2="195.00" y2="165.00"/>
  <line x1="15.00" y1="180.00" x2="195.00" y2="180.00"/>
  <line x1="15.00" y1="195.00" x2="195.00" y2="195.00"/>
  <line x1="15.00" y1="210.00" x2="195.00" y2="210.00"/>
  <line x1="15.00" y1="225.00" x2="195.00" y2="225.00"/>
  <line x1="15.00" y1="240.00" x2="195.00" y2="240.00"/>
  <line x1="15.00" y1="255.00" x2="195.00" y2="255.00"/>
  <line x1="15.00" y1="270.00" x2="195.00" y2="270.00"/>
  <line x1="15.00" y1="282.00" x2="195.00" y2="282.00"/>
  <line x1="15.00" y1="15.00" x2="15.00" y2="282.00"/>
  <line x1="30.00" y1="15.00" x2="30.00" y2="282.00"/>
  <line x1="45.00" y1="15.00" x2="45.00" y2="282.00"/>
  <line x1="60.00" y1="15.00" x2="60.00" y2="282.00"/>
  <line x1="75.00" y1="15.00" x2="75.00" y2="282.00"/>
  <line x1="90.00" y1="15.00" x2="90.00" y2="282.00"/>
  <line x1="105.00" y1="15.00" x2="105.00" y2="282.00"/>
  <line x1="120.00" y1="15.00" x2="120.00" y2="282.00"/>
  <line x1="135.00" y1="15.00" x2="135.00" y2="282.00"/>
  <line x1="150.00" y1="15.00" x2="150.00" y2="282.00"/>
  <line x1="165.00" y1="15.00" x2="165.00" y2="282.00"/>
  <line x1="180.00" y1="15.00" x2="180.00" y2="282.00"/>
  <line x1="195.00" y1="15.00" x2="195.00" y2="282.00"/>
  </g>
<g class="chars">
<g transform="translate(15.0,15.0) scale(0.00732421875,0.00732421875)"><g fill="none" stroke-linecap="round" stroke-linejoin="round" stroke="#222"><polyline stroke-width="40.0" points="1944.00,888.00 1912.00,904.00 1880.00,920.00 1848.00,936.00 1816.00,936.00 1784.00,952.00 1752.00,936.00 1720.00,936.00 1688.00,936.00 1656.00,936.00 1624.00,936.00 1592.00,920.00 1560.00,920.00 1528.00,920.00 1496.00,920.00 1464.00,920.00 1432.00,920.00 1400.00,920.00 1368.00,920.00 1336.00,920.00 1304.00,920.00 1272.00,920.00 1240.00,920.00 1208.00,920.00 1176.00,920.00 1144.00,920.00 1112.00,936.00 1080.00,936.00 1048.00,952.00 1016.00,952.00 984.00,952.00 952.00,968.00 936.00,984.00 904.00,1000.00 888.00,1016.00"/><polyline stroke-width="40.0" points="680.00,920.00 648.00,904.00 616.00,904.00 584.00,904.00 552.00,920.00 520.00,920.00 488.00,920.00 456.00,920.00 424.00,920.00 392.00,920.00 360.00,920.00 328.00,936.00 296.00,936.00 280.00,936.00"/><polyline stroke-width="40.0" points="776.00,1160.00 744.00,1160.00 712.00,1160.00 680.00,1160.00 648.00,1160.00 616.00,1176.00 584.00,1176.00 552.00,1176.00 520.00,1176.00 488.00,1192.00 456.00,1192.00 424.00,1192.00 392.00,1192.00 360.00,1192.00 328.00,1192.00 296.00,1192.00 264.00,1192.00 232.00,1208.00"/><polyline stroke-width="40.0" points="1480.00,1208.00 1448.00,1224.00 1416.00,1224.00 1384.00,1224.00 1352.00,1224.00 1320.00,1224.00 1288.00,1224.00 1256.00,1224.00 1224.00,1224.00 1192.00,1240.00 1176.00,1256.00 1160.00,1272.00 1144.00,1288.00 1128.00,1304.00 1112.00,1320.00 1112.00,1352.00"/><polyline stroke-width="40.0" points="744.00,1496.00 712.00,1496.00 696.00,1480.00 680.00,1464.00 648.00,1464.00 616.00,1448.00 584.00,1448.00 552.00,1448.00 520.00,1448.00 520.00,1480.00 520.00,1512.00 520.00,1544.00 520.00,1576.00 520.00,1608.00 520.00,1640.00 520.00,1672.00 520.00,1704.00 520.00,1736.00 520.00,1768.00 520.00,1800.00 520.00,1832.00 520.00,1864.00 520.00,1896.00 520.00,1928.00 520.00,1960.00 520.00,1976.00"/><polyline stroke-width="40.0" points="1608.00,1560.00 1608.00,1592.00 1592.00,1608.00 1576.00,1624.00 1560.00,1640.00 1544.00,1656.00 1528.00,1672.00 1512.00,1688.00 1480.00,1704.00 1464.00,1720.00 1432.00,1720.00 1400.00,1720.00 1368.00,1720.00 1336.00,1720.00 1304.00,1720.00 1272.00,1720.00 1240.00,1720.00 1208.00,1720.00 1192.00,1736.00 1176.00,1752.00 1160.00,1768.00 1144.00,1784.00 1128.00,1800.00"/><polyline stroke-width="40.0" points="200.00,1608.00 216.00,1576.00 232.00,1560.00 248.00,1544.00 280.00,1544.00 312.00,1528.00 328.00,1512.00 360.00,1496.00 376.00,1480.00 392.00,1464.00 424.00,1464.00 456.00,1448.00 488.00,1448.00 504.00,1416.00 504.00,1384.00 504.00,1352.00 504.00,1320.00 504.00,1288.00 504.00,1256.00 504.00,1224.00 504.00,1208.00"/></g></g>
</g>

<g class="page-number"><text x="105.0" y="292.0" font-size="3" fill="#999" font-family="sans-serif" text-anchor="middle">- 1 -</text></g>
</svg>