<svg xmlns="http://www.w3.org/2000/svg" viewBox="0 0 210.0 297.0" width="210.0mm" height="297.0mm">
<rect x="0" y="0" width="210.0" height="297.0" fill="white"/>
<rect x="0.5" y="0.5" width="209.0" height="296.0" fill="none" stroke="#aaa" stroke-width="0.4"/>
<g class="grid" fill="none" stroke="#c8c8c8" stroke-width="0.2">
  <line x1="15.00" y1="15.00" x2="195.00" y2="15.00"/>
  <line x1="15.00" y1="30.00" x2="195.00" y2="30.00"/>
  <line x1="15.00" y1="45.00" x2="195.00" y2="45.00"/>
  <line x1="15.00" y1="60.00" x2="195.00" y2="60.00"/>
  <line x1="15.00" y1="75.00" x2="195.00" y2="75.00"/>
  <line x1="15.00" y1="90.00" x2="195.00" y2="90.00"/>
  <line x1="15.00" y1="105.00" x2="195.00" y2="105.00"/>
  <line x1="15.00" y1="120.00" x2="195.00" y2="120.00"/>
  <line x1="15.00" y1="135.00" x2="195.00" y2="135.00"/>
  <line x1="15.00" y1="150.00" x2="195.00" y2="150.00"/>
  <line x1="15.00" y1="165.00" x2="195.00" y2="165.00"/>
  <line x1="15.00" y1="180.00" x2="195.00" y2="180.00"/>
  <line x1="15.00" y1="195.00" x2="195.00" y2="195.00"/>
  <line x1="15.00" y1="210.00" x2="195.00" y2="210.00"/>
  <line x1="15.00" y1="225.00" x2="195.00" y2="225.00"/>
  <line x1="15.00" y1="240.00" x2="195.00" y2="240.00"/>
  <line x1="15.00" y1="255.00" x2="195.00" y2="255.00"/>
  <line x1="15.00" y1="270.00" x2="195.00" y2="270.00"/>
  <line x1="15.00" y1="282.00" x2="195.00" y2="282.00"/>
  <line x1="15.00" y1="15.00" x2="15.00" y2="282.00"/>
  <line x1="30.00" y1="15.00" x2="30.00" y2="282.00"/>
  <line x1="45.00" y1="15.00" x2="45.00" y2="282.00"/>
  <line x1="60.00" y1="15.00" x2="60.00" y2="282.00"/>
  <line x1="75.00" y1="15.00" x2="75.00" y2="282.00"/>
  <line x1="90.00" y1="15.00" x2="90.00" y2="282.00"/>
  <line x1="105.00" y1="15.00" x2="105.00" y2="282.00"/>
  <line x1="120.00" y1="15.00" x2="120.00" y2="282.00"/>
  <line x1="135.00" y1="15.00" x2="135.00" y2="282.00"/>
  <line x1="150.00" y1="15.00" x2="150.00" y2="282.00"/>
  <line x1="165.00" y1="15.00" x2="165.00" y2="282.00"/>
  <line x1="180.00" y1="15.00" x2="180.00" y2="282.00"/>
  <line x1="195.00" y1="15.00" x2="195.00" y2="282.00"/>
  </g>
<g class="chars">
<g transform="translate(15.0,15.0) scale(0.00732421875,0.00732421875)"><g fill="#222"><path d="M 586 351 L 522 273 Q 508 257 510 252 Q 512 247 518.5 243 Q 525 239 543 240 Q 569 243 595 248 Q 621 253 653.5 264 Q 686 275 727.5 297.5 Q 769 320 783 344.5 Q 797 369 797 406 Q 796 433 788 449 Q 780 465 769.5 471 Q 759 477 741 476 Q 724 476 705 468 Q 686 460 654 428 Q 622 396 586 351 Z"/><path d="M 563 1078 Q 505 1147 458 1195.5 Q 411 1244 341.5 1291 Q 272 1338 207 1368 L 150 1395 Q 132 1404 125 1394 Q 118 1384 133 1372 L 177 1338 Q 205 1317 258 1268.5 Q 311 1220 368.5 1157 Q 426 1094 516 977 Q 606 860 635 819 L 692 739 Q 711 712 704 705 Q 697 698 677 698.5 Q 657 699 637 705 L 399 784 Q 328 808 312 807.5 Q 296 807 262.5 789 Q 229 771 210.5 752.5 Q 192 734 197 727.5 Q 202 721 212 717 L 277 710 L 434 682 Q 531 665 598.5 640.5 Q 666 616 692.5 602.5 Q 719 589 726 585.5 Q 733 582 741 581 Q 757 580 797.5 601 Q 838 622 864.5 641 Q 891 660 893 679.5 Q 895 699 880 719 Q 877 723 839.5 751.5 Q 802 780 762 830 Q 722 880 689 923 L 615 1019 L 563 1078 Z"/><path d="M 615 1019 Q 633 1042 647.5 1061.5 Q 662 1081 667 1095 L 674 1116 Q 676 1130.5 662 1145 Q 656 1215 650.5 1292 Q 645 1369 649 1456 L 654 1596 Q 655 1638 653.5 1668.5 Q 652 1699 646.5 1723.5 Q 641 1748 631.5 1771.5 Q 622 1795 614.5 1802 Q 607 1809 598 1810 Q 589 1811 573 1789 Q 550 1761 539.5 1734 Q 529 1707 523 1681.5 Q 517 1656 518 1638 Q 518 1629 531.5 1579.5 Q 545 1530 553 1456.5 Q 561 1383 561 1345 L 563 1078 L 615 1019 Z"/><path d="M 674 1116 Q 756 1134 796 1148 Q 836 1162 857 1178.5 Q 878 1195 884 1210 Q 890 1225 891.5 1245 Q 893 1265 881 1286 Q 869 1307 854 1308.5 Q 839 1310 824 1302.5 Q 809 1295 791 1278 L 717 1202 L 662 1145 L 674 1116 Z"/><path d="M 1184 368 L 1394 329 L 1542 291 Q 1563 287 1578 288 Q 1590 289 1634 304 Q 1678 319 1683 330.5 Q 1688 342 1688.5 347.5 Q 1689 353 1689 355 Q 1687 364 1669.5 372 Q 1652 380 1614 387 L 1478 414 L 1250 447 Q 1201 455 1155 454.5 Q 1109 454 1061.5 444 Q 1014 434 1009 419 Q 1004 404 1003.5 399 Q 1003 394 1005 392 Q 1006 390 1010.5 388.5 Q 1015 387 1060.5 385 Q 1106 383 1184 368 Z"/><path d="M 1181 929 Q 1176 947 1169 958.5 Q 1162 970 1153 969 Q 1150 969 1143 966 Q 1136 963 1125.5 952.5 Q 1115 942 1107 904 L 1070 748 Q 1059 704 1051 694.5 Q 1043 685 1024.5 672 Q 1006 659 1003.5 655.5 Q 1001 652 1002 648 Q 1002 647 1003 642.5 Q 1004 638 1005.5 636.5 Q 1007 635 1019 632.5 Q 1031 630 1051 630 L 1114 631 Q 1158.5 641 1159 687 L 1184 863 Q 1186.5 894 1181 929 Z"/><path d="M 1114 631 Q 1159 626 1219.5 619 Q 1280 612 1326 604 L 1437 583 Q 1522 568 1554 555.5 Q 1586 543 1597 542 Q 1605 542 1622 546 Q 1639 550 1683 573.5 Q 1727 597 1738 608 Q 1749 619 1749.5 624.5 Q 1750 630 1745 638 Q 1741 644 1727.5 658.5 Q 1714 673 1704.5 687 Q 1695 701 1677.5 742.5 Q 1660 784 1658 789 L 1636 843 Q 1571 884.5 1550 814 L 1572 705 Q 1580 664 1578.5 651 Q 1577 638 1570.5 630.5 Q 1564 623 1533 626 L 1430 635 L 1345 651 L 1228 675 L 1159 687 L 1114 631 Z"/><path d="M 1636 843 Q 1647 856 1654.5 867.5 Q 1662 879 1659 885.5 Q 1656 892 1641 892 L 1574 895 L 1406 910 L 1181 929 L 1184 863 Q 1348 843 1386 837 L 1550 814 L 1636 843 Z"/><path d="M 1073 1619 Q 1071 1648 1064.5 1664.5 Q 1058 1681 1052 1682 Q 1046 1683 1042 1682 Q 1031 1681 1023.5 1676.5 Q 1016 1672 1003 1650.5 Q 990 1629 986 1588 L 948 1232 Q 943 1190 932.5 1167.5 Q 922 1145 906.5 1126.5 Q 891 1108 889 1102 Q 887 1096 888 1092 Q 888 1085 894 1076.5 Q 900 1068 934 1075 L 1029 1095 Q 1053.5 1111 1046 1155 L 1055 1327 L 1060 1385 L 1073 1559 L 1073 1619 Z"/><path d="M 1029 1095 Q 1354 1054 1486.5 1036.5 Q 1619 1019 1661.5 1011 Q 1704 1003 1728 995.5 Q 1752 988 1762 987 Q 1771 987 1787.5 991 Q 1804 995 1848 1023.5 Q 1892 1052 1905 1066 Q 1918 1080 1921 1090 Q 1924 1100 1914 1125 Q 1902 1155 1894 1181 Q 1886 1207 1883 1254 L 1871 1442 Q 1866 1510 1858 1550 Q 1850 1590 1832.5 1632 Q 1815 1674 1793.5 1701.5 Q 1772 1729 1751.5 1744.5 Q 1731 1760 1720 1757 Q 1709 1756 1696.5 1739.5 Q 1684 1723 1669 1675 L 1644 1596 Q 1612 1456 1726 1558 Q 1744 1467 1745 1449 L 1753 1325 L 1754 1277 Q 1753 1244 1752.5 1229 Q 1752 1214 1753.5 1173.5 Q 1755 1133 1750 1120 Q 1741 1104 1726.5 1095.5 Q 1712 1087 1679 1087.5 Q 1646 1088 1602 1091 L 1389 1108 L 1279 1125.5 Q 1273 1122 1260 1121.5 Q 1247 1121 1223 1125 L 1046 1155 L 1029 1095 Z"/><path d="M 1055 1327 L 1315 1303 L 1429 1283 Q 1542 1268 1589 1262.5 Q 1636 1257 1667.5 1256 Q 1699 1255 1713 1261 L 1754 1277 L 1753 1325 L 1426 1368 L 1323 1381 Q 1233 1391 1182.5 1396 Q 1132 1401 1119 1397 L 1060 1385 L 1055 1327 Z"/><path d="M 1315 1303 Q 1313 1264 1311.5 1225 Q 1310 1186 1302.5 1165 Q 1295 1144 1290 1136.5 Q 1285 1129 1279 1125.5 Q 1273 1122 1260 1121.5 L 1389 1108 Q 1424 1116 1432.5 1124.5 Q 1441 1133 1443 1137.5 Q 1445 1142 1445.5 1146.5 Q 1446 1151 1433 1210 Q 1429 1228 1429 1274 L 1429 1283 L 1426 1368 L 1422 1534 Q 1369.5 1591.5 1329 1545 L 1323 1381 L 1315 1303 Z"/><path d="M 1644 1596 L 1209 1628 Q 1145 1633 1112 1626 L 1073 1619 L 1073 1559 L 1329 1545 L 1422 1534 Q 1507 1526 1553 1520 Q 1599 1514 1619 1513 Q 1649 1512 1669 1518.5 Q 1689 1525 1698 1533 L 1726 1558 L 1644 1596 Z"/></g></g>
</g>

<g class="page-number"><text x="105.0" y="292.0" font-size="3" fill="#999" font-family="sans-serif" text-anchor="middle">- 1 -</text></g>
</svg>