<svg xmlns="http://www.w3.org/2000/svg" viewBox="0 0 210.0 297.0" width="210.0mm" height="297.0mm">
<rect x="0" y="0" width="210.0" height="297.0" fill="white"/>
<rect x="0.5" y="0.5" width="209.0" height="296.0" fill="none" stroke="#aaa" stroke-width="0.4"/>
<g class="grid" fill="none" stroke="#c8c8c8" stroke-width="0.2">
  <line x1="15.00" y1="15.00" x2="195.00" y2="15.00"/>
  <line x1="15.00" y1="30.00" x2="195.00" y2="30.00"/>
  <line x1="15.00" y1="45.00" x2="195.00" y2="45.00"/>
  <line x1="15.00" y1="60.00" x2="195.00" y2="60.00"/>
  <line x1="15.00" y1="75.00" x2="195.00" y2="75.00"/>
  <line x1="15.00" y1="90.00" x2="195.00" y2="90.00"/>
  <line x1="15.00" y1="105.00" x2="195.00" y2="105.00"/>
  <line x1="15.00" y1="120.00" x2="195.00" y2="120.00"/>
  <line x1="15.00" y1="135.00" x2="195.00" y2="135.00"/>
  <line x1="15.00" y1="150.00" x2="195.00" y2="150.00"/>
  <line x1="15.00" y1="165.00" x2="195.00" y2="165.00"/>
  <line x1="15.00" y1="180.00" x2="195.00" y2="180.00"/>
  <line x1="15.00" y1="195.00" x2="195.00" y2="195.00"/>
  <line x1="15.00" y1="210.00" x2="195.00" y2="210.00"/>
  <line x1="15.00" y1="225.00" x2="195.00" y2="225.00"/>
  <line x1="15.00" y1="240.00" x2="195.00" y2="240.00"/>
  <line x1="15.00" y1="255.00" x2="195.00" y2="255.00"/>
  <line x1="15.00" y1="270.00" x2="195.00" y2="270.00"/>
  <line x1="15.00" y1="282.00" x2="195.00" y2="282.00"/>
  <line x1="15.00" y1="15.00" x2="15.00" y2="282.00"/>
  <line x1="30.00" y1="15.00" x2="30.00" y2="282.00"/>
  <line x1="45.00" y1="15.00" x2="45.00" y2="282.00"/>
  <line x1="60.00" y1="15.00" x2="60.00" y2="282.00"/>
  <line x1="75.00" y1="15.00" x2="75.00" y2="282.00"/>
  <line x1="90.00" y1="15.00" x2="90.00" y2="282.00"/>
  <line x1="105.00" y1="15.00" x2="105.00" y2="282.00"/>
  <line x1="120.00" y1="15.00" x2="120.00" y2="282.00"/>
  <line x1="135.00" y1="15.00" x2="135.00" y2="282.00"/>
  <line x1="150.00" y1="15.00" x2="150.00" y2="282.00"/>
  <line x1="165.00" y1="15.00" x2="165.00" y2="282.00"/>
  <line x1="180.00" y1="15.00" x2="180.00" y2="282.00"/>
  <line x1="195.00" y1="15.00" x2="195.00" y2="282.00"/>
  </g>
<g class="chars">
<g transform="translate(15.0,15.0) scale(0.00732421875,0.00732421875)"><g fill="#222"><path d="M 579 372 Q 572 401 570 417.5 Q 568 434 566 481.5 Q 564 529 558 620 L 545 797 Q 535 916 518 1020 Q 501 1124 470 1233.5 Q 439 1343 399.5 1433 Q 360 1523 318 1583 Q 276 1643 223 1699.5 Q 170 1756 143 1774 L 95 1807 Q 85 1814 79.5 1808 Q 74 1802 79 1794 L 115 1746 Q 137 1716 177 1658 Q 217 1600 246.5 1543.5 Q 276 1487 312 1389 Q 348 1291 375 1189 Q 402 1087 415.5 991 Q 429 895 434.5 803 Q 440 711 442.5 627.5 Q 445 544 445 497 Q 444 449 441.5 418 Q 439 387 433 361.5 Q 427 336 414 314.5 Q 401 293 398.5 281 Q 396 269 402.5 262.5 Q 409 256 435 259 L 490 266 L 532 281 L 555 289 L 579 372 Z"/><path d="M 555 289 Q 612 282 641 278 L 791 261 Q 864 253 953 240 Q 1042 227 1127 214 Q 1212 201 1297.5 187 Q 1383 173 1418 162 Q 1453 151 1464 150 Q 1476 150 1499.5 157 Q 1523 164 1566.5 187.5 Q 1610 211 1628.5 226.5 Q 1647 242 1647.5 253.5 Q 1648 265 1637 283 Q 1620 311 1607 338 Q 1594 365 1576.5 428 Q 1559 491 1543 596 Q 1527 701 1520 808.5 Q 1513 916 1514 1007 Q 1514 1131 1529 1230 Q 1544 1329 1581 1424.5 Q 1618 1520 1656.5 1578.5 Q 1695 1637 1730.5 1669.5 Q 1766 1702 1782 1696 Q 1792 1693 1799.5 1679 Q 1807 1665 1812 1640 L 1823 1588 Q 1826 1573 1837 1516 L 1851 1443 Q 1854 1424 1863 1424.5 Q 1872 1425 1876 1446 L 1887 1516 L 1895 1591 Q 1898 1618 1908.5 1668.5 Q 1919 1719 1927 1746.5 Q 1935 1774 1950 1804 Q 1965 1834 1968 1849.5 Q 1971 1865 1965 1877 Q 1959 1888 1943.5 1897 Q 1928 1906 1885 1901 Q 1824 1895 1773.5 1875.5 Q 1723 1856 1664 1799 Q 1605 1742 1556 1665.5 Q 1507 1589 1471 1487.5 Q 1435 1386 1418.5 1276 Q 1402 1166 1399.5 1060 Q 1397 954 1403 826 Q 1407 700 1418.5 566.5 Q 1430 433 1433 380.5 Q 1436 328 1438.5 306.5 Q 1441 285 1436 277 Q 1431 269 1411 266 Q 1393 264 1361 269.5 Q 1329 275 1247.5 282.5 Q 1166 290 1080 302 L 880 331 L 702 353 L 579 372 L 555 289 Z"/><path d="M 839 528 Q 801 534 779 535 Q 757 536 716 532.5 Q 675 529 662 515 Q 649 501 653.5 494 Q 658 487 674 484 L 730 475 L 814 462 Q 825 460 939 436 L 1030 417 Q 1067 409 1100.5 400 Q 1134 391 1147 389 Q 1164 388 1189.5 392 Q 1215 396 1240.5 401 Q 1266 406 1276.5 416.5 Q 1287 427 1285 436 Q 1283 445 1271 447 L 1200 462 Q 1190 465 1133 475 L 1061 489 L 933 511 L 839 528 Z"/><path d="M 933 511 Q 947 523 957.5 535 Q 968 547 966.5 555.5 Q 965 564 946.5 575.5 Q 928 587 905 609 L 861 650 L 811 698 L 758 703 Q 772 679 790.5 651 Q 809 623 814.5 610.5 Q 820 598 830 562 L 839 528 L 933 511 Z"/><path d="M 716 1054 L 711 1162 L 707 1207 L 705 1235 L 702 1266 Q 702 1285 709.5 1290 L 611 1304 L 622 1283 Q 626 1274 630 1254.5 Q 634 1235 636.5 1213 Q 639 1191 645.5 1122.5 Q 652 1054 655 1012 Q 658 970 659 916.5 Q 660 863 660 820 Q 659 782 655.5 766.5 Q 652 751 642.5 724 Q 633 697 637.5 690.5 Q 642 684 660 684 Q 683 685 705 695 L 727 706 L 750 756 Q 742 797 741 803 L 731 862 L 730 899 L 722 1001 L 716 1054 Z"/><path d="M 811 698 Q 861 689 891 683.5 Q 921 678 953 670 Q 985 662 1018 651.5 Q 1051 641 1080.5 629.5 Q 1110 618 1123 617 Q 1135 617 1155.5 624.5 Q 1176 632 1208 651 Q 1240 670 1261 691 Q 1282 712 1278 723 Q 1276 726 1266 736.5 Q 1256 747 1242 773 L 1219 814 Q 1212 829 1203 854 L 1175 934 L 1150 999 Q 1138 1029 1122.5 1045.5 Q 1107 1062 1086 1057 Q 1066 1053 1058 1034 L 1050 1018 L 1061 965 Q 1070 962 1078 938.5 Q 1086 915 1089 904 L 1100 852 L 1109 817 L 1117 767 L 1123 737 Q 1123 716 1112.5 708 Q 1102 700 1078 703 Q 1054 707 988.5 721 Q 923 735 867.5 744.5 Q 812 754 799 754 L 750 756 L 727 706 L 758 703 L 811 698 Z"/><path d="M 1100 852 L 963 879 L 886 893 Q 837 903 827 904 Q 794 908 769 904 L 730 899 L 731 862 L 914 826 Q 932 823 967.5 813 Q 1003 803 1022 801 Q 1038 800 1051 802.5 Q 1064 805 1080 809 L 1109 817 L 1100 852 Z"/><path d="M 1050 1018 Q 1007 1026 984 1029.5 Q 961 1033 877 1044 Q 793 1055 771 1054 L 716 1054 L 722 1001 L 886 974 Q 894 973 932 964.5 Q 970 956 989 954 Q 1011 952 1033.5 959.5 Q 1056 967 1061 965 L 1050 1018 Z"/><path d="M 711 1162 L 905 1132 L 980 1118 L 1033 1110 Q 1061 1105 1067 1104 Q 1078 1104 1108 1108 Q 1138 1112 1152.5 1121.5 Q 1167 1131 1166.5 1141.5 Q 1166 1152 1144 1155 L 1095 1162 L 991 1179 L 869 1196 Q 789 1208 777 1207 L 707 1207 L 711 1162 Z"/><path d="M 709.5 1290 Q 717 1295 739 1290 Q 764 1285 830 1277 L 963 1260 L 1103 1246 L 1170 1238 Q 1205 1235 1222.5 1231 Q 1240 1227 1247 1227 Q 1258 1228 1275 1235 L 1323 1260 Q 1358 1279 1370.5 1291.5 Q 1383 1304 1383 1313 Q 1382 1318 1371.5 1333.5 Q 1361 1349 1354 1370 Q 1347 1391 1347 1398 L 1325 1567 Q 1318 1617 1305.5 1667.5 Q 1293 1718 1265 1766 Q 1237 1814 1207 1840 Q 1177 1866 1147 1875.5 Q 1117 1885 1106 1879 Q 1098 1876 1089 1860 L 1055 1807 L 1027 1768 Q 1000 1730 1000 1729 L 972 1693 Q 961 1681 967.5 1674.5 Q 974 1668 986 1673 L 1019 1687 L 1064 1707 Q 1082 1715 1100.5 1721.5 Q 1119 1728 1130 1726 Q 1143 1724 1157.5 1707.5 Q 1172 1691 1186.5 1658 Q 1201 1625 1211 1589 Q 1221 1553 1228 1494 L 1239 1379 Q 1242 1345 1234 1332 Q 1226 1322 1206.5 1315.5 Q 1187 1309 1136 1313 Q 1120 1315 1028 1318 Q 936 1321 869 1332 L 752 1355 Q 712 1363 691.5 1377.5 Q 671 1392 666 1391 Q 656 1391 645 1381.5 Q 634 1372 625.5 1359 Q 617 1346 612 1331 Q 607 1316 611 1304 L 709.5 1290 Z"/><path d="M 510 1446 L 526 1406 Q 531 1393 533.5 1391.5 Q 536 1390 546 1399 Q 556 1410 563.5 1437 Q 571 1464 573.5 1479 Q 576 1494 576.5 1516.5 Q 577 1539 571 1566 Q 568 1576 553.5 1623.5 Q 539 1671 525 1687.5 Q 511 1704 496 1704.5 Q 481 1705 468 1690 Q 457 1679 450 1654.5 Q 443 1630 446 1606 Q 448 1586 464 1551 Q 480 1516 490 1493.5 Q 500 1471 510 1446 Z"/><path d="M 686 1432 L 711 1443 Q 729 1452 747.5 1468.5 Q 766 1485 777.5 1509.5 Q 789 1534 786 1560 Q 783 1586 768.5 1597.5 Q 754 1609 741 1606 Q 730 1605 718.5 1591 Q 707 1577 693 1536 Q 679 1495 677 1488 L 663 1446 Q 659 1437 663.5 1431 Q 668 1425 686 1432 Z"/><path d="M 855 1466 L 841 1426 Q 835 1412 839.5 1408 Q 844 1404 863 1411 L 897 1424 Q 912 1431 932.5 1446.5 Q 953 1462 962.5 1481.5 Q 972 1501 968 1524.5 Q 964 1548 950.5 1560 Q 937 1572 927 1571 Q 916 1571 906 1561.5 Q 896 1552 886.5 1532 Q 877 1512 867.5 1494 Q 858 1476 855 1466 Z"/><path d="M 1053 1374 L 1075 1383 L 1117 1399 Q 1138 1409 1155 1425 Q 1172 1441 1176.5 1455.5 Q 1181 1470 1181 1491 Q 1180 1522 1165 1541.5 Q 1150 1561 1125 1554 Q 1110 1551 1097 1531.5 Q 1084 1512 1069 1483.5 Q 1054 1455 1044 1430 L 1030 1396 Q 1023 1380 1028 1373 Q 1033 1366 1053 1374 Z"/></g></g>
</g>

<g class="page-number"><text x="105.0" y="292.0" font-size="3" fill="#999" font-family="sans-serif" text-anchor="middle">- 1 -</text></g>
</svg>