<svg xmlns="http://www.w3.org/2000/svg" viewBox="0 0 210.0 297.0" width="210.0mm" height="297.0mm">
<rect x="0" y="0" width="210.0" height="297.0" fill="white"/>
<rect x="0.5" y="0.5" width="209.0" height="296.0" fill="none" stroke="#aaa" stroke-width="0.4"/>
<g class="grid" fill="none" stroke="#c8c8c8" stroke-width="0.2">
  <line x1="15.00" y1="15.00" x2="195.00" y2="15.00"/>
  <line x1="15.00" y1="30.00" x2="195.00" y2="30.00"/>
  <line x1="15.00" y1="45.00" x2="195.00" y2="45.00"/>
  <line x1="15.00" y1="60.00" x2="195.00" y2="60.00"/>
  <line x1="15.00" y1="75.00" x2="195.00" y2="75.00"/>
  <line x1="15.00" y1="90.00" x2="195.00" y2="90.00"/>
  <line x1="15.00" y1="105.00" x2="195.00" y2="105.00"/>
  <line x1="15.00" y1="120.00" x2="195.00" y2="120.00"/>
  <line x1="15.00" y1="135.00" x2="195.00" y2="135.00"/>
  <line x1="15.00" y1="150.00" x2="195.00" y2="150.00"/>
  <line x1="15.00" y1="165.00" x2="195.00" y2="165.00"/>
  <line x1="15.00" y1="180.00" x2="195.00" y2="180.00"/>
  <line x1="15.00" y1="195.00" x2="195.00" y2="195.00"/>
  <line x1="15.00" y1="210.00" x2="195.00" y2="210.00"/>
  <line x1="15.00" y1="225.00" x2="195.00" y2="225.00"/>
  <line x1="15.00" y1="240.00" x2="195.00" y2="240.00"/>
  <line x1="15.00" y1="255.00" x2="195.00" y2="255.00"/>
  <line x1="15.00" y1="270.00" x2="195.00" y2="270.00"/>
  <line x1="15.00" y1="282.00" x2="195.00" y2="282.00"/>
  <line x1="15.00" y1="15.00" x2="15.00" y2="282.00"/>
  <line x1="30.00" y1="15.00" x2="30.00" y2="282.00"/>
  <line x1="45.00" y1="15.00" x2="45.00" y2="282.00"/>
  <line x1="60.00" y1="15.00" x2="60.00" y2="282.00"/>
  <line x1="75.00" y1="15.00" x2="75.00" y2="282.00"/>
  <line x1="90.00" y1="15.00" x2="90.00" y2="282.00"/>
  <line x1="105.00" y1="15.00" x2="105.00" y2="282.00"/>
  <line x1="120.00" y1="15.00" x2="120.00" y2="282.00"/>
  <line x1="135.00" y1="15.00" x2="135.00" y2="282.00"/>
  <line x1="150.00" y1="15.00" x2="150.00" y2="282.00"/>
  <line x1="165.00" y1="15.00" x2="165.00" y2="282.00"/>
  <line x1="180.00" y1="15.00" x2="180.00" y2="282.00"/>
  <line x1="195.00" y1="15.00" x2="195.00" y2="282.00"/>
  </g>
<g class="chars">
<g transform="translate(15.0,15.0) scale(0.00732421875,0.00732421875)"><g fill="#222"><path d="M 889 404 L 1173 370 L 1290 357 L 1349 348 Q 1399 341 1429.5 335 Q 1460 329 1474 329 Q 1493 331 1513 339.5 Q 1533 348 1564 366.5 Q 1595 385 1605 399.5 Q 1615 414 1612 425 Q 1609 436 1568 437 L 1488 440 Q 1399 444 1374 445 L 1277 451 L 1165 458 L 900 482 L 802 496 Q 761 502 726.5 506.5 Q 692 511 658.5 519 Q 625 527 614 526 Q 594 526 570 517 L 525 498 Q 501 489 488.5 476.5 Q 476 464 480 455.5 Q 484 447 506 445 L 561 440 L 684 429 L 795 415 L 889 404 Z"/><path d="M 915 724 L 912 741 Q 909 753 901 765.5 Q 893 778 879.5 779.5 Q 866 781 853 766 Q 843 757 836 734.5 Q 829 712 827 693 L 802 496 L 795 415 L 789 365 Q 786 345 780.5 318 Q 775 291 767.5 268 Q 760 245 744.5 222.5 Q 729 200 724.5 190.5 Q 720 181 724.5 173.5 Q 729 166 751 164 Q 771 163 809 170 Q 847 177 867 183.5 Q 887 190 888.5 197.5 Q 890 205 887.5 218.5 Q 885 232 884.5 251.5 Q 884 271 884.5 304.5 Q 885 338 887 368 L 889 404 L 900 482 L 913 657 L 915 724 Z"/><path d="M 1173 370 L 1179 312 Q 1182 283 1181.5 244 Q 1181 205 1176 176 L 1165 131 Q 1161 113 1166 104.5 Q 1171 96 1201 101 Q 1220 105 1263.5 125.5 Q 1307 146 1327 162.5 Q 1347 179 1346 193 Q 1345 199 1335 215 Q 1325 231 1315.5 258 Q 1306 285 1304 295 L 1299 321 L 1290 357 L 1277 451 Q 1259 528 1257 542 L 1237 645 Q 1161.5 729.5 1146 624 L 1165 458 L 1173 370 Z"/><path d="M 1237 645 Q 1252 654 1263.5 667 Q 1275 680 1271 688 Q 1267 696 1243 696 L 1193 698 Q 1160 700 1105.5 705 Q 1051 710 1017 713 L 915 724 Q 789 690.5 913 657 Q 1011 643 1032 640 L 1146 624 L 1237 645 Z"/><path d="M 164 896 L 236 894 Q 302 893 378.5 886.5 Q 455 880 582.5 867.5 Q 710 855 821.5 844.5 Q 933 834 1026 826 L 1262 807 Q 1399 796 1496 785.5 Q 1593 775 1651.5 766 Q 1710 757 1727 757 Q 1754 758 1790.5 771.5 Q 1827 785 1859.5 800.5 Q 1892 816 1908 832.5 Q 1924 849 1922 857 Q 1920 864 1909.5 870.5 Q 1899 877 1883 877 L 1821 880 Q 1772 883 1699 882 L 1507 880 Q 1375 880 1283 884.5 Q 1191 889 1041 900.5 Q 891 912 799.5 920 Q 708 928 665 934 Q 622 940 500.5 959.5 Q 379 979 336.5 989.5 Q 294 1000 277 999 Q 252 998 219 982 L 164 954 Q 134 941 127.5 927.5 Q 121 914 124.5 905.5 Q 128 897 164 896 M 124.5 905.5 L 124.5 905.5 Z"/><path d="M 748 1541 Q 745 1562 738 1575.5 Q 731 1589 715 1593.5 Q 699 1598 683.5 1569.5 Q 668 1541 664 1508 L 629 1266 Q 624 1236 616.5 1200 Q 609 1164 600.5 1144.5 Q 592 1125 575 1105.5 Q 558 1086 555 1076.5 Q 552 1067 555.5 1060.5 Q 559 1054 578 1052 Q 594 1051 629 1055 L 672 1061 L 703 1113 L 725 1280 L 734 1347 L 748 1478 L 748 1541 Z"/><path d="M 672 1061 Q 774 1052 831.5 1046 Q 889 1040 959 1032 Q 1029 1024 1143 1011 Q 1257 998 1302 991 Q 1347 984 1379 977 Q 1411 970 1421 969 Q 1437 969 1459.5 977.5 Q 1482 986 1514.5 1004 Q 1547 1022 1567.5 1037 Q 1588 1052 1588 1063 Q 1587 1070 1580 1082 L 1560 1113 Q 1546 1136 1538 1157 L 1516 1233 L 1452 1441 Q 1442 1471 1430.5 1499 Q 1419 1527 1401.5 1544.5 Q 1384 1562 1365 1558 L 1335 1536 L 1321 1506 L 1337.5 1455 Q 1344 1453 1349 1428 L 1363 1361 L 1380 1272 L 1386 1226 L 1399 1141 Q 1404 1106 1405.5 1091 Q 1407 1076 1399.5 1064.5 Q 1392 1053 1349 1055 Q 1318 1057 1252 1062.5 Q 1186 1068 1165 1069 L 1045 1077 L 959 1085 Q 892 1094 853 1098.5 Q 814 1103 784 1105 L 703 1113 Q 582.5 1097 672 1061 Z"/><path d="M 725 1280 L 979 1250 L 1085 1233 Q 1127 1226 1164 1220 Q 1201 1214 1231 1208 Q 1261 1202 1279 1202.5 Q 1297 1203 1337 1213 L 1386 1226 Q 1453 1269 1380 1272 Q 1299 1282 1290 1283 L 1082 1307 L 981 1322 L 734 1347 Q 654.5 1303.5 725 1280 Z"/><path d="M 979 1250 Q 977 1211 974.5 1178 Q 972 1145 968 1125 L 959 1085 Q 967 1036 1045 1077 Q 1067 1087 1082.5 1097 Q 1098 1107 1100 1116.5 Q 1102 1126 1096 1146 Q 1087 1173 1087 1191 L 1085 1233 L 1082 1307 L 1074 1449 Q 1019 1528.5 984 1458 L 981 1322 L 979 1250 Z"/><path d="M 1321 1506 Q 1244 1509 1207 1511 L 1090 1522 Q 1073 1524 985.5 1529 Q 898 1534 848 1540.5 Q 798 1547 789 1545 L 748 1541 Q 678 1509.5 748 1478 L 984 1458 L 1074 1449 L 1140 1441 L 1193 1436 Q 1244 1430 1252 1430 Q 1278 1431 1296 1438 L 1318 1450 Q 1331 1457 1337.5 1455 Q 1379.25 1485.5 1321 1506 Z"/><path d="M 492 1928 L 533 1891 L 589 1841 L 644 1780 Q 695 1724 707 1707.5 Q 719 1691 727 1670.5 Q 735 1650 739 1627.5 Q 743 1605 748.5 1600 Q 754 1595 776 1600 Q 805 1608 837 1620.5 Q 869 1633 891.5 1652 Q 914 1671 909 1683 Q 906 1689 886.5 1700 Q 867 1711 850 1722 Q 833 1733 778 1780.5 Q 723 1828 709.5 1838 Q 696 1848 635 1885 Q 574 1922 553 1930 L 503 1949 Q 485 1956 480.5 1949.5 Q 476 1943 492 1928 M 480.5 1949.5 L 480.5 1949.5 Z"/><path d="M 1207 1663 L 1160 1617 Q 1154 1612 1159.5 1603 Q 1165 1594 1173 1596 L 1224 1611 Q 1271 1626 1311 1642 Q 1351 1658 1408 1689.5 Q 1465 1721 1492.5 1746.5 Q 1520 1772 1532 1798 Q 1544 1824 1544.5 1866 Q 1545 1908 1534.5 1926.5 Q 1524 1945 1510.5 1950 Q 1497 1955 1474 1944 Q 1446 1932 1412 1894 L 1337 1810 Q 1277 1744 1247.5 1709.5 Q 1218 1675 1207 1663 M 1247.5 1709.5 L 1247.5 1709.5 Z"/></g></g>
</g>

<g class="page-number"><text x="105.0" y="292.0" font-size="3" fill="#999" font-family="sans-serif" text-anchor="middle">- 1 -</text></g>
</svg>