<svg xmlns="http://www.w3.org/2000/svg" viewBox="0 0 210.0 297.0" width="210.0mm" height="297.0mm">
<rect x="0" y="0" width="210.0" height="297.0" fill="white"/>
<rect x="0.5" y="0.5" width="209.0" height="296.0" fill="none" stroke="#aaa" stroke-width="0.4"/>
<g class="grid" fill="none" stroke="#c8c8c8" stroke-width="0.2">
  <line x1="15.00" y1="15.00" x2="195.00" y2="15.00"/>
  <line x1="15.00" y1="30.00" x2="195.00" y2="30.00"/>
  <line x1="15.00" y1="45.00" x2="195.00" y2="45.00"/>
  <line x1="15.00" y1="60.00" x2="195.00" y2="60.00"/>
  <line x1="15.00" y1="75.00" x2="195.00" y2="75.00"/>
  <line x1="15.00" y1="90.00" x2="195.00" y2="90.00"/>
  <line x1="15.00" y1="105.00" x2="195.00" y2="105.00"/>
  <line x1="15.00" y1="120.00" x2="195.00" y2="120.00"/>
  <line x1="15.00" y1="135.00" x2="195.00" y2="135.00"/>
  <line x1="15.00" y1="150.00" x2="195.00" y2="150.00"/>
  <line x1="15.00" y1="165.00" x2="195.00" y2="165.00"/>
  <line x1="15.00" y1="180.00" x2="195.00" y2="180.00"/>
  <line x1="15.00" y1="195.00" x2="195.00" y2="195.00"/>
  <line x1="15.00" y1="210.00" x2="195.00" y2="210.00"/>
  <line x1="15.00" y1="225.00" x2="195.00" y2="225.00"/>
  <line x1="15.00" y1="240.00" x2="195.00" y2="240.00"/>
  <line x1="15.00" y1="255.00" x2="195.00" y2="255.00"/>
  <line x1="15.00" y1="270.00" x2="195.00" y2="270.00"/>
  <line x1="15.00" y1="282.00" x2="195.00" y2="282.00"/>
  <line x1="15.00" y1="15.00" x2="15.00" y2="282.00"/>
  <line x1="30.00" y1="15.00" x2="30.00" y2="282.00"/>
  <line x1="45.00" y1="15.00" x2="45.00" y2="282.00"/>
  <line x1="60.00" y1="15.00" x2="60.00" y2="282.00"/>
  <line x1="75.00" y1="15.00" x2="75.00" y2="282.00"/>
  <line x1="90.00" y1="15.00" x2="90.00" y2="282.00"/>
  <line x1="105.00" y1="15.00" x2="105.00" y2="282.00"/>
  <line x1="120.00" y1="15.00" x2="120.00" y2="282.00"/>
  <line x1="135.00" y1="15.00" x2="135.00" y2="282.00"/>
  <line x1="150.00" y1="15.00" x2="150.00" y2="282.00"/>
  <line x1="165.00" y1="15.00" x2="165.00" y2="282.00"/>
  <line x1="180.00" y1="15.00" x2="180.00" y2="282.00"/>
  <line x1="195.00" y1="15.00" x2="195.00" y2="282.00"/>
  </g>
<g class="chars">
<g transform="translate(15.0,15.0) scale(0.00732421875,0.00732421875)"><g fill="#222"><path d="M 658 385 Q 630 354 617.5 338 Q 605 322 579.5 287 Q 554 252 541 232 L 518 199 Q 510 188 515.5 180 Q 521 172 530 173 L 575 183 Q 585 186 617.5 196.5 Q 650 207 663.5 212 Q 677 217 701 229 Q 725 241 736 254.5 Q 747 268 751 285 Q 756 311 751 327 L 738 370 L 658 385 Z"/><path d="M 738 370 Q 783 357 817 343 Q 851 329 868 329 Q 884 330 914.5 341.5 Q 945 353 960 365.5 Q 975 378 974 387 Q 972 393 963.5 400 Q 955 407 929 414 L 889 426 L 818 444 L 751 453 Q 702 465 652.5 474.5 Q 603 484 535 490 L 452 498 L 417 498 Q 387 499 373 495 L 341 485 Q 315 479 305 467.5 Q 295 456 301 449.5 Q 307 443 317 441 L 355 436 L 431 427 Q 486 420 534 410 L 658 385 L 738 370 Z"/><path d="M 510 790 Q 501 779 496.5 771 Q 492 763 483 737.5 Q 474 712 466 683 L 441 586 L 417 498 L 452 498 Q 478 523 501.5 545.5 Q 525 568 543.5 596 Q 562 624 572 656.5 Q 582 689 573.5 716 Q 565 743 556 760 L 543 783 L 510 790 Z"/><path d="M 818 444 Q 842 459 860 468.5 Q 878 478 888.5 490.5 Q 899 503 898 515 Q 897 523 881.5 540 Q 866 557 855 579 L 821 644 L 762 746 L 718 751 Q 745 644 751 601 Q 757 558 758.5 531.5 Q 760 505 759 498 L 751 453 L 818 444 Z"/><path d="M 762 746 L 873 721 L 929 707 Q 939 707 965.5 713.5 Q 992 720 1003 725 Q 1014 730 1034.5 745.5 Q 1055 761 1053 772 Q 1051 783 1023 784 L 944 789 Q 918 791 854.5 800 Q 791 809 748 816.5 Q 705 824 572 852.5 Q 439 881 383 894 L 296 915 Q 264 923 244.5 931 Q 225 939 211.5 941 Q 198 943 165 918 Q 151 909 134.5 894.5 Q 118 880 112.5 869 Q 107 858 110 852 Q 113 846 129 845 L 163 843 Q 190 842 230.5 836 Q 271 830 354 816 L 510 790 L 543 783 L 718 751 L 762 746 Z"/><path d="M 463 1448 Q 449 1506 437.5 1545 Q 426 1584 407.5 1627 Q 389 1670 368 1700.5 Q 347 1731 312 1767.5 Q 277 1804 251 1823 L 218 1847 Q 210 1853 204 1846.5 Q 198 1840 210 1823 L 231 1793 Q 252 1763 277 1720 Q 302 1677 321 1630.5 Q 340 1584 357.5 1516 Q 375 1448 382 1393.5 Q 389 1339 393 1253 Q 397 1167 397 1128 L 397 1056 Q 397 1029 390.5 1012.5 Q 384 996 374 984 Q 364 972 362 966.5 Q 360 961 363 954 Q 366 947 381 945 Q 390 944 410.5 950.5 Q 431 957 445 960 L 487 970 L 510 1032 L 503 1085 L 499 1120 Q 495 1179 492 1236.5 Q 489 1294 486 1313 L 473 1402 L 463 1448 Z"/><path d="M 487 970 Q 546 959 576 952 L 667 930 Q 715 919 749 904.5 Q 783 890 796 891 Q 806 892 822 899.5 Q 838 907 859 921 Q 880 935 903.5 954.5 Q 927 974 928 985 Q 929 996 913 1028 Q 904 1045 894.5 1081 Q 885 1117 886 1161 L 887 1578 L 889 1646 Q 888 1683 880 1721.5 Q 872 1760 859.5 1784.5 Q 847 1809 831.5 1830.5 Q 816 1852 797.5 1864.5 Q 779 1877 766 1872 Q 757 1870 742 1849.5 Q 727 1829 713 1814.5 Q 699 1800 668.5 1771 Q 638 1742 624 1732 L 588 1708 Q 568 1696 574 1683.5 Q 580 1671 605 1676 L 652 1687 L 694 1691 L 723 1695 Q 737 1697 746.5 1692 Q 756 1687 764 1670 Q 772 1653 774 1607 L 783 1323 L 780 1284 L 781 1096 Q 781 1057 779 1030 Q 777 1003 771 997.5 Q 765 992 748.5 991.5 Q 732 991 680 1000 L 510 1032 L 487 970 Z"/><path d="M 503 1085 Q 541 1094 563.5 1100.5 Q 586 1107 626 1121.5 Q 666 1136 681.5 1147 Q 697 1158 706 1174.5 Q 715 1191 713.5 1220.5 Q 712 1250 698.5 1260.5 Q 685 1271 672 1270.5 Q 659 1270 645 1261 Q 631 1252 596 1213 Q 561 1174 526 1143 L 499 1120 L 503 1085 Z"/><path d="M 783 1323 L 640 1436 Q 623 1449 596.5 1474 Q 570 1499 558.5 1511 Q 547 1523 539 1524.5 Q 531 1526 514 1512 Q 491 1494 482 1478 L 463 1448 L 473 1402 Q 502 1401 519.5 1398 Q 537 1395 598 1368 L 697 1327 L 780 1284 L 783 1323 Z"/><path d="M 1236 429 L 1377 404 Q 1402 400 1466.5 385 Q 1531 370 1558.5 358 Q 1586 346 1596 345 Q 1608 345 1622 350 Q 1636 355 1657 367 Q 1678 379 1694.5 391.5 Q 1711 404 1707 412 Q 1703 420 1692 421 L 1641 429 Q 1582 439 1512.5 449 Q 1443 459 1382 471 Q 1321 483 1295 483 Q 1269 484 1258 480 L 1231 473 L 1236 429 Z"/><path d="M 1488 881 L 1510 768 Q 1514 748 1515.5 731 Q 1517 714 1510 707.5 Q 1503 701 1481 703 Q 1465 705 1412 714 L 1333 727 Q 1298 734 1252.5 745.5 Q 1207 757 1185 767.5 Q 1163 778 1156 777 Q 1145 776 1130 758 Q 1115 740 1105 722 Q 1095 704 1094.5 695 Q 1094 686 1115 648 Q 1126 627 1133 583.5 Q 1140 540 1138 468 Q 1136 422 1131.5 374 Q 1127 326 1121.5 303.5 Q 1116 281 1108 263.5 Q 1100 246 1092.5 232 Q 1085 218 1084.5 208.5 Q 1084 199 1091 193 Q 1098 187 1117 188 Q 1147 191 1180.5 199 Q 1214 207 1237.5 218 Q 1261 229 1264 239 Q 1267 249 1260 273 Q 1254 290 1247 327.5 Q 1240 365 1240 373 L 1236 429 L 1231 473 L 1222 559 L 1213 612 Q 1210 638 1218 646 Q 1226 654 1255.5 655.5 Q 1285 657 1320 651 L 1430 633 Q 1489 624 1524 608.5 Q 1559 593 1569 592 Q 1587 591 1611 601 Q 1635 611 1656 623 Q 1677 635 1689.5 646 Q 1702 657 1702 668 Q 1701 677 1689 692.5 Q 1677 708 1666 723.5 Q 1655 739 1648 758 L 1592 896 L 1488 881 Z"/><path d="M 1163 939 Q 1319 921 1358 911 L 1488 881 L 1592 896 L 1625 914 Q 1642 924 1643.5 933 Q 1645 942 1640.5 946 Q 1636 950 1617 952 L 1594 955 Q 1481 970 1356 979 L 1186 992 L 1163 939 Z"/><path d="M 1152 1205 L 1146 1346 L 1145 1397 L 1141 1539 L 1142 1591 Q 1146 1622 1155 1641.5 Q 1164 1661 1195 1680.5 Q 1226 1700 1258.5 1712 Q 1291 1724 1352.5 1728.5 Q 1414 1733 1459 1733 Q 1539 1735 1586.5 1727 Q 1634 1719 1684 1698.5 Q 1734 1678 1753 1650.5 Q 1772 1623 1778.5 1605 Q 1785 1587 1794 1548 Q 1803 1509 1806 1495 L 1812 1464 Q 1816 1442 1822.5 1436 Q 1829 1430 1835.5 1434 Q 1842 1438 1847 1463 L 1855 1511 Q 1858 1533 1865 1563.5 Q 1872 1594 1880 1614.5 Q 1888 1635 1898 1648 L 1926 1685 Q 1934 1700 1936.5 1713.5 Q 1939 1727 1935 1737 Q 1931 1746 1917 1761 Q 1903 1776 1874 1795.5 Q 1845 1815 1786 1833 Q 1727 1851 1640 1864 Q 1553 1877 1480 1875 Q 1437 1875 1372 1867 Q 1307 1859 1257 1845 Q 1207 1831 1159.5 1800.5 Q 1112 1770 1089.5 1736 Q 1067 1702 1056 1665.5 Q 1045 1629 1043.5 1579 Q 1042 1529 1047 1405 L 1056 1150 L 1056 1003 Q 1056 965 1053 950 L 1041 917 Q 1035 903 1038.5 896.5 Q 1042 890 1054 887 Q 1066 885 1095.5 898.5 Q 1125 912 1130 915 L 1163 939 L 1186 992 Q 1201 1007 1201.5 1014.5 Q 1202 1022 1197 1032 Q 1196 1033 1185 1050.5 Q 1174 1068 1171 1085 L 1158 1158 L 1152 1205 Z"/><path d="M 1158 1158 Q 1207 1149 1271.5 1137 Q 1336 1125 1393 1114.5 Q 1450 1104 1481.5 1095 Q 1513 1086 1525 1085 Q 1541 1085 1557 1091 Q 1573 1097 1589 1107 Q 1605 1117 1612.5 1124.5 Q 1620 1132 1621 1141.5 Q 1622 1151 1602 1153 L 1548 1161 Q 1505 1168 1409.5 1181 Q 1314 1194 1263 1202.5 Q 1212 1211 1191 1211 Q 1175 1212 1171 1210 L 1152 1205 L 1158 1158 Z"/><path d="M 1146 1346 Q 1240 1335 1295.5 1327.5 Q 1351 1320 1393.5 1311.5 Q 1436 1303 1472.5 1294.5 Q 1509 1286 1526 1284 Q 1543 1283 1556 1286 Q 1569 1289 1589 1298 Q 1609 1307 1619.5 1314.5 Q 1630 1322 1630.5 1332.5 Q 1631 1343 1616 1346 L 1568 1356 Q 1544 1361 1420 1375 L 1270 1395 Q 1221 1401 1210 1400 L 1145 1397 L 1146 1346 Z"/><path d="M 1141 1539 Q 1221 1531 1259.5 1525.5 Q 1298 1520 1359 1509.5 Q 1420 1499 1448 1493 Q 1476 1487 1503 1480 Q 1530 1473 1542 1473 Q 1556 1474 1573.5 1480 Q 1591 1486 1605.5 1494 Q 1620 1502 1630.5 1512 Q 1641 1522 1638.5 1530 Q 1636 1538 1614 1541 L 1576 1547 Q 1481 1562 1463.5 1564.5 Q 1446 1567 1361 1575.5 Q 1276 1584 1269 1584 L 1142 1591 L 1141 1539 Z"/></g></g>
</g>

<g class="page-number"><text x="105.0" y="292.0" font-size="3" fill="#999" font-family="sans-serif" text-anchor="middle">- 1 -</text></g>
</svg>