<svg xmlns="http://www.w3.org/2000/svg" viewBox="0 0 80.000 40.000" width="80.000mm" height="40.000mm"><g id="patch-cut" stroke="#000" stroke-width="0.3" fill="none" stroke-linecap="round" stroke-linejoin="round"><g transform="translate(0.000,0.000)"><path class="patch-outline" d="M 0.000 0.000 L 80.000 0.000 L 80.000 40.000 L 0.000 40.000 Z"/><g transform="translate(9.000,11.000) scale(0.008789)"><path d="M 1068 654 L 1368 624 Q 1387 623 1454 612 Q 1521 601 1548.5 592.5 Q 1576 584 1581 583 Q 1603 580 1641 592 Q 1679 604 1704.5 616.5 Q 1730 629 1761.5 653.5 Q 1793 678 1790.5 693 Q 1788 708 1771 716 Q 1761 721 1747.5 720.5 Q 1734 720 1696.5 722 Q 1659 724 1528.5 721.5 Q 1398 719 1345 722 L 1064 738 L 934 747 Q 814 761 750 771 Q 686 781 609.5 797.5 Q 533 814 487 826 Q 441 838 419 838 Q 390 839 368.5 831 Q 347 823 320.5 809.5 Q 294 796 282.5 788.5 Q 271 781 262 769 Q 253 757 257 746 Q 261 735 283 733 L 350 728 L 496 718 Q 603 710 698 696 L 937 663 L 1068 654 Z"/><path d="M 937 663 L 937 436 Q 937 383 933.5 350 Q 930 317 926 294 Q 922 271 918 257.5 Q 914 244 902.5 223.5 Q 891 203 885.5 187.5 Q 880 172 887 163 Q 894 154 914 151 Q 934 149 963 153 Q 992 157 1023.5 167 Q 1055 177 1081.5 190.5 Q 1108 204 1115 213.5 Q 1122 223 1122 237 Q 1121 246 1108.5 273.5 Q 1096 301 1086.5 345.5 Q 1077 390 1076 424 L 1068 654 L 1064 738 L 1052 1037 Q 983 1121 934 1051 L 934 747 L 937 663 Z"/><path d="M 1052 1037 Q 1132 1025 1199.5 1017 Q 1267 1009 1303 1001.5 Q 1339 994 1355 994 Q 1377 995 1401.5 1003.5 Q 1426 1012 1440 1021 Q 1454 1030 1472.5 1044 Q 1491 1058 1497 1066 Q 1503 1074 1499.5 1083 Q 1496 1092 1484 1097 Q 1466 1106 1420 1102 Q 1374 1098 1220 1112 L 1022 1126 L 865 1143 Q 792 1151 728.5 1163 Q 665 1175 651 1175 Q 606 1176 567 1161 Q 528 1146 519 1137 Q 510 1128 508 1123 Q 506 1118 507 1115 Q 507 1110 515 1105 Q 523 1100 537 1098 L 934 1051 L 1052 1037 Z"/><path d="M 737 1834 Q 737 1857 733.5 1874.5 Q 730 1892 719 1898.5 Q 708 1905 693 1898 Q 671 1890 661 1860.5 Q 651 1831 648 1808 L 610 1566 Q 596 1477 585 1458.5 Q 574 1440 552.5 1418.5 Q 531 1397 528.5 1388.5 Q 526 1380 530.5 1370.5 Q 535 1361 545.5 1357.5 Q 556 1354 577 1357 Q 610 1363 616 1364 L 681 1381 Q 712 1412.5 709 1444 L 735 1751 L 737 1834 Z"/><path d="M 681 1381 Q 861 1361 919 1351.5 Q 977 1342 1096 1320.5 Q 1215 1299 1261 1286 Q 1307 1273 1327 1274 Q 1343 1276 1365 1285 Q 1387 1294 1409.5 1308.5 Q 1432 1323 1467 1350.5 Q 1502 1378 1503 1391 Q 1504 1404 1500 1412 Q 1496 1418 1482 1432.5 Q 1468 1447 1457 1465.5 Q 1446 1484 1433.5 1522.5 Q 1421 1561 1409 1605 L 1376 1719 Q 1279 1757 1242 1689 L 1272 1506 Q 1284 1429 1281.5 1413 Q 1279 1397 1263.5 1386 Q 1248 1375 1204 1378 L 1121 1384 L 709 1444 L 681 1381 Z"/><path d="M 1376 1719 Q 1387 1730 1397 1741.5 Q 1407 1753 1406 1762 Q 1405 1771 1400.5 1776 Q 1396 1781 1385.5 1783.5 Q 1375 1786 1353.5 1785.5 Q 1332 1785 1284 1788 L 1196 1792 L 977 1812 L 737 1834 L 735 1751 Q 849 1740 952.5 1728.5 Q 1056 1717 1126 1706 L 1242 1689 L 1376 1719 Z"/></g><g transform="translate(23.667,11.000) scale(0.008789)"><path d="M 585 414 L 505 315 L 474 271 Q 460 256 459.5 250 Q 459 244 460.5 240 Q 462 236 466 233.5 Q 470 231 479 231 Q 519 232 544.5 238 Q 570 244 624.5 260.5 Q 679 277 698 293 Q 717 309 727.5 331.5 Q 738 354 738.5 382 Q 739 410 722 436 Q 713 450 702 456.5 Q 691 463 675 463 Q 657 464 632 453 Q 607 442 585 414 Z"/><path d="M 605 1022 Q 564 1076 529.5 1117 Q 495 1158 411 1234 Q 327 1310 251 1348 L 168 1390 Q 132 1408 127 1398 Q 122 1388 135 1376 L 204 1319 Q 248 1282 314 1214.5 Q 380 1147 450.5 1058 Q 521 969 599 859 L 679 747 Q 720 690 721 676.5 Q 722 663 716 658.5 Q 710 654 701.5 654.5 Q 693 655 688 656 L 337 764 Q 329 767 312 768.5 Q 295 770 252.5 746 Q 210 722 202.5 709.5 Q 195 697 194.5 694 Q 194 691 195 688 Q 197 678 209 673.5 Q 221 669 243 668.5 Q 265 668 305 663.5 Q 345 659 410.5 648.5 Q 476 638 539.5 621.5 Q 603 605 644.5 590.5 Q 686 576 716.5 560.5 Q 747 545 760 543 Q 775 542 793.5 549 Q 812 556 855 581.5 Q 898 607 907 622 Q 916 637 916 647 Q 914 659 896 676 L 869 701 Q 819 747 800 769 Q 781 791 699 905 L 661 958 L 605 1022 Z"/><path d="M 661 958 L 696 978 Q 723.5 1008 719 1068 Q 708 1093 708 1096 L 699 1163 L 687 1612 Q 684 1691 681.5 1706.5 Q 679 1722 670 1752 Q 661 1782 649 1798.5 Q 637 1815 624 1817 Q 611 1819 590 1790 Q 570 1765 556 1722.5 Q 542 1680 545 1657 Q 545 1651 556 1619.5 Q 567 1588 577 1524 L 592 1432 Q 598 1388 599 1352 L 605 1022 L 661 958 Z"/><path d="M 696 978 Q 765 1001 802 1016 Q 839 1031 861.5 1049.5 Q 884 1068 892 1088.5 Q 900 1109 899 1136 Q 897 1165 885.5 1181.5 Q 874 1198 857 1200.5 Q 840 1203 819 1188 Q 799 1175 763 1127 L 719 1068 L 696 978 Z"/><path d="M 1010 239 Q 1024 240 1036.5 242 Q 1049 244 1076 253.5 Q 1103 263 1137.5 277 Q 1172 291 1195 313.5 Q 1218 336 1227 358 Q 1236 380 1236.5 410 Q 1237 440 1232 456 Q 1224 481 1210 489.5 Q 1196 498 1184 498 Q 1172 499 1151 488 Q 1130 477 1096.5 429.5 Q 1063 382 1036 337 Q 1009 292 999.5 279 Q 990 266 990.5 255.5 Q 991 245 995 242 Q 999 239 1010 239 Z"/><path d="M 1379 486 L 1415 434 Q 1435 405 1468 348.5 Q 1501 292 1512 268 L 1536 205 Q 1546 179 1547 160 Q 1548 141 1551.5 135 Q 1555 129 1567 125 Q 1579 122 1604 132 Q 1629 142 1671.5 164.5 Q 1714 187 1723 201.5 Q 1732 216 1733 222.5 Q 1734 229 1734 232 Q 1733 235 1730 240.5 Q 1727 246 1701 261 Q 1675 276 1639.5 311.5 Q 1604 347 1555 390 Q 1506 433 1477 454 L 1409 504 Q 1377 528 1369 519.5 Q 1361 511 1379 486 Z"/><path d="M 1248 671 L 1111 684 Q 1078 688 1045 682 Q 1012 676 998.5 666.5 Q 985 657 977 647 Q 969 637 968.5 635 Q 968 633 969 630.5 Q 970 628 979.5 624 Q 989 620 1000 619 L 1178 602 Q 1210 599 1345.5 575.5 Q 1481 552 1532.5 536 Q 1584 520 1605 520 Q 1628 521 1656 530.5 Q 1684 540 1699 554 Q 1714 568 1711 583 Q 1708 598 1658 607 L 1465 643 L 1369 654 L 1248 671 Z"/><path d="M 1262 973 L 1163 985 Q 1121 991 1088.5 989 Q 1056 987 1036.5 982.5 Q 1017 978 991 962.5 Q 965 947 966.5 937.5 Q 968 928 972 924 Q 976 920 1010 916 L 1096 908 Q 1159 903 1183 899 L 1262 889 L 1388 870 Q 1460 862 1505.5 852.5 Q 1551 843 1567 842 Q 1588 842 1629.5 849 Q 1671 856 1695 873.5 Q 1719 891 1717 900 Q 1715 909 1700.5 918 Q 1686 927 1624 933 L 1386 958 L 1262 973 Z"/><path d="M 1380 1179 L 1628 1148 L 1751 1128 Q 1775 1130 1817.5 1143.5 Q 1860 1157 1890 1184.5 Q 1920 1212 1919.5 1225.5 Q 1919 1239 1909 1247 Q 1899 1255 1839 1253 L 1680 1248 Q 1647 1247 1558 1248.5 Q 1469 1250 1448 1252 L 1376 1260 L 1257 1267 L 1077 1299 L 984 1323 Q 977 1324 970 1324 Q 949 1325 916 1317.5 Q 883 1310 853 1292 Q 823 1274 816.5 1265.5 Q 810 1257 809.5 1250 Q 809 1243 816.5 1239 Q 824 1235 884 1230 L 1032 1218 Q 1040 1218 1211 1195 L 1256 1189 L 1380 1179 Z"/><path d="M 1262 889 Q 1262 842 1261 799 Q 1260 756 1255 719 L 1248 671 L 1369 654 Q 1388 668 1398 674.5 Q 1408 681 1413.5 688 Q 1419 695 1419.5 704 Q 1420 713 1411.5 737 Q 1403 761 1400 784 L 1388 870 L 1386 958 L 1380 1179 L 1376 1260 L 1368 1563 Q 1366 1637 1361 1681.5 Q 1356 1726 1343.5 1790.5 Q 1331 1855 1314.5 1890 Q 1298 1925 1292 1924 Q 1285 1924 1274 1898.5 Q 1263 1873 1257.5 1841.5 Q 1252 1810 1251.5 1732 Q 1251 1654 1252 1635 L 1257 1267 L 1256 1189 L 1262 973 L 1262 889 Z"/></g><g transform="translate(38.333,11.000) scale(0.008789)"><path d="M 823 1402 Q 845 1418 864 1431.5 Q 883 1445 915.5 1468 Q 948 1491 988 1524.5 Q 1028 1558 1051.5 1595 Q 1075 1632 1075 1669 Q 1074 1694 1062.5 1717 Q 1051 1740 1035.5 1746.5 Q 1020 1753 1006 1750 Q 984 1746 958 1713.5 Q 932 1681 893 1636.5 Q 854 1592 825 1561 L 782 1518 L 755 1489 L 690 1423 Q 670 1406 648 1385 Q 626 1364 618 1357.5 Q 610 1351 552 1314 L 522 1295 Q 500 1282 489 1268.5 Q 478 1255 476.5 1238.5 Q 475 1222 486 1197 L 508 1145 L 534 1070 L 554 980 L 574 894 Q 598 790 603.5 758.5 Q 609 727 613.5 680.5 Q 618 634 622.5 565.5 Q 627 497 626 462 Q 625 445 621 409.5 Q 617 374 608 348 Q 599 322 604 312 Q 609 302 623 298 Q 634 295 665.5 307.5 Q 697 320 708.5 327 Q 720 334 748.5 353.5 Q 777 373 788 389.5 Q 799 406 797 422 Q 796 428 786 446.5 Q 776 465 767.5 491.5 Q 759 518 743.5 574.5 Q 728 631 715 685 Q 702 739 699 750 L 638 965 L 613 1049 L 574 1178 Q 561 1221 563.5 1235 Q 566 1249 583 1258 L 622 1281 L 689 1317 L 741 1348 L 823 1402 Z"/><path d="M 892 917 Q 894 882 893.5 862.5 Q 893 843 888.5 819 Q 884 795 875 771 Q 866 747 871 738.5 Q 876 730 891 726 Q 908 722 931 729 Q 954 736 987.5 750.5 Q 1021 765 1042.5 784.5 Q 1064 804 1062 819 Q 1061 826 1046.5 845 Q 1032 864 1030 875 L 1026 892 L 1007 953 Q 1000 983 991 1021.5 Q 982 1060 962 1122 Q 942 1184 914 1247 Q 886 1310 857 1352 L 823 1402 L 755 1489 Q 731 1514 701.5 1543.5 Q 672 1573 612.5 1613 Q 553 1653 492 1680.5 Q 431 1708 366 1725 L 335 1733 L 302 1742 Q 285 1747 283 1738.5 Q 281 1730 294 1722 L 313 1711 Q 325 1704 375.5 1676.5 Q 426 1649 472 1620 Q 518 1591 575.5 1543 Q 633 1495 661 1459 L 690 1423 L 741 1348 Q 759 1319 777.5 1286.5 Q 796 1254 821.5 1199 Q 847 1144 861.5 1093 Q 876 1042 881 1011 L 885 983 L 892 917 Z"/><path d="M 1026 892 L 1053 887 Q 1082 882 1098.5 882.5 Q 1115 883 1122 894 Q 1129 905 1122.5 916.5 Q 1116 928 1089 934 L 1007 953 L 885 983 L 708 1025 L 613 1049 L 534 1070 L 459 1093 L 387 1115 Q 352 1127 319.5 1139.5 Q 287 1152 272 1150 Q 256 1149 244.5 1141 Q 233 1133 203.5 1101 Q 174 1069 163 1053 Q 152 1037 159 1025.5 Q 166 1014 179 1014.5 Q 192 1015 218 1021.5 Q 244 1028 294 1021 L 342 1015 Q 409 1007 430 1003 L 554 980 L 638 965 L 892 917 L 1026 892 Z"/><path d="M 1342 1465 L 1337 1487 Q 1333 1504 1316 1506.5 Q 1299 1509 1281 1481 Q 1270 1467 1265.5 1451.5 Q 1261 1436 1260 1419 L 1236 1172 L 1219 1025 Q 1214 979 1208.5 961.5 Q 1203 944 1183 915.5 Q 1163 887 1164 878 Q 1164 867 1169.5 860 Q 1175 853 1181 850 Q 1187 847 1194 846 Q 1202 846 1221 851.5 Q 1240 857 1251 861 L 1307 886 Q 1327.5 904.5 1314 949 L 1349 1382 L 1342 1465 Z"/><path d="M 1307 886 L 1435 865 Q 1497 855 1552 842.5 Q 1607 830 1648.5 814 Q 1690 798 1707 798 Q 1724 799 1751 809 Q 1778 819 1802.5 833 Q 1827 847 1843.5 860 Q 1860 873 1874 887 Q 1888 901 1888 910 Q 1887 913 1886 917.5 Q 1885 922 1868 942.5 Q 1851 963 1836.5 991 Q 1822 1019 1818 1034 Q 1814 1049 1802 1109 L 1749 1370 Q 1651.5 1433.5 1626 1337 Q 1632 1294 1636.5 1258 Q 1641 1222 1654 1128 Q 1667 1034 1672.5 994 Q 1678 954 1674 932 Q 1670 910 1658 900.5 Q 1646 891 1610 895 Q 1605 896 1531 908 Q 1457 920 1450 921 L 1314 949 L 1307 886 Z"/><path d="M 1749 1370 L 1768 1390 Q 1778 1401 1775 1411.5 Q 1772 1422 1763 1427 Q 1753 1433 1728.5 1431 Q 1704 1429 1623 1437 L 1342 1465 L 1349 1382 L 1626 1337 L 1749 1370 Z"/></g><g transform="translate(53.000,11.000) scale(0.008789)"><path d="M 1002 354 Q 977 332 967.5 319 Q 958 306 938 258 L 912 200 Q 899 172 897 156.5 Q 895 141 898.5 135 Q 902 129 925 130 Q 949 133 976.5 145 Q 1004 157 1032 174 Q 1060 191 1074.5 204.5 Q 1089 218 1095.5 233.5 Q 1102 249 1101 270 Q 1099 302 1091 311 L 1068 341 Q 1042 378.5 1002 354 Z"/><path d="M 710 473 Q 692 470 684 469 L 636 467 Q 619 466 596 458 Q 573 450 559 434.5 Q 545 419 549 411 Q 553 403 578 400 L 651 394 Q 705 390 759 383 L 890 366 L 1002 354 L 1068 341 Q 1125 333 1168.5 326.5 Q 1212 320 1259.5 306 Q 1307 292 1324 292 Q 1344 293 1367.5 300.5 Q 1391 308 1417.5 324 Q 1444 340 1444 353 Q 1443 364 1433.5 372 Q 1424 380 1407.5 382 Q 1391 384 1342.5 394 Q 1294 404 1229 414 L 1177 422 L 1110 432 Q 1074 435 1057 436 L 949 450 L 857 458 L 762 467 L 710 473 Z"/><path d="M 821 734 Q 790 689 778 666 Q 766 643 758.5 622.5 Q 751 602 731 539 L 710 473 L 762 467 Q 795 488 814 504 Q 833 520 854.5 550 Q 876 580 886 615.5 Q 896 651 890 678 L 880 727 Q 858.5 785.5 821 734 Z"/><path d="M 1177 422 Q 1203 432 1214.5 438.5 Q 1226 445 1242 458.5 Q 1258 472 1263 479.5 Q 1268 487 1267.5 494 Q 1267 501 1257 514 Q 1247 527 1233.5 545 Q 1220 563 1206 586 L 1174 639 L 1138 696 Q 1079.5 761.5 1073 703 Q 1084 663 1093 630.5 Q 1102 598 1107 572.5 Q 1112 547 1114.5 516.5 Q 1117 486 1115 469 L 1110 432 L 1177 422 Z"/><path d="M 1138 696 Q 1183 689 1207 686 L 1327 673 L 1450 656 Q 1523 647 1552 642 Q 1581 637 1596 637 Q 1620 638 1644.5 645 Q 1669 652 1704 669 Q 1739 686 1753 702.5 Q 1767 719 1763.5 729.5 Q 1760 740 1741 746 Q 1727 751 1701 750.5 Q 1675 750 1639.5 752.5 Q 1604 755 1516.5 758.5 Q 1429 762 1348 767 Q 1267 772 1184 778.5 Q 1101 785 1004 795 Q 907 805 808 817 Q 709 829 621 841.5 Q 533 854 485.5 862 Q 438 870 419 870 Q 398 871 374.5 865.5 Q 351 860 336 853 Q 321 846 302.5 833.5 Q 284 821 279.5 811.5 Q 275 802 278.5 794.5 Q 282 787 300 784 L 353 778 Q 357 778 401.5 777 Q 446 776 539 765 L 647 754 L 745 742 L 821 734 L 880 727 L 1073 703 L 1138 696 Z"/><path d="M 765 1362 Q 761 1369 756 1375 Q 751 1381 740 1382.5 Q 729 1384 717 1371 Q 705 1360 698 1323 Q 691 1286 684 1245.5 Q 677 1205 669 1144.5 Q 661 1084 656 1059 Q 651 1034 641 1010 Q 631 986 612.5 969.5 Q 594 953 589 945.5 Q 584 938 588.5 929.5 Q 593 921 617 921 Q 637 922 653 925 Q 669 928 689 934 L 715 942 Q 746.5 946.5 740 995 Q 740 1022 742 1034 L 751 1085 L 754 1118 L 758 1166 Q 765 1223 767 1234 L 775 1304 Q 775 1341 765 1362 Z"/><path d="M 715 942 Q 763 937 804.5 932 Q 846 927 912.5 917 Q 979 907 1056.5 893.5 Q 1134 880 1172 871.5 Q 1210 863 1237.5 854.5 Q 1265 846 1277 845 Q 1294 845 1312 852 Q 1330 859 1366.5 880 Q 1403 901 1418 914.5 Q 1433 928 1433 940 Q 1432 948 1427 957 L 1409 981 Q 1394 1002 1381 1046 L 1352 1146 Q 1351 1148 1325.5 1226.5 Q 1300 1305 1288.5 1326.5 Q 1277 1348 1259.5 1360.5 Q 1242 1373 1229 1370 Q 1212 1367 1205 1352 L 1190 1326 Q 1131.5 1257 1205 1260 Q 1210 1258 1213 1229 L 1221 1190 L 1226 1157 L 1233 1124 L 1238 1070 Q 1241 1051 1243 1040 L 1249 1006 Q 1252 987 1252 973 Q 1251 951 1242.5 943 Q 1234 935 1210 934 Q 1186 934 1138 940 L 1024 953 L 893 970 Q 807 981 793 984 L 740 995 L 715 942 Z"/><path d="M 754 1118 Q 795 1112 817 1109 L 918 1096 Q 977 1088 1037.5 1076.5 Q 1098 1065 1118.5 1061.5 Q 1139 1058 1162 1057 Q 1191 1056 1201 1059 L 1238 1070 L 1233 1124 Q 1188 1130 1166 1132 L 1043 1149 L 918 1162 Q 852 1170 830.5 1170.5 Q 809 1171 782 1168 L 758 1166 L 754 1118 Z"/><path d="M 1190 1326 Q 1165 1328 1150 1329.5 Q 1135 1331 1060.5 1339.5 Q 986 1348 928.5 1355 Q 871 1362 845 1364.5 Q 819 1367 801 1365 L 765 1362 L 775 1304 Q 821 1299 884 1292 Q 947 1285 971 1282 Q 995 1279 1044 1270.5 Q 1093 1262 1119.5 1256 Q 1146 1250 1160 1250 Q 1171 1251 1186 1256.5 Q 1201 1262 1205 1260 L 1190 1326 Z"/><path d="M 375 1815 Q 358 1815 345 1800.5 Q 332 1786 326.5 1751.5 Q 321 1717 322 1707 Q 323 1686 332 1669 Q 341 1652 368.5 1612.5 Q 396 1573 418.5 1535 Q 441 1497 450 1479 L 470 1435 Q 478 1417 485.5 1416.5 Q 493 1416 503 1426 Q 515 1440 520 1485 Q 525 1530 525.5 1545 Q 526 1560 514 1607 Q 498 1668 487.5 1689 Q 477 1710 449 1751.5 Q 421 1793 404 1804.5 Q 387 1816 375 1815 Z"/><path d="M 1369 1546 L 1407 1591 Q 1417 1604 1460.5 1639 Q 1504 1674 1508 1677 Q 1512 1680 1557.5 1711 Q 1603 1742 1618.5 1762 Q 1634 1782 1633 1798 Q 1631 1813 1612 1833 Q 1593 1853 1529.5 1873.5 Q 1466 1894 1415.5 1904.5 Q 1365 1915 1271 1918 Q 1165 1922 1081 1909.5 Q 997 1897 906.5 1856.5 Q 816 1816 763 1755.5 Q 710 1695 694 1656 Q 678 1617 659.5 1562 Q 641 1507 630 1482 Q 619 1457 616.5 1446 Q 614 1435 617 1430 Q 620 1425 631 1424 Q 638 1424 659.5 1432 Q 681 1440 690.5 1446 Q 700 1452 704 1460 Q 708 1468 711 1489.5 Q 714 1511 728 1549 Q 742 1587 755.5 1616 Q 769 1645 809.5 1683.5 Q 850 1722 923.5 1752 Q 997 1782 1069 1789.5 Q 1141 1797 1218 1792 Q 1281 1789 1322 1781 Q 1363 1773 1378 1763 Q 1393 1753 1397 1744.5 Q 1401 1736 1397 1715 Q 1393 1700 1387 1680 Q 1381 1660 1374 1640 L 1360 1605 L 1343 1558 Q 1337 1544 1345 1536 Q 1353 1528 1369 1546 Z"/><path d="M 910 1421 Q 912 1418 934 1418.5 Q 956 1419 988 1429 Q 1020 1439 1054.5 1449 Q 1089 1459 1110.5 1469 Q 1132 1479 1146 1500.5 Q 1160 1522 1160.5 1558.5 Q 1161 1595 1148 1611 Q 1135 1627 1116.5 1631 Q 1098 1635 1068 1613 Q 1045 1597 1011 1553.5 Q 977 1510 951.5 1484 Q 926 1458 917 1441.5 Q 908 1425 910 1421 Z"/><path d="M 1427 1352 Q 1428 1350 1456.5 1352 Q 1485 1354 1519.5 1365.5 Q 1554 1377 1616 1403 Q 1678 1429 1710 1453 Q 1742 1477 1755 1500.5 Q 1768 1524 1768.5 1560 Q 1769 1596 1753.5 1617 Q 1738 1638 1715 1639 Q 1703 1640 1682.5 1631 Q 1662 1622 1622.5 1574.5 Q 1583 1527 1560 1501 Q 1537 1475 1509.5 1446 Q 1482 1417 1462.5 1401 Q 1443 1385 1433 1371 Q 1423 1357 1427 1352 Z"/></g></g></g><g id="patch-write" stroke="#c33" stroke-width="0.3" fill="none" stroke-linecap="round" stroke-linejoin="round"><g transform="translate(0.000,0.000)"><g transform="translate(9.000,11.000) scale(0.008789)"><polyline points="330.00,790.00 378.12,783.80 426.08,777.38 473.92,770.79 521.69,764.11 569.43,757.39 617.19,750.69 665.00,744.06 712.92,737.58 760.98,731.30 809.23,725.28 857.71,719.58 906.47,714.26 955.55,709.38 1005.00,705.00 1051.51,701.40 1098.33,698.25 1145.44,695.48 1192.80,693.06 1240.37,690.93 1288.12,689.04 1336.01,687.35 1384.01,685.81 1432.08,684.36 1480.19,682.96 1528.29,681.57 1576.36,680.12 1624.36,678.58 1672.25,676.89 1720.00,675.00"/><polyline points="995.00,200.00 994.48,231.38 993.97,262.76 993.45,294.14 992.93,325.52 992.41,356.90 991.90,388.28 991.38,419.66 990.86,451.03 990.34,482.41 989.83,513.79 989.31,545.17 988.79,576.55 988.28,607.93 987.76,639.31 987.24,670.69 986.72,702.07 986.21,733.45 985.69,764.83 985.17,796.21 984.66,827.59 984.14,858.97 983.62,890.34 983.10,921.72 982.59,953.10 982.07,984.48 981.55,1015.86 981.03,1047.24 980.52,1078.62 980.00,1110.00"/><polyline points="555.00,1130.00 585.52,1127.24 616.03,1124.48 646.55,1121.72 677.07,1118.97 707.59,1116.21 738.10,1113.45 768.62,1110.69 799.14,1107.93 829.66,1105.17 860.17,1102.41 890.69,1099.66 921.21,1096.90 951.72,1094.14 982.24,1091.38 1012.76,1088.62 1043.28,1085.86 1073.79,1083.10 1104.31,1080.34 1134.83,1077.59 1165.34,1074.83 1195.86,1072.07 1226.38,1069.31 1256.90,1066.55 1287.41,1063.79 1317.93,1061.03 1348.45,1058.28 1378.97,1055.52 1409.48,1052.76 1440.00,1050.00"/><polyline points="600.00,1380.00 603.45,1396.90 606.90,1413.79 610.34,1430.69 613.79,1447.59 617.24,1464.48 620.69,1481.38 624.14,1498.28 627.59,1515.17 631.03,1532.07 634.48,1548.97 637.93,1565.86 641.38,1582.76 644.83,1599.66 648.28,1616.55 651.72,1633.45 655.17,1650.34 658.62,1667.24 662.07,1684.14 665.52,1701.03 668.97,1717.93 672.41,1734.83 675.86,1751.72 679.31,1768.62 682.76,1785.52 686.21,1802.41 689.66,1819.31 693.10,1836.21 696.55,1853.10 700.00,1870.00"/><polyline points="715.00,1415.00 753.95,1409.42 794.54,1403.36 836.40,1396.95 879.14,1390.28 922.39,1383.47 965.76,1376.62 1008.89,1369.85 1051.38,1363.25 1092.85,1356.94 1132.94,1351.04 1171.26,1345.63 1207.42,1340.84 1241.06,1336.78 1271.79,1333.54 1299.23,1331.25 1323.00,1330.00 1398.81,1329.15 1417.07,1344.74 1413.00,1393.00 1410.04,1416.79 1403.66,1445.58 1394.47,1478.49 1383.07,1514.63 1370.06,1553.12 1356.05,1593.09 1341.63,1633.64 1327.42,1673.90 1314.00,1712.98 1302.00,1750.00"/><polyline points="755.00,1780.00 776.38,1779.14 797.76,1778.28 819.14,1777.41 840.52,1776.55 861.90,1775.69 883.28,1774.83 904.66,1773.97 926.03,1773.10 947.41,1772.24 968.79,1771.38 990.17,1770.52 1011.55,1769.66 1032.93,1768.79 1054.31,1767.93 1075.69,1767.07 1097.07,1766.21 1118.45,1765.34 1139.83,1764.48 1161.21,1763.62 1182.59,1762.76 1203.97,1761.90 1225.34,1761.03 1246.72,1760.17 1268.10,1759.31 1289.48,1758.45 1310.86,1757.59 1332.24,1756.72 1353.62,1755.86 1375.00,1755.00"/></g><g transform="translate(23.667,11.000) scale(0.008789)"><polyline points="478.00,247.00 486.28,253.31 494.55,259.62 502.83,265.93 511.10,272.24 519.38,278.55 527.66,284.86 535.93,291.17 544.21,297.48 552.48,303.79 560.76,310.10 569.03,316.41 577.31,322.72 585.59,329.03 593.86,335.34 602.14,341.66 610.41,347.97 618.69,354.28 626.97,360.59 635.24,366.90 643.52,373.21 651.79,379.52 660.07,385.83 668.34,392.14 676.62,398.45 684.90,404.76 693.17,411.07 701.45,417.38 709.72,423.69 718.00,430.00"/><polyline points="208.00,692.00 273.82,669.05 343.39,644.01 414.81,617.93 486.24,591.84 555.81,566.80 621.63,543.85 681.85,524.04 734.60,508.41 778.00,498.00 892.00,488.50 894.00,558.00 875.12,594.95 846.06,641.91 808.78,696.41 765.25,756.00 717.44,818.21 667.31,880.59 616.84,940.68 568.00,996.00 524.65,1041.84 479.12,1086.82 431.85,1131.11 383.27,1174.88 333.82,1218.30 283.93,1261.56 234.04,1304.81 184.58,1348.23 136.00,1392.00"/><polyline points="662.00,973.00 660.70,1000.66 659.40,1028.64 658.09,1056.87 656.78,1085.30 655.47,1113.83 654.15,1142.42 652.84,1170.98 651.53,1199.45 650.22,1227.75 648.92,1255.83 647.62,1283.60 646.32,1311.00 645.04,1337.96 643.76,1364.41 642.50,1390.28 641.24,1415.50 640.00,1440.00 638.26,1473.41 636.55,1505.43 634.86,1536.27 633.19,1566.11 631.52,1595.16 629.88,1623.62 628.23,1651.69 626.59,1679.56 624.95,1707.42 623.31,1735.49 621.66,1763.95 620.00,1793.00"/><polyline points="718.00,1026.00 723.76,1030.97 729.52,1035.93 735.28,1040.90 741.03,1045.86 746.79,1050.83 752.55,1055.79 758.31,1060.76 764.07,1065.72 769.83,1070.69 775.59,1075.66 781.34,1080.62 787.10,1085.59 792.86,1090.55 798.62,1095.52 804.38,1100.48 810.14,1105.45 815.90,1110.41 821.66,1115.38 827.41,1120.34 833.17,1125.31 838.93,1130.28 844.69,1135.24 850.45,1140.21 856.21,1145.17 861.97,1150.14 867.72,1155.10 873.48,1160.07 879.24,1165.03 885.00,1170.00"/><polyline points="1005.00,250.00 1012.31,257.62 1019.62,265.24 1026.93,272.86 1034.24,280.48 1041.55,288.10 1048.86,295.72 1056.17,303.34 1063.48,310.97 1070.79,318.59 1078.10,326.21 1085.41,333.83 1092.72,341.45 1100.03,349.07 1107.34,356.69 1114.66,364.31 1121.97,371.93 1129.28,379.55 1136.59,387.17 1143.90,394.79 1151.21,402.41 1158.52,410.03 1165.83,417.66 1173.14,425.28 1180.45,432.90 1187.76,440.52 1195.07,448.14 1202.38,455.76 1209.69,463.38 1217.00,471.00"/><polyline points="1645.00,159.00 1635.79,171.10 1626.59,183.21 1617.38,195.31 1608.17,207.41 1598.97,219.52 1589.76,231.62 1580.55,243.72 1571.34,255.83 1562.14,267.93 1552.93,280.03 1543.72,292.14 1534.52,304.24 1525.31,316.34 1516.10,328.45 1506.90,340.55 1497.69,352.66 1488.48,364.76 1479.28,376.86 1470.07,388.97 1460.86,401.07 1451.66,413.17 1442.45,425.28 1433.24,437.38 1424.03,449.48 1414.83,461.59 1405.62,473.69 1396.41,485.79 1387.21,497.90 1378.00,510.00"/><polyline points="1003.00,653.00 1026.99,650.44 1050.72,647.96 1074.25,645.54 1097.68,643.16 1121.08,640.79 1144.54,638.40 1168.13,635.96 1191.93,633.46 1216.03,630.86 1240.51,628.14 1265.44,625.28 1290.91,622.24 1317.00,619.00 1338.69,616.21 1360.80,613.28 1383.29,610.24 1406.10,607.09 1429.21,603.84 1452.55,600.52 1476.10,597.13 1499.81,593.69 1523.64,590.21 1547.53,586.71 1571.46,583.20 1595.37,579.70 1619.22,576.21 1642.97,572.75 1666.58,569.35 1690.00,566.00"/><polyline points="993.00,953.00 1017.75,950.72 1042.46,948.45 1067.12,946.20 1091.76,943.94 1116.40,941.69 1141.03,939.44 1165.69,937.19 1190.38,934.92 1215.11,932.65 1239.91,930.36 1264.78,928.06 1289.75,925.73 1314.81,923.38 1340.00,921.00 1363.62,918.75 1387.35,916.48 1411.17,914.19 1435.07,911.88 1459.04,909.56 1483.06,907.22 1507.14,904.87 1531.25,902.51 1555.38,900.14 1579.52,897.78 1603.66,895.41 1627.79,893.05 1651.90,890.69 1675.97,888.34 1700.00,886.00"/><polyline points="861.00,1283.00 896.06,1278.92 930.70,1274.83 965.06,1270.73 999.25,1266.63 1033.40,1262.52 1067.63,1258.42 1102.07,1254.33 1136.83,1250.24 1172.06,1246.16 1207.86,1242.09 1244.37,1238.04 1281.71,1234.01 1320.00,1230.00 1351.88,1226.76 1384.40,1223.53 1417.49,1220.31 1451.10,1217.11 1485.15,1213.91 1519.58,1210.73 1554.33,1207.55 1589.31,1204.38 1624.48,1201.20 1659.75,1198.04 1695.07,1194.87 1730.37,1191.70 1765.58,1188.53 1800.63,1185.36 1835.46,1182.18 1870.00,1179.00"/><polyline points="1323.00,665.00 1322.54,709.35 1322.14,753.68 1321.79,798.00 1321.47,842.31 1321.16,886.62 1320.84,930.93 1320.50,975.25 1320.12,1019.58 1319.68,1063.92 1319.17,1108.28 1318.56,1152.66 1317.84,1197.08 1316.99,1241.52 1316.00,1286.00 1314.93,1327.55 1313.73,1369.13 1312.42,1410.74 1311.01,1452.38 1309.52,1494.04 1307.95,1535.71 1306.33,1577.40 1304.66,1619.10 1302.97,1660.81 1301.26,1702.52 1299.55,1744.23 1297.86,1785.94 1296.19,1827.64 1294.57,1869.33 1293.00,1911.00"/></g><g transform="translate(38.333,11.000) scale(0.008789)"><polyline points="706.00,336.00 696.27,395.67 686.38,457.72 676.39,521.26 666.36,585.39 656.35,649.22 646.42,711.87 636.63,772.43 627.03,830.02 617.69,883.74 608.66,932.69 600.00,976.00 573.81,1068.38 546.75,1132.19 526.31,1178.90 520.00,1220.00 541.75,1256.12 626.00,1313.00 655.28,1341.16 689.90,1374.71 728.92,1412.70 771.39,1454.18 816.38,1498.19 862.93,1543.78 910.11,1590.01 956.98,1635.93 1002.59,1680.57 1046.00,1723.00"/><polyline points="980.00,760.00 971.33,800.59 963.84,841.06 956.93,881.48 950.01,921.90 942.52,962.37 933.85,1002.96 923.43,1043.73 910.68,1084.72 895.00,1126.00 878.66,1164.12 860.85,1203.55 841.59,1243.79 820.90,1284.34 798.81,1324.69 775.34,1364.34 750.50,1402.80 724.31,1439.57 696.81,1474.13 668.00,1506.00 637.27,1534.90 604.24,1561.19 569.32,1585.35 532.92,1607.82 495.44,1629.06 457.28,1649.54 418.85,1669.72 380.56,1690.05 342.81,1710.99 306.00,1733.00"/><polyline points="203.00,1093.00 233.52,1086.90 264.03,1080.79 294.55,1074.69 325.07,1068.59 355.59,1062.48 386.10,1056.38 416.62,1050.28 447.14,1044.17 477.66,1038.07 508.17,1031.97 538.69,1025.86 569.21,1019.76 599.72,1013.66 630.24,1007.55 660.76,1001.45 691.28,995.34 721.79,989.24 752.31,983.14 782.83,977.03 813.34,970.93 843.86,964.83 874.38,958.72 904.90,952.62 935.41,946.52 965.93,940.41 996.45,934.31 1026.97,928.21 1057.48,922.10 1088.00,916.00"/><polyline points="1246.00,870.00 1248.03,891.14 1250.07,912.28 1252.10,933.41 1254.14,954.55 1256.17,975.69 1258.21,996.83 1260.24,1017.97 1262.28,1039.10 1264.31,1060.24 1266.34,1081.38 1268.38,1102.52 1270.41,1123.66 1272.45,1144.79 1274.48,1165.93 1276.52,1187.07 1278.55,1208.21 1280.59,1229.34 1282.62,1250.48 1284.66,1271.62 1286.69,1292.76 1288.72,1313.90 1290.76,1335.03 1292.79,1356.17 1294.83,1377.31 1296.86,1398.45 1298.90,1419.59 1300.93,1440.72 1302.97,1461.86 1305.00,1483.00"/><polyline points="1316.00,913.00 1354.85,906.43 1395.32,899.49 1436.59,892.37 1477.87,885.25 1518.33,878.32 1557.19,871.74 1593.62,865.71 1626.83,860.40 1656.00,856.00 1711.90,836.46 1756.56,811.56 1786.95,805.63 1800.00,843.00 1799.86,861.91 1797.86,884.81 1794.22,911.28 1789.10,940.91 1782.71,973.30 1775.24,1008.01 1766.88,1044.66 1757.81,1082.81 1748.24,1122.07 1738.34,1162.01 1728.32,1202.23 1718.37,1242.30 1708.67,1281.83 1699.41,1320.40 1690.79,1357.59 1683.00,1393.00"/><polyline points="1353.00,1413.00 1367.24,1412.76 1381.48,1412.52 1395.72,1412.28 1409.97,1412.03 1424.21,1411.79 1438.45,1411.55 1452.69,1411.31 1466.93,1411.07 1481.17,1410.83 1495.41,1410.59 1509.66,1410.34 1523.90,1410.10 1538.14,1409.86 1552.38,1409.62 1566.62,1409.38 1580.86,1409.14 1595.10,1408.90 1609.34,1408.66 1623.59,1408.41 1637.83,1408.17 1652.07,1407.93 1666.31,1407.69 1680.55,1407.45 1694.79,1407.21 1709.03,1406.97 1723.28,1406.72 1737.52,1406.48 1751.76,1406.24 1766.00,1406.00"/></g><g transform="translate(53.000,11.000) scale(0.008789)"><polyline points="916.00,150.00 920.31,156.72 924.62,163.45 928.93,170.17 933.24,176.90 937.55,183.62 941.86,190.34 946.17,197.07 950.48,203.79 954.79,210.52 959.10,217.24 963.41,223.97 967.72,230.69 972.03,237.41 976.34,244.14 980.66,250.86 984.97,257.59 989.28,264.31 993.59,271.03 997.90,277.76 1002.21,284.48 1006.52,291.21 1010.83,297.93 1015.14,304.66 1019.45,311.38 1023.76,318.10 1028.07,324.83 1032.38,331.55 1036.69,338.28 1041.00,345.00"/><polyline points="580.00,440.00 608.14,436.07 636.28,432.14 664.41,428.21 692.55,424.28 720.69,420.34 748.83,416.41 776.97,412.48 805.10,408.55 833.24,404.62 861.38,400.69 889.52,396.76 917.66,392.83 945.79,388.90 973.93,384.97 1002.07,381.03 1030.21,377.10 1058.34,373.17 1086.48,369.24 1114.62,365.31 1142.76,361.38 1170.90,357.45 1199.03,353.52 1227.17,349.59 1255.31,345.66 1283.45,341.72 1311.59,337.79 1339.72,333.86 1367.86,329.93 1396.00,326.00"/><polyline points="746.00,470.00 749.66,479.45 753.31,488.90 756.97,498.34 760.62,507.79 764.28,517.24 767.93,526.69 771.59,536.14 775.24,545.59 778.90,555.03 782.55,564.48 786.21,573.93 789.86,583.38 793.52,592.83 797.17,602.28 800.83,611.72 804.48,621.17 808.14,630.62 811.79,640.07 815.45,649.52 819.10,658.97 822.76,668.41 826.41,677.86 830.07,687.31 833.72,696.76 837.38,706.21 841.03,715.66 844.69,725.10 848.34,734.55 852.00,744.00"/><polyline points="1213.00,443.00 1209.10,452.34 1205.21,461.69 1201.31,471.03 1197.41,480.38 1193.52,489.72 1189.62,499.07 1185.72,508.41 1181.83,517.76 1177.93,527.10 1174.03,536.45 1170.14,545.79 1166.24,555.14 1162.34,564.48 1158.45,573.83 1154.55,583.17 1150.66,592.52 1146.76,601.86 1142.86,611.21 1138.97,620.55 1135.07,629.90 1131.17,639.24 1127.28,648.59 1123.38,657.93 1119.48,667.28 1115.59,676.62 1111.69,685.97 1107.79,695.31 1103.90,704.66 1100.00,714.00"/><polyline points="316.00,831.00 362.97,825.59 409.93,820.17 456.90,814.76 503.86,809.34 550.83,803.93 597.79,798.52 644.76,793.10 691.72,787.69 738.69,782.28 785.66,776.86 832.62,771.45 879.59,766.03 926.55,760.62 973.52,755.21 1020.48,749.79 1067.45,744.38 1114.41,738.97 1161.38,733.55 1208.34,728.14 1255.31,722.72 1302.28,717.31 1349.24,711.90 1396.21,706.48 1443.17,701.07 1490.14,695.66 1537.10,690.24 1584.07,684.83 1631.03,679.41 1678.00,674.00"/><polyline points="660.00,936.00 662.90,951.17 665.79,966.34 668.69,981.52 671.59,996.69 674.48,1011.86 677.38,1027.03 680.28,1042.21 683.17,1057.38 686.07,1072.55 688.97,1087.72 691.86,1102.90 694.76,1118.07 697.66,1133.24 700.55,1148.41 703.45,1163.59 706.34,1178.76 709.24,1193.93 712.14,1209.10 715.03,1224.28 717.93,1239.45 720.83,1254.62 723.72,1269.79 726.62,1284.97 729.52,1300.14 732.41,1315.31 735.31,1330.48 738.21,1345.66 741.10,1360.83 744.00,1376.00"/><polyline points="728.00,958.00 768.46,949.96 810.10,941.68 852.33,933.30 894.57,924.91 936.21,916.64 976.67,908.59 1015.35,900.90 1051.65,893.66 1085.00,887.00 1138.19,874.64 1184.70,861.88 1225.90,851.00 1263.21,844.28 1298.00,844.00 1358.52,849.00 1409.48,867.67 1425.00,924.00 1419.53,949.36 1409.50,979.55 1395.64,1013.82 1378.67,1051.40 1359.30,1091.53 1338.25,1133.44 1316.24,1176.37 1293.99,1219.56 1272.22,1262.23 1251.65,1303.64 1233.00,1343.00"/><polyline points="766.00,1150.00 782.07,1148.10 798.14,1146.21 814.21,1144.31 830.28,1142.41 846.34,1140.52 862.41,1138.62 878.48,1136.72 894.55,1134.83 910.62,1132.93 926.69,1131.03 942.76,1129.14 958.83,1127.24 974.90,1125.34 990.97,1123.45 1007.03,1121.55 1023.10,1119.66 1039.17,1117.76 1055.24,1115.86 1071.31,1113.97 1087.38,1112.07 1103.45,1110.17 1119.52,1108.28 1135.59,1106.38 1151.66,1104.48 1167.72,1102.59 1183.79,1100.69 1199.86,1098.79 1215.93,1096.90 1232.00,1095.00"/><polyline points="770.00,1336.00 784.24,1334.52 798.48,1333.03 812.72,1331.55 826.97,1330.07 841.21,1328.59 855.45,1327.10 869.69,1325.62 883.93,1324.14 898.17,1322.66 912.41,1321.17 926.66,1319.69 940.90,1318.21 955.14,1316.72 969.38,1315.24 983.62,1313.76 997.86,1312.28 1012.10,1310.79 1026.34,1309.31 1040.59,1307.83 1054.83,1306.34 1069.07,1304.86 1083.31,1303.38 1097.55,1301.90 1111.79,1300.41 1126.03,1298.93 1140.28,1297.45 1154.52,1295.97 1168.76,1294.48 1183.00,1293.00"/><polyline points="490.00,1426.00 486.21,1439.10 482.41,1452.21 478.62,1465.31 474.83,1478.41 471.03,1491.52 467.24,1504.62 463.45,1517.72 459.66,1530.83 455.86,1543.93 452.07,1557.03 448.28,1570.14 444.48,1583.24 440.69,1596.34 436.90,1609.45 433.10,1622.55 429.31,1635.66 425.52,1648.76 421.72,1661.86 417.93,1674.97 414.14,1688.07 410.34,1701.17 406.55,1714.28 402.76,1727.38 398.97,1740.48 395.17,1753.59 391.38,1766.69 387.59,1779.79 383.79,1792.90 380.00,1806.00"/><polyline points="656.00,1434.00 674.25,1495.13 690.00,1557.19 710.75,1617.40 744.00,1673.00 777.55,1716.73 814.26,1761.10 858.98,1801.62 916.61,1833.75 992.00,1853.00 1033.00,1856.62 1082.99,1858.13 1139.80,1857.67 1201.30,1855.37 1265.31,1851.35 1329.69,1845.75 1392.28,1838.69 1450.93,1830.30 1503.48,1820.70 1547.78,1810.04 1581.67,1798.43 1603.00,1786.00 1610.93,1760.79 1590.71,1730.04 1550.01,1695.25 1496.50,1657.94 1437.88,1619.62 1381.82,1581.80 1336.00,1546.00"/><polyline points="913.00,1423.00 921.62,1428.41 930.24,1433.83 938.86,1439.24 947.48,1444.66 956.10,1450.07 964.72,1455.48 973.34,1460.90 981.97,1466.31 990.59,1471.72 999.21,1477.14 1007.83,1482.55 1016.45,1487.97 1025.07,1493.38 1033.69,1498.79 1042.31,1504.21 1050.93,1509.62 1059.55,1515.03 1068.17,1520.45 1076.79,1525.86 1085.41,1531.28 1094.03,1536.69 1102.66,1542.10 1111.28,1547.52 1119.90,1552.93 1128.52,1558.34 1137.14,1563.76 1145.76,1569.17 1154.38,1574.59 1163.00,1580.00"/><polyline points="1443.00,1360.00 1454.14,1367.24 1465.28,1374.48 1476.41,1381.72 1487.55,1388.97 1498.69,1396.21 1509.83,1403.45 1520.97,1410.69 1532.10,1417.93 1543.24,1425.17 1554.38,1432.41 1565.52,1439.66 1576.66,1446.90 1587.79,1454.14 1598.93,1461.38 1610.07,1468.62 1621.21,1475.86 1632.34,1483.10 1643.48,1490.34 1654.62,1497.59 1665.76,1504.83 1676.90,1512.07 1688.03,1519.31 1699.17,1526.55 1710.31,1533.79 1721.45,1541.03 1732.59,1548.28 1743.72,1555.52 1754.86,1562.76 1766.00,1570.00"/></g></g></g></svg>