<svg xmlns="http://www.w3.org/2000/svg" viewBox="0 0 120.000 30.000" width="120.000mm" height="30.000mm"><g id="patch-cut" stroke="#000" stroke-width="0.3" fill="none" stroke-linecap="round" stroke-linejoin="round"><g transform="translate(0.000,0.000)"><path class="patch-outline" d="M -7.385 4.673 L -1.871 3.334 L 3.668 2.109 L 9.232 0.999 L 14.818 0.004 L 20.423 -0.874 L 26.045 -1.636 L 31.682 -2.281 L 37.331 -2.810 L 42.990 -3.221 L 48.656 -3.515 L 54.327 -3.691 L 60.000 -3.750 L 65.673 -3.691 L 71.344 -3.515 L 77.010 -3.221 L 82.669 -2.810 L 88.318 -2.281 L 93.955 -1.636 L 99.577 -0.874 L 105.182 0.004 L 110.768 0.999 L 116.332 2.109 L 121.871 3.334 L 127.385 4.673 L 120.000 33.750 L 115.091 32.557 L 110.158 31.467 L 105.204 30.478 L 100.230 29.593 L 95.240 28.811 L 90.233 28.132 L 85.214 27.558 L 80.185 27.087 L 75.146 26.721 L 70.101 26.459 L 65.052 26.302 L 60.000 26.250 L 54.948 26.302 L 49.899 26.459 L 44.854 26.721 L 39.815 27.087 L 34.786 27.558 L 29.767 28.132 L 24.760 28.811 L 19.770 29.593 L 14.796 30.478 L 9.842 31.467 L 4.909 32.557 L -0.000 33.750 Z"/><g transform="translate(1.400,-1.375) rotate(-12.50,7.000,7.000) scale(0.006836)"><path d="M 557 331 L 540 284 Q 532 263 525 249.5 Q 518 236 507 221 Q 496 206 493.5 194.5 Q 491 183 497 177 Q 503 171 520 171 Q 540 172 565 178 Q 590 184 608.5 192.5 Q 627 201 631 210.5 Q 635 220 632 236 Q 629 252 628 261 Q 627 270 634 314 L 647 402 Q 648 414 647 438 Q 646 462 638.5 471 Q 631 480 628 480.5 Q 625 481 622 480 Q 609 479 602.5 474.5 Q 596 470 592 453 L 572 373 L 557 331 Z"/><path d="M 572 373 L 471 417 Q 460 422 444.5 433 Q 429 444 419.5 449 Q 410 454 401 453 Q 391 453 373 441 Q 355 429 341.5 417.5 Q 328 406 320 394 Q 312 382 315 375 Q 317 369 345 367.5 Q 373 366 396 363.5 Q 419 361 432.5 358.5 Q 446 356 503 343 L 557 331 L 572 373 Z"/><path d="M 847 312 Q 918 286 950 274 Q 982 262 996 261 Q 1011 261 1034.5 268.5 Q 1058 276 1075.5 285 Q 1093 294 1093.5 301 Q 1094 308 1093 311 Q 1090 317 1081 323 Q 1072 329 1044 334 Q 1016 339 974 348.5 Q 932 358 902.5 362.5 Q 873 367 851 361 L 827 356 L 847 312 Z"/><path d="M 827 356 Q 810 386 794 414 Q 778 442 763 464 L 746 489 Q 730 512 722 505 Q 714 498 718 487 L 727 459 Q 736 429 753.5 369.5 Q 771 310 779 271 L 789 215 Q 794 187 795 176 Q 795 159 788 140 Q 781 121 783 115.5 Q 785 110 791.5 105 Q 798 100 824 107 Q 863 120 879.5 132 Q 896 144 909 159.5 Q 922 175 920 186 Q 918 191 911 200 Q 904 209 895.5 218.5 Q 887 228 885 231 L 874 256 L 864 275 L 847 312 L 827 356 Z"/><path d="M 520 626 Q 501 640 493 647 L 452 682 Q 438 692 398 712 L 376 723 Q 365 729 358.5 724.5 Q 352 720 360 712 L 373 700 Q 398 677 415.5 658 Q 433 639 450 614.5 Q 467 590 481.5 565 Q 496 540 502 525 Q 508 510 509 494 Q 510 478 513.5 474.5 Q 517 471 529 470 Q 539 470 550 475 Q 561 480 578 492 Q 595 504 606.5 515.5 Q 618 527 616 536 Q 614 540 610 545 L 593 559 L 576 575 L 520 626 Z"/><path d="M 576 575 L 712 551 L 774 536 L 810 528 Q 815 527 840.5 518 Q 866 509 876 508 Q 891 508 913.5 518.5 Q 936 529 955 542 Q 974 555 986.5 566.5 Q 999 578 999.5 587 Q 1000 596 988 612 Q 976 628 969.5 640.5 Q 963 653 957 684 Q 951 715 941 782.5 Q 931 850 922.5 893.5 Q 914 937 904 964.5 Q 894 992 875 1021.5 Q 856 1051 838.5 1058 Q 821 1065 816 1064 Q 807 1063 799.5 1054.5 Q 792 1046 778.5 1020.5 Q 765 995 755 982.5 Q 745 970 728 951.5 Q 711 933 715.5 926.5 Q 720 920 732 920 Q 734 921 751 926 L 776 931 Q 808 939 813 937 Q 824 933 829.5 920.5 Q 835 908 840 875 L 868 662 Q 871 637 866.5 616 Q 862 595 854.5 587 Q 847 579 831 575.5 Q 815 572 796 575 L 749 584 Q 707 592 667 602.5 Q 627 613 597.5 627.5 Q 568 642 565 640 L 520 626 L 576 575 Z"/><path d="M 523 939 L 512 954 Q 502 967 492 964 Q 482 961 476.5 950.5 Q 471 940 468 931 Q 465 922 452 853 Q 439 784 423 767.5 Q 407 751 406 744 Q 405 737 412 731 Q 416 728 437 731 L 479 740 L 501 779 L 520 898 L 523 939 Z"/><path d="M 479 740 L 540 726 Q 558 722 577.5 715.5 Q 597 709 619 699 Q 641 689 650.5 687 Q 660 685 676 687 Q 694 691 714.5 701 Q 735 711 746 719.5 Q 757 728 757 737 Q 756 744 744.5 758.5 Q 733 773 731 776.5 Q 729 780 721 801 L 710 828 L 688 890 L 627 881 L 637 812 L 643 775 Q 645 757 639.5 751.5 Q 634 746 612 751 L 563 762 L 501 779 L 479 740 Z"/><path d="M 688 890 L 707 901 Q 715 907 711.5 914 Q 708 921 674 924 L 523 939 L 520 898 L 627 881 L 688 890 Z"/><path d="M 1191 447 Q 1158 488 1137.5 510 Q 1117 532 1096 547 L 1066 569 Q 1054 578 1050 577 Q 1046 576 1044 569 Q 1042 562 1056 542 L 1072 519 Q 1079 508 1108 453.5 Q 1137 399 1149 369.5 Q 1161 340 1175.5 296 Q 1190 252 1193.5 236.5 Q 1197 221 1200.5 199.5 Q 1204 178 1204.5 161 Q 1205 144 1210.5 139 Q 1216 134 1230 133 Q 1246 133 1272 149 Q 1298 165 1309 174 Q 1320 183 1333.5 199 Q 1347 215 1347.5 227 Q 1348 239 1339 247 Q 1338 248 1327.5 254.5 Q 1317 261 1306.5 273.5 Q 1296 286 1274 323 Q 1252 360 1242 376 L 1220 409 L 1191 447 Z"/><path d="M 1220 409 L 1416 356 L 1464 336 Q 1468 335 1508 324 Q 1548 313 1558 312 Q 1579 311 1606 319 L 1639 331 Q 1657 338 1667.5 345 Q 1678 352 1678 361 Q 1677 372 1660.5 379 Q 1644 386 1616 389 Q 1588 392 1567 395 L 1441 417 L 1375 436 L 1316 447 Q 1275 455 1253.5 458 Q 1232 461 1211 453 L 1191 447 L 1220 409 Z"/><path d="M 1441 417 Q 1466 433 1481.5 445.5 Q 1497 458 1506 473 Q 1515 488 1514 494.5 Q 1513 501 1502.5 513 Q 1492 525 1485.5 536.5 Q 1479 548 1458.5 596 Q 1438 644 1422 668 L 1397 707 L 1343 772 Q 1315 798 1288 817 Q 1261 836 1201.5 858 Q 1142 880 1112 885 Q 1082 890 1060 892 L 1016 896 Q 991 899 990.5 887 Q 990 875 1002 871 L 1024 865 Q 1043 860 1084 842 Q 1125 824 1166 801 Q 1207 778 1235 751 L 1272 717 L 1305 670 Q 1320 647 1332 626.5 Q 1344 606 1356 572.5 Q 1368 539 1375 506.5 Q 1382 474 1380 462 L 1375 436 L 1441 417 Z"/><path d="M 1397 707 Q 1425 718 1437.5 723 Q 1450 728 1499.5 749 Q 1549 770 1582 785.5 Q 1615 801 1639 823 Q 1663 845 1668 859.5 Q 1673 874 1675 897.5 Q 1677 921 1671 934 Q 1664 948 1650 956 Q 1636 964 1616 958 Q 1599 955 1574.5 935 Q 1550 915 1471.5 859.5 Q 1393 804 1385 798 L 1343 772 L 1272 717 Q 1243 703 1225.5 693.5 Q 1208 684 1186 670 L 1144 645 Q 1129 637 1132 627 Q 1135 617 1147 620 L 1177 628 Q 1211 638 1239 647 L 1305 670 L 1397 707 Z"/><path d="M 944 942 L 932 916 Q 926 905 933.5 897.5 Q 941 890 950 893 L 968 900 Q 1005 915 1023.5 923 Q 1042 931 1063 948 Q 1084 965 1092 984 Q 1100 1003 1093.5 1032.5 Q 1087 1062 1070.5 1074.5 Q 1054 1087 1041 1085 Q 1027 1084 1013.5 1068.5 Q 1000 1053 989.5 1032.5 Q 979 1012 964 983 Q 949 954 944 942 Z"/><path d="M 1569 1050 L 1621 1045 L 1687 1034 Q 1706 1035 1732.5 1046 Q 1759 1057 1782.5 1071 Q 1806 1085 1823.5 1101 Q 1841 1117 1838.5 1127.5 Q 1836 1138 1816 1148.5 Q 1796 1159 1727 1156 L 1666 1154 Q 1589 1152 1550 1151 Q 1511 1150 1449 1150 Q 1355 1151 1237 1155 Q 1119 1159 1061.5 1162.5 Q 1004 1166 854.5 1176 Q 705 1186 655 1191 Q 605 1196 560 1203 Q 515 1210 465.5 1220 Q 416 1230 386.5 1240 Q 357 1250 347 1249 Q 337 1249 313.5 1241.5 Q 290 1234 277 1226 L 244 1205 Q 214 1187 209 1173.5 Q 204 1160 208.5 1152 Q 213 1144 235 1143 L 266 1142 L 361 1140 Q 392 1139 475 1132.5 Q 558 1126 695.5 1117.5 Q 833 1109 889 1105 L 1279 1076 Q 1423 1067 1472 1061 L 1569 1050 Z"/><path d="M 703 1302 L 736 1299 L 817 1291 L 951 1280 L 1090 1263 Q 1148 1258 1177.5 1252.5 Q 1207 1247 1212 1246 Q 1231 1245 1252 1250.5 Q 1273 1256 1294.5 1263.5 Q 1316 1271 1325.5 1278 Q 1335 1285 1335 1293 Q 1334 1302 1320.5 1310 Q 1307 1318 1276.5 1319.5 Q 1246 1321 1240 1321 L 856 1355 Q 794 1361 771 1360 Q 748 1359 727 1351 Q 706 1343 693.5 1332 Q 681 1321 683.5 1312.5 Q 686 1304 703 1302 Z"/><path d="M 701 1460 L 734 1458 L 815 1451 L 949 1443 L 1088 1428 Q 1148 1424 1180.5 1418.5 Q 1213 1413 1224 1413 Q 1237 1414 1255 1419 Q 1273 1424 1291 1431 Q 1309 1438 1320 1447 Q 1331 1456 1331.5 1464.5 Q 1332 1473 1321.5 1479 Q 1311 1485 1300 1485.5 Q 1289 1486 1238 1489 L 853 1516 Q 828 1518 800.5 1519 Q 773 1520 764 1519 Q 744 1518 722 1511 Q 700 1504 689 1491.5 Q 678 1479 681 1470 Q 684 1461 701 1460 Z"/><path d="M 793 1891 L 788 1915 Q 785 1928 777 1936 Q 769 1944 757 1943 Q 741 1942 732 1926.5 Q 723 1911 712 1860 L 685 1735 Q 681 1720 675 1703 Q 669 1686 653 1669.5 Q 637 1653 636.5 1644.5 Q 636 1636 644 1630.5 Q 652 1625 668 1626 Q 701 1629 710 1631 L 746 1640 L 779 1687 L 793 1826 L 793 1891 Z"/><path d="M 746 1640 L 946 1618 L 1091 1599 Q 1153 1592 1161.5 1590.5 Q 1170 1589 1207.5 1581.5 Q 1245 1574 1264.5 1569 Q 1284 1564 1294 1563 Q 1312 1563 1337.5 1575 Q 1363 1587 1385.5 1603 Q 1408 1619 1427 1641 Q 1446 1663 1442 1673 Q 1439 1680 1423 1689.5 Q 1407 1699 1401.5 1703.5 Q 1396 1708 1382.5 1725 Q 1369 1742 1363 1752 L 1319 1821 L 1239 1798 L 1260 1711 Q 1268 1678 1265.5 1666.5 Q 1263 1655 1255 1648.5 Q 1247 1642 1222 1642 L 1196 1642 L 1130 1650 L 1032 1657 L 779 1687 L 746 1640 Z"/><path d="M 1319 1821 L 1350 1843 Q 1363 1853 1359 1860.5 Q 1355 1868 1339 1868 L 793 1891 L 793 1826 L 1239 1798 L 1319 1821 Z"/></g><g transform="translate(22.040,-1.375) rotate(-7.50,7.000,7.000) scale(0.006836)"><path d="M 893 293 L 1108 261 Q 1123 259 1227.5 237 Q 1332 215 1365 204.5 Q 1398 194 1413 193 Q 1435 193 1463.5 204.5 Q 1492 216 1529.5 238 Q 1567 260 1577.5 270.5 Q 1588 281 1588.5 287.5 Q 1589 294 1584 302 L 1561 330 Q 1552 342 1541.5 362 Q 1531 382 1519 411 L 1457 557 Q 1360.5 598 1344 527 Q 1352 505 1360 482.5 Q 1368 460 1379 410 Q 1390 360 1392 339 Q 1394 318 1389 306.5 Q 1384 295 1369 289.5 Q 1354 284 1324 285.5 Q 1294 287 1257 291 Q 1220 295 1123 311.5 Q 1026 328 963 340 L 893 354 Q 835 321.5 893 293 Z"/><path d="M 1457 557 Q 1480 570 1487 584 Q 1494 598 1489 606 Q 1484 614 1453 614 L 1391 615 Q 1363 616 1276 625 L 834 675 Q 754.5 614.5 855 598 L 1166 557 L 1290 535 L 1344 527 L 1457 557 Z"/><path d="M 834 675 Q 826 715 816.5 766 Q 807 817 801 838 L 779 915 L 760 984 Q 750 1012 735 1050.5 Q 720 1089 688.5 1154 Q 657 1219 615 1285 Q 573 1351 525 1405.5 Q 477 1460 424.5 1506 Q 372 1552 335 1577 Q 298 1602 262 1621 L 225 1641 Q 203 1653 199.5 1644.5 Q 196 1636 213 1619 L 247 1587 Q 271 1564 313.5 1519 Q 356 1474 406.5 1413 Q 457 1352 499.5 1286 Q 542 1220 579 1142.5 Q 616 1065 646 982.5 Q 676 900 698.5 810 Q 721 720 731.5 642 Q 742 564 747 503.5 Q 752 443 750 413 Q 747 376 730 336.5 Q 713 297 711.5 290.5 Q 710 284 713.5 277 Q 717 270 739 268 Q 757 267 796.5 271.5 Q 836 276 849 280 L 893 293 L 893 354 L 855 598 L 834 675 Z"/><path d="M 779 915 L 1365 853 Q 1467 843 1534 835 Q 1601 827 1633 817 Q 1665 807 1674 806 Q 1686 806 1704 812.5 Q 1722 819 1767.5 850.5 Q 1813 882 1832 901 Q 1851 920 1850 938 Q 1849 946 1839 965.5 Q 1829 985 1820 1006 Q 1811 1027 1802 1069 Q 1793 1111 1789 1164 L 1762 1493 Q 1755 1566 1741 1620.5 Q 1727 1675 1696 1723.5 Q 1665 1772 1632.5 1803 Q 1600 1834 1565.5 1848.5 Q 1531 1863 1518 1857 Q 1507 1853 1496 1829 Q 1485 1805 1450 1749 L 1409 1682 L 1373 1628 Q 1367 1620 1372 1613 Q 1377 1606 1390 1611 L 1447 1635 L 1502 1653 Q 1535 1664 1547 1661 Q 1563 1657 1580.5 1631 Q 1598 1605 1613 1558.5 Q 1628 1512 1640 1450.5 Q 1652 1389 1658 1321 L 1674 1110 Q 1677 1061 1676.5 1026 Q 1676 991 1672 962 Q 1668 933 1657.5 924 Q 1647 915 1615 913.5 Q 1583 912 1543 913 Q 1466 916 1381 924 Q 1296 932 1170.5 947.5 Q 1045 963 982.5 970.5 Q 920 978 870 985.5 Q 820 993 812 991 L 760 984 L 779 915 Z"/><path d="M 944 1534 L 940 1560 Q 936 1583 923.5 1587 Q 911 1591 897 1577 Q 886 1567 880.5 1547 Q 875 1527 873 1511 L 848 1343 Q 841 1300 829 1273 Q 817 1246 802.5 1234 Q 788 1222 787 1218.5 Q 786 1215 787 1207.5 Q 788 1200 793 1196 Q 798 1192 809 1192 Q 817 1193 845 1197 L 878 1203 Q 927 1213 912 1259 L 939 1469 L 944 1534 Z"/><path d="M 878 1203 L 998 1183 Q 1024 1179 1068 1170 Q 1112 1161 1138 1153 L 1201 1133 Q 1229 1125 1246 1125 Q 1262 1126 1279 1134 Q 1296 1142 1328 1161 Q 1360 1180 1367 1190 Q 1374 1200 1374 1207 Q 1373 1214 1362.5 1228 Q 1352 1242 1343.5 1258 Q 1335 1274 1330.5 1285 Q 1326 1296 1309 1352 L 1273 1469 Q 1193 1497 1185 1441 L 1207 1326 Q 1207 1322 1211.5 1291.5 Q 1216 1261 1216 1253 Q 1215 1243 1210.5 1235.5 Q 1206 1228 1195.5 1223 Q 1185 1218 1149 1222.5 Q 1113 1227 1103 1228 L 912 1259 L 878 1203 Z"/><path d="M 1273 1469 Q 1282 1478 1289 1489 Q 1296 1500 1292.5 1505 Q 1289 1510 1266 1511 L 1223 1513 L 1111 1522 L 944 1534 L 939 1469 L 1075 1453 L 1127 1444 Q 1146 1441 1153 1441 L 1185 1441 L 1273 1469 Z"/></g><g transform="translate(42.680,-1.375) rotate(-2.50,7.000,7.000) scale(0.006836)"><path d="M 907 319 L 838 327 Q 788 333 764.5 333.5 Q 741 334 717 329 Q 693 324 672.5 314.5 Q 652 305 642.5 293.5 Q 633 282 636 274 Q 638 268 646.5 265.5 Q 655 263 670 262 L 702 260 Q 743 258 799.5 250.5 Q 856 243 954.5 229 Q 1053 215 1101.5 205 Q 1150 195 1175 187.5 Q 1200 180 1209 179 Q 1220 179 1269 194.5 Q 1318 210 1332 224 Q 1346 238 1343.5 247 Q 1341 256 1326 264 Q 1311 272 1276 277 L 1222 285 Q 1157 295 1152 295 L 998 310 L 907 319 Z"/><path d="M 440 553 Q 435 580 429 604 Q 423 628 404.5 663 Q 386 698 365.5 718.5 Q 345 739 329 737 Q 316 737 305 726.5 Q 294 716 287.5 700.5 Q 281 685 277 666 Q 273 647 278 634 Q 280 627 293.5 608.5 Q 307 590 320 568.5 Q 333 547 345 519 Q 357 491 364 464.5 Q 371 438 375.5 427 Q 380 416 387 414.5 Q 394 413 407 426 Q 416 437 422 452 L 433 481 L 440 553 Z"/><path d="M 1012 445 L 1389 408 Q 1422 405 1458.5 400 Q 1495 395 1529 387.5 Q 1563 380 1579 380 Q 1598 382 1618 392 Q 1638 402 1667.5 426.5 Q 1697 451 1710.5 465 Q 1724 479 1742 503 Q 1760 527 1760 540 Q 1759 554 1749 562.5 Q 1739 571 1711.5 575 Q 1684 579 1663 583 Q 1642 587 1595 599.5 Q 1548 612 1525 620 L 1478 637 Q 1461 644 1457 635 Q 1453 626 1467 609 L 1495 575 L 1525 533 Q 1544 509 1547 497 Q 1550 485 1545 474 Q 1540 463 1504 466 Q 1468 469 1399 474 L 1010 506 L 920 515 L 632 545 Q 594 549 547.5 556 Q 501 563 496 561 L 440 553 L 433 481 Q 489 479 566.5 476.5 Q 644 474 695 470 L 921 453 L 1012 445 Z"/><path d="M 1010 506 L 1006 657 L 1011 762 Q 1009 786 1003.5 803 Q 998 820 991 833.5 Q 984 847 974 858 Q 964 869 953.5 871 Q 943 873 927 847 Q 916 831 909 808 Q 902 785 901.5 772 Q 901 759 907 730 Q 911 707 913.5 686 Q 916 665 917 646 L 920 515 L 921 453 Q 921 433 921 422 L 920 394 Q 918 355 916 347 L 907 319 L 998 310 Q 1012 319 1024 328 Q 1036 337 1036.5 346.5 Q 1037 356 1030.5 371 Q 1024 386 1021.5 395 Q 1019 404 1016 423 L 1012 445 L 1010 506 Z"/><path d="M 565 599 Q 566 596 584.5 590.5 Q 603 585 640 587 Q 693 591 714 594.5 Q 735 598 763.5 615.5 Q 792 633 788.5 663.5 Q 785 694 752 700 Q 737 703 699.5 685.5 Q 662 668 652 662 L 599 633 Q 576 622 569.5 612 Q 563 602 565 599 Z"/><path d="M 732 768 L 774 759 Q 798 754 801 764.5 Q 804 775 791 783 L 767 798 L 741 813 L 708 834 L 664 861 Q 634 882 625.5 886.5 Q 617 891 608 890 Q 595 890 575 873.5 Q 555 857 540.5 840.5 Q 526 824 519 810.5 Q 512 797 514 791 Q 516 785 523 782 Q 526 781 544 783 L 565 784 L 588 786 Q 598 787 627 783 L 674 778 Q 700 775 732 768 Z"/><path d="M 1143 678 L 1102 685 Q 1088 688 1085.5 680.5 Q 1083 673 1096 665 L 1119 651 Q 1131 644 1159.5 620.5 Q 1188 597 1202.5 581.5 Q 1217 566 1226.5 548 Q 1236 530 1242.5 526.5 Q 1249 523 1270 534 Q 1290 546 1308.5 560.5 Q 1327 575 1341 591.5 Q 1355 608 1354 616 Q 1352 625 1344.5 630.5 Q 1337 636 1318 637.5 Q 1299 639 1264 647.5 Q 1229 656 1193.5 666 Q 1158 676 1143 678 Z"/><path d="M 1111 747 Q 1112 744 1133.5 738.5 Q 1155 733 1196 734 Q 1249 737 1275 741.5 Q 1301 746 1318.5 755 Q 1336 764 1349 778 Q 1362 792 1362 807 Q 1361 823 1349.5 833.5 Q 1338 844 1322 845 Q 1304 847 1268.5 834 Q 1233 821 1213 811 L 1149 781 Q 1126 772 1117.5 762 Q 1109 752 1111 747 Z"/><path d="M 512 1192 Q 507 1203 501.5 1210.5 Q 496 1218 488 1219 Q 480 1220 470 1209 Q 460 1200 455 1187.5 Q 450 1175 443.5 1137.5 Q 437 1100 428 1067.5 Q 419 1035 409.5 1022.5 Q 400 1010 388 1002.5 Q 376 995 373 990 Q 370 985 372 980 Q 374 975 387 973 Q 395 973 424 979 L 467 990 L 495 1027 L 512 1146 L 512 1192 Z"/><path d="M 467 990 L 552 974 Q 566 972 587.5 964.5 Q 609 957 615.5 953.5 Q 622 950 633.5 941.5 Q 645 933 651 932 Q 655 932 667 936 L 696 945 Q 720 953 737.5 966 Q 755 979 755 987 Q 754 991 751 996.5 Q 748 1002 737 1018 Q 726 1034 720 1047 Q 714 1060 709 1076 L 688 1142 L 627 1126 L 640 1047 Q 644 1023 641 1013 Q 638 1003 633 999.5 Q 628 996 609 999.5 Q 590 1003 568 1008 L 495 1027 L 467 990 Z"/><path d="M 688 1142 Q 697 1150 701.5 1154.5 Q 706 1159 708 1163.5 Q 710 1168 708 1173 Q 704 1181 684 1181 L 640 1181 Q 636 1182 567 1187 L 512 1192 L 512 1146 Q 549 1140 569.5 1136.5 Q 590 1133 615 1128 L 627 1126 L 688 1142 Z"/><path d="M 892 1154 Q 888 1164 884 1170.5 Q 880 1177 874 1178 Q 868 1179 860 1170 Q 851 1163 844 1147 Q 837 1131 836 1118 L 822 1027 Q 819 1014 812.5 997.5 Q 806 981 801 976 L 786 966 Q 778 958 780.5 951.5 Q 783 945 798 944 Q 808 944 837 951 L 862 958 L 879 997 L 892 1108 L 892 1154 Z"/><path d="M 862 958 L 923 947 Q 947 943 973.5 934 Q 1000 925 1007 921.5 Q 1014 918 1023 911 Q 1032 904 1037 902 Q 1043 901 1058.5 905 Q 1074 909 1093 916 Q 1112 923 1128.5 935 Q 1145 947 1145 955 Q 1144 959 1140.5 965 Q 1137 971 1125.5 987.5 Q 1114 1004 1109 1017 L 1100 1044 L 1079 1102 L 1017 1085 L 1030 1015 Q 1034 992 1031 981.5 Q 1028 971 1023 967.5 Q 1018 964 1000 967 Q 982 970 959 976 L 879 997 L 862 958 Z"/><path d="M 1079 1102 Q 1087 1111 1091.5 1115.5 Q 1096 1120 1098 1124.5 Q 1100 1129 1098 1134 Q 1094 1142 1075 1142 L 1030 1142 Q 1029 1143 958 1148 L 892 1154 L 892 1108 Q 928 1100 957.5 1094 Q 987 1088 1005 1086 L 1017 1085 L 1079 1102 Z"/><path d="M 1287 1125 Q 1282 1139 1275.5 1148.5 Q 1269 1158 1260.5 1158.5 Q 1252 1159 1241 1145 Q 1230 1131 1218 1073 L 1195 968 Q 1193 962 1180.5 943.5 Q 1168 925 1157 918.5 Q 1146 912 1145.5 908.5 Q 1145 905 1152 899 Q 1159 893 1179 895 Q 1202 899 1212 902 L 1242 912 L 1272 953 L 1285 1066 L 1287 1125 Z"/><path d="M 1242 912 Q 1258 910 1270 908 Q 1282 906 1325 894 Q 1368 882 1387.5 874.5 Q 1407 867 1427.5 853 Q 1448 839 1455 838 Q 1462 838 1490 848 Q 1518 858 1526.5 863 Q 1535 868 1557 883.5 Q 1579 899 1579.5 906 Q 1580 913 1576 919 Q 1574 921 1565 930 Q 1556 939 1541 965 Q 1526 991 1518 1014 L 1500 1061 L 1426 1038 L 1438 972 Q 1440 958 1440.5 944 Q 1441 930 1434.5 923.5 Q 1428 917 1411 919 Q 1404 920 1384.5 925 Q 1365 930 1359 931 L 1298 948 L 1272 953 L 1242 912 Z"/><path d="M 1500 1061 Q 1510 1071 1517 1079.5 Q 1524 1088 1522.5 1093 Q 1521 1098 1513 1101 L 1479 1104 L 1287 1125 L 1285 1066 Q 1337 1057 1346 1055 L 1426 1038 L 1500 1061 Z"/><path d="M 888 1331 Q 854 1334 825.5 1336 Q 797 1338 786 1339 L 716 1346 Q 683 1349 660 1347 Q 619 1345 585.5 1334 Q 552 1323 540.5 1309 Q 529 1295 532.5 1289 Q 536 1283 557 1281 L 598 1277 Q 611 1276 656 1273.5 Q 701 1271 760 1266 Q 819 1261 905 1252 Q 991 1243 1078.5 1232.5 Q 1166 1222 1203 1214 L 1255 1203 L 1302 1190 Q 1313 1190 1340 1197 Q 1367 1204 1377.5 1208 Q 1388 1212 1407.5 1224 Q 1427 1236 1427.5 1243.5 Q 1428 1251 1416 1263 Q 1404 1275 1356 1281 L 1305 1288 L 1218 1300 Q 1165 1307 1101.5 1313 Q 1038 1319 1019 1320 L 978 1323 L 888 1331 Z"/><path d="M 978 1323 Q 997 1336 1012 1350 Q 1027 1364 1027 1380 Q 1026 1388 1012.5 1413.5 Q 999 1439 999 1465 L 990 1722 L 902 1728 L 903 1424 Q 903 1380 902 1377 L 888 1331 L 978 1323 Z"/><path d="M 651 1547 Q 628 1572 614.5 1585 Q 601 1598 567.5 1622.5 Q 534 1647 507 1665 Q 480 1683 462 1690 L 426 1705 Q 412 1711 407 1706 Q 402 1701 403.5 1694.5 Q 405 1688 415 1679 L 443 1656 Q 457 1645 490.5 1612.5 Q 524 1580 544.5 1554 Q 565 1528 580 1499 Q 595 1470 603 1445.5 Q 611 1421 611.5 1402.5 Q 612 1384 616 1378.5 Q 620 1373 640 1374 Q 655 1375 681.5 1384.5 Q 708 1394 717 1399.5 Q 726 1405 739.5 1420 Q 753 1435 751 1444 Q 749 1450 733 1462 Q 717 1474 709 1483 L 678 1518 L 651 1547 Z"/><path d="M 678 1518 Q 692 1523 706.5 1528 Q 721 1533 751.5 1545.5 Q 782 1558 798 1578.5 Q 814 1599 815 1636.5 Q 816 1674 792.5 1676.5 Q 769 1679 746 1660 Q 714 1635 688 1597 L 673 1575 L 651 1547 L 678 1518 Z"/><path d="M 1246 1512 Q 1234 1527 1208 1558 Q 1182 1589 1143.5 1615.5 Q 1105 1642 1085 1649 L 1049 1663 Q 1035 1669 1026.5 1660.5 Q 1018 1652 1034 1640 L 1066 1616 Q 1079 1606 1118 1552.5 Q 1157 1499 1172.5 1472 Q 1188 1445 1198.5 1411.5 Q 1209 1378 1209.5 1360 Q 1210 1342 1214 1337 Q 1218 1332 1238 1333 Q 1258 1335 1282.5 1344.5 Q 1307 1354 1326.5 1369 Q 1346 1384 1346 1397 Q 1345 1407 1332 1420 L 1296 1450 L 1268 1484 L 1246 1512 Z"/><path d="M 1268 1484 Q 1297 1494 1321.5 1502 Q 1346 1510 1372.5 1522 Q 1399 1534 1409.5 1545 Q 1420 1556 1427 1573.5 Q 1434 1591 1431 1617 Q 1428 1643 1413 1650.5 Q 1398 1658 1387.5 1655 Q 1377 1652 1346 1619 L 1246 1512 L 1268 1484 Z"/><path d="M 990 1722 Q 1023 1720 1105 1715.5 Q 1187 1711 1218 1708 L 1399 1691 Q 1503 1682 1519 1680 L 1571 1674 Q 1594 1672 1620.5 1674 Q 1647 1676 1670.5 1684 Q 1694 1692 1724.5 1709 Q 1755 1726 1774 1742 Q 1793 1758 1790.5 1769.5 Q 1788 1781 1768 1790.5 Q 1748 1800 1719 1799 L 1619 1796 L 1466 1791 Q 1354 1789 1266 1791 L 1086 1799 L 987 1801 Q 894 1804 803 1812.5 Q 712 1821 662.5 1826.5 Q 613 1832 556.5 1842 Q 500 1852 467 1861.5 Q 434 1871 424 1871 Q 412 1872 383.5 1864 Q 355 1856 338 1847 L 299 1827 Q 264 1811 258 1797 Q 252 1783 256.5 1774 Q 261 1765 288 1764 L 322 1763 L 433 1760 Q 471 1759 570.5 1751.5 Q 670 1744 760.5 1738 Q 851 1732 862 1731 L 902 1728 L 990 1722 Z"/></g><g transform="translate(63.320,-1.375) rotate(2.50,7.000,7.000) scale(0.006836)"><path d="M 957 287 Q 935 266 924.5 252.5 Q 914 239 899 211 L 861 144 Q 845 118 845.5 102.5 Q 846 87 851 82.5 Q 856 78 873 79 Q 916 84 956.5 104.5 Q 997 125 1019 150.5 Q 1041 176 1044 204 Q 1046 227 1039 245 L 1027 280 Q 992 313.5 957 287 Z"/><path d="M 460 379 Q 446 426 436.5 450.5 Q 427 475 405 516.5 Q 383 558 365 571 Q 347 584 330.5 584.5 Q 314 585 300 573 Q 289 565 283 551 Q 277 537 275.5 516 Q 274 495 280 478 L 302 442 L 340 369 Q 357 337 359 331 L 389 238 Q 397 228 411.5 224.5 Q 426 221 438 262 L 453 314 Q 466.5 364.5 460 379 Z"/><path d="M 1027 280 L 1393 243 Q 1431 240 1498.5 227.5 Q 1566 215 1590 218 Q 1610 222 1631 233.5 Q 1652 245 1685 274 Q 1718 303 1744 329.5 Q 1770 356 1771 372.5 Q 1772 389 1766 398 Q 1758 409 1732 414 L 1639 431 Q 1605 438 1573 447 L 1494 470 Q 1470 477 1467 471.5 Q 1464 466 1475 448 L 1514 383 Q 1537 344 1539.5 331.5 Q 1542 319 1535 310 Q 1530 305 1514.5 302 Q 1499 299 1479 299 L 1392 305 L 1116 324 L 634 378 L 522 394 Q 497 395 490 391 L 460 379 L 453 314 Q 630 310 658 307 L 957 287 L 1027 280 Z"/><path d="M 562 614 L 515 616 Q 493 617 469 614.5 Q 445 612 423 596 Q 401 580 407 574.5 Q 413 569 428 567 L 453 564 Q 544 553 585.5 546 Q 627 539 658 532 Q 689 525 721.5 515 Q 754 505 769 505 Q 779 506 810.5 515 Q 842 524 848.5 538 Q 855 552 853 557 Q 850 564 838.5 568 Q 827 572 796 576 L 666 596 L 562 614 Z"/><path d="M 671 720 Q 701 711 718 705 Q 735 699 744 698 Q 755 698 784.5 708.5 Q 814 719 821 728 Q 828 737 825.5 743 Q 823 749 807 752 L 663 779 L 585 793 L 517 804 Q 510 806 473.5 804 Q 437 802 425 789 Q 413 776 417.5 771 Q 422 766 438 762 L 478 754 L 579 737 L 671 720 Z"/><path d="M 666 596 Q 679 609 683 618.5 Q 687 628 683 644 L 673 673 L 671 720 L 663 779 L 663 910 Q 625 992.5 587 927 L 585 793 L 579 737 Q 579 696 578 690 L 562 614 L 666 596 Z"/><path d="M 663 910 L 812 871 Q 837 865 856 862.5 Q 875 860 879.5 869 Q 884 878 879.5 888 Q 875 898 864 901 L 595 987 Q 552 1001 522.5 1015 Q 493 1029 458 1046 Q 423 1063 411 1063 Q 395 1064 381.5 1055.5 Q 368 1047 339 1023.5 Q 310 1000 307 985.5 Q 304 971 308 965.5 Q 312 960 324 958 Q 335 957 366 962.5 Q 397 968 416.5 966 Q 436 964 476 954 L 587 927 L 663 910 Z"/><path d="M 1044 546 Q 1024 569 1014 579 Q 1004 589 980 609 L 955 630 Q 939 644 932.5 637.5 Q 926 631 935 615 L 960 568 Q 970 550 985.5 510.5 Q 1001 471 1008 445.5 Q 1015 420 1014.5 397.5 Q 1014 375 1019 371 Q 1024 367 1046 371 Q 1070 377 1089.5 384.5 Q 1109 392 1124.5 405 Q 1140 418 1140 425 Q 1139 431 1133 438 L 1116 456 Q 1104 470 1097 481 L 1083 504 L 1044 546 Z"/><path d="M 1137 552 Q 1104 553 1100 552 L 1044 546 L 1083 504 L 1131 498 L 1203 481 L 1241 470 Q 1293 455 1309.5 449 Q 1326 443 1334 442 Q 1344 442 1371.5 450.5 Q 1399 459 1407.5 467.5 Q 1416 476 1416 484 Q 1415 491 1410.5 495 Q 1406 499 1392 502 L 1348 514 L 1227 539 L 1137 552 Z"/><path d="M 1257 639 L 1363 623 Q 1377 621 1424 611.5 Q 1471 602 1487 602 Q 1506 604 1536.5 616 Q 1567 628 1578.5 638.5 Q 1590 649 1590 655 Q 1589 662 1584 666 Q 1579 670 1564 671 L 1521 675 L 1258 691 L 1167 704 L 1019 730 L 956 743 Q 937 745 923 739 L 896 725 Q 874 715 869 706.5 Q 864 698 866 693 Q 868 688 894 685 L 948 679 Q 1046 669 1061 666 L 1164 652 L 1257 639 Z"/><path d="M 1164 652 L 1164 623 Q 1164 611 1151 582 L 1137 552 L 1227 539 Q 1248 548 1259 555 Q 1270 562 1273 569.5 Q 1276 577 1275 585 L 1264 611 L 1257 639 L 1258 691 L 1251 850 Q 1207.5 917.25 1170 860.5 Q 1172 856 1173 847 L 1172 826 L 1167 704 L 1164 652 Z"/><path d="M 1251 850 L 1404 831 Q 1445 845.5 1400 874 L 1175 923 Q 1166 925 1103.5 944 Q 1041 963 1017.5 979 Q 994 995 987.5 997 Q 981 999 975 997 Q 967 996 961.5 992 Q 956 988 939.5 963 Q 923 938 924 920 Q 924 912 927 906 L 949 886 Q 959 876 964 857 Q 970 831 960 805.5 Q 950 780 953.5 773.5 Q 957 767 969 763.5 Q 981 760 1013 775 Q 1044 791 1055 801.5 Q 1066 812 1065 824 Q 1064 831 1057 839 L 1042 856 Q 1034 868 1037 873 Q 1040 878 1047 880 L 1125 867 Q 1168 865 1170 860.5 L 1251 850 Z"/><path d="M 1404 831 Q 1403 797 1393.5 773.5 Q 1384 750 1388 744 Q 1392 738 1401.5 734.5 Q 1411 731 1433 738 Q 1466 749 1484 759 Q 1502 769 1508.5 779 Q 1515 789 1514 798 Q 1513 802 1501.5 817.5 Q 1490 833 1483.5 872.5 Q 1477 912 1467 926 Q 1457 940 1447 946 Q 1437 952 1427 951 Q 1418 951 1407 943.5 Q 1396 936 1398 914 L 1400 874 L 1404 831 Z"/><path d="M 711 1647 Q 706 1676 697.5 1683 Q 689 1690 684 1689 Q 680 1689 672.5 1684.5 Q 665 1680 652.5 1658 Q 640 1636 631.5 1609.5 Q 623 1583 624 1568 Q 624 1558 635.5 1522 Q 647 1486 650 1458 Q 653 1430 655 1384 L 660 1235 Q 661 1183 649 1145 L 628 1090 Q 623 1073 627.5 1065.5 Q 632 1058 644 1055 Q 651 1054 691 1067 L 728 1081 Q 752.5 1094 741 1131 L 739 1246 L 736 1296 L 735 1418 L 732 1466 L 721 1586 L 711 1647 Z"/><path d="M 728 1081 L 999 1044 L 1093 1029 Q 1160 1020 1194.5 1005.5 Q 1229 991 1240 991 Q 1250 992 1274 1001.5 Q 1298 1011 1325.5 1025.5 Q 1353 1040 1371.5 1057.5 Q 1390 1075 1390 1084 Q 1389 1089 1385 1096 L 1368 1123 Q 1363 1133 1359.5 1149.5 Q 1356 1166 1353.5 1186 Q 1351 1206 1351 1233 L 1347 1438 L 1355 1548 Q 1354 1573 1344.5 1610 Q 1335 1647 1321 1669 Q 1307 1691 1296 1690 Q 1287 1690 1272.5 1675 Q 1258 1660 1247 1638 L 1234 1615 Q 1183.5 1543 1231 1557 Q 1244 1509 1244 1501 L 1245 1416 L 1245 1370 L 1245 1234 L 1239 1190 L 1236 1149 Q 1234 1125 1231.5 1114 Q 1229 1103 1218 1093 Q 1207 1083 1172.5 1080.5 Q 1138 1078 1104 1082 L 741 1131 L 728 1081 Z"/><path d="M 1245 1234 L 1227 1242 L 736 1296 L 739 1246 L 1052 1201 Q 1155 1187 1166 1187 L 1239 1190 L 1245 1234 Z"/><path d="M 1245 1416 Q 1230 1422 1219.5 1424.5 Q 1209 1427 1191 1428 L 732 1466 L 735 1418 L 1102 1371 L 1162 1363 Q 1186 1362 1216 1366 L 1245 1370 L 1245 1416 Z"/><path d="M 764 1647 L 711 1647 L 721 1586 L 1023 1555 Q 1071 1551 1121 1543.5 Q 1171 1536 1179 1539 L 1231 1557 L 1234 1615 L 1102 1617 L 839 1642 L 764 1647 Z"/><path d="M 839 1642 Q 904 1662 920.5 1682.5 Q 937 1703 936 1712 Q 935 1719 928 1727 Q 921 1735 889 1747 Q 857 1759 807.5 1796 Q 758 1833 691 1874 Q 624 1915 590.5 1929.5 Q 557 1944 512 1957 L 481 1966 Q 459 1973 456.5 1963.5 Q 454 1954 476 1939 L 510 1916 Q 533 1900 581 1863.5 Q 629 1827 656.5 1802 Q 684 1777 726 1730.5 Q 768 1684 766 1669 L 764 1647 L 839 1642 Z"/><path d="M 1292 1903 L 1186 1786 Q 1175 1774 1141.5 1743 Q 1108 1712 1095.5 1702 Q 1083 1692 1081.5 1685.5 Q 1080 1679 1083.5 1675.5 Q 1087 1672 1099 1672 Q 1125 1674 1180.5 1692.5 Q 1236 1711 1299 1741.5 Q 1362 1772 1389 1798.5 Q 1416 1825 1424.5 1847.5 Q 1433 1870 1434.5 1899.5 Q 1436 1929 1427 1945 Q 1420 1955 1409 1962.5 Q 1398 1970 1383.5 1970.5 Q 1369 1971 1341 1949 Q 1313 1927 1292 1903 Z"/></g><g transform="translate(83.960,-1.375) rotate(7.50,7.000,7.000) scale(0.006836)"><path d="M 962 1353 L 973 664 L 962 451 Q 960 415 953 370 Q 946 325 932.5 292.5 Q 919 260 919.5 245.5 Q 920 231 928 223.5 Q 936 216 963 220 Q 989 225 1020 235.5 Q 1051 246 1090 264 Q 1129 282 1150 302 Q 1171 322 1172.5 335.5 Q 1174 349 1168 362 L 1144 401 Q 1136 415 1122.5 465.5 Q 1109 516 1100 564.5 Q 1091 613 1089 701 L 1076 1100 L 1087 1502 L 1091 1610 Q 1090 1662 1079.5 1694.5 Q 1069 1727 1043.5 1768.5 Q 1018 1810 999.5 1820.5 Q 981 1831 973 1830 Q 961 1830 949 1816.5 Q 937 1803 906.5 1759.5 Q 876 1716 834.5 1673.5 Q 793 1631 764 1606 L 727 1575 Q 711 1563 716.5 1554 Q 722 1545 742 1550 L 803 1568 Q 859 1584 882 1587 Q 905 1590 918 1582.5 Q 931 1575 938 1560.5 Q 945 1546 952 1470 L 962 1353 Z"/><path d="M 246 1314 Q 278 1267 319 1207.5 Q 360 1148 389 1092 Q 418 1036 439 978.5 Q 460 921 466.5 894.5 Q 473 868 471.5 840 Q 470 812 476.5 806 Q 483 800 506 806 Q 522 811 556 832.5 Q 590 854 616.5 882.5 Q 643 911 632 933 Q 628 940 611.5 955 Q 595 970 588 977.5 Q 581 985 517 1082 Q 453 1179 394.5 1238 Q 336 1297 266 1343 L 239 1361 Q 219 1375 213.5 1366.5 Q 208 1358 223 1340 L 246 1314 Z"/><path d="M 1414 862 L 1389 830 Q 1380 819 1384 810 Q 1388 801 1399 804 L 1442 817 Q 1473 827 1523.5 852 Q 1574 877 1639 920 Q 1704 963 1751.5 1023 Q 1799 1083 1817.5 1138.5 Q 1836 1194 1835 1237 Q 1833 1275 1817.5 1296.5 Q 1802 1318 1781 1321.5 Q 1760 1325 1736 1307 Q 1720 1296 1695 1261 Q 1670 1226 1609.5 1134 Q 1549 1042 1514.5 992 Q 1480 942 1454 910 L 1414 862 Z"/></g><g transform="translate(104.600,-1.375) rotate(12.50,7.000,7.000) scale(0.006836)"><path d="M 545 894 L 338 940 L 293 958 Q 274 963 254 955.5 Q 234 948 219 907 Q 204 866 207 855 Q 209 845 223 831 L 280 788 Q 294 776 325.5 738.5 Q 357 701 380 670.5 Q 403 640 438.5 578 Q 474 516 493 476 Q 512 436 523 401 Q 534 366 541 340.5 Q 548 315 549 294 Q 550 273 556.5 265.5 Q 563 258 586 262 Q 608 267 633 291.5 Q 658 316 672 334 Q 686 352 690 368 Q 694 384 685 399 Q 681 405 664.5 419 Q 648 433 638 446 L 408 751 L 374 796 Q 365 810 363.5 821 Q 362 832 366 838 Q 371 847 411 844 Q 451 841 482 841 L 587 843 Q 636 868.5 545 894 Z"/><path d="M 696 1179 L 412 1300 L 337 1354 Q 327 1357 319 1356 Q 309 1356 294.5 1347.5 Q 280 1339 258 1306 Q 236 1273 234 1262 Q 232 1251 238 1240 Q 240 1235 243.5 1232 Q 247 1229 267.5 1220 Q 288 1211 327 1167 L 382 1107 L 481 979 L 516 935 L 545 894 L 587 843 L 658 725 Q 665 712 677 681.5 Q 689 651 691 633 Q 693 615 698 608 Q 703 601 717 599 Q 725 599 744.5 608 Q 764 617 787 649 Q 810 681 816 704.5 Q 822 728 819 744 Q 817 754 813 759 Q 809 764 791 776 Q 773 788 753 811 L 700 872 L 619 960 L 486 1115 L 462 1142 Q 436 1171 430.5 1178.5 Q 425 1186 419.5 1192 Q 414 1198 413.5 1203 Q 413 1208 416 1212.5 Q 419 1217 427.5 1216 Q 436 1215 449 1210 L 672 1131 Q 714 1140 696 1179 Z"/><path d="M 672 1131 L 630 1068 Q 620 1055 624.5 1048 Q 629 1041 642 1043 L 680 1051 Q 689 1054 717.5 1065.5 Q 746 1077 767 1090 Q 788 1103 799.5 1125.5 Q 811 1148 812.5 1176 Q 814 1204 800.5 1227.5 Q 787 1251 761 1248 Q 738 1247 727 1226 L 696 1179 L 672 1131 Z"/><path d="M 152 1577 L 138 1543 Q 131 1525 137 1519 Q 143 1513 168 1519 L 207 1529 Q 227 1535 266 1557.5 Q 305 1580 327 1611 Q 349 1642 351 1690 Q 353 1738 341 1757 Q 333 1769 316.5 1779.5 Q 300 1790 288 1787 Q 280 1786 270 1778 Q 260 1770 251.5 1756.5 Q 243 1743 202.5 1672.5 Q 162 1602 152 1577 Z"/><path d="M 399 1404 L 441 1415 Q 456 1420 499 1438.5 Q 542 1457 556.5 1475.5 Q 571 1494 576.5 1511 Q 582 1528 582.5 1549.5 Q 583 1571 573.5 1594 Q 564 1617 539.5 1622 Q 515 1627 478 1579 L 419 1489 Q 400 1463 397 1455 L 381 1423 Q 377 1417 382 1409.5 Q 387 1402 399 1404 Z"/><path d="M 622 1307 L 666 1315 Q 731 1327 757.5 1352.5 Q 784 1378 787.5 1409.5 Q 791 1441 780 1461 Q 769 1481 752.5 1485.5 Q 736 1490 714 1474 Q 698 1464 664 1418 Q 630 1372 627 1367 L 597 1324 Q 590 1315 595 1309.5 Q 600 1304 622 1307 Z"/><path d="M 979 1598 L 950 929 Q 941 742 940 732 L 933 700 Q 929 682 925 675 L 911 656 Q 906 645 912.5 634.5 Q 919 624 947 623 Q 998 622 1028 634 L 1067 649 Q 1096 661 1089 707 L 1081 794 L 1081 855 L 1078 966 L 1081 1011 L 1084 1244 L 1084 1295 L 1088 1581 Q 1033.5 1652.5 979 1598 Z"/><path d="M 1067 649 Q 1125 639 1158.5 632.5 Q 1192 626 1262.5 611 Q 1333 596 1379.5 576.5 Q 1426 557 1442 556 Q 1462 556 1498.5 570 Q 1535 584 1574.5 610 Q 1614 636 1623.5 649 Q 1633 662 1633.5 670 Q 1634 678 1623 698 Q 1616 710 1606 735.5 Q 1596 761 1590 780 Q 1584 799 1581 844 L 1525 1550 Q 1463.5 1625.5 1402 1561 L 1417 1256 L 1420 1222 L 1425 969 L 1425 942 L 1431 751 Q 1432 705 1421 690.5 Q 1410 676 1398 672.5 Q 1386 669 1345 674 L 1089 707 L 1067 649 Z"/><path d="M 1425 969 Q 1276 994 1217 1009 Q 1158 1024 1139 1022 L 1109 1016 L 1081 1011 L 1078 966 L 1271 917 Q 1295 911 1324.5 911.5 Q 1354 912 1366 917 L 1425 942 L 1425 969 Z"/><path d="M 1084 1244 Q 1120 1237 1150 1231 Q 1180 1225 1197 1221 L 1281 1200 Q 1310 1194 1332 1195 Q 1354 1196 1383 1207 L 1420 1222 L 1417 1256 Q 1393 1259 1386 1260.5 Q 1379 1262 1325.5 1274.5 Q 1272 1287 1212.5 1296.5 Q 1153 1306 1142 1303 L 1084 1295 L 1084 1244 Z"/><path d="M 1525 1550 Q 1581 1545 1621 1540.5 Q 1661 1536 1687.5 1533.5 Q 1714 1531 1734 1531 Q 1777 1534 1820.5 1551.5 Q 1864 1569 1890 1596 Q 1916 1623 1909 1636 Q 1905 1641 1889 1648 Q 1873 1655 1797.5 1650 Q 1722 1645 1553 1644 Q 1437 1644 1324.5 1647 Q 1212 1650 1122.5 1660 Q 1033 1670 940.5 1684.5 Q 848 1699 830 1701 Q 812 1703 794 1702 Q 771 1702 747 1696 Q 723 1690 680 1667.5 Q 637 1645 641.5 1633 Q 646 1621 655 1615 L 730 1612 L 800 1609 L 892 1603 L 979 1598 L 1088 1581 L 1402 1561 L 1525 1550 Z"/></g></g></g><g id="patch-write" stroke="#c33" stroke-width="0.3" fill="none" stroke-linecap="round" stroke-linejoin="round"><g transform="translate(0.000,0.000)"><g transform="translate(1.400,-1.375) rotate(-12.50,7.000,7.000) scale(0.006836)"><polyline points="550.00,183.00 552.76,192.07 555.52,201.14 558.28,210.21 561.03,219.28 563.79,228.34 566.55,237.41 569.31,246.48 572.07,255.55 574.83,264.62 577.59,273.69 580.34,282.76 583.10,291.83 585.86,300.90 588.62,309.97 591.38,319.03 594.14,328.10 596.90,337.17 599.66,346.24 602.41,355.31 605.17,364.38 607.93,373.45 610.69,382.52 613.45,391.59 616.21,400.66 618.97,409.72 621.72,418.79 624.48,427.86 627.24,436.93 630.00,446.00"/><polyline points="360.00,420.00 366.76,417.59 373.52,415.17 380.28,412.76 387.03,410.34 393.79,407.93 400.55,405.52 407.31,403.10 414.07,400.69 420.83,398.28 427.59,395.86 434.34,393.45 441.10,391.03 447.86,388.62 454.62,386.21 461.38,383.79 468.14,381.38 474.90,378.97 481.66,376.55 488.41,374.14 495.17,371.72 501.93,369.31 508.69,366.90 515.45,364.48 522.21,362.07 528.97,359.66 535.72,357.24 542.48,354.83 549.24,352.41 556.00,350.00"/><polyline points="850.00,333.00 857.69,332.07 865.38,331.14 873.07,330.21 880.76,329.28 888.45,328.34 896.14,327.41 903.83,326.48 911.52,325.55 919.21,324.62 926.90,323.69 934.59,322.76 942.28,321.83 949.97,320.90 957.66,319.97 965.34,319.03 973.03,318.10 980.72,317.17 988.41,316.24 996.10,315.31 1003.79,314.38 1011.48,313.45 1019.17,312.52 1026.86,311.59 1034.55,310.66 1042.24,309.72 1049.93,308.79 1057.62,307.86 1065.31,306.93 1073.00,306.00"/><polyline points="856.00,130.00 852.10,141.93 848.21,153.86 844.31,165.79 840.41,177.72 836.52,189.66 832.62,201.59 828.72,213.52 824.83,225.45 820.93,237.38 817.03,249.31 813.14,261.24 809.24,273.17 805.34,285.10 801.45,297.03 797.55,308.97 793.66,320.90 789.76,332.83 785.86,344.76 781.97,356.69 778.07,368.62 774.17,380.55 770.28,392.48 766.38,404.41 762.48,416.34 758.59,428.28 754.69,440.21 750.79,452.14 746.90,464.07 743.00,476.00"/><polyline points="570.00,500.00 563.45,507.24 556.90,514.48 550.34,521.72 543.79,528.97 537.24,536.21 530.69,543.45 524.14,550.69 517.59,557.93 511.03,565.17 504.48,572.41 497.93,579.66 491.38,586.90 484.83,594.14 478.28,601.38 471.72,608.62 465.17,615.86 458.62,623.10 452.07,630.34 445.52,637.59 438.97,644.83 432.41,652.07 425.86,659.31 419.31,666.55 412.76,673.79 406.21,681.03 399.66,688.28 393.10,695.52 386.55,702.76 380.00,710.00"/><polyline points="553.00,603.00 591.26,593.29 630.04,582.52 668.81,571.75 707.07,562.04 744.31,554.44 780.00,550.00 824.37,549.58 870.66,553.25 913.78,559.43 948.59,566.54 970.00,573.00 953.38,574.88 910.00,606.00 904.45,636.68 901.04,677.67 898.62,724.88 896.07,774.22 892.25,821.62 886.00,863.00 874.14,909.10 858.91,955.51 842.61,997.57 827.54,1030.62 816.00,1050.00 806.00,1025.88 796.00,973.00 764.12,949.38 726.00,930.00"/><polyline points="426.00,740.00 430.82,745.20 435.83,749.79 440.95,754.03 446.10,758.18 451.19,762.50 456.14,767.26 460.88,772.73 465.33,779.17 469.39,786.84 473.00,796.00 474.69,801.50 476.24,807.45 477.67,813.81 478.98,820.54 480.19,827.61 481.31,834.97 482.35,842.59 483.33,850.42 484.25,858.44 485.12,866.59 485.96,874.85 486.79,883.18 487.61,891.52 488.43,899.86 489.26,908.14 490.13,916.34 491.03,924.41 491.98,932.31 493.00,940.00"/><polyline points="496.00,756.00 510.60,751.74 525.50,747.09 540.59,742.20 555.71,737.26 570.75,732.44 585.57,727.90 600.03,723.81 614.02,720.35 627.38,717.69 640.00,716.00 657.94,715.35 676.27,716.41 694.02,718.77 710.23,722.02 723.94,725.75 734.18,729.55 740.00,733.00 736.60,737.03 720.69,740.50 700.93,746.97 686.00,760.00 681.64,770.01 678.07,782.20 675.10,796.08 672.56,811.12 670.26,826.85 668.02,842.73 665.66,858.29 663.00,873.00"/><polyline points="530.00,910.00 535.62,909.76 541.24,909.52 546.86,909.28 552.48,909.03 558.10,908.79 563.72,908.55 569.34,908.31 574.97,908.07 580.59,907.83 586.21,907.59 591.83,907.34 597.45,907.10 603.07,906.86 608.69,906.62 614.31,906.38 619.93,906.14 625.55,905.90 631.17,905.66 636.79,905.41 642.41,905.17 648.03,904.93 653.66,904.69 659.28,904.45 664.90,904.21 670.52,903.97 676.14,903.72 681.76,903.48 687.38,903.24 693.00,903.00"/><polyline points="1280.00,166.00 1273.65,180.24 1267.25,194.80 1260.81,209.63 1254.33,224.66 1247.83,239.84 1241.32,255.09 1234.80,270.37 1228.29,285.61 1221.80,300.74 1215.33,315.71 1208.90,330.46 1202.52,344.92 1196.19,359.03 1189.94,372.74 1183.75,385.97 1177.66,398.68 1171.66,410.79 1165.77,422.25 1160.00,433.00 1149.37,451.37 1139.13,467.36 1129.21,481.39 1119.54,493.88 1110.06,505.25 1100.70,515.92 1091.38,526.31 1082.03,536.84 1072.60,547.93 1063.00,560.00"/><polyline points="1223.00,433.00 1238.36,429.14 1254.11,425.13 1270.20,420.99 1286.56,416.75 1303.13,412.42 1319.85,408.04 1336.65,403.62 1353.47,399.20 1370.25,394.79 1386.93,390.43 1403.44,386.12 1419.72,381.91 1435.70,377.81 1451.33,373.85 1466.54,370.05 1481.27,366.43 1495.45,363.03 1509.03,359.86 1521.93,356.94 1534.10,354.31 1545.48,351.99 1556.00,350.00 1583.42,345.92 1603.68,344.59 1618.75,345.27 1630.56,347.20 1641.07,349.64 1652.24,351.82 1666.00,353.00"/><polyline points="1443.00,430.00 1437.05,452.43 1431.76,475.40 1426.88,498.71 1422.17,522.15 1417.38,545.53 1412.26,568.63 1406.55,591.26 1400.02,613.22 1392.42,634.30 1383.50,654.29 1373.00,673.00 1359.44,692.38 1343.99,710.90 1326.99,728.54 1308.78,745.29 1289.69,761.12 1270.06,776.03 1250.24,789.99 1230.57,802.98 1211.37,814.99 1193.00,826.00 1170.73,837.72 1148.54,847.00 1126.41,854.41 1104.31,860.50 1082.24,865.84 1060.18,871.00 1038.10,876.53 1016.00,883.00"/><polyline points="1150.00,633.00 1168.91,641.94 1188.12,650.87 1207.54,659.80 1227.11,668.73 1246.77,677.65 1266.46,686.58 1286.09,695.51 1305.62,704.44 1324.98,713.37 1344.09,722.30 1362.90,731.24 1381.33,740.18 1399.32,749.13 1416.81,758.08 1433.72,767.04 1450.00,776.00 1469.10,787.04 1487.26,798.10 1504.61,809.16 1521.25,820.23 1537.32,831.31 1552.94,842.39 1568.24,853.48 1583.33,864.57 1598.33,875.66 1613.38,886.75 1628.59,897.84 1644.09,908.92 1660.00,920.00"/><polyline points="960.00,906.00 963.55,911.31 967.10,916.62 970.66,921.93 974.21,927.24 977.76,932.55 981.31,937.86 984.86,943.17 988.41,948.48 991.97,953.79 995.52,959.10 999.07,964.41 1002.62,969.72 1006.17,975.03 1009.72,980.34 1013.28,985.66 1016.83,990.97 1020.38,996.28 1023.93,1001.59 1027.48,1006.90 1031.03,1012.21 1034.59,1017.52 1038.14,1022.83 1041.69,1028.14 1045.24,1033.45 1048.79,1038.76 1052.34,1044.07 1055.90,1049.38 1059.45,1054.69 1063.00,1060.00"/><polyline points="230.00,1186.00 284.81,1182.21 338.78,1178.48 392.75,1174.75 447.56,1170.96 504.03,1167.06 563.00,1163.00 616.05,1159.34 671.09,1155.55 727.55,1151.66 784.84,1147.71 842.40,1143.76 899.65,1139.84 956.00,1136.00 1011.60,1132.04 1067.01,1127.86 1122.28,1123.63 1177.46,1119.55 1232.60,1115.80 1287.77,1112.55 1343.00,1110.00 1400.83,1108.06 1462.06,1106.55 1524.13,1105.49 1584.50,1104.88 1640.64,1104.75 1689.99,1105.12 1730.00,1106.00 1796.19,1114.50 1826.00,1126.00"/><polyline points="716.00,1333.00 737.16,1330.90 758.70,1328.72 780.53,1326.47 802.60,1324.18 824.82,1321.86 847.11,1319.52 869.40,1317.18 891.62,1314.85 913.69,1312.56 935.53,1310.32 957.06,1308.14 978.22,1306.04 998.93,1304.03 1019.10,1302.14 1038.67,1300.37 1057.56,1298.75 1075.70,1297.29 1093.00,1296.00 1119.43,1294.29 1143.76,1293.02 1166.33,1292.13 1187.46,1291.54 1207.49,1291.18 1226.74,1290.98 1245.55,1290.88 1264.25,1290.80 1283.17,1290.67 1302.64,1290.43 1323.00,1290.00"/><polyline points="690.00,1480.00 711.05,1478.97 732.54,1477.90 754.40,1476.78 776.54,1475.63 798.90,1474.46 821.38,1473.28 843.92,1472.08 866.43,1470.90 888.84,1469.72 911.06,1468.56 933.03,1467.43 954.65,1466.34 975.85,1465.30 996.56,1464.31 1016.70,1463.38 1036.18,1462.53 1054.93,1461.75 1072.86,1461.07 1089.92,1460.48 1106.00,1460.00 1138.17,1459.32 1166.05,1459.12 1190.48,1459.30 1212.33,1459.76 1232.47,1460.40 1251.74,1461.15 1271.01,1461.89 1291.15,1462.54 1313.00,1463.00"/><polyline points="690.00,1636.00 693.99,1644.66 697.98,1652.32 701.96,1659.48 705.95,1666.64 709.93,1674.30 713.93,1682.96 717.93,1693.13 721.96,1705.31 726.00,1720.00 727.83,1727.55 729.66,1735.66 731.50,1744.29 733.34,1753.39 735.18,1762.92 737.03,1772.83 738.88,1783.08 740.73,1793.62 742.58,1804.40 744.44,1815.38 746.29,1826.51 748.15,1837.74 750.01,1849.04 751.87,1860.36 753.73,1871.64 755.58,1882.85 757.44,1893.93 759.30,1904.85 761.15,1915.56 763.00,1926.00"/><polyline points="766.00,1663.00 795.72,1659.62 826.26,1656.12 857.38,1652.54 888.82,1648.92 920.35,1645.28 951.71,1641.66 982.66,1638.11 1012.95,1634.64 1042.35,1631.31 1070.60,1628.15 1097.45,1625.18 1122.67,1622.46 1146.00,1620.00 1191.32,1614.50 1231.04,1608.70 1265.75,1603.62 1296.07,1600.30 1322.62,1599.75 1346.00,1603.00 1382.89,1624.96 1404.67,1658.04 1410.00,1686.00 1391.56,1700.15 1356.67,1709.19 1326.00,1723.00 1307.85,1746.48 1293.93,1774.74 1280.00,1803.00"/><polyline points="803.00,1860.00 821.19,1859.02 839.81,1857.99 858.79,1856.92 878.05,1855.81 897.53,1854.68 917.16,1853.53 936.85,1852.37 956.55,1851.21 976.17,1850.06 995.65,1848.93 1014.91,1847.83 1033.89,1846.75 1052.51,1845.72 1070.70,1844.74 1088.39,1843.82 1105.51,1842.97 1121.98,1842.19 1137.74,1841.49 1152.71,1840.89 1166.82,1840.39 1180.00,1840.00 1210.08,1839.51 1234.54,1839.67 1254.69,1840.35 1271.81,1841.38 1287.21,1842.61 1302.18,1843.89 1318.01,1845.07 1336.00,1846.00"/></g><g transform="translate(22.040,-1.375) rotate(-7.50,7.000,7.000) scale(0.006836)"><polyline points="896.00,323.00 930.45,314.50 966.39,305.63 1003.41,296.50 1041.10,287.20 1079.07,277.84 1116.90,268.51 1154.19,259.31 1190.53,250.35 1225.52,241.71 1258.76,233.51 1289.83,225.84 1318.33,218.80 1343.85,212.48 1366.00,207.00 1426.37,187.52 1445.52,178.15 1465.00,182.00 1496.22,193.38 1531.62,211.56 1559.22,238.46 1567.00,276.00 1560.23,300.09 1547.04,328.25 1528.91,359.53 1507.31,393.00 1483.74,427.72 1459.68,462.75 1436.60,497.16 1416.00,530.00"/><polyline points="860.00,626.00 879.24,623.93 898.48,621.86 917.72,619.79 936.97,617.72 956.21,615.66 975.45,613.59 994.69,611.52 1013.93,609.45 1033.17,607.38 1052.41,605.31 1071.66,603.24 1090.90,601.17 1110.14,599.10 1129.38,597.03 1148.62,594.97 1167.86,592.90 1187.10,590.83 1206.34,588.76 1225.59,586.69 1244.83,584.62 1264.07,582.55 1283.31,580.48 1302.55,578.41 1321.79,576.34 1341.03,574.28 1360.28,572.21 1379.52,570.14 1398.76,568.07 1418.00,566.00"/><polyline points="816.00,283.00 812.45,334.45 810.07,386.13 808.36,437.94 806.82,489.78 804.94,541.56 802.22,593.18 798.17,644.53 792.29,695.51 784.06,746.04 773.00,796.00 759.35,845.89 743.77,896.08 726.37,946.30 707.26,996.28 686.56,1045.75 664.38,1094.44 640.82,1142.08 615.99,1188.40 590.02,1233.13 563.00,1276.00 530.93,1321.07 496.18,1363.60 459.30,1404.11 420.81,1443.10 381.24,1481.08 341.15,1518.56 301.05,1556.03 261.49,1594.01 223.00,1633.00"/><polyline points="773.00,933.00 859.70,923.45 951.07,913.37 1045.11,902.97 1139.82,892.50 1233.19,882.19 1323.22,872.26 1407.92,862.94 1485.29,854.47 1553.31,847.08 1610.00,841.00 1754.44,762.31 1780.00,826.00 1780.98,880.17 1779.39,953.97 1775.43,1043.31 1769.30,1144.11 1761.19,1252.28 1751.31,1363.75 1739.86,1474.42 1727.04,1580.22 1713.04,1677.06 1698.07,1760.86 1682.32,1827.53 1666.00,1873.00 1607.13,1902.95 1535.06,1832.12 1457.71,1720.98 1383.00,1630.00"/><polyline points="833.00,1196.00 835.76,1208.21 838.52,1220.41 841.28,1232.62 844.03,1244.83 846.79,1257.03 849.55,1269.24 852.31,1281.45 855.07,1293.66 857.83,1305.86 860.59,1318.07 863.34,1330.28 866.10,1342.48 868.86,1354.69 871.62,1366.90 874.38,1379.10 877.14,1391.31 879.90,1403.52 882.66,1415.72 885.41,1427.93 888.17,1440.14 890.93,1452.34 893.69,1464.55 896.45,1476.76 899.21,1488.97 901.97,1501.17 904.72,1513.38 907.48,1525.59 910.24,1537.79 913.00,1550.00"/><polyline points="903.00,1226.00 932.56,1216.82 963.44,1207.38 995.09,1197.77 1026.92,1188.13 1058.38,1178.56 1088.88,1169.19 1117.87,1160.13 1144.76,1151.50 1169.00,1143.42 1190.00,1136.00 1236.48,1111.41 1261.85,1091.15 1287.00,1085.00 1316.82,1089.94 1350.44,1101.38 1376.09,1123.62 1382.00,1161.00 1377.14,1179.59 1368.67,1201.31 1357.16,1225.66 1343.17,1252.15 1327.29,1280.28 1310.07,1309.57 1292.10,1339.51 1273.93,1369.62 1256.15,1399.40 1239.31,1428.36 1224.00,1456.00"/><polyline points="953.00,1496.00 963.93,1495.45 974.86,1494.90 985.79,1494.34 996.72,1493.79 1007.66,1493.24 1018.59,1492.69 1029.52,1492.14 1040.45,1491.59 1051.38,1491.03 1062.31,1490.48 1073.24,1489.93 1084.17,1489.38 1095.10,1488.83 1106.03,1488.28 1116.97,1487.72 1127.90,1487.17 1138.83,1486.62 1149.76,1486.07 1160.69,1485.52 1171.62,1484.97 1182.55,1484.41 1193.48,1483.86 1204.41,1483.31 1215.34,1482.76 1226.28,1482.21 1237.21,1481.66 1248.14,1481.10 1259.07,1480.55 1270.00,1480.00"/></g><g transform="translate(42.680,-1.375) rotate(-2.50,7.000,7.000) scale(0.006836)"><polyline points="683.00,290.00 703.93,288.14 724.86,286.28 745.79,284.41 766.72,282.55 787.66,280.69 808.59,278.83 829.52,276.97 850.45,275.10 871.38,273.24 892.31,271.38 913.24,269.52 934.17,267.66 955.10,265.79 976.03,263.93 996.97,262.07 1017.90,260.21 1038.83,258.34 1059.76,256.48 1080.69,254.62 1101.62,252.76 1122.55,250.90 1143.48,249.03 1164.41,247.17 1185.34,245.31 1206.28,243.45 1227.21,241.59 1248.14,239.72 1269.07,237.86 1290.00,236.00"/><polyline points="396.00,460.00 393.83,468.28 391.66,476.55 389.48,484.83 387.31,493.10 385.14,501.38 382.97,509.66 380.79,517.93 378.62,526.21 376.45,534.48 374.28,542.76 372.10,551.03 369.93,559.31 367.76,567.59 365.59,575.86 363.41,584.14 361.24,592.41 359.07,600.69 356.90,608.97 354.72,617.24 352.55,625.52 350.38,633.79 348.21,642.07 346.03,650.34 343.86,658.62 341.69,666.90 339.52,675.17 337.34,683.45 335.17,691.72 333.00,700.00"/><polyline points="470.00,520.00 518.39,516.36 568.41,512.48 619.81,508.38 672.38,504.10 725.88,499.68 780.08,495.16 834.74,490.56 889.63,485.93 944.52,481.29 999.18,476.70 1053.38,472.17 1106.88,467.75 1159.44,463.47 1210.85,459.37 1260.87,455.49 1309.26,451.85 1355.79,448.50 1400.23,445.47 1442.35,442.79 1481.92,440.51 1518.70,438.65 1552.46,437.26 1582.97,436.36 1610.00,436.00 1725.62,465.94 1680.00,516.00 1646.30,541.89 1588.15,567.44 1530.00,593.00"/><polyline points="966.00,343.00 965.66,359.55 965.31,376.10 964.97,392.66 964.62,409.21 964.28,425.76 963.93,442.31 963.59,458.86 963.24,475.41 962.90,491.97 962.55,508.52 962.21,525.07 961.86,541.62 961.52,558.17 961.17,574.72 960.83,591.28 960.48,607.83 960.14,624.38 959.79,640.93 959.45,657.48 959.10,674.03 958.76,690.59 958.41,707.14 958.07,723.69 957.72,740.24 957.38,756.79 957.03,773.34 956.69,789.90 956.34,806.45 956.00,823.00"/><polyline points="610.00,613.00 614.59,614.48 619.17,615.97 623.76,617.45 628.34,618.93 632.93,620.41 637.52,621.90 642.10,623.38 646.69,624.86 651.28,626.34 655.86,627.83 660.45,629.31 665.03,630.79 669.62,632.28 674.21,633.76 678.79,635.24 683.38,636.72 687.97,638.21 692.55,639.69 697.14,641.17 701.72,642.66 706.31,644.14 710.90,645.62 715.48,647.10 720.07,648.59 724.66,650.07 729.24,651.55 733.83,653.03 738.41,654.52 743.00,656.00"/><polyline points="573.00,836.00 578.76,834.41 584.52,832.83 590.28,831.24 596.03,829.66 601.79,828.07 607.55,826.48 613.31,824.90 619.07,823.31 624.83,821.72 630.59,820.14 636.34,818.55 642.10,816.97 647.86,815.38 653.62,813.79 659.38,812.21 665.14,810.62 670.90,809.03 676.66,807.45 682.41,805.86 688.17,804.28 693.93,802.69 699.69,801.10 705.45,799.52 711.21,797.93 716.97,796.34 722.72,794.76 728.48,793.17 734.24,791.59 740.00,790.00"/><polyline points="1273.00,583.00 1268.28,585.66 1263.55,588.31 1258.83,590.97 1254.10,593.62 1249.38,596.28 1244.66,598.93 1239.93,601.59 1235.21,604.24 1230.48,606.90 1225.76,609.55 1221.03,612.21 1216.31,614.86 1211.59,617.52 1206.86,620.17 1202.14,622.83 1197.41,625.48 1192.69,628.14 1187.97,630.79 1183.24,633.45 1178.52,636.10 1173.79,638.76 1169.07,641.41 1164.34,644.07 1159.62,646.72 1154.90,649.38 1150.17,652.03 1145.45,654.69 1140.72,657.34 1136.00,660.00"/><polyline points="1156.00,760.00 1162.00,761.83 1168.00,763.66 1174.00,765.48 1180.00,767.31 1186.00,769.14 1192.00,770.97 1198.00,772.79 1204.00,774.62 1210.00,776.45 1216.00,778.28 1222.00,780.10 1228.00,781.93 1234.00,783.76 1240.00,785.59 1246.00,787.41 1252.00,789.24 1258.00,791.07 1264.00,792.90 1270.00,794.72 1276.00,796.55 1282.00,798.38 1288.00,800.21 1294.00,802.03 1300.00,803.86 1306.00,805.69 1312.00,807.52 1318.00,809.34 1324.00,811.17 1330.00,813.00"/><polyline points="430.00,1003.00 431.93,1009.45 433.86,1015.90 435.79,1022.34 437.72,1028.79 439.66,1035.24 441.59,1041.69 443.52,1048.14 445.45,1054.59 447.38,1061.03 449.31,1067.48 451.24,1073.93 453.17,1080.38 455.10,1086.83 457.03,1093.28 458.97,1099.72 460.90,1106.17 462.83,1112.62 464.76,1119.07 466.69,1125.52 468.62,1131.97 470.55,1138.41 472.48,1144.86 474.41,1151.31 476.34,1157.76 478.28,1164.21 480.21,1170.66 482.14,1177.10 484.07,1183.55 486.00,1190.00"/><polyline points="506.00,1006.00 516.76,1003.30 527.96,1000.37 539.48,997.28 551.21,994.08 563.01,990.85 574.77,987.63 586.38,984.50 597.70,981.51 608.62,978.72 619.02,976.20 628.78,974.01 637.77,972.20 645.89,970.85 653.00,970.00 671.65,968.88 682.81,970.69 688.32,977.15 690.00,990.00 689.58,996.78 688.14,1004.89 685.85,1014.11 682.86,1024.24 679.35,1035.08 675.46,1046.40 671.35,1058.00 667.19,1069.67 663.14,1081.20 659.36,1092.38 656.00,1103.00"/><polyline points="533.00,1166.00 537.72,1165.79 542.45,1165.59 547.17,1165.38 551.90,1165.17 556.62,1164.97 561.34,1164.76 566.07,1164.55 570.79,1164.34 575.52,1164.14 580.24,1163.93 584.97,1163.72 589.69,1163.52 594.41,1163.31 599.14,1163.10 603.86,1162.90 608.59,1162.69 613.31,1162.48 618.03,1162.28 622.76,1162.07 627.48,1161.86 632.21,1161.66 636.93,1161.45 641.66,1161.24 646.38,1161.03 651.10,1160.83 655.83,1160.62 660.55,1160.41 665.28,1160.21 670.00,1160.00"/><polyline points="830.00,970.00 831.14,975.72 832.28,981.45 833.41,987.17 834.55,992.90 835.69,998.62 836.83,1004.34 837.97,1010.07 839.10,1015.79 840.24,1021.52 841.38,1027.24 842.52,1032.97 843.66,1038.69 844.79,1044.41 845.93,1050.14 847.07,1055.86 848.21,1061.59 849.34,1067.31 850.48,1073.03 851.62,1078.76 852.76,1084.48 853.90,1090.21 855.03,1095.93 856.17,1101.66 857.31,1107.38 858.45,1113.10 859.59,1118.83 860.72,1124.55 861.86,1130.28 863.00,1136.00"/><polyline points="896.00,973.00 907.02,970.57 918.47,967.95 930.21,965.20 942.12,962.36 954.08,959.50 965.95,956.69 977.61,953.97 988.93,951.41 999.78,949.06 1010.04,946.99 1019.58,945.25 1028.28,943.90 1036.00,943.00 1055.93,940.86 1069.69,940.50 1078.35,944.64 1083.00,956.00 1083.54,962.57 1083.08,970.58 1081.78,979.81 1079.79,990.02 1077.28,1000.99 1074.40,1012.49 1071.31,1024.30 1068.17,1036.18 1065.13,1047.91 1062.35,1059.26 1060.00,1070.00"/><polyline points="920.00,1126.00 924.14,1125.79 928.28,1125.59 932.41,1125.38 936.55,1125.17 940.69,1124.97 944.83,1124.76 948.97,1124.55 953.10,1124.34 957.24,1124.14 961.38,1123.93 965.52,1123.72 969.66,1123.52 973.79,1123.31 977.93,1123.10 982.07,1122.90 986.21,1122.69 990.34,1122.48 994.48,1122.28 998.62,1122.07 1002.76,1121.86 1006.90,1121.66 1011.03,1121.45 1015.17,1121.24 1019.31,1121.03 1023.45,1120.83 1027.59,1120.62 1031.72,1120.41 1035.86,1120.21 1040.00,1120.00"/><polyline points="1216.00,930.00 1217.52,936.76 1219.03,943.52 1220.55,950.28 1222.07,957.03 1223.59,963.79 1225.10,970.55 1226.62,977.31 1228.14,984.07 1229.66,990.83 1231.17,997.59 1232.69,1004.34 1234.21,1011.10 1235.72,1017.86 1237.24,1024.62 1238.76,1031.38 1240.28,1038.14 1241.79,1044.90 1243.31,1051.66 1244.83,1058.41 1246.34,1065.17 1247.86,1071.93 1249.38,1078.69 1250.90,1085.45 1252.41,1092.21 1253.93,1098.97 1255.45,1105.72 1256.97,1112.48 1258.48,1119.24 1260.00,1126.00"/><polyline points="1290.00,930.00 1302.12,926.25 1314.69,922.19 1327.59,917.91 1340.69,913.50 1353.88,909.03 1367.02,904.58 1380.00,900.25 1392.69,896.11 1404.98,892.25 1416.73,888.75 1427.84,885.69 1438.16,883.15 1447.59,881.23 1456.00,880.00 1479.51,878.86 1495.69,882.12 1505.52,890.83 1510.00,906.00 1509.99,914.43 1508.42,924.53 1505.59,936.00 1501.75,948.54 1497.19,961.88 1492.17,975.70 1486.97,989.71 1481.86,1003.63 1477.11,1017.16 1473.00,1030.00"/><polyline points="1316.00,1090.00 1321.66,1089.66 1327.31,1089.31 1332.97,1088.97 1338.62,1088.62 1344.28,1088.28 1349.93,1087.93 1355.59,1087.59 1361.24,1087.24 1366.90,1086.90 1372.55,1086.55 1378.21,1086.21 1383.86,1085.86 1389.52,1085.52 1395.17,1085.17 1400.83,1084.83 1406.48,1084.48 1412.14,1084.14 1417.79,1083.79 1423.45,1083.45 1429.10,1083.10 1434.76,1082.76 1440.41,1082.41 1446.07,1082.07 1451.72,1081.72 1457.38,1081.38 1463.03,1081.03 1468.69,1080.69 1474.34,1080.34 1480.00,1080.00"/><polyline points="580.00,1300.00 607.69,1298.28 635.38,1296.55 663.07,1294.83 690.76,1293.10 718.45,1291.38 746.14,1289.66 773.83,1287.93 801.52,1286.21 829.21,1284.48 856.90,1282.76 884.59,1281.03 912.28,1279.31 939.97,1277.59 967.66,1275.86 995.34,1274.14 1023.03,1272.41 1050.72,1270.69 1078.41,1268.97 1106.10,1267.24 1133.79,1265.52 1161.48,1263.79 1189.17,1262.07 1216.86,1260.34 1244.55,1258.62 1272.24,1256.90 1299.93,1255.17 1327.62,1253.45 1355.31,1251.72 1383.00,1250.00"/><polyline points="953.00,1350.00 952.76,1362.17 952.52,1374.34 952.28,1386.52 952.03,1398.69 951.79,1410.86 951.55,1423.03 951.31,1435.21 951.07,1447.38 950.83,1459.55 950.59,1471.72 950.34,1483.90 950.10,1496.07 949.86,1508.24 949.62,1520.41 949.38,1532.59 949.14,1544.76 948.90,1556.93 948.66,1569.10 948.41,1581.28 948.17,1593.45 947.93,1605.62 947.69,1617.79 947.45,1629.97 947.21,1642.14 946.97,1654.31 946.72,1666.48 946.48,1678.66 946.24,1690.83 946.00,1703.00"/><polyline points="670.00,1410.00 664.12,1420.98 658.44,1432.16 652.91,1443.50 647.49,1454.93 642.11,1466.41 636.74,1477.89 631.31,1489.32 625.78,1500.65 620.10,1511.83 614.22,1522.81 608.09,1533.55 601.65,1543.98 594.85,1554.07 587.66,1563.76 580.00,1573.00 571.26,1582.37 561.99,1591.22 552.27,1599.63 542.15,1607.65 531.71,1615.35 520.99,1622.78 510.06,1630.00 498.99,1637.08 487.84,1644.08 476.66,1651.06 465.53,1658.08 454.50,1665.20 443.64,1672.49 433.00,1680.00"/><polyline points="690.00,1546.00 693.21,1549.34 696.41,1552.69 699.62,1556.03 702.83,1559.38 706.03,1562.72 709.24,1566.07 712.45,1569.41 715.66,1572.76 718.86,1576.10 722.07,1579.45 725.28,1582.79 728.48,1586.14 731.69,1589.48 734.90,1592.83 738.10,1596.17 741.31,1599.52 744.52,1602.86 747.72,1606.21 750.93,1609.55 754.14,1612.90 757.34,1616.24 760.55,1619.59 763.76,1622.93 766.97,1626.28 770.17,1629.62 773.38,1632.97 776.59,1636.31 779.79,1639.66 783.00,1643.00"/><polyline points="1266.00,1366.00 1260.40,1376.70 1254.76,1387.70 1249.10,1398.94 1243.40,1410.38 1237.70,1421.95 1231.98,1433.59 1226.26,1445.26 1220.55,1456.88 1214.84,1468.41 1209.16,1479.79 1203.50,1490.96 1197.88,1501.87 1192.29,1512.45 1186.75,1522.66 1181.27,1532.42 1175.84,1541.70 1170.48,1550.42 1165.20,1558.54 1160.00,1566.00 1150.35,1578.26 1140.98,1588.32 1131.82,1596.56 1122.85,1603.36 1114.00,1609.12 1105.23,1614.24 1096.50,1619.10 1087.74,1624.08 1078.93,1629.59 1070.00,1636.00"/><polyline points="1283.00,1513.00 1286.79,1516.55 1290.59,1520.10 1294.38,1523.66 1298.17,1527.21 1301.97,1530.76 1305.76,1534.31 1309.55,1537.86 1313.34,1541.41 1317.14,1544.97 1320.93,1548.52 1324.72,1552.07 1328.52,1555.62 1332.31,1559.17 1336.10,1562.72 1339.90,1566.28 1343.69,1569.83 1347.48,1573.38 1351.28,1576.93 1355.07,1580.48 1358.86,1584.03 1362.66,1587.59 1366.45,1591.14 1370.24,1594.69 1374.03,1598.24 1377.83,1601.79 1381.62,1605.34 1385.41,1608.90 1389.21,1612.45 1393.00,1616.00"/><polyline points="323.00,1793.00 336.93,1799.30 350.85,1805.59 476.00,1803.00 505.81,1801.53 540.47,1799.65 579.54,1797.39 622.57,1794.81 669.12,1791.92 718.75,1788.78 771.01,1785.42 825.44,1781.89 881.62,1778.21 939.09,1774.44 997.41,1770.61 1056.12,1766.75 1114.80,1762.91 1172.99,1759.13 1230.24,1755.44 1286.11,1751.89 1340.16,1748.51 1391.94,1745.34 1441.00,1742.43 1486.90,1739.81 1529.20,1737.51 1567.44,1735.59 1601.19,1734.07 1630.00,1733.00 1747.19,1741.75 1733.00,1763.00"/></g><g transform="translate(63.320,-1.375) rotate(2.50,7.000,7.000) scale(0.006836)"><polyline points="860.00,86.00 864.34,92.21 868.69,98.41 873.03,104.62 877.38,110.83 881.72,117.03 886.07,123.24 890.41,129.45 894.76,135.66 899.10,141.86 903.45,148.07 907.79,154.28 912.14,160.48 916.48,166.69 920.83,172.90 925.17,179.10 929.52,185.31 933.86,191.52 938.21,197.72 942.55,203.93 946.90,210.14 951.24,216.34 955.59,222.55 959.93,228.76 964.28,234.97 968.62,241.17 972.97,247.38 977.31,253.59 981.66,259.79 986.00,266.00"/><polyline points="416.00,236.00 412.45,247.72 408.90,259.45 405.34,271.17 401.79,282.90 398.24,294.62 394.69,306.34 391.14,318.07 387.59,329.79 384.03,341.52 380.48,353.24 376.93,364.97 373.38,376.69 369.83,388.41 366.28,400.14 362.72,411.86 359.17,423.59 355.62,435.31 352.07,447.03 348.52,458.76 344.97,470.48 341.41,482.21 337.86,493.93 334.31,505.66 330.76,517.38 327.21,529.10 323.66,540.83 320.10,552.55 316.55,564.28 313.00,576.00"/><polyline points="466.00,353.00 529.89,343.97 596.11,334.58 663.66,324.99 731.54,315.35 798.75,305.81 864.30,296.53 927.20,287.65 986.45,279.34 1041.05,271.73 1090.00,265.00 1170.27,254.61 1232.58,247.34 1283.94,241.58 1331.41,235.67 1382.00,228.00 1450.20,209.88 1516.81,186.56 1579.27,170.46 1635.00,174.00 1692.19,207.45 1749.25,261.88 1788.94,320.86 1794.00,368.00 1762.97,392.93 1706.06,412.14 1634.38,428.10 1558.99,443.23 1491.00,460.00"/><polyline points="433.00,596.00 446.10,593.93 459.21,591.86 472.31,589.79 485.41,587.72 498.52,585.66 511.62,583.59 524.72,581.52 537.83,579.45 550.93,577.38 564.03,575.31 577.14,573.24 590.24,571.17 603.34,569.10 616.45,567.03 629.55,564.97 642.66,562.90 655.76,560.83 668.86,558.76 681.97,556.69 695.07,554.62 708.17,552.55 721.28,550.48 734.38,548.41 747.48,546.34 760.59,544.28 773.69,542.21 786.79,540.14 799.90,538.07 813.00,536.00"/><polyline points="430.00,780.00 442.17,777.93 454.34,775.86 466.52,773.79 478.69,771.72 490.86,769.66 503.03,767.59 515.21,765.52 527.38,763.45 539.55,761.38 551.72,759.31 563.90,757.24 576.07,755.17 588.24,753.10 600.41,751.03 612.59,748.97 624.76,746.90 636.93,744.83 649.10,742.76 661.28,740.69 673.45,738.62 685.62,736.55 697.79,734.48 709.97,732.41 722.14,730.34 734.31,728.28 746.48,726.21 758.66,724.14 770.83,722.07 783.00,720.00"/><polyline points="620.00,606.00 620.21,616.59 620.41,627.17 620.62,637.76 620.83,648.34 621.03,658.93 621.24,669.52 621.45,680.10 621.66,690.69 621.86,701.28 622.07,711.86 622.28,722.45 622.48,733.03 622.69,743.62 622.90,754.21 623.10,764.79 623.31,775.38 623.52,785.97 623.72,796.55 623.93,807.14 624.14,817.72 624.34,828.31 624.55,838.90 624.76,849.48 624.97,860.07 625.17,870.66 625.38,881.24 625.59,891.83 625.79,902.41 626.00,913.00"/><polyline points="353.00,1016.00 370.76,1011.31 388.52,1006.62 406.28,1001.93 424.03,997.24 441.79,992.55 459.55,987.86 477.31,983.17 495.07,978.48 512.83,973.79 530.59,969.10 548.34,964.41 566.10,959.72 583.86,955.03 601.62,950.34 619.38,945.66 637.14,940.97 654.90,936.28 672.66,931.59 690.41,926.90 708.17,922.21 725.93,917.52 743.69,912.83 761.45,908.14 779.21,903.45 796.97,898.76 814.72,894.07 832.48,889.38 850.24,884.69 868.00,880.00"/><polyline points="1073.00,386.00 1068.28,394.17 1063.55,402.34 1058.83,410.52 1054.10,418.69 1049.38,426.86 1044.66,435.03 1039.93,443.21 1035.21,451.38 1030.48,459.55 1025.76,467.72 1021.03,475.90 1016.31,484.07 1011.59,492.24 1006.86,500.41 1002.14,508.59 997.41,516.76 992.69,524.93 987.97,533.10 983.24,541.28 978.52,549.45 973.79,557.62 969.07,565.79 964.34,573.97 959.62,582.14 954.90,590.31 950.17,598.48 945.45,606.66 940.72,614.83 936.00,623.00"/><polyline points="1070.00,533.00 1081.24,530.93 1092.48,528.86 1103.72,526.79 1114.97,524.72 1126.21,522.66 1137.45,520.59 1148.69,518.52 1159.93,516.45 1171.17,514.38 1182.41,512.31 1193.66,510.24 1204.90,508.17 1216.14,506.10 1227.38,504.03 1238.62,501.97 1249.86,499.90 1261.10,497.83 1272.34,495.76 1283.59,493.69 1294.83,491.62 1306.07,489.55 1317.31,487.48 1328.55,485.41 1339.79,483.34 1351.03,481.28 1362.28,479.21 1373.52,477.14 1384.76,475.07 1396.00,473.00"/><polyline points="906.00,713.00 927.69,710.14 949.38,707.28 971.07,704.41 992.76,701.55 1014.45,698.69 1036.14,695.83 1057.83,692.97 1079.52,690.10 1101.21,687.24 1122.90,684.38 1144.59,681.52 1166.28,678.66 1187.97,675.79 1209.66,672.93 1231.34,670.07 1253.03,667.21 1274.72,664.34 1296.41,661.48 1318.10,658.62 1339.79,655.76 1361.48,652.90 1383.17,650.03 1404.86,647.17 1426.55,644.31 1448.24,641.45 1469.93,638.59 1491.62,635.72 1513.31,632.86 1535.00,630.00"/><polyline points="1196.00,553.00 1196.59,564.14 1197.17,575.28 1197.76,586.41 1198.34,597.55 1198.93,608.69 1199.52,619.83 1200.10,630.97 1200.69,642.10 1201.28,653.24 1201.86,664.38 1202.45,675.52 1203.03,686.66 1203.62,697.79 1204.21,708.93 1204.79,720.07 1205.38,731.21 1205.97,742.34 1206.55,753.48 1207.14,764.62 1207.72,775.76 1208.31,786.90 1208.90,798.03 1209.48,809.17 1210.07,820.31 1210.66,831.45 1211.24,842.59 1211.83,853.72 1212.41,864.86 1213.00,876.00"/><polyline points="996.00,755.00 962.96,776.63 929.93,798.26 898.00,821.00 861.22,844.15 825.56,868.41 810.00,897.00 810.87,929.48 819.44,969.31 846.54,1001.74 903.00,1012.00 921.97,1009.72 943.54,1005.70 967.46,1000.10 993.48,993.11 1021.34,984.87 1050.79,975.57 1081.59,965.37 1113.48,954.44 1146.20,942.94 1179.51,931.06 1213.16,918.95 1246.89,906.78 1280.46,894.72 1313.60,882.95 1346.07,871.63 1377.62,860.92 1408.00,851.00"/><polyline points="1446.00,756.00 1445.55,761.86 1445.10,767.72 1444.66,773.59 1444.21,779.45 1443.76,785.31 1443.31,791.17 1442.86,797.03 1442.41,802.90 1441.97,808.76 1441.52,814.62 1441.07,820.48 1440.62,826.34 1440.17,832.21 1439.72,838.07 1439.28,843.93 1438.83,849.79 1438.38,855.66 1437.93,861.52 1437.48,867.38 1437.03,873.24 1436.59,879.10 1436.14,884.97 1435.69,890.83 1435.24,896.69 1434.79,902.55 1434.34,908.41 1433.90,914.28 1433.45,920.14 1433.00,926.00"/><polyline points="686.00,1073.00 685.83,1093.59 685.66,1114.17 685.48,1134.76 685.31,1155.34 685.14,1175.93 684.97,1196.52 684.79,1217.10 684.62,1237.69 684.45,1258.28 684.28,1278.86 684.10,1299.45 683.93,1320.03 683.76,1340.62 683.59,1361.21 683.41,1381.79 683.24,1402.38 683.07,1422.97 682.90,1443.55 682.72,1464.14 682.55,1484.72 682.38,1505.31 682.21,1525.90 682.03,1546.48 681.86,1567.07 681.69,1587.66 681.52,1608.24 681.34,1628.83 681.17,1649.41 681.00,1670.00"/><polyline points="750.00,1103.00 796.70,1092.79 845.30,1082.30 894.65,1071.68 943.62,1061.12 991.08,1050.80 1035.89,1040.89 1076.91,1031.56 1113.00,1023.00 1185.70,999.00 1236.85,978.33 1282.00,973.00 1331.70,991.33 1375.41,1025.00 1397.00,1061.00 1381.37,1080.93 1343.63,1103.19 1313.00,1170.00 1308.78,1201.30 1305.47,1238.32 1302.93,1280.17 1301.02,1325.93 1299.58,1374.70 1298.48,1425.59 1297.58,1477.67 1296.72,1530.06 1295.77,1581.85 1294.58,1632.13 1293.00,1680.00"/><polyline points="750.00,1263.00 766.59,1261.45 783.17,1259.90 799.76,1258.34 816.34,1256.79 832.93,1255.24 849.52,1253.69 866.10,1252.14 882.69,1250.59 899.28,1249.03 915.86,1247.48 932.45,1245.93 949.03,1244.38 965.62,1242.83 982.21,1241.28 998.79,1239.72 1015.38,1238.17 1031.97,1236.62 1048.55,1235.07 1065.14,1233.52 1081.72,1231.97 1098.31,1230.41 1114.90,1228.86 1131.48,1227.31 1148.07,1225.76 1164.66,1224.21 1181.24,1222.66 1197.83,1221.10 1214.41,1219.55 1231.00,1218.00"/><polyline points="743.00,1443.00 760.17,1440.93 777.34,1438.86 794.52,1436.79 811.69,1434.72 828.86,1432.66 846.03,1430.59 863.21,1428.52 880.38,1426.45 897.55,1424.38 914.72,1422.31 931.90,1420.24 949.07,1418.17 966.24,1416.10 983.41,1414.03 1000.59,1411.97 1017.76,1409.90 1034.93,1407.83 1052.10,1405.76 1069.28,1403.69 1086.45,1401.62 1103.62,1399.55 1120.79,1397.48 1137.97,1395.41 1155.14,1393.34 1172.31,1391.28 1189.48,1389.21 1206.66,1387.14 1223.83,1385.07 1241.00,1383.00"/><polyline points="726.00,1623.00 742.59,1621.66 759.17,1620.31 775.76,1618.97 792.34,1617.62 808.93,1616.28 825.52,1614.93 842.10,1613.59 858.69,1612.24 875.28,1610.90 891.86,1609.55 908.45,1608.21 925.03,1606.86 941.62,1605.52 958.21,1604.17 974.79,1602.83 991.38,1601.48 1007.97,1600.14 1024.55,1598.79 1041.14,1597.45 1057.72,1596.10 1074.31,1594.76 1090.90,1593.41 1107.48,1592.07 1124.07,1590.72 1140.66,1589.38 1157.24,1588.03 1173.83,1586.69 1190.41,1585.34 1207.00,1584.00"/><polyline points="900.00,1680.00 885.45,1689.48 870.90,1698.97 856.34,1708.45 841.79,1717.93 827.24,1727.41 812.69,1736.90 798.14,1746.38 783.59,1755.86 769.03,1765.34 754.48,1774.83 739.93,1784.31 725.38,1793.79 710.83,1803.28 696.28,1812.76 681.72,1822.24 667.17,1831.72 652.62,1841.21 638.07,1850.69 623.52,1860.17 608.97,1869.66 594.41,1879.14 579.86,1888.62 565.31,1898.10 550.76,1907.59 536.21,1917.07 521.66,1926.55 507.10,1936.03 492.55,1945.52 478.00,1955.00"/><polyline points="1100.00,1683.00 1111.24,1691.38 1122.48,1699.76 1133.72,1708.14 1144.97,1716.52 1156.21,1724.90 1167.45,1733.28 1178.69,1741.66 1189.93,1750.03 1201.17,1758.41 1212.41,1766.79 1223.66,1775.17 1234.90,1783.55 1246.14,1791.93 1257.38,1800.31 1268.62,1808.69 1279.86,1817.07 1291.10,1825.45 1302.34,1833.83 1313.59,1842.21 1324.83,1850.59 1336.07,1858.97 1347.31,1867.34 1358.55,1875.72 1369.79,1884.10 1381.03,1892.48 1392.28,1900.86 1403.52,1909.24 1414.76,1917.62 1426.00,1926.00"/></g><g transform="translate(83.960,-1.375) rotate(7.50,7.000,7.000) scale(0.006836)"><polyline points="940.00,236.00 1010.00,206.00 1060.00,340.00 1061.75,378.78 1063.33,425.47 1064.72,479.27 1065.90,539.33 1066.83,604.85 1067.50,674.99 1067.87,748.94 1067.92,825.88 1067.62,904.98 1066.95,985.42 1065.88,1066.38 1064.37,1147.03 1062.42,1226.56 1059.98,1304.14 1057.03,1378.95 1053.56,1450.17 1049.52,1516.97 1044.89,1578.54 1039.66,1634.05 1033.78,1682.67 1027.24,1723.60 1020.00,1756.00 977.46,1820.78 920.69,1795.63 855.79,1719.09 788.86,1629.70 726.00,1566.00"/><polyline points="565.00,865.00 554.14,881.72 543.28,898.45 532.41,915.17 521.55,931.90 510.69,948.62 499.83,965.34 488.97,982.07 478.10,998.79 467.24,1015.52 456.38,1032.24 445.52,1048.97 434.66,1065.69 423.79,1082.41 412.93,1099.14 402.07,1115.86 391.21,1132.59 380.34,1149.31 369.48,1166.03 358.62,1182.76 347.76,1199.48 336.90,1216.21 326.03,1232.93 315.17,1249.66 304.31,1266.38 293.45,1283.10 282.59,1299.83 271.72,1316.55 260.86,1333.28 250.00,1350.00"/><polyline points="1385.00,810.00 1400.45,824.69 1415.90,839.38 1431.34,854.07 1446.79,868.76 1462.24,883.45 1477.69,898.14 1493.14,912.83 1508.59,927.52 1524.03,942.21 1539.48,956.90 1554.93,971.59 1570.38,986.28 1585.83,1000.97 1601.28,1015.66 1616.72,1030.34 1632.17,1045.03 1647.62,1059.72 1663.07,1074.41 1678.52,1089.10 1693.97,1103.79 1709.41,1118.48 1724.86,1133.17 1740.31,1147.86 1755.76,1162.55 1771.21,1177.24 1786.66,1191.93 1802.10,1206.62 1817.55,1221.31 1833.00,1236.00"/></g><g transform="translate(104.600,-1.375) rotate(12.50,7.000,7.000) scale(0.006836)"><polyline points="630.00,303.00 601.99,336.20 572.54,370.68 541.94,406.17 510.52,442.39 478.58,479.06 446.43,515.92 414.38,552.68 382.75,589.09 351.84,624.85 321.97,659.69 293.45,693.35 266.59,725.55 241.69,756.01 219.07,784.46 199.04,810.62 181.92,834.23 168.00,855.00 139.50,946.94 215.00,958.00 241.93,956.14 275.51,950.20 314.41,941.00 357.29,929.36 402.83,916.09 449.70,902.00 496.57,887.91 542.12,874.64 585.00,863.00"/><polyline points="773.00,653.00 735.97,691.45 697.66,731.44 658.51,772.46 618.93,814.00 579.34,855.54 540.19,896.56 501.88,936.55 464.85,975.00 429.52,1011.38 396.32,1045.19 365.67,1075.90 338.00,1103.00 267.04,1162.74 211.06,1199.69 171.05,1226.54 148.00,1256.00 145.31,1343.56 224.00,1383.00 254.51,1374.34 291.56,1359.58 334.00,1339.79 380.68,1316.05 430.44,1289.44 482.12,1261.03 534.57,1231.91 586.64,1203.14 637.17,1175.82 685.00,1151.00"/><polyline points="643.00,1053.00 648.03,1058.97 653.07,1064.93 658.10,1070.90 663.14,1076.86 668.17,1082.83 673.21,1088.79 678.24,1094.76 683.28,1100.72 688.31,1106.69 693.34,1112.66 698.38,1118.62 703.41,1124.59 708.45,1130.55 713.48,1136.52 718.52,1142.48 723.55,1148.45 728.59,1154.41 733.62,1160.38 738.66,1166.34 743.69,1172.31 748.72,1178.28 753.76,1184.24 758.79,1190.21 763.83,1196.17 768.86,1202.14 773.90,1208.10 778.93,1214.07 783.97,1220.03 789.00,1226.00"/><polyline points="146.00,1520.00 151.86,1528.38 157.72,1536.76 163.59,1545.14 169.45,1553.52 175.31,1561.90 181.17,1570.28 187.03,1578.66 192.90,1587.03 198.76,1595.41 204.62,1603.79 210.48,1612.17 216.34,1620.55 222.21,1628.93 228.07,1637.31 233.93,1645.69 239.79,1654.07 245.66,1662.45 251.52,1670.83 257.38,1679.21 263.24,1687.59 269.10,1695.97 274.97,1704.34 280.83,1712.72 286.69,1721.10 292.55,1729.48 298.41,1737.86 304.28,1746.24 310.14,1754.62 316.00,1763.00"/><polyline points="388.00,1415.00 393.93,1421.28 399.86,1427.55 405.79,1433.83 411.72,1440.10 417.66,1446.38 423.59,1452.66 429.52,1458.93 435.45,1465.21 441.38,1471.48 447.31,1477.76 453.24,1484.03 459.17,1490.31 465.10,1496.59 471.03,1502.86 476.97,1509.14 482.90,1515.41 488.83,1521.69 494.76,1527.97 500.69,1534.24 506.62,1540.52 512.55,1546.79 518.48,1553.07 524.41,1559.34 530.34,1565.62 536.28,1571.90 542.21,1578.17 548.14,1584.45 554.07,1590.72 560.00,1597.00"/><polyline points="611.00,1318.00 616.48,1322.38 621.97,1326.76 627.45,1331.14 632.93,1335.52 638.41,1339.90 643.90,1344.28 649.38,1348.66 654.86,1353.03 660.34,1357.41 665.83,1361.79 671.31,1366.17 676.79,1370.55 682.28,1374.93 687.76,1379.31 693.24,1383.69 698.72,1388.07 704.21,1392.45 709.69,1396.83 715.17,1401.21 720.66,1405.59 726.14,1409.97 731.62,1414.34 737.10,1418.72 742.59,1423.10 748.07,1427.48 753.55,1431.86 759.03,1436.24 764.52,1440.62 770.00,1445.00"/><polyline points="996.00,641.00 997.25,675.09 998.50,709.54 999.75,744.27 1001.00,779.20 1002.25,814.24 1003.50,849.30 1004.75,884.32 1006.00,919.19 1007.25,953.83 1008.50,988.17 1009.75,1022.12 1011.00,1055.59 1012.25,1088.49 1013.50,1120.75 1014.75,1152.28 1016.00,1183.00 1017.54,1219.61 1019.08,1255.03 1020.62,1289.39 1022.15,1322.86 1023.69,1355.61 1025.23,1387.77 1026.77,1419.52 1028.31,1451.00 1029.85,1482.38 1031.38,1513.82 1032.92,1545.46 1034.46,1577.47 1036.00,1610.00"/><polyline points="1075.00,648.00 1126.78,633.05 1180.95,616.25 1235.71,598.99 1289.27,582.66 1339.87,568.63 1385.71,558.28 1425.00,553.00 1496.70,553.52 1545.74,571.59 1571.00,616.00 1571.76,648.12 1563.26,685.11 1548.81,728.69 1531.74,780.56 1515.36,842.42 1503.00,916.00 1498.87,954.97 1495.01,997.71 1491.37,1043.73 1487.93,1092.53 1484.64,1143.63 1481.48,1196.53 1478.41,1250.74 1475.40,1305.77 1472.41,1361.13 1469.41,1416.32 1466.37,1470.86 1463.24,1524.25 1460.00,1576.00"/><polyline points="1090.00,993.00 1101.24,991.52 1112.48,990.03 1123.72,988.55 1134.97,987.07 1146.21,985.59 1157.45,984.10 1168.69,982.62 1179.93,981.14 1191.17,979.66 1202.41,978.17 1213.66,976.69 1224.90,975.21 1236.14,973.72 1247.38,972.24 1258.62,970.76 1269.86,969.28 1281.10,967.79 1292.34,966.31 1303.59,964.83 1314.83,963.34 1326.07,961.86 1337.31,960.38 1348.55,958.90 1359.79,957.41 1371.03,955.93 1382.28,954.45 1393.52,952.97 1404.76,951.48 1416.00,950.00"/><polyline points="1093.00,1266.00 1103.76,1264.76 1114.52,1263.52 1125.28,1262.28 1136.03,1261.03 1146.79,1259.79 1157.55,1258.55 1168.31,1257.31 1179.07,1256.07 1189.83,1254.83 1200.59,1253.59 1211.34,1252.34 1222.10,1251.10 1232.86,1249.86 1243.62,1248.62 1254.38,1247.38 1265.14,1246.14 1275.90,1244.90 1286.66,1243.66 1297.41,1242.41 1308.17,1241.17 1318.93,1239.93 1329.69,1238.69 1340.45,1237.45 1351.21,1236.21 1361.97,1234.97 1372.72,1233.72 1383.48,1232.48 1394.24,1231.24 1405.00,1230.00"/><polyline points="716.00,1668.00 754.45,1663.77 792.68,1659.41 830.76,1654.94 868.74,1650.41 906.68,1645.85 944.65,1641.31 982.69,1636.81 1020.86,1632.41 1059.23,1628.13 1097.85,1624.02 1136.78,1620.11 1176.08,1616.45 1215.80,1613.07 1256.00,1610.00 1293.99,1607.45 1332.41,1605.18 1371.21,1603.16 1410.33,1601.36 1449.74,1599.74 1489.38,1598.28 1529.22,1596.94 1569.19,1595.70 1609.26,1594.52 1649.37,1593.37 1689.48,1592.22 1729.55,1591.04 1769.53,1589.80 1809.36,1588.46 1849.00,1587.00"/></g></g></g></svg>