<svg xmlns="http://www.w3.org/2000/svg" viewBox="0 0 70.000 70.000" width="70.000mm" height="70.000mm"><g id="patch-cut" stroke="#000" stroke-width="0.3" fill="none" stroke-linecap="round" stroke-linejoin="round"><g transform="translate(0.000,0.000)"><path class="patch-outline" d="M 35.000 0.000 L 68.287 24.184 L 55.572 63.316 L 14.428 63.316 L 1.713 24.184 Z"/><g transform="translate(17.000,17.000) scale(0.017578)"><path d="M 557 331 L 540 284 Q 532 263 525 249.5 Q 518 236 507 221 Q 496 206 493.5 194.5 Q 491 183 497 177 Q 503 171 520 171 Q 540 172 565 178 Q 590 184 608.5 192.5 Q 627 201 631 210.5 Q 635 220 632 236 Q 629 252 628 261 Q 627 270 634 314 L 647 402 Q 648 414 647 438 Q 646 462 638.5 471 Q 631 480 628 480.5 Q 625 481 622 480 Q 609 479 602.5 474.5 Q 596 470 592 453 L 572 373 L 557 331 Z"/><path d="M 572 373 L 471 417 Q 460 422 444.5 433 Q 429 444 419.5 449 Q 410 454 401 453 Q 391 453 373 441 Q 355 429 341.5 417.5 Q 328 406 320 394 Q 312 382 315 375 Q 317 369 345 367.5 Q 373 366 396 363.5 Q 419 361 432.5 358.5 Q 446 356 503 343 L 557 331 L 572 373 Z"/><path d="M 847 312 Q 918 286 950 274 Q 982 262 996 261 Q 1011 261 1034.5 268.5 Q 1058 276 1075.5 285 Q 1093 294 1093.5 301 Q 1094 308 1093 311 Q 1090 317 1081 323 Q 1072 329 1044 334 Q 1016 339 974 348.5 Q 932 358 902.5 362.5 Q 873 367 851 361 L 827 356 L 847 312 Z"/><path d="M 827 356 Q 810 386 794 414 Q 778 442 763 464 L 746 489 Q 730 512 722 505 Q 714 498 718 487 L 727 459 Q 736 429 753.5 369.5 Q 771 310 779 271 L 789 215 Q 794 187 795 176 Q 795 159 788 140 Q 781 121 783 115.5 Q 785 110 791.5 105 Q 798 100 824 107 Q 863 120 879.5 132 Q 896 144 909 159.5 Q 922 175 920 186 Q 918 191 911 200 Q 904 209 895.5 218.5 Q 887 228 885 231 L 874 256 L 864 275 L 847 312 L 827 356 Z"/><path d="M 520 626 Q 501 640 493 647 L 452 682 Q 438 692 398 712 L 376 723 Q 365 729 358.5 724.5 Q 352 720 360 712 L 373 700 Q 398 677 415.5 658 Q 433 639 450 614.5 Q 467 590 481.5 565 Q 496 540 502 525 Q 508 510 509 494 Q 510 478 513.5 474.5 Q 517 471 529 470 Q 539 470 550 475 Q 561 480 578 492 Q 595 504 606.5 515.5 Q 618 527 616 536 Q 614 540 610 545 L 593 559 L 576 575 L 520 626 Z"/><path d="M 576 575 L 712 551 L 774 536 L 810 528 Q 815 527 840.5 518 Q 866 509 876 508 Q 891 508 913.5 518.5 Q 936 529 955 542 Q 974 555 986.5 566.5 Q 999 578 999.5 587 Q 1000 596 988 612 Q 976 628 969.5 640.5 Q 963 653 957 684 Q 951 715 941 782.5 Q 931 850 922.5 893.5 Q 914 937 904 964.5 Q 894 992 875 1021.5 Q 856 1051 838.5 1058 Q 821 1065 816 1064 Q 807 1063 799.5 1054.5 Q 792 1046 778.5 1020.5 Q 765 995 755 982.5 Q 745 970 728 951.5 Q 711 933 715.5 926.5 Q 720 920 732 920 Q 734 921 751 926 L 776 931 Q 808 939 813 937 Q 824 933 829.5 920.5 Q 835 908 840 875 L 868 662 Q 871 637 866.5 616 Q 862 595 854.5 587 Q 847 579 831 575.5 Q 815 572 796 575 L 749 584 Q 707 592 667 602.5 Q 627 613 597.5 627.5 Q 568 642 565 640 L 520 626 L 576 575 Z"/><path d="M 523 939 L 512 954 Q 502 967 492 964 Q 482 961 476.5 950.5 Q 471 940 468 931 Q 465 922 452 853 Q 439 784 423 767.5 Q 407 751 406 744 Q 405 737 412 731 Q 416 728 437 731 L 479 740 L 501 779 L 520 898 L 523 939 Z"/><path d="M 479 740 L 540 726 Q 558 722 577.5 715.5 Q 597 709 619 699 Q 641 689 650.5 687 Q 660 685 676 687 Q 694 691 714.5 701 Q 735 711 746 719.5 Q 757 728 757 737 Q 756 744 744.5 758.5 Q 733 773 731 776.5 Q 729 780 721 801 L 710 828 L 688 890 L 627 881 L 637 812 L 643 775 Q 645 757 639.5 751.5 Q 634 746 612 751 L 563 762 L 501 779 L 479 740 Z"/><path d="M 688 890 L 707 901 Q 715 907 711.5 914 Q 708 921 674 924 L 523 939 L 520 898 L 627 881 L 688 890 Z"/><path d="M 1191 447 Q 1158 488 1137.5 510 Q 1117 532 1096 547 L 1066 569 Q 1054 578 1050 577 Q 1046 576 1044 569 Q 1042 562 1056 542 L 1072 519 Q 1079 508 1108 453.5 Q 1137 399 1149 369.5 Q 1161 340 1175.5 296 Q 1190 252 1193.5 236.5 Q 1197 221 1200.5 199.5 Q 1204 178 1204.5 161 Q 1205 144 1210.5 139 Q 1216 134 1230 133 Q 1246 133 1272 149 Q 1298 165 1309 174 Q 1320 183 1333.5 199 Q 1347 215 1347.5 227 Q 1348 239 1339 247 Q 1338 248 1327.5 254.5 Q 1317 261 1306.5 273.5 Q 1296 286 1274 323 Q 1252 360 1242 376 L 1220 409 L 1191 447 Z"/><path d="M 1220 409 L 1416 356 L 1464 336 Q 1468 335 1508 324 Q 1548 313 1558 312 Q 1579 311 1606 319 L 1639 331 Q 1657 338 1667.5 345 Q 1678 352 1678 361 Q 1677 372 1660.5 379 Q 1644 386 1616 389 Q 1588 392 1567 395 L 1441 417 L 1375 436 L 1316 447 Q 1275 455 1253.5 458 Q 1232 461 1211 453 L 1191 447 L 1220 409 Z"/><path d="M 1441 417 Q 1466 433 1481.5 445.5 Q 1497 458 1506 473 Q 1515 488 1514 494.5 Q 1513 501 1502.5 513 Q 1492 525 1485.5 536.5 Q 1479 548 1458.5 596 Q 1438 644 1422 668 L 1397 707 L 1343 772 Q 1315 798 1288 817 Q 1261 836 1201.5 858 Q 1142 880 1112 885 Q 1082 890 1060 892 L 1016 896 Q 991 899 990.5 887 Q 990 875 1002 871 L 1024 865 Q 1043 860 1084 842 Q 1125 824 1166 801 Q 1207 778 1235 751 L 1272 717 L 1305 670 Q 1320 647 1332 626.5 Q 1344 606 1356 572.5 Q 1368 539 1375 506.5 Q 1382 474 1380 462 L 1375 436 L 1441 417 Z"/><path d="M 1397 707 Q 1425 718 1437.5 723 Q 1450 728 1499.5 749 Q 1549 770 1582 785.5 Q 1615 801 1639 823 Q 1663 845 1668 859.5 Q 1673 874 1675 897.5 Q 1677 921 1671 934 Q 1664 948 1650 956 Q 1636 964 1616 958 Q 1599 955 1574.5 935 Q 1550 915 1471.5 859.5 Q 1393 804 1385 798 L 1343 772 L 1272 717 Q 1243 703 1225.5 693.5 Q 1208 684 1186 670 L 1144 645 Q 1129 637 1132 627 Q 1135 617 1147 620 L 1177 628 Q 1211 638 1239 647 L 1305 670 L 1397 707 Z"/><path d="M 944 942 L 932 916 Q 926 905 933.5 897.5 Q 941 890 950 893 L 968 900 Q 1005 915 1023.5 923 Q 1042 931 1063 948 Q 1084 965 1092 984 Q 1100 1003 1093.5 1032.5 Q 1087 1062 1070.5 1074.5 Q 1054 1087 1041 1085 Q 1027 1084 1013.5 1068.5 Q 1000 1053 989.5 1032.5 Q 979 1012 964 983 Q 949 954 944 942 Z"/><path d="M 1569 1050 L 1621 1045 L 1687 1034 Q 1706 1035 1732.5 1046 Q 1759 1057 1782.5 1071 Q 1806 1085 1823.5 1101 Q 1841 1117 1838.5 1127.5 Q 1836 1138 1816 1148.5 Q 1796 1159 1727 1156 L 1666 1154 Q 1589 1152 1550 1151 Q 1511 1150 1449 1150 Q 1355 1151 1237 1155 Q 1119 1159 1061.5 1162.5 Q 1004 1166 854.5 1176 Q 705 1186 655 1191 Q 605 1196 560 1203 Q 515 1210 465.5 1220 Q 416 1230 386.5 1240 Q 357 1250 347 1249 Q 337 1249 313.5 1241.5 Q 290 1234 277 1226 L 244 1205 Q 214 1187 209 1173.5 Q 204 1160 208.5 1152 Q 213 1144 235 1143 L 266 1142 L 361 1140 Q 392 1139 475 1132.5 Q 558 1126 695.5 1117.5 Q 833 1109 889 1105 L 1279 1076 Q 1423 1067 1472 1061 L 1569 1050 Z"/><path d="M 703 1302 L 736 1299 L 817 1291 L 951 1280 L 1090 1263 Q 1148 1258 1177.5 1252.5 Q 1207 1247 1212 1246 Q 1231 1245 1252 1250.5 Q 1273 1256 1294.5 1263.5 Q 1316 1271 1325.5 1278 Q 1335 1285 1335 1293 Q 1334 1302 1320.5 1310 Q 1307 1318 1276.5 1319.5 Q 1246 1321 1240 1321 L 856 1355 Q 794 1361 771 1360 Q 748 1359 727 1351 Q 706 1343 693.5 1332 Q 681 1321 683.5 1312.5 Q 686 1304 703 1302 Z"/><path d="M 701 1460 L 734 1458 L 815 1451 L 949 1443 L 1088 1428 Q 1148 1424 1180.5 1418.5 Q 1213 1413 1224 1413 Q 1237 1414 1255 1419 Q 1273 1424 1291 1431 Q 1309 1438 1320 1447 Q 1331 1456 1331.5 1464.5 Q 1332 1473 1321.5 1479 Q 1311 1485 1300 1485.5 Q 1289 1486 1238 1489 L 853 1516 Q 828 1518 800.5 1519 Q 773 1520 764 1519 Q 744 1518 722 1511 Q 700 1504 689 1491.5 Q 678 1479 681 1470 Q 684 1461 701 1460 Z"/><path d="M 793 1891 L 788 1915 Q 785 1928 777 1936 Q 769 1944 757 1943 Q 741 1942 732 1926.5 Q 723 1911 712 1860 L 685 1735 Q 681 1720 675 1703 Q 669 1686 653 1669.5 Q 637 1653 636.5 1644.5 Q 636 1636 644 1630.5 Q 652 1625 668 1626 Q 701 1629 710 1631 L 746 1640 L 779 1687 L 793 1826 L 793 1891 Z"/><path d="M 746 1640 L 946 1618 L 1091 1599 Q 1153 1592 1161.5 1590.5 Q 1170 1589 1207.5 1581.5 Q 1245 1574 1264.5 1569 Q 1284 1564 1294 1563 Q 1312 1563 1337.5 1575 Q 1363 1587 1385.5 1603 Q 1408 1619 1427 1641 Q 1446 1663 1442 1673 Q 1439 1680 1423 1689.5 Q 1407 1699 1401.5 1703.5 Q 1396 1708 1382.5 1725 Q 1369 1742 1363 1752 L 1319 1821 L 1239 1798 L 1260 1711 Q 1268 1678 1265.5 1666.5 Q 1263 1655 1255 1648.5 Q 1247 1642 1222 1642 L 1196 1642 L 1130 1650 L 1032 1657 L 779 1687 L 746 1640 Z"/><path d="M 1319 1821 L 1350 1843 Q 1363 1853 1359 1860.5 Q 1355 1868 1339 1868 L 793 1891 L 793 1826 L 1239 1798 L 1319 1821 Z"/></g></g></g><g id="patch-write" stroke="#c33" stroke-width="0.3" fill="none" stroke-linecap="round" stroke-linejoin="round"><g transform="translate(0.000,0.000)"><g transform="translate(17.000,17.000) scale(0.017578)"><polyline points="550.00,183.00 552.76,192.07 555.52,201.14 558.28,210.21 561.03,219.28 563.79,228.34 566.55,237.41 569.31,246.48 572.07,255.55 574.83,264.62 577.59,273.69 580.34,282.76 583.10,291.83 585.86,300.90 588.62,309.97 591.38,319.03 594.14,328.10 596.90,337.17 599.66,346.24 602.41,355.31 605.17,364.38 607.93,373.45 610.69,382.52 613.45,391.59 616.21,400.66 618.97,409.72 621.72,418.79 624.48,427.86 627.24,436.93 630.00,446.00"/><polyline points="360.00,420.00 366.76,417.59 373.52,415.17 380.28,412.76 387.03,410.34 393.79,407.93 400.55,405.52 407.31,403.10 414.07,400.69 420.83,398.28 427.59,395.86 434.34,393.45 441.10,391.03 447.86,388.62 454.62,386.21 461.38,383.79 468.14,381.38 474.90,378.97 481.66,376.55 488.41,374.14 495.17,371.72 501.93,369.31 508.69,366.90 515.45,364.48 522.21,362.07 528.97,359.66 535.72,357.24 542.48,354.83 549.24,352.41 556.00,350.00"/><polyline points="850.00,333.00 857.69,332.07 865.38,331.14 873.07,330.21 880.76,329.28 888.45,328.34 896.14,327.41 903.83,326.48 911.52,325.55 919.21,324.62 926.90,323.69 934.59,322.76 942.28,321.83 949.97,320.90 957.66,319.97 965.34,319.03 973.03,318.10 980.72,317.17 988.41,316.24 996.10,315.31 1003.79,314.38 1011.48,313.45 1019.17,312.52 1026.86,311.59 1034.55,310.66 1042.24,309.72 1049.93,308.79 1057.62,307.86 1065.31,306.93 1073.00,306.00"/><polyline points="856.00,130.00 852.10,141.93 848.21,153.86 844.31,165.79 840.41,177.72 836.52,189.66 832.62,201.59 828.72,213.52 824.83,225.45 820.93,237.38 817.03,249.31 813.14,261.24 809.24,273.17 805.34,285.10 801.45,297.03 797.55,308.97 793.66,320.90 789.76,332.83 785.86,344.76 781.97,356.69 778.07,368.62 774.17,380.55 770.28,392.48 766.38,404.41 762.48,416.34 758.59,428.28 754.69,440.21 750.79,452.14 746.90,464.07 743.00,476.00"/><polyline points="570.00,500.00 563.45,507.24 556.90,514.48 550.34,521.72 543.79,528.97 537.24,536.21 530.69,543.45 524.14,550.69 517.59,557.93 511.03,565.17 504.48,572.41 497.93,579.66 491.38,586.90 484.83,594.14 478.28,601.38 471.72,608.62 465.17,615.86 458.62,623.10 452.07,630.34 445.52,637.59 438.97,644.83 432.41,652.07 425.86,659.31 419.31,666.55 412.76,673.79 406.21,681.03 399.66,688.28 393.10,695.52 386.55,702.76 380.00,710.00"/><polyline points="553.00,603.00 591.26,593.29 630.04,582.52 668.81,571.75 707.07,562.04 744.31,554.44 780.00,550.00 824.37,549.58 870.66,553.25 913.78,559.43 948.59,566.54 970.00,573.00 953.38,574.88 910.00,606.00 904.45,636.68 901.04,677.67 898.62,724.88 896.07,774.22 892.25,821.62 886.00,863.00 874.14,909.10 858.91,955.51 842.61,997.57 827.54,1030.62 816.00,1050.00 806.00,1025.88 796.00,973.00 764.12,949.38 726.00,930.00"/><polyline points="426.00,740.00 430.82,745.20 435.83,749.79 440.95,754.03 446.10,758.18 451.19,762.50 456.14,767.26 460.88,772.73 465.33,779.17 469.39,786.84 473.00,796.00 474.69,801.50 476.24,807.45 477.67,813.81 478.98,820.54 480.19,827.61 481.31,834.97 482.35,842.59 483.33,850.42 484.25,858.44 485.12,866.59 485.96,874.85 486.79,883.18 487.61,891.52 488.43,899.86 489.26,908.14 490.13,916.34 491.03,924.41 491.98,932.31 493.00,940.00"/><polyline points="496.00,756.00 510.60,751.74 525.50,747.09 540.59,742.20 555.71,737.26 570.75,732.44 585.57,727.90 600.03,723.81 614.02,720.35 627.38,717.69 640.00,716.00 657.94,715.35 676.27,716.41 694.02,718.77 710.23,722.02 723.94,725.75 734.18,729.55 740.00,733.00 736.60,737.03 720.69,740.50 700.93,746.97 686.00,760.00 681.64,770.01 678.07,782.20 675.10,796.08 672.56,811.12 670.26,826.85 668.02,842.73 665.66,858.29 663.00,873.00"/><polyline points="530.00,910.00 535.62,909.76 541.24,909.52 546.86,909.28 552.48,909.03 558.10,908.79 563.72,908.55 569.34,908.31 574.97,908.07 580.59,907.83 586.21,907.59 591.83,907.34 597.45,907.10 603.07,906.86 608.69,906.62 614.31,906.38 619.93,906.14 625.55,905.90 631.17,905.66 636.79,905.41 642.41,905.17 648.03,904.93 653.66,904.69 659.28,904.45 664.90,904.21 670.52,903.97 676.14,903.72 681.76,903.48 687.38,903.24 693.00,903.00"/><polyline points="1280.00,166.00 1273.65,180.24 1267.25,194.80 1260.81,209.63 1254.33,224.66 1247.83,239.84 1241.32,255.09 1234.80,270.37 1228.29,285.61 1221.80,300.74 1215.33,315.71 1208.90,330.46 1202.52,344.92 1196.19,359.03 1189.94,372.74 1183.75,385.97 1177.66,398.68 1171.66,410.79 1165.77,422.25 1160.00,433.00 1149.37,451.37 1139.13,467.36 1129.21,481.39 1119.54,493.88 1110.06,505.25 1100.70,515.92 1091.38,526.31 1082.03,536.84 1072.60,547.93 1063.00,560.00"/><polyline points="1223.00,433.00 1238.36,429.14 1254.11,425.13 1270.20,420.99 1286.56,416.75 1303.13,412.42 1319.85,408.04 1336.65,403.62 1353.47,399.20 1370.25,394.79 1386.93,390.43 1403.44,386.12 1419.72,381.91 1435.70,377.81 1451.33,373.85 1466.54,370.05 1481.27,366.43 1495.45,363.03 1509.03,359.86 1521.93,356.94 1534.10,354.31 1545.48,351.99 1556.00,350.00 1583.42,345.92 1603.68,344.59 1618.75,345.27 1630.56,347.20 1641.07,349.64 1652.24,351.82 1666.00,353.00"/><polyline points="1443.00,430.00 1437.05,452.43 1431.76,475.40 1426.88,498.71 1422.17,522.15 1417.38,545.53 1412.26,568.63 1406.55,591.26 1400.02,613.22 1392.42,634.30 1383.50,654.29 1373.00,673.00 1359.44,692.38 1343.99,710.90 1326.99,728.54 1308.78,745.29 1289.69,761.12 1270.06,776.03 1250.24,789.99 1230.57,802.98 1211.37,814.99 1193.00,826.00 1170.73,837.72 1148.54,847.00 1126.41,854.41 1104.31,860.50 1082.24,865.84 1060.18,871.00 1038.10,876.53 1016.00,883.00"/><polyline points="1150.00,633.00 1168.91,641.94 1188.12,650.87 1207.54,659.80 1227.11,668.73 1246.77,677.65 1266.46,686.58 1286.09,695.51 1305.62,704.44 1324.98,713.37 1344.09,722.30 1362.90,731.24 1381.33,740.18 1399.32,749.13 1416.81,758.08 1433.72,767.04 1450.00,776.00 1469.10,787.04 1487.26,798.10 1504.61,809.16 1521.25,820.23 1537.32,831.31 1552.94,842.39 1568.24,853.48 1583.33,864.57 1598.33,875.66 1613.38,886.75 1628.59,897.84 1644.09,908.92 1660.00,920.00"/><polyline points="960.00,906.00 963.55,911.31 967.10,916.62 970.66,921.93 974.21,927.24 977.76,932.55 981.31,937.86 984.86,943.17 988.41,948.48 991.97,953.79 995.52,959.10 999.07,964.41 1002.62,969.72 1006.17,975.03 1009.72,980.34 1013.28,985.66 1016.83,990.97 1020.38,996.28 1023.93,1001.59 1027.48,1006.90 1031.03,1012.21 1034.59,1017.52 1038.14,1022.83 1041.69,1028.14 1045.24,1033.45 1048.79,1038.76 1052.34,1044.07 1055.90,1049.38 1059.45,1054.69 1063.00,1060.00"/><polyline points="230.00,1186.00 284.81,1182.21 338.78,1178.48 392.75,1174.75 447.56,1170.96 504.03,1167.06 563.00,1163.00 616.05,1159.34 671.09,1155.55 727.55,1151.66 784.84,1147.71 842.40,1143.76 899.65,1139.84 956.00,1136.00 1011.60,1132.04 1067.01,1127.86 1122.28,1123.63 1177.46,1119.55 1232.60,1115.80 1287.77,1112.55 1343.00,1110.00 1400.83,1108.06 1462.06,1106.55 1524.13,1105.49 1584.50,1104.88 1640.64,1104.75 1689.99,1105.12 1730.00,1106.00 1796.19,1114.50 1826.00,1126.00"/><polyline points="716.00,1333.00 737.16,1330.90 758.70,1328.72 780.53,1326.47 802.60,1324.18 824.82,1321.86 847.11,1319.52 869.40,1317.18 891.62,1314.85 913.69,1312.56 935.53,1310.32 957.06,1308.14 978.22,1306.04 998.93,1304.03 1019.10,1302.14 1038.67,1300.37 1057.56,1298.75 1075.70,1297.29 1093.00,1296.00 1119.43,1294.29 1143.76,1293.02 1166.33,1292.13 1187.46,1291.54 1207.49,1291.18 1226.74,1290.98 1245.55,1290.88 1264.25,1290.80 1283.17,1290.67 1302.64,1290.43 1323.00,1290.00"/><polyline points="690.00,1480.00 711.05,1478.97 732.54,1477.90 754.40,1476.78 776.54,1475.63 798.90,1474.46 821.38,1473.28 843.92,1472.08 866.43,1470.90 888.84,1469.72 911.06,1468.56 933.03,1467.43 954.65,1466.34 975.85,1465.30 996.56,1464.31 1016.70,1463.38 1036.18,1462.53 1054.93,1461.75 1072.86,1461.07 1089.92,1460.48 1106.00,1460.00 1138.17,1459.32 1166.05,1459.12 1190.48,1459.30 1212.33,1459.76 1232.47,1460.40 1251.74,1461.15 1271.01,1461.89 1291.15,1462.54 1313.00,1463.00"/><polyline points="690.00,1636.00 693.99,1644.66 697.98,1652.32 701.96,1659.48 705.95,1666.64 709.93,1674.30 713.93,1682.96 717.93,1693.13 721.96,1705.31 726.00,1720.00 727.83,1727.55 729.66,1735.66 731.50,1744.29 733.34,1753.39 735.18,1762.92 737.03,1772.83 738.88,1783.08 740.73,1793.62 742.58,1804.40 744.44,1815.38 746.29,1826.51 748.15,1837.74 750.01,1849.04 751.87,1860.36 753.73,1871.64 755.58,1882.85 757.44,1893.93 759.30,1904.85 761.15,1915.56 763.00,1926.00"/><polyline points="766.00,1663.00 795.72,1659.62 826.26,1656.12 857.38,1652.54 888.82,1648.92 920.35,1645.28 951.71,1641.66 982.66,1638.11 1012.95,1634.64 1042.35,1631.31 1070.60,1628.15 1097.45,1625.18 1122.67,1622.46 1146.00,1620.00 1191.32,1614.50 1231.04,1608.70 1265.75,1603.62 1296.07,1600.30 1322.62,1599.75 1346.00,1603.00 1382.89,1624.96 1404.67,1658.04 1410.00,1686.00 1391.56,1700.15 1356.67,1709.19 1326.00,1723.00 1307.85,1746.48 1293.93,1774.74 1280.00,1803.00"/><polyline points="803.00,1860.00 821.19,1859.02 839.81,1857.99 858.79,1856.92 878.05,1855.81 897.53,1854.68 917.16,1853.53 936.85,1852.37 956.55,1851.21 976.17,1850.06 995.65,1848.93 1014.91,1847.83 1033.89,1846.75 1052.51,1845.72 1070.70,1844.74 1088.39,1843.82 1105.51,1842.97 1121.98,1842.19 1137.74,1841.49 1152.71,1840.89 1166.82,1840.39 1180.00,1840.00 1210.08,1839.51 1234.54,1839.67 1254.69,1840.35 1271.81,1841.38 1287.21,1842.61 1302.18,1843.89 1318.01,1845.07 1336.00,1846.00"/></g></g></g></svg>