<svg xmlns="http://www.w3.org/2000/svg" viewBox="0 0 100.000 25.000" width="100.000mm" height="25.000mm"><g id="patch-cut" stroke="#000" stroke-width="0.3" fill="none" stroke-linecap="round" stroke-linejoin="round"><g transform="translate(0.000,0.000)"><path class="patch-outline" d="M 0.000 0.000 L 100.000 0.000 L 75.000 12.500 L 100.000 25.000 L 0.000 25.000 Z"/><g transform="translate(7.000,5.500) scale(0.006836)"><path d="M 567.0 1021.0 L 825.0 1564.0 Q 876.0 1671.0 963.0 1671.0 L 982.0 1671.0 L 982.0 1728.0 L 769.0 1728.0 L 457.0 1028.0 L 254.0 1028.0 L 254.0 1578.0 Q 254.0 1671.0 330.0 1671.0 L 358.0 1671.0 L 358.0 1728.0 L 39.0 1728.0 L 39.0 1671.0 L 77.0 1671.0 Q 122.0 1671.0 135.0 1651.0 Q 149.0 1631.0 149.0 1582.0 L 149.0 447.0 Q 149.0 370.0 73.0 370.0 L 39.0 370.0 L 39.0 315.0 L 439.0 315.0 Q 622.0 315.0 729.0 389.0 Q 865.0 483.0 865.0 669.0 Q 865.0 831.0 779.0 922.0 Q 711.0 994.0 567.0 1021.0 M 254.0 971.0 L 420.0 971.0 Q 560.0 971.0 632.0 928.0 Q 751.0 857.0 751.0 673.0 Q 751.0 370.0 420.0 370.0 L 332.0 370.0 Q 254.0 370.0 254.0 447.0 Z"/></g><g transform="translate(13.545,5.500) scale(0.006836)"><path d="M 962.0 1363.0 L 904.0 1726.0 L 73.0 1726.0 L 73.0 1667.0 L 96.0 1667.0 Q 130.0 1667.0 166.0 1637.0 Q 191.0 1616.0 191.0 1577.0 L 191.0 454.0 Q 191.0 372.0 108.0 372.0 L 73.0 372.0 L 73.0 318.0 L 904.0 318.0 L 940.0 677.0 L 901.0 677.0 Q 833.0 539.0 782.0 479.0 Q 694.0 376.0 567.0 376.0 L 404.0 376.0 Q 303.0 376.0 303.0 454.0 L 303.0 967.0 L 525.0 967.0 Q 630.0 967.0 630.0 785.0 L 630.0 750.0 L 689.0 750.0 L 689.0 1258.0 L 630.0 1258.0 L 630.0 1232.0 Q 630.0 1024.0 525.0 1024.0 L 303.0 1024.0 L 303.0 1589.0 Q 303.0 1667.0 404.0 1667.0 L 567.0 1667.0 Q 734.0 1667.0 828.0 1531.0 Q 854.0 1493.0 921.0 1363.0 Z"/></g><g transform="translate(20.091,5.500) scale(0.006836)"><path d="M 789.0 580.0 L 514.0 1729.0 L 464.0 1729.0 L 198.0 541.0 L 198.0 1596.0 Q 198.0 1671.0 268.0 1671.0 L 317.0 1671.0 L 317.0 1729.0 L 34.0 1729.0 L 34.0 1671.0 L 71.0 1671.0 Q 101.0 1671.0 118.0 1661.0 Q 139.0 1648.0 139.0 1596.0 L 139.0 455.0 Q 139.0 371.0 71.0 371.0 L 32.0 371.0 L 32.0 314.0 L 245.0 314.0 L 510.0 1482.0 L 785.0 314.0 L 993.0 314.0 L 993.0 371.0 L 948.0 371.0 Q 896.0 371.0 896.0 448.0 L 896.0 1583.0 Q 896.0 1671.0 958.0 1671.0 L 993.0 1671.0 L 993.0 1729.0 L 671.0 1729.0 L 671.0 1671.0 L 697.0 1671.0 Q 789.0 1671.0 789.0 1583.0 Z"/></g><g transform="translate(26.636,5.500) scale(0.006836)"><path d="M 510.0 281.0 Q 635.0 281.0 731.0 360.0 Q 952.0 544.0 952.0 999.0 Q 952.0 1413.0 779.0 1621.0 Q 662.0 1762.0 506.0 1762.0 Q 276.0 1762.0 144.0 1448.0 Q 74.0 1280.0 74.0 1003.0 Q 74.0 626.0 235.0 423.0 Q 347.0 281.0 510.0 281.0 M 508.0 339.0 Q 417.0 339.0 344.0 414.0 Q 190.0 574.0 190.0 988.0 Q 190.0 1340.0 285.0 1532.0 Q 371.0 1706.0 506.0 1706.0 Q 637.0 1706.0 737.0 1535.0 Q 805.0 1419.0 823.0 1264.0 Q 836.0 1151.0 836.0 1012.0 Q 836.0 646.0 708.0 460.0 Q 625.0 339.0 508.0 339.0 Z"/></g><g transform="translate(33.182,5.500) scale(0.006836)"><path d="M 975.0 372.0 L 956.0 372.0 Q 901.0 372.0 876.0 410.0 Q 848.0 454.0 823.0 562.0 L 542.0 1764.0 L 494.0 1764.0 L 191.0 501.0 Q 160.0 372.0 78.0 372.0 L 55.0 372.0 L 55.0 314.0 L 420.0 314.0 L 418.0 372.0 L 361.0 372.0 Q 287.0 372.0 287.0 417.0 Q 287.0 428.0 303.0 496.0 L 544.0 1515.0 L 763.0 569.0 Q 790.0 453.0 790.0 415.0 Q 790.0 372.0 745.0 372.0 L 680.0 372.0 L 678.0 314.0 L 975.0 314.0 Z"/></g><g transform="translate(39.727,5.500) scale(0.006836)"><path d="M 962.0 1363.0 L 904.0 1726.0 L 73.0 1726.0 L 73.0 1667.0 L 96.0 1667.0 Q 130.0 1667.0 166.0 1637.0 Q 191.0 1616.0 191.0 1577.0 L 191.0 454.0 Q 191.0 372.0 108.0 372.0 L 73.0 372.0 L 73.0 318.0 L 904.0 318.0 L 940.0 677.0 L 901.0 677.0 Q 833.0 539.0 782.0 479.0 Q 694.0 376.0 567.0 376.0 L 404.0 376.0 Q 303.0 376.0 303.0 454.0 L 303.0 967.0 L 525.0 967.0 Q 630.0 967.0 630.0 785.0 L 630.0 750.0 L 689.0 750.0 L 689.0 1258.0 L 630.0 1258.0 L 630.0 1232.0 Q 630.0 1024.0 525.0 1024.0 L 303.0 1024.0 L 303.0 1589.0 Q 303.0 1667.0 404.0 1667.0 L 567.0 1667.0 Q 734.0 1667.0 828.0 1531.0 Q 854.0 1493.0 921.0 1363.0 Z"/></g><g transform="translate(46.273,5.500) scale(0.006836)"><path d="M 587.0 988.0 Q 963.0 1037.0 963.0 1348.0 Q 963.0 1610.0 705.0 1693.0 Q 603.0 1726.0 471.0 1726.0 L 58.0 1726.0 L 58.0 1669.0 L 99.0 1669.0 Q 154.0 1669.0 168.0 1645.0 Q 180.0 1624.0 180.0 1580.0 L 180.0 453.0 Q 180.0 371.0 103.0 371.0 L 62.0 371.0 L 62.0 315.0 L 494.0 315.0 Q 676.0 315.0 787.0 406.0 Q 901.0 500.0 901.0 652.0 Q 901.0 902.0 587.0 988.0 M 291.0 1017.0 L 291.0 1561.0 Q 291.0 1641.0 348.0 1659.0 Q 383.0 1670.0 457.0 1670.0 Q 621.0 1670.0 710.0 1614.0 Q 848.0 1527.0 848.0 1345.0 Q 848.0 1171.0 739.0 1086.0 Q 650.0 1017.0 456.0 1017.0 M 291.0 958.0 L 456.0 958.0 Q 578.0 958.0 677.0 885.0 Q 787.0 804.0 787.0 659.0 Q 787.0 502.0 663.0 425.0 Q 576.0 371.0 434.0 371.0 Q 353.0 371.0 326.0 386.0 Q 291.0 405.0 291.0 463.0 Z"/></g><g transform="translate(52.818,5.500) scale(0.006836)"><path d="M 962.0 1363.0 L 904.0 1726.0 L 73.0 1726.0 L 73.0 1667.0 L 96.0 1667.0 Q 130.0 1667.0 166.0 1637.0 Q 191.0 1616.0 191.0 1577.0 L 191.0 454.0 Q 191.0 372.0 108.0 372.0 L 73.0 372.0 L 73.0 318.0 L 904.0 318.0 L 940.0 677.0 L 901.0 677.0 Q 833.0 539.0 782.0 479.0 Q 694.0 376.0 567.0 376.0 L 404.0 376.0 Q 303.0 376.0 303.0 454.0 L 303.0 967.0 L 525.0 967.0 Q 630.0 967.0 630.0 785.0 L 630.0 750.0 L 689.0 750.0 L 689.0 1258.0 L 630.0 1258.0 L 630.0 1232.0 Q 630.0 1024.0 525.0 1024.0 L 303.0 1024.0 L 303.0 1589.0 Q 303.0 1667.0 404.0 1667.0 L 567.0 1667.0 Q 734.0 1667.0 828.0 1531.0 Q 854.0 1493.0 921.0 1363.0 Z"/></g><g transform="translate(59.364,5.500) scale(0.006836)"><path d="M 904.0 667.0 Q 817.0 491.0 747.0 436.0 Q 663.0 371.0 510.0 371.0 L 393.0 371.0 Q 313.0 371.0 313.0 444.0 L 313.0 970.0 L 491.0 970.0 Q 597.0 970.0 597.0 787.0 L 597.0 746.0 L 657.0 746.0 L 657.0 1259.0 L 597.0 1259.0 L 597.0 1221.0 Q 597.0 1028.0 491.0 1028.0 L 313.0 1028.0 L 313.0 1586.0 Q 313.0 1668.0 437.0 1668.0 L 469.0 1668.0 L 469.0 1725.0 L 87.0 1725.0 L 87.0 1668.0 L 112.0 1668.0 Q 206.0 1668.0 206.0 1582.0 L 206.0 448.0 Q 206.0 371.0 120.0 371.0 L 87.0 371.0 L 87.0 314.0 L 897.0 314.0 L 937.0 667.0 Z"/></g><g transform="translate(65.909,5.500) scale(0.006836)"><path d="M 510.0 281.0 Q 635.0 281.0 731.0 360.0 Q 952.0 544.0 952.0 999.0 Q 952.0 1413.0 779.0 1621.0 Q 662.0 1762.0 506.0 1762.0 Q 276.0 1762.0 144.0 1448.0 Q 74.0 1280.0 74.0 1003.0 Q 74.0 626.0 235.0 423.0 Q 347.0 281.0 510.0 281.0 M 508.0 339.0 Q 417.0 339.0 344.0 414.0 Q 190.0 574.0 190.0 988.0 Q 190.0 1340.0 285.0 1532.0 Q 371.0 1706.0 506.0 1706.0 Q 637.0 1706.0 737.0 1535.0 Q 805.0 1419.0 823.0 1264.0 Q 836.0 1151.0 836.0 1012.0 Q 836.0 646.0 708.0 460.0 Q 625.0 339.0 508.0 339.0 Z"/></g><g transform="translate(72.455,5.500) scale(0.006836)"><path d="M 567.0 1021.0 L 825.0 1564.0 Q 876.0 1671.0 963.0 1671.0 L 982.0 1671.0 L 982.0 1728.0 L 769.0 1728.0 L 457.0 1028.0 L 254.0 1028.0 L 254.0 1578.0 Q 254.0 1671.0 330.0 1671.0 L 358.0 1671.0 L 358.0 1728.0 L 39.0 1728.0 L 39.0 1671.0 L 77.0 1671.0 Q 122.0 1671.0 135.0 1651.0 Q 149.0 1631.0 149.0 1582.0 L 149.0 447.0 Q 149.0 370.0 73.0 370.0 L 39.0 370.0 L 39.0 315.0 L 439.0 315.0 Q 622.0 315.0 729.0 389.0 Q 865.0 483.0 865.0 669.0 Q 865.0 831.0 779.0 922.0 Q 711.0 994.0 567.0 1021.0 M 254.0 971.0 L 420.0 971.0 Q 560.0 971.0 632.0 928.0 Q 751.0 857.0 751.0 673.0 Q 751.0 370.0 420.0 370.0 L 332.0 370.0 Q 254.0 370.0 254.0 447.0 Z"/></g><g transform="translate(79.000,5.500) scale(0.006836)"><path d="M 962.0 1363.0 L 904.0 1726.0 L 73.0 1726.0 L 73.0 1667.0 L 96.0 1667.0 Q 130.0 1667.0 166.0 1637.0 Q 191.0 1616.0 191.0 1577.0 L 191.0 454.0 Q 191.0 372.0 108.0 372.0 L 73.0 372.0 L 73.0 318.0 L 904.0 318.0 L 940.0 677.0 L 901.0 677.0 Q 833.0 539.0 782.0 479.0 Q 694.0 376.0 567.0 376.0 L 404.0 376.0 Q 303.0 376.0 303.0 454.0 L 303.0 967.0 L 525.0 967.0 Q 630.0 967.0 630.0 785.0 L 630.0 750.0 L 689.0 750.0 L 689.0 1258.0 L 630.0 1258.0 L 630.0 1232.0 Q 630.0 1024.0 525.0 1024.0 L 303.0 1024.0 L 303.0 1589.0 Q 303.0 1667.0 404.0 1667.0 L 567.0 1667.0 Q 734.0 1667.0 828.0 1531.0 Q 854.0 1493.0 921.0 1363.0 Z"/></g></g></g><g id="patch-write" stroke="#c33" stroke-width="0.3" fill="none" stroke-linecap="round" stroke-linejoin="round"></g></svg>