<svg xmlns="http://www.w3.org/2000/svg" viewBox="0 0 170.000 110.000" width="170.000mm" height="110.000mm"><g id="patch-cut" stroke="#000" stroke-width="0.3" fill="none" stroke-linecap="round" stroke-linejoin="round"><g transform="translate(0.000,0.000)"><path class="patch-outline" d="M 50.000 25.000 L 49.880 27.450 L 49.520 29.877 L 48.924 32.257 L 48.097 34.567 L 47.048 36.785 L 45.787 38.889 L 44.325 40.860 L 42.678 42.678 L 40.860 44.325 L 38.889 45.787 L 36.785 47.048 L 34.567 48.097 L 32.257 48.924 L 29.877 49.520 L 27.450 49.880 L 25.000 50.000 L 22.550 49.880 L 20.123 49.520 L 17.743 48.924 L 15.433 48.097 L 13.215 47.048 L 11.111 45.787 L 9.140 44.325 L 7.322 42.678 L 5.675 40.860 L 4.213 38.889 L 2.952 36.785 L 1.903 34.567 L 1.076 32.257 L 0.480 29.877 L 0.120 27.450 L 0.000 25.000 L 0.120 22.550 L 0.480 20.123 L 1.076 17.743 L 1.903 15.433 L 2.952 13.215 L 4.213 11.111 L 5.675 9.140 L 7.322 7.322 L 9.140 5.675 L 11.111 4.213 L 13.215 2.952 L 15.433 1.903 L 17.743 1.076 L 20.123 0.480 L 22.550 0.120 L 25.000 0.000 L 27.450 0.120 L 29.877 0.480 L 32.257 1.076 L 34.567 1.903 L 36.785 2.952 L 38.889 4.213 L 40.860 5.675 L 42.678 7.322 L 44.325 9.140 L 45.787 11.111 L 47.048 13.215 L 48.097 15.433 L 48.924 17.743 L 49.520 20.123 L 49.880 22.550 Z"/><g transform="translate(10.000,10.000) scale(0.014648)"><path d="M 586 351 L 522 273 Q 508 257 510 252 Q 512 247 518.5 243 Q 525 239 543 240 Q 569 243 595 248 Q 621 253 653.5 264 Q 686 275 727.5 297.5 Q 769 320 783 344.5 Q 797 369 797 406 Q 796 433 788 449 Q 780 465 769.5 471 Q 759 477 741 476 Q 724 476 705 468 Q 686 460 654 428 Q 622 396 586 351 Z"/><path d="M 563 1078 Q 505 1147 458 1195.5 Q 411 1244 341.5 1291 Q 272 1338 207 1368 L 150 1395 Q 132 1404 125 1394 Q 118 1384 133 1372 L 177 1338 Q 205 1317 258 1268.5 Q 311 1220 368.5 1157 Q 426 1094 516 977 Q 606 860 635 819 L 692 739 Q 711 712 704 705 Q 697 698 677 698.5 Q 657 699 637 705 L 399 784 Q 328 808 312 807.5 Q 296 807 262.5 789 Q 229 771 210.5 752.5 Q 192 734 197 727.5 Q 202 721 212 717 L 277 710 L 434 682 Q 531 665 598.5 640.5 Q 666 616 692.5 602.5 Q 719 589 726 585.5 Q 733 582 741 581 Q 757 580 797.5 601 Q 838 622 864.5 641 Q 891 660 893 679.5 Q 895 699 880 719 Q 877 723 839.5 751.5 Q 802 780 762 830 Q 722 880 689 923 L 615 1019 L 563 1078 Z"/><path d="M 615 1019 Q 633 1042 647.5 1061.5 Q 662 1081 667 1095 L 674 1116 Q 676 1130.5 662 1145 Q 656 1215 650.5 1292 Q 645 1369 649 1456 L 654 1596 Q 655 1638 653.5 1668.5 Q 652 1699 646.5 1723.5 Q 641 1748 631.5 1771.5 Q 622 1795 614.5 1802 Q 607 1809 598 1810 Q 589 1811 573 1789 Q 550 1761 539.5 1734 Q 529 1707 523 1681.5 Q 517 1656 518 1638 Q 518 1629 531.5 1579.5 Q 545 1530 553 1456.5 Q 561 1383 561 1345 L 563 1078 L 615 1019 Z"/><path d="M 674 1116 Q 756 1134 796 1148 Q 836 1162 857 1178.5 Q 878 1195 884 1210 Q 890 1225 891.5 1245 Q 893 1265 881 1286 Q 869 1307 854 1308.5 Q 839 1310 824 1302.5 Q 809 1295 791 1278 L 717 1202 L 662 1145 L 674 1116 Z"/><path d="M 1184 368 L 1394 329 L 1542 291 Q 1563 287 1578 288 Q 1590 289 1634 304 Q 1678 319 1683 330.5 Q 1688 342 1688.5 347.5 Q 1689 353 1689 355 Q 1687 364 1669.5 372 Q 1652 380 1614 387 L 1478 414 L 1250 447 Q 1201 455 1155 454.5 Q 1109 454 1061.5 444 Q 1014 434 1009 419 Q 1004 404 1003.5 399 Q 1003 394 1005 392 Q 1006 390 1010.5 388.5 Q 1015 387 1060.5 385 Q 1106 383 1184 368 Z"/><path d="M 1181 929 Q 1176 947 1169 958.5 Q 1162 970 1153 969 Q 1150 969 1143 966 Q 1136 963 1125.5 952.5 Q 1115 942 1107 904 L 1070 748 Q 1059 704 1051 694.5 Q 1043 685 1024.5 672 Q 1006 659 1003.5 655.5 Q 1001 652 1002 648 Q 1002 647 1003 642.5 Q 1004 638 1005.5 636.5 Q 1007 635 1019 632.5 Q 1031 630 1051 630 L 1114 631 Q 1158.5 641 1159 687 L 1184 863 Q 1186.5 894 1181 929 Z"/><path d="M 1114 631 Q 1159 626 1219.5 619 Q 1280 612 1326 604 L 1437 583 Q 1522 568 1554 555.5 Q 1586 543 1597 542 Q 1605 542 1622 546 Q 1639 550 1683 573.5 Q 1727 597 1738 608 Q 1749 619 1749.5 624.5 Q 1750 630 1745 638 Q 1741 644 1727.5 658.5 Q 1714 673 1704.5 687 Q 1695 701 1677.5 742.5 Q 1660 784 1658 789 L 1636 843 Q 1571 884.5 1550 814 L 1572 705 Q 1580 664 1578.5 651 Q 1577 638 1570.5 630.5 Q 1564 623 1533 626 L 1430 635 L 1345 651 L 1228 675 L 1159 687 L 1114 631 Z"/><path d="M 1636 843 Q 1647 856 1654.5 867.5 Q 1662 879 1659 885.5 Q 1656 892 1641 892 L 1574 895 L 1406 910 L 1181 929 L 1184 863 Q 1348 843 1386 837 L 1550 814 L 1636 843 Z"/><path d="M 1073 1619 Q 1071 1648 1064.5 1664.5 Q 1058 1681 1052 1682 Q 1046 1683 1042 1682 Q 1031 1681 1023.5 1676.5 Q 1016 1672 1003 1650.5 Q 990 1629 986 1588 L 948 1232 Q 943 1190 932.5 1167.5 Q 922 1145 906.5 1126.5 Q 891 1108 889 1102 Q 887 1096 888 1092 Q 888 1085 894 1076.5 Q 900 1068 934 1075 L 1029 1095 Q 1053.5 1111 1046 1155 L 1055 1327 L 1060 1385 L 1073 1559 L 1073 1619 Z"/><path d="M 1029 1095 Q 1354 1054 1486.5 1036.5 Q 1619 1019 1661.5 1011 Q 1704 1003 1728 995.5 Q 1752 988 1762 987 Q 1771 987 1787.5 991 Q 1804 995 1848 1023.5 Q 1892 1052 1905 1066 Q 1918 1080 1921 1090 Q 1924 1100 1914 1125 Q 1902 1155 1894 1181 Q 1886 1207 1883 1254 L 1871 1442 Q 1866 1510 1858 1550 Q 1850 1590 1832.5 1632 Q 1815 1674 1793.5 1701.5 Q 1772 1729 1751.5 1744.5 Q 1731 1760 1720 1757 Q 1709 1756 1696.5 1739.5 Q 1684 1723 1669 1675 L 1644 1596 Q 1612 1456 1726 1558 Q 1744 1467 1745 1449 L 1753 1325 L 1754 1277 Q 1753 1244 1752.5 1229 Q 1752 1214 1753.5 1173.5 Q 1755 1133 1750 1120 Q 1741 1104 1726.5 1095.5 Q 1712 1087 1679 1087.5 Q 1646 1088 1602 1091 L 1389 1108 L 1279 1125.5 Q 1273 1122 1260 1121.5 Q 1247 1121 1223 1125 L 1046 1155 L 1029 1095 Z"/><path d="M 1055 1327 L 1315 1303 L 1429 1283 Q 1542 1268 1589 1262.5 Q 1636 1257 1667.5 1256 Q 1699 1255 1713 1261 L 1754 1277 L 1753 1325 L 1426 1368 L 1323 1381 Q 1233 1391 1182.5 1396 Q 1132 1401 1119 1397 L 1060 1385 L 1055 1327 Z"/><path d="M 1315 1303 Q 1313 1264 1311.5 1225 Q 1310 1186 1302.5 1165 Q 1295 1144 1290 1136.5 Q 1285 1129 1279 1125.5 Q 1273 1122 1260 1121.5 L 1389 1108 Q 1424 1116 1432.5 1124.5 Q 1441 1133 1443 1137.5 Q 1445 1142 1445.5 1146.5 Q 1446 1151 1433 1210 Q 1429 1228 1429 1274 L 1429 1283 L 1426 1368 L 1422 1534 Q 1369.5 1591.5 1329 1545 L 1323 1381 L 1315 1303 Z"/><path d="M 1644 1596 L 1209 1628 Q 1145 1633 1112 1626 L 1073 1619 L 1073 1559 L 1329 1545 L 1422 1534 Q 1507 1526 1553 1520 Q 1599 1514 1619 1513 Q 1649 1512 1669 1518.5 Q 1689 1525 1698 1533 L 1726 1558 L 1644 1596 Z"/></g></g><g transform="translate(60.000,0.000)"><path class="patch-outline" d="M 50.000 25.000 L 49.880 27.450 L 49.520 29.877 L 48.924 32.257 L 48.097 34.567 L 47.048 36.785 L 45.787 38.889 L 44.325 40.860 L 42.678 42.678 L 40.860 44.325 L 38.889 45.787 L 36.785 47.048 L 34.567 48.097 L 32.257 48.924 L 29.877 49.520 L 27.450 49.880 L 25.000 50.000 L 22.550 49.880 L 20.123 49.520 L 17.743 48.924 L 15.433 48.097 L 13.215 47.048 L 11.111 45.787 L 9.140 44.325 L 7.322 42.678 L 5.675 40.860 L 4.213 38.889 L 2.952 36.785 L 1.903 34.567 L 1.076 32.257 L 0.480 29.877 L 0.120 27.450 L 0.000 25.000 L 0.120 22.550 L 0.480 20.123 L 1.076 17.743 L 1.903 15.433 L 2.952 13.215 L 4.213 11.111 L 5.675 9.140 L 7.322 7.322 L 9.140 5.675 L 11.111 4.213 L 13.215 2.952 L 15.433 1.903 L 17.743 1.076 L 20.123 0.480 L 22.550 0.120 L 25.000 0.000 L 27.450 0.120 L 29.877 0.480 L 32.257 1.076 L 34.567 1.903 L 36.785 2.952 L 38.889 4.213 L 40.860 5.675 L 42.678 7.322 L 44.325 9.140 L 45.787 11.111 L 47.048 13.215 L 48.097 15.433 L 48.924 17.743 L 49.520 20.123 L 49.880 22.550 Z"/><g transform="translate(10.000,10.000) scale(0.014648)"><path d="M 586 351 L 522 273 Q 508 257 510 252 Q 512 247 518.5 243 Q 525 239 543 240 Q 569 243 595 248 Q 621 253 653.5 264 Q 686 275 727.5 297.5 Q 769 320 783 344.5 Q 797 369 797 406 Q 796 433 788 449 Q 780 465 769.5 471 Q 759 477 741 476 Q 724 476 705 468 Q 686 460 654 428 Q 622 396 586 351 Z"/><path d="M 563 1078 Q 505 1147 458 1195.5 Q 411 1244 341.5 1291 Q 272 1338 207 1368 L 150 1395 Q 132 1404 125 1394 Q 118 1384 133 1372 L 177 1338 Q 205 1317 258 1268.5 Q 311 1220 368.5 1157 Q 426 1094 516 977 Q 606 860 635 819 L 692 739 Q 711 712 704 705 Q 697 698 677 698.5 Q 657 699 637 705 L 399 784 Q 328 808 312 807.5 Q 296 807 262.5 789 Q 229 771 210.5 752.5 Q 192 734 197 727.5 Q 202 721 212 717 L 277 710 L 434 682 Q 531 665 598.5 640.5 Q 666 616 692.5 602.5 Q 719 589 726 585.5 Q 733 582 741 581 Q 757 580 797.5 601 Q 838 622 864.5 641 Q 891 660 893 679.5 Q 895 699 880 719 Q 877 723 839.5 751.5 Q 802 780 762 830 Q 722 880 689 923 L 615 1019 L 563 1078 Z"/><path d="M 615 1019 Q 633 1042 647.5 1061.5 Q 662 1081 667 1095 L 674 1116 Q 676 1130.5 662 1145 Q 656 1215 650.5 1292 Q 645 1369 649 1456 L 654 1596 Q 655 1638 653.5 1668.5 Q 652 1699 646.5 1723.5 Q 641 1748 631.5 1771.5 Q 622 1795 614.5 1802 Q 607 1809 598 1810 Q 589 1811 573 1789 Q 550 1761 539.5 1734 Q 529 1707 523 1681.5 Q 517 1656 518 1638 Q 518 1629 531.5 1579.5 Q 545 1530 553 1456.5 Q 561 1383 561 1345 L 563 1078 L 615 1019 Z"/><path d="M 674 1116 Q 756 1134 796 1148 Q 836 1162 857 1178.5 Q 878 1195 884 1210 Q 890 1225 891.5 1245 Q 893 1265 881 1286 Q 869 1307 854 1308.5 Q 839 1310 824 1302.5 Q 809 1295 791 1278 L 717 1202 L 662 1145 L 674 1116 Z"/><path d="M 1184 368 L 1394 329 L 1542 291 Q 1563 287 1578 288 Q 1590 289 1634 304 Q 1678 319 1683 330.5 Q 1688 342 1688.5 347.5 Q 1689 353 1689 355 Q 1687 364 1669.5 372 Q 1652 380 1614 387 L 1478 414 L 1250 447 Q 1201 455 1155 454.5 Q 1109 454 1061.5 444 Q 1014 434 1009 419 Q 1004 404 1003.5 399 Q 1003 394 1005 392 Q 1006 390 1010.5 388.5 Q 1015 387 1060.5 385 Q 1106 383 1184 368 Z"/><path d="M 1181 929 Q 1176 947 1169 958.5 Q 1162 970 1153 969 Q 1150 969 1143 966 Q 1136 963 1125.5 952.5 Q 1115 942 1107 904 L 1070 748 Q 1059 704 1051 694.5 Q 1043 685 1024.5 672 Q 1006 659 1003.5 655.5 Q 1001 652 1002 648 Q 1002 647 1003 642.5 Q 1004 638 1005.5 636.5 Q 1007 635 1019 632.5 Q 1031 630 1051 630 L 1114 631 Q 1158.5 641 1159 687 L 1184 863 Q 1186.5 894 1181 929 Z"/><path d="M 1114 631 Q 1159 626 1219.5 619 Q 1280 612 1326 604 L 1437 583 Q 1522 568 1554 555.5 Q 1586 543 1597 542 Q 1605 542 1622 546 Q 1639 550 1683 573.5 Q 1727 597 1738 608 Q 1749 619 1749.5 624.5 Q 1750 630 1745 638 Q 1741 644 1727.5 658.5 Q 1714 673 1704.5 687 Q 1695 701 1677.5 742.5 Q 1660 784 1658 789 L 1636 843 Q 1571 884.5 1550 814 L 1572 705 Q 1580 664 1578.5 651 Q 1577 638 1570.5 630.5 Q 1564 623 1533 626 L 1430 635 L 1345 651 L 1228 675 L 1159 687 L 1114 631 Z"/><path d="M 1636 843 Q 1647 856 1654.5 867.5 Q 1662 879 1659 885.5 Q 1656 892 1641 892 L 1574 895 L 1406 910 L 1181 929 L 1184 863 Q 1348 843 1386 837 L 1550 814 L 1636 843 Z"/><path d="M 1073 1619 Q 1071 1648 1064.5 1664.5 Q 1058 1681 1052 1682 Q 1046 1683 1042 1682 Q 1031 1681 1023.5 1676.5 Q 1016 1672 1003 1650.5 Q 990 1629 986 1588 L 948 1232 Q 943 1190 932.5 1167.5 Q 922 1145 906.5 1126.5 Q 891 1108 889 1102 Q 887 1096 888 1092 Q 888 1085 894 1076.5 Q 900 1068 934 1075 L 1029 1095 Q 1053.5 1111 1046 1155 L 1055 1327 L 1060 1385 L 1073 1559 L 1073 1619 Z"/><path d="M 1029 1095 Q 1354 1054 1486.5 1036.5 Q 1619 1019 1661.5 1011 Q 1704 1003 1728 995.5 Q 1752 988 1762 987 Q 1771 987 1787.5 991 Q 1804 995 1848 1023.5 Q 1892 1052 1905 1066 Q 1918 1080 1921 1090 Q 1924 1100 1914 1125 Q 1902 1155 1894 1181 Q 1886 1207 1883 1254 L 1871 1442 Q 1866 1510 1858 1550 Q 1850 1590 1832.5 1632 Q 1815 1674 1793.5 1701.5 Q 1772 1729 1751.5 1744.5 Q 1731 1760 1720 1757 Q 1709 1756 1696.5 1739.5 Q 1684 1723 1669 1675 L 1644 1596 Q 1612 1456 1726 1558 Q 1744 1467 1745 1449 L 1753 1325 L 1754 1277 Q 1753 1244 1752.5 1229 Q 1752 1214 1753.5 1173.5 Q 1755 1133 1750 1120 Q 1741 1104 1726.5 1095.5 Q 1712 1087 1679 1087.5 Q 1646 1088 1602 1091 L 1389 1108 L 1279 1125.5 Q 1273 1122 1260 1121.5 Q 1247 1121 1223 1125 L 1046 1155 L 1029 1095 Z"/><path d="M 1055 1327 L 1315 1303 L 1429 1283 Q 1542 1268 1589 1262.5 Q 1636 1257 1667.5 1256 Q 1699 1255 1713 1261 L 1754 1277 L 1753 1325 L 1426 1368 L 1323 1381 Q 1233 1391 1182.5 1396 Q 1132 1401 1119 1397 L 1060 1385 L 1055 1327 Z"/><path d="M 1315 1303 Q 1313 1264 1311.5 1225 Q 1310 1186 1302.5 1165 Q 1295 1144 1290 1136.5 Q 1285 1129 1279 1125.5 Q 1273 1122 1260 1121.5 L 1389 1108 Q 1424 1116 1432.5 1124.5 Q 1441 1133 1443 1137.5 Q 1445 1142 1445.5 1146.5 Q 1446 1151 1433 1210 Q 1429 1228 1429 1274 L 1429 1283 L 1426 1368 L 1422 1534 Q 1369.5 1591.5 1329 1545 L 1323 1381 L 1315 1303 Z"/><path d="M 1644 1596 L 1209 1628 Q 1145 1633 1112 1626 L 1073 1619 L 1073 1559 L 1329 1545 L 1422 1534 Q 1507 1526 1553 1520 Q 1599 1514 1619 1513 Q 1649 1512 1669 1518.5 Q 1689 1525 1698 1533 L 1726 1558 L 1644 1596 Z"/></g></g><g transform="translate(120.000,0.000)"><path class="patch-outline" d="M 50.000 25.000 L 49.880 27.450 L 49.520 29.877 L 48.924 32.257 L 48.097 34.567 L 47.048 36.785 L 45.787 38.889 L 44.325 40.860 L 42.678 42.678 L 40.860 44.325 L 38.889 45.787 L 36.785 47.048 L 34.567 48.097 L 32.257 48.924 L 29.877 49.520 L 27.450 49.880 L 25.000 50.000 L 22.550 49.880 L 20.123 49.520 L 17.743 48.924 L 15.433 48.097 L 13.215 47.048 L 11.111 45.787 L 9.140 44.325 L 7.322 42.678 L 5.675 40.860 L 4.213 38.889 L 2.952 36.785 L 1.903 34.567 L 1.076 32.257 L 0.480 29.877 L 0.120 27.450 L 0.000 25.000 L 0.120 22.550 L 0.480 20.123 L 1.076 17.743 L 1.903 15.433 L 2.952 13.215 L 4.213 11.111 L 5.675 9.140 L 7.322 7.322 L 9.140 5.675 L 11.111 4.213 L 13.215 2.952 L 15.433 1.903 L 17.743 1.076 L 20.123 0.480 L 22.550 0.120 L 25.000 0.000 L 27.450 0.120 L 29.877 0.480 L 32.257 1.076 L 34.567 1.903 L 36.785 2.952 L 38.889 4.213 L 40.860 5.675 L 42.678 7.322 L 44.325 9.140 L 45.787 11.111 L 47.048 13.215 L 48.097 15.433 L 48.924 17.743 L 49.520 20.123 L 49.880 22.550 Z"/><g transform="translate(10.000,10.000) scale(0.014648)"><path d="M 586 351 L 522 273 Q 508 257 510 252 Q 512 247 518.5 243 Q 525 239 543 240 Q 569 243 595 248 Q 621 253 653.5 264 Q 686 275 727.5 297.5 Q 769 320 783 344.5 Q 797 369 797 406 Q 796 433 788 449 Q 780 465 769.5 471 Q 759 477 741 476 Q 724 476 705 468 Q 686 460 654 428 Q 622 396 586 351 Z"/><path d="M 563 1078 Q 505 1147 458 1195.5 Q 411 1244 341.5 1291 Q 272 1338 207 1368 L 150 1395 Q 132 1404 125 1394 Q 118 1384 133 1372 L 177 1338 Q 205 1317 258 1268.5 Q 311 1220 368.5 1157 Q 426 1094 516 977 Q 606 860 635 819 L 692 739 Q 711 712 704 705 Q 697 698 677 698.5 Q 657 699 637 705 L 399 784 Q 328 808 312 807.5 Q 296 807 262.5 789 Q 229 771 210.5 752.5 Q 192 734 197 727.5 Q 202 721 212 717 L 277 710 L 434 682 Q 531 665 598.5 640.5 Q 666 616 692.5 602.5 Q 719 589 726 585.5 Q 733 582 741 581 Q 757 580 797.5 601 Q 838 622 864.5 641 Q 891 660 893 679.5 Q 895 699 880 719 Q 877 723 839.5 751.5 Q 802 780 762 830 Q 722 880 689 923 L 615 1019 L 563 1078 Z"/><path d="M 615 1019 Q 633 1042 647.5 1061.5 Q 662 1081 667 1095 L 674 1116 Q 676 1130.5 662 1145 Q 656 1215 650.5 1292 Q 645 1369 649 1456 L 654 1596 Q 655 1638 653.5 1668.5 Q 652 1699 646.5 1723.5 Q 641 1748 631.5 1771.5 Q 622 1795 614.5 1802 Q 607 1809 598 1810 Q 589 1811 573 1789 Q 550 1761 539.5 1734 Q 529 1707 523 1681.5 Q 517 1656 518 1638 Q 518 1629 531.5 1579.5 Q 545 1530 553 1456.5 Q 561 1383 561 1345 L 563 1078 L 615 1019 Z"/><path d="M 674 1116 Q 756 1134 796 1148 Q 836 1162 857 1178.5 Q 878 1195 884 1210 Q 890 1225 891.5 1245 Q 893 1265 881 1286 Q 869 1307 854 1308.5 Q 839 1310 824 1302.5 Q 809 1295 791 1278 L 717 1202 L 662 1145 L 674 1116 Z"/><path d="M 1184 368 L 1394 329 L 1542 291 Q 1563 287 1578 288 Q 1590 289 1634 304 Q 1678 319 1683 330.5 Q 1688 342 1688.5 347.5 Q 1689 353 1689 355 Q 1687 364 1669.5 372 Q 1652 380 1614 387 L 1478 414 L 1250 447 Q 1201 455 1155 454.5 Q 1109 454 1061.5 444 Q 1014 434 1009 419 Q 1004 404 1003.5 399 Q 1003 394 1005 392 Q 1006 390 1010.5 388.5 Q 1015 387 1060.5 385 Q 1106 383 1184 368 Z"/><path d="M 1181 929 Q 1176 947 1169 958.5 Q 1162 970 1153 969 Q 1150 969 1143 966 Q 1136 963 1125.5 952.5 Q 1115 942 1107 904 L 1070 748 Q 1059 704 1051 694.5 Q 1043 685 1024.5 672 Q 1006 659 1003.5 655.5 Q 1001 652 1002 648 Q 1002 647 1003 642.5 Q 1004 638 1005.5 636.5 Q 1007 635 1019 632.5 Q 1031 630 1051 630 L 1114 631 Q 1158.5 641 1159 687 L 1184 863 Q 1186.5 894 1181 929 Z"/><path d="M 1114 631 Q 1159 626 1219.5 619 Q 1280 612 1326 604 L 1437 583 Q 1522 568 1554 555.5 Q 1586 543 1597 542 Q 1605 542 1622 546 Q 1639 550 1683 573.5 Q 1727 597 1738 608 Q 1749 619 1749.5 624.5 Q 1750 630 1745 638 Q 1741 644 1727.5 658.5 Q 1714 673 1704.5 687 Q 1695 701 1677.5 742.5 Q 1660 784 1658 789 L 1636 843 Q 1571 884.5 1550 814 L 1572 705 Q 1580 664 1578.5 651 Q 1577 638 1570.5 630.5 Q 1564 623 1533 626 L 1430 635 L 1345 651 L 1228 675 L 1159 687 L 1114 631 Z"/><path d="M 1636 843 Q 1647 856 1654.5 867.5 Q 1662 879 1659 885.5 Q 1656 892 1641 892 L 1574 895 L 1406 910 L 1181 929 L 1184 863 Q 1348 843 1386 837 L 1550 814 L 1636 843 Z"/><path d="M 1073 1619 Q 1071 1648 1064.5 1664.5 Q 1058 1681 1052 1682 Q 1046 1683 1042 1682 Q 1031 1681 1023.5 1676.5 Q 1016 1672 1003 1650.5 Q 990 1629 986 1588 L 948 1232 Q 943 1190 932.5 1167.5 Q 922 1145 906.5 1126.5 Q 891 1108 889 1102 Q 887 1096 888 1092 Q 888 1085 894 1076.5 Q 900 1068 934 1075 L 1029 1095 Q 1053.5 1111 1046 1155 L 1055 1327 L 1060 1385 L 1073 1559 L 1073 1619 Z"/><path d="M 1029 1095 Q 1354 1054 1486.5 1036.5 Q 1619 1019 1661.5 1011 Q 1704 1003 1728 995.5 Q 1752 988 1762 987 Q 1771 987 1787.5 991 Q 1804 995 1848 1023.5 Q 1892 1052 1905 1066 Q 1918 1080 1921 1090 Q 1924 1100 1914 1125 Q 1902 1155 1894 1181 Q 1886 1207 1883 1254 L 1871 1442 Q 1866 1510 1858 1550 Q 1850 1590 1832.5 1632 Q 1815 1674 1793.5 1701.5 Q 1772 1729 1751.5 1744.5 Q 1731 1760 1720 1757 Q 1709 1756 1696.5 1739.5 Q 1684 1723 1669 1675 L 1644 1596 Q 1612 1456 1726 1558 Q 1744 1467 1745 1449 L 1753 1325 L 1754 1277 Q 1753 1244 1752.5 1229 Q 1752 1214 1753.5 1173.5 Q 1755 1133 1750 1120 Q 1741 1104 1726.5 1095.5 Q 1712 1087 1679 1087.5 Q 1646 1088 1602 1091 L 1389 1108 L 1279 1125.5 Q 1273 1122 1260 1121.5 Q 1247 1121 1223 1125 L 1046 1155 L 1029 1095 Z"/><path d="M 1055 1327 L 1315 1303 L 1429 1283 Q 1542 1268 1589 1262.5 Q 1636 1257 1667.5 1256 Q 1699 1255 1713 1261 L 1754 1277 L 1753 1325 L 1426 1368 L 1323 1381 Q 1233 1391 1182.5 1396 Q 1132 1401 1119 1397 L 1060 1385 L 1055 1327 Z"/><path d="M 1315 1303 Q 1313 1264 1311.5 1225 Q 1310 1186 1302.5 1165 Q 1295 1144 1290 1136.5 Q 1285 1129 1279 1125.5 Q 1273 1122 1260 1121.5 L 1389 1108 Q 1424 1116 1432.5 1124.5 Q 1441 1133 1443 1137.5 Q 1445 1142 1445.5 1146.5 Q 1446 1151 1433 1210 Q 1429 1228 1429 1274 L 1429 1283 L 1426 1368 L 1422 1534 Q 1369.5 1591.5 1329 1545 L 1323 1381 L 1315 1303 Z"/><path d="M 1644 1596 L 1209 1628 Q 1145 1633 1112 1626 L 1073 1619 L 1073 1559 L 1329 1545 L 1422 1534 Q 1507 1526 1553 1520 Q 1599 1514 1619 1513 Q 1649 1512 1669 1518.5 Q 1689 1525 1698 1533 L 1726 1558 L 1644 1596 Z"/></g></g><g transform="translate(0.000,60.000)"><path class="patch-outline" d="M 50.000 25.000 L 49.880 27.450 L 49.520 29.877 L 48.924 32.257 L 48.097 34.567 L 47.048 36.785 L 45.787 38.889 L 44.325 40.860 L 42.678 42.678 L 40.860 44.325 L 38.889 45.787 L 36.785 47.048 L 34.567 48.097 L 32.257 48.924 L 29.877 49.520 L 27.450 49.880 L 25.000 50.000 L 22.550 49.880 L 20.123 49.520 L 17.743 48.924 L 15.433 48.097 L 13.215 47.048 L 11.111 45.787 L 9.140 44.325 L 7.322 42.678 L 5.675 40.860 L 4.213 38.889 L 2.952 36.785 L 1.903 34.567 L 1.076 32.257 L 0.480 29.877 L 0.120 27.450 L 0.000 25.000 L 0.120 22.550 L 0.480 20.123 L 1.076 17.743 L 1.903 15.433 L 2.952 13.215 L 4.213 11.111 L 5.675 9.140 L 7.322 7.322 L 9.140 5.675 L 11.111 4.213 L 13.215 2.952 L 15.433 1.903 L 17.743 1.076 L 20.123 0.480 L 22.550 0.120 L 25.000 0.000 L 27.450 0.120 L 29.877 0.480 L 32.257 1.076 L 34.567 1.903 L 36.785 2.952 L 38.889 4.213 L 40.860 5.675 L 42.678 7.322 L 44.325 9.140 L 45.787 11.111 L 47.048 13.215 L 48.097 15.433 L 48.924 17.743 L 49.520 20.123 L 49.880 22.550 Z"/><g transform="translate(10.000,10.000) scale(0.014648)"><path d="M 586 351 L 522 273 Q 508 257 510 252 Q 512 247 518.5 243 Q 525 239 543 240 Q 569 243 595 248 Q 621 253 653.5 264 Q 686 275 727.5 297.5 Q 769 320 783 344.5 Q 797 369 797 406 Q 796 433 788 449 Q 780 465 769.5 471 Q 759 477 741 476 Q 724 476 705 468 Q 686 460 654 428 Q 622 396 586 351 Z"/><path d="M 563 1078 Q 505 1147 458 1195.5 Q 411 1244 341.5 1291 Q 272 1338 207 1368 L 150 1395 Q 132 1404 125 1394 Q 118 1384 133 1372 L 177 1338 Q 205 1317 258 1268.5 Q 311 1220 368.5 1157 Q 426 1094 516 977 Q 606 860 635 819 L 692 739 Q 711 712 704 705 Q 697 698 677 698.5 Q 657 699 637 705 L 399 784 Q 328 808 312 807.5 Q 296 807 262.5 789 Q 229 771 210.5 752.5 Q 192 734 197 727.5 Q 202 721 212 717 L 277 710 L 434 682 Q 531 665 598.5 640.5 Q 666 616 692.5 602.5 Q 719 589 726 585.5 Q 733 582 741 581 Q 757 580 797.5 601 Q 838 622 864.5 641 Q 891 660 893 679.5 Q 895 699 880 719 Q 877 723 839.5 751.5 Q 802 780 762 830 Q 722 880 689 923 L 615 1019 L 563 1078 Z"/><path d="M 615 1019 Q 633 1042 647.5 1061.5 Q 662 1081 667 1095 L 674 1116 Q 676 1130.5 662 1145 Q 656 1215 650.5 1292 Q 645 1369 649 1456 L 654 1596 Q 655 1638 653.5 1668.5 Q 652 1699 646.5 1723.5 Q 641 1748 631.5 1771.5 Q 622 1795 614.5 1802 Q 607 1809 598 1810 Q 589 1811 573 1789 Q 550 1761 539.5 1734 Q 529 1707 523 1681.5 Q 517 1656 518 1638 Q 518 1629 531.5 1579.5 Q 545 1530 553 1456.5 Q 561 1383 561 1345 L 563 1078 L 615 1019 Z"/><path d="M 674 1116 Q 756 1134 796 1148 Q 836 1162 857 1178.5 Q 878 1195 884 1210 Q 890 1225 891.5 1245 Q 893 1265 881 1286 Q 869 1307 854 1308.5 Q 839 1310 824 1302.5 Q 809 1295 791 1278 L 717 1202 L 662 1145 L 674 1116 Z"/><path d="M 1184 368 L 1394 329 L 1542 291 Q 1563 287 1578 288 Q 1590 289 1634 304 Q 1678 319 1683 330.5 Q 1688 342 1688.5 347.5 Q 1689 353 1689 355 Q 1687 364 1669.5 372 Q 1652 380 1614 387 L 1478 414 L 1250 447 Q 1201 455 1155 454.5 Q 1109 454 1061.5 444 Q 1014 434 1009 419 Q 1004 404 1003.5 399 Q 1003 394 1005 392 Q 1006 390 1010.5 388.5 Q 1015 387 1060.5 385 Q 1106 383 1184 368 Z"/><path d="M 1181 929 Q 1176 947 1169 958.5 Q 1162 970 1153 969 Q 1150 969 1143 966 Q 1136 963 1125.5 952.5 Q 1115 942 1107 904 L 1070 748 Q 1059 704 1051 694.5 Q 1043 685 1024.5 672 Q 1006 659 1003.5 655.5 Q 1001 652 1002 648 Q 1002 647 1003 642.5 Q 1004 638 1005.5 636.5 Q 1007 635 1019 632.5 Q 1031 630 1051 630 L 1114 631 Q 1158.5 641 1159 687 L 1184 863 Q 1186.5 894 1181 929 Z"/><path d="M 1114 631 Q 1159 626 1219.5 619 Q 1280 612 1326 604 L 1437 583 Q 1522 568 1554 555.5 Q 1586 543 1597 542 Q 1605 542 1622 546 Q 1639 550 1683 573.5 Q 1727 597 1738 608 Q 1749 619 1749.5 624.5 Q 1750 630 1745 638 Q 1741 644 1727.5 658.5 Q 1714 673 1704.5 687 Q 1695 701 1677.5 742.5 Q 1660 784 1658 789 L 1636 843 Q 1571 884.5 1550 814 L 1572 705 Q 1580 664 1578.5 651 Q 1577 638 1570.5 630.5 Q 1564 623 1533 626 L 1430 635 L 1345 651 L 1228 675 L 1159 687 L 1114 631 Z"/><path d="M 1636 843 Q 1647 856 1654.5 867.5 Q 1662 879 1659 885.5 Q 1656 892 1641 892 L 1574 895 L 1406 910 L 1181 929 L 1184 863 Q 1348 843 1386 837 L 1550 814 L 1636 843 Z"/><path d="M 1073 1619 Q 1071 1648 1064.5 1664.5 Q 1058 1681 1052 1682 Q 1046 1683 1042 1682 Q 1031 1681 1023.5 1676.5 Q 1016 1672 1003 1650.5 Q 990 1629 986 1588 L 948 1232 Q 943 1190 932.5 1167.5 Q 922 1145 906.5 1126.5 Q 891 1108 889 1102 Q 887 1096 888 1092 Q 888 1085 894 1076.5 Q 900 1068 934 1075 L 1029 1095 Q 1053.5 1111 1046 1155 L 1055 1327 L 1060 1385 L 1073 1559 L 1073 1619 Z"/><path d="M 1029 1095 Q 1354 1054 1486.5 1036.5 Q 1619 1019 1661.5 1011 Q 1704 1003 1728 995.5 Q 1752 988 1762 987 Q 1771 987 1787.5 991 Q 1804 995 1848 1023.5 Q 1892 1052 1905 1066 Q 1918 1080 1921 1090 Q 1924 1100 1914 1125 Q 1902 1155 1894 1181 Q 1886 1207 1883 1254 L 1871 1442 Q 1866 1510 1858 1550 Q 1850 1590 1832.5 1632 Q 1815 1674 1793.5 1701.5 Q 1772 1729 1751.5 1744.5 Q 1731 1760 1720 1757 Q 1709 1756 1696.5 1739.5 Q 1684 1723 1669 1675 L 1644 1596 Q 1612 1456 1726 1558 Q 1744 1467 1745 1449 L 1753 1325 L 1754 1277 Q 1753 1244 1752.5 1229 Q 1752 1214 1753.5 1173.5 Q 1755 1133 1750 1120 Q 1741 1104 1726.5 1095.5 Q 1712 1087 1679 1087.5 Q 1646 1088 1602 1091 L 1389 1108 L 1279 1125.5 Q 1273 1122 1260 1121.5 Q 1247 1121 1223 1125 L 1046 1155 L 1029 1095 Z"/><path d="M 1055 1327 L 1315 1303 L 1429 1283 Q 1542 1268 1589 1262.5 Q 1636 1257 1667.5 1256 Q 1699 1255 1713 1261 L 1754 1277 L 1753 1325 L 1426 1368 L 1323 1381 Q 1233 1391 1182.5 1396 Q 1132 1401 1119 1397 L 1060 1385 L 1055 1327 Z"/><path d="M 1315 1303 Q 1313 1264 1311.5 1225 Q 1310 1186 1302.5 1165 Q 1295 1144 1290 1136.5 Q 1285 1129 1279 1125.5 Q 1273 1122 1260 1121.5 L 1389 1108 Q 1424 1116 1432.5 1124.5 Q 1441 1133 1443 1137.5 Q 1445 1142 1445.5 1146.5 Q 1446 1151 1433 1210 Q 1429 1228 1429 1274 L 1429 1283 L 1426 1368 L 1422 1534 Q 1369.5 1591.5 1329 1545 L 1323 1381 L 1315 1303 Z"/><path d="M 1644 1596 L 1209 1628 Q 1145 1633 1112 1626 L 1073 1619 L 1073 1559 L 1329 1545 L 1422 1534 Q 1507 1526 1553 1520 Q 1599 1514 1619 1513 Q 1649 1512 1669 1518.5 Q 1689 1525 1698 1533 L 1726 1558 L 1644 1596 Z"/></g></g><g transform="translate(60.000,60.000)"><path class="patch-outline" d="M 50.000 25.000 L 49.880 27.450 L 49.520 29.877 L 48.924 32.257 L 48.097 34.567 L 47.048 36.785 L 45.787 38.889 L 44.325 40.860 L 42.678 42.678 L 40.860 44.325 L 38.889 45.787 L 36.785 47.048 L 34.567 48.097 L 32.257 48.924 L 29.877 49.520 L 27.450 49.880 L 25.000 50.000 L 22.550 49.880 L 20.123 49.520 L 17.743 48.924 L 15.433 48.097 L 13.215 47.048 L 11.111 45.787 L 9.140 44.325 L 7.322 42.678 L 5.675 40.860 L 4.213 38.889 L 2.952 36.785 L 1.903 34.567 L 1.076 32.257 L 0.480 29.877 L 0.120 27.450 L 0.000 25.000 L 0.120 22.550 L 0.480 20.123 L 1.076 17.743 L 1.903 15.433 L 2.952 13.215 L 4.213 11.111 L 5.675 9.140 L 7.322 7.322 L 9.140 5.675 L 11.111 4.213 L 13.215 2.952 L 15.433 1.903 L 17.743 1.076 L 20.123 0.480 L 22.550 0.120 L 25.000 0.000 L 27.450 0.120 L 29.877 0.480 L 32.257 1.076 L 34.567 1.903 L 36.785 2.952 L 38.889 4.213 L 40.860 5.675 L 42.678 7.322 L 44.325 9.140 L 45.787 11.111 L 47.048 13.215 L 48.097 15.433 L 48.924 17.743 L 49.520 20.123 L 49.880 22.550 Z"/><g transform="translate(10.000,10.000) scale(0.014648)"><path d="M 586 351 L 522 273 Q 508 257 510 252 Q 512 247 518.5 243 Q 525 239 543 240 Q 569 243 595 248 Q 621 253 653.5 264 Q 686 275 727.5 297.5 Q 769 320 783 344.5 Q 797 369 797 406 Q 796 433 788 449 Q 780 465 769.5 471 Q 759 477 741 476 Q 724 476 705 468 Q 686 460 654 428 Q 622 396 586 351 Z"/><path d="M 563 1078 Q 505 1147 458 1195.5 Q 411 1244 341.5 1291 Q 272 1338 207 1368 L 150 1395 Q 132 1404 125 1394 Q 118 1384 133 1372 L 177 1338 Q 205 1317 258 1268.5 Q 311 1220 368.5 1157 Q 426 1094 516 977 Q 606 860 635 819 L 692 739 Q 711 712 704 705 Q 697 698 677 698.5 Q 657 699 637 705 L 399 784 Q 328 808 312 807.5 Q 296 807 262.5 789 Q 229 771 210.5 752.5 Q 192 734 197 727.5 Q 202 721 212 717 L 277 710 L 434 682 Q 531 665 598.5 640.5 Q 666 616 692.5 602.5 Q 719 589 726 585.5 Q 733 582 741 581 Q 757 580 797.5 601 Q 838 622 864.5 641 Q 891 660 893 679.5 Q 895 699 880 719 Q 877 723 839.5 751.5 Q 802 780 762 830 Q 722 880 689 923 L 615 1019 L 563 1078 Z"/><path d="M 615 1019 Q 633 1042 647.5 1061.5 Q 662 1081 667 1095 L 674 1116 Q 676 1130.5 662 1145 Q 656 1215 650.5 1292 Q 645 1369 649 1456 L 654 1596 Q 655 1638 653.5 1668.5 Q 652 1699 646.5 1723.5 Q 641 1748 631.5 1771.5 Q 622 1795 614.5 1802 Q 607 1809 598 1810 Q 589 1811 573 1789 Q 550 1761 539.5 1734 Q 529 1707 523 1681.5 Q 517 1656 518 1638 Q 518 1629 531.5 1579.5 Q 545 1530 553 1456.5 Q 561 1383 561 1345 L 563 1078 L 615 1019 Z"/><path d="M 674 1116 Q 756 1134 796 1148 Q 836 1162 857 1178.5 Q 878 1195 884 1210 Q 890 1225 891.5 1245 Q 893 1265 881 1286 Q 869 1307 854 1308.5 Q 839 1310 824 1302.5 Q 809 1295 791 1278 L 717 1202 L 662 1145 L 674 1116 Z"/><path d="M 1184 368 L 1394 329 L 1542 291 Q 1563 287 1578 288 Q 1590 289 1634 304 Q 1678 319 1683 330.5 Q 1688 342 1688.5 347.5 Q 1689 353 1689 355 Q 1687 364 1669.5 372 Q 1652 380 1614 387 L 1478 414 L 1250 447 Q 1201 455 1155 454.5 Q 1109 454 1061.5 444 Q 1014 434 1009 419 Q 1004 404 1003.5 399 Q 1003 394 1005 392 Q 1006 390 1010.5 388.5 Q 1015 387 1060.5 385 Q 1106 383 1184 368 Z"/><path d="M 1181 929 Q 1176 947 1169 958.5 Q 1162 970 1153 969 Q 1150 969 1143 966 Q 1136 963 1125.5 952.5 Q 1115 942 1107 904 L 1070 748 Q 1059 704 1051 694.5 Q 1043 685 1024.5 672 Q 1006 659 1003.5 655.5 Q 1001 652 1002 648 Q 1002 647 1003 642.5 Q 1004 638 1005.5 636.5 Q 1007 635 1019 632.5 Q 1031 630 1051 630 L 1114 631 Q 1158.5 641 1159 687 L 1184 863 Q 1186.5 894 1181 929 Z"/><path d="M 1114 631 Q 1159 626 1219.5 619 Q 1280 612 1326 604 L 1437 583 Q 1522 568 1554 555.5 Q 1586 543 1597 542 Q 1605 542 1622 546 Q 1639 550 1683 573.5 Q 1727 597 1738 608 Q 1749 619 1749.5 624.5 Q 1750 630 1745 638 Q 1741 644 1727.5 658.5 Q 1714 673 1704.5 687 Q 1695 701 1677.5 742.5 Q 1660 784 1658 789 L 1636 843 Q 1571 884.5 1550 814 L 1572 705 Q 1580 664 1578.5 651 Q 1577 638 1570.5 630.5 Q 1564 623 1533 626 L 1430 635 L 1345 651 L 1228 675 L 1159 687 L 1114 631 Z"/><path d="M 1636 843 Q 1647 856 1654.5 867.5 Q 1662 879 1659 885.5 Q 1656 892 1641 892 L 1574 895 L 1406 910 L 1181 929 L 1184 863 Q 1348 843 1386 837 L 1550 814 L 1636 843 Z"/><path d="M 1073 1619 Q 1071 1648 1064.5 1664.5 Q 1058 1681 1052 1682 Q 1046 1683 1042 1682 Q 1031 1681 1023.5 1676.5 Q 1016 1672 1003 1650.5 Q 990 1629 986 1588 L 948 1232 Q 943 1190 932.5 1167.5 Q 922 1145 906.5 1126.5 Q 891 1108 889 1102 Q 887 1096 888 1092 Q 888 1085 894 1076.5 Q 900 1068 934 1075 L 1029 1095 Q 1053.5 1111 1046 1155 L 1055 1327 L 1060 1385 L 1073 1559 L 1073 1619 Z"/><path d="M 1029 1095 Q 1354 1054 1486.5 1036.5 Q 1619 1019 1661.5 1011 Q 1704 1003 1728 995.5 Q 1752 988 1762 987 Q 1771 987 1787.5 991 Q 1804 995 1848 1023.5 Q 1892 1052 1905 1066 Q 1918 1080 1921 1090 Q 1924 1100 1914 1125 Q 1902 1155 1894 1181 Q 1886 1207 1883 1254 L 1871 1442 Q 1866 1510 1858 1550 Q 1850 1590 1832.5 1632 Q 1815 1674 1793.5 1701.5 Q 1772 1729 1751.5 1744.5 Q 1731 1760 1720 1757 Q 1709 1756 1696.5 1739.5 Q 1684 1723 1669 1675 L 1644 1596 Q 1612 1456 1726 1558 Q 1744 1467 1745 1449 L 1753 1325 L 1754 1277 Q 1753 1244 1752.5 1229 Q 1752 1214 1753.5 1173.5 Q 1755 1133 1750 1120 Q 1741 1104 1726.5 1095.5 Q 1712 1087 1679 1087.5 Q 1646 1088 1602 1091 L 1389 1108 L 1279 1125.5 Q 1273 1122 1260 1121.5 Q 1247 1121 1223 1125 L 1046 1155 L 1029 1095 Z"/><path d="M 1055 1327 L 1315 1303 L 1429 1283 Q 1542 1268 1589 1262.5 Q 1636 1257 1667.5 1256 Q 1699 1255 1713 1261 L 1754 1277 L 1753 1325 L 1426 1368 L 1323 1381 Q 1233 1391 1182.5 1396 Q 1132 1401 1119 1397 L 1060 1385 L 1055 1327 Z"/><path d="M 1315 1303 Q 1313 1264 1311.5 1225 Q 1310 1186 1302.5 1165 Q 1295 1144 1290 1136.5 Q 1285 1129 1279 1125.5 Q 1273 1122 1260 1121.5 L 1389 1108 Q 1424 1116 1432.5 1124.5 Q 1441 1133 1443 1137.5 Q 1445 1142 1445.5 1146.5 Q 1446 1151 1433 1210 Q 1429 1228 1429 1274 L 1429 1283 L 1426 1368 L 1422 1534 Q 1369.5 1591.5 1329 1545 L 1323 1381 L 1315 1303 Z"/><path d="M 1644 1596 L 1209 1628 Q 1145 1633 1112 1626 L 1073 1619 L 1073 1559 L 1329 1545 L 1422 1534 Q 1507 1526 1553 1520 Q 1599 1514 1619 1513 Q 1649 1512 1669 1518.5 Q 1689 1525 1698 1533 L 1726 1558 L 1644 1596 Z"/></g></g><g transform="translate(120.000,60.000)"><path class="patch-outline" d="M 50.000 25.000 L 49.880 27.450 L 49.520 29.877 L 48.924 32.257 L 48.097 34.567 L 47.048 36.785 L 45.787 38.889 L 44.325 40.860 L 42.678 42.678 L 40.860 44.325 L 38.889 45.787 L 36.785 47.048 L 34.567 48.097 L 32.257 48.924 L 29.877 49.520 L 27.450 49.880 L 25.000 50.000 L 22.550 49.880 L 20.123 49.520 L 17.743 48.924 L 15.433 48.097 L 13.215 47.048 L 11.111 45.787 L 9.140 44.325 L 7.322 42.678 L 5.675 40.860 L 4.213 38.889 L 2.952 36.785 L 1.903 34.567 L 1.076 32.257 L 0.480 29.877 L 0.120 27.450 L 0.000 25.000 L 0.120 22.550 L 0.480 20.123 L 1.076 17.743 L 1.903 15.433 L 2.952 13.215 L 4.213 11.111 L 5.675 9.140 L 7.322 7.322 L 9.140 5.675 L 11.111 4.213 L 13.215 2.952 L 15.433 1.903 L 17.743 1.076 L 20.123 0.480 L 22.550 0.120 L 25.000 0.000 L 27.450 0.120 L 29.877 0.480 L 32.257 1.076 L 34.567 1.903 L 36.785 2.952 L 38.889 4.213 L 40.860 5.675 L 42.678 7.322 L 44.325 9.140 L 45.787 11.111 L 47.048 13.215 L 48.097 15.433 L 48.924 17.743 L 49.520 20.123 L 49.880 22.550 Z"/><g transform="translate(10.000,10.000) scale(0.014648)"><path d="M 586 351 L 522 273 Q 508 257 510 252 Q 512 247 518.5 243 Q 525 239 543 240 Q 569 243 595 248 Q 621 253 653.5 264 Q 686 275 727.5 297.5 Q 769 320 783 344.5 Q 797 369 797 406 Q 796 433 788 449 Q 780 465 769.5 471 Q 759 477 741 476 Q 724 476 705 468 Q 686 460 654 428 Q 622 396 586 351 Z"/><path d="M 563 1078 Q 505 1147 458 1195.5 Q 411 1244 341.5 1291 Q 272 1338 207 1368 L 150 1395 Q 132 1404 125 1394 Q 118 1384 133 1372 L 177 1338 Q 205 1317 258 1268.5 Q 311 1220 368.5 1157 Q 426 1094 516 977 Q 606 860 635 819 L 692 739 Q 711 712 704 705 Q 697 698 677 698.5 Q 657 699 637 705 L 399 784 Q 328 808 312 807.5 Q 296 807 262.5 789 Q 229 771 210.5 752.5 Q 192 734 197 727.5 Q 202 721 212 717 L 277 710 L 434 682 Q 531 665 598.5 640.5 Q 666 616 692.5 602.5 Q 719 589 726 585.5 Q 733 582 741 581 Q 757 580 797.5 601 Q 838 622 864.5 641 Q 891 660 893 679.5 Q 895 699 880 719 Q 877 723 839.5 751.5 Q 802 780 762 830 Q 722 880 689 923 L 615 1019 L 563 1078 Z"/><path d="M 615 1019 Q 633 1042 647.5 1061.5 Q 662 1081 667 1095 L 674 1116 Q 676 1130.5 662 1145 Q 656 1215 650.5 1292 Q 645 1369 649 1456 L 654 1596 Q 655 1638 653.5 1668.5 Q 652 1699 646.5 1723.5 Q 641 1748 631.5 1771.5 Q 622 1795 614.5 1802 Q 607 1809 598 1810 Q 589 1811 573 1789 Q 550 1761 539.5 1734 Q 529 1707 523 1681.5 Q 517 1656 518 1638 Q 518 1629 531.5 1579.5 Q 545 1530 553 1456.5 Q 561 1383 561 1345 L 563 1078 L 615 1019 Z"/><path d="M 674 1116 Q 756 1134 796 1148 Q 836 1162 857 1178.5 Q 878 1195 884 1210 Q 890 1225 891.5 1245 Q 893 1265 881 1286 Q 869 1307 854 1308.5 Q 839 1310 824 1302.5 Q 809 1295 791 1278 L 717 1202 L 662 1145 L 674 1116 Z"/><path d="M 1184 368 L 1394 329 L 1542 291 Q 1563 287 1578 288 Q 1590 289 1634 304 Q 1678 319 1683 330.5 Q 1688 342 1688.5 347.5 Q 1689 353 1689 355 Q 1687 364 1669.5 372 Q 1652 380 1614 387 L 1478 414 L 1250 447 Q 1201 455 1155 454.5 Q 1109 454 1061.5 444 Q 1014 434 1009 419 Q 1004 404 1003.5 399 Q 1003 394 1005 392 Q 1006 390 1010.5 388.5 Q 1015 387 1060.5 385 Q 1106 383 1184 368 Z"/><path d="M 1181 929 Q 1176 947 1169 958.5 Q 1162 970 1153 969 Q 1150 969 1143 966 Q 1136 963 1125.5 952.5 Q 1115 942 1107 904 L 1070 748 Q 1059 704 1051 694.5 Q 1043 685 1024.5 672 Q 1006 659 1003.5 655.5 Q 1001 652 1002 648 Q 1002 647 1003 642.5 Q 1004 638 1005.5 636.5 Q 1007 635 1019 632.5 Q 1031 630 1051 630 L 1114 631 Q 1158.5 641 1159 687 L 1184 863 Q 1186.5 894 1181 929 Z"/><path d="M 1114 631 Q 1159 626 1219.5 619 Q 1280 612 1326 604 L 1437 583 Q 1522 568 1554 555.5 Q 1586 543 1597 542 Q 1605 542 1622 546 Q 1639 550 1683 573.5 Q 1727 597 1738 608 Q 1749 619 1749.5 624.5 Q 1750 630 1745 638 Q 1741 644 1727.5 658.5 Q 1714 673 1704.5 687 Q 1695 701 1677.5 742.5 Q 1660 784 1658 789 L 1636 843 Q 1571 884.5 1550 814 L 1572 705 Q 1580 664 1578.5 651 Q 1577 638 1570.5 630.5 Q 1564 623 1533 626 L 1430 635 L 1345 651 L 1228 675 L 1159 687 L 1114 631 Z"/><path d="M 1636 843 Q 1647 856 1654.5 867.5 Q 1662 879 1659 885.5 Q 1656 892 1641 892 L 1574 895 L 1406 910 L 1181 929 L 1184 863 Q 1348 843 1386 837 L 1550 814 L 1636 843 Z"/><path d="M 1073 1619 Q 1071 1648 1064.5 1664.5 Q 1058 1681 1052 1682 Q 1046 1683 1042 1682 Q 1031 1681 1023.5 1676.5 Q 1016 1672 1003 1650.5 Q 990 1629 986 1588 L 948 1232 Q 943 1190 932.5 1167.5 Q 922 1145 906.5 1126.5 Q 891 1108 889 1102 Q 887 1096 888 1092 Q 888 1085 894 1076.5 Q 900 1068 934 1075 L 1029 1095 Q 1053.5 1111 1046 1155 L 1055 1327 L 1060 1385 L 1073 1559 L 1073 1619 Z"/><path d="M 1029 1095 Q 1354 1054 1486.5 1036.5 Q 1619 1019 1661.5 1011 Q 1704 1003 1728 995.5 Q 1752 988 1762 987 Q 1771 987 1787.5 991 Q 1804 995 1848 1023.5 Q 1892 1052 1905 1066 Q 1918 1080 1921 1090 Q 1924 1100 1914 1125 Q 1902 1155 1894 1181 Q 1886 1207 1883 1254 L 1871 1442 Q 1866 1510 1858 1550 Q 1850 1590 1832.5 1632 Q 1815 1674 1793.5 1701.5 Q 1772 1729 1751.5 1744.5 Q 1731 1760 1720 1757 Q 1709 1756 1696.5 1739.5 Q 1684 1723 1669 1675 L 1644 1596 Q 1612 1456 1726 1558 Q 1744 1467 1745 1449 L 1753 1325 L 1754 1277 Q 1753 1244 1752.5 1229 Q 1752 1214 1753.5 1173.5 Q 1755 1133 1750 1120 Q 1741 1104 1726.5 1095.5 Q 1712 1087 1679 1087.5 Q 1646 1088 1602 1091 L 1389 1108 L 1279 1125.5 Q 1273 1122 1260 1121.5 Q 1247 1121 1223 1125 L 1046 1155 L 1029 1095 Z"/><path d="M 1055 1327 L 1315 1303 L 1429 1283 Q 1542 1268 1589 1262.5 Q 1636 1257 1667.5 1256 Q 1699 1255 1713 1261 L 1754 1277 L 1753 1325 L 1426 1368 L 1323 1381 Q 1233 1391 1182.5 1396 Q 1132 1401 1119 1397 L 1060 1385 L 1055 1327 Z"/><path d="M 1315 1303 Q 1313 1264 1311.5 1225 Q 1310 1186 1302.5 1165 Q 1295 1144 1290 1136.5 Q 1285 1129 1279 1125.5 Q 1273 1122 1260 1121.5 L 1389 1108 Q 1424 1116 1432.5 1124.5 Q 1441 1133 1443 1137.5 Q 1445 1142 1445.5 1146.5 Q 1446 1151 1433 1210 Q 1429 1228 1429 1274 L 1429 1283 L 1426 1368 L 1422 1534 Q 1369.5 1591.5 1329 1545 L 1323 1381 L 1315 1303 Z"/><path d="M 1644 1596 L 1209 1628 Q 1145 1633 1112 1626 L 1073 1619 L 1073 1559 L 1329 1545 L 1422 1534 Q 1507 1526 1553 1520 Q 1599 1514 1619 1513 Q 1649 1512 1669 1518.5 Q 1689 1525 1698 1533 L 1726 1558 L 1644 1596 Z"/></g></g></g><g id="patch-write" stroke="#c33" stroke-width="0.3" fill="none" stroke-linecap="round" stroke-linejoin="round"><g transform="translate(0.000,0.000)"><g transform="translate(10.000,10.000) scale(0.014648)"><polyline points="522.00,253.00 530.93,259.72 539.86,266.45 548.79,273.17 557.72,279.90 566.66,286.62 575.59,293.34 584.52,300.07 593.45,306.79 602.38,313.52 611.31,320.24 620.24,326.97 629.17,333.69 638.10,340.41 647.03,347.14 655.97,353.86 664.90,360.59 673.83,367.31 682.76,374.03 691.69,380.76 700.62,387.48 709.55,394.21 718.48,400.93 727.41,407.66 736.34,414.38 745.28,421.10 754.21,427.83 763.14,434.55 772.07,441.28 781.00,448.00"/><polyline points="230.00,751.00 291.83,724.60 357.06,695.76 424.00,665.70 490.94,635.65 556.17,606.81 618.00,580.41 674.72,557.66 724.62,539.78 766.00,528.00 873.62,535.69 888.00,601.00 867.98,636.81 830.11,680.62 781.25,730.34 728.26,783.83 678.00,839.00 638.32,888.00 597.11,941.37 554.62,996.88 511.11,1052.30 466.82,1105.41 422.00,1154.00 376.29,1197.47 329.41,1237.48 281.75,1275.19 233.70,1311.74 185.66,1348.29 138.00,1386.00"/><polyline points="608.00,1039.00 607.32,1065.39 606.61,1091.89 605.87,1118.46 605.12,1145.09 604.37,1171.74 603.62,1198.39 602.87,1225.02 602.14,1251.59 601.42,1278.09 600.74,1304.48 600.09,1330.75 599.49,1356.86 598.93,1382.79 598.43,1408.51 598.00,1434.00 597.61,1461.04 597.29,1487.81 597.04,1514.35 596.85,1540.69 596.70,1566.85 596.58,1592.89 596.50,1618.81 596.44,1644.66 596.39,1670.47 596.34,1696.27 596.28,1722.09 596.22,1747.97 596.12,1773.93 596.00,1800.00"/><polyline points="673.00,1130.00 680.00,1134.72 687.00,1139.45 694.00,1144.17 701.00,1148.90 708.00,1153.62 715.00,1158.34 722.00,1163.07 729.00,1167.79 736.00,1172.52 743.00,1177.24 750.00,1181.97 757.00,1186.69 764.00,1191.41 771.00,1196.14 778.00,1200.86 785.00,1205.59 792.00,1210.31 799.00,1215.03 806.00,1219.76 813.00,1224.48 820.00,1229.21 827.00,1233.93 834.00,1238.66 841.00,1243.38 848.00,1248.10 855.00,1252.83 862.00,1257.55 869.00,1262.28 876.00,1267.00"/><polyline points="1027.00,416.00 1048.14,412.62 1069.28,409.24 1090.41,405.86 1111.55,402.48 1132.69,399.10 1153.83,395.72 1174.97,392.34 1196.10,388.97 1217.24,385.59 1238.38,382.21 1259.52,378.83 1280.66,375.45 1301.79,372.07 1322.93,368.69 1344.07,365.31 1365.21,361.93 1386.34,358.55 1407.48,355.17 1428.62,351.79 1449.76,348.41 1470.90,345.03 1492.03,341.66 1513.17,338.28 1534.31,334.90 1555.45,331.52 1576.59,328.14 1597.72,324.76 1618.86,321.38 1640.00,318.00"/><polyline points="1092.00,636.00 1094.14,647.07 1096.28,658.14 1098.41,669.21 1100.55,680.28 1102.69,691.34 1104.83,702.41 1106.97,713.48 1109.10,724.55 1111.24,735.62 1113.38,746.69 1115.52,757.76 1117.66,768.83 1119.79,779.90 1121.93,790.97 1124.07,802.03 1126.21,813.10 1128.34,824.17 1130.48,835.24 1132.62,846.31 1134.76,857.38 1136.90,868.45 1139.03,879.52 1141.17,890.59 1143.31,901.66 1145.45,912.72 1147.59,923.79 1149.72,934.86 1151.86,945.93 1154.00,957.00"/><polyline points="1114.00,624.00 1146.96,615.53 1181.23,606.49 1216.49,597.01 1252.40,587.24 1288.63,577.33 1324.86,567.42 1360.77,557.66 1396.02,548.18 1430.30,539.14 1463.26,530.67 1494.59,522.92 1523.95,516.03 1551.03,510.15 1575.49,505.43 1597.00,502.00 1671.30,493.52 1704.70,503.04 1712.00,542.00 1709.52,561.77 1703.04,586.04 1693.27,614.02 1680.92,644.92 1666.69,677.94 1651.28,712.28 1635.40,747.15 1619.76,781.76 1605.06,815.31 1592.00,847.00"/><polyline points="1186.00,900.00 1201.17,898.28 1216.34,896.55 1231.52,894.83 1246.69,893.10 1261.86,891.38 1277.03,889.66 1292.21,887.93 1307.38,886.21 1322.55,884.48 1337.72,882.76 1352.90,881.03 1368.07,879.31 1383.24,877.59 1398.41,875.86 1413.59,874.14 1428.76,872.41 1443.93,870.69 1459.10,868.97 1474.28,867.24 1489.45,865.52 1504.62,863.79 1519.79,862.07 1534.97,860.34 1550.14,858.62 1565.31,856.90 1580.48,855.17 1595.66,853.45 1610.83,851.72 1626.00,850.00"/><polyline points="980.00,1096.00 982.51,1116.04 985.03,1136.04 987.57,1156.00 990.12,1175.94 992.66,1195.87 995.21,1215.80 997.75,1235.75 1000.28,1255.73 1002.80,1275.76 1005.29,1295.84 1007.76,1315.99 1010.21,1336.23 1012.62,1356.56 1015.00,1377.00 1017.18,1396.18 1019.33,1415.47 1021.46,1434.83 1023.55,1454.27 1025.63,1473.78 1027.69,1493.34 1029.73,1512.94 1031.77,1532.57 1033.79,1552.22 1035.81,1571.89 1037.84,1591.55 1039.86,1611.21 1041.90,1630.84 1043.94,1650.44 1046.00,1670.00"/><polyline points="1035.00,1096.00 1113.29,1083.78 1192.26,1071.55 1270.90,1059.33 1348.15,1047.14 1423.00,1035.00 1498.53,1021.11 1575.42,1005.46 1649.06,990.74 1714.79,979.69 1768.00,975.00 1846.06,978.00 1877.00,1029.00 1877.77,1088.20 1866.75,1166.62 1852.86,1257.23 1845.00,1353.00 1847.59,1428.31 1855.33,1518.52 1864.44,1612.06 1871.11,1697.37 1871.56,1762.87 1862.00,1797.00 1834.94,1788.83 1795.33,1740.74 1748.55,1669.82 1699.98,1593.21 1655.00,1528.00"/><polyline points="1066.00,1356.00 1089.48,1353.90 1112.97,1351.79 1136.45,1349.69 1159.93,1347.59 1183.41,1345.48 1206.90,1343.38 1230.38,1341.28 1253.86,1339.17 1277.34,1337.07 1300.83,1334.97 1324.31,1332.86 1347.79,1330.76 1371.28,1328.66 1394.76,1326.55 1418.24,1324.45 1441.72,1322.34 1465.21,1320.24 1488.69,1318.14 1512.17,1316.03 1535.66,1313.93 1559.14,1311.83 1582.62,1309.72 1606.10,1307.62 1629.59,1305.52 1653.07,1303.41 1676.55,1301.31 1700.03,1299.21 1723.52,1297.10 1747.00,1295.00"/><polyline points="1360.00,1116.00 1360.48,1130.83 1360.97,1145.66 1361.45,1160.48 1361.93,1175.31 1362.41,1190.14 1362.90,1204.97 1363.38,1219.79 1363.86,1234.62 1364.34,1249.45 1364.83,1264.28 1365.31,1279.10 1365.79,1293.93 1366.28,1308.76 1366.76,1323.59 1367.24,1338.41 1367.72,1353.24 1368.21,1368.07 1368.69,1382.90 1369.17,1397.72 1369.66,1412.55 1370.14,1427.38 1370.62,1442.21 1371.10,1457.03 1371.59,1471.86 1372.07,1486.69 1372.55,1501.52 1373.03,1516.34 1373.52,1531.17 1374.00,1546.00"/><polyline points="1083.00,1596.00 1104.28,1594.90 1125.55,1593.79 1146.83,1592.69 1168.10,1591.59 1189.38,1590.48 1210.66,1589.38 1231.93,1588.28 1253.21,1587.17 1274.48,1586.07 1295.76,1584.97 1317.03,1583.86 1338.31,1582.76 1359.59,1581.66 1380.86,1580.55 1402.14,1579.45 1423.41,1578.34 1444.69,1577.24 1465.97,1576.14 1487.24,1575.03 1508.52,1573.93 1529.79,1572.83 1551.07,1571.72 1572.34,1570.62 1593.62,1569.52 1614.90,1568.41 1636.17,1567.31 1657.45,1566.21 1678.72,1565.10 1700.00,1564.00"/></g></g><g transform="translate(60.000,0.000)"><g transform="translate(10.000,10.000) scale(0.014648)"><polyline points="522.00,253.00 530.93,259.72 539.86,266.45 548.79,273.17 557.72,279.90 566.66,286.62 575.59,293.34 584.52,300.07 593.45,306.79 602.38,313.52 611.31,320.24 620.24,326.97 629.17,333.69 638.10,340.41 647.03,347.14 655.97,353.86 664.90,360.59 673.83,367.31 682.76,374.03 691.69,380.76 700.62,387.48 709.55,394.21 718.48,400.93 727.41,407.66 736.34,414.38 745.28,421.10 754.21,427.83 763.14,434.55 772.07,441.28 781.00,448.00"/><polyline points="230.00,751.00 291.83,724.60 357.06,695.76 424.00,665.70 490.94,635.65 556.17,606.81 618.00,580.41 674.72,557.66 724.62,539.78 766.00,528.00 873.62,535.69 888.00,601.00 867.98,636.81 830.11,680.62 781.25,730.34 728.26,783.83 678.00,839.00 638.32,888.00 597.11,941.37 554.62,996.88 511.11,1052.30 466.82,1105.41 422.00,1154.00 376.29,1197.47 329.41,1237.48 281.75,1275.19 233.70,1311.74 185.66,1348.29 138.00,1386.00"/><polyline points="608.00,1039.00 607.32,1065.39 606.61,1091.89 605.87,1118.46 605.12,1145.09 604.37,1171.74 603.62,1198.39 602.87,1225.02 602.14,1251.59 601.42,1278.09 600.74,1304.48 600.09,1330.75 599.49,1356.86 598.93,1382.79 598.43,1408.51 598.00,1434.00 597.61,1461.04 597.29,1487.81 597.04,1514.35 596.85,1540.69 596.70,1566.85 596.58,1592.89 596.50,1618.81 596.44,1644.66 596.39,1670.47 596.34,1696.27 596.28,1722.09 596.22,1747.97 596.12,1773.93 596.00,1800.00"/><polyline points="673.00,1130.00 680.00,1134.72 687.00,1139.45 694.00,1144.17 701.00,1148.90 708.00,1153.62 715.00,1158.34 722.00,1163.07 729.00,1167.79 736.00,1172.52 743.00,1177.24 750.00,1181.97 757.00,1186.69 764.00,1191.41 771.00,1196.14 778.00,1200.86 785.00,1205.59 792.00,1210.31 799.00,1215.03 806.00,1219.76 813.00,1224.48 820.00,1229.21 827.00,1233.93 834.00,1238.66 841.00,1243.38 848.00,1248.10 855.00,1252.83 862.00,1257.55 869.00,1262.28 876.00,1267.00"/><polyline points="1027.00,416.00 1048.14,412.62 1069.28,409.24 1090.41,405.86 1111.55,402.48 1132.69,399.10 1153.83,395.72 1174.97,392.34 1196.10,388.97 1217.24,385.59 1238.38,382.21 1259.52,378.83 1280.66,375.45 1301.79,372.07 1322.93,368.69 1344.07,365.31 1365.21,361.93 1386.34,358.55 1407.48,355.17 1428.62,351.79 1449.76,348.41 1470.90,345.03 1492.03,341.66 1513.17,338.28 1534.31,334.90 1555.45,331.52 1576.59,328.14 1597.72,324.76 1618.86,321.38 1640.00,318.00"/><polyline points="1092.00,636.00 1094.14,647.07 1096.28,658.14 1098.41,669.21 1100.55,680.28 1102.69,691.34 1104.83,702.41 1106.97,713.48 1109.10,724.55 1111.24,735.62 1113.38,746.69 1115.52,757.76 1117.66,768.83 1119.79,779.90 1121.93,790.97 1124.07,802.03 1126.21,813.10 1128.34,824.17 1130.48,835.24 1132.62,846.31 1134.76,857.38 1136.90,868.45 1139.03,879.52 1141.17,890.59 1143.31,901.66 1145.45,912.72 1147.59,923.79 1149.72,934.86 1151.86,945.93 1154.00,957.00"/><polyline points="1114.00,624.00 1146.96,615.53 1181.23,606.49 1216.49,597.01 1252.40,587.24 1288.63,577.33 1324.86,567.42 1360.77,557.66 1396.02,548.18 1430.30,539.14 1463.26,530.67 1494.59,522.92 1523.95,516.03 1551.03,510.15 1575.49,505.43 1597.00,502.00 1671.30,493.52 1704.70,503.04 1712.00,542.00 1709.52,561.77 1703.04,586.04 1693.27,614.02 1680.92,644.92 1666.69,677.94 1651.28,712.28 1635.40,747.15 1619.76,781.76 1605.06,815.31 1592.00,847.00"/><polyline points="1186.00,900.00 1201.17,898.28 1216.34,896.55 1231.52,894.83 1246.69,893.10 1261.86,891.38 1277.03,889.66 1292.21,887.93 1307.38,886.21 1322.55,884.48 1337.72,882.76 1352.90,881.03 1368.07,879.31 1383.24,877.59 1398.41,875.86 1413.59,874.14 1428.76,872.41 1443.93,870.69 1459.10,868.97 1474.28,867.24 1489.45,865.52 1504.62,863.79 1519.79,862.07 1534.97,860.34 1550.14,858.62 1565.31,856.90 1580.48,855.17 1595.66,853.45 1610.83,851.72 1626.00,850.00"/><polyline points="980.00,1096.00 982.51,1116.04 985.03,1136.04 987.57,1156.00 990.12,1175.94 992.66,1195.87 995.21,1215.80 997.75,1235.75 1000.28,1255.73 1002.80,1275.76 1005.29,1295.84 1007.76,1315.99 1010.21,1336.23 1012.62,1356.56 1015.00,1377.00 1017.18,1396.18 1019.33,1415.47 1021.46,1434.83 1023.55,1454.27 1025.63,1473.78 1027.69,1493.34 1029.73,1512.94 1031.77,1532.57 1033.79,1552.22 1035.81,1571.89 1037.84,1591.55 1039.86,1611.21 1041.90,1630.84 1043.94,1650.44 1046.00,1670.00"/><polyline points="1035.00,1096.00 1113.29,1083.78 1192.26,1071.55 1270.90,1059.33 1348.15,1047.14 1423.00,1035.00 1498.53,1021.11 1575.42,1005.46 1649.06,990.74 1714.79,979.69 1768.00,975.00 1846.06,978.00 1877.00,1029.00 1877.77,1088.20 1866.75,1166.62 1852.86,1257.23 1845.00,1353.00 1847.59,1428.31 1855.33,1518.52 1864.44,1612.06 1871.11,1697.37 1871.56,1762.87 1862.00,1797.00 1834.94,1788.83 1795.33,1740.74 1748.55,1669.82 1699.98,1593.21 1655.00,1528.00"/><polyline points="1066.00,1356.00 1089.48,1353.90 1112.97,1351.79 1136.45,1349.69 1159.93,1347.59 1183.41,1345.48 1206.90,1343.38 1230.38,1341.28 1253.86,1339.17 1277.34,1337.07 1300.83,1334.97 1324.31,1332.86 1347.79,1330.76 1371.28,1328.66 1394.76,1326.55 1418.24,1324.45 1441.72,1322.34 1465.21,1320.24 1488.69,1318.14 1512.17,1316.03 1535.66,1313.93 1559.14,1311.83 1582.62,1309.72 1606.10,1307.62 1629.59,1305.52 1653.07,1303.41 1676.55,1301.31 1700.03,1299.21 1723.52,1297.10 1747.00,1295.00"/><polyline points="1360.00,1116.00 1360.48,1130.83 1360.97,1145.66 1361.45,1160.48 1361.93,1175.31 1362.41,1190.14 1362.90,1204.97 1363.38,1219.79 1363.86,1234.62 1364.34,1249.45 1364.83,1264.28 1365.31,1279.10 1365.79,1293.93 1366.28,1308.76 1366.76,1323.59 1367.24,1338.41 1367.72,1353.24 1368.21,1368.07 1368.69,1382.90 1369.17,1397.72 1369.66,1412.55 1370.14,1427.38 1370.62,1442.21 1371.10,1457.03 1371.59,1471.86 1372.07,1486.69 1372.55,1501.52 1373.03,1516.34 1373.52,1531.17 1374.00,1546.00"/><polyline points="1083.00,1596.00 1104.28,1594.90 1125.55,1593.79 1146.83,1592.69 1168.10,1591.59 1189.38,1590.48 1210.66,1589.38 1231.93,1588.28 1253.21,1587.17 1274.48,1586.07 1295.76,1584.97 1317.03,1583.86 1338.31,1582.76 1359.59,1581.66 1380.86,1580.55 1402.14,1579.45 1423.41,1578.34 1444.69,1577.24 1465.97,1576.14 1487.24,1575.03 1508.52,1573.93 1529.79,1572.83 1551.07,1571.72 1572.34,1570.62 1593.62,1569.52 1614.90,1568.41 1636.17,1567.31 1657.45,1566.21 1678.72,1565.10 1700.00,1564.00"/></g></g><g transform="translate(120.000,0.000)"><g transform="translate(10.000,10.000) scale(0.014648)"><polyline points="522.00,253.00 530.93,259.72 539.86,266.45 548.79,273.17 557.72,279.90 566.66,286.62 575.59,293.34 584.52,300.07 593.45,306.79 602.38,313.52 611.31,320.24 620.24,326.97 629.17,333.69 638.10,340.41 647.03,347.14 655.97,353.86 664.90,360.59 673.83,367.31 682.76,374.03 691.69,380.76 700.62,387.48 709.55,394.21 718.48,400.93 727.41,407.66 736.34,414.38 745.28,421.10 754.21,427.83 763.14,434.55 772.07,441.28 781.00,448.00"/><polyline points="230.00,751.00 291.83,724.60 357.06,695.76 424.00,665.70 490.94,635.65 556.17,606.81 618.00,580.41 674.72,557.66 724.62,539.78 766.00,528.00 873.62,535.69 888.00,601.00 867.98,636.81 830.11,680.62 781.25,730.34 728.26,783.83 678.00,839.00 638.32,888.00 597.11,941.37 554.62,996.88 511.11,1052.30 466.82,1105.41 422.00,1154.00 376.29,1197.47 329.41,1237.48 281.75,1275.19 233.70,1311.74 185.66,1348.29 138.00,1386.00"/><polyline points="608.00,1039.00 607.32,1065.39 606.61,1091.89 605.87,1118.46 605.12,1145.09 604.37,1171.74 603.62,1198.39 602.87,1225.02 602.14,1251.59 601.42,1278.09 600.74,1304.48 600.09,1330.75 599.49,1356.86 598.93,1382.79 598.43,1408.51 598.00,1434.00 597.61,1461.04 597.29,1487.81 597.04,1514.35 596.85,1540.69 596.70,1566.85 596.58,1592.89 596.50,1618.81 596.44,1644.66 596.39,1670.47 596.34,1696.27 596.28,1722.09 596.22,1747.97 596.12,1773.93 596.00,1800.00"/><polyline points="673.00,1130.00 680.00,1134.72 687.00,1139.45 694.00,1144.17 701.00,1148.90 708.00,1153.62 715.00,1158.34 722.00,1163.07 729.00,1167.79 736.00,1172.52 743.00,1177.24 750.00,1181.97 757.00,1186.69 764.00,1191.41 771.00,1196.14 778.00,1200.86 785.00,1205.59 792.00,1210.31 799.00,1215.03 806.00,1219.76 813.00,1224.48 820.00,1229.21 827.00,1233.93 834.00,1238.66 841.00,1243.38 848.00,1248.10 855.00,1252.83 862.00,1257.55 869.00,1262.28 876.00,1267.00"/><polyline points="1027.00,416.00 1048.14,412.62 1069.28,409.24 1090.41,405.86 1111.55,402.48 1132.69,399.10 1153.83,395.72 1174.97,392.34 1196.10,388.97 1217.24,385.59 1238.38,382.21 1259.52,378.83 1280.66,375.45 1301.79,372.07 1322.93,368.69 1344.07,365.31 1365.21,361.93 1386.34,358.55 1407.48,355.17 1428.62,351.79 1449.76,348.41 1470.90,345.03 1492.03,341.66 1513.17,338.28 1534.31,334.90 1555.45,331.52 1576.59,328.14 1597.72,324.76 1618.86,321.38 1640.00,318.00"/><polyline points="1092.00,636.00 1094.14,647.07 1096.28,658.14 1098.41,669.21 1100.55,680.28 1102.69,691.34 1104.83,702.41 1106.97,713.48 1109.10,724.55 1111.24,735.62 1113.38,746.69 1115.52,757.76 1117.66,768.83 1119.79,779.90 1121.93,790.97 1124.07,802.03 1126.21,813.10 1128.34,824.17 1130.48,835.24 1132.62,846.31 1134.76,857.38 1136.90,868.45 1139.03,879.52 1141.17,890.59 1143.31,901.66 1145.45,912.72 1147.59,923.79 1149.72,934.86 1151.86,945.93 1154.00,957.00"/><polyline points="1114.00,624.00 1146.96,615.53 1181.23,606.49 1216.49,597.01 1252.40,587.24 1288.63,577.33 1324.86,567.42 1360.77,557.66 1396.02,548.18 1430.30,539.14 1463.26,530.67 1494.59,522.92 1523.95,516.03 1551.03,510.15 1575.49,505.43 1597.00,502.00 1671.30,493.52 1704.70,503.04 1712.00,542.00 1709.52,561.77 1703.04,586.04 1693.27,614.02 1680.92,644.92 1666.69,677.94 1651.28,712.28 1635.40,747.15 1619.76,781.76 1605.06,815.31 1592.00,847.00"/><polyline points="1186.00,900.00 1201.17,898.28 1216.34,896.55 1231.52,894.83 1246.69,893.10 1261.86,891.38 1277.03,889.66 1292.21,887.93 1307.38,886.21 1322.55,884.48 1337.72,882.76 1352.90,881.03 1368.07,879.31 1383.24,877.59 1398.41,875.86 1413.59,874.14 1428.76,872.41 1443.93,870.69 1459.10,868.97 1474.28,867.24 1489.45,865.52 1504.62,863.79 1519.79,862.07 1534.97,860.34 1550.14,858.62 1565.31,856.90 1580.48,855.17 1595.66,853.45 1610.83,851.72 1626.00,850.00"/><polyline points="980.00,1096.00 982.51,1116.04 985.03,1136.04 987.57,1156.00 990.12,1175.94 992.66,1195.87 995.21,1215.80 997.75,1235.75 1000.28,1255.73 1002.80,1275.76 1005.29,1295.84 1007.76,1315.99 1010.21,1336.23 1012.62,1356.56 1015.00,1377.00 1017.18,1396.18 1019.33,1415.47 1021.46,1434.83 1023.55,1454.27 1025.63,1473.78 1027.69,1493.34 1029.73,1512.94 1031.77,1532.57 1033.79,1552.22 1035.81,1571.89 1037.84,1591.55 1039.86,1611.21 1041.90,1630.84 1043.94,1650.44 1046.00,1670.00"/><polyline points="1035.00,1096.00 1113.29,1083.78 1192.26,1071.55 1270.90,1059.33 1348.15,1047.14 1423.00,1035.00 1498.53,1021.11 1575.42,1005.46 1649.06,990.74 1714.79,979.69 1768.00,975.00 1846.06,978.00 1877.00,1029.00 1877.77,1088.20 1866.75,1166.62 1852.86,1257.23 1845.00,1353.00 1847.59,1428.31 1855.33,1518.52 1864.44,1612.06 1871.11,1697.37 1871.56,1762.87 1862.00,1797.00 1834.94,1788.83 1795.33,1740.74 1748.55,1669.82 1699.98,1593.21 1655.00,1528.00"/><polyline points="1066.00,1356.00 1089.48,1353.90 1112.97,1351.79 1136.45,1349.69 1159.93,1347.59 1183.41,1345.48 1206.90,1343.38 1230.38,1341.28 1253.86,1339.17 1277.34,1337.07 1300.83,1334.97 1324.31,1332.86 1347.79,1330.76 1371.28,1328.66 1394.76,1326.55 1418.24,1324.45 1441.72,1322.34 1465.21,1320.24 1488.69,1318.14 1512.17,1316.03 1535.66,1313.93 1559.14,1311.83 1582.62,1309.72 1606.10,1307.62 1629.59,1305.52 1653.07,1303.41 1676.55,1301.31 1700.03,1299.21 1723.52,1297.10 1747.00,1295.00"/><polyline points="1360.00,1116.00 1360.48,1130.83 1360.97,1145.66 1361.45,1160.48 1361.93,1175.31 1362.41,1190.14 1362.90,1204.97 1363.38,1219.79 1363.86,1234.62 1364.34,1249.45 1364.83,1264.28 1365.31,1279.10 1365.79,1293.93 1366.28,1308.76 1366.76,1323.59 1367.24,1338.41 1367.72,1353.24 1368.21,1368.07 1368.69,1382.90 1369.17,1397.72 1369.66,1412.55 1370.14,1427.38 1370.62,1442.21 1371.10,1457.03 1371.59,1471.86 1372.07,1486.69 1372.55,1501.52 1373.03,1516.34 1373.52,1531.17 1374.00,1546.00"/><polyline points="1083.00,1596.00 1104.28,1594.90 1125.55,1593.79 1146.83,1592.69 1168.10,1591.59 1189.38,1590.48 1210.66,1589.38 1231.93,1588.28 1253.21,1587.17 1274.48,1586.07 1295.76,1584.97 1317.03,1583.86 1338.31,1582.76 1359.59,1581.66 1380.86,1580.55 1402.14,1579.45 1423.41,1578.34 1444.69,1577.24 1465.97,1576.14 1487.24,1575.03 1508.52,1573.93 1529.79,1572.83 1551.07,1571.72 1572.34,1570.62 1593.62,1569.52 1614.90,1568.41 1636.17,1567.31 1657.45,1566.21 1678.72,1565.10 1700.00,1564.00"/></g></g><g transform="translate(0.000,60.000)"><g transform="translate(10.000,10.000) scale(0.014648)"><polyline points="522.00,253.00 530.93,259.72 539.86,266.45 548.79,273.17 557.72,279.90 566.66,286.62 575.59,293.34 584.52,300.07 593.45,306.79 602.38,313.52 611.31,320.24 620.24,326.97 629.17,333.69 638.10,340.41 647.03,347.14 655.97,353.86 664.90,360.59 673.83,367.31 682.76,374.03 691.69,380.76 700.62,387.48 709.55,394.21 718.48,400.93 727.41,407.66 736.34,414.38 745.28,421.10 754.21,427.83 763.14,434.55 772.07,441.28 781.00,448.00"/><polyline points="230.00,751.00 291.83,724.60 357.06,695.76 424.00,665.70 490.94,635.65 556.17,606.81 618.00,580.41 674.72,557.66 724.62,539.78 766.00,528.00 873.62,535.69 888.00,601.00 867.98,636.81 830.11,680.62 781.25,730.34 728.26,783.83 678.00,839.00 638.32,888.00 597.11,941.37 554.62,996.88 511.11,1052.30 466.82,1105.41 422.00,1154.00 376.29,1197.47 329.41,1237.48 281.75,1275.19 233.70,1311.74 185.66,1348.29 138.00,1386.00"/><polyline points="608.00,1039.00 607.32,1065.39 606.61,1091.89 605.87,1118.46 605.12,1145.09 604.37,1171.74 603.62,1198.39 602.87,1225.02 602.14,1251.59 601.42,1278.09 600.74,1304.48 600.09,1330.75 599.49,1356.86 598.93,1382.79 598.43,1408.51 598.00,1434.00 597.61,1461.04 597.29,1487.81 597.04,1514.35 596.85,1540.69 596.70,1566.85 596.58,1592.89 596.50,1618.81 596.44,1644.66 596.39,1670.47 596.34,1696.27 596.28,1722.09 596.22,1747.97 596.12,1773.93 596.00,1800.00"/><polyline points="673.00,1130.00 680.00,1134.72 687.00,1139.45 694.00,1144.17 701.00,1148.90 708.00,1153.62 715.00,1158.34 722.00,1163.07 729.00,1167.79 736.00,1172.52 743.00,1177.24 750.00,1181.97 757.00,1186.69 764.00,1191.41 771.00,1196.14 778.00,1200.86 785.00,1205.59 792.00,1210.31 799.00,1215.03 806.00,1219.76 813.00,1224.48 820.00,1229.21 827.00,1233.93 834.00,1238.66 841.00,1243.38 848.00,1248.10 855.00,1252.83 862.00,1257.55 869.00,1262.28 876.00,1267.00"/><polyline points="1027.00,416.00 1048.14,412.62 1069.28,409.24 1090.41,405.86 1111.55,402.48 1132.69,399.10 1153.83,395.72 1174.97,392.34 1196.10,388.97 1217.24,385.59 1238.38,382.21 1259.52,378.83 1280.66,375.45 1301.79,372.07 1322.93,368.69 1344.07,365.31 1365.21,361.93 1386.34,358.55 1407.48,355.17 1428.62,351.79 1449.76,348.41 1470.90,345.03 1492.03,341.66 1513.17,338.28 1534.31,334.90 1555.45,331.52 1576.59,328.14 1597.72,324.76 1618.86,321.38 1640.00,318.00"/><polyline points="1092.00,636.00 1094.14,647.07 1096.28,658.14 1098.41,669.21 1100.55,680.28 1102.69,691.34 1104.83,702.41 1106.97,713.48 1109.10,724.55 1111.24,735.62 1113.38,746.69 1115.52,757.76 1117.66,768.83 1119.79,779.90 1121.93,790.97 1124.07,802.03 1126.21,813.10 1128.34,824.17 1130.48,835.24 1132.62,846.31 1134.76,857.38 1136.90,868.45 1139.03,879.52 1141.17,890.59 1143.31,901.66 1145.45,912.72 1147.59,923.79 1149.72,934.86 1151.86,945.93 1154.00,957.00"/><polyline points="1114.00,624.00 1146.96,615.53 1181.23,606.49 1216.49,597.01 1252.40,587.24 1288.63,577.33 1324.86,567.42 1360.77,557.66 1396.02,548.18 1430.30,539.14 1463.26,530.67 1494.59,522.92 1523.95,516.03 1551.03,510.15 1575.49,505.43 1597.00,502.00 1671.30,493.52 1704.70,503.04 1712.00,542.00 1709.52,561.77 1703.04,586.04 1693.27,614.02 1680.92,644.92 1666.69,677.94 1651.28,712.28 1635.40,747.15 1619.76,781.76 1605.06,815.31 1592.00,847.00"/><polyline points="1186.00,900.00 1201.17,898.28 1216.34,896.55 1231.52,894.83 1246.69,893.10 1261.86,891.38 1277.03,889.66 1292.21,887.93 1307.38,886.21 1322.55,884.48 1337.72,882.76 1352.90,881.03 1368.07,879.31 1383.24,877.59 1398.41,875.86 1413.59,874.14 1428.76,872.41 1443.93,870.69 1459.10,868.97 1474.28,867.24 1489.45,865.52 1504.62,863.79 1519.79,862.07 1534.97,860.34 1550.14,858.62 1565.31,856.90 1580.48,855.17 1595.66,853.45 1610.83,851.72 1626.00,850.00"/><polyline points="980.00,1096.00 982.51,1116.04 985.03,1136.04 987.57,1156.00 990.12,1175.94 992.66,1195.87 995.21,1215.80 997.75,1235.75 1000.28,1255.73 1002.80,1275.76 1005.29,1295.84 1007.76,1315.99 1010.21,1336.23 1012.62,1356.56 1015.00,1377.00 1017.18,1396.18 1019.33,1415.47 1021.46,1434.83 1023.55,1454.27 1025.63,1473.78 1027.69,1493.34 1029.73,1512.94 1031.77,1532.57 1033.79,1552.22 1035.81,1571.89 1037.84,1591.55 1039.86,1611.21 1041.90,1630.84 1043.94,1650.44 1046.00,1670.00"/><polyline points="1035.00,1096.00 1113.29,1083.78 1192.26,1071.55 1270.90,1059.33 1348.15,1047.14 1423.00,1035.00 1498.53,1021.11 1575.42,1005.46 1649.06,990.74 1714.79,979.69 1768.00,975.00 1846.06,978.00 1877.00,1029.00 1877.77,1088.20 1866.75,1166.62 1852.86,1257.23 1845.00,1353.00 1847.59,1428.31 1855.33,1518.52 1864.44,1612.06 1871.11,1697.37 1871.56,1762.87 1862.00,1797.00 1834.94,1788.83 1795.33,1740.74 1748.55,1669.82 1699.98,1593.21 1655.00,1528.00"/><polyline points="1066.00,1356.00 1089.48,1353.90 1112.97,1351.79 1136.45,1349.69 1159.93,1347.59 1183.41,1345.48 1206.90,1343.38 1230.38,1341.28 1253.86,1339.17 1277.34,1337.07 1300.83,1334.97 1324.31,1332.86 1347.79,1330.76 1371.28,1328.66 1394.76,1326.55 1418.24,1324.45 1441.72,1322.34 1465.21,1320.24 1488.69,1318.14 1512.17,1316.03 1535.66,1313.93 1559.14,1311.83 1582.62,1309.72 1606.10,1307.62 1629.59,1305.52 1653.07,1303.41 1676.55,1301.31 1700.03,1299.21 1723.52,1297.10 1747.00,1295.00"/><polyline points="1360.00,1116.00 1360.48,1130.83 1360.97,1145.66 1361.45,1160.48 1361.93,1175.31 1362.41,1190.14 1362.90,1204.97 1363.38,1219.79 1363.86,1234.62 1364.34,1249.45 1364.83,1264.28 1365.31,1279.10 1365.79,1293.93 1366.28,1308.76 1366.76,1323.59 1367.24,1338.41 1367.72,1353.24 1368.21,1368.07 1368.69,1382.90 1369.17,1397.72 1369.66,1412.55 1370.14,1427.38 1370.62,1442.21 1371.10,1457.03 1371.59,1471.86 1372.07,1486.69 1372.55,1501.52 1373.03,1516.34 1373.52,1531.17 1374.00,1546.00"/><polyline points="1083.00,1596.00 1104.28,1594.90 1125.55,1593.79 1146.83,1592.69 1168.10,1591.59 1189.38,1590.48 1210.66,1589.38 1231.93,1588.28 1253.21,1587.17 1274.48,1586.07 1295.76,1584.97 1317.03,1583.86 1338.31,1582.76 1359.59,1581.66 1380.86,1580.55 1402.14,1579.45 1423.41,1578.34 1444.69,1577.24 1465.97,1576.14 1487.24,1575.03 1508.52,1573.93 1529.79,1572.83 1551.07,1571.72 1572.34,1570.62 1593.62,1569.52 1614.90,1568.41 1636.17,1567.31 1657.45,1566.21 1678.72,1565.10 1700.00,1564.00"/></g></g><g transform="translate(60.000,60.000)"><g transform="translate(10.000,10.000) scale(0.014648)"><polyline points="522.00,253.00 530.93,259.72 539.86,266.45 548.79,273.17 557.72,279.90 566.66,286.62 575.59,293.34 584.52,300.07 593.45,306.79 602.38,313.52 611.31,320.24 620.24,326.97 629.17,333.69 638.10,340.41 647.03,347.14 655.97,353.86 664.90,360.59 673.83,367.31 682.76,374.03 691.69,380.76 700.62,387.48 709.55,394.21 718.48,400.93 727.41,407.66 736.34,414.38 745.28,421.10 754.21,427.83 763.14,434.55 772.07,441.28 781.00,448.00"/><polyline points="230.00,751.00 291.83,724.60 357.06,695.76 424.00,665.70 490.94,635.65 556.17,606.81 618.00,580.41 674.72,557.66 724.62,539.78 766.00,528.00 873.62,535.69 888.00,601.00 867.98,636.81 830.11,680.62 781.25,730.34 728.26,783.83 678.00,839.00 638.32,888.00 597.11,941.37 554.62,996.88 511.11,1052.30 466.82,1105.41 422.00,1154.00 376.29,1197.47 329.41,1237.48 281.75,1275.19 233.70,1311.74 185.66,1348.29 138.00,1386.00"/><polyline points="608.00,1039.00 607.32,1065.39 606.61,1091.89 605.87,1118.46 605.12,1145.09 604.37,1171.74 603.62,1198.39 602.87,1225.02 602.14,1251.59 601.42,1278.09 600.74,1304.48 600.09,1330.75 599.49,1356.86 598.93,1382.79 598.43,1408.51 598.00,1434.00 597.61,1461.04 597.29,1487.81 597.04,1514.35 596.85,1540.69 596.70,1566.85 596.58,1592.89 596.50,1618.81 596.44,1644.66 596.39,1670.47 596.34,1696.27 596.28,1722.09 596.22,1747.97 596.12,1773.93 596.00,1800.00"/><polyline points="673.00,1130.00 680.00,1134.72 687.00,1139.45 694.00,1144.17 701.00,1148.90 708.00,1153.62 715.00,1158.34 722.00,1163.07 729.00,1167.79 736.00,1172.52 743.00,1177.24 750.00,1181.97 757.00,1186.69 764.00,1191.41 771.00,1196.14 778.00,1200.86 785.00,1205.59 792.00,1210.31 799.00,1215.03 806.00,1219.76 813.00,1224.48 820.00,1229.21 827.00,1233.93 834.00,1238.66 841.00,1243.38 848.00,1248.10 855.00,1252.83 862.00,1257.55 869.00,1262.28 876.00,1267.00"/><polyline points="1027.00,416.00 1048.14,412.62 1069.28,409.24 1090.41,405.86 1111.55,402.48 1132.69,399.10 1153.83,395.72 1174.97,392.34 1196.10,388.97 1217.24,385.59 1238.38,382.21 1259.52,378.83 1280.66,375.45 1301.79,372.07 1322.93,368.69 1344.07,365.31 1365.21,361.93 1386.34,358.55 1407.48,355.17 1428.62,351.79 1449.76,348.41 1470.90,345.03 1492.03,341.66 1513.17,338.28 1534.31,334.90 1555.45,331.52 1576.59,328.14 1597.72,324.76 1618.86,321.38 1640.00,318.00"/><polyline points="1092.00,636.00 1094.14,647.07 1096.28,658.14 1098.41,669.21 1100.55,680.28 1102.69,691.34 1104.83,702.41 1106.97,713.48 1109.10,724.55 1111.24,735.62 1113.38,746.69 1115.52,757.76 1117.66,768.83 1119.79,779.90 1121.93,790.97 1124.07,802.03 1126.21,813.10 1128.34,824.17 1130.48,835.24 1132.62,846.31 1134.76,857.38 1136.90,868.45 1139.03,879.52 1141.17,890.59 1143.31,901.66 1145.45,912.72 1147.59,923.79 1149.72,934.86 1151.86,945.93 1154.00,957.00"/><polyline points="1114.00,624.00 1146.96,615.53 1181.23,606.49 1216.49,597.01 1252.40,587.24 1288.63,577.33 1324.86,567.42 1360.77,557.66 1396.02,548.18 1430.30,539.14 1463.26,530.67 1494.59,522.92 1523.95,516.03 1551.03,510.15 1575.49,505.43 1597.00,502.00 1671.30,493.52 1704.70,503.04 1712.00,542.00 1709.52,561.77 1703.04,586.04 1693.27,614.02 1680.92,644.92 1666.69,677.94 1651.28,712.28 1635.40,747.15 1619.76,781.76 1605.06,815.31 1592.00,847.00"/><polyline points="1186.00,900.00 1201.17,898.28 1216.34,896.55 1231.52,894.83 1246.69,893.10 1261.86,891.38 1277.03,889.66 1292.21,887.93 1307.38,886.21 1322.55,884.48 1337.72,882.76 1352.90,881.03 1368.07,879.31 1383.24,877.59 1398.41,875.86 1413.59,874.14 1428.76,872.41 1443.93,870.69 1459.10,868.97 1474.28,867.24 1489.45,865.52 1504.62,863.79 1519.79,862.07 1534.97,860.34 1550.14,858.62 1565.31,856.90 1580.48,855.17 1595.66,853.45 1610.83,851.72 1626.00,850.00"/><polyline points="980.00,1096.00 982.51,1116.04 985.03,1136.04 987.57,1156.00 990.12,1175.94 992.66,1195.87 995.21,1215.80 997.75,1235.75 1000.28,1255.73 1002.80,1275.76 1005.29,1295.84 1007.76,1315.99 1010.21,1336.23 1012.62,1356.56 1015.00,1377.00 1017.18,1396.18 1019.33,1415.47 1021.46,1434.83 1023.55,1454.27 1025.63,1473.78 1027.69,1493.34 1029.73,1512.94 1031.77,1532.57 1033.79,1552.22 1035.81,1571.89 1037.84,1591.55 1039.86,1611.21 1041.90,1630.84 1043.94,1650.44 1046.00,1670.00"/><polyline points="1035.00,1096.00 1113.29,1083.78 1192.26,1071.55 1270.90,1059.33 1348.15,1047.14 1423.00,1035.00 1498.53,1021.11 1575.42,1005.46 1649.06,990.74 1714.79,979.69 1768.00,975.00 1846.06,978.00 1877.00,1029.00 1877.77,1088.20 1866.75,1166.62 1852.86,1257.23 1845.00,1353.00 1847.59,1428.31 1855.33,1518.52 1864.44,1612.06 1871.11,1697.37 1871.56,1762.87 1862.00,1797.00 1834.94,1788.83 1795.33,1740.74 1748.55,1669.82 1699.98,1593.21 1655.00,1528.00"/><polyline points="1066.00,1356.00 1089.48,1353.90 1112.97,1351.79 1136.45,1349.69 1159.93,1347.59 1183.41,1345.48 1206.90,1343.38 1230.38,1341.28 1253.86,1339.17 1277.34,1337.07 1300.83,1334.97 1324.31,1332.86 1347.79,1330.76 1371.28,1328.66 1394.76,1326.55 1418.24,1324.45 1441.72,1322.34 1465.21,1320.24 1488.69,1318.14 1512.17,1316.03 1535.66,1313.93 1559.14,1311.83 1582.62,1309.72 1606.10,1307.62 1629.59,1305.52 1653.07,1303.41 1676.55,1301.31 1700.03,1299.21 1723.52,1297.10 1747.00,1295.00"/><polyline points="1360.00,1116.00 1360.48,1130.83 1360.97,1145.66 1361.45,1160.48 1361.93,1175.31 1362.41,1190.14 1362.90,1204.97 1363.38,1219.79 1363.86,1234.62 1364.34,1249.45 1364.83,1264.28 1365.31,1279.10 1365.79,1293.93 1366.28,1308.76 1366.76,1323.59 1367.24,1338.41 1367.72,1353.24 1368.21,1368.07 1368.69,1382.90 1369.17,1397.72 1369.66,1412.55 1370.14,1427.38 1370.62,1442.21 1371.10,1457.03 1371.59,1471.86 1372.07,1486.69 1372.55,1501.52 1373.03,1516.34 1373.52,1531.17 1374.00,1546.00"/><polyline points="1083.00,1596.00 1104.28,1594.90 1125.55,1593.79 1146.83,1592.69 1168.10,1591.59 1189.38,1590.48 1210.66,1589.38 1231.93,1588.28 1253.21,1587.17 1274.48,1586.07 1295.76,1584.97 1317.03,1583.86 1338.31,1582.76 1359.59,1581.66 1380.86,1580.55 1402.14,1579.45 1423.41,1578.34 1444.69,1577.24 1465.97,1576.14 1487.24,1575.03 1508.52,1573.93 1529.79,1572.83 1551.07,1571.72 1572.34,1570.62 1593.62,1569.52 1614.90,1568.41 1636.17,1567.31 1657.45,1566.21 1678.72,1565.10 1700.00,1564.00"/></g></g><g transform="translate(120.000,60.000)"><g transform="translate(10.000,10.000) scale(0.014648)"><polyline points="522.00,253.00 530.93,259.72 539.86,266.45 548.79,273.17 557.72,279.90 566.66,286.62 575.59,293.34 584.52,300.07 593.45,306.79 602.38,313.52 611.31,320.24 620.24,326.97 629.17,333.69 638.10,340.41 647.03,347.14 655.97,353.86 664.90,360.59 673.83,367.31 682.76,374.03 691.69,380.76 700.62,387.48 709.55,394.21 718.48,400.93 727.41,407.66 736.34,414.38 745.28,421.10 754.21,427.83 763.14,434.55 772.07,441.28 781.00,448.00"/><polyline points="230.00,751.00 291.83,724.60 357.06,695.76 424.00,665.70 490.94,635.65 556.17,606.81 618.00,580.41 674.72,557.66 724.62,539.78 766.00,528.00 873.62,535.69 888.00,601.00 867.98,636.81 830.11,680.62 781.25,730.34 728.26,783.83 678.00,839.00 638.32,888.00 597.11,941.37 554.62,996.88 511.11,1052.30 466.82,1105.41 422.00,1154.00 376.29,1197.47 329.41,1237.48 281.75,1275.19 233.70,1311.74 185.66,1348.29 138.00,1386.00"/><polyline points="608.00,1039.00 607.32,1065.39 606.61,1091.89 605.87,1118.46 605.12,1145.09 604.37,1171.74 603.62,1198.39 602.87,1225.02 602.14,1251.59 601.42,1278.09 600.74,1304.48 600.09,1330.75 599.49,1356.86 598.93,1382.79 598.43,1408.51 598.00,1434.00 597.61,1461.04 597.29,1487.81 597.04,1514.35 596.85,1540.69 596.70,1566.85 596.58,1592.89 596.50,1618.81 596.44,1644.66 596.39,1670.47 596.34,1696.27 596.28,1722.09 596.22,1747.97 596.12,1773.93 596.00,1800.00"/><polyline points="673.00,1130.00 680.00,1134.72 687.00,1139.45 694.00,1144.17 701.00,1148.90 708.00,1153.62 715.00,1158.34 722.00,1163.07 729.00,1167.79 736.00,1172.52 743.00,1177.24 750.00,1181.97 757.00,1186.69 764.00,1191.41 771.00,1196.14 778.00,1200.86 785.00,1205.59 792.00,1210.31 799.00,1215.03 806.00,1219.76 813.00,1224.48 820.00,1229.21 827.00,1233.93 834.00,1238.66 841.00,1243.38 848.00,1248.10 855.00,1252.83 862.00,1257.55 869.00,1262.28 876.00,1267.00"/><polyline points="1027.00,416.00 1048.14,412.62 1069.28,409.24 1090.41,405.86 1111.55,402.48 1132.69,399.10 1153.83,395.72 1174.97,392.34 1196.10,388.97 1217.24,385.59 1238.38,382.21 1259.52,378.83 1280.66,375.45 1301.79,372.07 1322.93,368.69 1344.07,365.31 1365.21,361.93 1386.34,358.55 1407.48,355.17 1428.62,351.79 1449.76,348.41 1470.90,345.03 1492.03,341.66 1513.17,338.28 1534.31,334.90 1555.45,331.52 1576.59,328.14 1597.72,324.76 1618.86,321.38 1640.00,318.00"/><polyline points="1092.00,636.00 1094.14,647.07 1096.28,658.14 1098.41,669.21 1100.55,680.28 1102.69,691.34 1104.83,702.41 1106.97,713.48 1109.10,724.55 1111.24,735.62 1113.38,746.69 1115.52,757.76 1117.66,768.83 1119.79,779.90 1121.93,790.97 1124.07,802.03 1126.21,813.10 1128.34,824.17 1130.48,835.24 1132.62,846.31 1134.76,857.38 1136.90,868.45 1139.03,879.52 1141.17,890.59 1143.31,901.66 1145.45,912.72 1147.59,923.79 1149.72,934.86 1151.86,945.93 1154.00,957.00"/><polyline points="1114.00,624.00 1146.96,615.53 1181.23,606.49 1216.49,597.01 1252.40,587.24 1288.63,577.33 1324.86,567.42 1360.77,557.66 1396.02,548.18 1430.30,539.14 1463.26,530.67 1494.59,522.92 1523.95,516.03 1551.03,510.15 1575.49,505.43 1597.00,502.00 1671.30,493.52 1704.70,503.04 1712.00,542.00 1709.52,561.77 1703.04,586.04 1693.27,614.02 1680.92,644.92 1666.69,677.94 1651.28,712.28 1635.40,747.15 1619.76,781.76 1605.06,815.31 1592.00,847.00"/><polyline points="1186.00,900.00 1201.17,898.28 1216.34,896.55 1231.52,894.83 1246.69,893.10 1261.86,891.38 1277.03,889.66 1292.21,887.93 1307.38,886.21 1322.55,884.48 1337.72,882.76 1352.90,881.03 1368.07,879.31 1383.24,877.59 1398.41,875.86 1413.59,874.14 1428.76,872.41 1443.93,870.69 1459.10,868.97 1474.28,867.24 1489.45,865.52 1504.62,863.79 1519.79,862.07 1534.97,860.34 1550.14,858.62 1565.31,856.90 1580.48,855.17 1595.66,853.45 1610.83,851.72 1626.00,850.00"/><polyline points="980.00,1096.00 982.51,1116.04 985.03,1136.04 987.57,1156.00 990.12,1175.94 992.66,1195.87 995.21,1215.80 997.75,1235.75 1000.28,1255.73 1002.80,1275.76 1005.29,1295.84 1007.76,1315.99 1010.21,1336.23 1012.62,1356.56 1015.00,1377.00 1017.18,1396.18 1019.33,1415.47 1021.46,1434.83 1023.55,1454.27 1025.63,1473.78 1027.69,1493.34 1029.73,1512.94 1031.77,1532.57 1033.79,1552.22 1035.81,1571.89 1037.84,1591.55 1039.86,1611.21 1041.90,1630.84 1043.94,1650.44 1046.00,1670.00"/><polyline points="1035.00,1096.00 1113.29,1083.78 1192.26,1071.55 1270.90,1059.33 1348.15,1047.14 1423.00,1035.00 1498.53,1021.11 1575.42,1005.46 1649.06,990.74 1714.79,979.69 1768.00,975.00 1846.06,978.00 1877.00,1029.00 1877.77,1088.20 1866.75,1166.62 1852.86,1257.23 1845.00,1353.00 1847.59,1428.31 1855.33,1518.52 1864.44,1612.06 1871.11,1697.37 1871.56,1762.87 1862.00,1797.00 1834.94,1788.83 1795.33,1740.74 1748.55,1669.82 1699.98,1593.21 1655.00,1528.00"/><polyline points="1066.00,1356.00 1089.48,1353.90 1112.97,1351.79 1136.45,1349.69 1159.93,1347.59 1183.41,1345.48 1206.90,1343.38 1230.38,1341.28 1253.86,1339.17 1277.34,1337.07 1300.83,1334.97 1324.31,1332.86 1347.79,1330.76 1371.28,1328.66 1394.76,1326.55 1418.24,1324.45 1441.72,1322.34 1465.21,1320.24 1488.69,1318.14 1512.17,1316.03 1535.66,1313.93 1559.14,1311.83 1582.62,1309.72 1606.10,1307.62 1629.59,1305.52 1653.07,1303.41 1676.55,1301.31 1700.03,1299.21 1723.52,1297.10 1747.00,1295.00"/><polyline points="1360.00,1116.00 1360.48,1130.83 1360.97,1145.66 1361.45,1160.48 1361.93,1175.31 1362.41,1190.14 1362.90,1204.97 1363.38,1219.79 1363.86,1234.62 1364.34,1249.45 1364.83,1264.28 1365.31,1279.10 1365.79,1293.93 1366.28,1308.76 1366.76,1323.59 1367.24,1338.41 1367.72,1353.24 1368.21,1368.07 1368.69,1382.90 1369.17,1397.72 1369.66,1412.55 1370.14,1427.38 1370.62,1442.21 1371.10,1457.03 1371.59,1471.86 1372.07,1486.69 1372.55,1501.52 1373.03,1516.34 1373.52,1531.17 1374.00,1546.00"/><polyline points="1083.00,1596.00 1104.28,1594.90 1125.55,1593.79 1146.83,1592.69 1168.10,1591.59 1189.38,1590.48 1210.66,1589.38 1231.93,1588.28 1253.21,1587.17 1274.48,1586.07 1295.76,1584.97 1317.03,1583.86 1338.31,1582.76 1359.59,1581.66 1380.86,1580.55 1402.14,1579.45 1423.41,1578.34 1444.69,1577.24 1465.97,1576.14 1487.24,1575.03 1508.52,1573.93 1529.79,1572.83 1551.07,1571.72 1572.34,1570.62 1593.62,1569.52 1614.90,1568.41 1636.17,1567.31 1657.45,1566.21 1678.72,1565.10 1700.00,1564.00"/></g></g></g></svg>