<svg xmlns="http://www.w3.org/2000/svg" viewBox="0 0 6500 2200" width="650" height="220"><g transform="translate(50,0)"><text x="1000" y="180" font-size="100" text-anchor="middle" fill="#666">一 outline-fill</text><path d="M668,926 Q672,926 672,930 L680,926 L684,926 Q688,926 688,930 L696,926 Q700,926 700,930 Q708,926 712,926 Q726,926 742,930 Q768,926 796,926 L804,926 Q808,926 836,934 L858,930 Q858,938 866,938 L878,938 Q886,938 886,930 L914,934 L918,934 Q928,934 936,930 Q942,934 952,934 L976,930 L984,934 Q988,934 988,930 Q1022,938 1060,938 Q1068,938 1068,934 L1088,938 L1162,938 L1182,934 L1182,938 Q1208,930 1248,926 Q1260,926 1368,938 Q1370,930 1376,930 Q1384,930 1384,938 L1414,934 L1434,934 Q1438,934 1438,938 Q1446,934 1450,934 Q1488,936 1488,942 L1496,938 Q1576,950 1632,950 Q1636,970 1648,982 Q1648,992 1644,1000 Q1648,1012 1652,1012 L1648,1032 L1648,1036 L1652,1066 L1628,1098 Q1590,1110 1574,1110 Q1574,1102 1566,1102 L1550,1102 L1528,1106 Q1528,1100 1508,1094 Q1480,1106 1476,1106 Q1476,1100 1422,1086 Q1412,1086 1392,1102 L1388,1102 Q1370,1086 1360,1086 Q1360,1098 1344,1098 L1326,1094 L1302,1106 Q1288,1098 1278,1098 Q1278,1108 1224,1110 Q1212,1090 1186,1090 L1178,1094 L1154,1090 Q1154,1098 1146,1098 L1146,1094 L1120,1106 Q1108,1098 1096,1098 L1088,1098 Q1078,1098 1072,1102 Q1042,1100 1042,1086 L1038,1086 Q1024,1098 1010,1098 L1006,1098 Q998,1098 998,1090 Q994,1090 994,1094 L964,1090 L906,1102 Q902,1102 902,1098 L882,1102 L858,1102 Q854,1102 854,1098 Q848,1098 848,1102 L828,1098 Q820,1102 816,1102 L816,1098 L808,1102 L782,1098 Q778,1098 778,1102 L758,1098 L734,1098 L722,1106 L700,1102 Q696,1102 696,1106 Q626,1102 618,1090 Q618,1118 610,1118 Q550,1110 548,1110 Q548,1118 536,1118 L528,1114 L502,1122 Q488,1118 486,1118 Q464,1122 454,1122 Q428,1102 416,1102 Q396,1064 396,1056 L400,1056 L396,1048 Q396,1044 400,1044 L396,1036 L396,1028 Q396,1018 400,1012 Q396,1004 396,996 L396,992 L420,962 Q420,944 474,934 Q486,938 486,942 Q538,936 552,930 L560,934 L568,930 Q572,930 572,934 Q618,926 668,926 Z" fill="#222" transform="translate(0,200)"/></g><g transform="translate(2200,0)"><text x="1000" y="180" font-size="100" text-anchor="middle" fill="#666">v1 walker (1 tracks)</text><g transform="translate(0,200)"><polyline points="1560,1016 1528,1016 1496,1016 1464,1016 1432,1016 1400,1016 1368,1016 1336,1016 1304,1016 1272,1016 1240,1016 1208,1016 1176,1016 1144,1016 1112,1016 1080,1016 1048,1016 1016,1016 984,1016 952,1016 920,1016 888,1016 856,1016 824,1016 792,1016 760,1016 728,1016 696,1016 664,1016 632,1016 600,1016 568,1016 536,1016 520,1032" fill="none" stroke="#c33" stroke-width="30" stroke-linecap="round"/></g></g><g transform="translate(4400,0)"><text x="1000" y="180" font-size="100" text-anchor="middle" fill="#666">v2 junction (1 tracks)</text><g transform="translate(0,200)"><polyline points="1560,1016 1528,1016 1496,1016 1464,1016 1432,1016 1400,1016 1368,1016 1336,1016 1304,1016 1272,1016 1240,1016 1208,1016 1176,1016 1144,1016 1112,1016 1080,1016 1048,1016 1016,1016 984,1016 952,1016 920,1016 888,1016 856,1016 824,1016 792,1016 760,1016 728,1016 696,1016 664,1016 632,1016 600,1016 568,1016 536,1016 520,1032" fill="none" stroke="#c33" stroke-width="30" stroke-linecap="round"/></g></g></svg>