<svg xmlns="http://www.w3.org/2000/svg" viewBox="0 0 6500 2200" width="650" height="220"><g transform="translate(50,0)"><text x="1000" y="180" font-size="100" text-anchor="middle" fill="#666">二 outline-fill</text><path d="M1334,576 L1342,582 Q1350,576 1358,576 L1358,582 Q1362,582 1362,576 Q1364,576 1378,582 Q1382,582 1404,576 Q1434,576 1454,606 Q1472,606 1490,630 Q1482,632 1482,638 Q1490,640 1490,648 L1490,676 Q1482,712 1470,712 L1448,712 Q1446,738 1404,738 L1378,738 L1330,734 L1326,742 L1304,738 L1272,738 Q1268,738 1268,734 L1260,738 L1252,734 Q1244,738 1234,738 L1226,734 L1198,742 Q1194,742 1194,738 L1178,742 Q1148,738 1144,738 Q1140,738 1140,742 L1120,738 L1078,738 Q1064,738 1058,742 L1032,738 L1012,738 Q998,738 976,742 Q972,742 972,738 L942,742 L798,742 L756,746 L756,742 Q752,742 752,746 L732,742 L716,742 Q706,742 700,746 L690,742 L682,746 Q678,746 678,742 L650,746 Q522,740 522,696 Q522,626 576,602 L638,590 L658,594 Q722,594 830,590 Q872,594 892,594 Q896,594 896,590 L918,594 L976,594 Q984,594 992,590 Q996,590 996,594 Q1156,588 1156,582 L1160,590 L1168,586 L1226,586 L1234,582 L1238,590 L1292,582 Q1296,582 1296,586 Q1324,582 1334,576 M1334,1310 Q1366,1316 1378,1322 Q1380,1314 1388,1314 L1396,1318 Q1404,1314 1408,1314 L1408,1318 L1416,1314 L1444,1314 Q1458,1314 1458,1318 L1478,1314 L1510,1314 Q1520,1314 1528,1318 L1536,1314 Q1574,1346 1590,1364 L1594,1392 L1594,1400 Q1586,1416 1548,1446 L1548,1450 L1528,1446 L1524,1446 Q1512,1454 1510,1454 L1490,1454 L1470,1450 Q1470,1458 1462,1458 L1454,1458 Q1448,1458 1448,1454 L1440,1458 L1432,1454 Q1428,1454 1428,1458 L1408,1454 Q1400,1454 1400,1458 L1342,1450 Q1320,1454 1308,1454 Q1280,1454 1280,1446 L1272,1450 L1264,1450 Q1260,1450 1260,1446 L1252,1450 L1098,1450 Q1090,1450 1082,1446 Q1076,1450 1066,1450 Q1062,1450 1054,1446 Q1010,1454 958,1458 Q954,1458 946,1454 Q924,1458 910,1458 L896,1458 Q884,1458 876,1454 Q760,1462 716,1472 L686,1462 Q666,1472 654,1472 L654,1466 L646,1472 L620,1466 Q584,1472 576,1472 Q496,1472 460,1438 Q472,1422 472,1410 Q466,1410 456,1392 Q486,1344 526,1326 L568,1330 L596,1330 Q608,1330 608,1326 L630,1330 L686,1330 Q696,1330 704,1326 Q708,1326 708,1330 Q868,1326 868,1318 L872,1326 L880,1322 L938,1322 Q948,1322 954,1326 Q966,1324 1004,1318 Q1008,1318 1008,1322 Q1036,1318 1046,1314 L1054,1318 Q1060,1314 1070,1314 L1070,1318 L1078,1314 L1112,1314 Q1120,1314 1128,1318 Q1134,1314 1144,1314 L1172,1314 Q1178,1314 1178,1318 Q1182,1318 1182,1314 L1202,1318 L1210,1314 Q1214,1322 1214,1326 L1218,1326 Q1218,1314 1226,1314 L1288,1314 Q1298,1314 1304,1318 Q1312,1314 1322,1314 L1330,1318 Z" fill="#222" transform="translate(0,200)"/></g><g transform="translate(2200,0)"><text x="1000" y="180" font-size="100" text-anchor="middle" fill="#666">v1 walker (2 tracks)</text><g transform="translate(0,200)"><polyline points="1368,664 1336,648 1304,648 1272,648 1240,648 1208,648 1176,648 1144,648 1112,664 1080,664 1048,664 1016,664 984,664 952,664 920,664 888,664 856,664 824,664 792,664 760,664 728,664 696,664 664,664 632,680 616,680" fill="none" stroke="#c33" stroke-width="30" stroke-linecap="round"/><polyline points="1528,1384 1496,1384 1464,1384 1432,1384 1400,1384 1368,1384 1336,1384 1304,1384 1272,1384 1240,1384 1208,1384 1176,1384 1144,1384 1112,1384 1080,1384 1048,1384 1016,1384 984,1384 952,1384 920,1384 888,1384 856,1384 824,1400 792,1400 760,1400 728,1400 696,1400 664,1400 632,1400 600,1400 568,1400" fill="none" stroke="#c33" stroke-width="30" stroke-linecap="round"/></g></g><g transform="translate(4400,0)"><text x="1000" y="180" font-size="100" text-anchor="middle" fill="#666">v2 junction (2 tracks)</text><g transform="translate(0,200)"><polyline points="1368,664 1336,648 1304,648 1272,648 1240,648 1208,648 1176,648 1144,648 1112,664 1080,664 1048,664 1016,664 984,664 952,664 920,664 888,664 856,664 824,664 792,664 760,664 728,664 696,664 664,664 632,680 616,680" fill="none" stroke="#c33" stroke-width="30" stroke-linecap="round"/><polyline points="1528,1384 1496,1384 1464,1384 1432,1384 1400,1384 1368,1384 1336,1384 1304,1384 1272,1384 1240,1384 1208,1384 1176,1384 1144,1384 1112,1384 1080,1384 1048,1384 1016,1384 984,1384 952,1384 920,1384 888,1384 856,1384 824,1400 792,1400 760,1400 728,1400 696,1400 664,1400 632,1400 600,1400 568,1400" fill="none" stroke="#c33" stroke-width="30" stroke-linecap="round"/></g></g></svg>