<svg xmlns="http://www.w3.org/2000/svg" viewBox="0 0 210.0 297.0" width="210.0mm" height="297.0mm">
<rect x="0" y="0" width="210.0" height="297.0" fill="white"/>
<rect x="0.5" y="0.5" width="209.0" height="296.0" fill="none" stroke="#aaa" stroke-width="0.4"/>
<g class="grid" fill="none" stroke="#c8c8c8" stroke-width="0.2">
  <line x1="15.00" y1="15.00" x2="195.00" y2="15.00"/>
  <line x1="15.00" y1="30.00" x2="195.00" y2="30.00"/>
  <line x1="15.00" y1="45.00" x2="195.00" y2="45.00"/>
  <line x1="15.00" y1="60.00" x2="195.00" y2="60.00"/>
  <line x1="15.00" y1="75.00" x2="195.00" y2="75.00"/>
  <line x1="15.00" y1="90.00" x2="195.00" y2="90.00"/>
  <line x1="15.00" y1="105.00" x2="195.00" y2="105.00"/>
  <line x1="15.00" y1="120.00" x2="195.00" y2="120.00"/>
  <line x1="15.00" y1="135.00" x2="195.00" y2="135.00"/>
  <line x1="15.00" y1="150.00" x2="195.00" y2="150.00"/>
  <line x1="15.00" y1="165.00" x2="195.00" y2="165.00"/>
  <line x1="15.00" y1="180.00" x2="195.00" y2="180.00"/>
  <line x1="15.00" y1="195.00" x2="195.00" y2="195.00"/>
  <line x1="15.00" y1="210.00" x2="195.00" y2="210.00"/>
  <line x1="15.00" y1="225.00" x2="195.00" y2="225.00"/>
  <line x1="15.00" y1="240.00" x2="195.00" y2="240.00"/>
  <line x1="15.00" y1="255.00" x2="195.00" y2="255.00"/>
  <line x1="15.00" y1="270.00" x2="195.00" y2="270.00"/>
  <line x1="15.00" y1="282.00" x2="195.00" y2="282.00"/>
  <line x1="15.00" y1="15.00" x2="15.00" y2="282.00"/>
  <line x1="30.00" y1="15.00" x2="30.00" y2="282.00"/>
  <line x1="45.00" y1="15.00" x2="45.00" y2="282.00"/>
  <line x1="60.00" y1="15.00" x2="60.00" y2="282.00"/>
  <line x1="75.00" y1="15.00" x2="75.00" y2="282.00"/>
  <line x1="90.00" y1="15.00" x2="90.00" y2="282.00"/>
  <line x1="105.00" y1="15.00" x2="105.00" y2="282.00"/>
  <line x1="120.00" y1="15.00" x2="120.00" y2="282.00"/>
  <line x1="135.00" y1="15.00" x2="135.00" y2="282.00"/>
  <line x1="150.00" y1="15.00" x2="150.00" y2="282.00"/>
  <line x1="165.00" y1="15.00" x2="165.00" y2="282.00"/>
  <line x1="180.00" y1="15.00" x2="180.00" y2="282.00"/>
  <line x1="195.00" y1="15.00" x2="195.00" y2="282.00"/>
  </g>
<g class="chars">
<g transform="translate(15.0,15.0) scale(0.00732421875,0.00732421875)"><g fill="#222"><path d="M 888 1562 L 892 725 Q 892 672 890 615 Q 888 558 885.5 512.5 Q 883 467 878 433.5 Q 873 400 862 374 L 845 336 Q 842 327 841.5 316 Q 841 305 848.5 297.5 Q 856 290 883 293 Q 918 298 938 305 Q 958 312 1009 336 Q 1060 360 1070 376 Q 1080 392 1080 404 Q 1079 413 1067 435.5 Q 1055 458 1050 477 Q 1045 496 1039 549 L 1031 612 Q 1030 619 1028 701 L 1023 872 L 1021 933 L 1007 1550 Q 932.5 1716 888 1562 Z"/><path d="M 1023 872 L 1205 834 Q 1238 827 1293 810.5 Q 1348 794 1370.5 788 Q 1393 782 1408 782 Q 1426 783 1466 798.5 Q 1506 814 1519.5 827.5 Q 1533 841 1533 852 Q 1532 861 1522 872.5 Q 1512 884 1469 890 L 1387 905 L 1272 920 L 1169 935 Q 1116 941 1090 938 L 1021 933 L 1023 872 Z"/><path d="M 1007 1550 L 1328 1524 L 1469 1513 L 1536 1506 L 1613 1498 Q 1651 1494 1682 1487.5 Q 1713 1481 1717 1480 Q 1739 1480 1777 1496 Q 1815 1512 1843 1530.5 Q 1871 1549 1890 1576 Q 1909 1603 1903.5 1614.5 Q 1898 1626 1884.5 1631.5 Q 1871 1637 1825 1634 L 1773 1631 Q 1722 1629 1659 1627.5 Q 1596 1626 1513 1627 Q 1414 1629 1325 1633.5 Q 1236 1638 1119 1647 L 799 1673 Q 759 1677 649.5 1691.5 Q 540 1706 507 1711 Q 474 1716 433 1724.5 Q 392 1733 359.5 1745 Q 327 1757 315 1757 Q 295 1758 260.5 1741.5 Q 226 1725 199 1705 Q 172 1685 157 1666 Q 142 1647 145.5 1637.5 Q 149 1628 163 1627 L 222 1623 Q 264 1621 309.5 1618.5 Q 355 1616 371 1614 L 888 1562 L 1007 1550 Z"/></g></g>
</g>

<g class="page-number"><text x="105.0" y="292.0" font-size="3" fill="#999" font-family="sans-serif" text-anchor="middle">- 1 -</text></g>
</svg>