<svg xmlns="http://www.w3.org/2000/svg" viewBox="0 0 210.0 297.0" width="210.0mm" height="297.0mm">
<rect x="0" y="0" width="210.0" height="297.0" fill="white"/>
<rect x="0.5" y="0.5" width="209.0" height="296.0" fill="none" stroke="#aaa" stroke-width="0.4"/>
<g class="grid" fill="none" stroke="#c8c8c8" stroke-width="0.2">
  <line x1="15.00" y1="15.00" x2="195.00" y2="15.00"/>
  <line x1="15.00" y1="30.00" x2="195.00" y2="30.00"/>
  <line x1="15.00" y1="45.00" x2="195.00" y2="45.00"/>
  <line x1="15.00" y1="60.00" x2="195.00" y2="60.00"/>
  <line x1="15.00" y1="75.00" x2="195.00" y2="75.00"/>
  <line x1="15.00" y1="90.00" x2="195.00" y2="90.00"/>
  <line x1="15.00" y1="105.00" x2="195.00" y2="105.00"/>
  <line x1="15.00" y1="120.00" x2="195.00" y2="120.00"/>
  <line x1="15.00" y1="135.00" x2="195.00" y2="135.00"/>
  <line x1="15.00" y1="150.00" x2="195.00" y2="150.00"/>
  <line x1="15.00" y1="165.00" x2="195.00" y2="165.00"/>
  <line x1="15.00" y1="180.00" x2="195.00" y2="180.00"/>
  <line x1="15.00" y1="195.00" x2="195.00" y2="195.00"/>
  <line x1="15.00" y1="210.00" x2="195.00" y2="210.00"/>
  <line x1="15.00" y1="225.00" x2="195.00" y2="225.00"/>
  <line x1="15.00" y1="240.00" x2="195.00" y2="240.00"/>
  <line x1="15.00" y1="255.00" x2="195.00" y2="255.00"/>
  <line x1="15.00" y1="270.00" x2="195.00" y2="270.00"/>
  <line x1="15.00" y1="282.00" x2="195.00" y2="282.00"/>
  <line x1="15.00" y1="15.00" x2="15.00" y2="282.00"/>
  <line x1="30.00" y1="15.00" x2="30.00" y2="282.00"/>
  <line x1="45.00" y1="15.00" x2="45.00" y2="282.00"/>
  <line x1="60.00" y1="15.00" x2="60.00" y2="282.00"/>
  <line x1="75.00" y1="15.00" x2="75.00" y2="282.00"/>
  <line x1="90.00" y1="15.00" x2="90.00" y2="282.00"/>
  <line x1="105.00" y1="15.00" x2="105.00" y2="282.00"/>
  <line x1="120.00" y1="15.00" x2="120.00" y2="282.00"/>
  <line x1="135.00" y1="15.00" x2="135.00" y2="282.00"/>
  <line x1="150.00" y1="15.00" x2="150.00" y2="282.00"/>
  <line x1="165.00" y1="15.00" x2="165.00" y2="282.00"/>
  <line x1="180.00" y1="15.00" x2="180.00" y2="282.00"/>
  <line x1="195.00" y1="15.00" x2="195.00" y2="282.00"/>
  </g>
<g class="chars">
<g transform="translate(15.0,15.0) scale(0.00732421875,0.00732421875)"><g fill="#222"><path d="M 617 685 Q 559 738 531 760 Q 503 782 459.5 812.5 Q 416 843 392 854 L 361 869 Q 349 875 342 868 Q 335 861 350 846 L 376 821 L 414 785 Q 448 752 504 688 Q 560 624 598 574 Q 636 524 677 457.5 Q 718 391 741 344 Q 764 297 771 261 L 783 183 Q 785 175 787.5 170.5 Q 790 166 795 163 Q 800 160 811 161 Q 821 163 838.5 170 Q 856 177 889.5 202.5 Q 923 228 937 243.5 Q 951 259 949 272 Q 947 284 928 298 L 904 316 Q 889 329 872 355 L 846 396 L 799 465 L 754 521 Q 725 564 720 569 L 662 637 L 617 685 Z"/><path d="M 799 465 Q 848 459 887.5 452 Q 927 445 973.5 434 Q 1020 423 1052 413.5 Q 1084 404 1116.5 391 Q 1149 378 1164 376 Q 1189 374 1217.5 385.5 Q 1246 397 1280 418 Q 1314 439 1332.5 459.5 Q 1351 480 1348 496 Q 1345 507 1317.5 526.5 Q 1290 546 1268.5 564.5 Q 1247 583 1223.5 607.5 Q 1200 632 1168 671 L 1093 764 L 1010 857 L 943 927 Q 885 981 833.5 1027 Q 782 1073 717 1119.5 Q 652 1166 573 1212.5 Q 494 1259 429 1289 Q 364 1319 297 1342 Q 230 1365 199 1371 L 170 1377 Q 152 1381 148 1370 Q 144 1359 161 1350 L 200 1330 Q 246 1307 319.5 1267.5 Q 393 1228 468.5 1179.5 Q 544 1131 648 1052.5 Q 752 974 795 930 L 869 856 L 926 796 Q 1001 708 1035 660 L 1090 579 Q 1109 550 1118.5 535 Q 1128 520 1125.5 510.5 Q 1123 501 1116.5 496 Q 1110 491 1093 493 Q 1078 495 1031 505.5 Q 984 516 941 522.5 Q 898 529 864.5 532 Q 831 535 812 534 Q 786 534 776 529 L 754 521 L 799 465 Z"/><path d="M 869 856 Q 853 840 833.5 821 Q 814 802 762 764.5 Q 710 727 697 721 L 617 685 L 662 637 Q 691 646 709.5 653 Q 728 660 755.5 674.5 Q 783 689 820.5 716 Q 858 743 873 754 L 926 796 L 1010 857 Q 1117 938 1180 979 Q 1243 1020 1318 1060 Q 1393 1100 1465.5 1129 Q 1538 1158 1590 1176 Q 1642 1194 1730.5 1222 Q 1819 1250 1839 1255 L 1875 1266 Q 1899 1274 1898.5 1285 Q 1898 1296 1886 1299 L 1852 1308 Q 1820 1317 1743.5 1327.5 Q 1667 1338 1607.5 1344.5 Q 1548 1351 1510 1351 Q 1441 1353 1401.5 1337.5 Q 1362 1322 1276 1247 Q 1190 1172 1149 1132 L 1004 986 L 943 927 L 869 856 Z"/><path d="M 852 1266 L 803 1204 Q 790 1188 794.5 1180.5 Q 799 1173 820 1177 L 865 1187 Q 876 1190 932 1209 L 1001 1233 Q 1039 1249 1068 1273 Q 1097 1297 1111.5 1322 Q 1126 1347 1128.5 1377.5 Q 1131 1408 1119.5 1428 Q 1108 1448 1083.5 1454 Q 1059 1460 1016 1428 Q 989 1409 939 1362 Q 889 1315 852 1266 Z"/><path d="M 762 1585 L 728 1558 Q 705 1541 711 1531 Q 717 1521 739 1527 L 799 1544 Q 823 1551 888 1578 Q 953 1605 1008.5 1630.5 Q 1064 1656 1091.5 1690.5 Q 1119 1725 1129.5 1751.5 Q 1140 1778 1139 1811 Q 1137 1845 1121.5 1865 Q 1106 1885 1087.5 1889 Q 1069 1893 1035 1866 Q 1006 1845 973 1808 L 839 1657 Q 796 1613 762 1585 Z"/></g></g>
</g>

<g class="page-number"><text x="105.0" y="292.0" font-size="3" fill="#999" font-family="sans-serif" text-anchor="middle">- 1 -</text></g>
</svg>