<svg xmlns="http://www.w3.org/2000/svg" viewBox="0 0 210.0 297.0" width="210.0mm" height="297.0mm">
<rect x="0" y="0" width="210.0" height="297.0" fill="white"/>
<rect x="0.5" y="0.5" width="209.0" height="296.0" fill="none" stroke="#aaa" stroke-width="0.4"/>
<g class="grid" fill="none" stroke="#c8c8c8" stroke-width="0.2">
  <line x1="15.00" y1="15.00" x2="195.00" y2="15.00"/>
  <line x1="15.00" y1="30.00" x2="195.00" y2="30.00"/>
  <line x1="15.00" y1="45.00" x2="195.00" y2="45.00"/>
  <line x1="15.00" y1="60.00" x2="195.00" y2="60.00"/>
  <line x1="15.00" y1="75.00" x2="195.00" y2="75.00"/>
  <line x1="15.00" y1="90.00" x2="195.00" y2="90.00"/>
  <line x1="15.00" y1="105.00" x2="195.00" y2="105.00"/>
  <line x1="15.00" y1="120.00" x2="195.00" y2="120.00"/>
  <line x1="15.00" y1="135.00" x2="195.00" y2="135.00"/>
  <line x1="15.00" y1="150.00" x2="195.00" y2="150.00"/>
  <line x1="15.00" y1="165.00" x2="195.00" y2="165.00"/>
  <line x1="15.00" y1="180.00" x2="195.00" y2="180.00"/>
  <line x1="15.00" y1="195.00" x2="195.00" y2="195.00"/>
  <line x1="15.00" y1="210.00" x2="195.00" y2="210.00"/>
  <line x1="15.00" y1="225.00" x2="195.00" y2="225.00"/>
  <line x1="15.00" y1="240.00" x2="195.00" y2="240.00"/>
  <line x1="15.00" y1="255.00" x2="195.00" y2="255.00"/>
  <line x1="15.00" y1="270.00" x2="195.00" y2="270.00"/>
  <line x1="15.00" y1="282.00" x2="195.00" y2="282.00"/>
  <line x1="15.00" y1="15.00" x2="15.00" y2="282.00"/>
  <line x1="30.00" y1="15.00" x2="30.00" y2="282.00"/>
  <line x1="45.00" y1="15.00" x2="45.00" y2="282.00"/>
  <line x1="60.00" y1="15.00" x2="60.00" y2="282.00"/>
  <line x1="75.00" y1="15.00" x2="75.00" y2="282.00"/>
  <line x1="90.00" y1="15.00" x2="90.00" y2="282.00"/>
  <line x1="105.00" y1="15.00" x2="105.00" y2="282.00"/>
  <line x1="120.00" y1="15.00" x2="120.00" y2="282.00"/>
  <line x1="135.00" y1="15.00" x2="135.00" y2="282.00"/>
  <line x1="150.00" y1="15.00" x2="150.00" y2="282.00"/>
  <line x1="165.00" y1="15.00" x2="165.00" y2="282.00"/>
  <line x1="180.00" y1="15.00" x2="180.00" y2="282.00"/>
  <line x1="195.00" y1="15.00" x2="195.00" y2="282.00"/>
  </g>
<g class="chars">
<g transform="translate(15.0,15.0) scale(0.00732421875,0.00732421875)"><g fill="#222"><path d="M 383 1084 Q 354 1088 329 1090.5 Q 304 1093 281 1092 Q 259 1092 222 1087 Q 185 1082 171.5 1065.5 Q 158 1049 164 1042 Q 166 1039 177.5 1037.5 Q 189 1036 214 1031 L 275 1020 L 345 1005 L 383 997 L 498 972 Q 526 965 557 952.5 Q 588 940 596 939 Q 612 937 641 942.5 Q 670 948 695.5 963.5 Q 721 979 718 992 Q 715 1000 702 1007.5 Q 689 1015 668 1020 L 618 1033 L 548 1052 L 496 1065 L 383 1084 Z"/><path d="M 390 1464 L 383 1084 L 383 997 L 379 776 L 375 687 Q 372 623 369.5 600 Q 367 577 358.5 547 Q 350 517 338.5 496 Q 327 475 326 463 Q 325 451 334.5 442 Q 344 433 372 434 Q 407 436 428 441.5 Q 449 447 474 456.5 Q 499 466 518.5 479 Q 538 492 539 505.5 Q 540 519 527 547 Q 518 566 512 594 Q 506 622 503.5 645.5 Q 501 669 501 717 L 498 972 L 496 1065 L 494 1429 Q 435 1546.5 390 1464 Z"/><path d="M 494 1429 L 729 1342 Q 741 1338 749.5 1348.5 Q 758 1359 740 1370 L 479 1540 L 401 1590 L 353 1623 Q 314 1649 305.5 1656.5 Q 297 1664 280 1679.5 Q 263 1695 253 1697 Q 241 1700 224.5 1693 Q 208 1686 181 1667 Q 154 1648 136 1631.5 Q 118 1615 102.5 1592 Q 87 1569 92 1560 Q 95 1554 112 1551 L 145 1548 Q 160 1547 194.5 1536 Q 229 1525 254 1516.5 Q 279 1508 326 1489 L 390 1464 L 494 1429 Z"/><path d="M 943 1037 L 1132 959 L 1247 905 Q 1295 884 1326 869.5 Q 1357 855 1416.5 826 Q 1476 797 1505 779.5 Q 1534 762 1549.5 758 Q 1565 754 1592 758 Q 1608 761 1654.5 776.5 Q 1701 792 1721 803.5 Q 1741 815 1743 825 Q 1745 835 1736 852 L 1715 887 Q 1709 897 1694 933 Q 1679 969 1652 1029 Q 1625 1089 1602 1136.5 Q 1579 1184 1545.5 1235.5 Q 1512 1287 1476 1332 L 1441 1376 Q 1427 1394 1415 1389.5 Q 1403 1385 1411 1365 L 1436 1301 Q 1471 1210 1481 1182.5 Q 1491 1155 1509 1086 Q 1527 1017 1534 986.5 Q 1541 956 1544 930 Q 1547 904 1539 897.5 Q 1531 891 1516.5 894 Q 1502 897 1483 905 L 1244 1006 L 1135 1050 L 935 1131 L 831 1179 Q 818 1185 805.5 1190 Q 793 1195 778 1198.5 Q 763 1202 746 1203 Q 721 1205 706.5 1202 Q 692 1199 666 1190 Q 640 1181 634.5 1171.5 Q 629 1162 631 1156 Q 632 1150 654 1146 Q 676 1142 724 1123 L 790 1100 L 835 1084 L 943 1037 Z"/><path d="M 1132 959 L 1132 554 Q 1132 496 1131.5 477 Q 1131 458 1128.5 423.5 Q 1126 389 1122 359.5 Q 1118 330 1110 312 L 1093 277 Q 1084 253 1092 244 Q 1100 235 1127 237 Q 1149 240 1195 255 Q 1241 270 1263.5 285.5 Q 1286 301 1287 313.5 Q 1288 326 1283 340 Q 1273 366 1270 379.5 Q 1267 393 1264 432 L 1257 513 Q 1256 516 1255 608 L 1249 750 L 1247 905 L 1244 1006 L 1238 1106 L 1232 1209 Q 1227 1269 1221 1306 L 1204 1392 Q 1198 1433 1187.5 1448.5 Q 1177 1464 1166 1464.5 Q 1155 1465 1146 1432 Q 1137 1405 1137.5 1352.5 Q 1138 1300 1138 1256 L 1136 1145 L 1135 1050 L 1132 959 Z"/><path d="M 935 1131 Q 930 1198 929 1222.5 Q 928 1247 924 1342.5 Q 920 1438 924 1476 Q 928 1531 946 1563.5 Q 964 1596 1001 1620.5 Q 1038 1645 1098 1660 Q 1158 1675 1247.5 1681.5 Q 1337 1688 1413 1685 Q 1483 1683 1558.5 1671 Q 1634 1659 1677 1639.5 Q 1720 1620 1740.5 1592.5 Q 1761 1565 1778.5 1513.5 Q 1796 1462 1806.5 1426 Q 1817 1390 1822 1368 L 1836 1304 Q 1842 1276 1853.5 1276.5 Q 1865 1277 1869 1298 L 1880 1370 L 1895 1476 Q 1902 1523 1911 1553 Q 1920 1583 1937.5 1618 Q 1955 1653 1955.5 1664.5 Q 1956 1676 1954 1683 Q 1949 1695 1920.5 1715 Q 1892 1735 1851.5 1751.5 Q 1811 1768 1742 1782.5 Q 1673 1797 1583.5 1805.5 Q 1494 1814 1394 1812 Q 1308 1811 1221 1800.5 Q 1134 1790 1065 1770 Q 996 1750 942.5 1716 Q 889 1682 867.5 1642.5 Q 846 1603 838 1552.5 Q 830 1502 829 1455.5 Q 828 1409 829 1345 L 831 1179 L 835 1084 L 838 983 Q 838 950 837 928 Q 836 906 831.5 881.5 Q 827 857 818.5 835 Q 810 813 809 806 Q 808 799 810.5 792 Q 813 785 832 783 Q 846 782 881 794 Q 916 806 928.5 811.5 Q 941 817 961.5 832 Q 982 847 982.5 857.5 Q 983 868 972 891 Q 962 911 958.5 928.5 Q 955 946 949 994 L 943 1037 L 935 1131 Z"/></g></g>
</g>

<g class="page-number"><text x="105.0" y="292.0" font-size="3" fill="#999" font-family="sans-serif" text-anchor="middle">- 1 -</text></g>
</svg>