<svg xmlns="http://www.w3.org/2000/svg" viewBox="0 0 210.0 297.0" width="210.0mm" height="297.0mm">
<rect x="0" y="0" width="210.0" height="297.0" fill="white"/>
<rect x="0.5" y="0.5" width="209.0" height="296.0" fill="none" stroke="#aaa" stroke-width="0.4"/>
<g class="grid" fill="none" stroke="#c8c8c8" stroke-width="0.2">
  <line x1="15.00" y1="15.00" x2="195.00" y2="15.00"/>
  <line x1="15.00" y1="30.00" x2="195.00" y2="30.00"/>
  <line x1="15.00" y1="45.00" x2="195.00" y2="45.00"/>
  <line x1="15.00" y1="60.00" x2="195.00" y2="60.00"/>
  <line x1="15.00" y1="75.00" x2="195.00" y2="75.00"/>
  <line x1="15.00" y1="90.00" x2="195.00" y2="90.00"/>
  <line x1="15.00" y1="105.00" x2="195.00" y2="105.00"/>
  <line x1="15.00" y1="120.00" x2="195.00" y2="120.00"/>
  <line x1="15.00" y1="135.00" x2="195.00" y2="135.00"/>
  <line x1="15.00" y1="150.00" x2="195.00" y2="150.00"/>
  <line x1="15.00" y1="165.00" x2="195.00" y2="165.00"/>
  <line x1="15.00" y1="180.00" x2="195.00" y2="180.00"/>
  <line x1="15.00" y1="195.00" x2="195.00" y2="195.00"/>
  <line x1="15.00" y1="210.00" x2="195.00" y2="210.00"/>
  <line x1="15.00" y1="225.00" x2="195.00" y2="225.00"/>
  <line x1="15.00" y1="240.00" x2="195.00" y2="240.00"/>
  <line x1="15.00" y1="255.00" x2="195.00" y2="255.00"/>
  <line x1="15.00" y1="270.00" x2="195.00" y2="270.00"/>
  <line x1="15.00" y1="282.00" x2="195.00" y2="282.00"/>
  <line x1="15.00" y1="15.00" x2="15.00" y2="282.00"/>
  <line x1="30.00" y1="15.00" x2="30.00" y2="282.00"/>
  <line x1="45.00" y1="15.00" x2="45.00" y2="282.00"/>
  <line x1="60.00" y1="15.00" x2="60.00" y2="282.00"/>
  <line x1="75.00" y1="15.00" x2="75.00" y2="282.00"/>
  <line x1="90.00" y1="15.00" x2="90.00" y2="282.00"/>
  <line x1="105.00" y1="15.00" x2="105.00" y2="282.00"/>
  <line x1="120.00" y1="15.00" x2="120.00" y2="282.00"/>
  <line x1="135.00" y1="15.00" x2="135.00" y2="282.00"/>
  <line x1="150.00" y1="15.00" x2="150.00" y2="282.00"/>
  <line x1="165.00" y1="15.00" x2="165.00" y2="282.00"/>
  <line x1="180.00" y1="15.00" x2="180.00" y2="282.00"/>
  <line x1="195.00" y1="15.00" x2="195.00" y2="282.00"/>
  </g>
<g class="chars">
<g transform="translate(15.0,15.0) scale(0.00732421875,0.00732421875)"><g fill="none" stroke-linecap="round" stroke-linejoin="round" stroke="#222"><polyline stroke-width="40.0" points="1032.00,200.00 1048.00,232.00 1048.00,264.00 1048.00,296.00 1048.00,328.00 1016.00,344.00 984.00,344.00 952.00,344.00 920.00,360.00 888.00,360.00 856.00,360.00 824.00,360.00 792.00,360.00 760.00,376.00 728.00,376.00 696.00,376.00 680.00,392.00 648.00,392.00 616.00,424.00 600.00,440.00 584.00,472.00 568.00,504.00 568.00,536.00 568.00,568.00 568.00,600.00 568.00,632.00 568.00,664.00 568.00,696.00 552.00,728.00 552.00,760.00 552.00,792.00 552.00,824.00 552.00,856.00 552.00,888.00 552.00,920.00 552.00,952.00 552.00,984.00 552.00,1016.00 552.00,1048.00 552.00,1080.00 552.00,1112.00 552.00,1144.00 552.00,1176.00 552.00,1208.00 552.00,1240.00 552.00,1272.00 552.00,1304.00 552.00,1336.00 536.00,1368.00 536.00,1400.00 536.00,1432.00 536.00,1464.00 536.00,1496.00 536.00,1528.00 520.00,1560.00 504.00,1592.00 504.00,1624.00 504.00,1656.00 488.00,1672.00 488.00,1704.00 488.00,1736.00 472.00,1768.00"/><polyline stroke-width="40.0" points="1192.00,536.00 1160.00,536.00 1128.00,536.00 1096.00,536.00 1064.00,536.00 1032.00,552.00 1000.00,552.00 968.00,552.00 936.00,552.00 904.00,552.00 872.00,552.00 840.00,552.00"/><polyline stroke-width="40.0" points="1304.00,728.00 1272.00,744.00 1240.00,744.00 1208.00,744.00 1176.00,744.00 1144.00,744.00 1112.00,744.00 1080.00,744.00 1048.00,760.00 1016.00,760.00 984.00,760.00 952.00,760.00 920.00,760.00 888.00,760.00 856.00,760.00 824.00,760.00 792.00,760.00 776.00,760.00"/><polyline stroke-width="40.0" points="1560.00,1800.00 1560.00,1768.00 1544.00,1736.00 1544.00,1704.00 1544.00,1672.00 1544.00,1640.00 1544.00,1608.00 1544.00,1576.00 1528.00,1544.00 1528.00,1512.00 1528.00,1480.00 1528.00,1448.00 1528.00,1416.00 1528.00,1384.00 1528.00,1352.00 1528.00,1320.00 1528.00,1288.00 1528.00,1256.00 1528.00,1224.00 1512.00,1192.00 1512.00,1160.00 1512.00,1128.00 1512.00,1096.00 1512.00,1064.00 1512.00,1032.00 1512.00,1000.00 1512.00,968.00 1512.00,936.00 1496.00,904.00 1496.00,872.00 1496.00,840.00 1496.00,808.00 1512.00,776.00 1496.00,744.00 1496.00,712.00 1496.00,680.00 1496.00,648.00 1512.00,616.00 1512.00,584.00 1512.00,552.00 1512.00,520.00 1512.00,488.00 1496.00,456.00 1464.00,424.00 1448.00,408.00 1432.00,392.00 1416.00,376.00 1384.00,360.00 1352.00,360.00 1320.00,344.00 1288.00,344.00 1256.00,344.00 1224.00,344.00 1192.00,344.00 1160.00,344.00 1128.00,344.00 1096.00,344.00 1064.00,344.00"/><polyline stroke-width="40.0" points="856.00,1912.00 888.00,1880.00 920.00,1848.00 936.00,1832.00 952.00,1800.00 968.00,1784.00 984.00,1752.00 1000.00,1720.00 1016.00,1704.00 1032.00,1688.00 1048.00,1656.00 1064.00,1640.00 1080.00,1608.00 1096.00,1576.00 1112.00,1560.00 1128.00,1528.00 1128.00,1496.00 1144.00,1464.00 1160.00,1432.00 1176.00,1400.00 1192.00,1368.00 1192.00,1336.00 1192.00,1304.00 1208.00,1272.00 1224.00,1240.00 1224.00,1208.00 1224.00,1176.00 1224.00,1144.00 1224.00,1112.00 1224.00,1080.00 1208.00,1064.00 1208.00,1032.00 1176.00,1000.00 1144.00,1000.00 1112.00,984.00 1080.00,984.00 1048.00,984.00 1016.00,968.00 1000.00,952.00 984.00,920.00 968.00,888.00 968.00,856.00 968.00,824.00 968.00,792.00 968.00,776.00"/></g></g>
</g>

<g class="page-number"><text x="105.0" y="292.0" font-size="3" fill="#999" font-family="sans-serif" text-anchor="middle">- 1 -</text></g>
</svg>