<svg xmlns="http://www.w3.org/2000/svg" viewBox="0 0 210.0 297.0" width="210.0mm" height="297.0mm">
<rect x="0" y="0" width="210.0" height="297.0" fill="white"/>
<rect x="0.5" y="0.5" width="209.0" height="296.0" fill="none" stroke="#aaa" stroke-width="0.4"/>
<g class="grid" fill="none" stroke="#c8c8c8" stroke-width="0.2">
  <line x1="15.00" y1="15.00" x2="195.00" y2="15.00"/>
  <line x1="15.00" y1="30.00" x2="195.00" y2="30.00"/>
  <line x1="15.00" y1="45.00" x2="195.00" y2="45.00"/>
  <line x1="15.00" y1="60.00" x2="195.00" y2="60.00"/>
  <line x1="15.00" y1="75.00" x2="195.00" y2="75.00"/>
  <line x1="15.00" y1="90.00" x2="195.00" y2="90.00"/>
  <line x1="15.00" y1="105.00" x2="195.00" y2="105.00"/>
  <line x1="15.00" y1="120.00" x2="195.00" y2="120.00"/>
  <line x1="15.00" y1="135.00" x2="195.00" y2="135.00"/>
  <line x1="15.00" y1="150.00" x2="195.00" y2="150.00"/>
  <line x1="15.00" y1="165.00" x2="195.00" y2="165.00"/>
  <line x1="15.00" y1="180.00" x2="195.00" y2="180.00"/>
  <line x1="15.00" y1="195.00" x2="195.00" y2="195.00"/>
  <line x1="15.00" y1="210.00" x2="195.00" y2="210.00"/>
  <line x1="15.00" y1="225.00" x2="195.00" y2="225.00"/>
  <line x1="15.00" y1="240.00" x2="195.00" y2="240.00"/>
  <line x1="15.00" y1="255.00" x2="195.00" y2="255.00"/>
  <line x1="15.00" y1="270.00" x2="195.00" y2="270.00"/>
  <line x1="15.00" y1="282.00" x2="195.00" y2="282.00"/>
  <line x1="15.00" y1="15.00" x2="15.00" y2="282.00"/>
  <line x1="30.00" y1="15.00" x2="30.00" y2="282.00"/>
  <line x1="45.00" y1="15.00" x2="45.00" y2="282.00"/>
  <line x1="60.00" y1="15.00" x2="60.00" y2="282.00"/>
  <line x1="75.00" y1="15.00" x2="75.00" y2="282.00"/>
  <line x1="90.00" y1="15.00" x2="90.00" y2="282.00"/>
  <line x1="105.00" y1="15.00" x2="105.00" y2="282.00"/>
  <line x1="120.00" y1="15.00" x2="120.00" y2="282.00"/>
  <line x1="135.00" y1="15.00" x2="135.00" y2="282.00"/>
  <line x1="150.00" y1="15.00" x2="150.00" y2="282.00"/>
  <line x1="165.00" y1="15.00" x2="165.00" y2="282.00"/>
  <line x1="180.00" y1="15.00" x2="180.00" y2="282.00"/>
  <line x1="195.00" y1="15.00" x2="195.00" y2="282.00"/>
  </g>
<g class="chars">
<g transform="translate(15.0,15.0) scale(0.00732421875,0.00732421875)"><g fill="#222"><path d="M 1018 497 Q 990 474 975.5 458 Q 961 442 933 395.5 Q 905 349 887 321.5 Q 869 294 865.5 275.5 Q 862 257 866 252.5 Q 870 248 887 249 Q 905 252 940.5 262.5 Q 976 273 1009 287 Q 1042 301 1065.5 319.5 Q 1089 338 1099.5 360.5 Q 1110 383 1109 409 Q 1107 449 1092 461 L 1063 490 Q 1040.5 506.5 1018 497 Z"/><path d="M 434 615 Q 427 648 421 675 Q 415 702 404 737 Q 393 772 371.5 817 Q 350 862 329 881 Q 308 900 284.5 900.5 Q 261 901 246.5 875.5 Q 232 850 232 815.5 Q 232 781 243 758 L 308 615 Q 313 604 327.5 554.5 Q 342 505 347 481.5 Q 352 458 361 453.5 Q 370 449 383 451.5 Q 396 454 411 491 L 427 533 Q 435.5 589 434 615 Z"/><path d="M 1063 490 L 1395 454 Q 1441 450 1500 439 Q 1559 428 1577 425 Q 1595 422 1611 424 Q 1633 428 1664 448 Q 1695 468 1741.5 505 Q 1788 542 1809.5 580 Q 1831 618 1816 634 Q 1808 642 1774 646 Q 1740 650 1700.5 658 Q 1661 666 1608 682 L 1527 708 L 1445 733 Q 1424 740 1418.5 732.5 Q 1413 725 1431 706 L 1471 664 L 1512 623 Q 1533 601 1549.5 570 Q 1566 539 1559.5 528 Q 1553 517 1520 516.5 Q 1487 516 1453 519 L 820 580 Q 786 584 715.5 594.5 Q 645 605 583 615.5 Q 521 626 504 623 L 434 615 L 427 533 Q 658 521 701 518 L 1018 497 L 1063 490 Z"/><path d="M 672 1684 L 662 1734 Q 656 1764 642 1767.5 Q 628 1771 616 1762.5 Q 604 1754 590.5 1729 Q 577 1704 573 1665 L 543 1416 L 511 1198 Q 507 1174 491 1138.5 Q 475 1103 454.5 1079 Q 434 1055 431 1043.5 Q 428 1032 434 1022.5 Q 440 1013 461 1010 Q 474 1009 515 1016 L 575 1028 Q 624 1033 613 1084 L 634 1316 L 645 1371 L 664 1613 L 672 1684 Z"/><path d="M 1050 981 L 1267 964 Q 1286 963 1328.5 955.5 Q 1371 948 1396 940.5 Q 1421 933 1431 932 Q 1450 932 1470 942 Q 1490 952 1533.5 981 Q 1577 1010 1586 1022.5 Q 1595 1035 1595.5 1043 Q 1596 1051 1586 1068 Q 1568 1098 1559.5 1122 Q 1551 1146 1549 1171 L 1522 1480 Q 1516 1548 1502 1608.5 Q 1488 1669 1464 1707 Q 1440 1745 1404.5 1773.5 Q 1369 1802 1354 1800 Q 1339 1799 1329.5 1787 Q 1320 1775 1309 1741 Q 1212 1487 1361 1603 Q 1377 1565 1386.5 1536.5 Q 1396 1508 1399 1480 L 1415 1307 L 1418 1275 L 1424 1161 Q 1426 1109 1428 1084.5 Q 1430 1060 1418.5 1046 Q 1407 1032 1379 1029 Q 1351 1026 1312 1028 L 1045 1043 L 928 1049 L 613 1084 L 575 1028 L 923 993 L 1050 981 Z"/><path d="M 634 1316 L 928 1290 L 1045 1275 L 1159 1262 Q 1164 1262 1200 1255 L 1267 1243 Q 1297 1236 1304 1235 Q 1325 1234 1358.5 1244.5 Q 1392 1255 1399 1260 L 1418 1275 L 1415 1307 Q 1399 1315 1387 1318.5 Q 1375 1322 1327 1327 L 1044 1356 L 930 1370 L 798 1381 Q 737 1387 719 1386.5 Q 701 1386 681 1380 L 645 1371 L 634 1316 Z"/><path d="M 923 993 L 923 893 Q 923 871 919 838.5 Q 915 806 909 788 Q 903 770 887.5 735 Q 872 700 878 690 Q 884 680 912 679 Q 936 679 996 698.5 Q 1056 718 1075.5 735 Q 1095 752 1096 765.5 Q 1097 779 1078 812 Q 1065 834 1058.5 860 Q 1052 886 1052 912 L 1050 981 L 1045 1043 L 1045 1275 L 1044 1356 L 1039 1583 Q 975 1671.5 931 1596 L 930 1370 L 928 1290 L 928 1049 L 923 993 Z"/><path d="M 1277 1645 L 848 1679 Q 736 1688 726 1687 L 672 1684 L 664 1613 L 931 1596 L 1039 1583 L 1215 1567 Q 1236 1565 1272.5 1565.5 Q 1309 1566 1322 1575 L 1361 1603 L 1277 1645 Z"/></g></g>
</g>

<g class="page-number"><text x="105.0" y="292.0" font-size="3" fill="#999" font-family="sans-serif" text-anchor="middle">- 1 -</text></g>
</svg>