<svg xmlns="http://www.w3.org/2000/svg" viewBox="0 0 210.0 297.0" width="210.0mm" height="297.0mm">
<rect x="0" y="0" width="210.0" height="297.0" fill="white"/>
<rect x="0.5" y="0.5" width="209.0" height="296.0" fill="none" stroke="#aaa" stroke-width="0.4"/>
<g class="grid" fill="none" stroke="#c8c8c8" stroke-width="0.2">
  <line x1="15.00" y1="15.00" x2="195.00" y2="15.00"/>
  <line x1="15.00" y1="30.00" x2="195.00" y2="30.00"/>
  <line x1="15.00" y1="45.00" x2="195.00" y2="45.00"/>
  <line x1="15.00" y1="60.00" x2="195.00" y2="60.00"/>
  <line x1="15.00" y1="75.00" x2="195.00" y2="75.00"/>
  <line x1="15.00" y1="90.00" x2="195.00" y2="90.00"/>
  <line x1="15.00" y1="105.00" x2="195.00" y2="105.00"/>
  <line x1="15.00" y1="120.00" x2="195.00" y2="120.00"/>
  <line x1="15.00" y1="135.00" x2="195.00" y2="135.00"/>
  <line x1="15.00" y1="150.00" x2="195.00" y2="150.00"/>
  <line x1="15.00" y1="165.00" x2="195.00" y2="165.00"/>
  <line x1="15.00" y1="180.00" x2="195.00" y2="180.00"/>
  <line x1="15.00" y1="195.00" x2="195.00" y2="195.00"/>
  <line x1="15.00" y1="210.00" x2="195.00" y2="210.00"/>
  <line x1="15.00" y1="225.00" x2="195.00" y2="225.00"/>
  <line x1="15.00" y1="240.00" x2="195.00" y2="240.00"/>
  <line x1="15.00" y1="255.00" x2="195.00" y2="255.00"/>
  <line x1="15.00" y1="270.00" x2="195.00" y2="270.00"/>
  <line x1="15.00" y1="282.00" x2="195.00" y2="282.00"/>
  <line x1="15.00" y1="15.00" x2="15.00" y2="282.00"/>
  <line x1="30.00" y1="15.00" x2="30.00" y2="282.00"/>
  <line x1="45.00" y1="15.00" x2="45.00" y2="282.00"/>
  <line x1="60.00" y1="15.00" x2="60.00" y2="282.00"/>
  <line x1="75.00" y1="15.00" x2="75.00" y2="282.00"/>
  <line x1="90.00" y1="15.00" x2="90.00" y2="282.00"/>
  <line x1="105.00" y1="15.00" x2="105.00" y2="282.00"/>
  <line x1="120.00" y1="15.00" x2="120.00" y2="282.00"/>
  <line x1="135.00" y1="15.00" x2="135.00" y2="282.00"/>
  <line x1="150.00" y1="15.00" x2="150.00" y2="282.00"/>
  <line x1="165.00" y1="15.00" x2="165.00" y2="282.00"/>
  <line x1="180.00" y1="15.00" x2="180.00" y2="282.00"/>
  <line x1="195.00" y1="15.00" x2="195.00" y2="282.00"/>
  </g>
<g class="chars">
<g transform="translate(15.0,15.0) scale(0.00732421875,0.00732421875)"><g fill="#222"><path d="M 659 1537 L 654 1598 Q 649 1650 630.5 1652.5 Q 612 1655 587 1617 Q 562 1583 553 1556.5 Q 544 1530 543 1499.5 Q 542 1469 554 1395 Q 564 1337 569 1288 Q 574 1239 578.5 1168 Q 583 1097 590 931 Q 597 765 595 680 Q 593 623 587 590 Q 581 557 573 539 L 550 497 Q 543 479 547 473 Q 551 467 562 464.5 Q 573 462 593 464 Q 630 469 643 475 L 667 486 Q 701 501 695 552 L 684 981 L 682 1039 L 668 1460 L 659 1537 Z"/><path d="M 667 486 Q 738 475 801 465 Q 864 455 906 447 L 1077 413 Q 1145 401 1160 397 L 1218 383 Q 1238 379 1246.5 375.5 Q 1255 372 1272 363 Q 1289 354 1296 352 Q 1309 350 1333 359 Q 1357 368 1401.5 391 Q 1446 414 1475.5 439 Q 1505 464 1505 480 Q 1504 488 1494 505 Q 1484 522 1477 539.5 Q 1470 557 1466.5 575 Q 1463 593 1459 656 Q 1455 719 1455 720 L 1450 1064 Q 1449 1099 1454 1219 L 1458 1337 Q 1460 1392 1460 1412 Q 1459 1450 1454 1490 Q 1449 1530 1439.5 1560 Q 1430 1590 1407.5 1627.5 Q 1385 1665 1354 1685 Q 1323 1705 1305 1698 Q 1289 1693 1274.5 1654.5 Q 1260 1616 1241 1580 Q 1222 1544 1218 1535 L 1201 1505 Q 1147 1399 1221 1423 L 1271 1443 Q 1285 1403 1290 1380.5 Q 1295 1358 1300.5 1301 Q 1306 1244 1307 1226 L 1311 982 L 1316 935 L 1311 603 Q 1310 554 1304 529 Q 1298 504 1278.5 490 Q 1259 476 1215 475 Q 1157 475 1086 483.5 Q 1015 492 948.5 504.5 Q 882 517 819.5 533.5 Q 757 550 743 550 L 695 552 L 667 486 Z"/><path d="M 1311 982 Q 1258 992 1232 995 L 1119 1011 L 971 1036 Q 888 1050 822 1053.5 Q 756 1057 735 1051 L 682 1039 L 684 981 Q 723 978 755.5 975 Q 788 972 823.5 967 Q 859 962 948.5 945.5 Q 1038 929 1082 915.5 Q 1126 902 1140 900 Q 1154 898 1171 898 Q 1189 899 1214 905.5 Q 1239 912 1277 923 L 1316 935 L 1311 982 Z"/><path d="M 1201 1505 Q 1142 1508 1121 1510 Q 1100 1512 1039 1519 Q 978 1526 864.5 1537.5 Q 751 1549 710 1543 L 659 1537 L 668 1460 Q 702 1458 761 1455 Q 820 1452 857.5 1448.5 Q 895 1445 971.5 1435 Q 1048 1425 1095 1418 Q 1142 1411 1166 1412 Q 1200 1414 1221 1423 L 1201 1505 Z"/></g></g>
</g>

<g class="page-number"><text x="105.0" y="292.0" font-size="3" fill="#999" font-family="sans-serif" text-anchor="middle">- 1 -</text></g>
</svg>