<svg xmlns="http://www.w3.org/2000/svg" viewBox="0 0 210.0 297.0" width="210.0mm" height="297.0mm">
<rect x="0" y="0" width="210.0" height="297.0" fill="white"/>
<rect x="0.5" y="0.5" width="209.0" height="296.0" fill="none" stroke="#aaa" stroke-width="0.4"/>
<g class="grid" fill="none" stroke="#c8c8c8" stroke-width="0.2">
  <line x1="15.00" y1="15.00" x2="195.00" y2="15.00"/>
  <line x1="15.00" y1="30.00" x2="195.00" y2="30.00"/>
  <line x1="15.00" y1="45.00" x2="195.00" y2="45.00"/>
  <line x1="15.00" y1="60.00" x2="195.00" y2="60.00"/>
  <line x1="15.00" y1="75.00" x2="195.00" y2="75.00"/>
  <line x1="15.00" y1="90.00" x2="195.00" y2="90.00"/>
  <line x1="15.00" y1="105.00" x2="195.00" y2="105.00"/>
  <line x1="15.00" y1="120.00" x2="195.00" y2="120.00"/>
  <line x1="15.00" y1="135.00" x2="195.00" y2="135.00"/>
  <line x1="15.00" y1="150.00" x2="195.00" y2="150.00"/>
  <line x1="15.00" y1="165.00" x2="195.00" y2="165.00"/>
  <line x1="15.00" y1="180.00" x2="195.00" y2="180.00"/>
  <line x1="15.00" y1="195.00" x2="195.00" y2="195.00"/>
  <line x1="15.00" y1="210.00" x2="195.00" y2="210.00"/>
  <line x1="15.00" y1="225.00" x2="195.00" y2="225.00"/>
  <line x1="15.00" y1="240.00" x2="195.00" y2="240.00"/>
  <line x1="15.00" y1="255.00" x2="195.00" y2="255.00"/>
  <line x1="15.00" y1="270.00" x2="195.00" y2="270.00"/>
  <line x1="15.00" y1="282.00" x2="195.00" y2="282.00"/>
  <line x1="15.00" y1="15.00" x2="15.00" y2="282.00"/>
  <line x1="30.00" y1="15.00" x2="30.00" y2="282.00"/>
  <line x1="45.00" y1="15.00" x2="45.00" y2="282.00"/>
  <line x1="60.00" y1="15.00" x2="60.00" y2="282.00"/>
  <line x1="75.00" y1="15.00" x2="75.00" y2="282.00"/>
  <line x1="90.00" y1="15.00" x2="90.00" y2="282.00"/>
  <line x1="105.00" y1="15.00" x2="105.00" y2="282.00"/>
  <line x1="120.00" y1="15.00" x2="120.00" y2="282.00"/>
  <line x1="135.00" y1="15.00" x2="135.00" y2="282.00"/>
  <line x1="150.00" y1="15.00" x2="150.00" y2="282.00"/>
  <line x1="165.00" y1="15.00" x2="165.00" y2="282.00"/>
  <line x1="180.00" y1="15.00" x2="180.00" y2="282.00"/>
  <line x1="195.00" y1="15.00" x2="195.00" y2="282.00"/>
  </g>
<g class="chars">
<g transform="translate(15.0,15.0) scale(0.00732421875,0.00732421875)"><g fill="#222"><path d="M 855 226 L 822 177 Q 810 161 817.5 151 Q 825 141 845 145 L 906 158 Q 938 165 961.5 171.5 Q 985 178 1012.5 187.5 Q 1040 197 1062 212 Q 1084 227 1095 249.5 Q 1106 272 1106.5 310 Q 1107 348 1096 370 Q 1086 388 1074 393.5 Q 1062 399 1046 398 Q 1018 397 993 382 Q 968 367 946.5 342.5 Q 925 318 896 281.5 Q 867 245 855 226 Z"/><path d="M 1062 1079 L 1063 1479 Q 1063 1589 1062 1638 Q 1061 1687 1051 1731.5 Q 1041 1776 1014 1824.5 Q 987 1873 960 1888.5 Q 933 1904 921 1903 Q 904 1903 883 1883 L 794 1774 L 741 1718 L 699 1673 Q 683 1657 688.5 1648.5 Q 694 1640 705 1644 L 754 1664 Q 796 1682 832.5 1699.5 Q 869 1717 889 1707 Q 899 1702 908.5 1688.5 Q 918 1675 924 1645.5 Q 930 1616 933 1585 Q 936 1554 941.5 1446 Q 947 1338 948 1308 L 954 808 Q 954 778 949.5 734.5 Q 945 691 935 683.5 Q 925 676 914 675.5 Q 903 675 878 679 L 781 695 Q 733 703 710 702.5 Q 687 702 667.5 695.5 Q 648 689 636.5 677.5 Q 625 666 626.5 659 Q 628 652 653 648 L 702 640 Q 726 637 757.5 629 Q 789 621 822.5 610.5 Q 856 600 884.5 589.5 Q 913 579 937.5 569.5 Q 962 560 973 560 Q 982 561 1007 570 L 1049 586 Q 1064 593 1080.5 603.5 Q 1097 614 1099 623 Q 1101 632 1095 650 Q 1084 679 1080.5 696 Q 1077 713 1071.5 744 Q 1066 775 1062.5 800 Q 1059 825 1060 869 L 1062 971 L 1062 1079 Z"/><path d="M 225 1630 L 160 1649 Q 144 1654 142.5 1643 Q 141 1632 158 1619 L 207 1583 Q 252 1549 302 1509.5 Q 352 1470 397.5 1426.5 Q 443 1383 490 1329 Q 537 1275 576.5 1215.5 Q 616 1156 636.5 1116.5 Q 657 1077 661.5 1060.5 Q 666 1044 661.5 1038.5 Q 657 1033 622 1040 L 527 1060 Q 504 1065 447 1079.5 Q 390 1094 359 1100.5 Q 328 1107 316 1105 Q 299 1104 266.5 1084 Q 234 1064 222 1050.5 Q 210 1037 212.5 1030 Q 215 1023 243 1021 L 288 1018 Q 312 1017 387.5 1004.5 Q 463 992 495.5 986 Q 528 980 594 964 Q 660 948 690.5 937.5 Q 721 927 732 927 Q 751 928 780 950.5 Q 809 973 834 998 Q 859 1023 858 1037 Q 856 1050 836 1069 L 789 1113 Q 768 1135 719 1207.5 Q 670 1280 612.5 1348.5 Q 555 1417 493 1472 Q 431 1527 377 1558.5 Q 323 1590 286.5 1606.5 Q 250 1623 225 1630 Z"/><path d="M 1062 971 Q 1089 945 1146.5 889.5 Q 1204 834 1226.5 810 Q 1249 786 1297 722.5 Q 1345 659 1359.5 630 Q 1374 601 1383.5 572 Q 1393 543 1402.5 536.5 Q 1412 530 1442 537 Q 1473 546 1500.5 561 Q 1528 576 1557 596.5 Q 1586 617 1595.5 630 Q 1605 643 1605 652 Q 1603 666 1568.5 681.5 Q 1534 697 1514 710 Q 1494 723 1435.5 768.5 Q 1377 814 1294 869.5 Q 1211 925 1180 941 L 1078 996 Q 1030 1004.5 1062 971 Z"/><path d="M 1078 996 Q 1187 1116 1258 1183.5 Q 1329 1251 1409 1309.5 Q 1489 1368 1566.5 1409.5 Q 1644 1451 1704 1477 Q 1764 1503 1826 1527 L 1890 1553 Q 1904 1559 1904.5 1570 Q 1905 1581 1874 1589 Q 1842 1598 1779 1609 Q 1716 1620 1691 1623.5 Q 1666 1627 1622 1628 Q 1577 1630 1538 1627 Q 1499 1624 1480 1614.5 Q 1461 1605 1430 1576.5 Q 1399 1548 1378.5 1523 Q 1358 1498 1314 1434 L 1195 1269 L 1062 1079 C 981.3333333333333 998.3333333333333 1012.6666666666667 898.6666666666666 1078 996 Z"/></g></g>
</g>

<g class="page-number"><text x="105.0" y="292.0" font-size="3" fill="#999" font-family="sans-serif" text-anchor="middle">- 1 -</text></g>
</svg>