<svg xmlns="http://www.w3.org/2000/svg" viewBox="0 0 210.0 297.0" width="210.0mm" height="297.0mm">
<rect x="0" y="0" width="210.0" height="297.0" fill="white"/>
<rect x="0.5" y="0.5" width="209.0" height="296.0" fill="none" stroke="#aaa" stroke-width="0.4"/>
<g class="grid" fill="none" stroke="#c8c8c8" stroke-width="0.2">
  <line x1="15.00" y1="15.00" x2="195.00" y2="15.00"/>
  <line x1="15.00" y1="30.00" x2="195.00" y2="30.00"/>
  <line x1="15.00" y1="45.00" x2="195.00" y2="45.00"/>
  <line x1="15.00" y1="60.00" x2="195.00" y2="60.00"/>
  <line x1="15.00" y1="75.00" x2="195.00" y2="75.00"/>
  <line x1="15.00" y1="90.00" x2="195.00" y2="90.00"/>
  <line x1="15.00" y1="105.00" x2="195.00" y2="105.00"/>
  <line x1="15.00" y1="120.00" x2="195.00" y2="120.00"/>
  <line x1="15.00" y1="135.00" x2="195.00" y2="135.00"/>
  <line x1="15.00" y1="150.00" x2="195.00" y2="150.00"/>
  <line x1="15.00" y1="165.00" x2="195.00" y2="165.00"/>
  <line x1="15.00" y1="180.00" x2="195.00" y2="180.00"/>
  <line x1="15.00" y1="195.00" x2="195.00" y2="195.00"/>
  <line x1="15.00" y1="210.00" x2="195.00" y2="210.00"/>
  <line x1="15.00" y1="225.00" x2="195.00" y2="225.00"/>
  <line x1="15.00" y1="240.00" x2="195.00" y2="240.00"/>
  <line x1="15.00" y1="255.00" x2="195.00" y2="255.00"/>
  <line x1="15.00" y1="270.00" x2="195.00" y2="270.00"/>
  <line x1="15.00" y1="282.00" x2="195.00" y2="282.00"/>
  <line x1="15.00" y1="15.00" x2="15.00" y2="282.00"/>
  <line x1="30.00" y1="15.00" x2="30.00" y2="282.00"/>
  <line x1="45.00" y1="15.00" x2="45.00" y2="282.00"/>
  <line x1="60.00" y1="15.00" x2="60.00" y2="282.00"/>
  <line x1="75.00" y1="15.00" x2="75.00" y2="282.00"/>
  <line x1="90.00" y1="15.00" x2="90.00" y2="282.00"/>
  <line x1="105.00" y1="15.00" x2="105.00" y2="282.00"/>
  <line x1="120.00" y1="15.00" x2="120.00" y2="282.00"/>
  <line x1="135.00" y1="15.00" x2="135.00" y2="282.00"/>
  <line x1="150.00" y1="15.00" x2="150.00" y2="282.00"/>
  <line x1="165.00" y1="15.00" x2="165.00" y2="282.00"/>
  <line x1="180.00" y1="15.00" x2="180.00" y2="282.00"/>
  <line x1="195.00" y1="15.00" x2="195.00" y2="282.00"/>
  </g>
<g class="chars">
<g transform="translate(15.0,15.0) scale(0.00732421875,0.00732421875)"><g fill="#222"><path d="M 1035 554 Q 1016 527 1000.5 504.5 Q 985 482 968 452.5 Q 951 423 925.5 372.5 Q 900 322 905 306 Q 906 300 912.5 292.5 Q 919 285 949 290 Q 966 294 997.5 306.5 Q 1029 319 1056.5 334 Q 1084 349 1115.5 381.5 Q 1147 414 1154 456 Q 1159 494 1146 521 L 1135 546 Q 1087 618 1035 554 Z"/><path d="M 1135 546 L 1405 521 Q 1479 515 1540 502.5 Q 1601 490 1624 490 Q 1656 491 1711 510.5 Q 1766 530 1794.5 564 Q 1823 598 1813 612.5 Q 1803 627 1786.5 629.5 Q 1770 632 1697 627 L 1589 621 Q 1508 617 1462 616.5 Q 1416 616 1335 619.5 Q 1254 623 1180 630 L 1006 647 L 875 658 Q 699 687 618 704 Q 537 721 471 739.5 Q 405 758 396 760.5 Q 387 763 377 763 Q 352 765 335.5 756 Q 319 747 282.5 722.5 Q 246 698 238.5 681 Q 231 664 237 654.5 Q 243 645 270 643 L 359 638 Q 407 636 462 630 L 860 577 L 1035 554 L 1135 546 Z"/><path d="M 1006 647 Q 1030 663 1043.5 679.5 Q 1057 696 1054 713 Q 1051 725 1024.5 748 Q 998 771 971 802 L 782 1020 L 730 1074 Q 709 1104 716 1111 Q 723 1118 734 1119.5 Q 745 1121 768 1119 L 1082 1102 Q 1123.5 1123.5 1029 1161 L 794 1206 Q 721 1220 696.5 1227.5 Q 672 1235 649.5 1247 Q 627 1259 621 1258 Q 610 1258 600 1248 Q 590 1238 570 1205 Q 550 1172 544 1155 Q 538 1138 548 1122 Q 552 1115 569.5 1103 Q 587 1091 613 1070 Q 639 1049 683 1000 Q 727 951 766 892 Q 805 833 823 796.5 Q 841 760 852 727 L 875 658 L 1006 647 Z"/><path d="M 1082 1102 Q 1100 1079 1115 1059 Q 1130 1039 1147.5 1013 Q 1165 987 1177.5 961.5 Q 1190 936 1197 905.5 Q 1204 875 1211.5 870 Q 1219 865 1230 864 Q 1244 864 1262.5 873.5 Q 1281 883 1314.5 914 Q 1348 945 1369.5 981.5 Q 1391 1018 1380 1032 Q 1376 1038 1353 1047.5 Q 1330 1057 1289 1087.5 Q 1248 1118 1212 1148 L 732 1545 Q 711 1562 716 1572.5 Q 721 1583 746 1581.5 Q 771 1580 801 1575 L 1319 1492 Q 1360.5 1498.5 1334 1533 L 830 1669 Q 737 1695 705 1708.5 Q 673 1722 643.5 1740 Q 614 1758 604 1758 Q 592 1759 574 1748.5 Q 556 1738 533 1706 Q 510 1674 494 1644.5 Q 478 1615 489 1599 Q 493 1593 509 1585 L 574 1553 Q 616 1531 711.5 1458.5 Q 807 1386 869 1322 L 1029 1161 L 1082 1102 Z"/><path d="M 1319 1492 L 1221 1356 Q 1199 1327 1206 1316.5 Q 1213 1306 1252 1322 Q 1290 1339 1340 1371.5 Q 1390 1404 1435 1442.5 Q 1480 1481 1512 1534 Q 1544 1587 1547.5 1642 Q 1551 1697 1538 1720 Q 1525 1743 1502.5 1748 Q 1480 1753 1463 1736.5 Q 1446 1720 1423 1681 L 1334 1533 L 1319 1492 Z"/></g></g>
</g>

<g class="page-number"><text x="105.0" y="292.0" font-size="3" fill="#999" font-family="sans-serif" text-anchor="middle">- 1 -</text></g>
</svg>