<svg xmlns="http://www.w3.org/2000/svg" viewBox="0 0 210.0 297.0" width="210.0mm" height="297.0mm">
<rect x="0" y="0" width="210.0" height="297.0" fill="white"/>
<rect x="0.5" y="0.5" width="209.0" height="296.0" fill="none" stroke="#aaa" stroke-width="0.4"/>
<g class="grid" fill="none" stroke="#c8c8c8" stroke-width="0.2">
  <line x1="15.00" y1="15.00" x2="195.00" y2="15.00"/>
  <line x1="15.00" y1="30.00" x2="195.00" y2="30.00"/>
  <line x1="15.00" y1="45.00" x2="195.00" y2="45.00"/>
  <line x1="15.00" y1="60.00" x2="195.00" y2="60.00"/>
  <line x1="15.00" y1="75.00" x2="195.00" y2="75.00"/>
  <line x1="15.00" y1="90.00" x2="195.00" y2="90.00"/>
  <line x1="15.00" y1="105.00" x2="195.00" y2="105.00"/>
  <line x1="15.00" y1="120.00" x2="195.00" y2="120.00"/>
  <line x1="15.00" y1="135.00" x2="195.00" y2="135.00"/>
  <line x1="15.00" y1="150.00" x2="195.00" y2="150.00"/>
  <line x1="15.00" y1="165.00" x2="195.00" y2="165.00"/>
  <line x1="15.00" y1="180.00" x2="195.00" y2="180.00"/>
  <line x1="15.00" y1="195.00" x2="195.00" y2="195.00"/>
  <line x1="15.00" y1="210.00" x2="195.00" y2="210.00"/>
  <line x1="15.00" y1="225.00" x2="195.00" y2="225.00"/>
  <line x1="15.00" y1="240.00" x2="195.00" y2="240.00"/>
  <line x1="15.00" y1="255.00" x2="195.00" y2="255.00"/>
  <line x1="15.00" y1="270.00" x2="195.00" y2="270.00"/>
  <line x1="15.00" y1="282.00" x2="195.00" y2="282.00"/>
  <line x1="15.00" y1="15.00" x2="15.00" y2="282.00"/>
  <line x1="30.00" y1="15.00" x2="30.00" y2="282.00"/>
  <line x1="45.00" y1="15.00" x2="45.00" y2="282.00"/>
  <line x1="60.00" y1="15.00" x2="60.00" y2="282.00"/>
  <line x1="75.00" y1="15.00" x2="75.00" y2="282.00"/>
  <line x1="90.00" y1="15.00" x2="90.00" y2="282.00"/>
  <line x1="105.00" y1="15.00" x2="105.00" y2="282.00"/>
  <line x1="120.00" y1="15.00" x2="120.00" y2="282.00"/>
  <line x1="135.00" y1="15.00" x2="135.00" y2="282.00"/>
  <line x1="150.00" y1="15.00" x2="150.00" y2="282.00"/>
  <line x1="165.00" y1="15.00" x2="165.00" y2="282.00"/>
  <line x1="180.00" y1="15.00" x2="180.00" y2="282.00"/>
  <line x1="195.00" y1="15.00" x2="195.00" y2="282.00"/>
  </g>
<g class="chars">
<g transform="translate(15.0,15.0) scale(0.00732421875,0.00732421875)"><g fill="#222"><path d="M 599 1151 Q 585 1185 575 1194 Q 565 1203 557 1205.5 Q 549 1208 532 1191 Q 515 1176 506.5 1152.5 Q 498 1129 491 1071 L 457 802 Q 453 776 441 745 Q 429 714 420 700 L 387 663 Q 374 646 376.5 632.5 Q 379 619 406 613 Q 419 611 457 620.5 Q 495 630 499 631 L 544 650 L 560 735 L 599 1062 L 599 1151 Z"/><path d="M 544 650 L 899 606 L 1021 595 L 1170 579 Q 1279 568 1299.5 565 Q 1320 562 1350 557 Q 1380 552 1415 542 Q 1450 532 1459 531 Q 1482 530 1513.5 539.5 Q 1545 549 1566.5 565 Q 1588 581 1613.5 601.5 Q 1639 622 1656.5 639 Q 1674 656 1671 672 Q 1669 682 1656 694 L 1620 724 Q 1606 738 1582.5 774.5 Q 1559 811 1548 835 L 1456 1028 Q 1300 1144.5 1344 991 L 1420 735 Q 1432 694 1430 672.5 Q 1428 651 1419 641.5 Q 1410 632 1374 632 Q 1311 634 1244 637.5 Q 1177 641 1155 643 L 1022 655 L 896 670 Q 831 680 749 693.5 Q 667 707 613 721 L 560 735 Q 382 692.5 544 650 Z"/><path d="M 891 1128 L 599 1151 L 599 1062 L 891 1040 L 1015 1028 Q 1096 1019 1137 1014 L 1285 998 L 1344 991 L 1456 1028 L 1478 1043 Q 1500 1059 1498 1070.5 Q 1496 1082 1481 1088 L 1425 1091 L 1009 1120 L 891 1128 Z"/><path d="M 1009 1120 L 1002 1435 Q 1000 1487 995 1569 Q 990 1651 987 1676 Q 984 1701 975.5 1751 Q 967 1801 962 1826.5 Q 957 1852 943.5 1879.5 Q 930 1907 919 1905 Q 907 1904 901 1879 Q 895 1854 894 1824 L 889 1750 L 887 1659 L 884 1537 L 891 1128 L 891 1040 L 896 670 L 899 606 L 904 421 Q 904 420 900 346 Q 896 272 893 255 Q 890 238 879 212.5 Q 868 187 866 173.5 Q 864 160 871 151.5 Q 878 143 901 143 Q 915 144 939 150.5 Q 963 157 980.5 164.5 Q 998 172 1022.5 185 Q 1047 198 1056.5 210.5 Q 1066 223 1065 237 Q 1064 244 1055 263.5 Q 1046 283 1040 307.5 Q 1034 332 1031 354.5 Q 1028 377 1026.5 409 Q 1025 441 1023 522 L 1021 595 L 1022 655 L 1015 1028 L 1009 1120 Z"/></g></g>
</g>

<g class="page-number"><text x="105.0" y="292.0" font-size="3" fill="#999" font-family="sans-serif" text-anchor="middle">- 1 -</text></g>
</svg>