<svg xmlns="http://www.w3.org/2000/svg" viewBox="0 0 210.0 297.0" width="210.0mm" height="297.0mm">
<rect x="0" y="0" width="210.0" height="297.0" fill="white"/>
<rect x="0.5" y="0.5" width="209.0" height="296.0" fill="none" stroke="#aaa" stroke-width="0.4"/>
<g class="grid" fill="none" stroke="#c8c8c8" stroke-width="0.2">
  <line x1="15.00" y1="15.00" x2="195.00" y2="15.00"/>
  <line x1="15.00" y1="30.00" x2="195.00" y2="30.00"/>
  <line x1="15.00" y1="45.00" x2="195.00" y2="45.00"/>
  <line x1="15.00" y1="60.00" x2="195.00" y2="60.00"/>
  <line x1="15.00" y1="75.00" x2="195.00" y2="75.00"/>
  <line x1="15.00" y1="90.00" x2="195.00" y2="90.00"/>
  <line x1="15.00" y1="105.00" x2="195.00" y2="105.00"/>
  <line x1="15.00" y1="120.00" x2="195.00" y2="120.00"/>
  <line x1="15.00" y1="135.00" x2="195.00" y2="135.00"/>
  <line x1="15.00" y1="150.00" x2="195.00" y2="150.00"/>
  <line x1="15.00" y1="165.00" x2="195.00" y2="165.00"/>
  <line x1="15.00" y1="180.00" x2="195.00" y2="180.00"/>
  <line x1="15.00" y1="195.00" x2="195.00" y2="195.00"/>
  <line x1="15.00" y1="210.00" x2="195.00" y2="210.00"/>
  <line x1="15.00" y1="225.00" x2="195.00" y2="225.00"/>
  <line x1="15.00" y1="240.00" x2="195.00" y2="240.00"/>
  <line x1="15.00" y1="255.00" x2="195.00" y2="255.00"/>
  <line x1="15.00" y1="270.00" x2="195.00" y2="270.00"/>
  <line x1="15.00" y1="282.00" x2="195.00" y2="282.00"/>
  <line x1="15.00" y1="15.00" x2="15.00" y2="282.00"/>
  <line x1="30.00" y1="15.00" x2="30.00" y2="282.00"/>
  <line x1="45.00" y1="15.00" x2="45.00" y2="282.00"/>
  <line x1="60.00" y1="15.00" x2="60.00" y2="282.00"/>
  <line x1="75.00" y1="15.00" x2="75.00" y2="282.00"/>
  <line x1="90.00" y1="15.00" x2="90.00" y2="282.00"/>
  <line x1="105.00" y1="15.00" x2="105.00" y2="282.00"/>
  <line x1="120.00" y1="15.00" x2="120.00" y2="282.00"/>
  <line x1="135.00" y1="15.00" x2="135.00" y2="282.00"/>
  <line x1="150.00" y1="15.00" x2="150.00" y2="282.00"/>
  <line x1="165.00" y1="15.00" x2="165.00" y2="282.00"/>
  <line x1="180.00" y1="15.00" x2="180.00" y2="282.00"/>
  <line x1="195.00" y1="15.00" x2="195.00" y2="282.00"/>
  </g>
<g class="chars">
<g transform="translate(15.0,15.0) scale(0.00732421875,0.00732421875)"><g fill="#222"><path d="M 1065.0 1521.0 Q 1065.0 1791.0 1073.0 1877.0 Q 1077.0 1917.0 1077.0 1933.0 Q 1077.0 2001.0 1011.0 2001.0 Q 978.0 2001.0 969.0 1983.0 Q 966.0 1977.0 966.0 1874.0 L 966.0 1510.0 L 966.0 1251.0 L 336.0 1251.0 L 336.0 1290.0 Q 332.0 1313.0 294.0 1313.0 Q 274.0 1313.0 248.0 1302.0 Q 232.0 1285.0 232.0 1250.0 Q 232.0 1186.0 235.0 1154.0 Q 240.0 1107.0 240.0 969.0 L 240.0 590.0 Q 238.0 510.0 224.0 457.0 L 344.0 545.0 L 966.0 545.0 L 966.0 216.0 Q 964.0 96.0 957.0 58.0 L 1065.0 82.0 Q 1152.0 102.0 1152.0 128.0 Q 1152.0 155.0 1103.0 169.0 L 1065.0 181.0 L 1065.0 545.0 L 1694.0 545.0 L 1762.0 469.0 L 1846.0 523.0 Q 1886.0 550.0 1886.0 571.0 Q 1886.0 599.0 1808.0 633.0 L 1808.0 1157.0 L 1873.0 1203.0 Q 1883.0 1210.0 1883.0 1224.0 Q 1883.0 1251.0 1864.0 1251.0 L 1065.0 1251.0 M 336.0 1195.0 L 966.0 1195.0 L 966.0 599.0 L 336.0 599.0 M 1065.0 599.0 L 1065.0 1195.0 L 1712.0 1195.0 L 1712.0 599.0 Z"/></g></g>
</g>

<g class="page-number"><text x="105.0" y="292.0" font-size="3" fill="#999" font-family="sans-serif" text-anchor="middle">- 1 -</text></g>
</svg>