<svg xmlns="http://www.w3.org/2000/svg" viewBox="0 0 210.0 297.0" width="210.0mm" height="297.0mm">
<rect x="0" y="0" width="210.0" height="297.0" fill="white"/>
<rect x="0.5" y="0.5" width="209.0" height="296.0" fill="none" stroke="#aaa" stroke-width="0.4"/>
<g class="grid" fill="none" stroke="#c8c8c8" stroke-width="0.2">
  <line x1="15.00" y1="15.00" x2="195.00" y2="15.00"/>
  <line x1="15.00" y1="30.00" x2="195.00" y2="30.00"/>
  <line x1="15.00" y1="45.00" x2="195.00" y2="45.00"/>
  <line x1="15.00" y1="60.00" x2="195.00" y2="60.00"/>
  <line x1="15.00" y1="75.00" x2="195.00" y2="75.00"/>
  <line x1="15.00" y1="90.00" x2="195.00" y2="90.00"/>
  <line x1="15.00" y1="105.00" x2="195.00" y2="105.00"/>
  <line x1="15.00" y1="120.00" x2="195.00" y2="120.00"/>
  <line x1="15.00" y1="135.00" x2="195.00" y2="135.00"/>
  <line x1="15.00" y1="150.00" x2="195.00" y2="150.00"/>
  <line x1="15.00" y1="165.00" x2="195.00" y2="165.00"/>
  <line x1="15.00" y1="180.00" x2="195.00" y2="180.00"/>
  <line x1="15.00" y1="195.00" x2="195.00" y2="195.00"/>
  <line x1="15.00" y1="210.00" x2="195.00" y2="210.00"/>
  <line x1="15.00" y1="225.00" x2="195.00" y2="225.00"/>
  <line x1="15.00" y1="240.00" x2="195.00" y2="240.00"/>
  <line x1="15.00" y1="255.00" x2="195.00" y2="255.00"/>
  <line x1="15.00" y1="270.00" x2="195.00" y2="270.00"/>
  <line x1="15.00" y1="282.00" x2="195.00" y2="282.00"/>
  <line x1="15.00" y1="15.00" x2="15.00" y2="282.00"/>
  <line x1="30.00" y1="15.00" x2="30.00" y2="282.00"/>
  <line x1="45.00" y1="15.00" x2="45.00" y2="282.00"/>
  <line x1="60.00" y1="15.00" x2="60.00" y2="282.00"/>
  <line x1="75.00" y1="15.00" x2="75.00" y2="282.00"/>
  <line x1="90.00" y1="15.00" x2="90.00" y2="282.00"/>
  <line x1="105.00" y1="15.00" x2="105.00" y2="282.00"/>
  <line x1="120.00" y1="15.00" x2="120.00" y2="282.00"/>
  <line x1="135.00" y1="15.00" x2="135.00" y2="282.00"/>
  <line x1="150.00" y1="15.00" x2="150.00" y2="282.00"/>
  <line x1="165.00" y1="15.00" x2="165.00" y2="282.00"/>
  <line x1="180.00" y1="15.00" x2="180.00" y2="282.00"/>
  <line x1="195.00" y1="15.00" x2="195.00" y2="282.00"/>
  </g>
<g class="chars">
<g transform="translate(15.0,15.0) scale(0.00732421875,0.00732421875)"><g fill="#222"><path d="M 625.0 529.0 Q 584.0 575.0 482.0 661.0 Q 387.0 741.0 126.0 896.0 L 102.0 858.0 Q 663.0 492.0 795.0 82.0 L 928.0 118.0 Q 982.0 132.0 982.0 160.0 Q 982.0 189.0 925.0 193.0 L 876.0 197.0 Q 825.0 278.0 774.0 354.0 L 1373.0 354.0 L 1439.0 280.0 L 1534.0 344.0 Q 1571.0 369.0 1571.0 392.0 Q 1571.0 425.0 1483.0 446.0 Q 1317.0 731.0 1108.0 913.0 Q 1463.0 1149.0 1998.0 1233.0 L 1998.0 1274.0 Q 1878.0 1275.0 1848.0 1355.0 Q 1800.0 1339.0 1695.0 1304.0 Q 1303.0 1174.0 1039.0 973.0 Q 716.0 1232.0 148.0 1386.0 L 134.0 1347.0 Q 681.0 1153.0 962.0 917.0 Q 880.0 850.0 793.0 748.0 Q 747.0 694.0 691.0 617.0 Q 655.0 566.0 625.0 529.0 M 660.0 492.0 Q 844.0 732.0 1026.0 859.0 Q 1239.0 672.0 1374.0 408.0 L 731.0 408.0 M 820.0 1198.0 L 875.0 1210.0 Q 1150.0 1270.0 1217.0 1300.0 Q 1327.0 1351.0 1327.0 1422.0 Q 1327.0 1480.0 1280.0 1480.0 Q 1255.0 1480.0 1210.0 1441.0 Q 1069.0 1316.0 812.0 1246.0 M 691.0 1556.0 Q 1001.0 1641.0 1141.0 1706.0 Q 1283.0 1773.0 1315.0 1824.0 Q 1336.0 1858.0 1336.0 1892.0 Q 1336.0 1952.0 1281.0 1952.0 Q 1261.0 1952.0 1239.0 1940.0 Q 1229.0 1934.0 1145.0 1852.0 Q 1048.0 1759.0 884.0 1685.0 Q 838.0 1664.0 676.0 1599.0 Z"/></g></g>
</g>

<g class="page-number"><text x="105.0" y="292.0" font-size="3" fill="#999" font-family="sans-serif" text-anchor="middle">- 1 -</text></g>
</svg>