<svg xmlns="http://www.w3.org/2000/svg" viewBox="0 0 210.0 297.0" width="210.0mm" height="297.0mm">
<rect x="0" y="0" width="210.0" height="297.0" fill="white"/>
<rect x="0.5" y="0.5" width="209.0" height="296.0" fill="none" stroke="#aaa" stroke-width="0.4"/>
<g class="grid" fill="none" stroke="#c8c8c8" stroke-width="0.2">
  <line x1="15.00" y1="15.00" x2="195.00" y2="15.00"/>
  <line x1="15.00" y1="30.00" x2="195.00" y2="30.00"/>
  <line x1="15.00" y1="45.00" x2="195.00" y2="45.00"/>
  <line x1="15.00" y1="60.00" x2="195.00" y2="60.00"/>
  <line x1="15.00" y1="75.00" x2="195.00" y2="75.00"/>
  <line x1="15.00" y1="90.00" x2="195.00" y2="90.00"/>
  <line x1="15.00" y1="105.00" x2="195.00" y2="105.00"/>
  <line x1="15.00" y1="120.00" x2="195.00" y2="120.00"/>
  <line x1="15.00" y1="135.00" x2="195.00" y2="135.00"/>
  <line x1="15.00" y1="150.00" x2="195.00" y2="150.00"/>
  <line x1="15.00" y1="165.00" x2="195.00" y2="165.00"/>
  <line x1="15.00" y1="180.00" x2="195.00" y2="180.00"/>
  <line x1="15.00" y1="195.00" x2="195.00" y2="195.00"/>
  <line x1="15.00" y1="210.00" x2="195.00" y2="210.00"/>
  <line x1="15.00" y1="225.00" x2="195.00" y2="225.00"/>
  <line x1="15.00" y1="240.00" x2="195.00" y2="240.00"/>
  <line x1="15.00" y1="255.00" x2="195.00" y2="255.00"/>
  <line x1="15.00" y1="270.00" x2="195.00" y2="270.00"/>
  <line x1="15.00" y1="282.00" x2="195.00" y2="282.00"/>
  <line x1="15.00" y1="15.00" x2="15.00" y2="282.00"/>
  <line x1="30.00" y1="15.00" x2="30.00" y2="282.00"/>
  <line x1="45.00" y1="15.00" x2="45.00" y2="282.00"/>
  <line x1="60.00" y1="15.00" x2="60.00" y2="282.00"/>
  <line x1="75.00" y1="15.00" x2="75.00" y2="282.00"/>
  <line x1="90.00" y1="15.00" x2="90.00" y2="282.00"/>
  <line x1="105.00" y1="15.00" x2="105.00" y2="282.00"/>
  <line x1="120.00" y1="15.00" x2="120.00" y2="282.00"/>
  <line x1="135.00" y1="15.00" x2="135.00" y2="282.00"/>
  <line x1="150.00" y1="15.00" x2="150.00" y2="282.00"/>
  <line x1="165.00" y1="15.00" x2="165.00" y2="282.00"/>
  <line x1="180.00" y1="15.00" x2="180.00" y2="282.00"/>
  <line x1="195.00" y1="15.00" x2="195.00" y2="282.00"/>
  </g>
<g class="chars">
<g transform="translate(15.0,15.0) scale(0.00732421875,0.00732421875)"><g fill="#222"><path d="M 659 474 Q 585 491 538 501.5 Q 491 512 456 517 L 412 524 Q 387 528 384 516 Q 381 504 409 492 L 469 467 Q 536 439 572 420.5 Q 608 402 673.5 363.5 Q 739 325 774.5 301 Q 810 277 835 249.5 Q 860 222 873 213.5 Q 886 205 906 206 Q 920 207 945 220.5 Q 970 234 990.5 247.5 Q 1011 261 1034 282 Q 1057 303 1057 318 Q 1056 335 1037.5 347 Q 1019 359 975 366.5 Q 931 374 879 390 L 841 402 L 733 440 Q 672 468 659 474 Z"/><path d="M 665 867 L 476 907 Q 380 928 348.5 937.5 Q 317 947 303 947 Q 275 948 238 929 L 206 912 Q 183 901 170 887 Q 157 873 160.5 866 Q 164 859 184 855 L 265 848 L 699 779 L 807 764 Q 881 747 921 739 Q 961 731 985 731 Q 1010 732 1041.5 741 Q 1073 750 1090 769.5 Q 1107 789 1103 802 Q 1099 815 1054 814.5 Q 1009 814 933 825 L 797 845 L 665 867 Z"/><path d="M 699 779 Q 697 725 697.5 689.5 Q 698 654 697.5 634.5 Q 697 615 692 577 Q 687 539 681 526 L 659 474 L 733 440 Q 770 459 791 471 Q 812 483 828.5 498 Q 845 513 847 527.5 Q 849 542 837 575.5 Q 825 609 820 655 L 807 764 L 797 845 L 787 1003 L 782 1037 L 774 1509 Q 771 1631 767 1667 Q 763 1703 753 1741 Q 743 1779 725.5 1813.5 Q 708 1848 693 1844 Q 686 1843 675 1831.5 Q 664 1820 649.5 1783 Q 635 1746 626 1716 Q 617 1686 619 1658 Q 620 1640 630 1606 Q 640 1572 648 1538 Q 656 1504 659 1474 L 693 1048 L 699 779 Z"/><path d="M 693 1048 Q 636 1124 593.5 1178.5 Q 551 1233 504.5 1281 Q 458 1329 396.5 1376 Q 335 1423 283.5 1452.5 Q 232 1482 196 1493 L 165 1503 Q 149 1508 145 1499 Q 141 1490 152 1481 L 189 1454 Q 226 1427 269 1390 Q 312 1353 360 1302 Q 408 1251 461 1187.5 Q 514 1124 560.5 1058 Q 607 992 624 954 L 665 867 C 730.3333333333334 831.3333333333334 773.6666666666666 961.6666666666666 693 1048 Z"/><path d="M 787 1003 Q 838 1019 873 1031.5 Q 908 1044 950 1063.5 Q 992 1083 1015.5 1102 Q 1039 1121 1048.5 1141 Q 1058 1161 1052 1197 Q 1048 1220 1040.5 1227.5 Q 1033 1235 1019 1240 Q 1005 1245 983 1236 Q 954 1226 912.5 1177 Q 871 1128 849 1105 L 782 1037 L 787 1003 Z"/><path d="M 1356 1379 Q 1354 1405 1351.5 1426.5 Q 1349 1448 1340 1454.5 Q 1331 1461 1325 1460 Q 1318 1460 1307.5 1453 Q 1297 1446 1284 1425 Q 1271 1404 1267 1358 L 1228 991 Q 1222 942 1215.5 911 Q 1209 880 1198 860 L 1161 801 Q 1159 797 1160 794 Q 1160 784 1168 777 Q 1176 770 1189.5 769 Q 1203 768 1215 773 L 1294 803 Q 1310.5 821 1315 857 L 1353 1310 L 1356 1379 Z"/><path d="M 1294 803 Q 1356 793 1388 786 L 1530 755 Q 1602 740 1626.5 733.5 Q 1651 727 1686 713 Q 1721 699 1738 699 Q 1758 700 1788 715.5 Q 1818 731 1840 745 Q 1862 759 1882 776 Q 1902 793 1902.5 805.5 Q 1903 818 1900 827 Q 1896 836 1875 862.5 Q 1854 889 1842.5 912.5 Q 1831 936 1806 1018 Q 1781 1100 1761 1191 L 1739 1290 Q 1656 1339 1621 1268 L 1679 955 Q 1695 864 1693.5 844 Q 1692 824 1687 814.5 Q 1682 805 1670.5 799.5 Q 1659 794 1639 794 Q 1609 795 1545 807 Q 1481 819 1421 836 Q 1361 853 1353 853 L 1315 857 L 1294 803 Z"/><path d="M 1739 1290 Q 1752 1298 1759.5 1304 Q 1767 1310 1770.5 1319 Q 1774 1328 1770 1336.5 Q 1766 1345 1748 1348 Q 1738 1350 1706.5 1348 Q 1675 1346 1596 1357 L 1469 1372 Q 1412 1380 1405 1379 L 1356 1379 L 1353 1310 Q 1460 1297 1514 1285.5 Q 1568 1274 1573 1273 L 1621 1268 L 1739 1290 Z"/></g></g>
</g>

<g class="page-number"><text x="105.0" y="292.0" font-size="3" fill="#999" font-family="sans-serif" text-anchor="middle">- 1 -</text></g>
</svg>