<svg xmlns="http://www.w3.org/2000/svg" viewBox="0 0 210.0 297.0" width="210.0mm" height="297.0mm">
<rect x="0" y="0" width="210.0" height="297.0" fill="white"/>
<rect x="0.5" y="0.5" width="209.0" height="296.0" fill="none" stroke="#aaa" stroke-width="0.4"/>
<g class="grid" fill="none" stroke="#c8c8c8" stroke-width="0.2">
  <line x1="15.00" y1="15.00" x2="195.00" y2="15.00"/>
  <line x1="15.00" y1="30.00" x2="195.00" y2="30.00"/>
  <line x1="15.00" y1="45.00" x2="195.00" y2="45.00"/>
  <line x1="15.00" y1="60.00" x2="195.00" y2="60.00"/>
  <line x1="15.00" y1="75.00" x2="195.00" y2="75.00"/>
  <line x1="15.00" y1="90.00" x2="195.00" y2="90.00"/>
  <line x1="15.00" y1="105.00" x2="195.00" y2="105.00"/>
  <line x1="15.00" y1="120.00" x2="195.00" y2="120.00"/>
  <line x1="15.00" y1="135.00" x2="195.00" y2="135.00"/>
  <line x1="15.00" y1="150.00" x2="195.00" y2="150.00"/>
  <line x1="15.00" y1="165.00" x2="195.00" y2="165.00"/>
  <line x1="15.00" y1="180.00" x2="195.00" y2="180.00"/>
  <line x1="15.00" y1="195.00" x2="195.00" y2="195.00"/>
  <line x1="15.00" y1="210.00" x2="195.00" y2="210.00"/>
  <line x1="15.00" y1="225.00" x2="195.00" y2="225.00"/>
  <line x1="15.00" y1="240.00" x2="195.00" y2="240.00"/>
  <line x1="15.00" y1="255.00" x2="195.00" y2="255.00"/>
  <line x1="15.00" y1="270.00" x2="195.00" y2="270.00"/>
  <line x1="15.00" y1="282.00" x2="195.00" y2="282.00"/>
  <line x1="15.00" y1="15.00" x2="15.00" y2="282.00"/>
  <line x1="30.00" y1="15.00" x2="30.00" y2="282.00"/>
  <line x1="45.00" y1="15.00" x2="45.00" y2="282.00"/>
  <line x1="60.00" y1="15.00" x2="60.00" y2="282.00"/>
  <line x1="75.00" y1="15.00" x2="75.00" y2="282.00"/>
  <line x1="90.00" y1="15.00" x2="90.00" y2="282.00"/>
  <line x1="105.00" y1="15.00" x2="105.00" y2="282.00"/>
  <line x1="120.00" y1="15.00" x2="120.00" y2="282.00"/>
  <line x1="135.00" y1="15.00" x2="135.00" y2="282.00"/>
  <line x1="150.00" y1="15.00" x2="150.00" y2="282.00"/>
  <line x1="165.00" y1="15.00" x2="165.00" y2="282.00"/>
  <line x1="180.00" y1="15.00" x2="180.00" y2="282.00"/>
  <line x1="195.00" y1="15.00" x2="195.00" y2="282.00"/>
  </g>
<g class="chars">
<g transform="translate(15.0,15.0) scale(0.00732421875,0.00732421875)"><g fill="#222"><path d="M 1737.0 377.0 L 1807.0 298.0 L 1891.0 352.0 Q 1932.0 379.0 1932.0 401.0 Q 1932.0 428.0 1854.0 462.0 L 1854.0 1590.0 L 1909.0 1627.0 Q 1934.0 1643.0 1934.0 1660.0 Q 1934.0 1683.0 1909.0 1683.0 L 1237.0 1683.0 L 1237.0 1771.0 Q 1224.0 1794.0 1193.0 1794.0 Q 1135.0 1794.0 1135.0 1728.0 L 1141.0 1451.0 L 1141.0 427.0 Q 1138.0 338.0 1127.0 289.0 L 1244.0 377.0 M 1237.0 1627.0 L 1758.0 1627.0 L 1758.0 433.0 L 1237.0 433.0 M 936.0 226.0 Q 803.0 271.0 648.0 302.0 L 648.0 725.0 L 824.0 725.0 L 920.0 609.0 L 1064.0 719.0 Q 1081.0 731.0 1081.0 746.0 Q 1081.0 777.0 1050.0 777.0 L 648.0 777.0 L 648.0 910.0 Q 768.0 985.0 848.0 1047.0 Q 954.0 1129.0 985.0 1171.0 Q 1017.0 1214.0 1017.0 1259.0 Q 1017.0 1320.0 975.0 1320.0 Q 940.0 1320.0 883.0 1225.0 Q 803.0 1090.0 648.0 963.0 L 648.0 1687.0 Q 648.0 1813.0 656.0 1897.0 Q 660.0 1928.0 660.0 1946.0 Q 660.0 1993.0 605.0 1993.0 Q 554.0 1993.0 554.0 1951.0 L 554.0 953.0 Q 359.0 1408.0 99.0 1653.0 L 67.0 1621.0 Q 228.0 1425.0 325.0 1232.0 Q 433.0 1016.0 499.0 777.0 L 313.0 777.0 Q 199.0 777.0 121.0 785.0 L 83.0 701.0 Q 176.0 725.0 313.0 725.0 L 554.0 725.0 L 554.0 322.0 Q 383.0 351.0 127.0 364.0 L 121.0 322.0 Q 360.0 298.0 594.0 234.0 Q 707.0 204.0 800.0 160.0 Q 820.0 151.0 902.0 97.0 Q 1035.0 195.0 1035.0 212.0 Q 1035.0 234.0 1004.0 234.0 Q 982.0 234.0 936.0 226.0 Z"/></g></g>
</g>

<g class="page-number"><text x="105.0" y="292.0" font-size="3" fill="#999" font-family="sans-serif" text-anchor="middle">- 1 -</text></g>
</svg>