<svg xmlns="http://www.w3.org/2000/svg" viewBox="0 0 210.0 297.0" width="210.0mm" height="297.0mm">
<rect x="0" y="0" width="210.0" height="297.0" fill="white"/>
<rect x="0.5" y="0.5" width="209.0" height="296.0" fill="none" stroke="#aaa" stroke-width="0.4"/>
<g class="grid" fill="none" stroke="#c8c8c8" stroke-width="0.2">
  <line x1="15.00" y1="15.00" x2="195.00" y2="15.00"/>
  <line x1="15.00" y1="30.00" x2="195.00" y2="30.00"/>
  <line x1="15.00" y1="45.00" x2="195.00" y2="45.00"/>
  <line x1="15.00" y1="60.00" x2="195.00" y2="60.00"/>
  <line x1="15.00" y1="75.00" x2="195.00" y2="75.00"/>
  <line x1="15.00" y1="90.00" x2="195.00" y2="90.00"/>
  <line x1="15.00" y1="105.00" x2="195.00" y2="105.00"/>
  <line x1="15.00" y1="120.00" x2="195.00" y2="120.00"/>
  <line x1="15.00" y1="135.00" x2="195.00" y2="135.00"/>
  <line x1="15.00" y1="150.00" x2="195.00" y2="150.00"/>
  <line x1="15.00" y1="165.00" x2="195.00" y2="165.00"/>
  <line x1="15.00" y1="180.00" x2="195.00" y2="180.00"/>
  <line x1="15.00" y1="195.00" x2="195.00" y2="195.00"/>
  <line x1="15.00" y1="210.00" x2="195.00" y2="210.00"/>
  <line x1="15.00" y1="225.00" x2="195.00" y2="225.00"/>
  <line x1="15.00" y1="240.00" x2="195.00" y2="240.00"/>
  <line x1="15.00" y1="255.00" x2="195.00" y2="255.00"/>
  <line x1="15.00" y1="270.00" x2="195.00" y2="270.00"/>
  <line x1="15.00" y1="282.00" x2="195.00" y2="282.00"/>
  <line x1="15.00" y1="15.00" x2="15.00" y2="282.00"/>
  <line x1="30.00" y1="15.00" x2="30.00" y2="282.00"/>
  <line x1="45.00" y1="15.00" x2="45.00" y2="282.00"/>
  <line x1="60.00" y1="15.00" x2="60.00" y2="282.00"/>
  <line x1="75.00" y1="15.00" x2="75.00" y2="282.00"/>
  <line x1="90.00" y1="15.00" x2="90.00" y2="282.00"/>
  <line x1="105.00" y1="15.00" x2="105.00" y2="282.00"/>
  <line x1="120.00" y1="15.00" x2="120.00" y2="282.00"/>
  <line x1="135.00" y1="15.00" x2="135.00" y2="282.00"/>
  <line x1="150.00" y1="15.00" x2="150.00" y2="282.00"/>
  <line x1="165.00" y1="15.00" x2="165.00" y2="282.00"/>
  <line x1="180.00" y1="15.00" x2="180.00" y2="282.00"/>
  <line x1="195.00" y1="15.00" x2="195.00" y2="282.00"/>
  </g>
<g class="chars">
<g transform="translate(15.0,15.0) scale(0.00732421875,0.00732421875)"><g fill="#222"><path d="M 1486.0 697.0 L 1546.0 630.0 L 1629.0 684.0 Q 1669.0 710.0 1669.0 732.0 Q 1669.0 760.0 1600.0 790.0 L 1600.0 963.0 L 1639.0 989.0 Q 1650.0 997.0 1650.0 1014.0 Q 1650.0 1039.0 1633.0 1039.0 L 1368.0 1039.0 Q 1426.0 1060.0 1471.0 1080.0 Q 1510.0 1097.0 1510.0 1119.0 Q 1510.0 1137.0 1475.0 1142.0 L 1417.0 1149.0 Q 1384.0 1210.0 1323.0 1288.0 L 1742.0 1288.0 L 1840.0 1173.0 L 1981.0 1288.0 Q 1998.0 1301.0 1998.0 1314.0 Q 1998.0 1342.0 1968.0 1342.0 L 312.0 1342.0 Q 191.0 1342.0 118.0 1352.0 L 80.0 1264.0 Q 171.0 1288.0 312.0 1288.0 L 724.0 1288.0 Q 723.0 1286.0 708.0 1227.0 Q 687.0 1146.0 604.0 1054.0 L 628.0 1039.0 L 542.0 1039.0 L 542.0 1054.0 Q 542.0 1083.0 490.0 1083.0 Q 436.0 1083.0 436.0 1039.0 Q 436.0 1035.0 440.0 990.0 Q 446.0 893.0 446.0 887.0 L 446.0 630.0 L 566.0 697.0 M 794.0 1288.0 L 1257.0 1288.0 Q 1332.0 1135.0 1343.0 1039.0 L 648.0 1039.0 Q 808.0 1146.0 808.0 1236.0 Q 808.0 1259.0 794.0 1288.0 M 546.0 981.0 L 1498.0 981.0 L 1498.0 753.0 L 546.0 753.0 M 1498.0 1487.0 L 1561.0 1415.0 L 1645.0 1469.0 Q 1685.0 1495.0 1685.0 1518.0 Q 1685.0 1546.0 1616.0 1576.0 L 1616.0 1791.0 L 1670.0 1831.0 Q 1681.0 1839.0 1681.0 1852.0 Q 1681.0 1879.0 1662.0 1879.0 L 534.0 1879.0 L 534.0 1924.0 Q 534.0 1954.0 477.0 1954.0 Q 415.0 1954.0 419.0 1910.0 L 424.0 1862.0 Q 430.0 1762.0 430.0 1758.0 L 430.0 1421.0 L 550.0 1487.0 M 534.0 1823.0 L 1512.0 1823.0 L 1512.0 1543.0 L 534.0 1543.0 M 128.0 233.0 Q 221.0 256.0 362.0 256.0 L 974.0 256.0 L 974.0 212.0 Q 969.0 90.0 966.0 69.0 L 1076.0 93.0 Q 1161.0 112.0 1161.0 137.0 Q 1161.0 169.0 1111.0 181.0 L 1076.0 189.0 L 1076.0 256.0 L 1682.0 256.0 L 1778.0 145.0 L 1920.0 256.0 Q 1936.0 269.0 1936.0 288.0 Q 1936.0 313.0 1906.0 313.0 L 1076.0 313.0 L 1076.0 496.0 L 1600.0 496.0 L 1696.0 401.0 L 1814.0 488.0 Q 1840.0 507.0 1840.0 524.0 Q 1840.0 550.0 1814.0 550.0 L 488.0 550.0 Q 387.0 550.0 294.0 558.0 L 256.0 470.0 Q 351.0 496.0 488.0 496.0 L 974.0 496.0 L 974.0 313.0 L 362.0 313.0 Q 254.0 313.0 170.0 321.0 Z"/></g></g>
</g>

<g class="page-number"><text x="105.0" y="292.0" font-size="3" fill="#999" font-family="sans-serif" text-anchor="middle">- 1 -</text></g>
</svg>