<svg xmlns="http://www.w3.org/2000/svg" viewBox="0 0 210.0 297.0" width="210.0mm" height="297.0mm">
<rect x="0" y="0" width="210.0" height="297.0" fill="white"/>
<rect x="0.5" y="0.5" width="209.0" height="296.0" fill="none" stroke="#aaa" stroke-width="0.4"/>
<g class="grid" fill="none" stroke="#c8c8c8" stroke-width="0.2">
  <line x1="15.00" y1="15.00" x2="195.00" y2="15.00"/>
  <line x1="15.00" y1="30.00" x2="195.00" y2="30.00"/>
  <line x1="15.00" y1="45.00" x2="195.00" y2="45.00"/>
  <line x1="15.00" y1="60.00" x2="195.00" y2="60.00"/>
  <line x1="15.00" y1="75.00" x2="195.00" y2="75.00"/>
  <line x1="15.00" y1="90.00" x2="195.00" y2="90.00"/>
  <line x1="15.00" y1="105.00" x2="195.00" y2="105.00"/>
  <line x1="15.00" y1="120.00" x2="195.00" y2="120.00"/>
  <line x1="15.00" y1="135.00" x2="195.00" y2="135.00"/>
  <line x1="15.00" y1="150.00" x2="195.00" y2="150.00"/>
  <line x1="15.00" y1="165.00" x2="195.00" y2="165.00"/>
  <line x1="15.00" y1="180.00" x2="195.00" y2="180.00"/>
  <line x1="15.00" y1="195.00" x2="195.00" y2="195.00"/>
  <line x1="15.00" y1="210.00" x2="195.00" y2="210.00"/>
  <line x1="15.00" y1="225.00" x2="195.00" y2="225.00"/>
  <line x1="15.00" y1="240.00" x2="195.00" y2="240.00"/>
  <line x1="15.00" y1="255.00" x2="195.00" y2="255.00"/>
  <line x1="15.00" y1="270.00" x2="195.00" y2="270.00"/>
  <line x1="15.00" y1="282.00" x2="195.00" y2="282.00"/>
  <line x1="15.00" y1="15.00" x2="15.00" y2="282.00"/>
  <line x1="30.00" y1="15.00" x2="30.00" y2="282.00"/>
  <line x1="45.00" y1="15.00" x2="45.00" y2="282.00"/>
  <line x1="60.00" y1="15.00" x2="60.00" y2="282.00"/>
  <line x1="75.00" y1="15.00" x2="75.00" y2="282.00"/>
  <line x1="90.00" y1="15.00" x2="90.00" y2="282.00"/>
  <line x1="105.00" y1="15.00" x2="105.00" y2="282.00"/>
  <line x1="120.00" y1="15.00" x2="120.00" y2="282.00"/>
  <line x1="135.00" y1="15.00" x2="135.00" y2="282.00"/>
  <line x1="150.00" y1="15.00" x2="150.00" y2="282.00"/>
  <line x1="165.00" y1="15.00" x2="165.00" y2="282.00"/>
  <line x1="180.00" y1="15.00" x2="180.00" y2="282.00"/>
  <line x1="195.00" y1="15.00" x2="195.00" y2="282.00"/>
  </g>
<g class="chars">
<g transform="translate(15.0,15.0) scale(0.00732421875,0.00732421875)"><g fill="#222"><path d="M 1285.0 677.0 L 1285.0 221.0 Q 1285.0 108.0 1276.0 61.0 L 1385.0 85.0 Q 1471.0 104.0 1471.0 131.0 Q 1471.0 159.0 1422.0 173.0 L 1381.0 184.0 L 1381.0 648.0 L 1742.0 540.0 L 1798.0 460.0 L 1870.0 506.0 Q 1935.0 547.0 1935.0 574.0 Q 1935.0 609.0 1857.0 626.0 Q 1750.0 1043.0 1638.0 1288.0 L 1593.0 1277.0 Q 1708.0 932.0 1750.0 602.0 L 1381.0 713.0 L 1381.0 1209.0 Q 1381.0 1265.0 1385.0 1343.0 Q 1390.0 1425.0 1390.0 1430.0 Q 1390.0 1479.0 1327.0 1479.0 Q 1285.0 1479.0 1285.0 1429.0 L 1285.0 742.0 L 977.0 834.0 L 977.0 1673.0 Q 977.0 1733.0 1007.0 1752.0 Q 1080.0 1796.0 1414.0 1796.0 Q 1748.0 1796.0 1810.0 1749.0 Q 1855.0 1715.0 1897.0 1414.0 L 1941.0 1414.0 Q 1921.0 1580.0 1921.0 1658.0 Q 1921.0 1704.0 1937.0 1721.0 Q 1942.0 1727.0 1976.0 1748.0 Q 2002.0 1764.0 2002.0 1786.0 Q 2002.0 1824.0 1930.0 1844.0 Q 1879.0 1858.0 1767.0 1869.0 Q 1577.0 1888.0 1341.0 1888.0 Q 1093.0 1888.0 979.0 1853.0 Q 878.0 1821.0 878.0 1715.0 L 878.0 864.0 L 802.0 889.0 L 717.0 925.0 L 653.0 856.0 L 813.0 818.0 L 878.0 799.0 L 878.0 411.0 Q 870.0 262.0 868.0 246.0 L 977.0 271.0 Q 1062.0 289.0 1062.0 316.0 Q 1062.0 340.0 1013.0 358.0 L 977.0 371.0 L 977.0 769.0 M 446.0 692.0 L 534.0 692.0 L 629.0 592.0 L 764.0 701.0 Q 773.0 709.0 773.0 720.0 Q 773.0 742.0 751.0 742.0 L 446.0 742.0 L 446.0 1448.0 Q 607.0 1382.0 770.0 1287.0 L 787.0 1330.0 Q 658.0 1428.0 458.0 1534.0 Q 299.0 1619.0 174.0 1662.0 Q 160.0 1740.0 143.0 1740.0 Q 127.0 1740.0 96.0 1674.0 L 48.0 1574.0 Q 172.0 1551.0 350.0 1488.0 L 350.0 742.0 L 294.0 742.0 Q 179.0 742.0 102.0 752.0 L 64.0 666.0 Q 154.0 692.0 294.0 692.0 L 350.0 692.0 L 350.0 320.0 Q 342.0 177.0 339.0 163.0 L 446.0 187.0 Q 534.0 207.0 534.0 231.0 Q 534.0 262.0 484.0 275.0 L 446.0 284.0 Z"/></g></g>
</g>

<g class="page-number"><text x="105.0" y="292.0" font-size="3" fill="#999" font-family="sans-serif" text-anchor="middle">- 1 -</text></g>
</svg>