<svg xmlns="http://www.w3.org/2000/svg" viewBox="0 0 210.0 297.0" width="210.0mm" height="297.0mm">
<rect x="0" y="0" width="210.0" height="297.0" fill="white"/>
<rect x="0.5" y="0.5" width="209.0" height="296.0" fill="none" stroke="#aaa" stroke-width="0.4"/>
<g class="grid" fill="none" stroke="#c8c8c8" stroke-width="0.2">
  <line x1="15.00" y1="15.00" x2="195.00" y2="15.00"/>
  <line x1="15.00" y1="30.00" x2="195.00" y2="30.00"/>
  <line x1="15.00" y1="45.00" x2="195.00" y2="45.00"/>
  <line x1="15.00" y1="60.00" x2="195.00" y2="60.00"/>
  <line x1="15.00" y1="75.00" x2="195.00" y2="75.00"/>
  <line x1="15.00" y1="90.00" x2="195.00" y2="90.00"/>
  <line x1="15.00" y1="105.00" x2="195.00" y2="105.00"/>
  <line x1="15.00" y1="120.00" x2="195.00" y2="120.00"/>
  <line x1="15.00" y1="135.00" x2="195.00" y2="135.00"/>
  <line x1="15.00" y1="150.00" x2="195.00" y2="150.00"/>
  <line x1="15.00" y1="165.00" x2="195.00" y2="165.00"/>
  <line x1="15.00" y1="180.00" x2="195.00" y2="180.00"/>
  <line x1="15.00" y1="195.00" x2="195.00" y2="195.00"/>
  <line x1="15.00" y1="210.00" x2="195.00" y2="210.00"/>
  <line x1="15.00" y1="225.00" x2="195.00" y2="225.00"/>
  <line x1="15.00" y1="240.00" x2="195.00" y2="240.00"/>
  <line x1="15.00" y1="255.00" x2="195.00" y2="255.00"/>
  <line x1="15.00" y1="270.00" x2="195.00" y2="270.00"/>
  <line x1="15.00" y1="282.00" x2="195.00" y2="282.00"/>
  <line x1="15.00" y1="15.00" x2="15.00" y2="282.00"/>
  <line x1="30.00" y1="15.00" x2="30.00" y2="282.00"/>
  <line x1="45.00" y1="15.00" x2="45.00" y2="282.00"/>
  <line x1="60.00" y1="15.00" x2="60.00" y2="282.00"/>
  <line x1="75.00" y1="15.00" x2="75.00" y2="282.00"/>
  <line x1="90.00" y1="15.00" x2="90.00" y2="282.00"/>
  <line x1="105.00" y1="15.00" x2="105.00" y2="282.00"/>
  <line x1="120.00" y1="15.00" x2="120.00" y2="282.00"/>
  <line x1="135.00" y1="15.00" x2="135.00" y2="282.00"/>
  <line x1="150.00" y1="15.00" x2="150.00" y2="282.00"/>
  <line x1="165.00" y1="15.00" x2="165.00" y2="282.00"/>
  <line x1="180.00" y1="15.00" x2="180.00" y2="282.00"/>
  <line x1="195.00" y1="15.00" x2="195.00" y2="282.00"/>
  </g>
<g class="chars">
<g transform="translate(15.0,15.0) scale(0.00732421875,0.00732421875)"><g fill="#222"><path d="M 1112 251 Q 1154 244 1187.5 238.5 Q 1221 233 1241.5 228.5 Q 1262 224 1290.5 216 Q 1319 208 1332 207 Q 1346 207 1378 216 Q 1410 225 1428 236.5 Q 1446 248 1446 257 Q 1445 268 1420.5 279.5 Q 1396 291 1368 294 Q 1340 297 1290 303.5 Q 1240 310 1163 318 L 1107 324 L 990 335 Q 936 344 919 345.5 Q 902 347 830 351.5 Q 758 356 746 356 Q 716 357 682.5 354.5 Q 649 352 633 339.5 Q 617 327 619.5 318 Q 622 309 634 307 L 712 299 L 803 290 Q 836 287 896 279 L 984 268 L 1112 251 Z"/><path d="M 984 268 L 984 221 Q 984 191 979 172 Q 974 153 962.5 131.5 Q 951 110 947 100.5 Q 943 91 947.5 82.5 Q 952 74 971 70 Q 991 67 1025.5 76.5 Q 1060 86 1086.5 95 Q 1113 104 1125 116.5 Q 1137 129 1137.5 136.5 Q 1138 144 1132 160 Q 1125 176 1121 201 L 1116 229 L 1112 251 L 1107 324 L 1099 452 Q 1052.5 536 990 466 L 990 335 L 984 268 Z"/><path d="M 1099 452 Q 1135 445 1156.5 440.5 Q 1178 436 1195.5 431.5 Q 1213 427 1221 426 Q 1234 425 1265.5 432.5 Q 1297 440 1317 448.5 Q 1337 457 1337.5 467 Q 1338 477 1328 485 Q 1318 494 1302.5 495.5 Q 1287 497 1238.5 505.5 Q 1190 514 1104 524 L 1003 537 Q 906 549 877 553 Q 848 557 831 557 Q 814 558 785 554 Q 756 550 737.5 533.5 Q 719 517 724.5 509 Q 730 501 745 499 L 790 494 L 868 482 L 937 474 L 990 466 L 1099 452 Z"/><path d="M 1465 840 L 1402 861 Q 1385 867 1381 861 Q 1377 855 1387 844 L 1427 802 Q 1432 796 1456.5 763 Q 1481 730 1490 711.5 Q 1499 693 1493.5 682 Q 1488 671 1449 671 Q 1400 672 1353.5 677 Q 1307 682 1172.5 695.5 Q 1038 709 967 718 Q 896 727 823 738 L 701 757 Q 624 769 591.5 776 Q 559 783 545 782 Q 524 782 511 777 Q 498 772 470 755 Q 442 738 436.5 727 Q 431 716 434 708 Q 437 698 477 699.5 Q 517 701 567.5 698 Q 618 695 714 688.5 Q 810 682 876 676 Q 942 670 1026 660 L 1199 638 Q 1316 624 1353.5 619 Q 1391 614 1446.5 603 Q 1502 592 1518 589.5 Q 1534 587 1547 588 Q 1565 591 1582.5 602 Q 1600 613 1649 657.5 Q 1698 702 1713.5 729.5 Q 1729 757 1719 772 Q 1714 780 1703 785 Q 1692 790 1669 793.5 Q 1646 797 1602 806 Q 1558 815 1526 823 Q 1494 831 1465 840 Z"/><path d="M 971 880 Q 953 882 942 883.5 Q 931 885 890.5 891.5 Q 850 898 826 899 Q 797 901 769.5 896.5 Q 742 892 728.5 876 Q 715 860 717 852 Q 718 845 745 841 L 849 828 L 954 810 L 1071 791 Q 1078 790 1122.5 781.5 Q 1167 773 1180 772 Q 1189 772 1225 777 Q 1261 782 1276 795.5 Q 1291 809 1287 821 Q 1283 831 1265 835 Q 1247 839 1196 846 L 1127 858 L 1076 866 L 971 880 Z"/><path d="M 962 1002 L 971 880 L 1076 866 L 1065 991 Q 995.5 1088.5 962 1002 Z"/><path d="M 1065 991 Q 1100 986 1134.5 981 Q 1169 976 1197.5 970 Q 1226 964 1238 963 Q 1255 963 1275 969.5 Q 1295 976 1313 986 L 1343 1006 Q 1362 1019 1365 1027.5 Q 1368 1036 1364.5 1044 Q 1361 1052 1338 1053 L 1244 1058 Q 1151 1063 1089.5 1067 Q 1028 1071 984 1075 L 868 1089 Q 808 1097 778 1102 Q 748 1107 734 1106 Q 720 1106 706 1100 L 673 1086 Q 650 1077 639 1067 Q 628 1057 630.5 1050 Q 633 1043 656 1041 L 732 1036 Q 747 1036 812 1025 L 898 1013 L 962 1002 L 1065 991 Z"/><path d="M 186 1236 L 267 1234 Q 298 1234 405 1226 Q 512 1218 520 1217 L 681 1203 L 888 1186 L 1083 1169 Q 1131 1166 1243.5 1159 Q 1356 1152 1415 1145 L 1543 1130 Q 1614 1122 1633 1119 L 1686 1111 Q 1715 1108 1733 1109 Q 1750 1111 1780.5 1122.5 Q 1811 1134 1837 1147.5 Q 1863 1161 1879 1181 Q 1895 1201 1890.5 1214.5 Q 1886 1228 1861 1228 L 1767 1228 L 1463 1228 Q 1420 1229 1371.5 1230 Q 1323 1231 1242.5 1235 Q 1162 1239 1111.5 1242 Q 1061 1245 940 1254.5 Q 819 1264 744.5 1271 Q 670 1278 595 1289 L 470 1309 Q 390 1322 358.5 1328 Q 327 1334 311 1333 Q 290 1333 260 1322 Q 230 1311 205.5 1299 Q 181 1287 167 1270 Q 153 1253 156 1245 Q 159 1237 186 1236 Z"/><path d="M 581 1703 Q 580 1716 575 1728.5 Q 570 1741 555 1741.5 Q 540 1742 527 1725 Q 514 1710 509.5 1691 Q 505 1672 500 1635.5 Q 495 1599 488 1561.5 Q 481 1524 475 1504.5 Q 469 1485 461 1473 L 442 1448 Q 435 1435 438.5 1428.5 Q 442 1422 464 1422 Q 486 1423 504 1428 L 536 1437 Q 569 1446 562 1481 Q 569 1545 570 1556 L 578 1647 L 581 1703 Z"/><path d="M 536 1437 Q 570 1432 584.5 1429 Q 599 1426 651 1411.5 Q 703 1397 720 1390 L 759 1373 Q 772 1368 783 1368 Q 792 1369 810.5 1375 Q 829 1381 847.5 1390.5 Q 866 1400 884 1414.5 Q 902 1429 901 1439 Q 900 1444 896 1450 L 881 1470 Q 871 1484 859 1521 Q 847 1558 843 1577 L 831 1623 Q 766 1675 753 1607 Q 754 1590 757.5 1562.5 Q 761 1535 762 1526 Q 763 1517 763.5 1488 Q 764 1459 757.5 1452.5 Q 751 1446 735 1448.5 Q 719 1451 675 1461 Q 631 1471 600 1475 L 562 1481 L 536 1437 Z"/><path d="M 831 1623 Q 847 1631 855.5 1641.5 Q 864 1652 861.5 1660 Q 859 1668 844 1671.5 Q 829 1675 788 1677 Q 747 1679 691.5 1689 Q 636 1699 620 1700 L 581 1703 L 578 1647 Q 615 1640 643 1634.5 Q 671 1629 712 1618 L 753 1607 L 831 1623 Z"/><path d="M 1407 1395 Q 1447 1392 1474.5 1388.5 Q 1502 1385 1538.5 1377.5 Q 1575 1370 1591 1370 Q 1607 1371 1642.5 1382 Q 1678 1393 1694.5 1410.5 Q 1711 1428 1708 1437 Q 1705 1445 1687 1450 Q 1669 1455 1651 1456 Q 1633 1457 1575 1458.5 Q 1517 1460 1491 1461 L 1404 1467 L 1316 1477 Q 1295 1480 1285 1481 L 1212 1490 Q 1174 1495 1125.5 1502 Q 1077 1509 1054.5 1515 Q 1032 1521 1024 1520 Q 1011 1520 999 1515.5 Q 987 1511 970.5 1502.5 Q 954 1494 941.5 1484 Q 929 1474 931 1466 Q 933 1458 946 1456 L 1009 1448 L 1054 1442 Q 1078 1439 1132 1432.5 Q 1186 1426 1223.5 1421 Q 1261 1416 1282 1411 L 1310 1405 L 1407 1395 Z"/><path d="M 1404 1467 L 1404 1630 L 1408 1728 Q 1408 1746 1408 1788 Q 1407 1833 1400.5 1858 Q 1394 1883 1369 1917 Q 1344 1951 1319 1966.5 Q 1294 1982 1280 1978 Q 1269 1976 1257 1961 L 1232 1925 Q 1221 1911 1199 1887 Q 1177 1863 1163 1850 L 1135 1825 Q 1117 1810 1123 1804 Q 1129 1798 1148 1800 L 1182 1805 Q 1183 1806 1209 1810.5 Q 1235 1815 1252 1816 Q 1267 1818 1275.5 1814 Q 1284 1810 1293.5 1783.5 Q 1303 1757 1307 1724 Q 1311 1691 1312.5 1650 Q 1314 1609 1315 1561 L 1316 1477 L 1310 1405 Q 1306 1384 1302 1356 Q 1298 1328 1295 1315 Q 1292 1302 1284.5 1283.5 Q 1277 1265 1280.5 1260.5 Q 1284 1256 1292 1253 Q 1305 1249 1335 1256.5 Q 1365 1264 1377 1268 Q 1389 1272 1407 1281.5 Q 1425 1291 1427 1300.5 Q 1429 1310 1424 1324 L 1417 1342 Q 1411 1357 1411 1365 L 1407 1395 L 1404 1467 Z"/><path d="M 1029 1576 L 1065 1581 Q 1075 1584 1107 1592 Q 1139 1600 1155.5 1608.5 Q 1172 1617 1179 1630 Q 1186 1643 1185 1664 Q 1183 1684 1175 1704.5 Q 1167 1725 1157.5 1732 Q 1148 1739 1124 1729 Q 1106 1723 1083.5 1700.5 Q 1061 1678 1049 1662 L 1018 1623 Q 1003 1607 999.5 1596 Q 996 1585 1000 1579 Q 1004 1573 1029 1576 Z"/></g></g>
</g>

<g class="page-number"><text x="105.0" y="292.0" font-size="3" fill="#999" font-family="sans-serif" text-anchor="middle">- 1 -</text></g>
</svg>