<svg xmlns="http://www.w3.org/2000/svg" viewBox="0 0 210.0 297.0" width="210.0mm" height="297.0mm">
<rect x="0" y="0" width="210.0" height="297.0" fill="white"/>
<rect x="0.5" y="0.5" width="209.0" height="296.0" fill="none" stroke="#aaa" stroke-width="0.4"/>
<g class="grid" fill="none" stroke="#c8c8c8" stroke-width="0.2">
  <line x1="15.00" y1="15.00" x2="195.00" y2="15.00"/>
  <line x1="15.00" y1="30.00" x2="195.00" y2="30.00"/>
  <line x1="15.00" y1="45.00" x2="195.00" y2="45.00"/>
  <line x1="15.00" y1="60.00" x2="195.00" y2="60.00"/>
  <line x1="15.00" y1="75.00" x2="195.00" y2="75.00"/>
  <line x1="15.00" y1="90.00" x2="195.00" y2="90.00"/>
  <line x1="15.00" y1="105.00" x2="195.00" y2="105.00"/>
  <line x1="15.00" y1="120.00" x2="195.00" y2="120.00"/>
  <line x1="15.00" y1="135.00" x2="195.00" y2="135.00"/>
  <line x1="15.00" y1="150.00" x2="195.00" y2="150.00"/>
  <line x1="15.00" y1="165.00" x2="195.00" y2="165.00"/>
  <line x1="15.00" y1="180.00" x2="195.00" y2="180.00"/>
  <line x1="15.00" y1="195.00" x2="195.00" y2="195.00"/>
  <line x1="15.00" y1="210.00" x2="195.00" y2="210.00"/>
  <line x1="15.00" y1="225.00" x2="195.00" y2="225.00"/>
  <line x1="15.00" y1="240.00" x2="195.00" y2="240.00"/>
  <line x1="15.00" y1="255.00" x2="195.00" y2="255.00"/>
  <line x1="15.00" y1="270.00" x2="195.00" y2="270.00"/>
  <line x1="15.00" y1="282.00" x2="195.00" y2="282.00"/>
  <line x1="15.00" y1="15.00" x2="15.00" y2="282.00"/>
  <line x1="30.00" y1="15.00" x2="30.00" y2="282.00"/>
  <line x1="45.00" y1="15.00" x2="45.00" y2="282.00"/>
  <line x1="60.00" y1="15.00" x2="60.00" y2="282.00"/>
  <line x1="75.00" y1="15.00" x2="75.00" y2="282.00"/>
  <line x1="90.00" y1="15.00" x2="90.00" y2="282.00"/>
  <line x1="105.00" y1="15.00" x2="105.00" y2="282.00"/>
  <line x1="120.00" y1="15.00" x2="120.00" y2="282.00"/>
  <line x1="135.00" y1="15.00" x2="135.00" y2="282.00"/>
  <line x1="150.00" y1="15.00" x2="150.00" y2="282.00"/>
  <line x1="165.00" y1="15.00" x2="165.00" y2="282.00"/>
  <line x1="180.00" y1="15.00" x2="180.00" y2="282.00"/>
  <line x1="195.00" y1="15.00" x2="195.00" y2="282.00"/>
  </g>
<g class="chars">
<g transform="translate(15.0,15.0) scale(0.00732421875,0.00732421875)"><g fill="#222"><path d="M 90.0 1233.0 L 52.0 1145.0 Q 148.0 1168.0 282.0 1168.0 L 1738.0 1168.0 L 1837.0 1067.0 L 1958.0 1174.0 Q 1974.0 1188.0 1974.0 1199.0 Q 1974.0 1225.0 1947.0 1225.0 L 282.0 1225.0 Q 165.0 1225.0 90.0 1233.0 M 1521.0 1243.0 L 1630.0 1267.0 Q 1715.0 1286.0 1715.0 1312.0 Q 1715.0 1341.0 1666.0 1354.0 L 1624.0 1365.0 L 1624.0 1418.0 L 1761.0 1418.0 L 1842.0 1337.0 L 1955.0 1423.0 Q 1972.0 1436.0 1972.0 1449.0 Q 1972.0 1475.0 1945.0 1475.0 L 1624.0 1475.0 L 1624.0 1813.0 Q 1624.0 1955.0 1470.0 1984.0 Q 1458.0 1913.0 1422.0 1891.0 Q 1389.0 1870.0 1263.0 1847.0 L 1271.0 1802.0 Q 1440.0 1828.0 1471.0 1828.0 Q 1528.0 1828.0 1528.0 1771.0 L 1528.0 1475.0 L 1174.0 1475.0 Q 1056.0 1475.0 982.0 1483.0 L 944.0 1396.0 Q 1037.0 1418.0 1174.0 1418.0 L 1528.0 1418.0 L 1528.0 1403.0 Q 1528.0 1285.0 1521.0 1243.0 M 1061.0 230.0 L 1632.0 230.0 L 1730.0 128.0 L 1851.0 235.0 Q 1868.0 250.0 1868.0 261.0 Q 1868.0 287.0 1841.0 287.0 L 1061.0 287.0 L 1061.0 434.0 L 1499.0 434.0 L 1598.0 333.0 L 1718.0 439.0 Q 1735.0 454.0 1735.0 465.0 Q 1735.0 491.0 1708.0 491.0 L 552.0 491.0 Q 435.0 491.0 360.0 499.0 L 321.0 411.0 Q 417.0 434.0 552.0 434.0 L 966.0 434.0 L 966.0 287.0 L 400.0 287.0 Q 283.0 287.0 208.0 295.0 L 170.0 208.0 Q 267.0 230.0 400.0 230.0 L 966.0 230.0 L 966.0 208.0 Q 966.0 92.0 958.0 50.0 L 1068.0 74.0 Q 1153.0 93.0 1153.0 119.0 Q 1153.0 148.0 1104.0 161.0 L 1061.0 172.0 M 970.0 989.0 L 970.0 825.0 L 597.0 825.0 Q 481.0 825.0 405.0 833.0 L 367.0 745.0 Q 463.0 768.0 597.0 768.0 L 1405.0 768.0 L 1485.0 687.0 L 1599.0 773.0 Q 1615.0 786.0 1615.0 799.0 Q 1615.0 825.0 1588.0 825.0 L 1068.0 825.0 L 1068.0 989.0 L 1568.0 989.0 L 1648.0 908.0 L 1762.0 994.0 Q 1779.0 1007.0 1779.0 1020.0 Q 1779.0 1046.0 1752.0 1046.0 L 415.0 1046.0 Q 298.0 1046.0 223.0 1054.0 L 185.0 966.0 Q 281.0 989.0 415.0 989.0 M 223.0 1308.0 L 330.0 1372.0 L 734.0 1372.0 L 795.0 1300.0 L 868.0 1350.0 Q 910.0 1379.0 910.0 1400.0 Q 910.0 1416.0 844.0 1452.0 L 844.0 1709.0 L 890.0 1745.0 Q 906.0 1757.0 906.0 1770.0 Q 906.0 1791.0 883.0 1791.0 L 317.0 1791.0 L 317.0 1821.0 Q 317.0 1851.0 265.0 1851.0 Q 212.0 1851.0 212.0 1807.0 Q 212.0 1803.0 216.0 1758.0 Q 223.0 1663.0 223.0 1654.0 M 317.0 1733.0 L 749.0 1733.0 L 749.0 1429.0 L 317.0 1429.0 M 1073.0 1518.0 Q 1158.0 1557.0 1189.0 1576.0 Q 1270.0 1627.0 1270.0 1683.0 Q 1270.0 1735.0 1228.0 1735.0 Q 1195.0 1735.0 1169.0 1678.0 Q 1138.0 1611.0 1049.0 1548.0 M 1794.0 602.0 L 1848.0 541.0 L 1941.0 607.0 Q 1977.0 633.0 1977.0 651.0 Q 1977.0 673.0 1941.0 680.0 L 1891.0 690.0 Q 1835.0 746.0 1823.0 754.0 Q 1764.0 794.0 1740.0 816.0 L 1716.0 795.0 Q 1762.0 723.0 1794.0 659.0 L 330.0 659.0 Q 213.0 659.0 138.0 667.0 L 100.0 579.0 Q 198.0 602.0 330.0 602.0 Z"/></g></g>
</g>

<g class="page-number"><text x="105.0" y="292.0" font-size="3" fill="#999" font-family="sans-serif" text-anchor="middle">- 1 -</text></g>
</svg>