<svg xmlns="http://www.w3.org/2000/svg" viewBox="0 0 210.0 297.0" width="210.0mm" height="297.0mm">
<rect x="0" y="0" width="210.0" height="297.0" fill="white"/>
<rect x="0.5" y="0.5" width="209.0" height="296.0" fill="none" stroke="#aaa" stroke-width="0.4"/>
<g class="grid" fill="none" stroke="#c8c8c8" stroke-width="0.2">
  <line x1="15.00" y1="15.00" x2="195.00" y2="15.00"/>
  <line x1="15.00" y1="30.00" x2="195.00" y2="30.00"/>
  <line x1="15.00" y1="45.00" x2="195.00" y2="45.00"/>
  <line x1="15.00" y1="60.00" x2="195.00" y2="60.00"/>
  <line x1="15.00" y1="75.00" x2="195.00" y2="75.00"/>
  <line x1="15.00" y1="90.00" x2="195.00" y2="90.00"/>
  <line x1="15.00" y1="105.00" x2="195.00" y2="105.00"/>
  <line x1="15.00" y1="120.00" x2="195.00" y2="120.00"/>
  <line x1="15.00" y1="135.00" x2="195.00" y2="135.00"/>
  <line x1="15.00" y1="150.00" x2="195.00" y2="150.00"/>
  <line x1="15.00" y1="165.00" x2="195.00" y2="165.00"/>
  <line x1="15.00" y1="180.00" x2="195.00" y2="180.00"/>
  <line x1="15.00" y1="195.00" x2="195.00" y2="195.00"/>
  <line x1="15.00" y1="210.00" x2="195.00" y2="210.00"/>
  <line x1="15.00" y1="225.00" x2="195.00" y2="225.00"/>
  <line x1="15.00" y1="240.00" x2="195.00" y2="240.00"/>
  <line x1="15.00" y1="255.00" x2="195.00" y2="255.00"/>
  <line x1="15.00" y1="270.00" x2="195.00" y2="270.00"/>
  <line x1="15.00" y1="282.00" x2="195.00" y2="282.00"/>
  <line x1="15.00" y1="15.00" x2="15.00" y2="282.00"/>
  <line x1="30.00" y1="15.00" x2="30.00" y2="282.00"/>
  <line x1="45.00" y1="15.00" x2="45.00" y2="282.00"/>
  <line x1="60.00" y1="15.00" x2="60.00" y2="282.00"/>
  <line x1="75.00" y1="15.00" x2="75.00" y2="282.00"/>
  <line x1="90.00" y1="15.00" x2="90.00" y2="282.00"/>
  <line x1="105.00" y1="15.00" x2="105.00" y2="282.00"/>
  <line x1="120.00" y1="15.00" x2="120.00" y2="282.00"/>
  <line x1="135.00" y1="15.00" x2="135.00" y2="282.00"/>
  <line x1="150.00" y1="15.00" x2="150.00" y2="282.00"/>
  <line x1="165.00" y1="15.00" x2="165.00" y2="282.00"/>
  <line x1="180.00" y1="15.00" x2="180.00" y2="282.00"/>
  <line x1="195.00" y1="15.00" x2="195.00" y2="282.00"/>
  </g>
<g class="chars">
<g transform="translate(15.0,15.0) scale(0.00732421875,0.00732421875)"><g fill="#222"><path d="M 1544.0 1127.0 L 521.0 1127.0 L 521.0 1169.0 Q 521.0 1209.0 463.0 1209.0 Q 411.0 1209.0 411.0 1162.0 Q 411.0 1148.0 415.0 1114.0 Q 418.0 1092.0 420.0 1036.0 Q 427.0 935.0 427.0 906.0 L 427.0 336.0 L 529.0 417.0 L 847.0 417.0 Q 882.0 327.0 901.0 245.0 L 328.0 245.0 Q 212.0 245.0 136.0 253.0 L 98.0 165.0 Q 192.0 187.0 328.0 187.0 L 1690.0 187.0 L 1793.0 67.0 L 1947.0 190.0 Q 1960.0 201.0 1960.0 215.0 Q 1960.0 245.0 1924.0 245.0 L 1011.0 245.0 Q 975.0 322.0 909.0 417.0 L 1530.0 417.0 L 1598.0 340.0 L 1682.0 394.0 Q 1722.0 421.0 1722.0 443.0 Q 1722.0 470.0 1644.0 504.0 L 1644.0 891.0 Q 1644.0 1002.0 1656.0 1100.0 Q 1659.0 1129.0 1659.0 1145.0 Q 1659.0 1198.0 1599.0 1198.0 Q 1544.0 1198.0 1544.0 1156.0 L 1544.0 1153.0 M 1544.0 473.0 L 521.0 473.0 L 521.0 628.0 L 1544.0 628.0 M 1544.0 686.0 L 521.0 686.0 L 521.0 848.0 L 1544.0 848.0 M 1544.0 906.0 L 521.0 906.0 L 521.0 1071.0 L 1544.0 1071.0 M 733.0 1153.0 L 830.0 1201.0 Q 877.0 1224.0 877.0 1246.0 Q 877.0 1274.0 837.0 1274.0 L 784.0 1274.0 L 747.0 1314.0 L 1387.0 1314.0 L 1459.0 1245.0 L 1524.0 1286.0 Q 1588.0 1328.0 1588.0 1352.0 Q 1588.0 1382.0 1535.0 1398.0 L 1501.0 1409.0 Q 1368.0 1551.0 1306.0 1602.0 Q 1245.0 1652.0 1154.0 1711.0 Q 1520.0 1831.0 1970.0 1853.0 L 1970.0 1886.0 Q 1878.0 1902.0 1841.0 1975.0 Q 1814.0 1971.0 1712.0 1954.0 Q 1498.0 1920.0 1298.0 1857.0 Q 1293.0 1855.0 1063.0 1771.0 Q 702.0 1941.0 110.0 1975.0 L 106.0 1937.0 Q 406.0 1893.0 599.0 1846.0 Q 777.0 1803.0 963.0 1719.0 Q 839.0 1651.0 774.0 1606.0 Q 729.0 1574.0 592.0 1462.0 Q 409.0 1604.0 141.0 1711.0 L 127.0 1674.0 Q 355.0 1560.0 537.0 1401.0 Q 508.0 1371.0 467.0 1325.0 L 499.0 1292.0 Q 541.0 1328.0 578.0 1362.0 Q 659.0 1278.0 733.0 1153.0 M 1053.0 1671.0 Q 1266.0 1531.0 1395.0 1370.0 L 692.0 1370.0 Q 665.0 1395.0 639.0 1420.0 Q 814.0 1569.0 1053.0 1671.0 Z"/></g></g>
</g>

<g class="page-number"><text x="105.0" y="292.0" font-size="3" fill="#999" font-family="sans-serif" text-anchor="middle">- 1 -</text></g>
</svg>