<svg xmlns="http://www.w3.org/2000/svg" viewBox="0 0 210.0 297.0" width="210.0mm" height="297.0mm">
<rect x="0" y="0" width="210.0" height="297.0" fill="white"/>
<rect x="0.5" y="0.5" width="209.0" height="296.0" fill="none" stroke="#aaa" stroke-width="0.4"/>
<g class="grid" fill="none" stroke="#c8c8c8" stroke-width="0.2">
  <line x1="15.00" y1="15.00" x2="195.00" y2="15.00"/>
  <line x1="15.00" y1="30.00" x2="195.00" y2="30.00"/>
  <line x1="15.00" y1="45.00" x2="195.00" y2="45.00"/>
  <line x1="15.00" y1="60.00" x2="195.00" y2="60.00"/>
  <line x1="15.00" y1="75.00" x2="195.00" y2="75.00"/>
  <line x1="15.00" y1="90.00" x2="195.00" y2="90.00"/>
  <line x1="15.00" y1="105.00" x2="195.00" y2="105.00"/>
  <line x1="15.00" y1="120.00" x2="195.00" y2="120.00"/>
  <line x1="15.00" y1="135.00" x2="195.00" y2="135.00"/>
  <line x1="15.00" y1="150.00" x2="195.00" y2="150.00"/>
  <line x1="15.00" y1="165.00" x2="195.00" y2="165.00"/>
  <line x1="15.00" y1="180.00" x2="195.00" y2="180.00"/>
  <line x1="15.00" y1="195.00" x2="195.00" y2="195.00"/>
  <line x1="15.00" y1="210.00" x2="195.00" y2="210.00"/>
  <line x1="15.00" y1="225.00" x2="195.00" y2="225.00"/>
  <line x1="15.00" y1="240.00" x2="195.00" y2="240.00"/>
  <line x1="15.00" y1="255.00" x2="195.00" y2="255.00"/>
  <line x1="15.00" y1="270.00" x2="195.00" y2="270.00"/>
  <line x1="15.00" y1="282.00" x2="195.00" y2="282.00"/>
  <line x1="15.00" y1="15.00" x2="15.00" y2="282.00"/>
  <line x1="30.00" y1="15.00" x2="30.00" y2="282.00"/>
  <line x1="45.00" y1="15.00" x2="45.00" y2="282.00"/>
  <line x1="60.00" y1="15.00" x2="60.00" y2="282.00"/>
  <line x1="75.00" y1="15.00" x2="75.00" y2="282.00"/>
  <line x1="90.00" y1="15.00" x2="90.00" y2="282.00"/>
  <line x1="105.00" y1="15.00" x2="105.00" y2="282.00"/>
  <line x1="120.00" y1="15.00" x2="120.00" y2="282.00"/>
  <line x1="135.00" y1="15.00" x2="135.00" y2="282.00"/>
  <line x1="150.00" y1="15.00" x2="150.00" y2="282.00"/>
  <line x1="165.00" y1="15.00" x2="165.00" y2="282.00"/>
  <line x1="180.00" y1="15.00" x2="180.00" y2="282.00"/>
  <line x1="195.00" y1="15.00" x2="195.00" y2="282.00"/>
  </g>
<g class="chars">
<g transform="translate(15.0,15.0) scale(0.00732421875,0.00732421875)"><g fill="#222"><path d="M 839 909 L 635 944 L 564 955 Q 540 960 513.5 967 Q 487 974 477 974 Q 458 975 417 958 Q 376 941 356 922 Q 336 903 340.5 895 Q 345 887 363 884 L 436 875 L 575 858 Q 681 845 738 836 L 858 818 L 1000 798 L 1232 767 Q 1289 760 1335 747.5 Q 1381 735 1399 735 Q 1417 736 1457 749.5 Q 1497 763 1535.5 786.5 Q 1574 810 1569 825 Q 1565 836 1550.5 841.5 Q 1536 847 1495 850 L 1410 858 L 1250 869 Q 1192 873 1080 884 L 988 893 L 839 909 Z"/><path d="M 858 818 L 864 746 Q 869 685 870.5 635 Q 872 585 874 519.5 Q 876 454 872 424 Q 866 391 854.5 363 Q 843 335 830.5 308 Q 818 281 821.5 270.5 Q 825 260 839 253.5 Q 853 247 888 253 L 920 259 Q 946 265 972 273.5 Q 998 282 1025.5 300 Q 1053 318 1056.5 333.5 Q 1060 349 1048 383 Q 1036 414 1031 442.5 Q 1026 471 1022 526 L 1016 600 L 1000 798 L 961 982 Q 943 1028 922 1085 Q 901 1142 874.5 1201.5 Q 848 1261 799 1333 Q 750 1405 698 1464 Q 646 1523 591 1569.5 Q 536 1616 477 1651.5 Q 418 1687 346 1721 Q 274 1755 230 1771 Q 186 1787 174 1790 L 152 1796 Q 140 1800 136 1790.5 Q 132 1781 140 1776 L 163 1762 Q 169 1758 220 1726 Q 271 1694 309.5 1668 Q 348 1642 407 1591 Q 466 1540 522 1482 Q 578 1424 620 1369.5 Q 662 1315 702.5 1245.5 Q 743 1176 772 1106.5 Q 801 1037 816 987 L 839 909 L 858 818 Z"/><path d="M 988 893 Q 1034 960 1086.5 1035 Q 1139 1110 1179.5 1161.5 Q 1220 1213 1296 1292.5 Q 1372 1372 1441.5 1426 Q 1511 1480 1593 1528 Q 1675 1576 1748 1613 Q 1821 1650 1851.5 1662 Q 1882 1674 1896.5 1682 Q 1911 1690 1911.5 1698.5 Q 1912 1707 1900 1716 Q 1887 1726 1871.5 1728 Q 1856 1730 1790 1739.5 Q 1724 1749 1668 1751 Q 1611 1754 1549.5 1748 Q 1488 1742 1449 1721.5 Q 1410 1701 1369 1648.5 Q 1328 1596 1274 1516 Q 1220 1436 1176.5 1366 Q 1133 1296 1086 1210 L 994 1040 L 961 982 Q 902.5 821.5 988 893 Z"/></g></g>
</g>

<g class="page-number"><text x="105.0" y="292.0" font-size="3" fill="#999" font-family="sans-serif" text-anchor="middle">- 1 -</text></g>
</svg>