<svg xmlns="http://www.w3.org/2000/svg" viewBox="0 0 210.0 297.0" width="210.0mm" height="297.0mm">
<rect x="0" y="0" width="210.0" height="297.0" fill="white"/>
<rect x="0.5" y="0.5" width="209.0" height="296.0" fill="none" stroke="#aaa" stroke-width="0.4"/>
<g class="grid" fill="none" stroke="#c8c8c8" stroke-width="0.2">
  <line x1="15.00" y1="15.00" x2="195.00" y2="15.00"/>
  <line x1="15.00" y1="30.00" x2="195.00" y2="30.00"/>
  <line x1="15.00" y1="45.00" x2="195.00" y2="45.00"/>
  <line x1="15.00" y1="60.00" x2="195.00" y2="60.00"/>
  <line x1="15.00" y1="75.00" x2="195.00" y2="75.00"/>
  <line x1="15.00" y1="90.00" x2="195.00" y2="90.00"/>
  <line x1="15.00" y1="105.00" x2="195.00" y2="105.00"/>
  <line x1="15.00" y1="120.00" x2="195.00" y2="120.00"/>
  <line x1="15.00" y1="135.00" x2="195.00" y2="135.00"/>
  <line x1="15.00" y1="150.00" x2="195.00" y2="150.00"/>
  <line x1="15.00" y1="165.00" x2="195.00" y2="165.00"/>
  <line x1="15.00" y1="180.00" x2="195.00" y2="180.00"/>
  <line x1="15.00" y1="195.00" x2="195.00" y2="195.00"/>
  <line x1="15.00" y1="210.00" x2="195.00" y2="210.00"/>
  <line x1="15.00" y1="225.00" x2="195.00" y2="225.00"/>
  <line x1="15.00" y1="240.00" x2="195.00" y2="240.00"/>
  <line x1="15.00" y1="255.00" x2="195.00" y2="255.00"/>
  <line x1="15.00" y1="270.00" x2="195.00" y2="270.00"/>
  <line x1="15.00" y1="282.00" x2="195.00" y2="282.00"/>
  <line x1="15.00" y1="15.00" x2="15.00" y2="282.00"/>
  <line x1="30.00" y1="15.00" x2="30.00" y2="282.00"/>
  <line x1="45.00" y1="15.00" x2="45.00" y2="282.00"/>
  <line x1="60.00" y1="15.00" x2="60.00" y2="282.00"/>
  <line x1="75.00" y1="15.00" x2="75.00" y2="282.00"/>
  <line x1="90.00" y1="15.00" x2="90.00" y2="282.00"/>
  <line x1="105.00" y1="15.00" x2="105.00" y2="282.00"/>
  <line x1="120.00" y1="15.00" x2="120.00" y2="282.00"/>
  <line x1="135.00" y1="15.00" x2="135.00" y2="282.00"/>
  <line x1="150.00" y1="15.00" x2="150.00" y2="282.00"/>
  <line x1="165.00" y1="15.00" x2="165.00" y2="282.00"/>
  <line x1="180.00" y1="15.00" x2="180.00" y2="282.00"/>
  <line x1="195.00" y1="15.00" x2="195.00" y2="282.00"/>
  </g>
<g class="chars">
<g transform="translate(15.0,15.0) scale(0.00732421875,0.00732421875)"><g fill="#222"><path d="M 1077.0 768.0 L 1077.0 1156.0 L 1722.0 1156.0 L 1821.0 1054.0 L 1941.0 1161.0 Q 1958.0 1176.0 1958.0 1187.0 Q 1958.0 1213.0 1931.0 1213.0 L 1077.0 1213.0 L 1077.0 1805.0 Q 1077.0 1896.0 1017.0 1937.0 Q 986.0 1957.0 896.0 1975.0 Q 883.0 1900.0 835.0 1880.0 Q 828.0 1877.0 667.0 1835.0 L 675.0 1789.0 Q 725.0 1798.0 814.0 1810.0 Q 892.0 1821.0 911.0 1821.0 Q 981.0 1821.0 981.0 1763.0 L 981.0 1213.0 L 284.0 1213.0 Q 215.0 1213.0 135.0 1224.0 L 96.0 1138.0 Q 221.0 1156.0 284.0 1156.0 L 981.0 1156.0 L 981.0 768.0 L 557.0 768.0 Q 490.0 768.0 408.0 779.0 L 369.0 693.0 Q 490.0 711.0 557.0 711.0 L 1479.0 711.0 L 1577.0 609.0 L 1698.0 716.0 Q 1715.0 731.0 1715.0 742.0 Q 1715.0 768.0 1688.0 768.0 M 897.0 48.0 Q 999.0 113.0 1038.0 148.0 Q 1109.0 212.0 1109.0 276.0 Q 1109.0 315.0 1084.0 341.0 L 1772.0 341.0 L 1832.0 272.0 L 1923.0 347.0 Q 1957.0 374.0 1957.0 390.0 Q 1957.0 412.0 1919.0 419.0 L 1869.0 428.0 Q 1765.0 557.0 1669.0 629.0 L 1646.0 608.0 Q 1717.0 513.0 1772.0 397.0 L 290.0 397.0 Q 278.0 503.0 247.0 563.0 Q 198.0 660.0 128.0 660.0 Q 74.0 660.0 74.0 610.0 Q 74.0 574.0 126.0 536.0 Q 186.0 493.0 217.0 426.0 Q 245.0 367.0 249.0 251.0 L 284.0 251.0 Q 288.0 297.0 290.0 341.0 L 1024.0 341.0 Q 1011.0 320.0 998.0 269.0 Q 977.0 187.0 873.0 74.0 Z"/></g></g>
</g>

<g class="page-number"><text x="105.0" y="292.0" font-size="3" fill="#999" font-family="sans-serif" text-anchor="middle">- 1 -</text></g>
</svg>