<svg xmlns="http://www.w3.org/2000/svg" viewBox="0 0 210.0 297.0" width="210.0mm" height="297.0mm">
<rect x="0" y="0" width="210.0" height="297.0" fill="white"/>
<rect x="0.5" y="0.5" width="209.0" height="296.0" fill="none" stroke="#aaa" stroke-width="0.4"/>
<g class="grid" fill="none" stroke="#c8c8c8" stroke-width="0.2">
  <line x1="15.00" y1="15.00" x2="195.00" y2="15.00"/>
  <line x1="15.00" y1="30.00" x2="195.00" y2="30.00"/>
  <line x1="15.00" y1="45.00" x2="195.00" y2="45.00"/>
  <line x1="15.00" y1="60.00" x2="195.00" y2="60.00"/>
  <line x1="15.00" y1="75.00" x2="195.00" y2="75.00"/>
  <line x1="15.00" y1="90.00" x2="195.00" y2="90.00"/>
  <line x1="15.00" y1="105.00" x2="195.00" y2="105.00"/>
  <line x1="15.00" y1="120.00" x2="195.00" y2="120.00"/>
  <line x1="15.00" y1="135.00" x2="195.00" y2="135.00"/>
  <line x1="15.00" y1="150.00" x2="195.00" y2="150.00"/>
  <line x1="15.00" y1="165.00" x2="195.00" y2="165.00"/>
  <line x1="15.00" y1="180.00" x2="195.00" y2="180.00"/>
  <line x1="15.00" y1="195.00" x2="195.00" y2="195.00"/>
  <line x1="15.00" y1="210.00" x2="195.00" y2="210.00"/>
  <line x1="15.00" y1="225.00" x2="195.00" y2="225.00"/>
  <line x1="15.00" y1="240.00" x2="195.00" y2="240.00"/>
  <line x1="15.00" y1="255.00" x2="195.00" y2="255.00"/>
  <line x1="15.00" y1="270.00" x2="195.00" y2="270.00"/>
  <line x1="15.00" y1="282.00" x2="195.00" y2="282.00"/>
  <line x1="15.00" y1="15.00" x2="15.00" y2="282.00"/>
  <line x1="30.00" y1="15.00" x2="30.00" y2="282.00"/>
  <line x1="45.00" y1="15.00" x2="45.00" y2="282.00"/>
  <line x1="60.00" y1="15.00" x2="60.00" y2="282.00"/>
  <line x1="75.00" y1="15.00" x2="75.00" y2="282.00"/>
  <line x1="90.00" y1="15.00" x2="90.00" y2="282.00"/>
  <line x1="105.00" y1="15.00" x2="105.00" y2="282.00"/>
  <line x1="120.00" y1="15.00" x2="120.00" y2="282.00"/>
  <line x1="135.00" y1="15.00" x2="135.00" y2="282.00"/>
  <line x1="150.00" y1="15.00" x2="150.00" y2="282.00"/>
  <line x1="165.00" y1="15.00" x2="165.00" y2="282.00"/>
  <line x1="180.00" y1="15.00" x2="180.00" y2="282.00"/>
  <line x1="195.00" y1="15.00" x2="195.00" y2="282.00"/>
  </g>
<g class="chars">
<g transform="translate(15.0,15.0) scale(0.00732421875,0.00732421875)"><g fill="#222"><path d="M 998 410 Q 958 371 939.5 346 Q 921 321 893.5 267 Q 866 213 855 186 Q 844 159 850 152 Q 856 145 871 143 Q 896 140 933.5 153.5 Q 971 167 1017 193.5 Q 1063 220 1081 252 Q 1099 284 1100 314 Q 1101 349 1091 366 L 1071 405 Q 1034.5 439.5 998 410 Z"/><path d="M 456 530 Q 446 577 437 613 Q 428 649 406.5 700.5 Q 385 752 360.5 775 Q 336 798 314 796 Q 291 795 277.5 778 Q 264 761 260 736.5 Q 256 712 258 692 Q 260 673 274 645 L 311 574 Q 330 536 341 504 L 370 415 L 382 370 Q 389 358 399 356.5 Q 409 355 423 370 Q 436 386 439 396 L 454 447 Q 467 483.5 456 530 Z"/><path d="M 1071 405 L 1427 361 Q 1482 355 1526.5 344 Q 1571 333 1588 335 Q 1609 338 1635.5 355 Q 1662 372 1715.5 422 Q 1769 472 1779 491.5 Q 1789 511 1789.5 522 Q 1790 533 1786 540 Q 1779 552 1764.5 557 Q 1750 562 1715 567.5 Q 1680 573 1616.5 591.5 Q 1553 610 1539 615 L 1465 645 Q 1429 660 1424 652 Q 1419 644 1435 622 L 1476 567 Q 1496 539 1509 521 Q 1522 503 1533 479 Q 1544 455 1538.5 445 Q 1533 435 1498 434 Q 1459 434 1376 441 L 1183 455 Q 1097 462 1005 474 L 688 516 L 612 526 Q 552 537 545 537 Q 528 538 493 534 L 456 530 L 454 447 Q 545 446 551 445 L 998 410 L 1071 405 Z"/><path d="M 903 830 L 771 839 Q 725 843 700.5 839.5 Q 676 836 650.5 827 Q 625 818 615.5 803 Q 606 788 608.5 781.5 Q 611 775 646 771 L 752 761 Q 764 760 831 749.5 Q 898 739 995.5 726 Q 1093 713 1137.5 700.5 Q 1182 688 1198 687 Q 1211 687 1242 694 Q 1273 701 1296.5 714 Q 1320 727 1326 738.5 Q 1332 750 1332.5 755 Q 1333 760 1332 763 Q 1328 775 1301.5 781.5 Q 1275 788 1249 791 L 1022 818 L 903 830 Z"/><path d="M 1065 1097 L 1346 1066 Q 1347 1066 1410 1053 Q 1473 1040 1504 1041 Q 1543 1043 1584.5 1058.5 Q 1626 1074 1651.5 1093 Q 1677 1112 1678.5 1127 Q 1680 1142 1675 1150 Q 1666 1165 1622 1164 L 1511 1167 L 1241 1169 L 1065 1175 L 946 1179 L 742 1209 Q 696 1216 606 1235.5 Q 516 1255 489 1261.5 Q 462 1268 450 1268 Q 427 1270 405 1262.5 Q 383 1255 356 1241 Q 329 1227 311 1211 Q 293 1195 295 1184 Q 296 1174 305 1169.5 Q 314 1165 359 1162 L 434 1157 Q 468 1155 597 1142 L 797 1123 L 942 1107 L 1065 1097 Z"/><path d="M 1022 818 Q 1040 834 1054.5 847 Q 1069 860 1071 868.5 Q 1073 877 1068 905 Q 1067 906 1065 942 L 1061 990 L 1065 1097 L 1065 1175 L 1061 1546 Q 1060 1603 1056 1661.5 Q 1052 1720 1042.5 1758.5 Q 1033 1797 1012.5 1842 Q 992 1887 972.5 1897 Q 953 1907 943 1906 Q 927 1905 892.5 1860 Q 858 1815 837 1786.5 Q 816 1758 801 1742 L 747 1690 Q 735 1679 739.5 1670.5 Q 744 1662 765 1668 L 812 1682 Q 832 1689 861 1695 Q 890 1701 901 1696 Q 915 1689 921 1662 Q 927 1635 930 1596 L 940 1441 L 946 1179 L 942 1107 L 938 974 Q 937 962 928.5 917.5 Q 920 873 918 867 L 903 830 L 1022 818 Z"/></g></g>
</g>

<g class="page-number"><text x="105.0" y="292.0" font-size="3" fill="#999" font-family="sans-serif" text-anchor="middle">- 1 -</text></g>
</svg>