<svg xmlns="http://www.w3.org/2000/svg" viewBox="0 0 210.0 297.0" width="210.0mm" height="297.0mm">
<rect x="0" y="0" width="210.0" height="297.0" fill="white"/>
<rect x="0.5" y="0.5" width="209.0" height="296.0" fill="none" stroke="#aaa" stroke-width="0.4"/>
<g class="grid" fill="none" stroke="#c8c8c8" stroke-width="0.2">
  <line x1="15.00" y1="15.00" x2="195.00" y2="15.00"/>
  <line x1="15.00" y1="30.00" x2="195.00" y2="30.00"/>
  <line x1="15.00" y1="45.00" x2="195.00" y2="45.00"/>
  <line x1="15.00" y1="60.00" x2="195.00" y2="60.00"/>
  <line x1="15.00" y1="75.00" x2="195.00" y2="75.00"/>
  <line x1="15.00" y1="90.00" x2="195.00" y2="90.00"/>
  <line x1="15.00" y1="105.00" x2="195.00" y2="105.00"/>
  <line x1="15.00" y1="120.00" x2="195.00" y2="120.00"/>
  <line x1="15.00" y1="135.00" x2="195.00" y2="135.00"/>
  <line x1="15.00" y1="150.00" x2="195.00" y2="150.00"/>
  <line x1="15.00" y1="165.00" x2="195.00" y2="165.00"/>
  <line x1="15.00" y1="180.00" x2="195.00" y2="180.00"/>
  <line x1="15.00" y1="195.00" x2="195.00" y2="195.00"/>
  <line x1="15.00" y1="210.00" x2="195.00" y2="210.00"/>
  <line x1="15.00" y1="225.00" x2="195.00" y2="225.00"/>
  <line x1="15.00" y1="240.00" x2="195.00" y2="240.00"/>
  <line x1="15.00" y1="255.00" x2="195.00" y2="255.00"/>
  <line x1="15.00" y1="270.00" x2="195.00" y2="270.00"/>
  <line x1="15.00" y1="282.00" x2="195.00" y2="282.00"/>
  <line x1="15.00" y1="15.00" x2="15.00" y2="282.00"/>
  <line x1="30.00" y1="15.00" x2="30.00" y2="282.00"/>
  <line x1="45.00" y1="15.00" x2="45.00" y2="282.00"/>
  <line x1="60.00" y1="15.00" x2="60.00" y2="282.00"/>
  <line x1="75.00" y1="15.00" x2="75.00" y2="282.00"/>
  <line x1="90.00" y1="15.00" x2="90.00" y2="282.00"/>
  <line x1="105.00" y1="15.00" x2="105.00" y2="282.00"/>
  <line x1="120.00" y1="15.00" x2="120.00" y2="282.00"/>
  <line x1="135.00" y1="15.00" x2="135.00" y2="282.00"/>
  <line x1="150.00" y1="15.00" x2="150.00" y2="282.00"/>
  <line x1="165.00" y1="15.00" x2="165.00" y2="282.00"/>
  <line x1="180.00" y1="15.00" x2="180.00" y2="282.00"/>
  <line x1="195.00" y1="15.00" x2="195.00" y2="282.00"/>
  </g>
<g class="chars">
<g transform="translate(15.0,15.0) scale(0.00732421875,0.00732421875)"><g fill="#222"><path d="M 967.0 506.0 L 1076.0 530.0 Q 1161.0 549.0 1161.0 576.0 Q 1161.0 603.0 1112.0 617.0 L 1072.0 629.0 L 1072.0 880.0 L 1613.0 880.0 L 1674.0 808.0 L 1746.0 858.0 Q 1788.0 887.0 1788.0 907.0 Q 1788.0 923.0 1723.0 960.0 L 1723.0 1681.0 Q 1723.0 1760.0 1727.0 1810.0 Q 1731.0 1869.0 1731.0 1888.0 Q 1731.0 1944.0 1667.0 1944.0 Q 1624.0 1944.0 1624.0 1913.0 L 1624.0 1833.0 L 430.0 1833.0 L 430.0 1913.0 Q 430.0 1959.0 379.0 1959.0 Q 333.0 1959.0 324.0 1946.0 Q 317.0 1936.0 317.0 1913.0 Q 317.0 1904.0 321.0 1851.0 L 325.0 1764.0 L 330.0 1696.0 L 330.0 930.0 Q 330.0 852.0 314.0 792.0 L 436.0 880.0 L 974.0 880.0 L 974.0 666.0 Q 974.0 548.0 967.0 506.0 M 974.0 1777.0 L 974.0 1377.0 L 430.0 1377.0 L 430.0 1777.0 M 1072.0 1777.0 L 1624.0 1777.0 L 1624.0 1377.0 L 1072.0 1377.0 M 974.0 1319.0 L 974.0 938.0 L 430.0 938.0 L 430.0 1319.0 M 1072.0 1319.0 L 1624.0 1319.0 L 1624.0 938.0 L 1072.0 938.0 M 907.0 74.0 Q 1007.0 137.0 1048.0 174.0 Q 1119.0 238.0 1119.0 302.0 Q 1119.0 341.0 1094.0 367.0 L 1782.0 367.0 L 1842.0 298.0 L 1933.0 373.0 Q 1967.0 400.0 1967.0 416.0 Q 1967.0 438.0 1929.0 445.0 L 1879.0 454.0 Q 1820.0 536.0 1652.0 682.0 L 1629.0 661.0 Q 1726.0 540.0 1782.0 423.0 L 300.0 423.0 Q 288.0 529.0 257.0 589.0 Q 208.0 686.0 138.0 686.0 Q 84.0 686.0 84.0 636.0 Q 84.0 600.0 136.0 562.0 Q 196.0 519.0 227.0 452.0 Q 255.0 393.0 259.0 277.0 L 294.0 277.0 Q 298.0 323.0 300.0 367.0 L 1034.0 367.0 Q 1021.0 346.0 1008.0 295.0 Q 987.0 213.0 883.0 100.0 Z"/></g></g>
</g>

<g class="page-number"><text x="105.0" y="292.0" font-size="3" fill="#999" font-family="sans-serif" text-anchor="middle">- 1 -</text></g>
</svg>