<svg xmlns="http://www.w3.org/2000/svg" viewBox="0 0 210.0 297.0" width="210.0mm" height="297.0mm">
<rect x="0" y="0" width="210.0" height="297.0" fill="white"/>
<rect x="0.5" y="0.5" width="209.0" height="296.0" fill="none" stroke="#aaa" stroke-width="0.4"/>
<g class="grid" fill="none" stroke="#c8c8c8" stroke-width="0.2">
  <line x1="15.00" y1="15.00" x2="195.00" y2="15.00"/>
  <line x1="15.00" y1="30.00" x2="195.00" y2="30.00"/>
  <line x1="15.00" y1="45.00" x2="195.00" y2="45.00"/>
  <line x1="15.00" y1="60.00" x2="195.00" y2="60.00"/>
  <line x1="15.00" y1="75.00" x2="195.00" y2="75.00"/>
  <line x1="15.00" y1="90.00" x2="195.00" y2="90.00"/>
  <line x1="15.00" y1="105.00" x2="195.00" y2="105.00"/>
  <line x1="15.00" y1="120.00" x2="195.00" y2="120.00"/>
  <line x1="15.00" y1="135.00" x2="195.00" y2="135.00"/>
  <line x1="15.00" y1="150.00" x2="195.00" y2="150.00"/>
  <line x1="15.00" y1="165.00" x2="195.00" y2="165.00"/>
  <line x1="15.00" y1="180.00" x2="195.00" y2="180.00"/>
  <line x1="15.00" y1="195.00" x2="195.00" y2="195.00"/>
  <line x1="15.00" y1="210.00" x2="195.00" y2="210.00"/>
  <line x1="15.00" y1="225.00" x2="195.00" y2="225.00"/>
  <line x1="15.00" y1="240.00" x2="195.00" y2="240.00"/>
  <line x1="15.00" y1="255.00" x2="195.00" y2="255.00"/>
  <line x1="15.00" y1="270.00" x2="195.00" y2="270.00"/>
  <line x1="15.00" y1="282.00" x2="195.00" y2="282.00"/>
  <line x1="15.00" y1="15.00" x2="15.00" y2="282.00"/>
  <line x1="30.00" y1="15.00" x2="30.00" y2="282.00"/>
  <line x1="45.00" y1="15.00" x2="45.00" y2="282.00"/>
  <line x1="60.00" y1="15.00" x2="60.00" y2="282.00"/>
  <line x1="75.00" y1="15.00" x2="75.00" y2="282.00"/>
  <line x1="90.00" y1="15.00" x2="90.00" y2="282.00"/>
  <line x1="105.00" y1="15.00" x2="105.00" y2="282.00"/>
  <line x1="120.00" y1="15.00" x2="120.00" y2="282.00"/>
  <line x1="135.00" y1="15.00" x2="135.00" y2="282.00"/>
  <line x1="150.00" y1="15.00" x2="150.00" y2="282.00"/>
  <line x1="165.00" y1="15.00" x2="165.00" y2="282.00"/>
  <line x1="180.00" y1="15.00" x2="180.00" y2="282.00"/>
  <line x1="195.00" y1="15.00" x2="195.00" y2="282.00"/>
  </g>
<g class="chars">
<g transform="translate(15.0,15.0) scale(0.00732421875,0.00732421875)"><g fill="#222"><path d="M 961 1475 L 953 617 Q 952 580 945 523.5 Q 938 467 926 437 L 901 382 Q 892 355 899.5 345 Q 907 335 929 331 Q 949 329 976.5 334 Q 1004 339 1033 348.5 Q 1062 358 1090 371.5 Q 1118 385 1126 400.5 Q 1134 416 1134 426 Q 1133 431 1122.5 455 Q 1112 479 1108 511 L 1099 585 Q 1091 645 1091 672 L 1074 1467 Q 1014.5 1563 961 1475 Z"/><path d="M 1074 1467 L 1545 1442 Q 1609.5 1483 1534 1522 L 1043 1574 Q 950 1584 884.5 1593 Q 819 1602 746.5 1615 Q 674 1628 618 1643 Q 562 1658 532 1670.5 Q 502 1683 473.5 1699.5 Q 445 1716 427 1717 Q 409 1718 391 1702 Q 377 1692 356.5 1649.5 Q 336 1607 335.5 1595.5 Q 335 1584 339 1569 L 354 1524 Q 364 1491 367.5 1438.5 Q 371 1386 369 1328 Q 368 1313 362.5 1237.5 Q 357 1162 350.5 1134.5 Q 344 1107 332 1079 L 310 1034 Q 301 1013 304 1003 Q 307 993 343 993 Q 371 994 413 1010 Q 455 1026 475 1038.5 Q 495 1051 497.5 1064 Q 500 1077 495 1097 Q 490 1117 487.5 1135 Q 485 1153 486 1178 L 488 1470 Q 488 1501 497.5 1508.5 Q 507 1516 532 1513 L 572 1509 L 961 1475 L 1074 1467 Z"/><path d="M 1545 1442 L 1569 1070 Q 1572 1023 1566.5 1002.5 Q 1561 982 1549 949.5 Q 1537 917 1537.5 905 Q 1538 893 1546 885 Q 1554 877 1590 886 Q 1619 895 1660 907 Q 1701 919 1721.5 934 Q 1742 949 1744 960 Q 1746 971 1737 993 Q 1725 1020 1716.5 1053.5 Q 1708 1087 1705 1114 L 1660 1495 Q 1652 1561 1639.5 1606 Q 1627 1651 1614.5 1675.5 Q 1602 1700 1586.5 1711 Q 1571 1722 1558 1718 Q 1543 1715 1533 1693.5 Q 1523 1672 1523 1643 Q 1522 1622 1527 1584 L 1534 1522 L 1545 1442 Z"/></g></g>
</g>

<g class="page-number"><text x="105.0" y="292.0" font-size="3" fill="#999" font-family="sans-serif" text-anchor="middle">- 1 -</text></g>
</svg>