<svg xmlns="http://www.w3.org/2000/svg" viewBox="0 0 210.0 297.0" width="210.0mm" height="297.0mm">
<rect x="0" y="0" width="210.0" height="297.0" fill="white"/>
<rect x="0.5" y="0.5" width="209.0" height="296.0" fill="none" stroke="#aaa" stroke-width="0.4"/>
<g class="grid" fill="none" stroke="#c8c8c8" stroke-width="0.2">
  <line x1="15.00" y1="15.00" x2="195.00" y2="15.00"/>
  <line x1="15.00" y1="30.00" x2="195.00" y2="30.00"/>
  <line x1="15.00" y1="45.00" x2="195.00" y2="45.00"/>
  <line x1="15.00" y1="60.00" x2="195.00" y2="60.00"/>
  <line x1="15.00" y1="75.00" x2="195.00" y2="75.00"/>
  <line x1="15.00" y1="90.00" x2="195.00" y2="90.00"/>
  <line x1="15.00" y1="105.00" x2="195.00" y2="105.00"/>
  <line x1="15.00" y1="120.00" x2="195.00" y2="120.00"/>
  <line x1="15.00" y1="135.00" x2="195.00" y2="135.00"/>
  <line x1="15.00" y1="150.00" x2="195.00" y2="150.00"/>
  <line x1="15.00" y1="165.00" x2="195.00" y2="165.00"/>
  <line x1="15.00" y1="180.00" x2="195.00" y2="180.00"/>
  <line x1="15.00" y1="195.00" x2="195.00" y2="195.00"/>
  <line x1="15.00" y1="210.00" x2="195.00" y2="210.00"/>
  <line x1="15.00" y1="225.00" x2="195.00" y2="225.00"/>
  <line x1="15.00" y1="240.00" x2="195.00" y2="240.00"/>
  <line x1="15.00" y1="255.00" x2="195.00" y2="255.00"/>
  <line x1="15.00" y1="270.00" x2="195.00" y2="270.00"/>
  <line x1="15.00" y1="282.00" x2="195.00" y2="282.00"/>
  <line x1="15.00" y1="15.00" x2="15.00" y2="282.00"/>
  <line x1="30.00" y1="15.00" x2="30.00" y2="282.00"/>
  <line x1="45.00" y1="15.00" x2="45.00" y2="282.00"/>
  <line x1="60.00" y1="15.00" x2="60.00" y2="282.00"/>
  <line x1="75.00" y1="15.00" x2="75.00" y2="282.00"/>
  <line x1="90.00" y1="15.00" x2="90.00" y2="282.00"/>
  <line x1="105.00" y1="15.00" x2="105.00" y2="282.00"/>
  <line x1="120.00" y1="15.00" x2="120.00" y2="282.00"/>
  <line x1="135.00" y1="15.00" x2="135.00" y2="282.00"/>
  <line x1="150.00" y1="15.00" x2="150.00" y2="282.00"/>
  <line x1="165.00" y1="15.00" x2="165.00" y2="282.00"/>
  <line x1="180.00" y1="15.00" x2="180.00" y2="282.00"/>
  <line x1="195.00" y1="15.00" x2="195.00" y2="282.00"/>
  </g>
<g class="chars">
<g transform="translate(15.0,15.0) scale(0.00732421875,0.00732421875)"><g fill="#222"><path d="M 159.0 180.0 L 276.0 268.0 L 691.0 268.0 L 759.0 192.0 L 843.0 246.0 Q 883.0 272.0 883.0 294.0 Q 883.0 322.0 805.0 356.0 L 805.0 1183.0 Q 805.0 1308.0 807.0 1347.0 Q 812.0 1452.0 812.0 1464.0 Q 812.0 1525.0 748.0 1525.0 Q 709.0 1525.0 709.0 1498.0 L 709.0 1422.0 L 270.0 1422.0 L 270.0 1502.0 Q 270.0 1527.0 227.0 1527.0 Q 184.0 1527.0 174.0 1504.0 Q 167.0 1490.0 167.0 1458.0 L 175.0 1183.0 L 175.0 314.0 Q 174.0 241.0 159.0 180.0 M 270.0 1364.0 L 709.0 1364.0 L 709.0 858.0 L 270.0 858.0 M 270.0 800.0 L 709.0 800.0 L 709.0 322.0 L 270.0 322.0 M 1034.0 124.0 L 1168.0 204.0 L 1729.0 204.0 L 1797.0 128.0 L 1881.0 182.0 Q 1921.0 208.0 1921.0 230.0 Q 1921.0 258.0 1843.0 292.0 L 1843.0 1785.0 Q 1843.0 1941.0 1657.0 1961.0 Q 1651.0 1886.0 1578.0 1863.0 Q 1487.0 1834.0 1371.0 1825.0 L 1371.0 1777.0 Q 1418.0 1786.0 1530.5 1798.0 Q 1643.0 1810.0 1682.0 1810.0 Q 1751.0 1810.0 1751.0 1745.0 L 1751.0 1255.0 L 1128.0 1255.0 Q 1090.0 1520.0 989.0 1693.0 Q 902.0 1843.0 769.0 1958.0 L 743.0 1927.0 Q 904.0 1735.0 974.0 1538.0 Q 1056.0 1307.0 1056.0 913.0 L 1056.0 397.0 Q 1056.0 265.0 1034.0 124.0 M 1131.0 1198.0 L 1751.0 1198.0 L 1751.0 749.0 L 1150.0 749.0 Q 1151.0 801.0 1151.0 831.0 Q 1151.0 1033.0 1131.0 1198.0 M 1150.0 693.0 L 1751.0 693.0 L 1751.0 260.0 L 1150.0 260.0 Z"/></g></g>
</g>

<g class="page-number"><text x="105.0" y="292.0" font-size="3" fill="#999" font-family="sans-serif" text-anchor="middle">- 1 -</text></g>
</svg>