<svg xmlns="http://www.w3.org/2000/svg" viewBox="0 0 210.0 297.0" width="210.0mm" height="297.0mm">
<rect x="0" y="0" width="210.0" height="297.0" fill="white"/>
<rect x="0.5" y="0.5" width="209.0" height="296.0" fill="none" stroke="#aaa" stroke-width="0.4"/>
<g class="grid" fill="none" stroke="#c8c8c8" stroke-width="0.2">
  <line x1="15.00" y1="15.00" x2="195.00" y2="15.00"/>
  <line x1="15.00" y1="30.00" x2="195.00" y2="30.00"/>
  <line x1="15.00" y1="45.00" x2="195.00" y2="45.00"/>
  <line x1="15.00" y1="60.00" x2="195.00" y2="60.00"/>
  <line x1="15.00" y1="75.00" x2="195.00" y2="75.00"/>
  <line x1="15.00" y1="90.00" x2="195.00" y2="90.00"/>
  <line x1="15.00" y1="105.00" x2="195.00" y2="105.00"/>
  <line x1="15.00" y1="120.00" x2="195.00" y2="120.00"/>
  <line x1="15.00" y1="135.00" x2="195.00" y2="135.00"/>
  <line x1="15.00" y1="150.00" x2="195.00" y2="150.00"/>
  <line x1="15.00" y1="165.00" x2="195.00" y2="165.00"/>
  <line x1="15.00" y1="180.00" x2="195.00" y2="180.00"/>
  <line x1="15.00" y1="195.00" x2="195.00" y2="195.00"/>
  <line x1="15.00" y1="210.00" x2="195.00" y2="210.00"/>
  <line x1="15.00" y1="225.00" x2="195.00" y2="225.00"/>
  <line x1="15.00" y1="240.00" x2="195.00" y2="240.00"/>
  <line x1="15.00" y1="255.00" x2="195.00" y2="255.00"/>
  <line x1="15.00" y1="270.00" x2="195.00" y2="270.00"/>
  <line x1="15.00" y1="282.00" x2="195.00" y2="282.00"/>
  <line x1="15.00" y1="15.00" x2="15.00" y2="282.00"/>
  <line x1="30.00" y1="15.00" x2="30.00" y2="282.00"/>
  <line x1="45.00" y1="15.00" x2="45.00" y2="282.00"/>
  <line x1="60.00" y1="15.00" x2="60.00" y2="282.00"/>
  <line x1="75.00" y1="15.00" x2="75.00" y2="282.00"/>
  <line x1="90.00" y1="15.00" x2="90.00" y2="282.00"/>
  <line x1="105.00" y1="15.00" x2="105.00" y2="282.00"/>
  <line x1="120.00" y1="15.00" x2="120.00" y2="282.00"/>
  <line x1="135.00" y1="15.00" x2="135.00" y2="282.00"/>
  <line x1="150.00" y1="15.00" x2="150.00" y2="282.00"/>
  <line x1="165.00" y1="15.00" x2="165.00" y2="282.00"/>
  <line x1="180.00" y1="15.00" x2="180.00" y2="282.00"/>
  <line x1="195.00" y1="15.00" x2="195.00" y2="282.00"/>
  </g>
<g class="chars">
<g transform="translate(15.0,15.0) scale(0.00732421875,0.00732421875)"><g fill="#222"><path d="M 753.0 879.0 L 1711.0 879.0 L 1809.0 778.0 L 1930.0 885.0 Q 1947.0 900.0 1947.0 911.0 Q 1947.0 937.0 1920.0 937.0 L 1458.0 937.0 Q 1679.0 1200.0 1990.0 1289.0 L 1990.0 1324.0 Q 1927.0 1327.0 1902.0 1339.0 Q 1879.0 1351.0 1860.0 1392.0 Q 1699.0 1294.0 1581.0 1172.0 Q 1493.0 1080.0 1398.0 937.0 L 713.0 937.0 Q 653.0 1031.0 579.0 1110.0 L 667.0 1171.0 L 1387.0 1171.0 L 1448.0 1099.0 L 1520.0 1149.0 Q 1562.0 1178.0 1562.0 1199.0 Q 1562.0 1210.0 1553.0 1217.0 Q 1546.0 1223.0 1523.0 1237.0 Q 1515.0 1241.0 1501.0 1252.0 L 1501.0 1635.0 Q 1501.0 1768.0 1502.0 1800.0 Q 1507.0 1909.0 1507.0 1918.0 Q 1507.0 1979.0 1442.0 1979.0 Q 1403.0 1979.0 1403.0 1953.0 L 1403.0 1890.0 L 655.0 1890.0 L 655.0 1953.0 Q 655.0 1979.0 615.0 1979.0 Q 560.0 1979.0 560.0 1910.0 L 568.0 1635.0 L 568.0 1209.0 Q 568.0 1175.0 566.0 1157.0 Q 563.0 1136.0 563.0 1130.0 Q 563.0 1128.0 564.0 1122.0 Q 359.0 1330.0 83.0 1454.0 L 60.0 1416.0 Q 439.0 1191.0 613.0 937.0 L 336.0 937.0 Q 217.0 937.0 143.0 945.0 L 105.0 857.0 Q 199.0 879.0 336.0 879.0 L 655.0 879.0 Q 722.0 764.0 771.0 657.0 L 534.0 657.0 Q 419.0 657.0 341.0 666.0 L 303.0 577.0 Q 399.0 599.0 534.0 599.0 L 797.0 599.0 Q 842.0 483.0 863.0 395.0 L 430.0 395.0 Q 308.0 395.0 237.0 404.0 L 198.0 316.0 Q 293.0 338.0 430.0 338.0 L 878.0 338.0 Q 914.0 155.0 926.0 71.0 L 1066.0 120.0 Q 1105.0 133.0 1105.0 151.0 Q 1105.0 170.0 1081.0 177.0 L 1019.0 196.0 L 1002.0 257.0 L 978.0 338.0 L 1583.0 338.0 L 1681.0 236.0 L 1802.0 343.0 Q 1819.0 358.0 1819.0 369.0 Q 1819.0 395.0 1792.0 395.0 L 962.0 395.0 Q 951.0 424.0 926.0 506.0 Q 924.0 511.0 903.0 569.0 Q 899.0 579.0 892.0 599.0 L 1485.0 599.0 L 1583.0 496.0 L 1704.0 603.0 Q 1721.0 619.0 1721.0 630.0 Q 1721.0 657.0 1693.0 657.0 L 869.0 657.0 Q 808.0 791.0 753.0 879.0 M 655.0 1832.0 L 1403.0 1832.0 L 1403.0 1553.0 L 655.0 1553.0 M 655.0 1495.0 L 1403.0 1495.0 L 1403.0 1229.0 L 655.0 1229.0 Z"/></g></g>
</g>

<g class="page-number"><text x="105.0" y="292.0" font-size="3" fill="#999" font-family="sans-serif" text-anchor="middle">- 1 -</text></g>
</svg>