<svg xmlns="http://www.w3.org/2000/svg" viewBox="0 0 210.0 297.0" width="210.0mm" height="297.0mm">
<rect x="0" y="0" width="210.0" height="297.0" fill="white"/>
<rect x="0.5" y="0.5" width="209.0" height="296.0" fill="none" stroke="#aaa" stroke-width="0.4"/>
<g class="grid" fill="none" stroke="#c8c8c8" stroke-width="0.2">
  <line x1="15.00" y1="15.00" x2="195.00" y2="15.00"/>
  <line x1="15.00" y1="30.00" x2="195.00" y2="30.00"/>
  <line x1="15.00" y1="45.00" x2="195.00" y2="45.00"/>
  <line x1="15.00" y1="60.00" x2="195.00" y2="60.00"/>
  <line x1="15.00" y1="75.00" x2="195.00" y2="75.00"/>
  <line x1="15.00" y1="90.00" x2="195.00" y2="90.00"/>
  <line x1="15.00" y1="105.00" x2="195.00" y2="105.00"/>
  <line x1="15.00" y1="120.00" x2="195.00" y2="120.00"/>
  <line x1="15.00" y1="135.00" x2="195.00" y2="135.00"/>
  <line x1="15.00" y1="150.00" x2="195.00" y2="150.00"/>
  <line x1="15.00" y1="165.00" x2="195.00" y2="165.00"/>
  <line x1="15.00" y1="180.00" x2="195.00" y2="180.00"/>
  <line x1="15.00" y1="195.00" x2="195.00" y2="195.00"/>
  <line x1="15.00" y1="210.00" x2="195.00" y2="210.00"/>
  <line x1="15.00" y1="225.00" x2="195.00" y2="225.00"/>
  <line x1="15.00" y1="240.00" x2="195.00" y2="240.00"/>
  <line x1="15.00" y1="255.00" x2="195.00" y2="255.00"/>
  <line x1="15.00" y1="270.00" x2="195.00" y2="270.00"/>
  <line x1="15.00" y1="282.00" x2="195.00" y2="282.00"/>
  <line x1="15.00" y1="15.00" x2="15.00" y2="282.00"/>
  <line x1="30.00" y1="15.00" x2="30.00" y2="282.00"/>
  <line x1="45.00" y1="15.00" x2="45.00" y2="282.00"/>
  <line x1="60.00" y1="15.00" x2="60.00" y2="282.00"/>
  <line x1="75.00" y1="15.00" x2="75.00" y2="282.00"/>
  <line x1="90.00" y1="15.00" x2="90.00" y2="282.00"/>
  <line x1="105.00" y1="15.00" x2="105.00" y2="282.00"/>
  <line x1="120.00" y1="15.00" x2="120.00" y2="282.00"/>
  <line x1="135.00" y1="15.00" x2="135.00" y2="282.00"/>
  <line x1="150.00" y1="15.00" x2="150.00" y2="282.00"/>
  <line x1="165.00" y1="15.00" x2="165.00" y2="282.00"/>
  <line x1="180.00" y1="15.00" x2="180.00" y2="282.00"/>
  <line x1="195.00" y1="15.00" x2="195.00" y2="282.00"/>
  </g>
<g class="chars">
<g transform="translate(15.0,15.0) scale(0.00732421875,0.00732421875)"><g fill="#222"><path d="M 900 1120 Q 888 1170 877.5 1213.5 Q 867 1257 849.5 1307 Q 832 1357 797 1424 Q 762 1491 718.5 1545.5 Q 675 1600 632 1635.5 Q 589 1671 546.5 1700.5 Q 504 1730 482 1742 L 443 1764 Q 427 1773 417.5 1773.5 Q 408 1774 404 1766.5 Q 400 1759 418 1742 L 449 1714 Q 482 1685 522.5 1640.5 Q 563 1596 603 1541.5 Q 643 1487 682 1414.5 Q 721 1342 744 1273 Q 767 1204 782.5 1115 Q 798 1026 804 961 Q 810 896 813 808 L 819 561 Q 820 491 814 433.5 Q 808 376 800 352 L 777 290 Q 773 270 780.5 259.5 Q 788 249 827 252 Q 860 256 888.5 265 Q 917 274 933 283 L 972 307 Q 1003 322 980 371 Q 966 403 957 427 Q 948 451 943.5 477 Q 939 503 938 544 L 933 698 L 933 755 Q 929 834 926 884.5 Q 923 935 919 975 L 911 1058 L 900 1120 Z"/><path d="M 972 307 L 1224 263 Q 1247 259 1305 244.5 Q 1363 230 1405.5 213.5 Q 1448 197 1464 196 Q 1485 196 1513 207.5 Q 1541 219 1574.5 240 Q 1608 261 1623.5 276.5 Q 1639 292 1641.5 302.5 Q 1644 313 1629 341 Q 1605 386 1598 425 Q 1591 464 1590 573 L 1578 1345 L 1581 1556 Q 1579 1625 1569.5 1675 Q 1560 1725 1543 1759 Q 1526 1793 1500.5 1822.5 Q 1475 1852 1454.5 1853.5 Q 1434 1855 1413 1838 Q 1406 1834 1383 1809 Q 1360 1784 1294 1731.5 Q 1228 1679 1220 1673 L 1175 1642 Q 1159 1632 1161 1619.5 Q 1163 1607 1186 1611 L 1224 1619 L 1264 1628 L 1325 1639 Q 1378 1650 1397 1642 Q 1416 1635 1429.5 1613.5 Q 1443 1592 1446.5 1556 Q 1450 1520 1453 1439 L 1464 1053 L 1464 1023 L 1468 705 L 1465 654 L 1467 441 Q 1467 428 1464 383 Q 1461 338 1449.5 326.5 Q 1438 315 1407 311.5 Q 1376 308 1336 313 L 1194 332 Q 1106 344 1055 355 L 980 371 L 972 307 Z"/><path d="M 1468 705 L 1183 750 Q 1045 772 1021 772.5 Q 997 773 985 769 L 933 755 L 933 698 L 1136 661 Q 1147 659 1228.5 641 Q 1310 623 1337 622 Q 1369 622 1393 628.5 Q 1417 635 1433 641 L 1465 654 L 1468 705 Z"/><path d="M 1464 1053 Q 1449 1061 1432 1068.5 Q 1415 1076 1375 1081 L 1275 1092 L 1122 1117 L 1044 1131 Q 1019 1136 1005 1136 Q 972 1138 947 1131 L 900 1120 L 911 1058 Q 964 1051 996 1046.5 Q 1028 1042 1072 1034 L 1136 1023 Q 1160 1019 1206.5 1008 Q 1253 997 1279 991.5 Q 1305 986 1325 986 Q 1362 987 1417 1006 L 1464 1023 L 1464 1053 Z"/></g></g>
</g>

<g class="page-number"><text x="105.0" y="292.0" font-size="3" fill="#999" font-family="sans-serif" text-anchor="middle">- 1 -</text></g>
</svg>