<svg xmlns="http://www.w3.org/2000/svg" viewBox="0 0 210.0 297.0" width="210.0mm" height="297.0mm">
<rect x="0" y="0" width="210.0" height="297.0" fill="white"/>
<rect x="0.5" y="0.5" width="209.0" height="296.0" fill="none" stroke="#aaa" stroke-width="0.4"/>
<g class="grid" fill="none" stroke="#c8c8c8" stroke-width="0.2">
  <line x1="15.00" y1="15.00" x2="195.00" y2="15.00"/>
  <line x1="15.00" y1="30.00" x2="195.00" y2="30.00"/>
  <line x1="15.00" y1="45.00" x2="195.00" y2="45.00"/>
  <line x1="15.00" y1="60.00" x2="195.00" y2="60.00"/>
  <line x1="15.00" y1="75.00" x2="195.00" y2="75.00"/>
  <line x1="15.00" y1="90.00" x2="195.00" y2="90.00"/>
  <line x1="15.00" y1="105.00" x2="195.00" y2="105.00"/>
  <line x1="15.00" y1="120.00" x2="195.00" y2="120.00"/>
  <line x1="15.00" y1="135.00" x2="195.00" y2="135.00"/>
  <line x1="15.00" y1="150.00" x2="195.00" y2="150.00"/>
  <line x1="15.00" y1="165.00" x2="195.00" y2="165.00"/>
  <line x1="15.00" y1="180.00" x2="195.00" y2="180.00"/>
  <line x1="15.00" y1="195.00" x2="195.00" y2="195.00"/>
  <line x1="15.00" y1="210.00" x2="195.00" y2="210.00"/>
  <line x1="15.00" y1="225.00" x2="195.00" y2="225.00"/>
  <line x1="15.00" y1="240.00" x2="195.00" y2="240.00"/>
  <line x1="15.00" y1="255.00" x2="195.00" y2="255.00"/>
  <line x1="15.00" y1="270.00" x2="195.00" y2="270.00"/>
  <line x1="15.00" y1="282.00" x2="195.00" y2="282.00"/>
  <line x1="15.00" y1="15.00" x2="15.00" y2="282.00"/>
  <line x1="30.00" y1="15.00" x2="30.00" y2="282.00"/>
  <line x1="45.00" y1="15.00" x2="45.00" y2="282.00"/>
  <line x1="60.00" y1="15.00" x2="60.00" y2="282.00"/>
  <line x1="75.00" y1="15.00" x2="75.00" y2="282.00"/>
  <line x1="90.00" y1="15.00" x2="90.00" y2="282.00"/>
  <line x1="105.00" y1="15.00" x2="105.00" y2="282.00"/>
  <line x1="120.00" y1="15.00" x2="120.00" y2="282.00"/>
  <line x1="135.00" y1="15.00" x2="135.00" y2="282.00"/>
  <line x1="150.00" y1="15.00" x2="150.00" y2="282.00"/>
  <line x1="165.00" y1="15.00" x2="165.00" y2="282.00"/>
  <line x1="180.00" y1="15.00" x2="180.00" y2="282.00"/>
  <line x1="195.00" y1="15.00" x2="195.00" y2="282.00"/>
  </g>
<g class="chars">
<g transform="translate(15.0,15.0) scale(0.00732421875,0.00732421875)"><g fill="#222"><path d="M 992.0 82.0 L 1102.0 106.0 Q 1187.0 124.0 1187.0 151.0 Q 1187.0 180.0 1138.0 193.0 L 1096.0 204.0 L 1096.0 625.0 Q 1125.0 697.0 1166.0 762.0 Q 1363.0 646.0 1474.0 553.0 Q 1595.0 452.0 1705.0 306.0 L 1793.0 363.0 Q 1856.0 404.0 1856.0 424.0 Q 1856.0 448.0 1806.0 448.0 Q 1789.0 448.0 1743.0 439.0 Q 1627.0 542.0 1519.0 614.0 Q 1402.0 691.0 1185.0 804.0 Q 1356.0 1095.0 1550.0 1305.0 Q 1719.0 1488.0 1994.0 1632.0 L 1986.0 1662.0 Q 1975.0 1662.0 1963.0 1662.0 Q 1894.0 1662.0 1856.0 1721.0 Q 1668.0 1580.0 1563.0 1464.0 Q 1379.0 1262.0 1240.0 1025.0 Q 1208.0 972.0 1137.0 830.0 Q 1118.0 792.0 1096.0 750.0 L 1096.0 1791.0 Q 1096.0 1933.0 937.0 1963.0 Q 935.0 1896.0 893.0 1869.0 Q 861.0 1848.0 734.0 1826.0 L 738.0 1784.0 Q 912.0 1807.0 943.0 1807.0 Q 1000.0 1807.0 1000.0 1749.0 L 1000.0 242.0 Q 1000.0 124.0 992.0 82.0 M 175.0 680.0 L 136.0 592.0 Q 163.0 596.0 177.0 598.0 Q 262.0 611.0 324.0 611.0 L 699.0 611.0 L 759.0 537.0 L 843.0 592.0 Q 883.0 619.0 883.0 640.0 Q 883.0 667.0 805.0 701.0 Q 707.0 968.0 655.0 1074.0 Q 603.0 1180.0 501.0 1320.0 Q 378.0 1492.0 282.0 1586.0 Q 239.0 1628.0 106.0 1735.0 L 83.0 1704.0 Q 320.0 1474.0 465.0 1237.0 Q 567.0 1071.0 630.0 912.0 Q 663.0 827.0 714.0 669.0 L 324.0 669.0 Q 255.0 669.0 175.0 680.0 Z"/></g></g>
</g>

<g class="page-number"><text x="105.0" y="292.0" font-size="3" fill="#999" font-family="sans-serif" text-anchor="middle">- 1 -</text></g>
</svg>