<svg xmlns="http://www.w3.org/2000/svg" viewBox="0 0 210.0 297.0" width="210.0mm" height="297.0mm">
<rect x="0" y="0" width="210.0" height="297.0" fill="white"/>
<rect x="0.5" y="0.5" width="209.0" height="296.0" fill="none" stroke="#aaa" stroke-width="0.4"/>
<g class="grid" fill="none" stroke="#c8c8c8" stroke-width="0.2">
  <line x1="15.00" y1="15.00" x2="195.00" y2="15.00"/>
  <line x1="15.00" y1="30.00" x2="195.00" y2="30.00"/>
  <line x1="15.00" y1="45.00" x2="195.00" y2="45.00"/>
  <line x1="15.00" y1="60.00" x2="195.00" y2="60.00"/>
  <line x1="15.00" y1="75.00" x2="195.00" y2="75.00"/>
  <line x1="15.00" y1="90.00" x2="195.00" y2="90.00"/>
  <line x1="15.00" y1="105.00" x2="195.00" y2="105.00"/>
  <line x1="15.00" y1="120.00" x2="195.00" y2="120.00"/>
  <line x1="15.00" y1="135.00" x2="195.00" y2="135.00"/>
  <line x1="15.00" y1="150.00" x2="195.00" y2="150.00"/>
  <line x1="15.00" y1="165.00" x2="195.00" y2="165.00"/>
  <line x1="15.00" y1="180.00" x2="195.00" y2="180.00"/>
  <line x1="15.00" y1="195.00" x2="195.00" y2="195.00"/>
  <line x1="15.00" y1="210.00" x2="195.00" y2="210.00"/>
  <line x1="15.00" y1="225.00" x2="195.00" y2="225.00"/>
  <line x1="15.00" y1="240.00" x2="195.00" y2="240.00"/>
  <line x1="15.00" y1="255.00" x2="195.00" y2="255.00"/>
  <line x1="15.00" y1="270.00" x2="195.00" y2="270.00"/>
  <line x1="15.00" y1="282.00" x2="195.00" y2="282.00"/>
  <line x1="15.00" y1="15.00" x2="15.00" y2="282.00"/>
  <line x1="30.00" y1="15.00" x2="30.00" y2="282.00"/>
  <line x1="45.00" y1="15.00" x2="45.00" y2="282.00"/>
  <line x1="60.00" y1="15.00" x2="60.00" y2="282.00"/>
  <line x1="75.00" y1="15.00" x2="75.00" y2="282.00"/>
  <line x1="90.00" y1="15.00" x2="90.00" y2="282.00"/>
  <line x1="105.00" y1="15.00" x2="105.00" y2="282.00"/>
  <line x1="120.00" y1="15.00" x2="120.00" y2="282.00"/>
  <line x1="135.00" y1="15.00" x2="135.00" y2="282.00"/>
  <line x1="150.00" y1="15.00" x2="150.00" y2="282.00"/>
  <line x1="165.00" y1="15.00" x2="165.00" y2="282.00"/>
  <line x1="180.00" y1="15.00" x2="180.00" y2="282.00"/>
  <line x1="195.00" y1="15.00" x2="195.00" y2="282.00"/>
  </g>
<g class="chars">
<g transform="translate(15.0,15.0) scale(0.00732421875,0.00732421875)"><g fill="#222"><path d="M 1027 992 L 1031 1416 L 1039 1622 Q 1037 1662 1029.5 1698 Q 1022 1734 1010 1758.5 Q 998 1783 976.5 1817 Q 955 1851 943.5 1858 Q 932 1865 923 1863 Q 915 1862 896.5 1845.5 Q 878 1829 837 1781 Q 796 1733 774 1711 Q 752 1689 714 1658 L 654 1610 Q 636 1597 640 1588 Q 644 1579 667 1584 L 725 1596 Q 792 1612 810.5 1614 Q 829 1616 844 1613 Q 868 1610 881 1597.5 Q 894 1585 895 1555.5 Q 896 1526 900 1468 Q 904 1410 906 1329 L 916 674 Q 916 626 914.5 555.5 Q 913 485 911 460 Q 909 435 904 366 Q 899 297 890 270 L 876 231 Q 871 214 875.5 203 Q 880 192 891.5 187.5 Q 903 183 923 187 Q 938 191 973.5 205 Q 1009 219 1041.5 235 Q 1074 251 1089 268.5 Q 1104 286 1106.5 298.5 Q 1109 311 1090 353 Q 1083 368 1071.5 405 Q 1060 442 1056.5 460.5 Q 1053 479 1047 579 L 1028 897 L 1027 992 Z"/><path d="M 166 1531 L 121 1544 Q 95 1552 90.5 1544 Q 86 1536 110 1517 L 143 1492 Q 158 1481 204 1439 L 291 1361 Q 345 1310 390.5 1255.5 Q 436 1201 487.5 1126 Q 539 1051 574.5 989 Q 610 927 621 896 Q 632 865 634.5 851.5 Q 637 838 633 833 Q 629 828 609 829.5 Q 589 831 563 838 L 435 872 L 378 886 Q 332 898 313 897 Q 279 897 259 886.5 Q 239 876 218.5 862 Q 198 848 193 838.5 Q 188 829 190.5 821.5 Q 193 814 230 811 L 283 807 Q 291 807 314.5 803 Q 338 799 376 794 Q 414 789 445 783.5 Q 476 778 525.5 767 Q 575 756 605 747 Q 635 738 663 726 Q 691 714 704 715 Q 713 717 735.5 731 Q 758 745 782.5 768 Q 807 791 820 809 Q 833 827 832 836 Q 830 846 808.5 864.5 Q 787 883 772 900 Q 757 917 742 939.5 Q 727 962 680.5 1042 Q 634 1122 593.5 1179 Q 553 1236 497 1299 Q 441 1362 392 1403 Q 343 1444 271.5 1482.5 Q 200 1521 166 1531 Z"/><path d="M 1042 911 Q 1116 839 1157 798 Q 1198 757 1237.5 713.5 Q 1277 670 1319 614.5 Q 1361 559 1367 534 L 1378 482 Q 1381 475 1386 471.5 Q 1391 468 1398 467 Q 1402 467 1432 472 Q 1462 477 1482.5 487.5 Q 1503 498 1544 522 Q 1585 546 1593.5 561.5 Q 1602 577 1602 582 Q 1601 586 1597 595.5 Q 1593 605 1553 620.5 Q 1513 636 1473 665 L 1367 746 Q 1299 796 1275 808 L 1058 925 Q 1025 933 1042 911 Z"/><path d="M 1028 897 L 1042 911 L 1058 925 Q 1202 1070 1277 1129.5 Q 1352 1189 1426 1234 Q 1500 1279 1531 1294 Q 1562 1309 1652.5 1349.5 Q 1743 1390 1762 1397 L 1879 1439 L 1935 1460 Q 1958 1469 1957 1478.5 Q 1956 1488 1932.5 1495.5 Q 1909 1503 1868.5 1511.5 Q 1828 1520 1800 1523.5 Q 1772 1527 1688.5 1533 Q 1605 1539 1578 1537 Q 1519 1535 1486.5 1516.5 Q 1454 1498 1394 1430 L 1300 1330 Q 1274 1303 1209 1220 L 1027 992 L 1028 897 Z"/></g></g>
</g>

<g class="page-number"><text x="105.0" y="292.0" font-size="3" fill="#999" font-family="sans-serif" text-anchor="middle">- 1 -</text></g>
</svg>