<svg xmlns="http://www.w3.org/2000/svg" viewBox="0 0 210.0 297.0" width="210.0mm" height="297.0mm">
<rect x="0" y="0" width="210.0" height="297.0" fill="white"/>
<rect x="0.5" y="0.5" width="209.0" height="296.0" fill="none" stroke="#aaa" stroke-width="0.4"/>
<g class="grid" fill="none" stroke="#c8c8c8" stroke-width="0.2">
  <line x1="15.00" y1="15.00" x2="195.00" y2="15.00"/>
  <line x1="15.00" y1="30.00" x2="195.00" y2="30.00"/>
  <line x1="15.00" y1="45.00" x2="195.00" y2="45.00"/>
  <line x1="15.00" y1="60.00" x2="195.00" y2="60.00"/>
  <line x1="15.00" y1="75.00" x2="195.00" y2="75.00"/>
  <line x1="15.00" y1="90.00" x2="195.00" y2="90.00"/>
  <line x1="15.00" y1="105.00" x2="195.00" y2="105.00"/>
  <line x1="15.00" y1="120.00" x2="195.00" y2="120.00"/>
  <line x1="15.00" y1="135.00" x2="195.00" y2="135.00"/>
  <line x1="15.00" y1="150.00" x2="195.00" y2="150.00"/>
  <line x1="15.00" y1="165.00" x2="195.00" y2="165.00"/>
  <line x1="15.00" y1="180.00" x2="195.00" y2="180.00"/>
  <line x1="15.00" y1="195.00" x2="195.00" y2="195.00"/>
  <line x1="15.00" y1="210.00" x2="195.00" y2="210.00"/>
  <line x1="15.00" y1="225.00" x2="195.00" y2="225.00"/>
  <line x1="15.00" y1="240.00" x2="195.00" y2="240.00"/>
  <line x1="15.00" y1="255.00" x2="195.00" y2="255.00"/>
  <line x1="15.00" y1="270.00" x2="195.00" y2="270.00"/>
  <line x1="15.00" y1="282.00" x2="195.00" y2="282.00"/>
  <line x1="15.00" y1="15.00" x2="15.00" y2="282.00"/>
  <line x1="30.00" y1="15.00" x2="30.00" y2="282.00"/>
  <line x1="45.00" y1="15.00" x2="45.00" y2="282.00"/>
  <line x1="60.00" y1="15.00" x2="60.00" y2="282.00"/>
  <line x1="75.00" y1="15.00" x2="75.00" y2="282.00"/>
  <line x1="90.00" y1="15.00" x2="90.00" y2="282.00"/>
  <line x1="105.00" y1="15.00" x2="105.00" y2="282.00"/>
  <line x1="120.00" y1="15.00" x2="120.00" y2="282.00"/>
  <line x1="135.00" y1="15.00" x2="135.00" y2="282.00"/>
  <line x1="150.00" y1="15.00" x2="150.00" y2="282.00"/>
  <line x1="165.00" y1="15.00" x2="165.00" y2="282.00"/>
  <line x1="180.00" y1="15.00" x2="180.00" y2="282.00"/>
  <line x1="195.00" y1="15.00" x2="195.00" y2="282.00"/>
  </g>
<g class="chars">
<g transform="translate(15.0,15.0) scale(0.00732421875,0.00732421875)"><g fill="#222"><path d="M 663.0 78.0 Q 963.0 139.0 1068.0 185.0 Q 1172.0 231.0 1172.0 293.0 Q 1172.0 341.0 1127.0 341.0 Q 1101.0 341.0 1046.0 298.0 Q 921.0 201.0 651.0 116.0 M 469.0 615.0 L 430.0 527.0 Q 550.0 546.0 618.0 546.0 L 974.0 546.0 L 1034.0 472.0 L 1117.0 527.0 Q 1157.0 554.0 1157.0 576.0 Q 1157.0 603.0 1079.0 636.0 L 1079.0 802.0 Q 1133.0 961.0 1197.0 1070.0 Q 1461.0 911.0 1639.0 671.0 L 1757.0 758.0 Q 1780.0 775.0 1780.0 792.0 Q 1780.0 816.0 1737.0 816.0 Q 1724.0 816.0 1676.0 812.0 Q 1538.0 925.0 1464.5 973.5 Q 1391.0 1022.0 1221.0 1112.0 Q 1362.0 1343.0 1543.0 1484.0 Q 1712.0 1615.0 1975.0 1694.0 L 1965.0 1731.0 Q 1940.0 1727.0 1924.0 1727.0 Q 1863.0 1727.0 1829.0 1790.0 Q 1635.0 1690.0 1524.0 1598.0 Q 1340.0 1445.0 1205.0 1218.0 Q 1152.0 1129.0 1079.0 964.0 L 1079.0 1798.0 Q 1079.0 1940.0 921.0 1969.0 Q 919.0 1903.0 878.0 1876.0 Q 846.0 1855.0 718.0 1832.0 L 726.0 1787.0 Q 896.0 1814.0 928.0 1814.0 Q 985.0 1814.0 985.0 1756.0 L 985.0 603.0 L 618.0 603.0 Q 559.0 603.0 469.0 615.0 M 166.0 982.0 L 127.0 896.0 Q 253.0 914.0 315.0 914.0 L 670.0 914.0 L 733.0 842.0 L 816.0 896.0 Q 856.0 922.0 856.0 944.0 Q 856.0 971.0 779.0 1006.0 Q 614.0 1327.0 510.0 1457.0 Q 361.0 1644.0 89.0 1825.0 L 66.0 1791.0 Q 293.0 1611.0 442.0 1407.0 Q 581.0 1218.0 681.0 971.0 L 315.0 971.0 Q 253.0 971.0 166.0 982.0 Z"/></g></g>
</g>

<g class="page-number"><text x="105.0" y="292.0" font-size="3" fill="#999" font-family="sans-serif" text-anchor="middle">- 1 -</text></g>
</svg>