<svg xmlns="http://www.w3.org/2000/svg" viewBox="0 0 210.0 297.0" width="210.0mm" height="297.0mm">
<rect x="0" y="0" width="210.0" height="297.0" fill="white"/>
<rect x="0.5" y="0.5" width="209.0" height="296.0" fill="none" stroke="#aaa" stroke-width="0.4"/>
<g class="grid" fill="none" stroke="#c8c8c8" stroke-width="0.2">
  <line x1="15.00" y1="15.00" x2="195.00" y2="15.00"/>
  <line x1="15.00" y1="30.00" x2="195.00" y2="30.00"/>
  <line x1="15.00" y1="45.00" x2="195.00" y2="45.00"/>
  <line x1="15.00" y1="60.00" x2="195.00" y2="60.00"/>
  <line x1="15.00" y1="75.00" x2="195.00" y2="75.00"/>
  <line x1="15.00" y1="90.00" x2="195.00" y2="90.00"/>
  <line x1="15.00" y1="105.00" x2="195.00" y2="105.00"/>
  <line x1="15.00" y1="120.00" x2="195.00" y2="120.00"/>
  <line x1="15.00" y1="135.00" x2="195.00" y2="135.00"/>
  <line x1="15.00" y1="150.00" x2="195.00" y2="150.00"/>
  <line x1="15.00" y1="165.00" x2="195.00" y2="165.00"/>
  <line x1="15.00" y1="180.00" x2="195.00" y2="180.00"/>
  <line x1="15.00" y1="195.00" x2="195.00" y2="195.00"/>
  <line x1="15.00" y1="210.00" x2="195.00" y2="210.00"/>
  <line x1="15.00" y1="225.00" x2="195.00" y2="225.00"/>
  <line x1="15.00" y1="240.00" x2="195.00" y2="240.00"/>
  <line x1="15.00" y1="255.00" x2="195.00" y2="255.00"/>
  <line x1="15.00" y1="270.00" x2="195.00" y2="270.00"/>
  <line x1="15.00" y1="282.00" x2="195.00" y2="282.00"/>
  <line x1="15.00" y1="15.00" x2="15.00" y2="282.00"/>
  <line x1="30.00" y1="15.00" x2="30.00" y2="282.00"/>
  <line x1="45.00" y1="15.00" x2="45.00" y2="282.00"/>
  <line x1="60.00" y1="15.00" x2="60.00" y2="282.00"/>
  <line x1="75.00" y1="15.00" x2="75.00" y2="282.00"/>
  <line x1="90.00" y1="15.00" x2="90.00" y2="282.00"/>
  <line x1="105.00" y1="15.00" x2="105.00" y2="282.00"/>
  <line x1="120.00" y1="15.00" x2="120.00" y2="282.00"/>
  <line x1="135.00" y1="15.00" x2="135.00" y2="282.00"/>
  <line x1="150.00" y1="15.00" x2="150.00" y2="282.00"/>
  <line x1="165.00" y1="15.00" x2="165.00" y2="282.00"/>
  <line x1="180.00" y1="15.00" x2="180.00" y2="282.00"/>
  <line x1="195.00" y1="15.00" x2="195.00" y2="282.00"/>
  </g>
<g class="chars">
<g transform="translate(15.0,15.0) scale(0.00732421875,0.00732421875)"><g fill="#222"><path d="M 1585.0 1719.0 Q 1505.0 1733.0 1254.0 1778.0 Q 1011.0 1822.0 394.0 1893.0 L 391.0 1916.0 Q 384.0 1960.0 361.0 1960.0 Q 342.0 1960.0 330.0 1933.0 L 261.0 1785.0 Q 371.0 1747.0 577.0 1612.0 Q 878.0 1415.0 1106.0 1172.0 Q 949.0 1202.0 816.0 1224.0 Q 597.0 1260.0 497.0 1280.0 L 491.0 1313.0 Q 484.0 1351.0 463.0 1351.0 Q 445.0 1351.0 428.0 1313.0 L 373.0 1192.0 Q 436.0 1161.0 621.0 931.0 Q 824.0 677.0 884.0 511.0 L 312.0 511.0 Q 194.0 511.0 120.0 519.0 L 82.0 431.0 Q 177.0 453.0 312.0 453.0 L 1019.0 453.0 Q 1002.0 430.0 993.0 398.0 Q 965.0 298.0 916.0 224.0 Q 893.0 191.0 809.0 90.0 L 833.0 64.0 Q 844.0 73.0 889.0 107.0 Q 1098.0 265.0 1098.0 395.0 Q 1098.0 423.0 1072.0 453.0 L 1707.0 453.0 L 1815.0 340.0 L 1946.0 453.0 Q 1969.0 473.0 1969.0 486.0 Q 1969.0 511.0 1942.0 511.0 L 947.0 511.0 L 1024.0 548.0 Q 1072.0 571.0 1072.0 592.0 Q 1072.0 625.0 1004.0 625.0 L 965.0 625.0 Q 673.0 1013.0 453.0 1184.0 Q 850.0 1156.0 1155.0 1108.0 Q 1272.0 965.0 1335.0 822.0 L 1461.0 887.0 Q 1511.0 913.0 1511.0 932.0 Q 1511.0 965.0 1465.0 965.0 L 1402.0 965.0 Q 1181.0 1265.0 934.0 1457.0 Q 712.0 1629.0 381.0 1789.0 Q 1025.0 1751.0 1560.0 1669.0 Q 1507.0 1583.0 1483.0 1548.0 Q 1471.0 1530.0 1408.0 1453.0 Q 1388.0 1429.0 1371.0 1408.0 L 1395.0 1382.0 Q 1779.0 1714.0 1779.0 1891.0 Q 1779.0 1960.0 1722.0 1960.0 Q 1679.0 1960.0 1658.0 1895.0 Q 1627.0 1797.0 1585.0 1719.0 Z"/></g></g>
</g>

<g class="page-number"><text x="105.0" y="292.0" font-size="3" fill="#999" font-family="sans-serif" text-anchor="middle">- 1 -</text></g>
</svg>