<svg xmlns="http://www.w3.org/2000/svg" viewBox="0 0 210.0 297.0" width="210.0mm" height="297.0mm">
<rect x="0" y="0" width="210.0" height="297.0" fill="white"/>
<rect x="0.5" y="0.5" width="209.0" height="296.0" fill="none" stroke="#aaa" stroke-width="0.4"/>
<g class="grid" fill="none" stroke="#c8c8c8" stroke-width="0.2">
  <line x1="15.00" y1="15.00" x2="195.00" y2="15.00"/>
  <line x1="15.00" y1="30.00" x2="195.00" y2="30.00"/>
  <line x1="15.00" y1="45.00" x2="195.00" y2="45.00"/>
  <line x1="15.00" y1="60.00" x2="195.00" y2="60.00"/>
  <line x1="15.00" y1="75.00" x2="195.00" y2="75.00"/>
  <line x1="15.00" y1="90.00" x2="195.00" y2="90.00"/>
  <line x1="15.00" y1="105.00" x2="195.00" y2="105.00"/>
  <line x1="15.00" y1="120.00" x2="195.00" y2="120.00"/>
  <line x1="15.00" y1="135.00" x2="195.00" y2="135.00"/>
  <line x1="15.00" y1="150.00" x2="195.00" y2="150.00"/>
  <line x1="15.00" y1="165.00" x2="195.00" y2="165.00"/>
  <line x1="15.00" y1="180.00" x2="195.00" y2="180.00"/>
  <line x1="15.00" y1="195.00" x2="195.00" y2="195.00"/>
  <line x1="15.00" y1="210.00" x2="195.00" y2="210.00"/>
  <line x1="15.00" y1="225.00" x2="195.00" y2="225.00"/>
  <line x1="15.00" y1="240.00" x2="195.00" y2="240.00"/>
  <line x1="15.00" y1="255.00" x2="195.00" y2="255.00"/>
  <line x1="15.00" y1="270.00" x2="195.00" y2="270.00"/>
  <line x1="15.00" y1="282.00" x2="195.00" y2="282.00"/>
  <line x1="15.00" y1="15.00" x2="15.00" y2="282.00"/>
  <line x1="30.00" y1="15.00" x2="30.00" y2="282.00"/>
  <line x1="45.00" y1="15.00" x2="45.00" y2="282.00"/>
  <line x1="60.00" y1="15.00" x2="60.00" y2="282.00"/>
  <line x1="75.00" y1="15.00" x2="75.00" y2="282.00"/>
  <line x1="90.00" y1="15.00" x2="90.00" y2="282.00"/>
  <line x1="105.00" y1="15.00" x2="105.00" y2="282.00"/>
  <line x1="120.00" y1="15.00" x2="120.00" y2="282.00"/>
  <line x1="135.00" y1="15.00" x2="135.00" y2="282.00"/>
  <line x1="150.00" y1="15.00" x2="150.00" y2="282.00"/>
  <line x1="165.00" y1="15.00" x2="165.00" y2="282.00"/>
  <line x1="180.00" y1="15.00" x2="180.00" y2="282.00"/>
  <line x1="195.00" y1="15.00" x2="195.00" y2="282.00"/>
  </g>
<g class="chars">
<g transform="translate(15.0,15.0) scale(0.00732421875,0.00732421875)"><g fill="#222"><path d="M 463 591 Q 445 584 430.5 578.5 Q 416 573 407.5 564.5 Q 399 556 402 546.5 Q 405 537 421 535 L 497 528 L 1039 449 L 1131 433 Q 1165 432 1174 430 Q 1183 428 1229 414.5 Q 1275 401 1312 402 Q 1342 404 1366 412.5 Q 1390 421 1417 438 Q 1444 455 1446.5 466 Q 1449 477 1442.5 486 Q 1436 495 1408 495 L 1351 496 L 1304 496 L 1212 505 L 1139 508 L 1050 519 Q 987 529 956 533 L 841 547 Q 784 555 739 563 L 655 580 L 622 586 Q 538.5 602.5 463 591 Z"/><path d="M 622 586 Q 625 601 624.5 605.5 Q 624 610 619.5 625 Q 615 640 611 669 L 602 716 L 589 827 L 574 886 Q 567 917 560.5 943.5 Q 554 970 538.5 1024 Q 523 1078 502 1130 Q 481 1182 448 1235.5 Q 415 1289 374.5 1333.5 Q 334 1378 293 1407 L 255 1434 Q 242 1444 234.5 1439 Q 227 1434 244 1412 L 266 1384 Q 291 1353 322.5 1301 Q 354 1249 380 1192.5 Q 406 1136 428 1068 Q 450 1000 465 925.5 Q 480 851 484 799 Q 488 747 488.5 715 Q 489 683 486 663 Q 481 639 474 619 L 463 591 L 622 586 Z"/><path d="M 589 827 Q 615 825 626 823 Q 637 821 697.5 807 Q 758 793 770.5 789.5 Q 783 786 817.5 773.5 Q 852 761 864 761 Q 880 762 896.5 771 Q 913 780 942 798 Q 971 816 983 831 Q 995 846 992 859 L 969 886 Q 963 894 956.5 918 Q 950 942 950 944 L 917 1109 Q 909 1146 887 1186.5 Q 865 1227 845.5 1247 Q 826 1267 802 1281 Q 778 1295 764 1292 Q 748 1290 737 1276 Q 726 1262 709.5 1227.5 Q 693 1193 675 1175 L 638 1140 Q 622 1126 627.5 1117 Q 633 1108 653 1115 L 697 1131 Q 724 1142 740 1146 Q 756 1150 766 1148 Q 778 1146 789.5 1135.5 Q 801 1125 810.5 1096 Q 820 1067 825 1040 L 847 919 Q 852 890 846.5 872.5 Q 841 855 831 848.5 Q 821 842 798 842 Q 766 843 753.5 845 Q 741 847 706 860 Q 671 873 648 884.5 Q 625 896 617 897 Q 601 900 597 897 L 574 886 L 589 827 Z"/><path d="M 1039 449 L 1009 294 Q 1002 262 992 239.5 Q 982 217 969 195.5 Q 956 174 952 159 Q 948 144 954 137 Q 960 130 972 127 Q 991 123 1041 140 Q 1091 157 1111 169 Q 1131 181 1138 198 Q 1142 210 1136.5 241.5 Q 1131 273 1131 306 L 1131 433 L 1139 508 Q 1144 535 1151.5 566 Q 1159 597 1173.5 651.5 Q 1188 706 1205 761 Q 1222 816 1242 853 L 1281 920 L 1298 950 L 1362 1031 Q 1382 1052 1409.5 1078 Q 1437 1104 1468.5 1129 Q 1500 1154 1534 1176 Q 1568 1198 1583 1203 Q 1598 1208 1607.5 1206 Q 1617 1204 1627 1191 Q 1637 1178 1651 1098 L 1666 1012 Q 1669 995 1682 995.5 Q 1695 996 1696 1014 L 1698 1089 Q 1699 1155 1704 1186 Q 1709 1217 1721 1253 L 1746 1323 Q 1753 1347 1751 1359 Q 1749 1370 1740.5 1379 Q 1732 1388 1704 1390 Q 1654 1394 1596 1371 Q 1538 1348 1463.5 1295.5 Q 1389 1243 1356 1203 L 1282 1120 L 1229 1042 Q 1220 1026 1208 1000 Q 1196 974 1168.5 912.5 Q 1141 851 1123 798.5 Q 1105 746 1086 669 L 1056 544 L 1050 519 L 1039 449 Z"/><path d="M 1290 187 L 1325 191 Q 1360 196 1390.5 201.5 Q 1421 207 1450.5 219.5 Q 1480 232 1490 247.5 Q 1500 263 1497.5 289 Q 1495 315 1479 331.5 Q 1463 348 1438 347 Q 1416 347 1395.5 332 Q 1375 317 1360 301 Q 1345 285 1304 244 L 1276 216 Q 1263 204 1268.5 195 Q 1274 186 1290 187 Z"/><path d="M 1298 950 Q 1307 938 1315 926 Q 1323 914 1339 884 Q 1355 854 1371.5 809.5 Q 1388 765 1394 721 L 1398 669 Q 1399 649 1406.5 642.5 Q 1414 636 1442 644 Q 1466 652 1497 672 Q 1528 692 1544 715.5 Q 1560 739 1557 751 Q 1555 758 1537 775 Q 1519 792 1505.5 812.5 Q 1492 833 1461 885.5 Q 1430 938 1416 958 Q 1402 978 1374 1015 L 1362 1031 L 1282 1120 Q 1260 1141 1232 1165.5 Q 1204 1190 1167.5 1215 Q 1131 1240 1088 1261.5 Q 1045 1283 1009 1296 L 958 1315 Q 932 1325 928 1316 Q 924 1307 945 1292 L 995 1256 Q 1029 1232 1067 1200 Q 1105 1168 1142 1133.5 Q 1179 1099 1197 1078 L 1229 1042 L 1298 950 Z"/><path d="M 566 1805 L 525 1581 Q 521 1563 510 1534 Q 499 1505 491 1493 Q 483 1481 468 1468.5 Q 453 1456 452.5 1447.5 Q 452 1439 464 1430 L 519 1431 L 570 1433 Q 602.5 1443 611 1509 Q 615 1525 617.5 1536.5 Q 620 1548 621.5 1592.5 Q 623 1637 633 1717 L 642 1794 Q 608 1843.5 566 1805 Z"/><path d="M 570 1433 L 953 1387 L 1103 1368 Q 1158 1362 1203 1356 L 1276 1348 Q 1314 1344 1344 1333.5 Q 1374 1323 1382 1323 Q 1396 1324 1422 1337.5 Q 1448 1351 1472.5 1366.5 Q 1497 1382 1520.5 1401.5 Q 1544 1421 1546 1434.5 Q 1548 1448 1543 1459 Q 1540 1464 1524 1480.5 Q 1508 1497 1496.5 1518 Q 1485 1539 1479 1556 L 1406 1743 Q 1345 1815 1300 1751 L 1337 1546 L 1345 1484 Q 1351 1447 1344 1437.5 Q 1337 1428 1324.5 1426 Q 1312 1424 1273 1424 L 1156 1426 L 1069 1437 Q 1018 1440 1013 1440 L 867 1456 L 781 1473 Q 730 1480 700 1485.5 Q 670 1491 647 1498 L 611 1509 L 570 1433 Z"/><path d="M 847 1781 Q 829 1687 819 1639 L 803 1571 L 789 1507 L 781 1473 L 867 1456 Q 889 1464 898.5 1472 Q 908 1480 909.5 1486.5 Q 911 1493 909 1524 L 909 1554 L 906 1584 L 910 1774 Q 880.5 1817.5 847 1781 Z"/><path d="M 1056 1767 Q 1059 1710 1062.5 1654.5 Q 1066 1599 1067.5 1570.5 Q 1069 1542 1069 1498 L 1069 1437 L 1156 1426 Q 1174 1437 1182.5 1446.5 Q 1191 1456 1191.5 1464.5 Q 1192 1473 1184 1492 Q 1176 1509 1170 1529 L 1154 1584 L 1100 1762 Q 1072 1790.5 1056 1767 Z"/><path d="M 1406 1743 Q 1469 1738 1509.5 1733.5 Q 1550 1729 1592 1722 Q 1634 1715 1651 1714 Q 1683 1713 1714 1721.5 Q 1745 1730 1789.5 1750 Q 1834 1770 1848 1789.5 Q 1862 1809 1857 1820 Q 1853 1829 1838 1834 Q 1823 1839 1799 1839 L 1630 1841 L 1321 1841 Q 1218 1843 1130 1848 Q 1042 1853 898.5 1861.5 Q 755 1870 679.5 1877 Q 604 1884 506.5 1901 Q 409 1918 390 1920.5 Q 371 1923 349 1922 Q 318 1922 292 1913 Q 266 1904 239 1887.5 Q 212 1871 199 1854 Q 186 1837 190.5 1826.5 Q 195 1816 214 1816 L 260 1816 Q 294 1816 374.5 1814 Q 455 1812 469 1811 L 566 1805 L 642 1794 L 847 1781 L 910 1774 L 1056 1767 L 1100 1762 L 1300 1751 L 1406 1743 Z"/></g></g>
</g>

<g class="page-number"><text x="105.0" y="292.0" font-size="3" fill="#999" font-family="sans-serif" text-anchor="middle">- 1 -</text></g>
</svg>