<svg xmlns="http://www.w3.org/2000/svg" viewBox="0 0 210.0 297.0" width="210.0mm" height="297.0mm">
<rect x="0" y="0" width="210.0" height="297.0" fill="white"/>
<rect x="0.5" y="0.5" width="209.0" height="296.0" fill="none" stroke="#aaa" stroke-width="0.4"/>
<g class="grid" fill="none" stroke="#c8c8c8" stroke-width="0.2">
  <line x1="15.00" y1="15.00" x2="195.00" y2="15.00"/>
  <line x1="15.00" y1="30.00" x2="195.00" y2="30.00"/>
  <line x1="15.00" y1="45.00" x2="195.00" y2="45.00"/>
  <line x1="15.00" y1="60.00" x2="195.00" y2="60.00"/>
  <line x1="15.00" y1="75.00" x2="195.00" y2="75.00"/>
  <line x1="15.00" y1="90.00" x2="195.00" y2="90.00"/>
  <line x1="15.00" y1="105.00" x2="195.00" y2="105.00"/>
  <line x1="15.00" y1="120.00" x2="195.00" y2="120.00"/>
  <line x1="15.00" y1="135.00" x2="195.00" y2="135.00"/>
  <line x1="15.00" y1="150.00" x2="195.00" y2="150.00"/>
  <line x1="15.00" y1="165.00" x2="195.00" y2="165.00"/>
  <line x1="15.00" y1="180.00" x2="195.00" y2="180.00"/>
  <line x1="15.00" y1="195.00" x2="195.00" y2="195.00"/>
  <line x1="15.00" y1="210.00" x2="195.00" y2="210.00"/>
  <line x1="15.00" y1="225.00" x2="195.00" y2="225.00"/>
  <line x1="15.00" y1="240.00" x2="195.00" y2="240.00"/>
  <line x1="15.00" y1="255.00" x2="195.00" y2="255.00"/>
  <line x1="15.00" y1="270.00" x2="195.00" y2="270.00"/>
  <line x1="15.00" y1="282.00" x2="195.00" y2="282.00"/>
  <line x1="15.00" y1="15.00" x2="15.00" y2="282.00"/>
  <line x1="30.00" y1="15.00" x2="30.00" y2="282.00"/>
  <line x1="45.00" y1="15.00" x2="45.00" y2="282.00"/>
  <line x1="60.00" y1="15.00" x2="60.00" y2="282.00"/>
  <line x1="75.00" y1="15.00" x2="75.00" y2="282.00"/>
  <line x1="90.00" y1="15.00" x2="90.00" y2="282.00"/>
  <line x1="105.00" y1="15.00" x2="105.00" y2="282.00"/>
  <line x1="120.00" y1="15.00" x2="120.00" y2="282.00"/>
  <line x1="135.00" y1="15.00" x2="135.00" y2="282.00"/>
  <line x1="150.00" y1="15.00" x2="150.00" y2="282.00"/>
  <line x1="165.00" y1="15.00" x2="165.00" y2="282.00"/>
  <line x1="180.00" y1="15.00" x2="180.00" y2="282.00"/>
  <line x1="195.00" y1="15.00" x2="195.00" y2="282.00"/>
  </g>
<g class="chars">
<g transform="translate(15.0,15.0) scale(0.00732421875,0.00732421875)"><g fill="#222"><path d="M 1354.0 819.0 Q 1432.0 738.0 1496.0 644.0 Q 1526.0 600.0 1590.0 474.0 L 1684.0 527.0 Q 1746.0 561.0 1746.0 586.0 Q 1746.0 614.0 1684.0 614.0 L 1644.0 614.0 Q 1541.0 759.0 1407.0 891.0 Q 1471.0 957.0 1557.0 1013.0 Q 1673.0 1089.0 1747.0 1089.0 Q 1790.0 1089.0 1821.0 994.0 L 1881.0 808.0 L 1916.0 824.0 L 1881.0 994.0 Q 1874.0 1030.0 1874.0 1047.0 Q 1874.0 1076.0 1904.0 1110.0 Q 1930.0 1140.0 1930.0 1159.0 Q 1930.0 1211.0 1840.0 1211.0 Q 1704.0 1211.0 1553.0 1127.0 Q 1450.0 1069.0 1338.0 956.0 Q 1086.0 1136.0 869.0 1210.0 L 856.0 1172.0 Q 1112.0 1047.0 1281.0 887.0 Q 1171.0 709.0 1104.0 426.0 L 404.0 426.0 L 404.0 625.0 L 802.0 625.0 L 863.0 552.0 L 935.0 601.0 Q 978.0 630.0 978.0 651.0 Q 978.0 663.0 969.0 670.0 Q 969.0 670.0 914.0 703.0 Q 874.0 957.0 845.0 1028.0 Q 812.0 1110.0 740.0 1141.0 Q 710.0 1153.0 652.0 1163.0 Q 649.0 1149.0 648.0 1142.0 Q 637.0 1087.0 594.0 1070.0 Q 589.0 1068.0 476.0 1032.0 L 484.0 990.0 Q 519.0 998.0 537.0 1001.0 Q 648.0 1025.0 696.0 1025.0 Q 737.0 1025.0 759.0 974.0 Q 786.0 912.0 816.0 679.0 L 404.0 679.0 Q 382.0 875.0 319.0 988.0 Q 251.0 1111.0 118.0 1207.0 L 91.0 1176.0 Q 306.0 959.0 306.0 618.0 L 306.0 436.0 Q 306.0 425.0 298.0 299.0 L 418.0 372.0 L 1092.0 372.0 Q 1072.0 259.0 1052.0 75.0 L 1170.0 90.0 Q 1257.0 101.0 1257.0 129.0 Q 1257.0 156.0 1208.0 173.0 L 1164.0 188.0 Q 1175.0 279.0 1189.0 372.0 L 1684.0 372.0 L 1790.0 259.0 L 1931.0 372.0 Q 1950.0 388.0 1950.0 407.0 Q 1950.0 428.0 1916.0 428.0 L 1201.0 428.0 Q 1273.0 689.0 1354.0 819.0 M 1393.0 106.0 Q 1663.0 182.0 1663.0 276.0 Q 1663.0 330.0 1616.0 330.0 Q 1587.0 330.0 1548.0 276.0 Q 1512.0 227.0 1378.0 139.0 M 326.0 1822.0 L 326.0 1335.0 Q 323.0 1243.0 310.0 1197.0 L 432.0 1285.0 L 1610.0 1285.0 L 1678.0 1208.0 L 1762.0 1263.0 Q 1808.0 1293.0 1808.0 1310.0 Q 1808.0 1324.0 1796.0 1335.0 Q 1789.0 1342.0 1726.0 1373.0 L 1726.0 1822.0 L 1737.0 1822.0 L 1839.0 1717.0 L 1976.0 1822.0 Q 1994.0 1836.0 1994.0 1857.0 Q 1994.0 1879.0 1962.0 1879.0 L 249.0 1879.0 Q 180.0 1879.0 100.0 1890.0 L 61.0 1804.0 Q 186.0 1822.0 249.0 1822.0 M 418.0 1822.0 L 750.0 1822.0 L 750.0 1343.0 L 418.0 1343.0 M 846.0 1822.0 L 1192.0 1822.0 L 1192.0 1343.0 L 846.0 1343.0 M 1289.0 1822.0 L 1630.0 1822.0 L 1630.0 1343.0 L 1289.0 1343.0 Z"/></g></g>
</g>

<g class="page-number"><text x="105.0" y="292.0" font-size="3" fill="#999" font-family="sans-serif" text-anchor="middle">- 1 -</text></g>
</svg>