<svg xmlns="http://www.w3.org/2000/svg" viewBox="0 0 210.0 297.0" width="210.0mm" height="297.0mm">
<rect x="0" y="0" width="210.0" height="297.0" fill="white"/>
<rect x="0.5" y="0.5" width="209.0" height="296.0" fill="none" stroke="#aaa" stroke-width="0.4"/>
<g class="grid" fill="none" stroke="#c8c8c8" stroke-width="0.2">
  <line x1="15.00" y1="15.00" x2="195.00" y2="15.00"/>
  <line x1="15.00" y1="30.00" x2="195.00" y2="30.00"/>
  <line x1="15.00" y1="45.00" x2="195.00" y2="45.00"/>
  <line x1="15.00" y1="60.00" x2="195.00" y2="60.00"/>
  <line x1="15.00" y1="75.00" x2="195.00" y2="75.00"/>
  <line x1="15.00" y1="90.00" x2="195.00" y2="90.00"/>
  <line x1="15.00" y1="105.00" x2="195.00" y2="105.00"/>
  <line x1="15.00" y1="120.00" x2="195.00" y2="120.00"/>
  <line x1="15.00" y1="135.00" x2="195.00" y2="135.00"/>
  <line x1="15.00" y1="150.00" x2="195.00" y2="150.00"/>
  <line x1="15.00" y1="165.00" x2="195.00" y2="165.00"/>
  <line x1="15.00" y1="180.00" x2="195.00" y2="180.00"/>
  <line x1="15.00" y1="195.00" x2="195.00" y2="195.00"/>
  <line x1="15.00" y1="210.00" x2="195.00" y2="210.00"/>
  <line x1="15.00" y1="225.00" x2="195.00" y2="225.00"/>
  <line x1="15.00" y1="240.00" x2="195.00" y2="240.00"/>
  <line x1="15.00" y1="255.00" x2="195.00" y2="255.00"/>
  <line x1="15.00" y1="270.00" x2="195.00" y2="270.00"/>
  <line x1="15.00" y1="282.00" x2="195.00" y2="282.00"/>
  <line x1="15.00" y1="15.00" x2="15.00" y2="282.00"/>
  <line x1="30.00" y1="15.00" x2="30.00" y2="282.00"/>
  <line x1="45.00" y1="15.00" x2="45.00" y2="282.00"/>
  <line x1="60.00" y1="15.00" x2="60.00" y2="282.00"/>
  <line x1="75.00" y1="15.00" x2="75.00" y2="282.00"/>
  <line x1="90.00" y1="15.00" x2="90.00" y2="282.00"/>
  <line x1="105.00" y1="15.00" x2="105.00" y2="282.00"/>
  <line x1="120.00" y1="15.00" x2="120.00" y2="282.00"/>
  <line x1="135.00" y1="15.00" x2="135.00" y2="282.00"/>
  <line x1="150.00" y1="15.00" x2="150.00" y2="282.00"/>
  <line x1="165.00" y1="15.00" x2="165.00" y2="282.00"/>
  <line x1="180.00" y1="15.00" x2="180.00" y2="282.00"/>
  <line x1="195.00" y1="15.00" x2="195.00" y2="282.00"/>
  </g>
<g class="chars">
<g transform="translate(15.0,15.0) scale(0.00732421875,0.00732421875)"><g fill="#222"><path d="M 1568.0 848.0 L 1768.0 848.0 L 1861.0 754.0 L 1970.0 837.0 Q 2002.0 861.0 2002.0 879.0 Q 2002.0 906.0 1974.0 906.0 L 1442.0 906.0 L 1442.0 1792.0 Q 1442.0 1883.0 1366.0 1929.0 Q 1329.0 1950.0 1265.0 1967.0 Q 1255.0 1915.0 1249.0 1901.0 Q 1226.0 1856.0 1059.0 1827.0 L 1064.0 1779.0 Q 1241.0 1807.0 1286.0 1807.0 Q 1344.0 1807.0 1344.0 1750.0 L 1344.0 906.0 L 1033.0 906.0 Q 913.0 906.0 841.0 916.0 L 803.0 827.0 Q 903.0 848.0 1040.0 848.0 L 1471.0 848.0 L 1530.0 645.0 L 1059.0 645.0 Q 1028.0 652.0 1013.0 652.0 Q 972.0 652.0 972.0 623.0 Q 972.0 608.0 981.0 585.0 Q 996.0 548.0 1004.0 523.0 L 1092.0 244.0 Q 1098.0 225.0 1129.0 88.0 L 1250.0 123.0 Q 1306.0 139.0 1306.0 163.0 Q 1306.0 187.0 1255.0 197.0 L 1212.0 207.0 L 1183.0 285.0 L 1589.0 285.0 L 1669.0 207.0 L 1752.0 281.0 Q 1787.0 312.0 1787.0 334.0 Q 1787.0 356.0 1747.0 367.0 L 1699.0 380.0 M 1544.0 587.0 L 1613.0 343.0 L 1164.0 343.0 L 1079.0 587.0 M 912.0 968.0 Q 1032.0 1027.0 1093.0 1067.0 Q 1217.0 1146.0 1217.0 1218.0 Q 1217.0 1245.0 1200.0 1264.5 Q 1183.0 1284.0 1160.0 1284.0 Q 1129.0 1284.0 1101.0 1232.0 Q 1023.0 1089.0 889.0 997.0 M 1235.0 1366.0 L 1252.0 1398.0 Q 1089.0 1535.0 912.0 1639.0 L 912.0 1671.0 Q 912.0 1737.0 884.0 1737.0 Q 864.0 1737.0 820.0 1674.0 L 754.0 1580.0 Q 1005.0 1494.0 1235.0 1366.0 M 1849.0 1092.0 Q 1680.0 1228.0 1557.0 1291.0 L 1538.0 1260.0 Q 1674.0 1152.0 1804.0 968.0 L 1906.0 1036.0 Q 1940.0 1059.0 1940.0 1077.0 Q 1940.0 1099.0 1903.0 1099.0 Q 1897.0 1099.0 1885.0 1097.0 M 1568.0 1361.0 Q 1958.0 1590.0 1958.0 1725.0 Q 1958.0 1790.0 1906.0 1790.0 Q 1866.0 1790.0 1839.0 1724.0 Q 1777.0 1572.0 1545.0 1388.0 M 284.0 72.0 Q 533.0 209.0 533.0 314.0 Q 533.0 376.0 474.0 376.0 Q 457.0 376.0 446.0 368.0 Q 431.0 356.0 413.0 300.0 Q 381.0 206.0 259.0 102.0 M 522.0 913.0 Q 639.0 966.0 682.0 993.0 Q 790.0 1062.0 790.0 1126.0 Q 790.0 1156.0 766.0 1174.0 Q 752.0 1184.0 737.0 1184.0 Q 720.0 1184.0 706.0 1172.0 Q 698.0 1165.0 665.0 1109.0 Q 611.0 1015.0 505.0 957.0 L 505.0 1678.0 Q 505.0 1697.0 507.0 1742.0 Q 510.0 1788.0 510.0 1817.0 Q 511.0 1873.0 511.0 1877.0 Q 513.0 1919.0 513.0 1926.0 Q 513.0 1982.0 455.0 1982.0 Q 407.0 1982.0 407.0 1932.0 L 407.0 1045.0 Q 289.0 1166.0 104.0 1294.0 L 81.0 1260.0 Q 485.0 930.0 643.0 518.0 L 303.0 518.0 Q 167.0 518.0 111.0 530.0 L 73.0 436.0 Q 166.0 460.0 310.0 460.0 L 643.0 460.0 L 702.0 388.0 L 786.0 445.0 Q 825.0 472.0 825.0 493.0 Q 825.0 508.0 813.0 519.0 Q 804.0 526.0 740.0 549.0 Q 642.0 754.0 522.0 913.0 Z"/></g></g>
</g>

<g class="page-number"><text x="105.0" y="292.0" font-size="3" fill="#999" font-family="sans-serif" text-anchor="middle">- 1 -</text></g>
</svg>