<svg xmlns="http://www.w3.org/2000/svg" viewBox="0 0 210.0 297.0" width="210.0mm" height="297.0mm">
<rect x="0" y="0" width="210.0" height="297.0" fill="white"/>
<rect x="0.5" y="0.5" width="209.0" height="296.0" fill="none" stroke="#aaa" stroke-width="0.4"/>
<g class="grid" fill="none" stroke="#c8c8c8" stroke-width="0.2">
  <line x1="15.00" y1="15.00" x2="195.00" y2="15.00"/>
  <line x1="15.00" y1="30.00" x2="195.00" y2="30.00"/>
  <line x1="15.00" y1="45.00" x2="195.00" y2="45.00"/>
  <line x1="15.00" y1="60.00" x2="195.00" y2="60.00"/>
  <line x1="15.00" y1="75.00" x2="195.00" y2="75.00"/>
  <line x1="15.00" y1="90.00" x2="195.00" y2="90.00"/>
  <line x1="15.00" y1="105.00" x2="195.00" y2="105.00"/>
  <line x1="15.00" y1="120.00" x2="195.00" y2="120.00"/>
  <line x1="15.00" y1="135.00" x2="195.00" y2="135.00"/>
  <line x1="15.00" y1="150.00" x2="195.00" y2="150.00"/>
  <line x1="15.00" y1="165.00" x2="195.00" y2="165.00"/>
  <line x1="15.00" y1="180.00" x2="195.00" y2="180.00"/>
  <line x1="15.00" y1="195.00" x2="195.00" y2="195.00"/>
  <line x1="15.00" y1="210.00" x2="195.00" y2="210.00"/>
  <line x1="15.00" y1="225.00" x2="195.00" y2="225.00"/>
  <line x1="15.00" y1="240.00" x2="195.00" y2="240.00"/>
  <line x1="15.00" y1="255.00" x2="195.00" y2="255.00"/>
  <line x1="15.00" y1="270.00" x2="195.00" y2="270.00"/>
  <line x1="15.00" y1="282.00" x2="195.00" y2="282.00"/>
  <line x1="15.00" y1="15.00" x2="15.00" y2="282.00"/>
  <line x1="30.00" y1="15.00" x2="30.00" y2="282.00"/>
  <line x1="45.00" y1="15.00" x2="45.00" y2="282.00"/>
  <line x1="60.00" y1="15.00" x2="60.00" y2="282.00"/>
  <line x1="75.00" y1="15.00" x2="75.00" y2="282.00"/>
  <line x1="90.00" y1="15.00" x2="90.00" y2="282.00"/>
  <line x1="105.00" y1="15.00" x2="105.00" y2="282.00"/>
  <line x1="120.00" y1="15.00" x2="120.00" y2="282.00"/>
  <line x1="135.00" y1="15.00" x2="135.00" y2="282.00"/>
  <line x1="150.00" y1="15.00" x2="150.00" y2="282.00"/>
  <line x1="165.00" y1="15.00" x2="165.00" y2="282.00"/>
  <line x1="180.00" y1="15.00" x2="180.00" y2="282.00"/>
  <line x1="195.00" y1="15.00" x2="195.00" y2="282.00"/>
  </g>
<g class="chars">
<g transform="translate(15.0,15.0) scale(0.00732421875,0.00732421875)"><g fill="#222"><path d="M 1683.0 492.0 L 1743.0 419.0 L 1818.0 468.0 Q 1858.0 495.0 1858.0 518.0 Q 1858.0 535.0 1793.0 571.0 L 1793.0 838.0 L 1828.0 866.0 Q 1847.0 880.0 1847.0 895.0 Q 1847.0 917.0 1828.0 917.0 L 1123.0 917.0 L 1123.0 964.0 Q 1123.0 1001.0 1068.0 1001.0 Q 1019.0 1001.0 1019.0 960.0 Q 1019.0 955.0 1021.0 939.0 Q 1030.0 884.0 1030.0 804.0 L 1030.0 428.0 L 1149.0 492.0 M 1123.0 859.0 L 1699.0 859.0 L 1699.0 550.0 L 1123.0 550.0 M 1800.0 1123.0 L 1868.0 1047.0 L 1952.0 1101.0 Q 1992.0 1127.0 1992.0 1150.0 Q 1992.0 1177.0 1914.0 1211.0 L 1914.0 1748.0 Q 1914.0 1791.0 1921.0 1853.0 Q 1924.0 1881.0 1924.0 1897.0 Q 1924.0 1946.0 1857.0 1946.0 Q 1819.0 1946.0 1819.0 1921.0 L 1819.0 1864.0 L 1004.0 1864.0 L 1004.0 1914.0 Q 1004.0 1945.0 952.0 1945.0 Q 899.0 1945.0 899.0 1901.0 Q 899.0 1898.0 904.0 1852.0 Q 911.0 1754.0 911.0 1748.0 L 911.0 1058.0 L 1034.0 1123.0 M 1452.0 1179.0 L 1452.0 1458.0 L 1819.0 1458.0 L 1819.0 1179.0 M 1452.0 1806.0 L 1819.0 1806.0 L 1819.0 1516.0 L 1452.0 1516.0 M 1004.0 1458.0 L 1360.0 1458.0 L 1360.0 1179.0 L 1004.0 1179.0 M 1004.0 1806.0 L 1360.0 1806.0 L 1360.0 1516.0 L 1004.0 1516.0 M 911.0 296.0 L 874.0 207.0 Q 968.0 229.0 1111.0 229.0 L 1749.0 229.0 L 1842.0 135.0 L 1950.0 218.0 Q 1982.0 243.0 1982.0 259.0 Q 1982.0 286.0 1955.0 286.0 L 1104.0 286.0 Q 984.0 286.0 911.0 296.0 M 291.0 71.0 Q 423.0 150.0 453.0 175.0 Q 538.0 245.0 538.0 312.0 Q 538.0 378.0 484.0 378.0 Q 460.0 378.0 447.0 360.0 Q 439.0 350.0 413.0 279.0 Q 384.0 200.0 267.0 100.0 M 392.0 1010.0 Q 230.0 1152.0 97.0 1232.0 L 74.0 1198.0 Q 414.0 952.0 633.0 485.0 L 300.0 485.0 Q 215.0 485.0 108.0 491.0 L 74.0 406.0 Q 179.0 428.0 300.0 428.0 L 633.0 428.0 L 692.0 358.0 L 776.0 415.0 Q 814.0 441.0 814.0 465.0 Q 814.0 486.0 729.0 516.0 Q 624.0 724.0 505.0 880.0 Q 641.0 942.0 703.0 980.0 Q 817.0 1052.0 817.0 1119.0 Q 817.0 1178.0 763.0 1178.0 Q 730.0 1178.0 699.0 1119.0 Q 651.0 1027.0 487.0 911.0 L 487.0 1675.0 Q 487.0 1676.0 492.0 1814.0 Q 497.0 1887.0 497.0 1908.0 Q 497.0 1980.0 439.0 1980.0 Q 392.0 1980.0 392.0 1944.0 Z"/></g></g>
</g>

<g class="page-number"><text x="105.0" y="292.0" font-size="3" fill="#999" font-family="sans-serif" text-anchor="middle">- 1 -</text></g>
</svg>