<svg xmlns="http://www.w3.org/2000/svg" viewBox="0 0 210.0 297.0" width="210.0mm" height="297.0mm">
<rect x="0" y="0" width="210.0" height="297.0" fill="white"/>
<rect x="0.5" y="0.5" width="209.0" height="296.0" fill="none" stroke="#aaa" stroke-width="0.4"/>
<g class="grid" fill="none" stroke="#c8c8c8" stroke-width="0.2">
  <line x1="15.00" y1="15.00" x2="195.00" y2="15.00"/>
  <line x1="15.00" y1="30.00" x2="195.00" y2="30.00"/>
  <line x1="15.00" y1="45.00" x2="195.00" y2="45.00"/>
  <line x1="15.00" y1="60.00" x2="195.00" y2="60.00"/>
  <line x1="15.00" y1="75.00" x2="195.00" y2="75.00"/>
  <line x1="15.00" y1="90.00" x2="195.00" y2="90.00"/>
  <line x1="15.00" y1="105.00" x2="195.00" y2="105.00"/>
  <line x1="15.00" y1="120.00" x2="195.00" y2="120.00"/>
  <line x1="15.00" y1="135.00" x2="195.00" y2="135.00"/>
  <line x1="15.00" y1="150.00" x2="195.00" y2="150.00"/>
  <line x1="15.00" y1="165.00" x2="195.00" y2="165.00"/>
  <line x1="15.00" y1="180.00" x2="195.00" y2="180.00"/>
  <line x1="15.00" y1="195.00" x2="195.00" y2="195.00"/>
  <line x1="15.00" y1="210.00" x2="195.00" y2="210.00"/>
  <line x1="15.00" y1="225.00" x2="195.00" y2="225.00"/>
  <line x1="15.00" y1="240.00" x2="195.00" y2="240.00"/>
  <line x1="15.00" y1="255.00" x2="195.00" y2="255.00"/>
  <line x1="15.00" y1="270.00" x2="195.00" y2="270.00"/>
  <line x1="15.00" y1="282.00" x2="195.00" y2="282.00"/>
  <line x1="15.00" y1="15.00" x2="15.00" y2="282.00"/>
  <line x1="30.00" y1="15.00" x2="30.00" y2="282.00"/>
  <line x1="45.00" y1="15.00" x2="45.00" y2="282.00"/>
  <line x1="60.00" y1="15.00" x2="60.00" y2="282.00"/>
  <line x1="75.00" y1="15.00" x2="75.00" y2="282.00"/>
  <line x1="90.00" y1="15.00" x2="90.00" y2="282.00"/>
  <line x1="105.00" y1="15.00" x2="105.00" y2="282.00"/>
  <line x1="120.00" y1="15.00" x2="120.00" y2="282.00"/>
  <line x1="135.00" y1="15.00" x2="135.00" y2="282.00"/>
  <line x1="150.00" y1="15.00" x2="150.00" y2="282.00"/>
  <line x1="165.00" y1="15.00" x2="165.00" y2="282.00"/>
  <line x1="180.00" y1="15.00" x2="180.00" y2="282.00"/>
  <line x1="195.00" y1="15.00" x2="195.00" y2="282.00"/>
  </g>
<g class="chars">
<g transform="translate(15.0,15.0) scale(0.00732421875,0.00732421875)"><g fill="#222"><path d="M 1432.0 933.0 Q 1646.0 752.0 1786.0 483.0 L 1923.0 566.0 Q 1944.0 578.0 1944.0 595.0 Q 1944.0 626.0 1877.0 626.0 L 1841.0 626.0 Q 1681.0 820.0 1440.0 983.0 Q 1513.0 1309.0 1627.0 1486.0 Q 1718.0 1629.0 1836.0 1721.0 Q 1890.0 1763.0 1999.0 1810.0 L 1989.0 1848.0 Q 1886.0 1848.0 1830.0 1906.0 Q 1608.0 1709.0 1500.0 1439.0 Q 1436.0 1278.0 1405.0 1133.0 Q 1402.0 1119.0 1379.0 995.0 Q 1374.0 969.0 1362.0 909.0 Q 1318.0 1235.0 1246.0 1408.0 Q 1161.0 1612.0 976.0 1768.0 Q 850.0 1873.0 701.0 1940.0 L 684.0 1906.0 Q 1029.0 1698.0 1161.0 1351.0 Q 1280.0 1037.0 1280.0 381.0 Q 1280.0 167.0 1273.0 107.0 L 1432.0 133.0 Q 1474.0 139.0 1474.0 162.0 Q 1474.0 190.0 1436.0 205.0 L 1387.0 223.0 Q 1381.0 498.0 1378.0 578.0 Q 1388.0 740.0 1432.0 933.0 M 532.0 954.0 Q 554.0 963.0 574.0 972.0 Q 854.0 1085.0 854.0 1198.0 Q 854.0 1255.0 805.0 1255.0 Q 777.0 1255.0 757.0 1230.0 Q 753.0 1225.0 722.0 1171.0 Q 687.0 1108.0 585.0 1032.0 Q 553.0 1009.0 532.0 997.0 L 532.0 1656.0 Q 532.0 1749.0 543.0 1865.0 Q 546.0 1897.0 546.0 1914.0 Q 546.0 1961.0 491.0 1961.0 Q 435.0 1961.0 435.0 1919.0 L 435.0 1009.0 Q 359.0 1178.0 314.0 1254.0 Q 213.0 1420.0 79.0 1564.0 L 49.0 1536.0 Q 269.0 1228.0 384.0 797.0 L 252.0 797.0 Q 183.0 797.0 103.0 807.0 L 64.0 721.0 Q 188.0 739.0 252.0 739.0 L 435.0 739.0 L 435.0 353.0 Q 287.0 378.0 100.0 391.0 L 97.0 353.0 Q 568.0 260.0 756.0 136.0 L 860.0 225.0 Q 879.0 241.0 879.0 257.0 Q 879.0 277.0 848.0 277.0 Q 842.0 277.0 840.0 277.0 L 769.0 265.0 Q 648.0 307.0 532.0 334.0 L 532.0 739.0 L 695.0 739.0 L 787.0 647.0 L 901.0 739.0 Q 920.0 754.0 920.0 771.0 Q 920.0 797.0 892.0 797.0 L 532.0 797.0 M 923.0 489.0 Q 1170.0 775.0 1170.0 929.0 Q 1170.0 1002.0 1111.0 1002.0 Q 1065.0 1002.0 1054.0 917.0 Q 1038.0 797.0 986.0 672.0 Q 967.0 625.0 895.0 509.0 Z"/></g></g>
</g>

<g class="page-number"><text x="105.0" y="292.0" font-size="3" fill="#999" font-family="sans-serif" text-anchor="middle">- 1 -</text></g>
</svg>