<svg xmlns="http://www.w3.org/2000/svg" viewBox="0 0 210.0 297.0" width="210.0mm" height="297.0mm">
<rect x="0" y="0" width="210.0" height="297.0" fill="white"/>
<rect x="0.5" y="0.5" width="209.0" height="296.0" fill="none" stroke="#aaa" stroke-width="0.4"/>
<g class="grid" fill="none" stroke="#c8c8c8" stroke-width="0.2">
  <line x1="15.00" y1="15.00" x2="195.00" y2="15.00"/>
  <line x1="15.00" y1="30.00" x2="195.00" y2="30.00"/>
  <line x1="15.00" y1="45.00" x2="195.00" y2="45.00"/>
  <line x1="15.00" y1="60.00" x2="195.00" y2="60.00"/>
  <line x1="15.00" y1="75.00" x2="195.00" y2="75.00"/>
  <line x1="15.00" y1="90.00" x2="195.00" y2="90.00"/>
  <line x1="15.00" y1="105.00" x2="195.00" y2="105.00"/>
  <line x1="15.00" y1="120.00" x2="195.00" y2="120.00"/>
  <line x1="15.00" y1="135.00" x2="195.00" y2="135.00"/>
  <line x1="15.00" y1="150.00" x2="195.00" y2="150.00"/>
  <line x1="15.00" y1="165.00" x2="195.00" y2="165.00"/>
  <line x1="15.00" y1="180.00" x2="195.00" y2="180.00"/>
  <line x1="15.00" y1="195.00" x2="195.00" y2="195.00"/>
  <line x1="15.00" y1="210.00" x2="195.00" y2="210.00"/>
  <line x1="15.00" y1="225.00" x2="195.00" y2="225.00"/>
  <line x1="15.00" y1="240.00" x2="195.00" y2="240.00"/>
  <line x1="15.00" y1="255.00" x2="195.00" y2="255.00"/>
  <line x1="15.00" y1="270.00" x2="195.00" y2="270.00"/>
  <line x1="15.00" y1="282.00" x2="195.00" y2="282.00"/>
  <line x1="15.00" y1="15.00" x2="15.00" y2="282.00"/>
  <line x1="30.00" y1="15.00" x2="30.00" y2="282.00"/>
  <line x1="45.00" y1="15.00" x2="45.00" y2="282.00"/>
  <line x1="60.00" y1="15.00" x2="60.00" y2="282.00"/>
  <line x1="75.00" y1="15.00" x2="75.00" y2="282.00"/>
  <line x1="90.00" y1="15.00" x2="90.00" y2="282.00"/>
  <line x1="105.00" y1="15.00" x2="105.00" y2="282.00"/>
  <line x1="120.00" y1="15.00" x2="120.00" y2="282.00"/>
  <line x1="135.00" y1="15.00" x2="135.00" y2="282.00"/>
  <line x1="150.00" y1="15.00" x2="150.00" y2="282.00"/>
  <line x1="165.00" y1="15.00" x2="165.00" y2="282.00"/>
  <line x1="180.00" y1="15.00" x2="180.00" y2="282.00"/>
  <line x1="195.00" y1="15.00" x2="195.00" y2="282.00"/>
  </g>
<g class="chars">
<g transform="translate(15.0,15.0) scale(0.00732421875,0.00732421875)"><g fill="#222"><path d="M 531 540 Q 500 552 450 571.5 Q 400 591 372 599 Q 344 607 313 610 L 263 616 Q 244 619 240 607.5 Q 236 596 257 586 L 308 562 Q 341 547 401 513 Q 461 479 498.5 455.5 Q 536 432 585 395 Q 634 358 659.5 335.5 Q 685 313 701.5 294.5 Q 718 276 728 256 Q 738 236 745 231.5 Q 752 227 772 232 Q 792 238 818 254 Q 844 270 869.5 290.5 Q 895 311 906.5 334.5 Q 918 358 911 371 Q 904 383 884 388 L 850 396 L 803 413 Q 779 422 739 439.5 Q 699 457 687 463 L 621 497 L 531 540 Z"/><path d="M 672 771 Q 697 766 721 761.5 Q 745 757 772 751 Q 799 745 817 745 Q 836 746 864 755 Q 892 764 909 773.5 Q 926 783 927.5 793 Q 929 803 917.5 813 Q 906 823 889 825 L 839 833 L 756 844 L 664 862 L 530 893 L 422 922 Q 410 925 377.5 935.5 Q 345 946 316 957 Q 287 968 277 969 Q 255 972 220 959.5 Q 185 947 161.5 934.5 Q 138 922 129 908.5 Q 120 895 124 885.5 Q 128 876 152 872 L 211 864 Q 258 858 322 844 L 470 812 L 517 803 L 565 792 L 672 771 Z"/><path d="M 565 792 L 566 749 Q 566 723 562.5 685.5 Q 559 648 554.5 615 Q 550 582 544 569 L 531 540 L 621 497 Q 648 510 661 516.5 Q 674 523 691.5 535.5 Q 709 548 712 561 Q 715 574 704 602 Q 693 630 686.5 661 Q 680 692 678 716 L 672 771 L 664 862 L 659 936 L 656 1023 L 655 1066 L 660 1607 Q 660 1654 659 1666 Q 658 1678 651.5 1704 Q 645 1730 638 1749 Q 631 1768 616 1794 Q 601 1820 585 1819 Q 573 1819 558 1804 Q 543 1789 528 1744.5 Q 513 1700 508 1682.5 Q 503 1665 504 1645 Q 504 1633 512 1601 Q 520 1569 529.5 1511.5 Q 539 1454 544 1415.5 Q 549 1377 553.5 1322 Q 558 1267 559 1236 L 561 1092 L 565 792 Z"/><path d="M 561 1092 Q 537 1132 525.5 1150 Q 514 1168 488 1208 Q 462 1248 418 1301.5 Q 374 1355 329.5 1395.5 Q 285 1436 242.5 1464 Q 200 1492 172 1505 L 119 1531 Q 99 1541 91 1530 Q 83 1519 100 1503 L 150 1458 Q 168 1442 207 1400 Q 246 1358 281.5 1316.5 Q 317 1275 363 1209 Q 409 1143 448.5 1070 Q 488 997 520 918 L 530 893 Q 675.5 795.5 561 1092 Z"/><path d="M 656 1023 L 666 1024 L 688 1029 Q 702 1033 741.5 1048.5 Q 781 1064 810 1077 Q 839 1090 859 1105.5 Q 879 1121 890.5 1137.5 Q 902 1154 904.5 1181 Q 907 1208 900 1228 Q 893 1247 880.5 1257.5 Q 868 1268 855.5 1269.5 Q 843 1271 822 1255 Q 806 1244 783 1219.5 Q 760 1195 741 1172 L 694 1113 L 655 1066 L 656 1023 Z"/><path d="M 914 870 Q 909 860 912.5 855.5 Q 916 851 926 850 Q 931 850 942 853 L 985 865 Q 1027 878 1063.5 905 Q 1100 932 1105 994 Q 1110 1056 1081.5 1069 Q 1053 1082 1027 1070 Q 996 1057 966 980 L 914 870 Z"/><path d="M 1299 1018 Q 1357 964 1388.5 930 Q 1420 896 1457 846 Q 1494 796 1511 768 Q 1528 740 1541 712 L 1566 654 Q 1573 637 1581.5 631.5 Q 1590 626 1600 625 Q 1611 625 1642 644.5 Q 1673 664 1694 684 Q 1715 704 1730 726.5 Q 1745 749 1746 759.5 Q 1747 770 1744 778 Q 1738 790 1710 802 Q 1682 814 1645.5 835 Q 1609 856 1580 874.5 Q 1551 893 1504 925 Q 1457 957 1430 973 L 1344 1025 Q 1331 1033 1329 1033 L 1314 1036 Q 1286.5 1041 1299 1018 Z"/><path d="M 1287 1089 Q 1279 1130 1270.5 1166 Q 1262 1202 1232.5 1273.5 Q 1203 1345 1165.5 1407.5 Q 1128 1470 1087 1512.5 Q 1046 1555 988 1594 Q 930 1633 896.5 1645.5 Q 863 1658 819 1670 L 775 1682 Q 758 1687 754 1676 Q 750 1665 770 1652 L 847 1603 Q 881 1581 940.5 1525 Q 1000 1469 1042 1411 Q 1084 1353 1118 1271.5 Q 1152 1190 1171 1103.5 Q 1190 1017 1200 887.5 Q 1210 758 1210 674 L 1210 500 Q 1210 466 1201 414.5 Q 1192 363 1185.5 348.5 Q 1179 334 1170 317.5 Q 1161 301 1164 293 Q 1165 289 1173.5 282 Q 1182 275 1210 276 Q 1247 278 1283.5 288.5 Q 1320 299 1341 311 Q 1362 323 1366 332 Q 1370 341 1366 356 Q 1365 359 1354 387 Q 1343 415 1341 447 L 1339 501 L 1331 642 Q 1318 863 1314 896 L 1299 1018 L 1287 1089 Z"/><path d="M 1314 1036 Q 1363 1128 1393.5 1175.5 Q 1424 1223 1489.5 1306 Q 1555 1389 1599 1430 Q 1643 1471 1724 1527 Q 1805 1583 1863 1611 L 1932 1645 Q 1954 1657 1955 1667 Q 1956 1677 1942 1679 L 1892 1687 Q 1855 1693 1811 1697 Q 1767 1701 1711 1700 Q 1656 1700 1628 1686.5 Q 1600 1673 1550 1596.5 Q 1500 1520 1441 1418 Q 1382 1316 1346 1228 L 1287 1089 Q 1250.5 955.5 1314 1036 Z"/></g></g>
</g>

<g class="page-number"><text x="105.0" y="292.0" font-size="3" fill="#999" font-family="sans-serif" text-anchor="middle">- 1 -</text></g>
</svg>