<svg xmlns="http://www.w3.org/2000/svg" viewBox="0 0 210.0 297.0" width="210.0mm" height="297.0mm">
<rect x="0" y="0" width="210.0" height="297.0" fill="white"/>
<rect x="0.5" y="0.5" width="209.0" height="296.0" fill="none" stroke="#aaa" stroke-width="0.4"/>
<g class="grid" fill="none" stroke="#c8c8c8" stroke-width="0.2">
  <line x1="15.00" y1="15.00" x2="195.00" y2="15.00"/>
  <line x1="15.00" y1="30.00" x2="195.00" y2="30.00"/>
  <line x1="15.00" y1="45.00" x2="195.00" y2="45.00"/>
  <line x1="15.00" y1="60.00" x2="195.00" y2="60.00"/>
  <line x1="15.00" y1="75.00" x2="195.00" y2="75.00"/>
  <line x1="15.00" y1="90.00" x2="195.00" y2="90.00"/>
  <line x1="15.00" y1="105.00" x2="195.00" y2="105.00"/>
  <line x1="15.00" y1="120.00" x2="195.00" y2="120.00"/>
  <line x1="15.00" y1="135.00" x2="195.00" y2="135.00"/>
  <line x1="15.00" y1="150.00" x2="195.00" y2="150.00"/>
  <line x1="15.00" y1="165.00" x2="195.00" y2="165.00"/>
  <line x1="15.00" y1="180.00" x2="195.00" y2="180.00"/>
  <line x1="15.00" y1="195.00" x2="195.00" y2="195.00"/>
  <line x1="15.00" y1="210.00" x2="195.00" y2="210.00"/>
  <line x1="15.00" y1="225.00" x2="195.00" y2="225.00"/>
  <line x1="15.00" y1="240.00" x2="195.00" y2="240.00"/>
  <line x1="15.00" y1="255.00" x2="195.00" y2="255.00"/>
  <line x1="15.00" y1="270.00" x2="195.00" y2="270.00"/>
  <line x1="15.00" y1="282.00" x2="195.00" y2="282.00"/>
  <line x1="15.00" y1="15.00" x2="15.00" y2="282.00"/>
  <line x1="30.00" y1="15.00" x2="30.00" y2="282.00"/>
  <line x1="45.00" y1="15.00" x2="45.00" y2="282.00"/>
  <line x1="60.00" y1="15.00" x2="60.00" y2="282.00"/>
  <line x1="75.00" y1="15.00" x2="75.00" y2="282.00"/>
  <line x1="90.00" y1="15.00" x2="90.00" y2="282.00"/>
  <line x1="105.00" y1="15.00" x2="105.00" y2="282.00"/>
  <line x1="120.00" y1="15.00" x2="120.00" y2="282.00"/>
  <line x1="135.00" y1="15.00" x2="135.00" y2="282.00"/>
  <line x1="150.00" y1="15.00" x2="150.00" y2="282.00"/>
  <line x1="165.00" y1="15.00" x2="165.00" y2="282.00"/>
  <line x1="180.00" y1="15.00" x2="180.00" y2="282.00"/>
  <line x1="195.00" y1="15.00" x2="195.00" y2="282.00"/>
  </g>
<g class="chars">
<g transform="translate(15.0,15.0) scale(0.00732421875,0.00732421875)"><g fill="#222"><path d="M 1236.0 1518.0 Q 1435.0 1594.0 1626.0 1702.0 Q 1836.0 1822.0 1836.0 1917.0 Q 1836.0 1974.0 1784.0 1974.0 Q 1749.0 1974.0 1692.0 1898.0 Q 1623.0 1805.0 1496.0 1715.0 Q 1452.0 1684.0 1224.0 1553.0 M 710.0 1485.0 L 797.0 1542.0 Q 855.0 1580.0 855.0 1595.0 Q 855.0 1617.0 808.0 1617.0 L 757.0 1617.0 Q 739.0 1632.0 730.0 1640.0 Q 568.0 1781.0 422.0 1858.0 Q 335.0 1904.0 179.0 1966.0 L 163.0 1932.0 Q 194.0 1914.0 210.0 1905.0 Q 411.0 1793.0 531.0 1691.0 Q 620.0 1616.0 710.0 1485.0 M 954.0 716.0 L 1036.0 716.0 L 1097.0 642.0 L 1169.0 691.0 Q 1211.0 720.0 1211.0 741.0 Q 1211.0 756.0 1147.0 793.0 L 1147.0 1054.0 L 1179.0 1081.0 Q 1203.0 1100.0 1203.0 1111.0 Q 1203.0 1133.0 1185.0 1133.0 L 945.0 1133.0 Q 945.0 1167.0 898.0 1167.0 Q 857.0 1167.0 857.0 1133.0 L 857.0 793.0 Q 857.0 743.0 850.0 651.0 M 945.0 1076.0 L 1059.0 1076.0 L 1059.0 769.0 L 945.0 769.0 M 1039.0 454.0 L 1105.0 386.0 L 1199.0 460.0 Q 1215.0 473.0 1215.0 486.0 Q 1215.0 512.0 1188.0 512.0 L 988.0 512.0 Q 919.0 512.0 841.0 523.0 L 800.0 437.0 Q 925.0 454.0 988.0 454.0 M 303.0 1414.0 L 266.0 385.0 Q 259.0 245.0 254.0 209.0 L 342.0 280.0 Q 428.0 213.0 497.0 109.0 L 593.0 183.0 Q 621.0 205.0 621.0 221.0 Q 621.0 246.0 586.0 243.0 L 582.0 243.0 L 540.0 239.0 Q 471.0 284.0 354.0 332.0 L 366.0 659.0 L 423.0 659.0 L 503.0 578.0 L 617.0 664.0 Q 634.0 676.0 634.0 690.0 Q 634.0 716.0 607.0 716.0 L 366.0 716.0 L 379.0 1009.0 L 438.0 1009.0 L 518.0 928.0 L 632.0 1014.0 Q 649.0 1027.0 649.0 1040.0 Q 649.0 1066.0 622.0 1066.0 L 379.0 1066.0 L 393.0 1414.0 L 673.0 1414.0 L 673.0 280.0 L 669.0 208.0 Q 664.0 141.0 659.0 106.0 L 781.0 196.0 L 1237.0 196.0 L 1298.0 124.0 L 1370.0 174.0 Q 1412.0 203.0 1412.0 223.0 Q 1412.0 239.0 1346.0 275.0 L 1346.0 1414.0 L 1631.0 1414.0 L 1641.0 1059.0 L 1583.0 1059.0 Q 1515.0 1059.0 1435.0 1070.0 L 1395.0 984.0 Q 1516.0 1001.0 1583.0 1001.0 L 1641.0 1001.0 L 1650.0 686.0 L 1583.0 686.0 Q 1520.0 686.0 1435.0 697.0 L 1395.0 611.0 Q 1517.0 629.0 1583.0 629.0 L 1650.0 629.0 L 1657.0 317.0 L 1604.0 317.0 Q 1534.0 317.0 1455.0 328.0 L 1416.0 243.0 Q 1533.0 260.0 1604.0 260.0 L 1631.0 260.0 L 1698.0 183.0 L 1781.0 239.0 Q 1822.0 266.0 1822.0 287.0 Q 1822.0 315.0 1744.0 348.0 L 1718.0 1414.0 L 1751.0 1414.0 L 1849.0 1313.0 L 1970.0 1420.0 Q 1987.0 1435.0 1987.0 1446.0 Q 1987.0 1472.0 1960.0 1472.0 L 266.0 1472.0 Q 198.0 1472.0 117.0 1483.0 L 78.0 1397.0 Q 192.0 1414.0 266.0 1414.0 M 1255.0 1414.0 L 1255.0 252.0 L 761.0 252.0 L 761.0 1414.0 Z"/></g></g>
</g>

<g class="page-number"><text x="105.0" y="292.0" font-size="3" fill="#999" font-family="sans-serif" text-anchor="middle">- 1 -</text></g>
</svg>