<svg xmlns="http://www.w3.org/2000/svg" viewBox="0 0 210.0 297.0" width="210.0mm" height="297.0mm">
<rect x="0" y="0" width="210.0" height="297.0" fill="white"/>
<rect x="0.5" y="0.5" width="209.0" height="296.0" fill="none" stroke="#aaa" stroke-width="0.4"/>
<g class="grid" fill="none" stroke="#c8c8c8" stroke-width="0.2">
  <line x1="15.00" y1="15.00" x2="195.00" y2="15.00"/>
  <line x1="15.00" y1="30.00" x2="195.00" y2="30.00"/>
  <line x1="15.00" y1="45.00" x2="195.00" y2="45.00"/>
  <line x1="15.00" y1="60.00" x2="195.00" y2="60.00"/>
  <line x1="15.00" y1="75.00" x2="195.00" y2="75.00"/>
  <line x1="15.00" y1="90.00" x2="195.00" y2="90.00"/>
  <line x1="15.00" y1="105.00" x2="195.00" y2="105.00"/>
  <line x1="15.00" y1="120.00" x2="195.00" y2="120.00"/>
  <line x1="15.00" y1="135.00" x2="195.00" y2="135.00"/>
  <line x1="15.00" y1="150.00" x2="195.00" y2="150.00"/>
  <line x1="15.00" y1="165.00" x2="195.00" y2="165.00"/>
  <line x1="15.00" y1="180.00" x2="195.00" y2="180.00"/>
  <line x1="15.00" y1="195.00" x2="195.00" y2="195.00"/>
  <line x1="15.00" y1="210.00" x2="195.00" y2="210.00"/>
  <line x1="15.00" y1="225.00" x2="195.00" y2="225.00"/>
  <line x1="15.00" y1="240.00" x2="195.00" y2="240.00"/>
  <line x1="15.00" y1="255.00" x2="195.00" y2="255.00"/>
  <line x1="15.00" y1="270.00" x2="195.00" y2="270.00"/>
  <line x1="15.00" y1="282.00" x2="195.00" y2="282.00"/>
  <line x1="15.00" y1="15.00" x2="15.00" y2="282.00"/>
  <line x1="30.00" y1="15.00" x2="30.00" y2="282.00"/>
  <line x1="45.00" y1="15.00" x2="45.00" y2="282.00"/>
  <line x1="60.00" y1="15.00" x2="60.00" y2="282.00"/>
  <line x1="75.00" y1="15.00" x2="75.00" y2="282.00"/>
  <line x1="90.00" y1="15.00" x2="90.00" y2="282.00"/>
  <line x1="105.00" y1="15.00" x2="105.00" y2="282.00"/>
  <line x1="120.00" y1="15.00" x2="120.00" y2="282.00"/>
  <line x1="135.00" y1="15.00" x2="135.00" y2="282.00"/>
  <line x1="150.00" y1="15.00" x2="150.00" y2="282.00"/>
  <line x1="165.00" y1="15.00" x2="165.00" y2="282.00"/>
  <line x1="180.00" y1="15.00" x2="180.00" y2="282.00"/>
  <line x1="195.00" y1="15.00" x2="195.00" y2="282.00"/>
  </g>
<g class="chars">
<g transform="translate(15.0,15.0) scale(0.00732421875,0.00732421875)"><g fill="#222"><path d="M 734 1204 Q 731 1193 727.5 1177.5 Q 724 1162 723 1145 Q 720 1118 725.5 1049.5 Q 731 981 730 937 L 716 560 Q 713 494 708.5 451.5 Q 704 409 694.5 376.5 Q 685 344 674.5 325.5 Q 664 307 662.5 296 Q 661 285 668 277 Q 675 269 702 274 Q 721 278 754 289 L 789 301 L 796 351 L 806 709 L 806 724 Q 809 905 811 944 L 816 1137 L 809 1193 Q 771.5 1258.5 734 1204 Z"/><path d="M 789 301 Q 879 284 912.5 277 Q 946 270 1039 247.5 Q 1132 225 1164 208 Q 1196 191 1207 190 Q 1219 190 1239.5 198 Q 1260 206 1296 226 Q 1332 246 1344.5 261.5 Q 1357 277 1359 287.5 Q 1361 298 1331 363 Q 1321 384 1318 418 L 1313 494 L 1266 1165 Q 1219.5 1209 1177 1169 L 1200 512 L 1202 429 Q 1202 395 1203 387 L 1203 353 Q 1203 306 1190 290 Q 1185 285 1179 282.5 Q 1173 280 1158 279.5 Q 1143 279 1102 288 L 984 314 Q 923 328 880.5 340 Q 838 352 829 351 L 796 351 L 789 301 Z"/><path d="M 871 512 L 930 497 Q 950 492 984.5 476.5 Q 1019 461 1031.5 458.5 Q 1044 456 1055 455 Q 1071 455 1093.5 460 Q 1116 465 1131.5 471 Q 1147 477 1149 482.5 Q 1151 488 1150 492 Q 1147 497 1137 501.5 Q 1127 506 1111 509 L 1051 522 L 962 549 Q 934 558 921.5 559.5 Q 909 561 905 561 Q 900 562 871 556.5 Q 842 551 831.5 543 Q 821 535 822.5 530.5 Q 824 526 826 524.5 Q 828 523 871 512 Z"/><path d="M 806 709 Q 847 706 856 707 L 898 714 Q 928 721.5 938 749 Q 936 836 938 857 L 942 927 L 940 974 Q 937 987 931 999 Q 925 1011 917 1010.5 Q 909 1010 906 1007.5 Q 903 1005 894 992.5 Q 885 980 878 963.5 Q 871 947 868 912 L 863 860 Q 858 813 848 782.5 Q 838 752 831 746 L 806 724 L 806 709 Z"/><path d="M 898 714 Q 937 706 971.5 699.5 Q 1006 693 1033 678 Q 1060 663 1068 662 Q 1077 662 1089 665.5 Q 1101 669 1124 680 Q 1147 691 1161 701.5 Q 1175 712 1175 722 Q 1174 728 1163 745 Q 1152 762 1140 794.5 Q 1128 827 1116 887 L 1108 925 Q 1060.5 954.5 1041 912 Q 1047 888 1049 875 L 1056 786 Q 1065 745 1058 737.5 Q 1051 730 1040.5 729.5 Q 1030 729 977 740 L 938 749 L 898 714 Z"/><path d="M 1108 925 Q 1118 935 1129 946.5 Q 1140 958 1136.5 961.5 Q 1133 965 1127 967.5 Q 1121 970 1095 965 L 980 975 L 940 974 L 942 927 L 1041 912 L 1108 925 Z"/><path d="M 419 490 Q 448 444 465 416 Q 482 388 495 361 L 527 289 Q 533 276 536 260 Q 539 244 544 242 Q 547 241 559 244.5 Q 571 248 588 258.5 Q 605 269 633.5 301 Q 662 333 653 349 Q 649 356 630.5 366 Q 612 376 580 398 Q 548 420 529.5 435 Q 511 450 476 481 L 450 504 Q 410.5 525 419 490 Z"/><path d="M 433 1232 Q 421 1209 417 1197 Q 413 1185 408 1095 L 388 795 Q 385 751 376 686 Q 367 621 356 586.5 Q 345 552 330.5 529.5 Q 316 507 312 498 Q 308 489 311.5 481 Q 315 473 325.5 471 Q 336 469 349 470 Q 378 474 386 477 L 419 490 L 450 504 Q 465 511 469 517 Q 473 523 474 530.5 Q 475 538 473.5 554.5 Q 472 571 473 620 L 475 717 L 483 775 L 490 946 L 495 1004 L 500 1226 Q 470.5 1277 433 1232 Z"/><path d="M 475 717 Q 517 706 548 693.5 Q 579 681 591 680 Q 603 680 633 687 Q 663 694 670 709 Q 677 724 671 734 Q 666 741 640.5 749.5 Q 615 758 604 760 L 564 765 L 483 775 L 475 717 Z"/><path d="M 490 946 Q 560 923 586.5 917 Q 613 911 622 910 Q 643 909 672 928.5 Q 701 948 690 966 Q 686 973 667.5 980 Q 649 987 624 990.5 Q 599 994 557 998 L 495 1004 L 490 946 Z"/><path d="M 1474 1149 L 1511 919 L 1521 855 L 1541 680 L 1550 608 Q 1555 557 1559.5 517 Q 1564 477 1563 449 Q 1562 427 1554 417.5 Q 1546 408 1523 406 Q 1515 406 1478.5 411.5 Q 1442 417 1418 415 Q 1384 414 1368 406 Q 1352 398 1347.5 390 Q 1343 382 1345.5 376.5 Q 1348 371 1367 368 L 1405 363 Q 1432 360 1493 344 Q 1554 328 1571 320 Q 1588 312 1595 311 Q 1606 310 1619.5 316 Q 1633 322 1668 339.5 Q 1703 357 1713.5 368 Q 1724 379 1725.5 386.5 Q 1727 394 1721 410 Q 1713 430 1700 471 Q 1687 512 1682 544 L 1571 1142 Q 1510.5 1199.5 1474 1149 Z"/><path d="M 1541 680 Q 1491 684 1459 688.5 Q 1427 693 1415 692 Q 1405 692 1386.5 687.5 Q 1368 683 1349.5 668.5 Q 1331 654 1338 642 Q 1341 637 1355 633 L 1397 628 L 1550 608 L 1541 680 Z"/><path d="M 1511 919 Q 1469 923 1433.5 927.5 Q 1398 932 1387 932 Q 1370 933 1350 929.5 Q 1330 926 1314 910.5 Q 1298 895 1306 885 Q 1309 882 1318 880 L 1342 878 L 1387 870 L 1451 857 Q 1479 852 1491 853 L 1521 855 L 1511 919 Z"/><path d="M 500 1226 L 734 1204 L 809 1193 L 1177 1169 L 1266 1165 L 1474 1149 L 1571 1142 Q 1654 1130 1691 1126 Q 1728 1122 1746 1119 Q 1764 1116 1772 1116 Q 1784 1117 1814 1125.5 Q 1844 1134 1885.5 1152.5 Q 1927 1171 1943.5 1188 Q 1960 1205 1960.5 1214 Q 1961 1223 1958 1228.5 Q 1955 1234 1936.5 1240 Q 1918 1246 1870 1245 L 1747 1245 L 1424 1243 Q 1319 1243 1184 1246.5 Q 1049 1250 838.5 1267.5 Q 628 1285 527 1300 L 354 1327 Q 342 1329 309 1337.5 Q 276 1346 258 1346 Q 239 1347 215.5 1340 Q 192 1333 150.5 1312.5 Q 109 1292 99 1285 Q 89 1278 87 1269 Q 85 1260 89 1253 Q 94 1244 119 1243 L 183 1243 L 267 1238 Q 313 1236 361 1234 L 433 1232 L 500 1226 Z"/><path d="M 293 1819 L 333 1787 Q 349 1774 406.5 1721 Q 464 1668 500 1630 Q 536 1592 573 1541.5 Q 610 1491 622 1462.5 Q 634 1434 634.5 1409 Q 635 1384 637 1378 Q 639 1372 645 1366 Q 651 1360 671 1360 Q 680 1361 703 1365.5 Q 726 1370 744.5 1378 Q 763 1386 800.5 1405 Q 838 1424 848.5 1441 Q 859 1458 854 1470 Q 850 1478 829.5 1489 Q 809 1500 782 1523 Q 755 1546 691.5 1602 Q 628 1658 593 1684.5 Q 558 1711 480.5 1762 Q 403 1813 363 1828 L 307 1850 Q 281 1860 274 1857.5 Q 267 1855 266 1848.5 Q 265 1842 293 1819 Z"/><path d="M 1208 1421 Q 1203 1412 1204 1405 Q 1205 1398 1210 1395.5 Q 1215 1393 1224 1394 Q 1238 1397 1250.5 1400.5 Q 1263 1404 1313.5 1425 Q 1364 1446 1408 1470 Q 1452 1494 1509.5 1543.5 Q 1567 1593 1592.5 1640.5 Q 1618 1688 1623 1730.5 Q 1628 1773 1612 1807.5 Q 1596 1842 1578.5 1848 Q 1561 1854 1535 1838 Q 1515 1827 1486 1792 Q 1457 1757 1432 1720 L 1362 1613 Q 1321 1553 1279 1503 L 1229 1446 L 1208 1421 Z"/></g></g>
</g>

<g class="page-number"><text x="105.0" y="292.0" font-size="3" fill="#999" font-family="sans-serif" text-anchor="middle">- 1 -</text></g>
</svg>