<svg xmlns="http://www.w3.org/2000/svg" viewBox="0 0 210.0 297.0" width="210.0mm" height="297.0mm">
<rect x="0" y="0" width="210.0" height="297.0" fill="white"/>
<rect x="0.5" y="0.5" width="209.0" height="296.0" fill="none" stroke="#aaa" stroke-width="0.4"/>
<g class="grid" fill="none" stroke="#c8c8c8" stroke-width="0.2">
  <line x1="15.00" y1="15.00" x2="195.00" y2="15.00"/>
  <line x1="15.00" y1="30.00" x2="195.00" y2="30.00"/>
  <line x1="15.00" y1="45.00" x2="195.00" y2="45.00"/>
  <line x1="15.00" y1="60.00" x2="195.00" y2="60.00"/>
  <line x1="15.00" y1="75.00" x2="195.00" y2="75.00"/>
  <line x1="15.00" y1="90.00" x2="195.00" y2="90.00"/>
  <line x1="15.00" y1="105.00" x2="195.00" y2="105.00"/>
  <line x1="15.00" y1="120.00" x2="195.00" y2="120.00"/>
  <line x1="15.00" y1="135.00" x2="195.00" y2="135.00"/>
  <line x1="15.00" y1="150.00" x2="195.00" y2="150.00"/>
  <line x1="15.00" y1="165.00" x2="195.00" y2="165.00"/>
  <line x1="15.00" y1="180.00" x2="195.00" y2="180.00"/>
  <line x1="15.00" y1="195.00" x2="195.00" y2="195.00"/>
  <line x1="15.00" y1="210.00" x2="195.00" y2="210.00"/>
  <line x1="15.00" y1="225.00" x2="195.00" y2="225.00"/>
  <line x1="15.00" y1="240.00" x2="195.00" y2="240.00"/>
  <line x1="15.00" y1="255.00" x2="195.00" y2="255.00"/>
  <line x1="15.00" y1="270.00" x2="195.00" y2="270.00"/>
  <line x1="15.00" y1="282.00" x2="195.00" y2="282.00"/>
  <line x1="15.00" y1="15.00" x2="15.00" y2="282.00"/>
  <line x1="30.00" y1="15.00" x2="30.00" y2="282.00"/>
  <line x1="45.00" y1="15.00" x2="45.00" y2="282.00"/>
  <line x1="60.00" y1="15.00" x2="60.00" y2="282.00"/>
  <line x1="75.00" y1="15.00" x2="75.00" y2="282.00"/>
  <line x1="90.00" y1="15.00" x2="90.00" y2="282.00"/>
  <line x1="105.00" y1="15.00" x2="105.00" y2="282.00"/>
  <line x1="120.00" y1="15.00" x2="120.00" y2="282.00"/>
  <line x1="135.00" y1="15.00" x2="135.00" y2="282.00"/>
  <line x1="150.00" y1="15.00" x2="150.00" y2="282.00"/>
  <line x1="165.00" y1="15.00" x2="165.00" y2="282.00"/>
  <line x1="180.00" y1="15.00" x2="180.00" y2="282.00"/>
  <line x1="195.00" y1="15.00" x2="195.00" y2="282.00"/>
  </g>
<g class="chars">
<g transform="translate(15.0,15.0) scale(0.00732421875,0.00732421875)"><g fill="#222"><path d="M 373.0 640.0 Q 262.0 708.0 192.0 744.0 L 166.0 704.0 Q 396.0 558.0 495.0 447.0 Q 621.0 305.0 713.0 66.0 L 833.0 103.0 Q 875.0 116.0 875.0 142.0 Q 875.0 165.0 833.0 170.0 L 789.0 176.0 Q 760.0 231.0 730.0 280.0 L 1263.0 280.0 L 1339.0 207.0 L 1433.0 286.0 Q 1462.0 310.0 1462.0 330.0 Q 1462.0 358.0 1421.0 362.0 L 1365.0 366.0 Q 1233.0 531.0 1076.0 666.0 L 1569.0 666.0 L 1637.0 590.0 L 1720.0 644.0 Q 1760.0 670.0 1760.0 692.0 Q 1760.0 719.0 1683.0 753.0 L 1683.0 1206.0 Q 1683.0 1260.0 1694.0 1429.0 Q 1695.0 1437.0 1695.0 1442.0 Q 1695.0 1488.0 1625.0 1488.0 Q 1589.0 1488.0 1589.0 1463.0 L 1589.0 1418.0 L 474.0 1418.0 L 474.0 1472.0 Q 474.0 1509.0 424.0 1509.0 Q 362.0 1509.0 366.0 1453.0 L 370.0 1392.0 L 374.0 1312.0 L 378.0 1236.0 L 378.0 753.0 Q 378.0 740.0 375.0 681.0 Q 374.0 667.0 373.0 640.0 M 414.0 613.0 L 486.0 666.0 L 1011.0 666.0 Q 1151.0 519.0 1255.0 337.0 L 697.0 337.0 Q 577.0 483.0 502.0 545.0 Q 480.0 564.0 414.0 613.0 M 1069.0 723.0 L 1069.0 1010.0 L 1589.0 1010.0 L 1589.0 723.0 M 973.0 723.0 L 474.0 723.0 L 474.0 1010.0 L 973.0 1010.0 M 474.0 1064.0 L 474.0 1362.0 L 973.0 1362.0 L 973.0 1064.0 M 1589.0 1362.0 L 1589.0 1064.0 L 1069.0 1064.0 L 1069.0 1362.0 M 392.0 1567.0 L 430.0 1576.0 Q 404.0 1721.0 357.0 1808.0 Q 277.0 1954.0 176.0 1954.0 Q 152.0 1954.0 133.5 1938.5 Q 115.0 1923.0 115.0 1902.0 Q 115.0 1878.0 191.0 1836.0 Q 277.0 1790.0 328.0 1715.0 Q 362.0 1664.0 392.0 1567.0 M 734.0 1548.0 Q 863.0 1731.0 863.0 1839.0 Q 863.0 1932.0 801.0 1932.0 Q 756.0 1932.0 753.0 1854.0 Q 750.0 1755.0 738.0 1694.0 Q 733.0 1663.0 702.0 1568.0 M 1179.0 1548.0 Q 1204.0 1571.0 1216.0 1583.0 Q 1391.0 1740.0 1391.0 1840.0 Q 1391.0 1891.0 1360.0 1912.0 Q 1347.0 1921.0 1334.0 1921.0 Q 1292.0 1921.0 1281.0 1852.0 Q 1259.0 1716.0 1150.0 1576.0 M 1624.0 1568.0 Q 1765.0 1653.0 1828.0 1708.0 Q 1936.0 1801.0 1936.0 1886.0 Q 1936.0 1955.0 1879.0 1955.0 Q 1841.0 1955.0 1821.0 1898.0 Q 1792.0 1815.0 1734.0 1732.0 Q 1698.0 1680.0 1600.0 1602.0 Z"/></g></g>
</g>

<g class="page-number"><text x="105.0" y="292.0" font-size="3" fill="#999" font-family="sans-serif" text-anchor="middle">- 1 -</text></g>
</svg>