<svg xmlns="http://www.w3.org/2000/svg" viewBox="0 0 210.0 297.0" width="210.0mm" height="297.0mm">
<rect x="0" y="0" width="210.0" height="297.0" fill="white"/>
<rect x="0.5" y="0.5" width="209.0" height="296.0" fill="none" stroke="#aaa" stroke-width="0.4"/>
<g class="grid" fill="none" stroke="#c8c8c8" stroke-width="0.2">
  <line x1="15.00" y1="15.00" x2="195.00" y2="15.00"/>
  <line x1="15.00" y1="30.00" x2="195.00" y2="30.00"/>
  <line x1="15.00" y1="45.00" x2="195.00" y2="45.00"/>
  <line x1="15.00" y1="60.00" x2="195.00" y2="60.00"/>
  <line x1="15.00" y1="75.00" x2="195.00" y2="75.00"/>
  <line x1="15.00" y1="90.00" x2="195.00" y2="90.00"/>
  <line x1="15.00" y1="105.00" x2="195.00" y2="105.00"/>
  <line x1="15.00" y1="120.00" x2="195.00" y2="120.00"/>
  <line x1="15.00" y1="135.00" x2="195.00" y2="135.00"/>
  <line x1="15.00" y1="150.00" x2="195.00" y2="150.00"/>
  <line x1="15.00" y1="165.00" x2="195.00" y2="165.00"/>
  <line x1="15.00" y1="180.00" x2="195.00" y2="180.00"/>
  <line x1="15.00" y1="195.00" x2="195.00" y2="195.00"/>
  <line x1="15.00" y1="210.00" x2="195.00" y2="210.00"/>
  <line x1="15.00" y1="225.00" x2="195.00" y2="225.00"/>
  <line x1="15.00" y1="240.00" x2="195.00" y2="240.00"/>
  <line x1="15.00" y1="255.00" x2="195.00" y2="255.00"/>
  <line x1="15.00" y1="270.00" x2="195.00" y2="270.00"/>
  <line x1="15.00" y1="282.00" x2="195.00" y2="282.00"/>
  <line x1="15.00" y1="15.00" x2="15.00" y2="282.00"/>
  <line x1="30.00" y1="15.00" x2="30.00" y2="282.00"/>
  <line x1="45.00" y1="15.00" x2="45.00" y2="282.00"/>
  <line x1="60.00" y1="15.00" x2="60.00" y2="282.00"/>
  <line x1="75.00" y1="15.00" x2="75.00" y2="282.00"/>
  <line x1="90.00" y1="15.00" x2="90.00" y2="282.00"/>
  <line x1="105.00" y1="15.00" x2="105.00" y2="282.00"/>
  <line x1="120.00" y1="15.00" x2="120.00" y2="282.00"/>
  <line x1="135.00" y1="15.00" x2="135.00" y2="282.00"/>
  <line x1="150.00" y1="15.00" x2="150.00" y2="282.00"/>
  <line x1="165.00" y1="15.00" x2="165.00" y2="282.00"/>
  <line x1="180.00" y1="15.00" x2="180.00" y2="282.00"/>
  <line x1="195.00" y1="15.00" x2="195.00" y2="282.00"/>
  </g>
<g class="chars">
<g transform="translate(15.0,15.0) scale(0.00732421875,0.00732421875)"><g fill="#222"><path d="M 868 502 Q 837 528 796.5 562 Q 756 596 734 613 Q 712 630 663 660 Q 614 690 589 700 L 531 724 Q 504 735 500 727.5 Q 496 720 514 705 L 561 666 Q 598 635 623.5 612 Q 649 589 708 525.5 Q 767 462 805.5 414 Q 844 366 870 322.5 Q 896 279 907.5 249 Q 919 219 923 191.5 Q 927 164 935 157 Q 943 150 968 155 Q 987 160 1013 174 L 1068 207 Q 1095 224 1106.5 239 Q 1118 254 1116 266 Q 1114 278 1085 295.5 Q 1056 313 1027 340 Q 998 367 982 385 L 937 435 L 868 502 Z"/><path d="M 937 435 Q 985 429 1020.5 423 Q 1056 417 1095.5 406 Q 1135 395 1171.5 380 Q 1208 365 1218 363 Q 1234 362 1255.5 370 Q 1277 378 1312.5 397.5 Q 1348 417 1360.5 436 Q 1373 455 1369 466 Q 1366 473 1345.5 484.5 Q 1325 496 1296.5 522.5 Q 1268 549 1252 563 Q 1236 577 1229 585 L 1048 796 Q 921.5 880.5 955 815 L 1090 585 L 1116 533 Q 1129 507 1125.5 498.5 Q 1122 490 1086 492 Q 1082 493 1027 499.5 Q 972 506 927 504 L 868 502 Q 767.5 433.5 937 435 Z"/><path d="M 742 1364 Q 739 1385 731 1400 Q 723 1415 706 1417.5 Q 689 1420 670 1387 Q 658 1369 647.5 1316 Q 637 1263 637 1259 L 604 1062 Q 598 1031 588.5 995 Q 579 959 568 932.5 Q 557 906 537 885.5 Q 517 865 511 854 Q 505 843 511 834 Q 517 825 541 826 Q 562 827 597 837 L 642 850 L 689 905 L 715 1073 L 723 1133 L 742 1301 L 742 1364 Z"/><path d="M 1048 796 L 1149 778 Q 1185 772 1232 762.5 Q 1279 753 1306.5 740.5 Q 1334 728 1342 726 Q 1357 724 1386 731.5 Q 1415 739 1465.5 763 Q 1516 787 1543.5 808.5 Q 1571 830 1569 844 Q 1567 851 1553.5 868 Q 1540 885 1519.5 917 Q 1499 949 1488.5 975 Q 1478 1001 1461 1052 L 1397 1245 Q 1383 1285 1370 1316 Q 1357 1347 1333 1370 Q 1309 1393 1285 1387 Q 1260 1382 1248 1351 L 1235 1323 L 1253 1253 Q 1264 1252 1271 1218.5 Q 1278 1185 1285 1161 L 1313 1056 L 1321 1014 L 1335 939 Q 1339 917 1341 884 Q 1343 851 1333 842 Q 1323 833 1293 833 Q 1268 834 1248 836 L 1193 844 L 1024 867 L 909 889 Q 857 895 815.5 899 Q 774 903 757 903 L 689 905 Q 540.5 887.5 642 850 Q 707 844 769 838.5 Q 831 833 849 830 L 955 815 L 1048 796 Z"/><path d="M 715 1073 Q 763 1068 787 1064 L 873 1052 L 938 1045 L 1048 1022 L 1096 1014 Q 1109 1012 1148 1002.5 Q 1187 993 1205 992 Q 1217 992 1251 998 Q 1285 1004 1291 1005 L 1321 1014 Q 1362 1050 1313 1056 L 1045 1098 L 944 1116 Q 900 1123 856 1128.5 Q 812 1134 784 1133 L 723 1133 Q 614 1098 715 1073 Z"/><path d="M 938 1045 L 938 1016 Q 938 1005 932.5 971.5 Q 927 938 924 930 L 909 889 Q 901.5 813 1024 867 Q 1044 879 1055 887.5 Q 1066 896 1067.5 902.5 Q 1069 909 1063 928 Q 1061 932 1054.5 962 Q 1048 992 1048 1000 L 1048 1022 L 1045 1098 L 1041 1267 Q 988 1362.5 955 1278 L 944 1116 L 938 1045 Z"/><path d="M 1235 1323 Q 1148 1331 1085.5 1336.5 Q 1023 1342 957 1348 L 851 1359 Q 798 1365 781 1364 L 742 1364 Q 657 1322.5 742 1301 L 955 1278 L 1041 1267 Q 1083 1263 1102 1260 Q 1121 1257 1158 1250.5 Q 1195 1244 1213 1245 Q 1224 1246 1236.5 1250 Q 1249 1254 1253 1253 Q 1324 1303 1235 1323 Z"/><path d="M 424 1500 L 437 1546 Q 443 1571 444.5 1606.5 Q 446 1642 441 1671 Q 436 1701 421.5 1742.5 Q 407 1784 391 1814 Q 375 1844 348.5 1871 Q 322 1898 301 1895 Q 276 1893 264 1870 Q 252 1847 247.5 1820 Q 243 1793 245 1777 Q 246 1764 255.5 1743.5 Q 265 1723 280 1700 L 317 1645 Q 331 1623 344 1597 Q 357 1571 369 1545 L 389 1498 Q 397 1479 407.5 1479.5 Q 418 1480 424 1500 Z"/><path d="M 665 1548 Q 659 1530 664.5 1524.5 Q 670 1519 689 1524 L 727 1535 Q 765 1547 786 1558 Q 807 1569 834 1592 Q 861 1615 867 1628 Q 873 1641 873 1670 Q 872 1708 867 1727.5 Q 862 1747 850 1762 Q 838 1777 821.5 1780 Q 805 1783 779 1751 Q 765 1736 743 1695 L 707 1633 Q 697 1616 679 1577 L 665 1548 Z"/><path d="M 1007 1520 Q 1001 1503 1006.5 1495 Q 1012 1487 1029 1492 L 1068 1504 Q 1110 1517 1128 1524.5 Q 1146 1532 1171.5 1549 Q 1197 1566 1207.5 1581.5 Q 1218 1597 1221 1625.5 Q 1224 1654 1220 1680 Q 1216 1703 1205.5 1718 Q 1195 1733 1178.5 1737 Q 1162 1741 1135 1712 Q 1119 1697 1096 1661 L 1056 1601 Q 1035 1571 1023 1548 L 1007 1520 Z"/><path d="M 1466 1534 L 1444 1498 Q 1436 1486 1442.5 1478.5 Q 1449 1471 1466 1476 L 1516 1492 Q 1539 1500 1583 1520.5 Q 1627 1541 1660.5 1561.5 Q 1694 1582 1722.5 1608 Q 1751 1634 1767 1658.5 Q 1783 1683 1790.5 1715.5 Q 1798 1748 1801 1793.5 Q 1804 1839 1794.5 1855 Q 1785 1871 1771 1875.5 Q 1757 1880 1736 1870 Q 1709 1859 1683 1832.5 Q 1657 1806 1628 1768.5 Q 1599 1731 1569 1689 Q 1539 1647 1509.5 1603 Q 1480 1559 1466 1534 Z"/></g></g>
</g>

<g class="page-number"><text x="105.0" y="292.0" font-size="3" fill="#999" font-family="sans-serif" text-anchor="middle">- 1 -</text></g>
</svg>