<svg xmlns="http://www.w3.org/2000/svg" viewBox="0 0 210.0 297.0" width="210.0mm" height="297.0mm">
<rect x="0" y="0" width="210.0" height="297.0" fill="white"/>
<rect x="0.5" y="0.5" width="209.0" height="296.0" fill="none" stroke="#aaa" stroke-width="0.4"/>
<g class="grid" fill="none" stroke="#c8c8c8" stroke-width="0.2">
  <line x1="15.00" y1="15.00" x2="195.00" y2="15.00"/>
  <line x1="15.00" y1="30.00" x2="195.00" y2="30.00"/>
  <line x1="15.00" y1="45.00" x2="195.00" y2="45.00"/>
  <line x1="15.00" y1="60.00" x2="195.00" y2="60.00"/>
  <line x1="15.00" y1="75.00" x2="195.00" y2="75.00"/>
  <line x1="15.00" y1="90.00" x2="195.00" y2="90.00"/>
  <line x1="15.00" y1="105.00" x2="195.00" y2="105.00"/>
  <line x1="15.00" y1="120.00" x2="195.00" y2="120.00"/>
  <line x1="15.00" y1="135.00" x2="195.00" y2="135.00"/>
  <line x1="15.00" y1="150.00" x2="195.00" y2="150.00"/>
  <line x1="15.00" y1="165.00" x2="195.00" y2="165.00"/>
  <line x1="15.00" y1="180.00" x2="195.00" y2="180.00"/>
  <line x1="15.00" y1="195.00" x2="195.00" y2="195.00"/>
  <line x1="15.00" y1="210.00" x2="195.00" y2="210.00"/>
  <line x1="15.00" y1="225.00" x2="195.00" y2="225.00"/>
  <line x1="15.00" y1="240.00" x2="195.00" y2="240.00"/>
  <line x1="15.00" y1="255.00" x2="195.00" y2="255.00"/>
  <line x1="15.00" y1="270.00" x2="195.00" y2="270.00"/>
  <line x1="15.00" y1="282.00" x2="195.00" y2="282.00"/>
  <line x1="15.00" y1="15.00" x2="15.00" y2="282.00"/>
  <line x1="30.00" y1="15.00" x2="30.00" y2="282.00"/>
  <line x1="45.00" y1="15.00" x2="45.00" y2="282.00"/>
  <line x1="60.00" y1="15.00" x2="60.00" y2="282.00"/>
  <line x1="75.00" y1="15.00" x2="75.00" y2="282.00"/>
  <line x1="90.00" y1="15.00" x2="90.00" y2="282.00"/>
  <line x1="105.00" y1="15.00" x2="105.00" y2="282.00"/>
  <line x1="120.00" y1="15.00" x2="120.00" y2="282.00"/>
  <line x1="135.00" y1="15.00" x2="135.00" y2="282.00"/>
  <line x1="150.00" y1="15.00" x2="150.00" y2="282.00"/>
  <line x1="165.00" y1="15.00" x2="165.00" y2="282.00"/>
  <line x1="180.00" y1="15.00" x2="180.00" y2="282.00"/>
  <line x1="195.00" y1="15.00" x2="195.00" y2="282.00"/>
  </g>
<g class="chars">
<g transform="translate(15.0,15.0) scale(0.00732421875,0.00732421875)"><g fill="#222"><path d="M 260.0 121.0 L 378.0 193.0 L 1580.0 193.0 L 1641.0 121.0 L 1713.0 171.0 Q 1755.0 200.0 1755.0 220.0 Q 1755.0 236.0 1690.0 273.0 Q 1688.0 427.0 1688.0 505.0 Q 1688.0 1207.0 1772.0 1515.0 Q 1804.0 1631.0 1844.0 1705.0 Q 1865.0 1743.0 1880.0 1743.0 Q 1896.0 1743.0 1905.0 1705.0 L 1962.0 1458.0 L 2000.0 1465.0 L 1970.0 1697.0 Q 1961.0 1764.0 1961.0 1796.0 Q 1961.0 1832.0 1973.0 1875.0 Q 1980.0 1898.0 1980.0 1909.0 Q 1980.0 1943.0 1943.0 1943.0 Q 1826.0 1943.0 1723.0 1684.0 Q 1633.0 1460.0 1607.0 1050.0 Q 1590.0 767.0 1588.0 251.0 L 370.0 251.0 L 370.0 1057.0 Q 370.0 1419.0 321.0 1613.0 Q 270.0 1814.0 118.0 1981.0 L 86.0 1956.0 Q 192.0 1809.0 234.0 1614.0 Q 275.0 1421.0 275.0 1057.0 L 275.0 288.0 Q 275.0 202.0 260.0 121.0 M 490.0 480.0 L 452.0 392.0 Q 547.0 415.0 682.0 415.0 L 1297.0 415.0 L 1376.0 334.0 L 1490.0 420.0 Q 1507.0 432.0 1507.0 446.0 Q 1507.0 472.0 1480.0 472.0 L 1009.0 472.0 Q 951.0 554.0 891.0 636.0 L 1236.0 636.0 L 1297.0 565.0 L 1369.0 614.0 Q 1412.0 643.0 1412.0 664.0 Q 1412.0 680.0 1347.0 716.0 L 1347.0 936.0 Q 1347.0 976.0 1354.0 1040.0 Q 1357.0 1070.0 1357.0 1085.0 Q 1357.0 1133.0 1292.0 1133.0 Q 1248.0 1133.0 1248.0 1107.0 L 1248.0 1076.0 L 667.0 1076.0 L 667.0 1211.0 L 1337.0 1211.0 L 1418.0 1131.0 L 1530.0 1216.0 Q 1548.0 1230.0 1548.0 1242.0 Q 1548.0 1266.0 1523.0 1266.0 L 667.0 1266.0 L 667.0 1400.0 L 1418.0 1400.0 L 1480.0 1329.0 L 1552.0 1378.0 Q 1594.0 1407.0 1594.0 1428.0 Q 1594.0 1444.0 1530.0 1480.0 Q 1503.0 1675.0 1495.0 1713.0 Q 1451.0 1939.0 1268.0 1953.0 Q 1268.0 1911.0 1245.0 1889.0 Q 1218.0 1865.0 1153.0 1840.0 L 1081.0 1814.0 L 1092.0 1774.0 L 1180.0 1800.0 Q 1260.0 1824.0 1293.0 1824.0 Q 1365.0 1824.0 1393.0 1701.0 Q 1411.0 1624.0 1428.0 1457.0 L 654.0 1457.0 Q 652.0 1457.0 650.0 1459.0 Q 626.0 1473.0 592.0 1473.0 Q 568.0 1473.0 568.0 1449.0 L 568.0 565.0 L 678.0 636.0 L 834.0 636.0 Q 864.0 554.0 891.0 472.0 L 682.0 472.0 Q 569.0 472.0 490.0 480.0 M 667.0 1022.0 L 1248.0 1022.0 L 1248.0 884.0 L 667.0 884.0 M 667.0 828.0 L 1248.0 828.0 L 1248.0 694.0 L 667.0 694.0 M 484.0 1516.0 L 520.0 1520.0 Q 498.0 1826.0 371.0 1826.0 Q 327.0 1826.0 327.0 1783.0 Q 327.0 1767.0 339.0 1751.0 Q 343.0 1746.0 397.0 1704.0 Q 449.0 1664.0 484.0 1516.0 M 707.0 1509.0 Q 784.0 1639.0 784.0 1722.0 Q 784.0 1805.0 724.0 1805.0 Q 683.0 1805.0 683.0 1759.0 Q 683.0 1747.0 686.0 1730.0 Q 698.0 1675.0 698.0 1644.0 Q 698.0 1607.0 678.0 1518.0 M 886.0 1496.0 Q 1045.0 1610.0 1045.0 1686.0 Q 1045.0 1714.0 1026.0 1732.0 Q 1014.0 1745.0 998.0 1745.0 Q 962.0 1745.0 951.0 1693.0 Q 931.0 1601.0 862.0 1517.0 M 1114.0 1479.0 Q 1268.0 1579.0 1268.0 1651.0 Q 1268.0 1707.0 1221.0 1707.0 Q 1189.0 1707.0 1180.0 1665.0 Q 1161.0 1576.0 1089.0 1502.0 Z"/></g></g>
</g>

<g class="page-number"><text x="105.0" y="292.0" font-size="3" fill="#999" font-family="sans-serif" text-anchor="middle">- 1 -</text></g>
</svg>