<svg xmlns="http://www.w3.org/2000/svg" viewBox="0 0 210.0 297.0" width="210.0mm" height="297.0mm">
<rect x="0" y="0" width="210.0" height="297.0" fill="white"/>
<rect x="0.5" y="0.5" width="209.0" height="296.0" fill="none" stroke="#aaa" stroke-width="0.4"/>
<g class="grid" fill="none" stroke="#c8c8c8" stroke-width="0.2">
  <line x1="15.00" y1="15.00" x2="195.00" y2="15.00"/>
  <line x1="15.00" y1="30.00" x2="195.00" y2="30.00"/>
  <line x1="15.00" y1="45.00" x2="195.00" y2="45.00"/>
  <line x1="15.00" y1="60.00" x2="195.00" y2="60.00"/>
  <line x1="15.00" y1="75.00" x2="195.00" y2="75.00"/>
  <line x1="15.00" y1="90.00" x2="195.00" y2="90.00"/>
  <line x1="15.00" y1="105.00" x2="195.00" y2="105.00"/>
  <line x1="15.00" y1="120.00" x2="195.00" y2="120.00"/>
  <line x1="15.00" y1="135.00" x2="195.00" y2="135.00"/>
  <line x1="15.00" y1="150.00" x2="195.00" y2="150.00"/>
  <line x1="15.00" y1="165.00" x2="195.00" y2="165.00"/>
  <line x1="15.00" y1="180.00" x2="195.00" y2="180.00"/>
  <line x1="15.00" y1="195.00" x2="195.00" y2="195.00"/>
  <line x1="15.00" y1="210.00" x2="195.00" y2="210.00"/>
  <line x1="15.00" y1="225.00" x2="195.00" y2="225.00"/>
  <line x1="15.00" y1="240.00" x2="195.00" y2="240.00"/>
  <line x1="15.00" y1="255.00" x2="195.00" y2="255.00"/>
  <line x1="15.00" y1="270.00" x2="195.00" y2="270.00"/>
  <line x1="15.00" y1="282.00" x2="195.00" y2="282.00"/>
  <line x1="15.00" y1="15.00" x2="15.00" y2="282.00"/>
  <line x1="30.00" y1="15.00" x2="30.00" y2="282.00"/>
  <line x1="45.00" y1="15.00" x2="45.00" y2="282.00"/>
  <line x1="60.00" y1="15.00" x2="60.00" y2="282.00"/>
  <line x1="75.00" y1="15.00" x2="75.00" y2="282.00"/>
  <line x1="90.00" y1="15.00" x2="90.00" y2="282.00"/>
  <line x1="105.00" y1="15.00" x2="105.00" y2="282.00"/>
  <line x1="120.00" y1="15.00" x2="120.00" y2="282.00"/>
  <line x1="135.00" y1="15.00" x2="135.00" y2="282.00"/>
  <line x1="150.00" y1="15.00" x2="150.00" y2="282.00"/>
  <line x1="165.00" y1="15.00" x2="165.00" y2="282.00"/>
  <line x1="180.00" y1="15.00" x2="180.00" y2="282.00"/>
  <line x1="195.00" y1="15.00" x2="195.00" y2="282.00"/>
  </g>
<g class="chars">
<g transform="translate(15.0,15.0) scale(0.00732421875,0.00732421875)"><g fill="#222"><path d="M 1319.0 86.0 L 1428.0 110.0 Q 1514.0 129.0 1514.0 156.0 Q 1514.0 180.0 1463.0 197.0 L 1424.0 210.0 L 1424.0 281.0 L 1681.0 281.0 L 1780.0 179.0 L 1900.0 286.0 Q 1917.0 301.0 1917.0 311.0 Q 1917.0 337.0 1890.0 337.0 L 1424.0 337.0 L 1424.0 510.0 L 1468.0 546.0 Q 1478.0 554.0 1478.0 567.0 Q 1478.0 594.0 1463.0 594.0 L 718.0 594.0 L 718.0 611.0 Q 718.0 647.0 661.0 647.0 Q 610.0 647.0 610.0 606.0 Q 610.0 603.0 614.0 555.0 Q 622.0 463.0 622.0 452.0 L 622.0 337.0 L 362.0 337.0 Q 243.0 337.0 170.0 345.0 L 132.0 257.0 Q 223.0 281.0 362.0 281.0 L 622.0 281.0 L 622.0 238.0 Q 622.0 119.0 614.0 78.0 L 723.0 102.0 Q 809.0 121.0 809.0 147.0 Q 809.0 173.0 759.0 189.0 L 718.0 202.0 L 718.0 281.0 L 1328.0 281.0 L 1328.0 246.0 Q 1328.0 126.0 1319.0 86.0 M 718.0 536.0 L 1328.0 536.0 L 1328.0 337.0 L 718.0 337.0 M 98.0 822.0 L 60.0 735.0 Q 154.0 757.0 290.0 757.0 L 1734.0 757.0 L 1832.0 656.0 L 1953.0 762.0 Q 1969.0 777.0 1969.0 788.0 Q 1969.0 814.0 1942.0 814.0 L 290.0 814.0 Q 177.0 814.0 98.0 822.0 M 388.0 918.0 L 500.0 986.0 L 1569.0 986.0 L 1630.0 914.0 L 1702.0 964.0 Q 1744.0 993.0 1744.0 1013.0 Q 1744.0 1028.0 1678.0 1065.0 L 1678.0 1332.0 Q 1678.0 1442.0 1689.0 1551.0 Q 1692.0 1583.0 1692.0 1601.0 Q 1692.0 1647.0 1637.0 1647.0 Q 1581.0 1647.0 1581.0 1605.0 L 1581.0 1573.0 L 484.0 1573.0 L 484.0 1589.0 Q 484.0 1642.0 425.0 1642.0 Q 372.0 1642.0 372.0 1595.0 Q 372.0 1580.0 376.0 1547.0 Q 388.0 1450.0 388.0 1338.0 M 484.0 1515.0 L 970.0 1515.0 L 970.0 1301.0 L 484.0 1301.0 M 1068.0 1515.0 L 1581.0 1515.0 L 1581.0 1301.0 L 1068.0 1301.0 M 484.0 1243.0 L 970.0 1243.0 L 970.0 1044.0 L 484.0 1044.0 M 1068.0 1044.0 L 1068.0 1243.0 L 1581.0 1243.0 L 1581.0 1044.0 M 819.0 1721.0 Q 664.0 1816.0 490.0 1882.0 Q 383.0 1923.0 183.0 1970.0 L 172.0 1929.0 Q 365.0 1871.0 525.0 1784.0 Q 651.0 1717.0 776.0 1595.0 L 878.0 1658.0 Q 918.0 1683.0 918.0 1701.0 Q 918.0 1725.0 879.0 1727.0 Q 874.0 1727.0 871.0 1727.0 M 1232.0 1624.0 Q 1543.0 1706.0 1654.0 1749.0 Q 1859.0 1831.0 1859.0 1911.0 Q 1859.0 1969.0 1809.0 1969.0 Q 1786.0 1969.0 1711.0 1907.0 Q 1631.0 1841.0 1426.0 1745.0 Q 1335.0 1702.0 1218.0 1663.0 Z"/></g></g>
</g>

<g class="page-number"><text x="105.0" y="292.0" font-size="3" fill="#999" font-family="sans-serif" text-anchor="middle">- 1 -</text></g>
</svg>