<svg xmlns="http://www.w3.org/2000/svg" viewBox="0 0 210.0 297.0" width="210.0mm" height="297.0mm">
<rect x="0" y="0" width="210.0" height="297.0" fill="white"/>
<rect x="0.5" y="0.5" width="209.0" height="296.0" fill="none" stroke="#aaa" stroke-width="0.4"/>
<g class="grid" fill="none" stroke="#c8c8c8" stroke-width="0.2">
  <line x1="15.00" y1="15.00" x2="195.00" y2="15.00"/>
  <line x1="15.00" y1="30.00" x2="195.00" y2="30.00"/>
  <line x1="15.00" y1="45.00" x2="195.00" y2="45.00"/>
  <line x1="15.00" y1="60.00" x2="195.00" y2="60.00"/>
  <line x1="15.00" y1="75.00" x2="195.00" y2="75.00"/>
  <line x1="15.00" y1="90.00" x2="195.00" y2="90.00"/>
  <line x1="15.00" y1="105.00" x2="195.00" y2="105.00"/>
  <line x1="15.00" y1="120.00" x2="195.00" y2="120.00"/>
  <line x1="15.00" y1="135.00" x2="195.00" y2="135.00"/>
  <line x1="15.00" y1="150.00" x2="195.00" y2="150.00"/>
  <line x1="15.00" y1="165.00" x2="195.00" y2="165.00"/>
  <line x1="15.00" y1="180.00" x2="195.00" y2="180.00"/>
  <line x1="15.00" y1="195.00" x2="195.00" y2="195.00"/>
  <line x1="15.00" y1="210.00" x2="195.00" y2="210.00"/>
  <line x1="15.00" y1="225.00" x2="195.00" y2="225.00"/>
  <line x1="15.00" y1="240.00" x2="195.00" y2="240.00"/>
  <line x1="15.00" y1="255.00" x2="195.00" y2="255.00"/>
  <line x1="15.00" y1="270.00" x2="195.00" y2="270.00"/>
  <line x1="15.00" y1="282.00" x2="195.00" y2="282.00"/>
  <line x1="15.00" y1="15.00" x2="15.00" y2="282.00"/>
  <line x1="30.00" y1="15.00" x2="30.00" y2="282.00"/>
  <line x1="45.00" y1="15.00" x2="45.00" y2="282.00"/>
  <line x1="60.00" y1="15.00" x2="60.00" y2="282.00"/>
  <line x1="75.00" y1="15.00" x2="75.00" y2="282.00"/>
  <line x1="90.00" y1="15.00" x2="90.00" y2="282.00"/>
  <line x1="105.00" y1="15.00" x2="105.00" y2="282.00"/>
  <line x1="120.00" y1="15.00" x2="120.00" y2="282.00"/>
  <line x1="135.00" y1="15.00" x2="135.00" y2="282.00"/>
  <line x1="150.00" y1="15.00" x2="150.00" y2="282.00"/>
  <line x1="165.00" y1="15.00" x2="165.00" y2="282.00"/>
  <line x1="180.00" y1="15.00" x2="180.00" y2="282.00"/>
  <line x1="195.00" y1="15.00" x2="195.00" y2="282.00"/>
  </g>
<g class="chars">
<g transform="translate(15.0,15.0) scale(0.00732421875,0.00732421875)"><g fill="#222"><path d="M 418.0 78.0 Q 484.0 110.0 527.0 138.0 Q 591.0 178.0 591.0 227.0 Q 591.0 258.0 564.0 284.0 L 774.0 284.0 L 862.0 200.0 L 976.0 287.0 Q 992.0 299.0 992.0 315.0 Q 992.0 341.0 967.0 341.0 L 792.0 341.0 L 874.0 372.0 Q 912.0 386.0 912.0 409.0 Q 912.0 432.0 874.0 435.0 L 822.0 439.0 Q 771.0 568.0 662.0 694.0 L 822.0 694.0 L 908.0 610.0 L 1018.0 698.0 Q 1034.0 710.0 1034.0 728.0 Q 1034.0 750.0 1015.0 750.0 L 258.0 750.0 Q 191.0 750.0 110.0 761.0 L 70.0 675.0 Q 191.0 694.0 258.0 694.0 L 373.0 694.0 Q 353.0 530.0 251.0 356.0 L 274.0 341.0 Q 219.0 344.0 163.0 352.0 L 117.0 262.0 Q 277.0 284.0 351.0 284.0 L 504.0 284.0 Q 496.0 274.0 493.0 259.0 Q 481.0 198.0 392.0 108.0 M 430.0 694.0 L 606.0 694.0 Q 689.0 568.0 738.0 341.0 L 292.0 341.0 Q 388.0 456.0 415.0 495.0 Q 463.0 562.0 463.0 624.0 Q 463.0 672.0 430.0 694.0 M 320.0 917.0 L 748.0 917.0 L 810.0 845.0 L 882.0 895.0 Q 924.0 924.0 924.0 944.0 Q 924.0 962.0 856.0 996.0 L 856.0 1780.0 Q 856.0 1922.0 700.0 1951.0 Q 688.0 1880.0 653.0 1857.0 Q 621.0 1837.0 494.0 1814.0 L 502.0 1768.0 Q 668.0 1795.0 700.0 1795.0 Q 760.0 1795.0 760.0 1739.0 L 760.0 1375.0 Q 631.0 1457.0 593.0 1477.0 Q 576.0 1486.0 459.0 1538.0 Q 442.0 1546.0 409.0 1561.0 L 406.0 1592.0 Q 401.0 1632.0 380.0 1632.0 Q 358.0 1632.0 338.0 1584.0 L 302.0 1520.0 Q 282.0 1799.0 93.0 1975.0 L 65.0 1951.0 Q 155.0 1815.0 183.0 1696.0 Q 216.0 1563.0 216.0 1341.0 L 216.0 996.0 Q 216.0 976.0 205.0 849.0 M 305.0 1471.0 Q 540.0 1427.0 760.0 1319.0 L 760.0 975.0 L 311.0 975.0 L 311.0 1063.0 Q 450.0 1098.0 536.0 1133.0 Q 646.0 1179.0 646.0 1250.0 Q 646.0 1297.0 612.0 1297.0 Q 592.0 1297.0 548.0 1254.0 Q 511.0 1219.0 421.0 1167.0 Q 380.0 1143.0 311.0 1119.0 L 311.0 1314.0 Q 311.0 1353.0 305.0 1471.0 M 1097.0 93.0 L 1201.0 115.0 Q 1292.0 134.0 1292.0 161.0 Q 1292.0 192.0 1243.0 205.0 L 1201.0 216.0 L 1201.0 315.0 L 1691.0 315.0 L 1778.0 227.0 L 1891.0 315.0 Q 1910.0 330.0 1910.0 346.0 Q 1910.0 372.0 1885.0 372.0 L 1201.0 372.0 L 1201.0 556.0 L 1705.0 556.0 L 1766.0 484.0 L 1839.0 534.0 Q 1880.0 562.0 1880.0 584.0 Q 1880.0 599.0 1815.0 636.0 L 1815.0 800.0 L 1853.0 827.0 Q 1873.0 841.0 1873.0 849.0 Q 1873.0 876.0 1845.0 876.0 L 1190.0 876.0 L 1190.0 1055.0 L 1640.0 1055.0 L 1720.0 976.0 L 1839.0 1063.0 Q 1849.0 1070.0 1849.0 1084.0 Q 1849.0 1109.0 1826.0 1109.0 L 1190.0 1109.0 L 1190.0 1302.0 L 1648.0 1302.0 L 1732.0 1218.0 L 1835.0 1298.0 Q 1857.0 1315.0 1857.0 1335.0 Q 1857.0 1358.0 1832.0 1358.0 L 1190.0 1358.0 L 1190.0 1549.0 L 1640.0 1549.0 L 1729.0 1461.0 L 1839.0 1549.0 Q 1856.0 1563.0 1856.0 1578.0 Q 1856.0 1606.0 1832.0 1606.0 L 1190.0 1606.0 L 1190.0 1727.0 Q 1190.0 1781.0 1247.0 1802.0 Q 1299.0 1821.0 1398.0 1821.0 L 1623.0 1821.0 Q 1764.0 1821.0 1811.0 1803.0 Q 1851.0 1787.0 1868.0 1703.0 L 1904.0 1526.0 L 1942.0 1534.0 L 1926.0 1703.0 Q 1925.0 1714.0 1925.0 1723.0 Q 1925.0 1760.0 1942.0 1779.0 Q 1947.0 1785.0 1975.0 1809.0 Q 1988.0 1819.0 1988.0 1833.0 Q 1988.0 1909.0 1670.0 1909.0 L 1417.0 1909.0 Q 1229.0 1909.0 1165.0 1873.0 Q 1097.0 1836.0 1097.0 1739.0 L 1097.0 766.0 L 1204.0 819.0 L 1720.0 819.0 L 1720.0 614.0 L 1190.0 614.0 Q 1165.0 620.0 1148.0 620.0 Q 1105.0 620.0 1105.0 574.0 L 1105.0 253.0 Q 1105.0 138.0 1097.0 93.0 Z"/></g></g>
</g>

<g class="page-number"><text x="105.0" y="292.0" font-size="3" fill="#999" font-family="sans-serif" text-anchor="middle">- 1 -</text></g>
</svg>