<svg xmlns="http://www.w3.org/2000/svg" viewBox="0 0 42.000 42.000" width="42.000mm" height="42.000mm"><g id="stamp-engrave" stroke="#000" stroke-width="0.3" fill="none" stroke-linecap="round" stroke-linejoin="round"><path class="stamp-border" d="M 0.000 0.000 L 42.000 0.000 L 42.000 42.000 L 0.000 42.000 Z"/><path class="stamp-border" d="M 0.800 0.800 L 41.200 0.800 L 41.200 41.200 L 0.800 41.200 Z"/><g transform="translate(24.100,2.867) scale(0.005859)"><path d="M 430 1147 Q 421 1203 410.5 1255 Q 400 1307 372.5 1386.5 Q 345 1466 307 1531 Q 269 1596 231 1635.5 Q 193 1675 154 1703 L 110 1735 Q 96 1745 90.5 1738.5 Q 85 1732 92 1721 L 130 1671 Q 157 1636 190 1584 Q 223 1532 253.5 1461.5 Q 284 1391 304.5 1312 Q 325 1233 337.5 1153.5 Q 350 1074 354 1019 Q 358 964 362 863.5 Q 366 763 366 726 L 363 620 Q 361 545 361 534 L 354 461 Q 350 421 344 407 L 329 376 Q 325 360 331 355 Q 337 350 351 350 Q 367 352 392 358 Q 417 364 432 370 L 457 381 Q 485.5 394.5 480 434 Q 476 462 471.5 489.5 Q 467 517 464.5 541.5 Q 462 566 462 600 L 461 642 L 461 676 Q 458 749 456.5 780.5 Q 455 812 450 914.5 Q 445 1017 442 1046 L 435 1105 L 430 1147 Z"/><path d="M 457 381 L 581 356 Q 610 351 637.5 343 Q 665 335 688 324 Q 711 313 720 312 Q 731 312 752 322.5 Q 773 333 799 351.5 Q 825 370 835.5 385 Q 846 400 846.5 408.5 Q 847 417 836 437 Q 826 454 821 473 Q 816 492 813.5 522.5 Q 811 553 808.5 598 Q 806 643 806 673 L 806 1066 L 803 1222 Q 802 1248 801.5 1343.5 Q 801 1439 799 1488.5 Q 797 1538 789.5 1572.5 Q 782 1607 760 1649.5 Q 738 1692 716 1710 Q 694 1728 681 1727 Q 666 1727 646 1704 L 603 1653 L 563 1611 Q 526 1573 522 1569 L 482 1532 Q 473 1525 476.5 1519 Q 480 1513 494 1516 L 536 1527 L 581 1538 Q 610 1546 624.5 1549 Q 639 1552 649 1547 Q 661 1542 670 1513 Q 679 1484 682.5 1438.5 Q 686 1393 689.5 1328.5 Q 693 1264 695 1202 L 701 1016 L 701 966 L 701 798 L 705 765 L 708 529 L 708 479 Q 708 455 708 449 Q 707 426 699.5 417.5 Q 692 409 674 407 Q 664 407 646 409 L 602 415 L 480 434 L 457 381 Z"/><path d="M 701 798 Q 691 810 681.5 816 Q 672 822 651.5 821 Q 631 820 601 799.5 Q 571 779 541 753.5 Q 511 728 494 710 L 461 676 L 461 642 Q 493 648 523 654 Q 553 660 583.5 668.5 Q 614 677 647 693 Q 680 709 686 724 L 705 765 L 701 798 Z"/><path d="M 701 1016 Q 671 1044 645.5 1069 Q 620 1094 598.5 1118.5 Q 577 1143 563.5 1160.5 Q 550 1178 537.5 1194.5 Q 525 1211 516.5 1214 Q 508 1217 496.5 1210.5 Q 485 1204 470.5 1190 Q 456 1176 448 1166 L 430 1147 L 435 1105 Q 465 1095 488.5 1086 Q 512 1077 570.5 1045 Q 629 1013 649 1000 L 701 966 L 701 1016 Z"/><path d="M 1176 390 Q 1171 457 1167.5 523 Q 1164 589 1157 656 Q 1150 723 1129 779 Q 1108 835 1074 872.5 Q 1040 910 1009 929 L 958 961 Q 939 973 934.5 965.5 Q 930 958 939 946 L 975 899 Q 998 869 1017.5 825.5 Q 1037 782 1047 738.5 Q 1057 695 1061 644 Q 1065 593 1066.5 545.5 Q 1068 498 1067 462 Q 1065 427 1059 407.5 Q 1053 388 1040.5 368.5 Q 1028 349 1023.5 337 Q 1019 325 1024.5 319 Q 1030 313 1045 312 Q 1059 312 1092 321 L 1148 337 Q 1176 346.5 1176 390 Z"/><path d="M 1148 337 L 1251 304 Q 1275 297 1307.5 283.5 Q 1340 270 1361.5 260 Q 1383 250 1393 248 Q 1404 247 1431 255 Q 1458 263 1485.5 277 Q 1513 291 1530.5 307 Q 1548 323 1550 333 Q 1552 343 1549 351 Q 1547 355 1533.5 371.5 Q 1520 388 1508.5 418 Q 1497 448 1487.5 484.5 Q 1478 521 1473.5 560 Q 1469 599 1467.5 648 Q 1466 697 1476.5 717 Q 1487 737 1509.5 747.5 Q 1532 758 1566 757 Q 1592 757 1625 753 Q 1658 749 1679 743 L 1718 732 Q 1742 726 1757 726 Q 1778 728 1803.5 744.5 Q 1829 761 1842.5 779 Q 1856 797 1854 807 Q 1851 819 1828.5 830 Q 1806 841 1747.5 848 Q 1689 855 1654 857 Q 1586 861 1532.5 853 Q 1479 845 1448 826.5 Q 1417 808 1398.5 776 Q 1380 744 1376 699.5 Q 1372 655 1379 579 Q 1385 507 1388 459.5 Q 1391 412 1394.5 386 Q 1398 360 1392 352.5 Q 1386 345 1365 345 Q 1354 346 1331 351 L 1284 362 L 1176 390 L 1148 337 Z"/><path d="M 1287 1488 Q 1246 1521 1204 1551.5 Q 1162 1582 1106 1609 Q 1050 1636 985.5 1657 Q 921 1678 889 1680 L 830 1685 Q 810 1687 808.5 1676 Q 807 1665 828 1657 L 873 1641 Q 909 1628 957 1605 Q 1005 1582 1072 1541.5 Q 1139 1501 1165 1475 L 1231 1411 L 1278 1336 Q 1301 1295 1316.5 1264.5 Q 1332 1234 1349 1189.5 Q 1366 1145 1374 1115.5 Q 1382 1086 1384.5 1065.5 Q 1387 1045 1381 1039 Q 1375 1033 1358 1034.5 Q 1341 1036 1320.5 1042.5 Q 1300 1049 1241.5 1068.5 Q 1183 1088 1167 1093 L 1103 1113 L 1026.5 1133 Q 1003 1110 982 1098.5 Q 961 1087 952.5 1077 Q 944 1067 947 1059 Q 950 1051 963.5 1046.5 Q 977 1042 997 1044 L 1017 1046 Q 1063 1040 1097 1033.5 Q 1131 1027 1175 1017 Q 1219 1007 1266 993.5 Q 1313 980 1352.5 966 Q 1392 952 1412.5 941.5 Q 1433 931 1440 929 Q 1451 928 1469 933.5 Q 1487 939 1525 956.5 Q 1563 974 1575.5 990 Q 1588 1006 1587 1013 Q 1585 1018 1569 1033.5 Q 1553 1049 1548 1055.5 Q 1543 1062 1529 1088 L 1501 1138 Q 1490 1157 1456 1229 Q 1422 1301 1406 1328 L 1354 1416 L 1287 1488 Z"/><path d="M 1231 1411 Q 1198 1363 1172 1324 Q 1146 1285 1121.5 1251 Q 1097 1217 1073.5 1186.5 Q 1050 1156 1026.5 1133 L 1103 1113 Q 1133 1151 1150.5 1173.5 Q 1168 1196 1202.5 1243.5 Q 1237 1291 1248 1302 L 1278 1336 L 1354 1416 Q 1390 1450 1431 1485 Q 1472 1520 1527 1553 Q 1582 1586 1647.5 1615 Q 1713 1644 1767 1662 Q 1821 1680 1874 1694 L 1941 1713 Q 1958 1719 1957.5 1729.5 Q 1957 1740 1946 1743 L 1888 1760 Q 1865 1767 1807 1778 Q 1749 1789 1723 1793 Q 1697 1797 1647 1802 Q 1597 1807 1576 1802 Q 1550 1797 1524.5 1780 Q 1499 1763 1465 1719 L 1393 1627 Q 1325 1543 1323 1539 L 1287 1488 L 1231 1411 Z"/></g><g transform="translate(24.100,15.000) scale(0.005859)"><path d="M 419 877 Q 393 908 364 940 Q 335 972 286 1013.5 Q 237 1055 186 1090.5 Q 135 1126 113 1134 L 87 1144 Q 75 1149 67 1139.5 Q 59 1130 76 1115 L 99 1096 Q 108 1088 161.5 1030.5 Q 215 973 233 951.5 Q 251 930 319 836.5 Q 387 743 418 688.5 Q 449 634 486.5 555.5 Q 524 477 536.5 444 Q 549 411 554.5 382.5 Q 560 354 563 318 Q 566 282 572 277 Q 578 272 591 271 Q 610 271 634 282 Q 658 293 692 316.5 Q 726 340 737.5 361.5 Q 749 383 747 395 Q 745 404 736 414 L 703 445 Q 686 462 665 499 L 610 599 Q 566 676 517 744 L 474 804 L 474 805 L 419 877 Z"/><path d="M 474 804 L 474 805 Q 486 815 498 824 Q 510 833 525 852.5 Q 540 872 542 883.5 Q 544 895 532 936 Q 527 951 525 968.5 Q 523 986 517.5 1061.5 Q 512 1137 512 1157 L 508 1433 Q 507 1435 511 1523 L 514 1616 Q 518 1670 517 1683 Q 515 1705 506 1732.5 Q 497 1760 486.5 1781 Q 476 1802 467.5 1810.5 Q 459 1819 451 1819.5 Q 443 1820 431 1803 Q 419 1789 408.5 1764.5 Q 398 1740 394.5 1728 Q 391 1716 384 1689 Q 377 1662 378 1650 Q 378 1640 387.5 1608 Q 397 1576 401.5 1541 Q 406 1506 410.5 1453.5 Q 415 1401 417 1367 L 428 1074 L 428 990 Q 428 921 425 907 L 419 877 L 474 804 Z"/><path d="M 579 1009 L 620 968 Q 661 927 698 883.5 Q 735 840 774.5 781 Q 814 722 831 687 Q 848 652 864.5 606.5 Q 881 561 880 536 Q 879 511 884 504 Q 889 497 907 496 Q 928 495 952.5 508 Q 977 521 1003 540.5 Q 1029 560 1035.5 575 Q 1042 590 1041 599 Q 1039 609 1017.5 627 Q 996 645 977 671 Q 958 697 898 771.5 Q 838 846 811 875 Q 784 904 734 944.5 Q 684 985 653 1000 L 605 1024 Q 571 1041 569 1031 Q 567 1021 579 1009 Z"/><path d="M 1934 825 L 1964 836 Q 1979 842 1978.5 853 Q 1978 864 1961 872 Q 1938 883 1893 881.5 Q 1848 880 1785.5 885 Q 1723 890 1685 885 Q 1654 882 1626.5 872.5 Q 1599 863 1574 844 Q 1549 825 1487.5 755.5 Q 1426 686 1379 624 L 1293 507 Q 1285 497 1236 433 Q 1187 369 1153 341.5 Q 1119 314 1081 302 L 1021 285 Q 995 274 993.5 260 Q 992 246 1015.5 234 Q 1039 222 1077 227 Q 1114 233 1138.5 242.5 Q 1163 252 1185 270 Q 1207 288 1235 316 Q 1263 344 1297 384 L 1381 488 Q 1433 549 1498.5 601.5 Q 1564 654 1633.5 694.5 Q 1703 735 1775 766 Q 1847 797 1887.5 810 Q 1928 823 1934 825 Z"/><path d="M 957 1100 L 925 1108 Q 878 1120 864.5 1119 Q 851 1118 828 1106 Q 805 1094 786.5 1081 Q 768 1068 769 1056 Q 769 1046 773.5 1043 Q 778 1040 802 1037 L 844 1033 Q 849 1033 921 1022 L 1055 1007 Q 1124 1000 1186 989 Q 1248 978 1304.5 966.5 Q 1361 955 1394 940.5 Q 1427 926 1436 925 Q 1453 924 1478.5 934.5 Q 1504 945 1539.5 970 Q 1575 995 1597.5 1016.5 Q 1620 1038 1619 1052 Q 1618 1060 1612 1070 L 1582 1108 Q 1569 1126 1560 1155.5 Q 1551 1185 1545 1217 L 1495 1491 Q 1486 1540 1467 1600 Q 1448 1660 1423 1706 Q 1398 1752 1367.5 1778.5 Q 1337 1805 1313.5 1815.5 Q 1290 1826 1281 1823 Q 1276 1822 1269 1817 Q 1262 1812 1248.5 1793.5 Q 1235 1775 1210 1743.5 Q 1185 1712 1168 1694.5 Q 1151 1677 1129 1659 L 1096 1633 Q 1076 1619 1083.5 1607.5 Q 1091 1596 1111 1601 L 1159 1615 Q 1173 1620 1216.5 1630.5 Q 1260 1641 1276 1640 Q 1291 1640 1310.5 1630 Q 1330 1620 1346.5 1567 Q 1363 1514 1381 1439.5 Q 1399 1365 1406 1326.5 Q 1413 1288 1423.5 1204.5 Q 1434 1121 1434 1096 Q 1433 1076 1428.5 1064.5 Q 1424 1053 1418.5 1047 Q 1413 1041 1401.5 1036.5 Q 1390 1032 1364 1032 Q 1350 1033 1325.5 1034 Q 1301 1035 1243.5 1043 Q 1186 1051 1153 1058 L 1048 1081 L 957 1100 Z"/><path d="M 1048 1081 Q 1075 1093 1089.5 1101 Q 1104 1109 1117.5 1124 Q 1131 1139 1129 1156 Q 1127 1163 1111 1183.5 Q 1095 1204 1080.5 1242 Q 1066 1280 1035 1347 Q 1004 1414 965.5 1471.5 Q 927 1529 884.5 1570 Q 842 1611 786.5 1648.5 Q 731 1686 695 1700 L 658 1715 Q 630 1726 624.5 1715.5 Q 619 1705 628 1698 L 668 1668 Q 708 1638 738.5 1610.5 Q 769 1583 810.5 1529.5 Q 852 1476 879 1425.5 Q 906 1375 929 1310 Q 952 1245 958.5 1201.5 Q 965 1158 962 1137 L 957 1100 L 1048 1081 Z"/></g><g transform="translate(24.100,27.133) scale(0.005859)"><path d="M 837 624 L 592 666 Q 564 671 512.5 682 Q 461 693 445 694 Q 418 696 393.5 690 Q 369 684 336 667.5 Q 303 651 296 638.5 Q 289 626 294 616 Q 298 608 325.5 605.5 Q 353 603 389 600 Q 425 597 445 594 L 865 541 L 1009 520 L 1424 464 Q 1481 457 1522 449.5 Q 1563 442 1601.5 433.5 Q 1640 425 1658 425 Q 1681 426 1717.5 437.5 Q 1754 449 1782 464.5 Q 1810 480 1825 494.5 Q 1840 509 1840.5 519.5 Q 1841 530 1835 536 Q 1829 542 1813.5 545 Q 1798 548 1749 549 L 1574 555 Q 1545 556 1432 566 L 1176 586 L 978 605 L 837 624 Z"/><path d="M 865 541 Q 875 512 886.5 479 Q 898 446 909 407.5 Q 920 369 929 326 Q 938 283 940 255 Q 941 225 933.5 188.5 Q 926 152 934 143.5 Q 942 135 959 132 Q 980 130 1012.5 144.5 Q 1045 159 1065 170 Q 1085 181 1103.5 200.5 Q 1122 220 1122.5 231.5 Q 1123 243 1115 257 L 1095 288 Q 1089 297 1078.5 324 Q 1068 351 1065 360 L 1009 520 L 978 605 Q 958 652 934.5 705 Q 911 758 887 800 L 831 900 L 777 980 Q 741 1032 712 1068.5 Q 683 1105 618.5 1167.5 Q 554 1230 493 1273.5 Q 432 1317 367.5 1352.5 Q 303 1388 270 1398 L 236 1409 Q 218 1415 212.5 1412.5 Q 207 1410 205.5 1403.5 Q 204 1397 227 1379 L 261 1353 Q 298 1324 347 1283.5 Q 396 1243 458 1186.5 Q 520 1130 572 1072 Q 624 1014 670.5 945 Q 717 876 756 802 Q 795 728 812 686 L 837 624 L 865 541 Z"/><path d="M 885 1416 Q 877 1455 869 1488.5 Q 861 1522 840.5 1569 Q 820 1616 781.5 1665 Q 743 1714 705 1747.5 Q 667 1781 637 1798 L 594 1823 Q 582 1830 574 1828.5 Q 566 1827 562.5 1822 Q 559 1817 575 1800 L 609 1764 Q 636 1736 669.5 1687 Q 703 1638 730.5 1573 Q 758 1508 770 1445 Q 782 1382 791.5 1289.5 Q 801 1197 800 1143 L 795 1065 Q 792 1024 790 1017 L 777 980 C 713 866 821 864 912 956 Q 919 976 919.5 982.5 Q 920 989 914 1028 L 912 1073 L 909 1123 L 906 1189 Q 902 1259 901 1273 L 894 1356 L 885 1416 Z"/><path d="M 831 900 Q 921 890 979.5 882.5 Q 1038 875 1113.5 862.5 Q 1189 850 1228 841 Q 1267 832 1295 822 Q 1323 812 1334 811 Q 1352 810 1380 820 Q 1408 830 1433.5 844 Q 1459 858 1481.5 877 Q 1504 896 1504.5 910 Q 1505 924 1488 953 Q 1469 985 1462 1020.5 Q 1455 1056 1453.5 1134.5 Q 1452 1213 1453 1241 L 1460 1554 Q 1461 1641 1461.5 1675.5 Q 1462 1710 1454 1745 Q 1443 1790 1417.5 1832 Q 1392 1874 1363 1897 Q 1334 1920 1313 1917 Q 1293 1915 1258.5 1876 Q 1224 1837 1202.5 1814 Q 1181 1791 1161.5 1775 Q 1142 1759 1123 1745 L 1098 1728 Q 1082 1718 1086.5 1707 Q 1091 1696 1106 1698 L 1137 1704 Q 1173 1712 1199 1717.5 Q 1225 1723 1242.5 1726 Q 1260 1729 1276 1723 Q 1299 1715 1313 1684.5 Q 1327 1654 1332 1579 L 1344 1369 L 1340 1326 L 1340 1136 L 1341 1090 L 1337 997 Q 1335 963 1331 948 Q 1327 933 1317.5 925.5 Q 1308 918 1276.5 917.5 Q 1245 917 1214.5 917.5 Q 1184 918 1134 925 L 912 956 Q 714.5 1005 831 900 Z"/><path d="M 1340 1136 Q 1304 1145 1279 1150 Q 1254 1155 1189 1165.5 Q 1124 1176 1074 1185 Q 1024 1194 995 1196 Q 966 1198 953 1195 L 906 1189 L 909 1123 L 1051 1103 Q 1054 1103 1081 1097 L 1137 1087 Q 1204 1074 1209 1073 Q 1243 1071 1270 1076 L 1341 1090 L 1340 1136 Z"/><path d="M 1344 1369 L 1129 1404 L 1042 1417 Q 990 1426 973 1426 Q 940 1428 920 1423 L 885 1416 L 894 1356 L 1065 1329 Q 1096 1325 1141 1314 Q 1186 1303 1206 1301 Q 1232 1299 1259.5 1304 Q 1287 1309 1307 1315 L 1340 1326 L 1344 1369 Z"/></g><g transform="translate(5.900,2.867) scale(0.005859)"><path d="M 352 400 L 419 373 Q 442 364 493 338 Q 544 312 558.5 304 Q 573 296 581 294 Q 595 291 621.5 302.5 Q 648 314 682 333.5 Q 716 353 728.5 367.5 Q 741 382 741 392 Q 740 403 730.5 414.5 Q 721 426 680 469 Q 639 512 604 557.5 Q 569 603 550.5 636.5 Q 532 670 536 688 Q 486 751.5 456 685 Q 454 672 469 636 L 538 471 Q 549 444 543 433.5 Q 537 423 520 426 L 364 453 Q 308 426.5 352 400 Z"/><path d="M 536 688 Q 538 699 554 722.5 Q 570 746 598 783.5 Q 626 821 642 845 Q 658 869 677 914.5 Q 696 960 695 1011 Q 693 1051 680 1080.5 Q 667 1110 641.5 1137.5 Q 616 1165 601 1165.5 Q 586 1166 553 1124 Q 538 1107 513 1084 Q 488 1061 467 1045 L 402 997 Q 390 989 393 978.5 Q 396 968 416 971 L 482 982 Q 526 990 541 991 Q 556 992 565.5 985 Q 575 978 571 940 Q 567 915 558.5 888 Q 550 861 535 829.5 Q 520 798 497 760 L 469 715 Q 458 698 456 685 L 536 688 Z"/><path d="M 364 453 L 331 1330 Q 329 1363 322.5 1487 Q 316 1611 312 1657 Q 308 1703 301 1728.5 Q 294 1754 285 1768.5 Q 276 1783 265 1784.5 Q 254 1786 237 1770 Q 217 1753 202.5 1726.5 Q 188 1700 180 1665.5 Q 172 1631 173 1609 Q 173 1595 183 1559 Q 193 1523 206.5 1450.5 Q 220 1378 227 1331.5 Q 234 1285 240.5 1200 Q 247 1115 249 1045 L 255 649 Q 256 576 252 541 Q 248 506 240 473 Q 232 440 218.5 421 Q 205 402 202 390.5 Q 199 379 208 370.5 Q 217 362 241 363 Q 286 367 308 378 L 352 400 L 364 453 Z"/><path d="M 953 348 Q 1000 338 1046.5 329 Q 1093 320 1107.5 316 Q 1122 312 1185 292 Q 1248 272 1268 263.5 Q 1288 255 1298 255 Q 1307 256 1330 266 L 1394 295 Q 1425 311 1448 326.5 Q 1471 342 1475.5 352 Q 1480 362 1480 370 Q 1479 379 1465.5 399.5 Q 1452 420 1441.5 443 Q 1431 466 1417 522 L 1350 787 Q 1344 811 1328.5 858 Q 1313 905 1291.5 925 Q 1270 945 1248.5 939 Q 1227 933 1219 908 L 1208 876 Q 1174.5 853.5 1221 831 Q 1242 736 1246 715 L 1265 612 L 1271 565 L 1288 421 Q 1289 405 1290.5 384 Q 1292 363 1285 354 Q 1278 345 1235 352 L 981 399 Q 887 373.5 953 348 Z"/><path d="M 1265 612 L 1056 658 Q 1020 666 1013 665 L 967 662 L 969 606 L 1080 574 L 1142 554 Q 1166 547 1181 545 Q 1211 543 1236 552 L 1271 565 L 1265 612 Z"/><path d="M 1208 876 L 949 906 L 953 841 L 1117 814 Q 1152 809 1165 810.5 Q 1178 812 1194 819 L 1221 831 L 1208 876 Z"/><path d="M 949 906 L 913 1519 Q 911 1552 921.5 1558.5 Q 932 1565 961 1549 L 1157 1442 Q 1171 1434 1180.5 1442 Q 1190 1450 1172 1470 L 991 1661 Q 981 1672 956.5 1702.5 Q 932 1733 926 1741.5 Q 920 1750 905 1772 Q 890 1794 882 1795.5 Q 874 1797 861 1787 Q 843 1775 822.5 1737 Q 802 1699 796 1677.5 Q 790 1656 794 1638 Q 794 1637 802.5 1615 Q 811 1593 816 1560 Q 821 1527 824 1492 Q 827 1457 831 1346 L 840 1094 L 848 636 Q 849 531 839 473 Q 829 415 811.5 388 Q 794 361 790.5 348 Q 787 335 795 326 Q 803 317 829 318 Q 846 320 875 327 L 953 348 L 981 399 L 969 606 L 967 662 L 953 841 L 949 906 Z"/><path d="M 1229 1198 Q 1246 1179 1271 1153 Q 1296 1127 1310 1110.5 Q 1324 1094 1349.5 1057 Q 1375 1020 1391 989.5 Q 1407 959 1412 933.5 Q 1417 908 1423.5 904 Q 1430 900 1442 901 Q 1454 904 1471.5 916.5 Q 1489 929 1511 956 Q 1533 983 1545.5 1008 Q 1558 1033 1554 1042 Q 1550 1050 1520 1060 Q 1490 1070 1484 1073 Q 1478 1076 1447 1099 Q 1416 1122 1365 1153 L 1293 1198 L 1252 1221 Q 1220.5 1219.5 1229 1198 Z"/><path d="M 1252 1221 Q 1287 1257 1308.5 1276.5 Q 1330 1296 1379 1335.5 Q 1428 1375 1501.5 1421 Q 1575 1467 1638.5 1497.5 Q 1702 1528 1773 1554 L 1849 1583 Q 1874 1593 1874.5 1604 Q 1875 1615 1854 1619 L 1795 1632 Q 1775 1637 1690 1647 Q 1605 1657 1597 1657 Q 1531 1662 1497.5 1647 Q 1464 1632 1433.5 1600.5 Q 1403 1569 1352.5 1501.5 Q 1302 1434 1283 1407.5 Q 1264 1381 1180.5 1258 Q 1097 1135 1080 1106 L 1045 1049 Q 1017 1006 1031 997 Q 1045 988 1056 1000 L 1100 1052 Q 1169 1135 1190 1156 L 1229 1198 L 1252 1221 Z"/></g><g transform="translate(5.900,15.000) scale(0.005859)"><path d="M 177 1259 L 149 1270 Q 133 1277 129.5 1268 Q 126 1259 135 1250 L 160 1228 Q 198 1195 256 1129 Q 314 1063 362 997 Q 410 931 446 871.5 Q 482 812 510.5 756 Q 539 700 549 666 Q 559 632 568 585 L 577 533 Q 579 521 584 515 Q 589 509 608 511 Q 622 513 645 523.5 Q 668 534 699.5 556 Q 731 578 744 597 Q 757 616 755 630 Q 753 640 741 653 L 711 683 Q 696 699 674 733 L 616 824 Q 574 889 527 953.5 Q 480 1018 438.5 1058 Q 397 1098 310 1169.5 Q 223 1241 177 1259 Z"/><path d="M 1843 1025 L 1899 1056 Q 1917 1067 1917.5 1080.5 Q 1918 1094 1893 1095 L 1793 1102 Q 1726 1107 1645 1106.5 Q 1564 1106 1540.5 1098 Q 1517 1090 1489 1067.5 Q 1461 1045 1387 930.5 Q 1313 816 1283 764 L 1206 633 L 1156 549 L 1086 426 Q 1071 402 1060 386.5 Q 1049 371 1031 353 Q 1013 335 996 325.5 Q 979 316 957 310 Q 935 304 909 298 Q 883 292 867 289 Q 851 286 839 279.5 Q 827 273 828 260 Q 828 252 839 244 Q 850 236 873.5 233 Q 897 230 914 229 Q 944 229 976 235.5 Q 1008 242 1033.5 254 Q 1059 266 1081 288.5 Q 1103 311 1117.5 333.5 Q 1132 356 1175 429 Q 1218 502 1268 577 Q 1318 652 1359 702.5 Q 1400 753 1459.5 803 Q 1519 853 1586.5 895.5 Q 1654 938 1739.5 977 Q 1825 1016 1843 1025 Z"/><path d="M 1278 1604 L 830 1715 Q 673 1755 631.5 1772 Q 590 1789 558.5 1805 Q 527 1821 516 1819 Q 506 1818 492 1807.5 Q 478 1797 453.5 1748.5 Q 429 1700 420.5 1678.5 Q 412 1657 420 1641 Q 424 1633 458 1617.5 Q 492 1602 517 1579.5 Q 542 1557 571 1517 Q 600 1477 616.5 1451 Q 633 1425 708 1297.5 Q 783 1170 802.5 1130.5 Q 822 1091 833 1055 Q 844 1019 844.5 999.5 Q 845 980 850 970 Q 855 960 873 959 Q 881 959 905 972 Q 929 985 946 998.5 Q 963 1012 985 1038.5 Q 1007 1065 1016.5 1083.5 Q 1026 1102 1020 1117 Q 1016 1127 1003 1135 L 977 1151 Q 962 1162 938 1191.5 Q 914 1221 900 1240 L 667 1553 Q 635 1596 632.5 1612.5 Q 630 1629 633.5 1636 Q 637 1643 654.5 1644 Q 672 1645 743 1634 L 1255 1560 Q 1458.5 1540 1278 1604 Z"/><path d="M 1255 1560 Q 1216 1492 1194 1458 L 1138 1373 Q 1133 1365 1120.5 1342 Q 1108 1319 1114.5 1311.5 Q 1121 1304 1133 1308 L 1164 1320 Q 1197 1333 1255.5 1371.5 Q 1314 1410 1367 1460 Q 1420 1510 1451.5 1572 Q 1483 1634 1481 1693 Q 1480 1717 1472.5 1745 Q 1465 1773 1453 1785 Q 1441 1797 1428 1797.5 Q 1415 1798 1398 1784 Q 1372 1765 1345 1717 L 1278 1604 L 1255 1560 Z"/></g><g transform="translate(5.900,27.133) scale(0.005859)"><path d="M 597 318 L 687 317 Q 747 317 869.5 301.5 Q 992 286 1071.5 275 Q 1151 264 1207 254.5 Q 1263 245 1302 237.5 Q 1341 230 1373 219.5 Q 1405 209 1411 208 Q 1438 205 1477.5 221 Q 1517 237 1551 255.5 Q 1585 274 1609 296.5 Q 1633 319 1633.5 331 Q 1634 343 1626 360 L 1616 380 Q 1606 401 1599.5 425.5 Q 1593 450 1592 518 L 1585 673 Q 1578 825 1584 1091.5 Q 1590 1358 1590 1442 Q 1589 1510 1586 1558 Q 1583 1606 1572 1663 Q 1561 1720 1533.5 1756.5 Q 1506 1793 1478.5 1811 Q 1451 1829 1423 1838 Q 1395 1847 1384 1843 Q 1372 1840 1354.5 1812 Q 1337 1784 1322 1764.5 Q 1307 1745 1270 1701.5 Q 1233 1658 1214 1639 L 1155 1583 Q 1139 1569 1147.5 1559 Q 1156 1549 1171 1554 L 1318 1611 Q 1359 1628 1377 1626 Q 1395 1624 1407 1608.5 Q 1419 1593 1421.5 1558 Q 1424 1523 1428 1434 Q 1432 1345 1439 1169.5 Q 1446 994 1447.5 878.5 Q 1449 763 1448 645 Q 1447 550 1444.5 507.5 Q 1442 465 1438 419 Q 1434 373 1424 356.5 Q 1414 340 1387 336 Q 1360 332 1329 334 Q 1288 338 1195 344 Q 1102 350 1048 357 L 939 375 Q 868 387 852 390 L 749 416 Q 735 419 726 419 Q 706 420 678 411 Q 650 402 626.5 387.5 Q 603 373 588.5 359 Q 574 345 573.5 335.5 Q 573 326 578 322.5 Q 583 319 597 318 Z"/><path d="M 720 717 Q 638 730 593 729.5 Q 548 729 523 718.5 Q 498 708 483.5 694 Q 469 680 471 674 Q 472 668 482.5 664 Q 493 660 509.5 658.5 Q 526 657 589 650 Q 652 643 711 634 Q 770 625 847 608.5 Q 924 592 973.5 577.5 Q 1023 563 1044 561 Q 1070 560 1089.5 567 Q 1109 574 1133.5 588 Q 1158 602 1161 611.5 Q 1164 621 1164 624 Q 1163 632 1149.5 641 Q 1136 650 1072 663.5 Q 1008 677 910 690 L 720 717 Z"/><path d="M 598 1382 L 594 1404 Q 590 1425 580 1429.5 Q 570 1434 564 1433 Q 551 1432 537 1410.5 Q 523 1389 517.5 1365.5 Q 512 1342 500 1246 L 482 1133 Q 470 1060 460 1039.5 Q 450 1019 442 1008 L 420 981 Q 414 973 413.5 967.5 Q 413 962 413 959 Q 413 957 417.5 953 Q 422 949 438 949 Q 461 950 487 960 L 559 989 Q 573.5 1022 568 1051 L 598 1301 L 598 1382 Z"/><path d="M 559 989 Q 612 984 651 977.5 Q 690 971 777 949.5 Q 864 928 904 913 Q 944 898 972.5 884 Q 1001 870 1014 868 Q 1031 866 1066 879 Q 1101 892 1124 905 Q 1147 918 1164 934.5 Q 1181 951 1181 961 Q 1180 967 1176.5 973.5 Q 1173 980 1153.5 1010.5 Q 1134 1041 1125 1059.5 Q 1116 1078 1088 1160 L 1049 1273 Q 962.5 1306.5 952 1236 L 980 1067 Q 984 1038 983.5 1015.5 Q 983 993 976.5 987.5 Q 970 982 957 980 Q 940 979 902 987 L 828 1001 Q 811 1005 750.5 1019 Q 690 1033 654 1038 L 607 1045 L 568 1051 L 559 989 Z"/><path d="M 1049 1273 Q 1066 1282 1072 1288 Q 1078 1294 1083 1303 Q 1088 1312 1087 1319.5 Q 1086 1327 1058 1330 L 974 1336 L 598 1382 L 598 1301 Q 690 1287 742.5 1277.5 Q 795 1268 852 1255.5 Q 909 1243 920 1241 L 952 1236 L 1049 1273 Z"/></g></g></svg>