<svg xmlns="http://www.w3.org/2000/svg" viewBox="0 0 40.000 40.000" width="40.000mm" height="40.000mm"><g id="stamp-engrave" stroke="#000" stroke-width="0.3" fill="none" stroke-linecap="round" stroke-linejoin="round"><path class="stamp-border" d="M 40.000 20.000 L 39.904 21.960 L 39.616 23.902 L 39.139 25.806 L 38.478 27.654 L 37.638 29.428 L 36.629 31.111 L 35.460 32.688 L 34.142 34.142 L 32.688 35.460 L 31.111 36.629 L 29.428 37.638 L 27.654 38.478 L 25.806 39.139 L 23.902 39.616 L 21.960 39.904 L 20.000 40.000 L 18.040 39.904 L 16.098 39.616 L 14.194 39.139 L 12.346 38.478 L 10.572 37.638 L 8.889 36.629 L 7.312 35.460 L 5.858 34.142 L 4.540 32.688 L 3.371 31.111 L 2.362 29.428 L 1.522 27.654 L 0.861 25.806 L 0.384 23.902 L 0.096 21.960 L 0.000 20.000 L 0.096 18.040 L 0.384 16.098 L 0.861 14.194 L 1.522 12.346 L 2.362 10.572 L 3.371 8.889 L 4.540 7.312 L 5.858 5.858 L 7.312 4.540 L 8.889 3.371 L 10.572 2.362 L 12.346 1.522 L 14.194 0.861 L 16.098 0.384 L 18.040 0.096 L 20.000 0.000 L 21.960 0.096 L 23.902 0.384 L 25.806 0.861 L 27.654 1.522 L 29.428 2.362 L 31.111 3.371 L 32.688 4.540 L 34.142 5.858 L 35.460 7.312 L 36.629 8.889 L 37.638 10.572 L 38.478 12.346 L 39.139 14.194 L 39.616 16.098 L 39.904 18.040 Z"/><g transform="translate(9.200,4.222) rotate(-30.00,4.000,4.000) scale(0.003906)"><path d="M 798 608 L 778 405 Q 775 376 770.5 342.5 Q 766 309 760.5 288 Q 755 267 742.5 247.5 Q 730 228 730.5 219.5 Q 731 211 739.5 204.5 Q 748 198 768 201 Q 771 202 805 211.5 Q 839 221 848 224.5 Q 857 228 875.5 241.5 Q 894 255 895 263.5 Q 896 272 890 290 Q 882 311 878.5 342 Q 875 373 876 399 L 882 597 Q 840 662.5 798 608 Z"/><path d="M 1054 574 L 1065 321 Q 1067 267 1065 247 Q 1063 227 1060 207.5 Q 1057 188 1047 170 Q 1037 152 1035.5 142.5 Q 1034 133 1043 126 Q 1052 119 1074 121 Q 1101 125 1116.5 129 Q 1132 133 1153 141.5 Q 1174 150 1189.5 162 Q 1205 174 1207 187 L 1190 232 Q 1187 240 1185 260 L 1177 313 L 1148 569 Q 1088 627.5 1054 574 Z"/><path d="M 486 394 L 473 365 Q 469 358 472.5 351.5 Q 476 345 503 352 L 542 363 Q 554 368 575.5 378 Q 597 388 612 399 Q 627 410 641 430.5 Q 655 451 660 470 Q 665 489 663.5 518.5 Q 662 548 650 559 Q 638 570 620 566 Q 608 564 595.5 552 Q 583 540 565.5 517 Q 548 494 527.5 458.5 Q 507 423 497.5 411 Q 488 399 486 394 Z"/><path d="M 1315 484 L 1282 503 Q 1260 516 1253 512.5 Q 1246 509 1245.5 501 Q 1245 493 1257 480 L 1279 456 Q 1292 442 1317.5 408 Q 1343 374 1360 347 Q 1377 320 1388 294 Q 1399 268 1398.5 250 Q 1398 232 1402 226.5 Q 1406 221 1427 222 Q 1442 224 1474 236.5 Q 1506 249 1520 256 Q 1534 263 1550.5 278.5 Q 1567 294 1566 306 Q 1564 315 1554.5 322.5 Q 1545 330 1524.5 341.5 Q 1504 353 1474 375 L 1410 422 Q 1387 439 1357.5 458 Q 1328 477 1315 484 Z"/><path d="M 706 699 L 537 736 Q 509 743 474 755.5 Q 439 768 415 777.5 Q 391 787 378 786 Q 362 786 339 772 L 282 738 Q 254 724 245.5 709 Q 237 694 241.5 684.5 Q 246 675 283 672 L 337 669 Q 381 667 494.5 652 Q 608 637 634 633 L 798 608 L 882 597 L 1054 574 L 1148 569 L 1449 536 L 1541 522 L 1625 511 Q 1637 509 1642 508 Q 1661 507 1693 521 Q 1725 535 1741.5 544.5 Q 1758 554 1779 569.5 Q 1800 585 1805 599 Q 1810 613 1801.5 624.5 Q 1793 636 1766 636 L 1733 636 Q 1714 636 1639.5 630 Q 1565 624 1458 624 Q 1355 625 1313 628 L 1210 636 L 1135 644 L 902 668 L 742 694 L 706 699 Z"/><path d="M 846 931 Q 832 921 823.5 912 Q 815 903 795 869 L 762 814 Q 750 795 731 752 L 706 699 L 742 694 Q 776 712 804.5 727 Q 833 742 854.5 759 Q 876 776 887 795.5 Q 898 815 901 843.5 Q 904 872 898 889 L 887 925 Q 874.5 944 846 931 Z"/><path d="M 1210 636 Q 1247 656 1259 674.5 Q 1271 693 1268.5 700 Q 1266 707 1251.5 719.5 Q 1237 732 1220.5 755 Q 1204 778 1189 797 L 1132 869 L 1110 898 Q 1040 962 1054 906 Q 1074 864 1086 836.5 Q 1098 809 1112.5 769.5 Q 1127 730 1129.5 713 Q 1132 696 1134 669 L 1135 644 L 1210 636 Z"/><path d="M 912 992 L 765 1017 L 698 1028 Q 663 1035 651 1034 Q 630 1033 600.5 1020 Q 571 1007 558.5 995 Q 546 983 548 975 Q 550 967 570 964 L 629 955 L 706 948 L 846 931 Q 832 921 823.5 912 Q 838.25 928.5 887 925 L 1054 906 L 1110 898 L 1230 878 Q 1281 870 1305 865 Q 1329 860 1341 859 Q 1365 859 1385 865.5 Q 1405 872 1427 883.5 Q 1449 895 1465 908.5 Q 1481 922 1479 936.5 Q 1477 951 1438 951 L 1332 953 Q 1288 954 1207 961 L 1036 976 L 912 992 Z"/><path d="M 926 1190 L 801 1204 Q 799 1205 755.5 1207.5 Q 712 1210 702 1209 Q 681 1208 655 1197.5 Q 629 1187 622.5 1179 Q 616 1171 615.5 1165 Q 615 1159 620 1154.5 Q 625 1150 642 1148 L 926 1119 L 1043 1102 L 1149 1087 Q 1173 1084 1215.5 1073.5 Q 1258 1063 1277 1064 Q 1289 1065 1322 1073.5 Q 1355 1082 1375 1093.5 Q 1395 1105 1393.5 1113 Q 1392 1121 1383 1127 Q 1374 1133 1325 1139 L 1037 1176 L 926 1190 Z"/><path d="M 930 1368 Q 881 1374 835 1379 Q 789 1384 746.5 1391.5 Q 704 1399 647 1412 L 586 1426 Q 536 1438 522.5 1437.5 Q 509 1437 483.5 1428.5 Q 458 1420 433 1409.5 Q 408 1399 389 1384 Q 370 1369 376 1357.5 Q 382 1346 400 1345 L 453 1343 Q 515 1341 558 1337 L 705 1320 L 928 1295 L 1032 1287 L 1168 1279 Q 1210 1277 1281.5 1268 Q 1353 1259 1392.5 1253 Q 1432 1247 1458.5 1241 Q 1485 1235 1496 1234 Q 1511 1234 1532.5 1240 Q 1554 1246 1568.5 1253 Q 1583 1260 1616.5 1279.5 Q 1650 1299 1662 1313 Q 1674 1327 1671 1337.5 Q 1668 1348 1656 1354.5 Q 1644 1361 1610 1359 L 1555 1356 L 1482 1354 L 1379 1348 Q 1333 1347 1240.5 1351 Q 1148 1355 1123 1356 L 1069 1360 L 1030 1362 L 930 1368 Z"/><path d="M 1030 1362 L 1029 1521 L 1034 1661 L 1044 1791 Q 1042 1816 1035 1836 Q 1028 1856 1017 1877 Q 1006 1898 992.5 1913 Q 979 1928 970.5 1928.5 Q 962 1929 952 1917 Q 943 1908 925.5 1866.5 Q 908 1825 903 1799.5 Q 898 1774 899 1759 Q 899 1744 907.5 1704.5 Q 916 1665 920.5 1627.5 Q 925 1590 926.5 1560.5 Q 928 1531 929 1460 L 930 1368 L 928 1295 L 926 1190 L 926 1119 Q 925 1061 923 1048 L 912 992 L 1036 976 Q 1048 986 1054 992 Q 1060 998 1062.5 1005.5 Q 1065 1013 1055 1037.5 Q 1045 1062 1045 1072 L 1043 1102 L 1037 1176 L 1032 1287 L 1030 1362 Z"/><path d="M 358 1811 L 384 1795 Q 405 1782 443.5 1755 Q 482 1728 531.5 1687 Q 581 1646 612 1613.5 Q 643 1581 657 1558 Q 671 1535 677 1510.5 Q 683 1486 691 1480.5 Q 699 1475 720 1481 Q 739 1488 762 1508.5 Q 785 1529 797 1542.5 Q 809 1556 816 1573 Q 823 1590 816 1600 Q 812 1605 795 1611.5 Q 778 1618 764.5 1627 Q 751 1636 694 1678 Q 637 1720 582.5 1751.5 Q 528 1783 479 1802 Q 430 1821 397 1828 L 368 1835 Q 348 1840 344 1831 Q 340 1822 358 1811 Z"/><path d="M 1221 1518 L 1201 1498 Q 1185 1483 1188.5 1477 Q 1192 1471 1204 1471 Q 1208 1472 1219 1475 Q 1230 1478 1271.5 1493 Q 1313 1508 1350.5 1524.5 Q 1388 1541 1435.5 1572 Q 1483 1603 1514.5 1633 Q 1546 1663 1558.5 1694 Q 1571 1725 1574 1763 Q 1577 1801 1568 1814.5 Q 1559 1828 1542.5 1832 Q 1526 1836 1498 1815 Q 1481 1804 1447.5 1769.5 Q 1414 1735 1354 1664 Q 1294 1593 1285 1583 Q 1276 1573 1221 1518 Z"/></g><g transform="translate(26.418,7.258) rotate(50.00,4.000,4.000) scale(0.003906)"><path d="M 617 651 L 737 493 Q 765 456 768.5 443.5 Q 772 431 768 422.5 Q 764 414 745 411 Q 731 409 707 414.5 Q 683 420 633 430.5 Q 583 441 555.5 448.5 Q 528 456 494.5 471 Q 461 486 450.5 489 Q 440 492 424 492 Q 406 493 398 489.5 Q 390 486 361.5 471 Q 333 456 324 443 Q 315 430 319.5 423 Q 324 416 332 415 L 379 412 Q 398 411 456.5 402 Q 515 393 533 389 L 660 363 Q 716 353 752.5 340 Q 789 327 801 326 Q 819 326 840 335 Q 861 344 885 358 Q 909 372 934.5 389 Q 960 406 964.5 418.5 Q 969 431 969 436 Q 968 447 963 455 Q 958 463 951.5 468 Q 945 473 921 486.5 Q 897 500 856 526.5 Q 815 553 807 560 L 662 679 Q 607.5 693 617 651 Z"/><path d="M 639 840 Q 600 811 584 793 L 499 674 Q 476 647 473 635 Q 470 623 473 617 Q 476 611 508 614.5 Q 540 618 573 632 L 617 651 L 662 679 Q 696 719 698.5 737.5 Q 701 756 701 759 L 690 827 Q 684.5 880.5 639 840 Z"/><path d="M 549 919 L 272 966 Q 269 967 238 977.5 Q 207 988 198 988 Q 186 989 173.5 986 Q 161 983 145.5 975.5 Q 130 968 118.5 951.5 Q 107 935 112 927 Q 114 923 126 922.5 Q 138 922 167.5 919.5 Q 197 917 200 916 L 639 840 L 690 827 Q 711 821 722 818 L 805 799 Q 836 789 845 788 Q 858 788 878.5 794 Q 899 800 916 809 Q 933 818 978.5 843 Q 1024 868 1035 882.5 Q 1046 897 1046 908 Q 1045 914 1041 921.5 Q 1037 929 1021 936 L 955 952 Q 932 958 897 975.5 Q 862 993 836 1004 Q 810 1015 801 1022 L 777 1039 Q 769 1045 762.5 1039 Q 756 1033 761 1027 L 780 1005 Q 785 999 795.5 980.5 Q 806 962 822 938 Q 838 914 839.5 902.5 Q 841 891 828.5 885 Q 816 879 801 880 L 759 886 L 618 905 L 549 919 Z"/><path d="M 629.5 921 Q 633 923 650 926.5 Q 667 930 676 938 Q 685 946 690.5 958.5 Q 696 971 696.5 982.5 Q 697 994 697 995 L 684 1477 Q 679 1628 646 1722.5 Q 613 1817 591.5 1831.5 Q 570 1846 558 1845 Q 537 1845 511 1804.5 Q 485 1764 465.5 1740.5 Q 446 1717 418 1685.5 Q 390 1654 383 1647 L 368 1633 Q 363 1629 366 1622 Q 369 1615 376 1617 L 411 1629 L 476 1655 Q 507 1665 525 1657 Q 550 1647 560.5 1563 Q 571 1479 574 1449.5 Q 577 1420 583 1283 Q 589 1146 588 1133 L 581 1075 Q 570.25 931 629.5 921 Z"/><path d="M 618 905 Q 626 919 629.5 921 Q 633 923 650 926.5 L 581 1075 Q 573 1092 564 1109 Q 555 1126 532 1165 Q 509 1204 455.5 1279 Q 402 1354 344 1406 Q 286 1458 211.5 1504 Q 137 1550 109 1561 L 81 1572 Q 70 1577 66 1568.5 Q 62 1560 66 1556 L 98 1531 Q 116 1517 179 1456 Q 242 1395 287.5 1341.5 Q 333 1288 392.5 1204 Q 452 1120 477 1074.5 Q 502 1029 521 985 L 549 919 L 618 905 Z"/><path d="M 1153 540 Q 1121 574 1096 599.5 Q 1071 625 1051 640.5 Q 1031 656 990 686 L 972 699 Q 953 713 945 703 Q 937 693 946 682 L 968 655 Q 1012 601 1024 585 Q 1036 569 1086 486 Q 1136 403 1155.5 362 Q 1175 321 1188 277.5 Q 1201 234 1203.5 212.5 Q 1206 191 1207 172 Q 1208 153 1213.5 147 Q 1219 141 1235 141 Q 1251 142 1275 155.5 Q 1299 169 1318 182.5 Q 1337 196 1353.5 219 Q 1370 242 1369 252 Q 1367 260 1348 276.5 Q 1329 293 1314.5 312.5 Q 1300 332 1271.5 378 Q 1243 424 1235 434 L 1189 494 L 1153 540 Z"/><path d="M 1418 530 Q 1369 536 1318 542.5 Q 1267 549 1229 551.5 Q 1191 554 1180 549 L 1153 540 L 1189 494 L 1522 429 L 1614 407 Q 1629 407 1637.5 409 Q 1646 411 1679 421.5 Q 1712 432 1720.5 441.5 Q 1729 451 1729 459 Q 1728 468 1715 478.5 Q 1702 489 1656 495 L 1579 509 L 1506 518 L 1418 530 Z"/><path d="M 1275 794 Q 1293 774 1317.5 745 Q 1342 716 1369 675 Q 1396 634 1406.5 601.5 Q 1417 569 1417 560 L 1418 530 L 1506 518 Q 1535 547 1554.5 568.5 Q 1574 590 1574.5 605.5 Q 1575 621 1569 632 L 1522 676 L 1361 855 L 1309 903 Q 1266 939 1224 970.5 Q 1182 1002 1124.5 1032 Q 1067 1062 1012.5 1087 Q 958 1112 935 1119 L 908 1127 Q 888 1133 884 1124 Q 880 1115 891 1108 L 921 1088 Q 962 1061 985 1045.5 Q 1008 1030 1071 979.5 Q 1134 929 1183 885 L 1236 838 L 1275 794 Z"/><path d="M 1236 838 Q 1217 823 1207 816 Q 1197 809 1162.5 787.5 Q 1128 766 1110 758.5 Q 1092 751 1074.5 747.5 Q 1057 744 1053 737 Q 1049 730 1072 715 Q 1077 712 1097.5 706 Q 1118 700 1133 704 Q 1139 706 1163 724 L 1205 749 L 1275 794 L 1361 855 Q 1420 893 1460.5 913.5 Q 1501 934 1574 959.5 Q 1647 985 1701 998.5 Q 1755 1012 1825 1024 L 1920 1041 L 1962 1049 Q 1980 1053 1982 1062 Q 1984 1071 1964 1077 L 1934 1086 Q 1889 1100 1815.5 1113 Q 1742 1126 1683 1127 Q 1626 1129 1588.5 1116 Q 1551 1103 1489 1052 L 1372 955 L 1309 903 L 1236 838 Z"/><path d="M 1138 1324 Q 1095 1335 1065 1341 Q 1035 1347 1012.5 1354 Q 990 1361 982 1361 Q 964 1362 945 1350 L 909 1324 Q 890 1312 889.5 1303.5 Q 889 1295 893 1291.5 Q 897 1288 921 1286 L 965 1283 L 1165 1257 L 1291 1241 L 1444 1214 Q 1459 1212 1493 1200.5 Q 1527 1189 1536 1188 Q 1558 1187 1595 1208.5 Q 1632 1230 1658 1248.5 Q 1684 1267 1684.5 1279.5 Q 1685 1292 1664 1322 Q 1647 1346 1636 1377 Q 1625 1408 1608 1486 L 1569 1658 Q 1561 1690 1537 1746 Q 1513 1802 1491 1828 Q 1469 1854 1425 1885 Q 1381 1916 1364 1908 Q 1354 1904 1341 1883 L 1313 1836 Q 1304 1823 1279 1786 Q 1254 1749 1247 1738 L 1219 1699 Q 1212 1691 1216 1686 Q 1220 1681 1230 1686 L 1252 1699 Q 1261 1705 1294.5 1719.5 Q 1328 1734 1344 1735 Q 1371 1739 1397 1725.5 Q 1423 1712 1452 1636.5 Q 1481 1561 1497 1491 L 1521 1379 Q 1535 1324 1524 1303 Q 1516 1290 1501 1282.5 Q 1486 1275 1447 1278 L 1349 1286 L 1266 1300 L 1138 1324 Z"/><path d="M 1165 1257 L 1183 1187 L 1190 1143 Q 1199 1090 1195.5 1068.5 Q 1192 1047 1193 1045 Q 1194 1038 1198.5 1033.5 Q 1203 1029 1220 1031 Q 1237 1034 1278 1056 Q 1319 1078 1337 1097.5 Q 1355 1117 1353 1131 Q 1351 1138 1340 1151 Q 1329 1164 1319 1180 Q 1309 1196 1305 1206 L 1291 1241 L 1266 1300 Q 1241 1353 1213.5 1407.5 Q 1186 1462 1140 1533 Q 1094 1604 1041.5 1654.5 Q 989 1705 924 1749.5 Q 859 1794 837 1803 L 805 1816 Q 797 1820 789 1814 Q 781 1808 797 1794 L 819 1775 L 875 1727 Q 923 1683 970.5 1622 Q 1018 1561 1059.5 1489.5 Q 1101 1418 1116 1379 L 1138 1324 L 1165 1257 Z"/></g><g transform="translate(26.418,24.742) rotate(130.00,4.000,4.000) scale(0.003906)"><path d="M 944 393 L 673 415 Q 638 418 604.5 418.5 Q 571 419 528 410.5 Q 485 402 473.5 382.5 Q 462 363 466 354.5 Q 470 346 510 343 L 571 339 Q 658 334 747 324 L 942 304 L 1061 289 Q 1146 281 1189 273 L 1289 254 Q 1361 242 1392.5 232 Q 1424 222 1437 222 Q 1448 223 1476 232.5 Q 1504 242 1513 247 Q 1522 252 1540 266.5 Q 1558 281 1557.5 287 Q 1557 293 1550 300.5 Q 1543 308 1525 312 L 1476 323 Q 1427 334 1324.5 349.5 Q 1222 365 1174 368 L 1061 378 L 944 393 Z"/><path d="M 725 969 L 719 989 Q 711 1014 694.5 1014.5 Q 678 1015 665 994 Q 655 981 647 950.5 Q 639 920 637 905 L 602 703 Q 595 667 586 645 Q 577 623 559 606 L 526 578 Q 512 562 516 555.5 Q 520 549 536 547 Q 552 546 578 549 L 638 558 Q 670.5 561 677 610 L 693 729 L 706 788 L 727 910 L 725 969 Z"/><path d="M 638 558 L 942 524 L 1056 506 L 1278 477 L 1353 462 Q 1374 458 1387 459 Q 1399 461 1427.5 473 Q 1456 485 1481.5 497.5 Q 1507 510 1521 525 Q 1535 540 1535 554 Q 1534 566 1515.5 593.5 Q 1497 621 1489 640 L 1426 778 L 1372 910 Q 1363 930 1354 942 Q 1345 954 1333 958.5 Q 1321 963 1309 960 Q 1286 956 1285 946 L 1280 928 Q 1228 850.5 1288 867 L 1321 736 L 1328 690 L 1345 620 Q 1353 585 1349 570.5 Q 1345 556 1337.5 551.5 Q 1330 547 1293 549 L 1055 567 L 944 580 L 677 610 L 638 558 Z"/><path d="M 693 729 L 944 706 L 1046 690 L 1154 675 L 1205 667 Q 1220 667 1255.5 671 Q 1291 675 1301 679 L 1328 690 L 1321 736 L 1041 761 L 944 773 L 706 788 L 693 729 Z"/><path d="M 944 959 L 823 971 Q 779 976 771 974 L 725 969 L 727 910 L 944 891 L 1038 882 L 1100 875 Q 1120 873 1156 867.5 Q 1192 862 1209 860 Q 1249 857 1269 862 L 1288 867 L 1280 928 Q 1174 936 1152 937 L 1042 946 L 944 959 Z"/><path d="M 944 1084 L 944 959 L 944 891 L 944 773 L 944 706 L 944 580 L 942 524 L 944 393 L 942 304 L 942 258 Q 942 217 941 200.5 Q 940 184 928.5 156 Q 917 128 914.5 119 Q 912 110 916.5 102.5 Q 921 95 938 92 Q 952 90 997 101.5 Q 1042 113 1059.5 123 Q 1077 133 1078.5 143.5 Q 1080 154 1070 191 Q 1069 195 1066 226 L 1061 289 L 1061 378 L 1056 506 L 1055 567 L 1046 690 L 1041 761 L 1038 882 L 1042 946 L 1034 1076 Q 989 1130 944 1084 Z"/><path d="M 1345 1080 L 811 1178 L 725 1196 Q 685 1204 671 1209.5 Q 657 1215 642 1224 Q 627 1233 615 1235.5 Q 603 1238 573 1209 Q 563 1201 538.5 1175 Q 514 1149 506.5 1133.5 Q 499 1118 501.5 1112 Q 504 1106 511 1102.5 Q 518 1099 541 1106.5 Q 564 1114 608.5 1114.5 Q 653 1115 675 1112 L 917 1088 L 944 1084 L 1034 1076 L 1315 1041 Q 1382 1036.5 1345 1080 Z"/><path d="M 1315 1041 L 1293 1014 Q 1274 992 1278.5 985 Q 1283 978 1307 980 Q 1332 983 1371 994 Q 1410 1005 1442 1018.5 Q 1474 1032 1494.5 1053 Q 1515 1074 1519.5 1111 Q 1524 1148 1512 1166 Q 1500 1184 1477.5 1187.5 Q 1455 1191 1426 1168 Q 1408 1155 1378 1119 L 1345 1080 L 1315 1041 Z"/><path d="M 1257 1287 L 1504 1263 Q 1576 1256 1626 1249 Q 1676 1242 1693 1241 Q 1730 1240 1751 1246 Q 1772 1252 1820.5 1274.5 Q 1869 1297 1882 1311 Q 1895 1325 1892.5 1339.5 Q 1890 1354 1860 1355 L 1778 1359 Q 1752 1361 1634.5 1357 Q 1517 1353 1426 1355 L 1250 1360 L 1154 1367 Q 1041 1375 952.5 1381 Q 864 1387 760 1395 Q 656 1403 587 1414 L 496 1429 L 377 1456 Q 337 1465 315 1463 Q 296 1462 263.5 1452 Q 231 1442 205.5 1432 Q 180 1422 166 1405.5 Q 152 1389 155 1376.5 Q 158 1364 185 1362 L 245 1359 Q 296 1357 446 1344.5 Q 596 1332 757.5 1319 Q 919 1306 964 1303 L 1147 1293 L 1257 1287 Z"/><path d="M 1250 1360 L 1260 1675 Q 1261 1717 1251.5 1776 Q 1242 1835 1224.5 1873 Q 1207 1911 1176.5 1935 Q 1146 1959 1129 1956 Q 1116 1955 1095 1929 Q 1074 1903 1028.5 1860 Q 983 1817 981 1814 L 929 1771 Q 913 1759 912.5 1749.5 Q 912 1740 918 1736 Q 924 1732 941 1734 L 996 1744 Q 1021 1749 1062.5 1756 Q 1104 1763 1118 1752 Q 1130 1743 1135.5 1712.5 Q 1141 1682 1144.5 1630 Q 1148 1578 1149 1560 L 1154 1367 L 1147 1293 Q 1145 1265 1142.5 1237.5 Q 1140 1210 1128.5 1186.5 Q 1117 1163 1118 1154 Q 1119 1145 1127.5 1138 Q 1136 1131 1166 1139 L 1223 1155 Q 1248 1164 1263 1176 Q 1278 1188 1278.5 1197 Q 1279 1206 1270 1226 Q 1262 1242 1262 1250 L 1257 1287 L 1250 1360 Z"/><path d="M 712 1606 L 624 1466 Q 620 1461 617 1448.5 Q 614 1436 619.5 1430.5 Q 625 1425 643 1426 Q 668 1429 711.5 1445.5 Q 755 1462 782 1472.5 Q 809 1483 825 1497 Q 841 1511 851.5 1534.5 Q 862 1558 863.5 1595.5 Q 865 1633 850.5 1654 Q 836 1675 812.5 1677.5 Q 789 1680 759 1656.5 Q 729 1633 712 1606 Z"/></g><g transform="translate(9.200,27.778) rotate(210.00,4.000,4.000) scale(0.003906)"><path d="M 672 1111 Q 663 1179 653.5 1238 Q 644 1297 618.5 1386 Q 593 1475 546 1556.5 Q 499 1638 396 1723 L 379 1737 Q 363 1751 355.5 1743 Q 348 1735 355 1723 L 368 1704 Q 400 1657 444 1559.5 Q 488 1462 516.5 1334.5 Q 545 1207 556.5 1040 Q 568 873 566 658 Q 564 561 558 521 Q 552 481 545 455 Q 538 429 524 402.5 Q 510 376 509.5 361 Q 509 346 517.5 338.5 Q 526 331 559 338 Q 604 349 607 350 L 645 364 Q 708 383.5 711 433 Q 708 458 707 470 L 699 517 Q 695 544 694 586 L 690 738 L 690 778 L 671 1065 L 672 1111 Z"/><path d="M 645 364 Q 874 346 963.5 334 Q 1053 322 1136.5 308 Q 1220 294 1278 283 Q 1336 272 1396 255.5 Q 1456 239 1474.5 234.5 Q 1493 230 1509 230 Q 1533 231 1572.5 248.5 Q 1612 266 1652 303.5 Q 1692 341 1692.5 351 Q 1693 361 1684 380 Q 1674 401 1662 436 Q 1650 471 1645 527 Q 1640 583 1641 688 L 1642 1487 Q 1642 1608 1612 1694 Q 1582 1780 1558 1800 Q 1534 1820 1518 1820 Q 1505 1821 1492 1813 Q 1479 1805 1454.5 1770 Q 1430 1735 1423 1725.5 Q 1416 1716 1382 1681 Q 1348 1646 1306 1599 L 1281 1571 Q 1272 1562 1280.5 1558 Q 1289 1554 1293 1555 L 1328 1568 L 1398 1593 Q 1447 1615 1462 1609 Q 1471 1607 1484 1592.5 Q 1497 1578 1505 1505 Q 1513 1432 1514 1365 L 1517 1062 L 1521 998 L 1523 709 L 1520 659 L 1517 431 Q 1516 383 1509.5 374.5 Q 1503 366 1490 360.5 Q 1477 355 1454 353 Q 1424 352 1300 360 Q 1176 368 1140 374 L 1083 383 L 999 391 L 711 433 L 645 364 Z"/><path d="M 1021 781 Q 962 789 916 793.5 Q 870 798 804.5 801 Q 739 804 717 791 L 690 778 L 690 738 L 1019 706 L 1142 689 Q 1181 681 1202 677 L 1319 656 Q 1401 638 1430 637.5 Q 1459 637 1481 645 L 1520 659 L 1523 709 Q 1459 723 1401 733.5 Q 1343 744 1286 750 L 1139 768 L 1021 781 Z"/><path d="M 1517 1062 Q 1473 1069 1451 1071 L 1281 1087 L 1136 1101 L 1016 1113 Q 909 1121 844 1127.5 Q 779 1134 748.5 1130.5 Q 718 1127 699 1120 L 672 1111 L 671 1065 Q 750 1058 834 1050.5 Q 918 1043 946 1039 L 1017 1030 L 1133 1015 Q 1203 1008 1284 995.5 Q 1365 983 1392 982 Q 1438 981 1466 987 L 1521 998 L 1517 1062 Z"/><path d="M 1136 1101 L 1127 1304 Q 1124 1364 1117 1432 Q 1110 1500 1103 1551.5 Q 1096 1603 1080 1643 Q 1064 1683 1052 1682.5 Q 1040 1682 1027 1657 Q 1014 1632 1018 1558 L 1011 1406 L 1016 1113 L 1017 1030 L 1021 781 L 1019 706 L 1019 617 Q 1019 507 1015 486 L 999 391 L 1083 383 Q 1117 398 1138.5 408.5 Q 1160 419 1169.5 430 Q 1179 441 1179.5 449 Q 1180 457 1167 486 Q 1160 500 1152 544 Q 1144 588 1144 603 L 1142 689 L 1139 768 L 1133 1015 L 1136 1101 Z"/></g><g transform="translate(14.400,14.400) scale(0.005469)"><path d="M 992 299 Q 969 280 954.5 263 Q 940 246 909 194 Q 878 142 872.5 121.5 Q 867 101 872.5 93.5 Q 878 86 898 85 Q 913 85 945 95 Q 977 105 1018 121 Q 1059 137 1071.5 162.5 Q 1084 188 1080 218 Q 1075 250 1065 262 L 1042 292 Q 1017 321.5 992 299 Z"/><path d="M 717 407 Q 697 409 671.5 408.5 Q 646 408 612 398 Q 578 388 565.5 374 Q 553 360 557.5 353 Q 562 346 582 344 L 623 340 Q 675 335 727 330.5 Q 779 326 782 325 L 918 308 L 992 299 L 1042 292 Q 1098 285 1147 278 Q 1196 271 1232 261 L 1283 248 L 1330 234 Q 1342 233 1367 239 Q 1392 245 1398 247 Q 1404 249 1430 263.5 Q 1456 278 1457.5 284.5 Q 1459 291 1447 303 Q 1435 315 1386 323 L 1252 346 L 1180 354 Q 1139 361 1128 362.5 Q 1117 364 933 383 L 813 397 L 770 402 L 717 407 Z"/><path d="M 838 665 Q 815 628 805 609.5 Q 795 591 788 574 L 758 503 L 742 467 L 717 407 L 770 402 Q 782 410 800.5 420.5 Q 819 431 844.5 449.5 Q 870 468 885.5 496.5 Q 901 525 904 561 Q 905 582 902 615 L 898 658 Q 874 727.5 838 665 Z"/><path d="M 1252 346 Q 1277 365 1295.5 376.5 Q 1314 388 1324.5 400.5 Q 1335 413 1331 427 Q 1329 434 1316.5 445.5 Q 1304 457 1283.5 482.5 Q 1263 508 1256 516 L 1164 628 Q 1050.5 747 1105 634 L 1165 474 Q 1180 432 1180 406 L 1180 354 L 1252 346 Z"/><path d="M 1164 628 Q 1202 625 1222 622 L 1441 595 Q 1524 585 1554 580 L 1613 570 L 1687 555 Q 1712 555 1738.5 565 Q 1765 575 1797 592.5 Q 1829 610 1849 626.5 Q 1869 643 1866 655.5 Q 1863 668 1844.5 679 Q 1826 690 1739 692 L 1668 694 L 1558 695 Q 1532 696 1419 700 L 1210 708 Q 1086 715 935.5 731 Q 785 747 709 757 Q 633 767 588 775.5 Q 543 784 483 799 Q 423 814 391 826.5 Q 359 839 348 839 Q 336 840 311 832 Q 286 824 269 816.5 Q 252 809 222.5 793 Q 193 777 185.5 760.5 Q 178 744 182.5 734.5 Q 187 725 213 723 L 247 721 Q 291 719 373 712.5 Q 455 706 555.5 696 Q 656 686 776 672 L 838 665 L 898 658 Q 928 655 953.5 651.5 Q 979 648 985 647 Q 991 646 1047 640 L 1105 634 L 1164 628 Z"/><path d="M 772 1303 Q 770 1321 764 1331 Q 758 1341 745 1343.5 Q 732 1346 713.5 1324.5 Q 695 1303 685 1234 L 654 1038 Q 648 1001 634.5 964 Q 621 927 608 914 L 591 900 Q 576 886 579 879.5 Q 582 873 594 870 Q 607 867 640 874.5 Q 673 882 689 886 L 708 891 Q 741 907.5 734 944 L 758 1064 L 766 1126 L 775 1243 Q 775.5 1271 772 1303 Z"/><path d="M 708 891 Q 791 882 833 875 L 1089 833 Q 1173 821 1203.5 814 Q 1234 807 1259 791.5 Q 1284 776 1294.5 773.5 Q 1305 771 1337 786 Q 1339 788 1383 812.5 Q 1427 837 1442 851 Q 1457 865 1458.5 875 Q 1460 885 1441.5 911.5 Q 1423 938 1410 978 L 1337 1195 Q 1310 1274 1295.5 1290 Q 1281 1306 1268 1313.5 Q 1255 1321 1245 1321 Q 1238 1322 1234 1319.5 Q 1230 1317 1229 1313 L 1206 1267 Q 1171.5 1214 1217 1217 Q 1233 1173 1234 1167 L 1255 1063 L 1261 1019 Q 1273 962 1272.5 927 Q 1272 892 1259.5 881.5 Q 1247 871 1206 874 Q 1165 877 1036.5 894 Q 908 911 850 922 L 734 944 L 708 891 Z"/><path d="M 758 1064 Q 798 1062 837.5 1057.5 Q 877 1053 975 1034 L 1118 1006 Q 1159 999 1175.5 1000 Q 1192 1001 1231 1011 L 1261 1019 L 1255 1063 Q 1219 1070 1201 1072 L 995 1103 Q 852 1127 822 1126 L 766 1126 L 758 1064 Z"/><path d="M 933 1291 Q 898 1295 865.5 1298 Q 833 1301 828 1301 L 772 1303 L 775 1243 Q 821 1240 845 1237 L 981 1220 Q 1069 1210 1104 1202 Q 1139 1194 1154 1195.5 Q 1169 1197 1184 1203 L 1217 1217 L 1206 1267 Q 1147 1271 1112.5 1274 Q 1078 1277 1061 1278 L 1005 1284 L 933 1291 Z"/><path d="M 1080 1435 Q 1119 1433 1139 1431 L 1272 1423 Q 1350 1419 1398 1413 L 1508 1399 Q 1561 1393 1594 1385 Q 1627 1377 1637 1376 Q 1658 1376 1691.5 1388 Q 1725 1400 1742.5 1409 Q 1760 1418 1779 1435 Q 1798 1452 1796.5 1462.5 Q 1795 1473 1770.5 1484 Q 1746 1495 1690 1495 L 1637 1495 Q 1605 1495 1523 1497 L 1354 1501 Q 1216 1505 1130 1511 L 1072 1515 L 961 1524 Q 888 1530 853 1532 L 743 1540 Q 658 1547 615 1552 L 528 1565 Q 500 1569 488.5 1572 Q 477 1575 458 1582.5 Q 439 1590 431 1590 Q 421 1591 392.5 1581 Q 364 1571 359 1568.5 Q 354 1566 325 1548.5 Q 296 1531 289 1519 Q 282 1507 286.5 1499.5 Q 291 1492 302 1491 L 322 1490 Q 336 1490 403 1488 Q 470 1486 541 1480 L 710 1465 L 864 1452 Q 914 1448 921 1447 L 961 1445 L 1080 1435 Z"/><path d="M 1005 1284 Q 1019 1288 1034.5 1293 Q 1050 1298 1066.5 1306.5 Q 1083 1315 1093.5 1325.5 Q 1104 1336 1104.5 1344.5 Q 1105 1353 1098 1369 Q 1091 1385 1089 1395 L 1080 1435 L 1072 1515 L 1067 1622 Q 1063 1698 1061 1732 Q 1059 1766 1054 1795 Q 1049 1824 1039 1868.5 Q 1029 1913 1016.5 1940 Q 1004 1967 994 1965 Q 986 1964 977.5 1951.5 Q 969 1939 968.5 1909.5 Q 968 1880 964.5 1829.5 Q 961 1779 961 1754 L 961 1524 L 961 1445 Q 960 1415 958 1389 Q 956 1363 948 1340 L 937 1312 L 933 1291 L 1005 1284 Z"/></g></g></svg>