<svg xmlns="http://www.w3.org/2000/svg" viewBox="0 0 50.000 30.000" width="50.000mm" height="30.000mm"><g id="stamp-engrave" stroke="#000" stroke-width="0.3" fill="none" stroke-linecap="round" stroke-linejoin="round"><path class="stamp-border" d="M 50.000 15.000 L 49.880 16.470 L 49.520 17.926 L 48.924 19.354 L 48.097 20.740 L 47.048 22.071 L 45.787 23.334 L 44.325 24.516 L 42.678 25.607 L 40.860 26.595 L 38.889 27.472 L 36.785 28.229 L 34.567 28.858 L 32.257 29.354 L 29.877 29.712 L 27.450 29.928 L 25.000 30.000 L 22.550 29.928 L 20.123 29.712 L 17.743 29.354 L 15.433 28.858 L 13.215 28.229 L 11.111 27.472 L 9.140 26.595 L 7.322 25.607 L 5.675 24.516 L 4.213 23.334 L 2.952 22.071 L 1.903 20.740 L 1.076 19.354 L 0.480 17.926 L 0.120 16.470 L 0.000 15.000 L 0.120 13.530 L 0.480 12.074 L 1.076 10.646 L 1.903 9.260 L 2.952 7.929 L 4.213 6.666 L 5.675 5.484 L 7.322 4.393 L 9.140 3.405 L 11.111 2.528 L 13.215 1.771 L 15.433 1.142 L 17.743 0.646 L 20.123 0.288 L 22.550 0.072 L 25.000 0.000 L 27.450 0.072 L 29.877 0.288 L 32.257 0.646 L 34.567 1.142 L 36.785 1.771 L 38.889 2.528 L 40.860 3.405 L 42.678 4.393 L 44.325 5.484 L 45.787 6.666 L 47.048 7.929 L 48.097 9.260 L 48.924 10.646 L 49.520 12.074 L 49.880 13.530 Z"/><g transform="translate(3.250,10.500) scale(0.004395)"><path d="M 296 1188.5 Q 288 1189 277 1180 Q 266 1173 253 1154 Q 240 1135 234.5 1122.5 Q 229 1110 228.5 1101 Q 228 1092 245 1051 Q 252 1034 259 986 L 270 912 Q 272 894 275 834 L 284 650 Q 285 627 280.5 583.5 Q 276 540 270 520 Q 264 500 256.5 484.5 Q 249 469 240 452.5 Q 231 436 233 425 Q 234 417 240.5 412 Q 247 407 259 406 Q 278 406 303 416 L 365 441 Q 396.5 457.5 376 494 Q 375 533 375 551 L 371 644 L 370 672 L 367 722 L 360 866 L 357 911 L 356 933 Q 355 941 351.5 972.5 Q 348 1004 346.5 1033 Q 341.25 1176.75 296 1188.5 Z"/><path d="M 365 441 Q 407 436 448.5 431 Q 490 426 519 420 L 626 396 Q 669 387 695 377.5 Q 721 368 729 367 Q 741 367 770 375.5 Q 799 384 819 396 Q 839 408 839.5 417.5 Q 840 427 823 437 Q 806 447 769 452 L 589 479 L 495 493 Q 469 496 445 498.5 Q 421 501 413 499 L 376 494 L 365 441 Z"/><path d="M 613 624 L 638 618 L 677 608 Q 693 607 718.5 613.5 Q 744 620 765 629.5 Q 786 639 787.5 649.5 Q 789 660 778.5 669 Q 768 678 740 681 L 610 698 L 516 717 Q 485 722 462 727 Q 439 732 424 733.5 Q 409 735 403 732 L 367 722 L 370 672 Q 386 671 406 668 Q 426 665 441 662 L 519 648 L 613 624 Z"/><path d="M 605 824 L 657 813 L 685 807 Q 698 806 725 813.5 Q 752 821 771 829 Q 790 837 792 846.5 Q 794 856 781.5 866 Q 769 876 730 882 L 605 903 L 516 913 L 468 920 Q 445 924 419 924.5 Q 393 925 387 922 L 357 911 L 360 866 Q 374 865 396.5 863 Q 419 861 444 856 L 513 845 L 605 824 Z"/><path d="M 589 479 Q 604 490 612.5 495 Q 621 500 627 506.5 Q 633 513 633 523 Q 632 527 624 542.5 Q 616 558 615 586 L 613 624 L 610 698 L 605 824 L 605 903 L 598 1045 Q 553.5 1162.5 513 1056 L 516 913 L 513 845 L 516 717 L 519 648 L 519 584 Q 519 576 515.5 558 Q 512 540 509 529 L 502 511 L 495 493 L 589 479 Z"/><path d="M 598 1045 L 629 1041 Q 643 1040 672.5 1033 Q 702 1026 715 1026 Q 731 1027 750 1035 Q 769 1043 793.5 1058.5 Q 818 1074 833 1087 Q 848 1100 848 1112 Q 847 1119 837.5 1135.5 Q 828 1152 821 1171.5 Q 814 1191 808 1226 Q 802 1261 798 1286.5 Q 794 1312 781 1414.5 Q 768 1517 760 1566.5 Q 752 1616 731.5 1663.5 Q 711 1711 685.5 1743.5 Q 660 1776 625 1801 Q 590 1826 571 1814 Q 562 1810 550.5 1777 Q 539 1744 513 1702 Q 487 1660 470 1639 L 450 1616 Q 442 1608 449 1599 Q 456 1590 470 1598 L 494 1613 Q 522 1631 546 1638.5 Q 570 1646 585 1643 Q 614 1638 637 1592.5 Q 660 1547 675 1486 Q 690 1425 695 1384 Q 700 1343 707.5 1269.5 Q 715 1196 712 1165 Q 709 1134 697 1122 Q 685 1110 634 1112 L 559 1114 Q 517 1117 482.5 1125 Q 448 1133 404.5 1144.5 Q 361 1156 345.5 1163 Q 330 1170 317 1179 Q 304 1188 296 1188.5 Q 288 1189 277 1180 Q 266 1173 253 1154 Q 240 1135 234.5 1122.5 Q 229 1110 228.5 1101 Q 228 1092 245 1051 L 352 1068 Q 359 1074 385 1071 L 440 1065 L 513 1056 L 598 1045 Z"/><path d="M 177 1253 L 186 1275 Q 191 1289 197 1321.5 Q 203 1354 204 1375.5 Q 205 1397 199 1435 Q 193 1469 183.5 1500.5 Q 174 1532 153.5 1556.5 Q 133 1581 115 1577 Q 103 1576 92 1562.5 Q 81 1549 75.5 1526.5 Q 70 1504 70 1480.5 Q 70 1457 73 1449 Q 73 1449 83 1436 Q 93 1423 103 1401 L 122 1360 Q 129 1341 133.5 1322 Q 138 1303 141 1289 L 147 1258 Q 149 1245 159.5 1241.5 Q 170 1238 177 1253 Z"/><path d="M 262 1265 L 281 1277 Q 296 1287 308.5 1296 Q 321 1305 338 1329 Q 355 1353 357 1376.5 Q 359 1400 356 1415 Q 351 1434 340.5 1444.5 Q 330 1455 319 1453 Q 307 1452 297 1436 Q 287 1420 277 1389 L 261 1343 Q 252 1318 248 1301 L 242 1278 Q 240 1271 242.5 1267.5 Q 245 1264 250 1263 Q 255 1262 262 1265 Z"/><path d="M 384 1271 L 378 1258 Q 372 1247 373.5 1242.5 Q 375 1238 381 1236 Q 387 1234 397 1237 L 420 1246 Q 432 1251 444.5 1258 Q 457 1265 473.5 1278.5 Q 490 1292 501.5 1310 Q 513 1328 513 1353 Q 512 1373 502 1392 Q 492 1411 478 1412.5 Q 464 1414 448 1396 Q 436 1385 423.5 1356 Q 411 1327 404 1311 L 384 1271 Z"/><path d="M 534 1235 L 524 1216 Q 518 1205 519 1200.5 Q 520 1196 525 1194 Q 530 1192 544 1196 L 567 1203 Q 575 1206 596.5 1218 Q 618 1230 631.5 1239.5 Q 645 1249 657.5 1268.5 Q 670 1288 669 1316 Q 668 1340 656 1356 Q 644 1372 631.5 1373.5 Q 619 1375 603 1359 Q 588 1346 575 1318 L 552 1270 Q 545 1258 534 1235 Z"/><path d="M 1270 479 Q 1229 549 1190.5 613.5 Q 1152 678 1103 745 Q 1054 812 1002.5 862 Q 951 912 892 956.5 Q 833 1001 810 1010 L 781 1021 Q 767 1027 761.5 1018.5 Q 756 1010 765 1001 L 788 979 Q 807 961 857 905 Q 907 849 946.5 799 Q 986 749 1034.5 670.5 Q 1083 592 1111 533 Q 1139 474 1158.5 413 Q 1178 352 1182 312 L 1185 268 Q 1187 244 1196.5 236.5 Q 1206 229 1232 235 Q 1250 240 1269.5 252.5 Q 1289 265 1302.5 278 Q 1316 291 1334.5 314.5 Q 1353 338 1350 351 Q 1348 358 1335 371 Q 1322 384 1309 402 L 1287 432 L 1270 479 Z"/><path d="M 1287 432 Q 1321 457 1335 468.5 Q 1349 480 1389 521 Q 1429 562 1491.5 621.5 Q 1554 681 1590.5 711 Q 1627 741 1693 780 Q 1759 819 1792.5 834 Q 1826 849 1910 884 L 1962 906 Q 1978 913 1977 922.5 Q 1976 932 1967 934 L 1913 947 Q 1877 956 1838 961.5 Q 1799 967 1754 969 Q 1707 972 1683 963 Q 1659 954 1639 933 Q 1619 912 1592 876 L 1522 789 Q 1500 761 1455.5 698 Q 1411 635 1377 590 Q 1343 545 1322 526 L 1270 479 L 1287 432 Z"/><path d="M 1052 901 L 1083 896 Q 1105 893 1147.5 882 Q 1190 871 1219 861.5 Q 1248 852 1283 837.5 Q 1318 823 1333 816 Q 1348 809 1355 807 Q 1369 805 1388.5 811.5 Q 1408 818 1428 825.5 Q 1448 833 1455.5 840.5 Q 1463 848 1462 856 Q 1461 864 1450 867 L 1418 876 L 1322 904 L 1230 929 Q 1175 945 1153 949.5 Q 1131 954 1113 952 Q 1098 952 1067 942.5 Q 1036 933 1034 922.5 Q 1032 912 1035 908 Q 1038 904 1052 901 Z"/><path d="M 1006 1355 Q 1004 1380 996.5 1395.5 Q 989 1411 981 1411.5 Q 973 1412 956 1393 Q 939 1374 935 1347 L 905 1147 Q 903 1135 890 1117 Q 877 1099 878 1091.5 Q 879 1084 893 1079 Q 901 1076 927 1084 L 965 1097 Q 996 1103 999 1141 L 1005 1295 Q 1009.5 1323 1006 1355 Z"/><path d="M 965 1097 L 1044 1078 Q 1074 1071 1093 1060 L 1115 1046 Q 1124 1041 1130 1039 Q 1141 1037 1167.5 1047 Q 1194 1057 1215 1067.5 Q 1236 1078 1247 1091 Q 1258 1104 1258 1114 Q 1257 1122 1240.5 1142 Q 1224 1162 1213 1195 L 1181 1290 Q 1099 1383 1105 1276 L 1116 1191 Q 1122 1142 1117.5 1133.5 Q 1113 1125 1106 1122 Q 1099 1119 1058 1128 L 999 1141 L 965 1097 Z"/><path d="M 1038 1352 L 1006 1355 L 1005 1295 L 1105 1276 L 1181 1290 L 1196 1308 Q 1203 1318 1200 1324.5 Q 1197 1331 1185 1332 L 1090 1345 L 1038 1352 Z"/><path d="M 1412 1300 Q 1406 1323 1400 1335.5 Q 1394 1348 1387 1349 Q 1383 1350 1372.5 1345.5 Q 1362 1341 1353 1326 Q 1344 1311 1341 1291 L 1320 1164 Q 1313 1127 1305.5 1104 Q 1298 1081 1284 1066 Q 1270 1051 1270.5 1044.5 Q 1271 1038 1278 1031 Q 1287 1023 1328 1035 L 1366 1048 Q 1398.5 1059.5 1395 1095 L 1409 1242 Q 1412.5 1269 1412 1300 Z"/><path d="M 1366 1048 L 1448 1025 Q 1466 1020 1492.5 1009 Q 1519 998 1535.5 988 Q 1552 978 1559 976 Q 1572 973 1587 978.5 Q 1602 984 1641 999.5 Q 1680 1015 1691 1030.5 Q 1702 1046 1700 1056 Q 1698 1063 1678.5 1081 Q 1659 1099 1648 1125 L 1595 1244 Q 1511 1323.5 1519 1223 L 1540 1116 Q 1546 1081 1538.5 1071 Q 1531 1061 1487 1072 L 1395 1095 L 1366 1048 Z"/><path d="M 1442 1296 L 1412 1300 L 1409 1242 L 1519 1223 L 1595 1244 Q 1622 1258 1622.5 1266.5 Q 1623 1275 1621.5 1277.5 Q 1620 1280 1602 1281 L 1478 1291 L 1442 1296 Z"/><path d="M 1090 1345 Q 1116 1358 1134.5 1367.5 Q 1153 1377 1163.5 1391 Q 1174 1405 1172.5 1414 Q 1171 1423 1160 1432.5 Q 1149 1442 1117 1481 L 1073 1537 L 1054 1569 Q 1021 1603 984 1643 Q 947 1683 924 1699.5 Q 901 1716 864 1738 Q 827 1760 818.5 1763.5 Q 810 1767 798 1760 Q 786 1753 806 1737 L 829 1718 Q 849 1701 893.5 1645.5 Q 938 1590 963.5 1554 Q 989 1518 1011.5 1466.5 Q 1034 1415 1035 1393 L 1038 1352 L 1090 1345 Z"/><path d="M 1073 1537 Q 1114 1549 1136 1558.5 Q 1158 1568 1179 1582.5 Q 1200 1597 1209.5 1612.5 Q 1219 1628 1217 1653 Q 1215 1673 1203.5 1686 Q 1192 1699 1179 1698 Q 1170 1698 1155 1687.5 Q 1140 1677 1122 1653 L 1085 1605 L 1054 1569 L 1073 1537 Z"/><path d="M 1478 1291 Q 1512 1307 1531.5 1317 Q 1551 1327 1567 1341.5 Q 1583 1356 1581 1369 Q 1580 1375 1563.5 1390 Q 1547 1405 1533 1426 L 1477 1509 L 1456 1544 Q 1424 1589 1398 1622 Q 1372 1655 1339.5 1685.5 Q 1307 1716 1269 1743 L 1241 1763 Q 1226 1774 1216 1763.5 Q 1206 1753 1218 1740 L 1241 1715 Q 1274 1679 1295.5 1650 Q 1317 1621 1349.5 1566.5 Q 1382 1512 1398.5 1474 Q 1415 1436 1427.5 1391 Q 1440 1346 1441 1329 L 1442 1296 L 1478 1291 Z"/><path d="M 1477 1509 Q 1538 1532 1579.5 1547.5 Q 1621 1563 1664 1581.5 Q 1707 1600 1747.5 1634.5 Q 1788 1669 1801.5 1700 Q 1815 1731 1810.5 1761 Q 1806 1791 1792.5 1803 Q 1779 1815 1742.5 1804.5 Q 1706 1794 1652.5 1739 Q 1599 1684 1555.5 1638 Q 1512 1592 1508 1588 L 1456 1544 L 1477 1509 Z"/></g><g transform="translate(14.750,10.500) scale(0.004395)"><path d="M 534 1164 L 374 1294 Q 302 1352 275.5 1385 Q 249 1418 233 1418.5 Q 217 1419 205 1409 Q 195 1403 181 1378.5 Q 167 1354 160.5 1338.5 Q 154 1323 151 1300 Q 148 1277 153 1265 L 176 1238 Q 187 1225 192.5 1196.5 Q 198 1168 203 1082 Q 208 996 210 935.5 Q 212 875 210 832 Q 207 785 199.5 752.5 Q 192 720 179.5 697.5 Q 167 675 168 665 Q 168 657 174 650.5 Q 180 644 194 642 Q 211 640 238 648.5 Q 265 657 287.5 668.5 Q 310 680 329.5 695.5 Q 349 711 351 722 Q 353 733 349 745 L 338 768 Q 328 788 324 818.5 Q 320 849 315 918 Q 310 987 308.5 1061 Q 307 1135 305 1157.5 Q 303 1180 312 1185 Q 321 1190 343.5 1183 Q 366 1176 390 1166 L 535 1104 Q 597.5 1091 534 1164 Z"/><path d="M 535 1104 L 546 570 Q 546 547 543.5 502 Q 541 457 537.5 430 Q 534 403 527 375.5 Q 520 348 514 333 L 499 305 Q 488 285 492.5 275.5 Q 497 266 517 262 Q 533 260 559.5 266.5 Q 586 273 610.5 284.5 Q 635 296 656 315 Q 677 334 677.5 345.5 Q 678 357 668 381 Q 660 400 654 439.5 Q 648 479 645.5 504.5 Q 643 530 643 567 L 621 1596 Q 620 1610 617.5 1670.5 Q 615 1731 612.5 1762 Q 610 1793 595 1815.5 Q 580 1838 567 1838.5 Q 554 1839 538 1819 Q 520 1799 506.5 1767.5 Q 493 1736 486 1712.5 Q 479 1689 482 1671 Q 483 1662 494 1631 Q 505 1600 510.5 1568 Q 516 1536 523 1460 Q 530 1384 531 1354 L 534 1164 L 535 1104 Z"/><path d="M 964 793 Q 913 874 883.5 917.5 Q 854 961 818 1006 Q 782 1051 755 1073 L 729 1094 Q 720 1102 711.5 1094.5 Q 703 1087 712 1073 L 732 1043 Q 769 987 817 887 Q 865 787 904 696 Q 943 605 969.5 526 Q 996 447 1009.5 394 Q 1023 341 1026 308.5 Q 1029 276 1027 258 L 1024 242 Q 1021 228 1025 221.5 Q 1029 215 1037.5 209.5 Q 1046 204 1069 211 Q 1083 216 1123.5 240 Q 1164 264 1187 284.5 Q 1210 305 1208 322 Q 1206 332 1185.5 355 Q 1165 378 1153 400.5 Q 1141 423 1123.5 463 Q 1106 503 1053.5 614 Q 1001 725 1000 728 L 991 746 L 964 793 Z"/><path d="M 991 746 Q 1016 741 1031.5 738 Q 1047 735 1077.5 728.5 Q 1108 722 1231 682.5 Q 1354 643 1423.5 621.5 Q 1493 600 1523 601 Q 1541 603 1569 611.5 Q 1597 620 1618 631 L 1640 645 Q 1653 654 1658 661.5 Q 1663 669 1661 678 Q 1657 690 1611 694 Q 1565 698 1501 708.5 Q 1437 719 1356 737 L 1271 756 L 1175 782 Q 1138 792 1097.5 802.5 Q 1057 813 1048 810 L 964 793 L 991 746 Z"/><path d="M 1271 756 Q 1305 778 1329 799 Q 1353 820 1352.5 834 Q 1352 848 1341 872.5 Q 1330 897 1316 972 Q 1302 1047 1292.5 1097 Q 1283 1147 1269 1196.5 Q 1255 1246 1234 1298 L 1209 1360 L 1158 1441 Q 1131 1473 1109 1496 Q 1087 1519 1043 1552 Q 999 1585 939.5 1609.5 Q 880 1634 814.5 1648.5 Q 749 1663 722 1660 L 686 1657 Q 666 1656 669.5 1646 Q 673 1636 686 1632 L 714 1624 Q 748 1615 796 1594.5 Q 844 1574 875.5 1555 Q 907 1536 954 1498 Q 1001 1460 1014 1440 L 1079 1347 L 1120 1274 Q 1133 1240 1143.5 1208 Q 1154 1176 1164.5 1120 Q 1175 1064 1184.5 966.5 Q 1194 869 1187 838 L 1175 782 L 1271 756 Z"/><path d="M 1209 1360 Q 1247 1393 1289.5 1426.5 Q 1332 1460 1408.5 1506.5 Q 1485 1553 1549 1577.5 Q 1613 1602 1703.5 1623.5 Q 1794 1645 1832 1652 L 1874 1660 Q 1893 1664 1896 1679.5 Q 1899 1695 1885 1699 L 1849 1710 Q 1820 1719 1787 1726 L 1674 1748 Q 1571 1770 1535 1767 Q 1501 1766 1465 1751.5 Q 1429 1737 1391 1699 Q 1353 1661 1274 1572 L 1158 1441 L 1079 1347 Q 1044 1306 1019 1278.5 Q 994 1251 955.5 1216.5 Q 917 1182 899.5 1172 Q 882 1162 862 1154 Q 842 1146 837.5 1136 Q 833 1126 844 1115 Q 849 1110 866.5 1107 Q 884 1104 900 1105 Q 924 1108 948.5 1121 Q 973 1134 998 1157 L 1120 1274 L 1209 1360 Z"/></g><g transform="translate(26.250,10.500) scale(0.004395)"><path d="M 960 464 Q 903 553 852.5 625.5 Q 802 698 718 796 Q 634 894 568 954 Q 502 1014 421.5 1069.5 Q 341 1125 286.5 1154.5 Q 232 1184 186 1200 L 134 1219 Q 116 1226 111 1216.5 Q 106 1207 119 1198 L 171 1163 Q 216 1133 293.5 1067.5 Q 371 1002 428.5 942.5 Q 486 883 538 820.5 Q 590 758 650 681.5 Q 710 605 736.5 564.5 Q 763 524 795.5 466 Q 828 408 840 376 Q 852 344 855 328 Q 858 312 861.5 286 Q 865 260 866 253 L 868 200 Q 871 187 879 181 Q 887 175 902 176 Q 915 178 935.5 188 Q 956 198 988.5 222.5 Q 1021 247 1037 266 Q 1053 285 1053.5 298 Q 1054 311 1048 321 Q 1045 327 1029 344.5 Q 1013 362 1004 379 L 992 401 L 960 464 Z"/><path d="M 992 401 Q 1064 469 1154 554 Q 1244 639 1295 684 Q 1346 729 1418 784.5 Q 1490 840 1564 884.5 Q 1638 929 1686 950.5 Q 1734 972 1860 1024 L 1920 1049 Q 1936 1056 1935.5 1066.5 Q 1935 1077 1912 1083 L 1872 1094 Q 1852 1100 1810 1105 L 1706 1119 Q 1645 1128 1612 1127 Q 1577 1127 1548.5 1119 Q 1520 1111 1491 1086.5 Q 1462 1062 1425 1015 L 1312 872 Q 1255 802 1198 733.5 Q 1141 665 1089.5 606 Q 1038 547 1016 523 L 960 464 L 992 401 Z"/><path d="M 1104 1052 L 903 1080 L 767 1094 Q 711 1101 698 1101 Q 663 1103 644.5 1098.5 Q 626 1094 617 1091 Q 608 1088 594 1080 Q 580 1072 572 1063 Q 564 1054 566 1045.5 Q 568 1037 576 1033 Q 580 1031 592 1031.5 Q 604 1032 624 1029 L 703 1020 Q 730 1017 819 1000 L 943 977 Q 989 968 1032 956 Q 1075 944 1082.5 942.5 Q 1090 941 1095 940 Q 1114 939 1138.5 947.5 Q 1163 956 1198.5 975.5 Q 1234 995 1228 1013 Q 1226 1017 1221.5 1022.5 Q 1217 1028 1194 1032 L 1104 1052 Z"/><path d="M 692 1805 L 685 1842 Q 679 1870 665.5 1872.5 Q 652 1875 641 1867 Q 627 1858 615 1830.5 Q 603 1803 601 1780 L 569 1464 Q 566 1444 561 1423.5 Q 556 1403 547 1384.5 Q 538 1366 521.5 1352 Q 505 1338 500.5 1327.5 Q 496 1317 505 1307.5 Q 514 1298 540 1301 Q 561 1304 585.5 1309.5 Q 610 1315 619 1319 L 651 1334 L 657 1404 Q 662 1435 665 1456 Q 668 1477 675 1553 L 683 1649 L 688 1723 L 692 1805 Z"/><path d="M 651 1334 Q 705 1330 743 1325.5 Q 781 1321 872.5 1305.5 Q 964 1290 1035 1275 Q 1106 1260 1166.5 1242.5 Q 1227 1225 1235.5 1223 Q 1244 1221 1250 1220 Q 1268 1219 1295.5 1231 Q 1323 1243 1352.5 1260 Q 1382 1277 1405.5 1300 Q 1429 1323 1427 1341 Q 1425 1352 1407 1374 Q 1389 1396 1377 1415 Q 1365 1434 1354 1460.5 Q 1343 1487 1312 1586 L 1276 1698 Q 1196 1738 1146 1674 Q 1161 1613 1165 1595.5 Q 1169 1578 1184 1512.5 Q 1199 1447 1204.5 1418.5 Q 1210 1390 1209 1367 Q 1208 1357 1205.5 1351 Q 1203 1345 1197.5 1340.5 Q 1192 1336 1179.5 1330.5 Q 1167 1325 1143 1324 Q 1123 1324 1081 1331 L 883 1362 L 657 1404 L 651 1334 Z"/><path d="M 1276 1698 Q 1292 1708 1307 1718 Q 1322 1728 1322.5 1738 Q 1323 1748 1321 1750 Q 1319 1753 1310 1756.5 Q 1301 1760 1282 1761 L 1203 1762 L 692 1805 L 688 1723 Q 759 1715 866 1704 Q 973 1693 1034 1685 Q 1095 1677 1108 1676 L 1146 1674 L 1276 1698 Z"/></g><g transform="translate(37.750,10.500) scale(0.004395)"><path d="M 503 817 L 381 832 L 313 844 Q 283 847 257.5 840.5 Q 232 834 211.5 825.5 Q 191 817 181.5 803.5 Q 172 790 177.5 783.5 Q 183 777 204 774 L 233 771 Q 244 770 278 765 L 369 752 L 525 727 L 620 705 L 664 691 L 708 674 Q 721 670 737 669 Q 758 668 788 675 Q 818 682 835 695.5 Q 852 709 852.5 721 Q 853 733 836 746 Q 823 755 789 761 L 728 774 L 614 797 L 503 817 Z"/><path d="M 525 727 L 526 532 Q 526 465 521 419.5 Q 516 374 511 349.5 Q 506 325 502 309 L 489 272 Q 480 247 486 238 Q 492 229 514 228 Q 531 228 556.5 239 Q 582 250 608 265.5 Q 634 281 653 301.5 Q 672 322 672.5 336 Q 673 350 661 381 Q 654 397 648 424.5 Q 642 452 638 478 Q 634 504 629 583 L 620 705 L 614 797 L 609 931 L 606 978 L 599 1414 L 595 1606 Q 595 1701 589 1735 Q 583 1764 570.5 1797.5 Q 558 1831 544 1845.5 Q 530 1860 519 1860.5 Q 508 1861 491 1831 Q 473 1803 464.5 1774.5 Q 456 1746 450.5 1716.5 Q 445 1687 447 1666 Q 447 1656 454 1629.5 Q 461 1603 470.5 1555.5 Q 480 1508 483 1489 L 494 1395 Q 502 1327 503 1314 L 517 1047 L 525 727 Z"/><path d="M 517 1047 Q 491 1092 470.5 1126 Q 450 1160 422 1201 Q 394 1242 361 1282.5 Q 328 1323 300.5 1352 Q 273 1381 238 1409.5 Q 203 1438 158 1467 L 114 1495 Q 87 1512 79.5 1506 Q 72 1500 73 1493.5 Q 74 1487 91 1470 L 119 1442 Q 141 1420 174 1381.5 Q 207 1343 230.5 1312.5 Q 254 1282 304.5 1208 Q 355 1134 377.5 1092.5 Q 400 1051 435 975 Q 470 899 481 872 L 503 817 Q 607 772 517 1047 Z"/><path d="M 609 931 Q 630 939 649.5 947 Q 669 955 710 974 Q 751 993 770 1010 Q 789 1027 800.5 1054.5 Q 812 1082 809 1110 Q 805 1133 791.5 1150.5 Q 778 1168 761.5 1170 Q 745 1172 719 1141 Q 701 1121 671 1074 Q 641 1027 634 1016 L 606 978 L 609 931 Z"/><path d="M 1009 763 Q 986 788 958.5 816.5 Q 931 845 895 869 L 847 902 Q 824 918 815 909 Q 806 900 822 882 L 867 829 Q 899 792 935.5 734.5 Q 972 677 1008.5 613 Q 1045 549 1070.5 494.5 Q 1096 440 1111.5 396.5 Q 1127 353 1135.5 315 Q 1144 277 1146 253 L 1148 212 Q 1148 200 1152.5 195.5 Q 1157 191 1167 189 Q 1182 188 1215.5 205.5 Q 1249 223 1266.5 236.5 Q 1284 250 1299 269.5 Q 1314 289 1312 301 Q 1310 309 1297.5 323 Q 1285 337 1271 358.5 Q 1257 380 1242 407 L 1181 518 L 1150 571 Q 1115 629 1109 637 L 1048 721 L 1009 763 Z"/><path d="M 1181 518 Q 1257 503 1295 493 L 1368 473 Q 1408 462 1434 450.5 Q 1460 439 1468 437 Q 1486 435 1509.5 444.5 Q 1533 454 1562 473 Q 1591 492 1604 507.5 Q 1617 523 1615 537 Q 1613 547 1588 569.5 Q 1563 592 1543 612.5 Q 1523 633 1492 675 L 1404 804 L 1336 895 L 1281 967 Q 1233 1017 1200 1049.5 Q 1167 1082 1111 1131 Q 1055 1180 995.5 1221.5 Q 936 1263 885.5 1288.5 Q 835 1314 795.5 1329.5 Q 756 1345 745 1347 L 697 1358 Q 677 1363 675 1351.5 Q 673 1340 694 1328 L 728 1308 Q 753 1293 799.5 1263 Q 846 1233 888 1201.5 Q 930 1170 980.5 1127.5 Q 1031 1085 1067.5 1049.5 Q 1104 1014 1156 957 L 1209 899 L 1257 838 Q 1300 780 1321 748 L 1381 654 Q 1408 612 1419 582 Q 1430 552 1422 545 Q 1414 538 1381 544.5 Q 1348 551 1321.5 555.5 Q 1295 560 1251 566 Q 1207 572 1195 571 L 1150 571 L 1181 518 Z"/><path d="M 1209 899 Q 1174 868 1151 849 Q 1128 830 1091.5 805.5 Q 1055 781 1037 774 L 1009 763 L 1048 721 Q 1070 728 1090.5 736 Q 1111 744 1146 764 Q 1181 784 1214 807 L 1257 838 L 1336 895 Q 1369 917 1409.5 942 Q 1450 967 1514.5 1002 Q 1579 1037 1633.5 1060 Q 1688 1083 1730 1096.5 Q 1772 1110 1824 1123.5 Q 1876 1137 1901 1141 L 1944 1149 Q 1972 1155 1974 1169.5 Q 1976 1184 1955 1188 L 1893 1202 Q 1881 1205 1836 1211.5 Q 1791 1218 1755 1223 Q 1719 1228 1682 1230 Q 1635 1233 1606.5 1225.5 Q 1578 1218 1562 1206 Q 1546 1194 1507 1160 L 1281 967 L 1209 899 Z"/><path d="M 1084 1743 L 1073 1768 Q 1064 1788 1051 1791 Q 1038 1794 1025 1783 Q 1012 1774 1004.5 1750 Q 997 1726 990 1674 L 967 1505 Q 964 1486 953 1448.5 Q 942 1411 931 1397 L 909 1375 Q 893 1358 896.5 1347 Q 900 1336 928 1333 Q 948 1332 981 1341 L 1020 1353 Q 1068 1360 1056 1419 L 1081 1677 L 1084 1743 Z"/><path d="M 1020 1353 L 1265 1319 L 1368 1302 Q 1440 1292 1470 1281 Q 1500 1270 1509 1269 Q 1527 1268 1555 1280.5 Q 1583 1293 1612.5 1311 Q 1642 1329 1657.5 1348.5 Q 1673 1368 1671 1383 Q 1669 1392 1652.5 1412 Q 1636 1432 1623 1457.5 Q 1610 1483 1603 1509 L 1560 1658 Q 1478 1717 1440 1642 L 1468 1469 Q 1476 1418 1475.5 1403 Q 1475 1388 1468 1378.5 Q 1461 1369 1427 1369 Q 1412 1370 1364 1375 Q 1316 1380 1306 1381 L 1056 1419 L 1020 1353 Z"/><path d="M 1560 1658 L 1582 1677 Q 1596 1690 1593 1701 Q 1590 1712 1571 1716 Q 1558 1720 1518 1719 L 1440 1724 L 1084 1743 L 1081 1677 L 1440 1642 L 1560 1658 Z"/></g></g></svg>