<svg xmlns="http://www.w3.org/2000/svg" viewBox="0 0 50.000 18.000" width="50.000mm" height="18.000mm"><g id="stamp-engrave" stroke="#000" stroke-width="0.3" fill="none" stroke-linecap="round" stroke-linejoin="round"><path class="stamp-border" d="M 0.000 0.000 L 50.000 0.000 L 50.000 18.000 L 0.000 18.000 Z"/><g transform="translate(5.667,1.500) scale(0.003906)"><path d="M 521 895 Q 479 903 447.5 910 Q 416 917 380.5 929 Q 345 941 321 954.5 Q 297 968 288 967 Q 276 967 267 960 Q 258 953 253 940 Q 248 927 236.5 900.5 Q 225 874 227 863 Q 227 854 233 846 Q 239 838 267 819 Q 295 800 317 772.5 Q 339 745 379 677 Q 419 609 445.5 557.5 Q 472 506 490 463.5 Q 508 421 516 388 L 528 314 Q 530 301 535.5 295.5 Q 541 290 553 290 Q 565 291 582 301.5 Q 599 312 614.5 325 Q 630 338 644 352 Q 658 366 665 381.5 Q 672 397 671 407 Q 669 418 657 432 L 630 459 Q 614 476 598 499 L 412 773 L 379 820 Q 372 833 375 841.5 Q 378 850 387 851.5 Q 396 853 424 849 L 564 831 Q 618.5 865 521 895 Z"/><path d="M 564 831 L 619 734 Q 639 698 649 671.5 Q 659 645 664 620 L 669 592 Q 671 579 677 575 Q 683 571 696 573 Q 713 577 734 595 Q 755 613 765.5 625.5 Q 776 638 785 653.5 Q 794 669 794 678 Q 793 690 786 698.5 Q 779 707 761 722 Q 743 737 730 755 L 435 1147 L 403 1187 Q 389 1208 391.5 1212.5 Q 394 1217 424 1208 L 459 1199 L 657 1137 Q 685.5 1145.5 674 1174 L 469 1256 Q 422 1275 398.5 1287.5 Q 375 1300 354.5 1318.5 Q 334 1337 324 1337.5 Q 314 1338 301 1326 Q 293 1320 274.5 1293 Q 256 1266 250 1253 Q 244 1240 249 1228 Q 252 1221 271 1208.5 Q 290 1196 312 1175 Q 334 1154 355 1128.5 Q 376 1103 439 1013 L 521 895 L 564 831 Z"/><path d="M 657 1137 Q 640 1105 634.5 1093 Q 629 1081 617.5 1055.5 Q 606 1030 610.5 1025.5 Q 615 1021 630 1021 Q 645 1022 667.5 1029.5 Q 690 1037 709.5 1049 Q 729 1061 747.5 1080.5 Q 766 1100 778.5 1124 Q 791 1148 791 1169 Q 790 1188 782 1203.5 Q 774 1219 761 1229 Q 748 1239 732 1237 Q 718 1236 710.5 1229.5 Q 703 1223 687 1196 L 674 1174 L 657 1137 Z"/><path d="M 159 1460 L 187 1468 Q 207 1474 230.5 1484 Q 254 1494 280.5 1510.5 Q 307 1527 323.5 1547.5 Q 340 1568 348 1594.5 Q 356 1621 356.5 1648.5 Q 357 1676 349 1696 Q 343 1709 333 1717.5 Q 323 1726 307.5 1726.5 Q 292 1727 277 1713 Q 266 1704 248.5 1676 Q 231 1648 223 1631 L 191 1569 Q 169 1529 165 1518 L 149 1480 Q 144 1467 148 1463 Q 152 1459 159 1460 Z"/><path d="M 392 1419 L 382 1397 Q 377 1387 379.5 1381.5 Q 382 1376 393 1378 L 420 1384 Q 434 1388 455.5 1396 Q 477 1404 497 1416 Q 517 1428 529 1441 Q 541 1454 547 1472 Q 553 1490 552 1518 Q 550 1543 541.5 1555.5 Q 533 1568 517.5 1572 Q 502 1576 482 1560 Q 468 1550 454.5 1528 Q 441 1506 424.5 1478 Q 408 1450 401.5 1439 Q 395 1428 392 1419 Z"/><path d="M 608 1341 L 600 1320 Q 595 1310 597.5 1305 Q 600 1300 611 1303 L 635 1310 Q 653 1316 669.5 1322.5 Q 686 1329 706 1342.5 Q 726 1356 737 1369.5 Q 748 1383 753.5 1404.5 Q 759 1426 755 1448 Q 751 1466 742 1476.5 Q 733 1487 718.5 1489 Q 704 1491 687 1476 Q 674 1466 660 1443 Q 646 1420 638 1402 L 622 1368 Q 609 1344 608 1341 Z"/><path d="M 1025 564 Q 1057 518 1076.5 486.5 Q 1096 455 1121.5 404.5 Q 1147 354 1155.5 327 Q 1164 300 1164 269 L 1161 217 Q 1161 208 1165.5 199.5 Q 1170 191 1186 188 Q 1199 186 1220.5 196.5 Q 1242 207 1267.5 223 Q 1293 239 1308.5 255.5 Q 1324 272 1322 289 Q 1320 300 1310 312 L 1272 348 L 1100 558 Q 1036.5 617 1025 564 Z"/><path d="M 1005 1249 Q 996 1265 985.5 1280.5 Q 975 1296 963 1295 Q 953 1295 939.5 1282.5 Q 926 1270 918 1253 Q 910 1236 909 1214 Q 907 1197 914.5 1142 Q 922 1087 922 1006 L 921 887 Q 920 818 914.5 765.5 Q 909 713 902 667 Q 895 621 886.5 598 Q 878 575 880 563.5 Q 882 552 895 546 Q 902 543 934 551 L 991 568 Q 1016 582.5 1009 629 L 1009 1185 L 1005 1249 Z"/><path d="M 1100 558 L 1372 521 Q 1465 509 1510.5 495 Q 1556 481 1574 482 Q 1589 484 1604 490.5 Q 1619 497 1656.5 517 Q 1694 537 1712 552.5 Q 1730 568 1730.5 579.5 Q 1731 591 1720 613 Q 1711 632 1703 665 Q 1695 698 1693.5 724 Q 1692 750 1693 880 L 1693 1015 L 1698 1103 Q 1698 1146 1690 1174 Q 1683 1196 1670 1217 Q 1657 1238 1639 1253 Q 1621 1268 1611 1266 Q 1596 1265 1584 1243 L 1569 1219 Q 1537 1155 1569 1171 L 1574 739 Q 1574 702 1571.5 657.5 Q 1569 613 1557.5 599.5 Q 1546 586 1524.5 580.5 Q 1503 575 1468 578 L 1009 629 L 991 568 L 1025 564 L 1100 558 Z"/><path d="M 1167 806 Q 1185 771 1197.5 743 Q 1210 715 1210.5 691.5 Q 1211 668 1214 658.5 Q 1217 649 1226.5 646 Q 1236 643 1255 650 Q 1285 664 1302.5 676.5 Q 1320 689 1321.5 697.5 Q 1323 706 1312 719 L 1283 746 Q 1282 747 1258 779 L 1220 831 L 1181 872 Q 1158 894 1139 911 Q 1120 928 1099 942 L 1070 961 Q 1050 974 1046 966 Q 1042 958 1055 944 L 1082 915 Q 1092 904 1107 885 L 1142 840 L 1167 806 Z"/><path d="M 1317 875 Q 1340 841 1353 819 Q 1366 797 1379.5 770 Q 1393 743 1397 713 Q 1401 683 1409 678.5 Q 1417 674 1444 684 Q 1456 689 1474.5 699.5 Q 1493 710 1508 724 Q 1523 738 1523 749 Q 1522 760 1507 771 L 1478 791 Q 1465 802 1442.5 833 Q 1420 864 1403 885 L 1381 912 L 1317 986 Q 1289 1012 1271.5 1027 Q 1254 1042 1209.5 1073.5 Q 1165 1105 1149 1115 L 1117 1135 Q 1101 1145 1095.5 1136.5 Q 1090 1128 1104 1115 L 1131 1090 Q 1151 1072 1184 1038 Q 1217 1004 1228 991 L 1270 941 L 1317 875 Z"/><path d="M 1142 840 L 1082 796 L 1058 779 Q 1049 767 1053.5 762.5 Q 1058 758 1071.5 761.5 Q 1085 765 1102 773 L 1167 806 L 1220 831 L 1317 875 L 1381 912 Q 1410 930 1432.5 943.5 Q 1455 957 1467 973 Q 1479 989 1483 1016 Q 1487 1043 1472.5 1063.5 Q 1458 1084 1443 1084.5 Q 1428 1085 1406 1065 L 1357 1021 L 1317 986 L 1270 941 L 1181 872 L 1142 840 Z"/><path d="M 1569 1219 L 1005 1249 L 1009 1185 L 1322 1162 Q 1430 1155 1461.5 1149 Q 1493 1143 1507 1144 Q 1526 1147 1539 1154 L 1569 1171 L 1569 1219 Z"/><path d="M 859 1436 L 868 1459 Q 875 1478 880 1504.5 Q 885 1531 886 1561.5 Q 887 1592 878 1631 Q 869 1665 850.5 1708.5 Q 832 1752 810 1779 Q 788 1806 767 1803 Q 752 1802 739 1788 Q 726 1774 719 1746 Q 712 1718 714 1700 Q 715 1682 721 1670 Q 727 1658 744 1636 Q 761 1614 777 1585.5 Q 793 1557 799.5 1539.5 Q 806 1522 818 1483 L 830 1444 Q 835 1428 843.5 1424.5 Q 852 1421 859 1436 Z"/><path d="M 1572 1530 L 1601 1555 Q 1623 1575 1649.5 1595.5 Q 1676 1616 1712 1640.5 Q 1748 1665 1781.5 1682 Q 1815 1699 1829 1709.5 Q 1843 1720 1845.5 1734 Q 1848 1748 1838 1765 Q 1826 1784 1795 1803.5 Q 1764 1823 1704.5 1838.5 Q 1645 1854 1570.5 1861 Q 1496 1868 1421 1862 Q 1335 1857 1275 1836.5 Q 1215 1816 1166.5 1783.5 Q 1118 1751 1089.5 1717 Q 1061 1683 1041.5 1644.5 Q 1022 1606 1013 1577 L 979 1478 Q 968 1449 959.5 1435.5 Q 951 1422 953.5 1416.5 Q 956 1411 964 1407.5 Q 972 1404 1000 1412 Q 1019 1419 1024.5 1423 Q 1030 1427 1036 1439 L 1047 1496 Q 1050 1514 1070 1552.5 Q 1090 1591 1109.5 1617.5 Q 1129 1644 1175 1675.5 Q 1221 1707 1283 1726 Q 1345 1745 1431 1744 Q 1507 1744 1550 1727 Q 1593 1710 1601 1697 Q 1609 1684 1610.5 1672.5 Q 1612 1661 1596.5 1628 Q 1581 1595 1572 1579 L 1555 1550 Q 1543 1531 1551 1525.5 Q 1559 1520 1572 1530 Z"/><path d="M 1156 1347 Q 1159 1343 1185.5 1345 Q 1212 1347 1252.5 1358.5 Q 1293 1370 1314 1380 Q 1335 1390 1351.5 1410 Q 1368 1430 1371.5 1458 Q 1375 1486 1365 1505 Q 1355 1524 1339 1531.5 Q 1323 1539 1297 1527 Q 1275 1518 1242.5 1479 Q 1210 1440 1206 1434 L 1179 1394 Q 1163 1374 1158 1362 Q 1153 1350 1156 1347 Z"/><path d="M 1646 1335 L 1691 1342 Q 1709 1345 1745 1353.5 Q 1781 1362 1807 1370 Q 1833 1378 1846 1385 Q 1859 1392 1873 1405.5 Q 1887 1419 1894.5 1440 Q 1902 1461 1900 1493 Q 1898 1513 1890 1530.5 Q 1882 1548 1866 1552.5 Q 1850 1557 1827 1543 Q 1810 1534 1789 1514.5 Q 1768 1495 1728.5 1460 Q 1689 1425 1666 1402 L 1634 1371 L 1611 1352 Q 1602 1339 1607.5 1333.5 Q 1613 1328 1626 1330 L 1646 1335 Z"/></g><g transform="translate(21.000,1.500) scale(0.003906)"><path d="M 522 915 Q 477 924 460.5 928 Q 444 932 392 947.5 Q 340 963 324.5 970 Q 309 977 290 988 Q 271 999 263 998 Q 248 998 236.5 984.5 Q 225 971 215 949 Q 205 927 200 908 Q 195 889 200 879 Q 203 872 222.5 859 Q 242 846 256 835 Q 270 824 305 786 Q 340 748 377.5 687.5 Q 415 627 453 554 Q 491 481 504 448 Q 517 415 526.5 379.5 Q 536 344 536.5 322.5 Q 537 301 542 293.5 Q 547 286 556.5 283.5 Q 566 281 585 292 Q 619 313 638.5 326.5 Q 658 340 673.5 362 Q 689 384 686 400 Q 683 410 666 427 Q 649 444 635.5 459.5 Q 622 475 601.5 502 Q 581 529 523 609.5 Q 465 690 461 696 L 376 808 Q 355 836 348 849.5 Q 341 863 346.5 872.5 Q 352 882 389 879 L 556 866 Q 596 893.5 522 915 Z"/><path d="M 556 866 L 633 747 Q 652 718 667.5 679 Q 683 640 685 618 Q 687 596 692 588 Q 697 580 707 578.5 Q 717 577 732 585 Q 744 593 760 609 Q 776 625 789 645.5 Q 802 666 810 687 Q 818 708 808 723 Q 805 727 789 738.5 Q 773 750 751 775 L 708 822 Q 697 835 660 884.5 Q 623 934 552 1018 L 417 1178 Q 391 1209 393.5 1215 Q 396 1221 411 1224 L 482 1201 L 656 1149 Q 692.5 1155 679 1191 L 482 1262 Q 457 1271 423.5 1287.5 Q 390 1304 372.5 1313.5 Q 355 1323 339.5 1335.5 Q 324 1348 316 1347 Q 309 1347 301 1342 Q 293 1337 281 1322.5 Q 269 1308 261 1294.5 Q 253 1281 247 1261.5 Q 241 1242 246 1232 Q 249 1225 275.5 1211 Q 302 1197 326.5 1168.5 Q 351 1140 400 1079.5 Q 449 1019 458 1006 L 522 915 L 556 866 Z"/><path d="M 656 1149 Q 640 1118 629.5 1099.5 Q 619 1081 614.5 1069.5 Q 610 1058 613.5 1053.5 Q 617 1049 632 1050 Q 651 1052 677 1061 Q 703 1070 729.5 1085.5 Q 756 1101 775.5 1125 Q 795 1149 800.5 1183.5 Q 806 1218 794 1242 Q 785 1259 769.5 1266.5 Q 754 1274 740 1267 Q 731 1264 720 1248 L 701 1221 L 679 1191 L 656 1149 Z"/><path d="M 132 1480 L 159 1491 Q 169 1496 199.5 1516.5 Q 230 1537 248.5 1551.5 Q 267 1566 282 1590 Q 297 1614 302 1637.5 Q 307 1661 305 1689 Q 302 1722 293.5 1736.5 Q 285 1751 274 1758.5 Q 263 1766 249 1765 Q 232 1764 220 1751.5 Q 208 1739 193 1708 Q 178 1677 172 1660 L 146 1595 Q 129 1553 125 1539 L 113 1499 Q 110 1487 114 1481 Q 118 1475 132 1480 Z"/><path d="M 378 1452 L 369 1430 Q 365 1421 368.5 1415.5 Q 372 1410 385 1413 L 413 1422 Q 437 1430 455 1437 Q 473 1444 496.5 1459 Q 520 1474 531 1487 Q 542 1500 547.5 1519 Q 553 1538 548 1563 Q 543 1586 531.5 1597.5 Q 520 1609 502.5 1610.5 Q 485 1612 465 1595 Q 450 1584 436.5 1563 Q 423 1542 409 1514 Q 395 1486 387.5 1472.5 Q 380 1459 378 1452 Z"/><path d="M 599 1363 L 590 1343 Q 585 1334 588.5 1328.5 Q 592 1323 604 1326 L 630 1334 Q 651 1341 669 1348 Q 687 1355 708.5 1368 Q 730 1381 742 1395 Q 754 1409 759 1430.5 Q 764 1452 758 1472 Q 753 1488 742.5 1498.5 Q 732 1509 716 1511 Q 700 1513 681 1497 Q 668 1488 652 1463 Q 636 1438 629 1423 L 613 1390 L 599 1363 Z"/><path d="M 1081 444 Q 1201 422 1274 406.5 Q 1347 391 1401.5 372.5 Q 1456 354 1477 353 Q 1497 353 1520.5 359.5 Q 1544 366 1564.5 378.5 Q 1585 391 1595 403 Q 1605 415 1605 425 Q 1604 441 1562.5 454 Q 1521 467 1452 480.5 Q 1383 494 1318.5 503 Q 1254 512 1169 523.5 Q 1084 535 1061 533 Q 1021 532 989 518.5 Q 957 505 944.5 491.5 Q 932 478 935.5 471 Q 939 464 953 462 L 1081 444 Z"/><path d="M 921 995 Q 923 1003 938 1015 Q 953 1027 981 1042 Q 1009 1057 1045 1081.5 Q 1081 1106 1092 1125 Q 1103 1144 1103.5 1173 Q 1104 1202 1093 1221 Q 1082 1240 1063 1241.5 Q 1044 1243 1015 1206 Q 995 1182 974.5 1158 Q 954 1134 931 1108.5 Q 908 1083 881 1056.5 Q 854 1030 853.5 1018 Q 853 1006 869 976 Q 879 957 893 917 L 913 859 Q 933 798 941.5 763 Q 950 728 953 698.5 Q 956 669 965 662 Q 974 655 992 658 Q 1004 661 1031 680.5 Q 1058 700 1072.5 715.5 Q 1087 731 1086 746 Q 1085 757 1065 777 Q 1045 797 1025 827 L 992 875 L 945 944 Q 929 967 924.5 980 Q 920 993 921 995 Z"/><path d="M 1203 951 Q 1204 956 1225 969.5 Q 1246 983 1276.5 997.5 Q 1307 1012 1341 1029.5 Q 1375 1047 1386 1064 Q 1397 1081 1397.5 1110.5 Q 1398 1140 1387 1159.5 Q 1376 1179 1359.5 1179.5 Q 1343 1180 1319 1154 Q 1264 1097 1245 1077.5 Q 1226 1058 1194.5 1032 Q 1163 1006 1150.5 994 Q 1138 982 1137.5 969.5 Q 1137 957 1153 927 Q 1159 915 1178 867 L 1197 820 Q 1217 768 1224.5 735.5 Q 1232 703 1236 670 Q 1240 637 1249 630.5 Q 1258 624 1276 627 Q 1291 631 1311 645 Q 1331 659 1351 678.5 Q 1371 698 1371 711 Q 1370 722 1348.5 742 Q 1327 762 1292 808.5 Q 1257 855 1240 876 Q 1223 897 1211.5 920 Q 1200 943 1203 951 Z"/><path d="M 1514 909 Q 1515 916 1539 929.5 Q 1563 943 1604.5 956.5 Q 1646 970 1676 984.5 Q 1706 999 1724.5 1018.5 Q 1743 1038 1748.5 1072.5 Q 1754 1107 1739 1126 Q 1724 1145 1704 1144 Q 1687 1144 1666 1122.5 Q 1645 1101 1604.5 1062.5 Q 1564 1024 1546 1011 L 1472 961 Q 1450 943 1448 928.5 Q 1446 914 1462 886 Q 1478 857 1491 832 Q 1504 807 1520.5 762 Q 1537 717 1543.5 686.5 Q 1550 656 1554.5 620.5 Q 1559 585 1568.5 578.5 Q 1578 572 1595 575 Q 1609 578 1632.5 595 Q 1656 612 1673.5 631.5 Q 1691 651 1689 666 Q 1687 676 1666 698 Q 1645 720 1630 738 Q 1615 756 1581.5 802.5 Q 1548 849 1530.5 878 Q 1513 907 1514 909 Z"/><path d="M 1195 1362 L 1034 1373 Q 1007 1375 980 1369.5 Q 953 1364 937.5 1349.5 Q 922 1335 923 1325 Q 924 1314 965 1308 L 1052 1298 L 1304 1263 Q 1366 1255 1428.5 1239 Q 1491 1223 1513 1223 Q 1524 1224 1567 1231.5 Q 1610 1239 1624.5 1249.5 Q 1639 1260 1638 1269 Q 1637 1278 1623.5 1287.5 Q 1610 1297 1581 1301 L 1316 1342 L 1195 1362 Z"/><path d="M 1227 1627 Q 1225 1548 1222.5 1492.5 Q 1220 1437 1213 1416 L 1195 1362 L 1316 1342 Q 1333 1354 1340 1364 Q 1347 1374 1347.5 1388 Q 1348 1402 1339.5 1433 Q 1331 1464 1329 1491 L 1318 1619 Q 1271.5 1671 1227 1627 Z"/><path d="M 1318 1619 L 1575 1591 Q 1653 1583 1707.5 1572 Q 1762 1561 1784 1562 Q 1806 1565 1834.5 1576.5 Q 1863 1588 1885 1601 Q 1907 1614 1922 1631.5 Q 1937 1649 1934 1658.5 Q 1931 1668 1922 1674 Q 1910 1682 1894 1681 Q 1878 1680 1816 1680 L 1641 1674 Q 1606 1674 1489 1680 L 1296 1689 Q 1194 1696 1118 1706.5 Q 1042 1717 983.5 1729.5 Q 925 1742 885 1753.5 Q 845 1765 827 1764 Q 808 1764 783.5 1756.5 Q 759 1749 747.5 1743 Q 736 1737 707 1720 Q 678 1703 677 1688 Q 676 1673 696 1672 L 755 1670 Q 770 1670 826 1666 Q 882 1662 904 1660 L 1069 1642 L 1227 1627 L 1318 1619 Z"/></g><g transform="translate(36.333,1.500) scale(0.003906)"><path d="M 431 619 Q 370 625 338 624.5 Q 306 624 278 619 Q 250 614 227.5 599 Q 205 584 209.5 572.5 Q 214 561 235 558 L 303 549 L 413 535 Q 472 527 545 511 Q 618 495 649 486 Q 680 477 694 476 Q 715 475 748 485 Q 781 495 800 509 Q 819 523 818 533 Q 816 543 803.5 551 Q 791 559 767 564 L 726 573 L 646 587 L 587 598 L 431 619 Z"/><path d="M 470 1044 Q 434 1053 403.5 1059 Q 373 1065 342 1065 Q 312 1066 286 1059.5 Q 260 1053 245 1039 Q 230 1025 231 1013.5 Q 232 1002 260 997 L 310 989 Q 387 977 415 970 L 467 958 L 601 925 Q 633 912 653.5 907.5 Q 674 903 699 905 Q 707 906 743.5 914.5 Q 780 923 791 933 Q 802 943 801 955 Q 800 967 765 975 L 599 1016 L 470 1044 Z"/><path d="M 471 1400 L 470 1044 L 467 958 L 464 769 Q 463 712 458 684 Q 453 656 444 641 L 431 619 L 587 598 Q 609 613 616 623 Q 623 633 623.5 640 Q 624 647 619 665 Q 618 668 612 730 L 606 780 L 601 925 L 599 1016 L 585 1366 Q 525 1443 471 1400 Z"/><path d="M 585 1366 L 854 1288 Q 872 1283 878.5 1296 Q 885 1309 861 1320 L 532 1478 Q 478 1504 436.5 1527.5 Q 395 1551 359 1573 Q 323 1595 306 1607.5 Q 289 1620 277 1623 Q 265 1626 245 1617 Q 227 1610 207 1591 L 179 1565 Q 146 1536 136 1512 Q 126 1488 135 1480 Q 138 1478 147 1476 L 185 1475 Q 200 1475 239.5 1465.5 Q 279 1456 291 1452 L 471 1400 L 585 1366 Z"/><path d="M 1051 1053 Q 1042 1075 1032.5 1084.5 Q 1023 1094 1009.5 1094.5 Q 996 1095 985.5 1072.5 Q 975 1050 967 975 L 937 696 Q 931 649 920 601 Q 909 553 898.5 525.5 Q 888 498 868 475 Q 848 452 846 440.5 Q 844 429 851 421 Q 851 421 893 420 L 949 424 Q 997 420.5 989 483 L 1017 699 L 1028 764 L 1047 981 L 1051 1053 Z"/><path d="M 949 424 Q 1034 420 1083 415 Q 1132 410 1244.5 389.5 Q 1357 369 1403 357 Q 1449 345 1508.5 327 Q 1568 309 1588 308 Q 1607 308 1640.5 318 Q 1674 328 1715.5 348.5 Q 1757 369 1778.5 387 Q 1800 405 1802 419.5 Q 1804 434 1779.5 472.5 Q 1755 511 1735 591 L 1678 817 Q 1630 1005 1619.5 1026.5 Q 1609 1048 1591 1061 Q 1573 1074 1556 1070 Q 1538 1067 1524 1044 L 1503 1014 Q 1448.5 923 1524 952 L 1577 693 L 1582 651 L 1594 541 L 1596 499 Q 1599 449 1599 448 Q 1597 421 1588.5 415 Q 1580 409 1557.5 408.5 Q 1535 408 1485 416 L 1290 447 L 1182 465 Q 1103 476 1088 476 L 989 483 L 949 424 Z"/><path d="M 1017 699 Q 1089 687 1102 685 L 1218 669 L 1342 652 Q 1380 641 1410 632.5 Q 1440 624 1466.5 624.5 Q 1493 625 1539 638 L 1582 651 L 1577 693 Q 1533 702 1489.5 709.5 Q 1446 717 1418 722 L 1344 735 L 1215 754 Q 1185 758 1149 763 Q 1113 768 1102 767 L 1028 764 L 1017 699 Z"/><path d="M 1215 1042 Q 1171 1048 1137.5 1052 Q 1104 1056 1095 1055 L 1051 1053 L 1047 981 Q 1137 972 1165 969 L 1214 964 L 1337 942 Q 1361 936 1382.5 931.5 Q 1404 927 1431 927 Q 1467 928 1483 935 L 1524 952 L 1503 1014 L 1334 1024 L 1215 1042 Z"/><path d="M 1218 1372 Q 1170 1378 1133 1382 Q 1096 1386 1073 1386 Q 1037 1387 1002.5 1379 Q 968 1371 954.5 1354.5 Q 941 1338 945 1330.5 Q 949 1323 970 1320 L 1018 1314 L 1134 1300 L 1218 1289 L 1331 1273 Q 1387 1264 1430.5 1251 Q 1474 1238 1490 1238 Q 1502 1239 1548 1250 Q 1594 1261 1603 1279 Q 1612 1297 1610 1304.5 Q 1608 1312 1592 1316 L 1539 1331 Q 1525 1335 1492 1339 L 1402 1352 L 1328 1362 L 1218 1372 Z"/><path d="M 1218 1289 L 1215 1042 L 1214 964 L 1215 754 L 1218 669 Q 1217 645 1216 622.5 Q 1215 600 1207 553 Q 1199 506 1194 493 L 1182 465 L 1290 447 Q 1338 459 1351 473 Q 1364 487 1366.5 498 Q 1369 509 1358 544 Q 1350 569 1348 593 L 1342 652 L 1344 735 L 1337 942 L 1334 1024 L 1331 1273 L 1328 1362 L 1322 1592 Q 1273 1646.5 1218 1595 L 1218 1372 L 1218 1289 Z"/><path d="M 1322 1592 L 1567 1568 Q 1626 1563 1667.5 1554 Q 1709 1545 1722 1544 Q 1744 1544 1787 1557.5 Q 1830 1571 1857.5 1585.5 Q 1885 1600 1898.5 1615 Q 1912 1630 1912.5 1640.5 Q 1913 1651 1891.5 1659 Q 1870 1667 1834 1667 L 1771 1668 L 1486 1671 Q 1293 1675 1197 1685.5 Q 1101 1696 1039.5 1705 Q 978 1714 948.5 1720.5 Q 919 1727 887.5 1734.5 Q 856 1742 846 1742 Q 822 1744 791.5 1735 Q 761 1726 739.5 1711 Q 718 1696 708.5 1682 Q 699 1668 702.5 1660 Q 706 1652 717 1651 L 739 1650 Q 752 1650 786.5 1645.5 Q 821 1641 922 1631.5 Q 1023 1622 1123 1608 L 1218 1595 L 1322 1592 Z"/></g><g transform="translate(5.667,8.500) scale(0.003906)"><path d="M 896 546 Q 810 555 758 559 Q 706 563 655 562 Q 593 562 564.5 553 Q 536 544 516.5 525.5 Q 497 507 500.5 497 Q 504 487 538 484 L 598 480 Q 672 476 839 455 Q 1006 434 1086 419 L 1229 393 Q 1291 383 1321.5 374.5 Q 1352 366 1360 365 Q 1383 363 1428 373 Q 1473 383 1495 405 Q 1517 427 1514 437 Q 1511 445 1496 453 Q 1481 461 1449 466 L 1371 480 L 1282 493 L 1193 508 L 1061 526 L 896 546 Z"/><path d="M 943 1086 Q 899 1093 854.5 1099.5 Q 810 1106 757 1106 Q 709 1107 672 1102.5 Q 635 1098 600 1076 Q 565 1054 574.5 1042.5 Q 584 1031 618 1028 L 665 1025 L 746 1020 L 943 994 L 1062 977 L 1220 953 Q 1233 951 1280 939.5 Q 1327 928 1349 929 Q 1366 930 1394 938.5 Q 1422 947 1445 960.5 Q 1468 974 1472.5 985 Q 1477 996 1473 1005 Q 1469 1014 1442 1019 L 1382 1031 Q 1336 1041 1296 1045 L 1062 1075 L 943 1086 Z"/><path d="M 943 994 L 941 769 Q 940 754 934 696 Q 928 638 923.5 614 Q 919 590 910 573 L 896 546 L 1061 526 Q 1080 538 1093.5 547 Q 1107 556 1115 567 Q 1123 578 1124.5 589.5 Q 1126 601 1113 630 Q 1104 650 1094 686 Q 1084 722 1076.5 764.5 Q 1069 807 1068 839 L 1062 977 L 1062 1075 L 1064 1513 Q 1005 1575 954 1521 L 943 1086 L 943 994 Z"/><path d="M 1064 1513 L 1313 1495 Q 1404 1489 1449.5 1484 Q 1495 1479 1556 1466.5 Q 1617 1454 1642 1454 Q 1673 1456 1717.5 1470 Q 1762 1484 1790 1498 Q 1818 1512 1836 1531.5 Q 1854 1551 1854 1561 Q 1853 1578 1838.5 1585.5 Q 1824 1593 1785 1593 L 1679 1595 Q 1607 1597 1420 1598 Q 1233 1599 1145 1602 Q 1057 1605 864.5 1621 Q 672 1637 559 1653 L 482 1664 Q 463 1667 425 1676 Q 387 1685 370 1685 Q 341 1686 305 1673 Q 269 1660 247 1649.5 Q 225 1639 207.5 1623.5 Q 190 1608 193 1599.5 Q 196 1591 207 1584 Q 218 1577 245 1576 L 320 1574 Q 388 1573 497.5 1566.5 Q 607 1560 808 1537 L 954 1521 L 1064 1513 Z"/></g><g transform="translate(21.000,8.500) scale(0.003906)"><path d="M 962 1353 L 973 664 L 962 451 Q 960 415 953 370 Q 946 325 932.5 292.5 Q 919 260 919.5 245.5 Q 920 231 928 223.5 Q 936 216 963 220 Q 989 225 1020 235.5 Q 1051 246 1090 264 Q 1129 282 1150 302 Q 1171 322 1172.5 335.5 Q 1174 349 1168 362 L 1144 401 Q 1136 415 1122.5 465.5 Q 1109 516 1100 564.5 Q 1091 613 1089 701 L 1076 1100 L 1087 1502 L 1091 1610 Q 1090 1662 1079.5 1694.5 Q 1069 1727 1043.5 1768.5 Q 1018 1810 999.5 1820.5 Q 981 1831 973 1830 Q 961 1830 949 1816.5 Q 937 1803 906.5 1759.5 Q 876 1716 834.5 1673.5 Q 793 1631 764 1606 L 727 1575 Q 711 1563 716.5 1554 Q 722 1545 742 1550 L 803 1568 Q 859 1584 882 1587 Q 905 1590 918 1582.5 Q 931 1575 938 1560.5 Q 945 1546 952 1470 L 962 1353 Z"/><path d="M 246 1314 Q 278 1267 319 1207.5 Q 360 1148 389 1092 Q 418 1036 439 978.5 Q 460 921 466.5 894.5 Q 473 868 471.5 840 Q 470 812 476.5 806 Q 483 800 506 806 Q 522 811 556 832.5 Q 590 854 616.5 882.5 Q 643 911 632 933 Q 628 940 611.5 955 Q 595 970 588 977.5 Q 581 985 517 1082 Q 453 1179 394.5 1238 Q 336 1297 266 1343 L 239 1361 Q 219 1375 213.5 1366.5 Q 208 1358 223 1340 L 246 1314 Z"/><path d="M 1414 862 L 1389 830 Q 1380 819 1384 810 Q 1388 801 1399 804 L 1442 817 Q 1473 827 1523.5 852 Q 1574 877 1639 920 Q 1704 963 1751.5 1023 Q 1799 1083 1817.5 1138.5 Q 1836 1194 1835 1237 Q 1833 1275 1817.5 1296.5 Q 1802 1318 1781 1321.5 Q 1760 1325 1736 1307 Q 1720 1296 1695 1261 Q 1670 1226 1609.5 1134 Q 1549 1042 1514.5 992 Q 1480 942 1454 910 L 1414 862 Z"/></g><g transform="translate(36.333,8.500) scale(0.003906)"><path d="M 399 1217 L 396 1255 Q 391 1312 373.5 1311.5 Q 356 1311 343 1301 Q 330 1291 314.5 1260 Q 299 1229 297.5 1193.5 Q 296 1158 309 1089 Q 320 1030 323.5 998.5 Q 327 967 334.5 825.5 Q 342 684 342.5 651 Q 343 618 337 552 Q 332 503 325 484 Q 318 465 307 446.5 Q 296 428 299 418 Q 302 408 322 406.5 Q 342 405 351 409 L 407 432 Q 436.5 436.5 424 485 Q 425 519 426.5 556.5 Q 428 594 427 622 L 419 798 L 418 855 L 404 1153 L 399 1217 Z"/><path d="M 407 432 Q 466 421 494 415.5 Q 522 410 569 400 Q 616 390 635.5 384.5 Q 655 379 675.5 370.5 Q 696 362 705 362 Q 712 363 734 371.5 Q 756 380 776.5 393 Q 797 406 817 424 Q 837 442 841 451 Q 845 460 841 474 L 827 504 Q 822 516 820.5 536.5 Q 819 557 818 602.5 Q 817 648 814 759 Q 811 870 816 941 Q 817 976 825.5 1059 Q 834 1142 833 1167 Q 829 1212 809.5 1261.5 Q 790 1311 759 1339 Q 728 1367 713 1356 Q 706 1352 696 1320.5 Q 686 1289 666 1236 L 655 1208 Q 609 1108.5 663 1139 L 691 1155 Q 696 1137 702.5 1110.5 Q 709 1084 710 1047 L 716 822 L 716 774 L 719 568 Q 719 528 718 514.5 Q 717 501 709 487.5 Q 701 474 687.5 466.5 Q 674 459 645 458 Q 616 458 578.5 461 Q 541 464 518 468 L 424 485 L 407 432 Z"/><path d="M 716 822 Q 678 830 660 833 L 577 846 Q 510 857 484.5 859 Q 459 861 443 858 L 418 855 L 419 798 Q 439 796 464 792.5 Q 489 789 520.5 782.5 Q 552 776 579.5 769 Q 607 762 621 760 Q 652 757 674 763 L 716 774 L 716 822 Z"/><path d="M 655 1208 Q 549 1218 498.5 1223 Q 448 1228 437 1225 L 399 1217 L 404 1153 L 541 1139 L 621 1130 Q 650 1132 663 1139 L 655 1208 Z"/><path d="M 1113 1097 Q 1097 1163 1078.5 1230.5 Q 1060 1298 1011.5 1401 Q 963 1504 923 1557.5 Q 883 1611 840.5 1653 Q 798 1695 777 1706 L 746 1722 Q 731 1730 725 1724 Q 719 1718 729 1706 L 760 1669 L 791 1633 Q 815 1604 856.5 1528 Q 898 1452 931 1371 Q 964 1290 990.5 1177.5 Q 1017 1065 1028.5 988 Q 1040 911 1049.5 812.5 Q 1059 714 1061 637.5 Q 1063 561 1062 511 Q 1059 456 1053 412.5 Q 1047 369 1034.5 344 Q 1022 319 1023.5 310 Q 1025 301 1032.5 296 Q 1040 291 1058 293 Q 1072 296 1099 304.5 Q 1126 313 1136 318 L 1166 334 Q 1205 346.5 1192 399 Q 1190 416 1189 424 L 1181 477 Q 1176 511 1175 535 L 1166 733 L 1164 766 Q 1153 853 1152 863 L 1124 1062 L 1113 1097 Z"/><path d="M 1166 334 Q 1229 328 1264 323 Q 1299 318 1355 306.5 Q 1411 295 1444 286 Q 1477 277 1508 265 L 1561 243 Q 1571 239 1578 238 Q 1592 237 1616.5 249.5 Q 1641 262 1671.5 281 Q 1702 300 1727 320.5 Q 1752 341 1751 357 Q 1750 364 1745 374 L 1734 393 Q 1725 409 1717 430 Q 1709 451 1706.5 461.5 Q 1704 472 1695 577 L 1693 999 Q 1692 1155 1696 1315 Q 1700 1475 1693 1551 Q 1686 1616 1673.5 1663 Q 1661 1710 1642 1750 Q 1623 1790 1605 1801 Q 1587 1812 1576 1811 Q 1560 1811 1533 1775 Q 1506 1739 1470 1702 L 1395 1630 Q 1360 1597 1345 1586 L 1322 1570 Q 1310 1563 1314 1552.5 Q 1318 1542 1333 1545 L 1364 1553 L 1431 1573 Q 1455 1580 1492.5 1588 Q 1530 1596 1539 1590 Q 1547 1585 1555 1548.5 Q 1563 1512 1565 1495 L 1567 1423 L 1576 1110 L 1575 1072 L 1576 1051 L 1579 745 L 1576 716 L 1578 466 Q 1578 399 1567 381 Q 1556 363 1527 353 Q 1500 345 1442 355 L 1350 370 L 1261 387 L 1192 399 L 1166 334 Z"/><path d="M 1579 745 Q 1541 750 1523 752 L 1425 769 Q 1361 780 1300 783.5 Q 1239 787 1217 780 L 1164 766 L 1166 733 Q 1253 716 1308 705 Q 1363 694 1403.5 684.5 Q 1444 675 1461 674 Q 1501 673 1520 685 L 1576 716 L 1579 745 Z"/><path d="M 1575 1072 Q 1553 1078 1533.5 1082.5 Q 1514 1087 1475 1091 L 1357 1104 Q 1271 1115 1248 1115 Q 1194 1117 1161 1108 L 1113 1097 L 1124 1062 Q 1241 1045 1331.5 1027.5 Q 1422 1010 1440.5 1007 Q 1459 1004 1475 1005 Q 1511 1008 1536 1025 L 1576 1051 L 1575 1072 Z"/></g></g></svg>