<svg xmlns="http://www.w3.org/2000/svg" width="480" height="600" viewBox="0 0 8192 10240">
<rect x="0" y="0" width="8192" height="10240" fill="white"/>
<g transform="translate(0,0)">
  <g class="guides" stroke="#bbbbbb" stroke-width="12" fill="none" stroke-dasharray="40 30">
    <rect x="0" y="0" width="2048" height="2048" stroke="#888" stroke-width="14" stroke-dasharray="none"/>
    <line x1="1024" y1="0" x2="1024" y2="2048"/>
    <line x1="0" y1="1024" x2="2048" y2="1024"/>
    </g>
  <g class="outline" fill="#ccc"><path d="M 555 796 Q 540 817 517.5 847.5 Q 495 878 444.5 932 Q 394 986 355 1021 Q 316 1056 279.5 1083 Q 243 1110 225 1120 L 191 1139 Q 176 1148 169.5 1139.5 Q 163 1131 173 1120 L 199 1094 Q 213 1080 248.5 1039 Q 284 998 312.5 963 Q 341 928 381 869 Q 421 810 459.5 749 Q 498 688 528 634 Q 558 580 582 525.5 Q 606 471 619.5 432 Q 633 393 644.5 352 Q 656 311 654.5 281 Q 653 251 656 239.5 Q 659 228 670 222 Q 681 216 711 230 Q 752 250 777 268 Q 802 286 824 310 Q 846 334 841 348 Q 839 354 826.5 365.5 Q 814 377 801 395 Q 788 413 774 437 Q 760 461 742 492.5 Q 724 524 681.5 598.5 Q 639 673 627 693 L 610 721 L 555 796 Z"/><path d="M 610 721 Q 629 744 639 757 Q 649 770 661 789 Q 673 808 681 823 Q 689 838 690 848 Q 691 858 685 885 Q 680 903 678 923.5 Q 676 944 672.5 989.5 Q 669 1035 669 1066 L 662 1327 L 659 1395 Q 658 1410 661 1468 Q 664 1553 666.5 1583 Q 669 1613 668 1628 Q 666 1652 656.5 1680 Q 647 1708 635.5 1727.5 Q 624 1747 614 1756.5 Q 604 1766 596 1767 Q 588 1768 574 1749 Q 561 1734 550 1711 Q 539 1688 534.5 1676 Q 530 1664 522.5 1635 Q 515 1606 514.5 1594.5 Q 514 1583 526 1548 Q 536 1517 541 1484 Q 546 1451 550.5 1398.5 Q 555 1346 557 1310 L 563 1136 L 570 971 Q 569 927 562 860 L 555 796 L 610 721 Z"/><path d="M 1054 696 Q 1022 741 994.5 780 Q 967 819 930 865 Q 893 911 874 927 L 850 947 Q 832 962 825 955.5 Q 818 949 825 936 L 844 902 Q 849 893 869 851 L 934 723 Q 960 668 984 605 Q 1008 542 1031 474 Q 1054 406 1062 377.5 Q 1070 349 1073 327.5 Q 1076 306 1079.5 280 Q 1083 254 1082 235 Q 1081 216 1085.5 209 Q 1090 202 1100 199 Q 1110 196 1141 207 L 1197 226 Q 1212 233 1231.5 247 Q 1251 261 1266.5 275.5 Q 1282 290 1282 303 Q 1281 316 1275 322 Q 1269 328 1253 339.5 Q 1237 351 1217.5 383.5 Q 1198 416 1166.5 485 Q 1135 554 1130 563 L 1083 648 L 1054 696 Z"/><path d="M 1083 648 Q 1156 635 1193 628 L 1338 604 Q 1395 594 1445 582.5 Q 1495 571 1522.5 562 Q 1550 553 1576.5 542.5 Q 1603 532 1616 530 Q 1634 529 1660 537 Q 1686 545 1707.5 555 Q 1729 565 1757.5 584 Q 1786 603 1805 620.5 Q 1824 638 1835.5 654.5 Q 1847 671 1845 682 Q 1842 696 1812 711 Q 1782 726 1752.5 743 Q 1723 760 1683 789.5 Q 1643 819 1614 843 Q 1585 867 1567 885 L 1542 910 Q 1528 924 1521 917.5 Q 1514 911 1520 899 L 1534 871 L 1578 779 Q 1595 743 1601 727 L 1612 688 Q 1619 662 1613.5 652.5 Q 1608 643 1580 643 Q 1571 644 1544 647 L 1501 652 Q 1484 654 1413 666 L 1305 684 L 1208 704 Q 1176 711 1142 715 Q 1098 722 1089 715 L 1054 696 L 1083 648 Z"/><path d="M 1242 1180 Q 1240 1134 1238 1096 Q 1236 1058 1230.5 1013.5 Q 1225 969 1212.5 941 Q 1200 913 1198 904.5 Q 1196 896 1200 887.5 Q 1204 879 1219 875 Q 1227 874 1252 879 L 1290 886 Q 1303 890 1329.5 901.5 Q 1356 913 1367.5 924 Q 1379 935 1380.5 946.5 Q 1382 958 1373 980 Q 1363 1003 1356.5 1029 Q 1350 1055 1350 1105 L 1350 1283 Q 1350 1308 1354.5 1415 Q 1359 1522 1359 1590 Q 1358 1645 1350 1686.5 Q 1342 1728 1318 1762 Q 1294 1796 1262.5 1824.5 Q 1231 1853 1216 1850 Q 1204 1848 1194.5 1837.5 Q 1185 1827 1168.5 1796 Q 1152 1765 1128 1734 Q 1104 1703 1087 1683.5 Q 1070 1664 1056 1649 L 1028 1622 Q 1017 1613 1025 1605 Q 1033 1597 1041 1599 L 1064 1607 L 1106 1627 Q 1106 1628 1144 1642.5 Q 1182 1657 1193 1653 Q 1203 1650 1215 1633 Q 1227 1616 1232 1594 Q 1237 1572 1243 1514.5 Q 1249 1457 1249 1431 L 1242 1180 Z"/><path d="M 783 1553 L 761 1567 Q 747 1576 742 1566.5 Q 737 1557 744 1548 L 761 1525 Q 768 1515 805 1458 Q 842 1401 857.5 1374 Q 873 1347 889 1308.5 Q 905 1270 913 1246 Q 921 1222 922.5 1202 Q 924 1182 927 1173 Q 930 1164 938.5 1160.5 Q 947 1157 968 1164 L 1000 1175 Q 1020 1183 1042.5 1195.5 Q 1065 1208 1072.5 1222.5 Q 1080 1237 1077 1247 Q 1074 1255 1057 1268.5 Q 1040 1282 1022 1305 L 969 1377 Q 940 1415 904.5 1451.5 Q 869 1488 838 1513 Q 807 1538 783 1553 Z"/><path d="M 1537 1211 L 1518 1188 Q 1511 1180 1516.5 1174 Q 1522 1168 1540 1172 L 1570 1180 Q 1577 1182 1601 1191 L 1668 1216 Q 1710 1235 1748.5 1263.5 Q 1787 1292 1816.5 1321.5 Q 1846 1351 1861.5 1383.5 Q 1877 1416 1877 1458 Q 1876 1487 1867.5 1511.5 Q 1859 1536 1845.5 1544 Q 1832 1552 1815 1550 Q 1788 1548 1758.5 1513.5 Q 1729 1479 1710 1451 L 1657 1372 L 1606 1300 Q 1570 1248 1559 1235 L 1537 1211 Z"/></g><g class="trace" fill="none" stroke="#c22" stroke-width="10" stroke-linecap="round" stroke-linejoin="round"><polyline points="756.00,250.00 741.82,282.24 728.20,314.64 714.97,347.15 701.99,379.74 689.12,412.35 676.19,444.96 663.06,477.50 649.59,509.94 635.61,542.24 620.99,574.34 605.56,606.22 589.19,637.81 571.72,669.09 553.00,700.00 534.31,728.49 514.53,756.67 493.77,784.56 472.16,812.20 449.81,839.63 426.86,866.88 403.43,893.99 379.62,920.99 355.58,947.92 331.41,974.81 307.24,1001.71 283.19,1028.64 259.39,1055.64 235.95,1082.75 213.00,1110.00"/><polyline points="593.00,746.00 594.35,780.54 595.86,815.37 597.51,850.41 599.24,885.61 601.03,920.90 602.83,956.21 604.60,991.47 606.31,1026.62 607.92,1061.60 609.38,1096.34 610.66,1130.77 611.73,1164.83 612.53,1198.45 613.04,1231.56 613.21,1264.10 613.00,1296.00 612.20,1334.33 610.84,1371.73 609.00,1408.30 606.75,1444.17 604.17,1479.48 601.32,1514.33 598.27,1548.85 595.10,1583.17 591.89,1617.41 588.70,1651.69 585.61,1686.13 582.68,1720.86 580.00,1756.00"/><polyline points="1186.00,236.00 1176.83,262.64 1168.15,289.18 1159.81,315.67 1151.66,342.11 1143.56,368.55 1135.37,395.01 1126.93,421.51 1118.10,448.08 1108.74,474.76 1098.69,501.56 1087.82,528.51 1075.97,555.65 1063.00,583.00 1051.56,605.39 1039.37,627.92 1026.50,650.57 1013.02,673.34 999.03,696.21 984.59,719.16 969.78,742.18 954.69,765.25 939.39,788.36 923.95,811.50 908.47,834.64 893.01,857.78 877.65,880.90 862.48,903.99 847.57,927.03 833.00,950.00"/><polyline points="1106.00,693.00 1139.23,686.42 1173.71,679.27 1209.16,671.68 1245.28,663.78 1281.79,655.71 1318.40,647.59 1354.82,639.56 1390.75,631.75 1425.91,624.29 1460.00,617.32 1492.75,610.96 1523.84,605.34 1553.01,600.61 1579.95,596.89 1604.38,594.31 1626.00,593.00 1692.44,597.13 1733.00,613.19 1751.06,639.15 1750.00,673.00 1742.00,691.10 1727.33,712.01 1707.33,735.19 1683.33,760.05 1656.67,786.04 1628.67,812.59 1600.67,839.15 1574.00,865.14 1550.00,890.00"/><polyline points="1283.00,890.00 1286.11,930.61 1289.81,971.42 1293.90,1012.34 1298.19,1053.33 1302.47,1094.32 1306.56,1135.25 1310.26,1176.05 1313.37,1216.67 1315.70,1257.03 1317.04,1297.08 1317.21,1336.76 1316.00,1376.00 1313.26,1420.74 1309.36,1468.93 1304.39,1519.18 1298.43,1570.06 1291.56,1620.17 1283.87,1668.11 1275.44,1712.47 1266.36,1751.85 1256.70,1784.83 1246.55,1810.02 1236.00,1826.00 1214.40,1829.19 1189.63,1804.89 1162.75,1762.25 1134.81,1710.44 1106.88,1658.64 1080.00,1616.00"/><polyline points="1003.00,1200.00 995.86,1211.72 988.72,1223.45 981.59,1235.17 974.45,1246.90 967.31,1258.62 960.17,1270.34 953.03,1282.07 945.90,1293.79 938.76,1305.52 931.62,1317.24 924.48,1328.97 917.34,1340.69 910.21,1352.41 903.07,1364.14 895.93,1375.86 888.79,1387.59 881.66,1399.31 874.52,1411.03 867.38,1422.76 860.24,1434.48 853.10,1446.21 845.97,1457.93 838.83,1469.66 831.69,1481.38 824.55,1493.10 817.41,1504.83 810.28,1516.55 803.14,1528.28 796.00,1540.00"/><polyline points="1536.00,1183.00 1547.17,1193.69 1558.34,1204.38 1569.52,1215.07 1580.69,1225.76 1591.86,1236.45 1603.03,1247.14 1614.21,1257.83 1625.38,1268.52 1636.55,1279.21 1647.72,1289.90 1658.90,1300.59 1670.07,1311.28 1681.24,1321.97 1692.41,1332.66 1703.59,1343.34 1714.76,1354.03 1725.93,1364.72 1737.10,1375.41 1748.28,1386.10 1759.45,1396.79 1770.62,1407.48 1781.79,1418.17 1792.97,1428.86 1804.14,1439.55 1815.31,1450.24 1826.48,1460.93 1837.66,1471.62 1848.83,1482.31 1860.00,1493.00"/></g>
</g>
<g transform="translate(2048,0)">
  <g class="guides" stroke="#bbbbbb" stroke-width="12" fill="none" stroke-dasharray="40 30">
    <rect x="0" y="0" width="2048" height="2048" stroke="#888" stroke-width="14" stroke-dasharray="none"/>
    <line x1="1024" y1="0" x2="1024" y2="2048"/>
    <line x1="0" y1="1024" x2="2048" y2="1024"/>
    </g>
  <g class="ghost" fill="#e0e0e0"><path d="M 555 796 Q 540 817 517.5 847.5 Q 495 878 444.5 932 Q 394 986 355 1021 Q 316 1056 279.5 1083 Q 243 1110 225 1120 L 191 1139 Q 176 1148 169.5 1139.5 Q 163 1131 173 1120 L 199 1094 Q 213 1080 248.5 1039 Q 284 998 312.5 963 Q 341 928 381 869 Q 421 810 459.5 749 Q 498 688 528 634 Q 558 580 582 525.5 Q 606 471 619.5 432 Q 633 393 644.5 352 Q 656 311 654.5 281 Q 653 251 656 239.5 Q 659 228 670 222 Q 681 216 711 230 Q 752 250 777 268 Q 802 286 824 310 Q 846 334 841 348 Q 839 354 826.5 365.5 Q 814 377 801 395 Q 788 413 774 437 Q 760 461 742 492.5 Q 724 524 681.5 598.5 Q 639 673 627 693 L 610 721 L 555 796 Z"/><path d="M 610 721 Q 629 744 639 757 Q 649 770 661 789 Q 673 808 681 823 Q 689 838 690 848 Q 691 858 685 885 Q 680 903 678 923.5 Q 676 944 672.5 989.5 Q 669 1035 669 1066 L 662 1327 L 659 1395 Q 658 1410 661 1468 Q 664 1553 666.5 1583 Q 669 1613 668 1628 Q 666 1652 656.5 1680 Q 647 1708 635.5 1727.5 Q 624 1747 614 1756.5 Q 604 1766 596 1767 Q 588 1768 574 1749 Q 561 1734 550 1711 Q 539 1688 534.5 1676 Q 530 1664 522.5 1635 Q 515 1606 514.5 1594.5 Q 514 1583 526 1548 Q 536 1517 541 1484 Q 546 1451 550.5 1398.5 Q 555 1346 557 1310 L 563 1136 L 570 971 Q 569 927 562 860 L 555 796 L 610 721 Z"/><path d="M 1054 696 Q 1022 741 994.5 780 Q 967 819 930 865 Q 893 911 874 927 L 850 947 Q 832 962 825 955.5 Q 818 949 825 936 L 844 902 Q 849 893 869 851 L 934 723 Q 960 668 984 605 Q 1008 542 1031 474 Q 1054 406 1062 377.5 Q 1070 349 1073 327.5 Q 1076 306 1079.5 280 Q 1083 254 1082 235 Q 1081 216 1085.5 209 Q 1090 202 1100 199 Q 1110 196 1141 207 L 1197 226 Q 1212 233 1231.5 247 Q 1251 261 1266.5 275.5 Q 1282 290 1282 303 Q 1281 316 1275 322 Q 1269 328 1253 339.5 Q 1237 351 1217.5 383.5 Q 1198 416 1166.5 485 Q 1135 554 1130 563 L 1083 648 L 1054 696 Z"/><path d="M 1083 648 Q 1156 635 1193 628 L 1338 604 Q 1395 594 1445 582.5 Q 1495 571 1522.5 562 Q 1550 553 1576.5 542.5 Q 1603 532 1616 530 Q 1634 529 1660 537 Q 1686 545 1707.5 555 Q 1729 565 1757.5 584 Q 1786 603 1805 620.5 Q 1824 638 1835.5 654.5 Q 1847 671 1845 682 Q 1842 696 1812 711 Q 1782 726 1752.5 743 Q 1723 760 1683 789.5 Q 1643 819 1614 843 Q 1585 867 1567 885 L 1542 910 Q 1528 924 1521 917.5 Q 1514 911 1520 899 L 1534 871 L 1578 779 Q 1595 743 1601 727 L 1612 688 Q 1619 662 1613.5 652.5 Q 1608 643 1580 643 Q 1571 644 1544 647 L 1501 652 Q 1484 654 1413 666 L 1305 684 L 1208 704 Q 1176 711 1142 715 Q 1098 722 1089 715 L 1054 696 L 1083 648 Z"/><path d="M 1242 1180 Q 1240 1134 1238 1096 Q 1236 1058 1230.5 1013.5 Q 1225 969 1212.5 941 Q 1200 913 1198 904.5 Q 1196 896 1200 887.5 Q 1204 879 1219 875 Q 1227 874 1252 879 L 1290 886 Q 1303 890 1329.5 901.5 Q 1356 913 1367.5 924 Q 1379 935 1380.5 946.5 Q 1382 958 1373 980 Q 1363 1003 1356.5 1029 Q 1350 1055 1350 1105 L 1350 1283 Q 1350 1308 1354.5 1415 Q 1359 1522 1359 1590 Q 1358 1645 1350 1686.5 Q 1342 1728 1318 1762 Q 1294 1796 1262.5 1824.5 Q 1231 1853 1216 1850 Q 1204 1848 1194.5 1837.5 Q 1185 1827 1168.5 1796 Q 1152 1765 1128 1734 Q 1104 1703 1087 1683.5 Q 1070 1664 1056 1649 L 1028 1622 Q 1017 1613 1025 1605 Q 1033 1597 1041 1599 L 1064 1607 L 1106 1627 Q 1106 1628 1144 1642.5 Q 1182 1657 1193 1653 Q 1203 1650 1215 1633 Q 1227 1616 1232 1594 Q 1237 1572 1243 1514.5 Q 1249 1457 1249 1431 L 1242 1180 Z"/><path d="M 783 1553 L 761 1567 Q 747 1576 742 1566.5 Q 737 1557 744 1548 L 761 1525 Q 768 1515 805 1458 Q 842 1401 857.5 1374 Q 873 1347 889 1308.5 Q 905 1270 913 1246 Q 921 1222 922.5 1202 Q 924 1182 927 1173 Q 930 1164 938.5 1160.5 Q 947 1157 968 1164 L 1000 1175 Q 1020 1183 1042.5 1195.5 Q 1065 1208 1072.5 1222.5 Q 1080 1237 1077 1247 Q 1074 1255 1057 1268.5 Q 1040 1282 1022 1305 L 969 1377 Q 940 1415 904.5 1451.5 Q 869 1488 838 1513 Q 807 1538 783 1553 Z"/><path d="M 1537 1211 L 1518 1188 Q 1511 1180 1516.5 1174 Q 1522 1168 1540 1172 L 1570 1180 Q 1577 1182 1601 1191 L 1668 1216 Q 1710 1235 1748.5 1263.5 Q 1787 1292 1816.5 1321.5 Q 1846 1351 1861.5 1383.5 Q 1877 1416 1877 1458 Q 1876 1487 1867.5 1511.5 Q 1859 1536 1845.5 1544 Q 1832 1552 1815 1550 Q 1788 1548 1758.5 1513.5 Q 1729 1479 1710 1451 L 1657 1372 L 1606 1300 Q 1570 1248 1559 1235 L 1537 1211 Z"/></g>
</g>
<g transform="translate(4096,0)">
  <g class="guides" stroke="#bbbbbb" stroke-width="12" fill="none" stroke-dasharray="40 30">
    <rect x="0" y="0" width="2048" height="2048" stroke="#888" stroke-width="14" stroke-dasharray="none"/>
    <line x1="1024" y1="0" x2="1024" y2="2048"/>
    <line x1="0" y1="1024" x2="2048" y2="1024"/>
    </g>
  <g class="ghost" fill="#e0e0e0"><path d="M 555 796 Q 540 817 517.5 847.5 Q 495 878 444.5 932 Q 394 986 355 1021 Q 316 1056 279.5 1083 Q 243 1110 225 1120 L 191 1139 Q 176 1148 169.5 1139.5 Q 163 1131 173 1120 L 199 1094 Q 213 1080 248.5 1039 Q 284 998 312.5 963 Q 341 928 381 869 Q 421 810 459.5 749 Q 498 688 528 634 Q 558 580 582 525.5 Q 606 471 619.5 432 Q 633 393 644.5 352 Q 656 311 654.5 281 Q 653 251 656 239.5 Q 659 228 670 222 Q 681 216 711 230 Q 752 250 777 268 Q 802 286 824 310 Q 846 334 841 348 Q 839 354 826.5 365.5 Q 814 377 801 395 Q 788 413 774 437 Q 760 461 742 492.5 Q 724 524 681.5 598.5 Q 639 673 627 693 L 610 721 L 555 796 Z"/><path d="M 610 721 Q 629 744 639 757 Q 649 770 661 789 Q 673 808 681 823 Q 689 838 690 848 Q 691 858 685 885 Q 680 903 678 923.5 Q 676 944 672.5 989.5 Q 669 1035 669 1066 L 662 1327 L 659 1395 Q 658 1410 661 1468 Q 664 1553 666.5 1583 Q 669 1613 668 1628 Q 666 1652 656.5 1680 Q 647 1708 635.5 1727.5 Q 624 1747 614 1756.5 Q 604 1766 596 1767 Q 588 1768 574 1749 Q 561 1734 550 1711 Q 539 1688 534.5 1676 Q 530 1664 522.5 1635 Q 515 1606 514.5 1594.5 Q 514 1583 526 1548 Q 536 1517 541 1484 Q 546 1451 550.5 1398.5 Q 555 1346 557 1310 L 563 1136 L 570 971 Q 569 927 562 860 L 555 796 L 610 721 Z"/><path d="M 1054 696 Q 1022 741 994.5 780 Q 967 819 930 865 Q 893 911 874 927 L 850 947 Q 832 962 825 955.5 Q 818 949 825 936 L 844 902 Q 849 893 869 851 L 934 723 Q 960 668 984 605 Q 1008 542 1031 474 Q 1054 406 1062 377.5 Q 1070 349 1073 327.5 Q 1076 306 1079.5 280 Q 1083 254 1082 235 Q 1081 216 1085.5 209 Q 1090 202 1100 199 Q 1110 196 1141 207 L 1197 226 Q 1212 233 1231.5 247 Q 1251 261 1266.5 275.5 Q 1282 290 1282 303 Q 1281 316 1275 322 Q 1269 328 1253 339.5 Q 1237 351 1217.5 383.5 Q 1198 416 1166.5 485 Q 1135 554 1130 563 L 1083 648 L 1054 696 Z"/><path d="M 1083 648 Q 1156 635 1193 628 L 1338 604 Q 1395 594 1445 582.5 Q 1495 571 1522.5 562 Q 1550 553 1576.5 542.5 Q 1603 532 1616 530 Q 1634 529 1660 537 Q 1686 545 1707.5 555 Q 1729 565 1757.5 584 Q 1786 603 1805 620.5 Q 1824 638 1835.5 654.5 Q 1847 671 1845 682 Q 1842 696 1812 711 Q 1782 726 1752.5 743 Q 1723 760 1683 789.5 Q 1643 819 1614 843 Q 1585 867 1567 885 L 1542 910 Q 1528 924 1521 917.5 Q 1514 911 1520 899 L 1534 871 L 1578 779 Q 1595 743 1601 727 L 1612 688 Q 1619 662 1613.5 652.5 Q 1608 643 1580 643 Q 1571 644 1544 647 L 1501 652 Q 1484 654 1413 666 L 1305 684 L 1208 704 Q 1176 711 1142 715 Q 1098 722 1089 715 L 1054 696 L 1083 648 Z"/><path d="M 1242 1180 Q 1240 1134 1238 1096 Q 1236 1058 1230.5 1013.5 Q 1225 969 1212.5 941 Q 1200 913 1198 904.5 Q 1196 896 1200 887.5 Q 1204 879 1219 875 Q 1227 874 1252 879 L 1290 886 Q 1303 890 1329.5 901.5 Q 1356 913 1367.5 924 Q 1379 935 1380.5 946.5 Q 1382 958 1373 980 Q 1363 1003 1356.5 1029 Q 1350 1055 1350 1105 L 1350 1283 Q 1350 1308 1354.5 1415 Q 1359 1522 1359 1590 Q 1358 1645 1350 1686.5 Q 1342 1728 1318 1762 Q 1294 1796 1262.5 1824.5 Q 1231 1853 1216 1850 Q 1204 1848 1194.5 1837.5 Q 1185 1827 1168.5 1796 Q 1152 1765 1128 1734 Q 1104 1703 1087 1683.5 Q 1070 1664 1056 1649 L 1028 1622 Q 1017 1613 1025 1605 Q 1033 1597 1041 1599 L 1064 1607 L 1106 1627 Q 1106 1628 1144 1642.5 Q 1182 1657 1193 1653 Q 1203 1650 1215 1633 Q 1227 1616 1232 1594 Q 1237 1572 1243 1514.5 Q 1249 1457 1249 1431 L 1242 1180 Z"/><path d="M 783 1553 L 761 1567 Q 747 1576 742 1566.5 Q 737 1557 744 1548 L 761 1525 Q 768 1515 805 1458 Q 842 1401 857.5 1374 Q 873 1347 889 1308.5 Q 905 1270 913 1246 Q 921 1222 922.5 1202 Q 924 1182 927 1173 Q 930 1164 938.5 1160.5 Q 947 1157 968 1164 L 1000 1175 Q 1020 1183 1042.5 1195.5 Q 1065 1208 1072.5 1222.5 Q 1080 1237 1077 1247 Q 1074 1255 1057 1268.5 Q 1040 1282 1022 1305 L 969 1377 Q 940 1415 904.5 1451.5 Q 869 1488 838 1513 Q 807 1538 783 1553 Z"/><path d="M 1537 1211 L 1518 1188 Q 1511 1180 1516.5 1174 Q 1522 1168 1540 1172 L 1570 1180 Q 1577 1182 1601 1191 L 1668 1216 Q 1710 1235 1748.5 1263.5 Q 1787 1292 1816.5 1321.5 Q 1846 1351 1861.5 1383.5 Q 1877 1416 1877 1458 Q 1876 1487 1867.5 1511.5 Q 1859 1536 1845.5 1544 Q 1832 1552 1815 1550 Q 1788 1548 1758.5 1513.5 Q 1729 1479 1710 1451 L 1657 1372 L 1606 1300 Q 1570 1248 1559 1235 L 1537 1211 Z"/></g>
</g>
<g transform="translate(6144,0)">
  <g class="guides" stroke="#bbbbbb" stroke-width="12" fill="none" stroke-dasharray="40 30">
    <rect x="0" y="0" width="2048" height="2048" stroke="#888" stroke-width="14" stroke-dasharray="none"/>
    <line x1="1024" y1="0" x2="1024" y2="2048"/>
    <line x1="0" y1="1024" x2="2048" y2="1024"/>
    </g>
  
</g>
<g transform="translate(0,2048)">
  <g class="guides" stroke="#bbbbbb" stroke-width="12" fill="none" stroke-dasharray="40 30">
    <rect x="0" y="0" width="2048" height="2048" stroke="#888" stroke-width="14" stroke-dasharray="none"/>
    <line x1="1024" y1="0" x2="1024" y2="2048"/>
    <line x1="0" y1="1024" x2="2048" y2="1024"/>
    </g>
  
</g>
<g transform="translate(2048,2048)">
  <g class="guides" stroke="#bbbbbb" stroke-width="12" fill="none" stroke-dasharray="40 30">
    <rect x="0" y="0" width="2048" height="2048" stroke="#888" stroke-width="14" stroke-dasharray="none"/>
    <line x1="1024" y1="0" x2="1024" y2="2048"/>
    <line x1="0" y1="1024" x2="2048" y2="1024"/>
    </g>
  <g class="outline" fill="#ccc"><path d="M 719 1304 Q 737 1316 751.5 1326 Q 766 1336 820.5 1381.5 Q 875 1427 892 1461.5 Q 909 1496 910.5 1529.5 Q 912 1563 903.5 1584.5 Q 895 1606 879.5 1612.5 Q 864 1619 845.5 1610 Q 827 1601 815 1588 Q 803 1575 776.5 1540 Q 750 1505 693 1438 L 656 1395 L 592 1326 Q 576 1312 568 1304 L 490 1241 Q 457 1215 446 1207 L 415 1188 Q 403 1181 395 1167.5 Q 387 1154 389 1138 Q 389 1130 398 1109 Q 407 1088 415 1057 L 426 1013 L 436 974 L 458 887 Q 466 854 474.5 817 Q 483 780 492.5 723.5 Q 502 667 505.5 631 Q 509 595 514.5 519 Q 520 443 518 411 L 512 353 Q 508 319 499.5 294.5 Q 491 270 496 260.5 Q 501 251 515 247 Q 526 244 553.5 254.5 Q 581 265 597.5 275 Q 614 285 640.5 303.5 Q 667 322 680 338.5 Q 693 355 693 369 Q 692 378 679.5 401 Q 667 424 657 458.5 Q 647 493 630 563 Q 613 633 610 645 L 546 871 L 523 953 L 484 1088 Q 468 1141 471.5 1151 Q 475 1161 501 1173 L 535 1190 L 579 1216 L 639 1252 L 719 1304 Z"/><path d="M 762 829 Q 765 807 765.5 793 Q 766 779 762 751 Q 757 726 749 703.5 Q 741 681 745.5 672.5 Q 750 664 763 660 Q 777 656 808 665 Q 839 674 855.5 681 Q 872 688 895 706 Q 918 724 921 740 Q 923 753 910 781 L 899 805 L 879 867 Q 869 906 858.5 948 Q 848 990 830.5 1046.5 Q 813 1103 787.5 1167.5 Q 762 1232 737 1274 L 719 1304 L 656 1395 Q 637 1418 623.5 1433 Q 610 1448 579 1476.5 Q 548 1505 499 1538.5 Q 450 1572 405 1595 Q 360 1618 308 1633 L 235 1655 Q 217 1661 214 1651 Q 211 1641 220 1635 L 286 1597 Q 327 1573 371.5 1540.5 Q 416 1508 458 1471.5 Q 500 1435 529.5 1403.5 Q 559 1372 567 1361 L 592 1326 L 639 1252 Q 650 1234 664 1210 Q 678 1186 695.5 1141.5 Q 713 1097 731.5 1030 Q 750 963 754 932 L 759 896 L 762 829 Z"/><path d="M 899 805 L 952 796 Q 987 790 999 790.5 Q 1011 791 1017.5 801.5 Q 1024 812 1018 823 Q 1012 834 988 840 L 879 867 L 759 896 L 523 953 L 436 974 Q 416 980 392 987 Q 368 994 337.5 1005.5 Q 307 1017 278 1029.5 Q 249 1042 232.5 1044 Q 216 1046 192 1029 Q 186 1026 155 994 Q 124 962 119 948 Q 114 934 119 928 Q 124 922 138 921 Q 144 921 170.5 926.5 Q 197 932 218 929 L 246 924 L 283 920 L 458 887 L 546 871 L 762 829 L 899 805 Z"/><path d="M 1330 712 Q 1361 659 1399.5 592.5 Q 1438 526 1459.5 492.5 Q 1481 459 1484.5 437 Q 1488 415 1484 411 Q 1480 407 1475 405 Q 1468 404 1426 412 Q 1384 420 1375 422 L 1288 451 L 1199 477 Q 1154 491 1127 503.5 Q 1100 516 1091 517 Q 1076 520 1060.5 514 Q 1045 508 1022.5 495.5 Q 1000 483 990 471 Q 980 459 982 451 Q 983 444 1010 440 L 1060 434 Q 1081 432 1111 427.5 Q 1141 423 1166 416 L 1279 387 Q 1313 379 1341.5 368 Q 1370 357 1437 331.5 Q 1504 306 1528 306 Q 1547 307 1577.5 318.5 Q 1608 330 1633 345 Q 1658 360 1682.5 379.5 Q 1707 399 1712 412.5 Q 1717 426 1718.5 432.5 Q 1720 439 1697 456 L 1630 501 Q 1566 545 1521 591 L 1372 737 Q 1311 764.5 1330 712 Z"/><path d="M 1424 1024 Q 1426 1048 1428 1077.5 Q 1430 1107 1432.5 1221.5 Q 1435 1336 1435 1383 Q 1433 1452 1426.5 1538.5 Q 1420 1625 1407 1673.5 Q 1394 1722 1377.5 1747.5 Q 1361 1773 1340 1790.5 Q 1319 1808 1302 1804 Q 1289 1802 1272 1782 L 1228 1722 Q 1210 1698 1185.5 1672.5 Q 1161 1647 1127 1612 L 1102 1588 Q 1094 1581 1096.5 1573.5 Q 1099 1566 1116 1572 L 1146 1583 L 1213 1602 Q 1240 1610 1252 1607 Q 1267 1605 1280 1590.5 Q 1293 1576 1302 1542 Q 1311 1508 1314.5 1462.5 Q 1318 1417 1324 1292 Q 1330 1167 1330 1146 L 1328 1037 L 1321 952 Q 1317 921 1312.5 894.5 Q 1308 868 1297 837.5 Q 1286 807 1274.5 785 Q 1263 763 1255 754 L 1238 740 Q 1221 725 1223.5 716 Q 1226 707 1241 702 Q 1256 697 1268 698 L 1291 704 L 1330 712 L 1372 737 Q 1383 752 1390.5 765 Q 1398 778 1400 789.5 Q 1402 801 1405 826 L 1411 869 L 1416 937 L 1424 1024 Z"/><path d="M 1416 937 L 1671 892 L 1750 877 Q 1777 875 1808.5 882.5 Q 1840 890 1869.5 906.5 Q 1899 923 1914 940.5 Q 1929 958 1928 966 Q 1926 978 1915.5 982 Q 1905 986 1845 990 L 1424 1024 L 1328 1037 L 1154 1067 Q 1093 1078 1059 1087.5 Q 1025 1097 1011 1096 Q 994 1096 975 1089 Q 956 1082 928.5 1067.5 Q 901 1053 894 1042.5 Q 887 1032 890 1024 Q 892 1018 909.5 1013.5 Q 927 1009 952 1005 L 1321 952 L 1416 937 Z"/></g><g class="trace" fill="none" stroke="#c22" stroke-width="10" stroke-linecap="round" stroke-linejoin="round"><polyline points="603.00,293.00 593.44,346.08 584.03,399.95 574.70,454.22 565.38,508.49 555.97,562.36 546.41,615.44 536.61,667.34 526.50,717.66 516.00,766.00 499.00,826.94 477.59,887.53 454.79,946.57 433.62,1002.84 417.08,1055.14 408.20,1102.26 410.00,1143.00 432.72,1184.06 473.28,1209.51 524.48,1228.73 579.12,1251.10 630.00,1286.00 663.78,1320.62 698.39,1360.27 733.61,1403.59 769.21,1449.19 804.96,1495.71 840.63,1541.77 876.00,1586.00"/><polyline points="843.00,693.00 834.14,732.79 825.48,773.34 816.95,814.33 808.44,855.43 799.88,896.31 791.16,936.65 782.21,976.11 772.92,1014.38 763.21,1051.11 753.00,1086.00 739.64,1132.41 728.28,1175.50 716.95,1216.08 703.71,1254.99 686.60,1293.06 663.68,1331.12 633.00,1370.00 608.60,1395.07 580.58,1419.94 549.52,1444.65 515.99,1469.21 480.56,1493.67 443.80,1518.06 406.28,1542.41 368.57,1566.74 331.24,1591.10 294.86,1615.51 260.00,1640.00"/><polyline points="160.00,986.00 188.97,980.21 217.93,974.41 246.90,968.62 275.86,962.83 304.83,957.03 333.79,951.24 362.76,945.45 391.72,939.66 420.69,933.86 449.66,928.07 478.62,922.28 507.59,916.48 536.55,910.69 565.52,904.90 594.48,899.10 623.45,893.31 652.41,887.52 681.38,881.72 710.34,875.93 739.31,870.14 768.28,864.34 797.24,858.55 826.21,852.76 855.17,846.97 884.14,841.17 913.10,835.38 942.07,829.59 971.03,823.79 1000.00,818.00"/><polyline points="1033.00,480.00 1077.66,462.14 1123.98,443.59 1170.97,424.75 1217.62,406.06 1262.95,387.92 1305.95,370.76 1345.63,354.98 1381.00,341.00 1437.62,314.91 1481.06,291.62 1518.98,276.03 1559.00,273.00 1609.70,288.01 1664.81,317.06 1709.77,350.84 1730.00,380.00 1707.56,402.56 1649.78,422.44 1583.00,463.00 1558.38,487.72 1531.70,517.17 1503.43,550.25 1474.06,585.88 1444.06,622.95 1413.90,660.39 1384.05,697.10 1355.00,732.00"/><polyline points="1286.00,710.00 1299.25,753.38 1313.60,795.57 1328.22,837.45 1342.29,879.94 1354.99,923.92 1365.50,970.31 1373.00,1020.00 1376.62,1061.70 1378.70,1106.01 1379.44,1152.26 1379.02,1199.78 1377.63,1247.91 1375.44,1295.96 1372.65,1343.28 1369.44,1389.18 1366.00,1433.00 1361.72,1491.34 1357.39,1554.12 1352.30,1617.08 1345.74,1676.00 1336.98,1726.62 1325.30,1764.70 1310.00,1786.00 1280.98,1782.48 1244.63,1748.44 1204.09,1696.96 1162.50,1641.12 1123.00,1594.00"/><polyline points="930.00,1053.00 961.55,1048.59 993.10,1044.17 1024.66,1039.76 1056.21,1035.34 1087.76,1030.93 1119.31,1026.52 1150.86,1022.10 1182.41,1017.69 1213.97,1013.28 1245.52,1008.86 1277.07,1004.45 1308.62,1000.03 1340.17,995.62 1371.72,991.21 1403.28,986.79 1434.83,982.38 1466.38,977.97 1497.93,973.55 1529.48,969.14 1561.03,964.72 1592.59,960.31 1624.14,955.90 1655.69,951.48 1687.24,947.07 1718.79,942.66 1750.34,938.24 1781.90,933.83 1813.45,929.41 1845.00,925.00"/></g>
</g>
<g transform="translate(4096,2048)">
  <g class="guides" stroke="#bbbbbb" stroke-width="12" fill="none" stroke-dasharray="40 30">
    <rect x="0" y="0" width="2048" height="2048" stroke="#888" stroke-width="14" stroke-dasharray="none"/>
    <line x1="1024" y1="0" x2="1024" y2="2048"/>
    <line x1="0" y1="1024" x2="2048" y2="1024"/>
    </g>
  <g class="ghost" fill="#e0e0e0"><path d="M 719 1304 Q 737 1316 751.5 1326 Q 766 1336 820.5 1381.5 Q 875 1427 892 1461.5 Q 909 1496 910.5 1529.5 Q 912 1563 903.5 1584.5 Q 895 1606 879.5 1612.5 Q 864 1619 845.5 1610 Q 827 1601 815 1588 Q 803 1575 776.5 1540 Q 750 1505 693 1438 L 656 1395 L 592 1326 Q 576 1312 568 1304 L 490 1241 Q 457 1215 446 1207 L 415 1188 Q 403 1181 395 1167.5 Q 387 1154 389 1138 Q 389 1130 398 1109 Q 407 1088 415 1057 L 426 1013 L 436 974 L 458 887 Q 466 854 474.5 817 Q 483 780 492.5 723.5 Q 502 667 505.5 631 Q 509 595 514.5 519 Q 520 443 518 411 L 512 353 Q 508 319 499.5 294.5 Q 491 270 496 260.5 Q 501 251 515 247 Q 526 244 553.5 254.5 Q 581 265 597.5 275 Q 614 285 640.5 303.5 Q 667 322 680 338.5 Q 693 355 693 369 Q 692 378 679.5 401 Q 667 424 657 458.5 Q 647 493 630 563 Q 613 633 610 645 L 546 871 L 523 953 L 484 1088 Q 468 1141 471.5 1151 Q 475 1161 501 1173 L 535 1190 L 579 1216 L 639 1252 L 719 1304 Z"/><path d="M 762 829 Q 765 807 765.5 793 Q 766 779 762 751 Q 757 726 749 703.5 Q 741 681 745.5 672.5 Q 750 664 763 660 Q 777 656 808 665 Q 839 674 855.5 681 Q 872 688 895 706 Q 918 724 921 740 Q 923 753 910 781 L 899 805 L 879 867 Q 869 906 858.5 948 Q 848 990 830.5 1046.5 Q 813 1103 787.5 1167.5 Q 762 1232 737 1274 L 719 1304 L 656 1395 Q 637 1418 623.5 1433 Q 610 1448 579 1476.5 Q 548 1505 499 1538.5 Q 450 1572 405 1595 Q 360 1618 308 1633 L 235 1655 Q 217 1661 214 1651 Q 211 1641 220 1635 L 286 1597 Q 327 1573 371.5 1540.5 Q 416 1508 458 1471.5 Q 500 1435 529.5 1403.5 Q 559 1372 567 1361 L 592 1326 L 639 1252 Q 650 1234 664 1210 Q 678 1186 695.5 1141.5 Q 713 1097 731.5 1030 Q 750 963 754 932 L 759 896 L 762 829 Z"/><path d="M 899 805 L 952 796 Q 987 790 999 790.5 Q 1011 791 1017.5 801.5 Q 1024 812 1018 823 Q 1012 834 988 840 L 879 867 L 759 896 L 523 953 L 436 974 Q 416 980 392 987 Q 368 994 337.5 1005.5 Q 307 1017 278 1029.5 Q 249 1042 232.5 1044 Q 216 1046 192 1029 Q 186 1026 155 994 Q 124 962 119 948 Q 114 934 119 928 Q 124 922 138 921 Q 144 921 170.5 926.5 Q 197 932 218 929 L 246 924 L 283 920 L 458 887 L 546 871 L 762 829 L 899 805 Z"/><path d="M 1330 712 Q 1361 659 1399.5 592.5 Q 1438 526 1459.5 492.5 Q 1481 459 1484.5 437 Q 1488 415 1484 411 Q 1480 407 1475 405 Q 1468 404 1426 412 Q 1384 420 1375 422 L 1288 451 L 1199 477 Q 1154 491 1127 503.5 Q 1100 516 1091 517 Q 1076 520 1060.5 514 Q 1045 508 1022.5 495.5 Q 1000 483 990 471 Q 980 459 982 451 Q 983 444 1010 440 L 1060 434 Q 1081 432 1111 427.5 Q 1141 423 1166 416 L 1279 387 Q 1313 379 1341.5 368 Q 1370 357 1437 331.5 Q 1504 306 1528 306 Q 1547 307 1577.5 318.5 Q 1608 330 1633 345 Q 1658 360 1682.5 379.5 Q 1707 399 1712 412.5 Q 1717 426 1718.5 432.5 Q 1720 439 1697 456 L 1630 501 Q 1566 545 1521 591 L 1372 737 Q 1311 764.5 1330 712 Z"/><path d="M 1424 1024 Q 1426 1048 1428 1077.5 Q 1430 1107 1432.5 1221.5 Q 1435 1336 1435 1383 Q 1433 1452 1426.5 1538.5 Q 1420 1625 1407 1673.5 Q 1394 1722 1377.5 1747.5 Q 1361 1773 1340 1790.5 Q 1319 1808 1302 1804 Q 1289 1802 1272 1782 L 1228 1722 Q 1210 1698 1185.5 1672.5 Q 1161 1647 1127 1612 L 1102 1588 Q 1094 1581 1096.5 1573.5 Q 1099 1566 1116 1572 L 1146 1583 L 1213 1602 Q 1240 1610 1252 1607 Q 1267 1605 1280 1590.5 Q 1293 1576 1302 1542 Q 1311 1508 1314.5 1462.5 Q 1318 1417 1324 1292 Q 1330 1167 1330 1146 L 1328 1037 L 1321 952 Q 1317 921 1312.5 894.5 Q 1308 868 1297 837.5 Q 1286 807 1274.5 785 Q 1263 763 1255 754 L 1238 740 Q 1221 725 1223.5 716 Q 1226 707 1241 702 Q 1256 697 1268 698 L 1291 704 L 1330 712 L 1372 737 Q 1383 752 1390.5 765 Q 1398 778 1400 789.5 Q 1402 801 1405 826 L 1411 869 L 1416 937 L 1424 1024 Z"/><path d="M 1416 937 L 1671 892 L 1750 877 Q 1777 875 1808.5 882.5 Q 1840 890 1869.5 906.5 Q 1899 923 1914 940.5 Q 1929 958 1928 966 Q 1926 978 1915.5 982 Q 1905 986 1845 990 L 1424 1024 L 1328 1037 L 1154 1067 Q 1093 1078 1059 1087.5 Q 1025 1097 1011 1096 Q 994 1096 975 1089 Q 956 1082 928.5 1067.5 Q 901 1053 894 1042.5 Q 887 1032 890 1024 Q 892 1018 909.5 1013.5 Q 927 1009 952 1005 L 1321 952 L 1416 937 Z"/></g>
</g>
<g transform="translate(6144,2048)">
  <g class="guides" stroke="#bbbbbb" stroke-width="12" fill="none" stroke-dasharray="40 30">
    <rect x="0" y="0" width="2048" height="2048" stroke="#888" stroke-width="14" stroke-dasharray="none"/>
    <line x1="1024" y1="0" x2="1024" y2="2048"/>
    <line x1="0" y1="1024" x2="2048" y2="1024"/>
    </g>
  <g class="ghost" fill="#e0e0e0"><path d="M 719 1304 Q 737 1316 751.5 1326 Q 766 1336 820.5 1381.5 Q 875 1427 892 1461.5 Q 909 1496 910.5 1529.5 Q 912 1563 903.5 1584.5 Q 895 1606 879.5 1612.5 Q 864 1619 845.5 1610 Q 827 1601 815 1588 Q 803 1575 776.5 1540 Q 750 1505 693 1438 L 656 1395 L 592 1326 Q 576 1312 568 1304 L 490 1241 Q 457 1215 446 1207 L 415 1188 Q 403 1181 395 1167.5 Q 387 1154 389 1138 Q 389 1130 398 1109 Q 407 1088 415 1057 L 426 1013 L 436 974 L 458 887 Q 466 854 474.5 817 Q 483 780 492.5 723.5 Q 502 667 505.5 631 Q 509 595 514.5 519 Q 520 443 518 411 L 512 353 Q 508 319 499.5 294.5 Q 491 270 496 260.5 Q 501 251 515 247 Q 526 244 553.5 254.5 Q 581 265 597.5 275 Q 614 285 640.5 303.5 Q 667 322 680 338.5 Q 693 355 693 369 Q 692 378 679.5 401 Q 667 424 657 458.5 Q 647 493 630 563 Q 613 633 610 645 L 546 871 L 523 953 L 484 1088 Q 468 1141 471.5 1151 Q 475 1161 501 1173 L 535 1190 L 579 1216 L 639 1252 L 719 1304 Z"/><path d="M 762 829 Q 765 807 765.5 793 Q 766 779 762 751 Q 757 726 749 703.5 Q 741 681 745.5 672.5 Q 750 664 763 660 Q 777 656 808 665 Q 839 674 855.5 681 Q 872 688 895 706 Q 918 724 921 740 Q 923 753 910 781 L 899 805 L 879 867 Q 869 906 858.5 948 Q 848 990 830.5 1046.5 Q 813 1103 787.5 1167.5 Q 762 1232 737 1274 L 719 1304 L 656 1395 Q 637 1418 623.5 1433 Q 610 1448 579 1476.5 Q 548 1505 499 1538.5 Q 450 1572 405 1595 Q 360 1618 308 1633 L 235 1655 Q 217 1661 214 1651 Q 211 1641 220 1635 L 286 1597 Q 327 1573 371.5 1540.5 Q 416 1508 458 1471.5 Q 500 1435 529.5 1403.5 Q 559 1372 567 1361 L 592 1326 L 639 1252 Q 650 1234 664 1210 Q 678 1186 695.5 1141.5 Q 713 1097 731.5 1030 Q 750 963 754 932 L 759 896 L 762 829 Z"/><path d="M 899 805 L 952 796 Q 987 790 999 790.5 Q 1011 791 1017.5 801.5 Q 1024 812 1018 823 Q 1012 834 988 840 L 879 867 L 759 896 L 523 953 L 436 974 Q 416 980 392 987 Q 368 994 337.5 1005.5 Q 307 1017 278 1029.5 Q 249 1042 232.5 1044 Q 216 1046 192 1029 Q 186 1026 155 994 Q 124 962 119 948 Q 114 934 119 928 Q 124 922 138 921 Q 144 921 170.5 926.5 Q 197 932 218 929 L 246 924 L 283 920 L 458 887 L 546 871 L 762 829 L 899 805 Z"/><path d="M 1330 712 Q 1361 659 1399.5 592.5 Q 1438 526 1459.5 492.5 Q 1481 459 1484.5 437 Q 1488 415 1484 411 Q 1480 407 1475 405 Q 1468 404 1426 412 Q 1384 420 1375 422 L 1288 451 L 1199 477 Q 1154 491 1127 503.5 Q 1100 516 1091 517 Q 1076 520 1060.5 514 Q 1045 508 1022.5 495.5 Q 1000 483 990 471 Q 980 459 982 451 Q 983 444 1010 440 L 1060 434 Q 1081 432 1111 427.5 Q 1141 423 1166 416 L 1279 387 Q 1313 379 1341.5 368 Q 1370 357 1437 331.5 Q 1504 306 1528 306 Q 1547 307 1577.5 318.5 Q 1608 330 1633 345 Q 1658 360 1682.5 379.5 Q 1707 399 1712 412.5 Q 1717 426 1718.5 432.5 Q 1720 439 1697 456 L 1630 501 Q 1566 545 1521 591 L 1372 737 Q 1311 764.5 1330 712 Z"/><path d="M 1424 1024 Q 1426 1048 1428 1077.5 Q 1430 1107 1432.5 1221.5 Q 1435 1336 1435 1383 Q 1433 1452 1426.5 1538.5 Q 1420 1625 1407 1673.5 Q 1394 1722 1377.5 1747.5 Q 1361 1773 1340 1790.5 Q 1319 1808 1302 1804 Q 1289 1802 1272 1782 L 1228 1722 Q 1210 1698 1185.5 1672.5 Q 1161 1647 1127 1612 L 1102 1588 Q 1094 1581 1096.5 1573.5 Q 1099 1566 1116 1572 L 1146 1583 L 1213 1602 Q 1240 1610 1252 1607 Q 1267 1605 1280 1590.5 Q 1293 1576 1302 1542 Q 1311 1508 1314.5 1462.5 Q 1318 1417 1324 1292 Q 1330 1167 1330 1146 L 1328 1037 L 1321 952 Q 1317 921 1312.5 894.5 Q 1308 868 1297 837.5 Q 1286 807 1274.5 785 Q 1263 763 1255 754 L 1238 740 Q 1221 725 1223.5 716 Q 1226 707 1241 702 Q 1256 697 1268 698 L 1291 704 L 1330 712 L 1372 737 Q 1383 752 1390.5 765 Q 1398 778 1400 789.5 Q 1402 801 1405 826 L 1411 869 L 1416 937 L 1424 1024 Z"/><path d="M 1416 937 L 1671 892 L 1750 877 Q 1777 875 1808.5 882.5 Q 1840 890 1869.5 906.5 Q 1899 923 1914 940.5 Q 1929 958 1928 966 Q 1926 978 1915.5 982 Q 1905 986 1845 990 L 1424 1024 L 1328 1037 L 1154 1067 Q 1093 1078 1059 1087.5 Q 1025 1097 1011 1096 Q 994 1096 975 1089 Q 956 1082 928.5 1067.5 Q 901 1053 894 1042.5 Q 887 1032 890 1024 Q 892 1018 909.5 1013.5 Q 927 1009 952 1005 L 1321 952 L 1416 937 Z"/></g>
</g>
<g transform="translate(0,4096)">
  <g class="guides" stroke="#bbbbbb" stroke-width="12" fill="none" stroke-dasharray="40 30">
    <rect x="0" y="0" width="2048" height="2048" stroke="#888" stroke-width="14" stroke-dasharray="none"/>
    <line x1="1024" y1="0" x2="1024" y2="2048"/>
    <line x1="0" y1="1024" x2="2048" y2="1024"/>
    </g>
  
</g>
<g transform="translate(2048,4096)">
  <g class="guides" stroke="#bbbbbb" stroke-width="12" fill="none" stroke-dasharray="40 30">
    <rect x="0" y="0" width="2048" height="2048" stroke="#888" stroke-width="14" stroke-dasharray="none"/>
    <line x1="1024" y1="0" x2="1024" y2="2048"/>
    <line x1="0" y1="1024" x2="2048" y2="1024"/>
    </g>
  
</g>
<g transform="translate(4096,4096)">
  <g class="guides" stroke="#bbbbbb" stroke-width="12" fill="none" stroke-dasharray="40 30">
    <rect x="0" y="0" width="2048" height="2048" stroke="#888" stroke-width="14" stroke-dasharray="none"/>
    <line x1="1024" y1="0" x2="1024" y2="2048"/>
    <line x1="0" y1="1024" x2="2048" y2="1024"/>
    </g>
  <g class="outline" fill="#ccc"><path d="M 606 884 L 934 855 L 1050 845 L 1327 821 L 1457 814 L 1588 802 Q 1656 796 1668 794 L 1734 782 Q 1763 777 1782 778 Q 1807 780 1836 792 Q 1865 804 1891 819 Q 1917 834 1938.5 850.5 Q 1960 867 1968 885.5 Q 1976 904 1972 917 Q 1968 930 1923 927 L 1853 923 L 1741 915 Q 1678 912 1648 911 L 1441 909 L 1318 916 L 1050 932 L 937 941 L 606 977 L 502 996 Q 423 1009 374.5 1017 Q 326 1025 285 1037 Q 244 1049 229 1048 Q 210 1048 195.5 1042 Q 181 1036 138.5 1011.5 Q 96 987 85 975 Q 74 963 74 953 Q 74 946 81.5 937 Q 89 928 120 926 L 199 924 L 322 913 L 500 898 L 606 884 Z"/><path d="M 934 855 L 919 568 Q 916 524 909 485.5 Q 902 447 886.5 420 Q 871 393 870.5 379.5 Q 870 366 879 359 Q 888 352 910 352 Q 939 353 955 355 Q 971 357 1003 367 Q 1035 377 1050.5 390 Q 1066 403 1068 415.5 Q 1070 428 1059 463 Q 1053 481 1046.5 536.5 Q 1040 592 1042 622 L 1050 845 L 1050 932 L 1047 1259 L 1046 1331 Q 1039 1352 1034 1363 Q 1029 1374 1022 1380.5 Q 1015 1387 1001.5 1387.5 Q 988 1388 973 1364 Q 962 1348 954 1311.5 Q 946 1275 945 1225 L 937 941 L 934 855 Z"/><path d="M 1327 821 L 1352 509 Q 1355 464 1355.5 440.5 Q 1356 417 1354 388 Q 1351 357 1339.5 329 Q 1328 301 1332.5 289.5 Q 1337 278 1357 271 Q 1371 267 1395 273.5 Q 1419 280 1447 290.5 Q 1475 301 1511.5 323.5 Q 1548 346 1549 364.5 Q 1550 383 1543 399 L 1521 437 Q 1514 450 1507 477.5 Q 1500 505 1491 570 L 1457 814 L 1441 909 L 1385 1249 Q 1295 1326 1285 1223 L 1318 916 L 1327 821 Z"/><path d="M 1385 1249 Q 1395 1258 1407.5 1273 Q 1420 1288 1412 1299 Q 1408 1304 1394.5 1307.5 Q 1381 1311 1329 1311 L 1229 1319 L 1046 1331 L 1047 1259 Q 1096 1255 1128 1250.5 Q 1160 1246 1202.5 1237 Q 1245 1228 1248 1227 L 1285 1223 L 1385 1249 Z"/><path d="M 500 898 L 492 776 Q 490 746 486.5 731.5 Q 483 717 470.5 667.5 Q 458 618 443.5 599 Q 429 580 428 570.5 Q 427 561 435.5 553.5 Q 444 546 461 544 Q 481 543 502 547 Q 523 551 565 562.5 Q 607 574 619.5 591 Q 632 608 632 625 Q 631 634 624.5 656.5 Q 618 679 614 703.5 Q 610 728 610 753 L 606 884 L 606 977 L 611 1553 Q 611 1589 614 1605.5 Q 617 1622 626 1627 Q 635 1632 648 1630.5 Q 661 1629 683 1627 L 1304 1572 Q 1375 1566 1436.5 1558 Q 1498 1550 1526 1550 Q 1564 1551 1599.5 1560 Q 1635 1569 1662 1587.5 Q 1689 1606 1702.5 1624.5 Q 1716 1643 1716 1654 Q 1715 1661 1710.5 1667.5 Q 1706 1674 1692 1678.5 Q 1678 1683 1658 1684 Q 1637 1686 1564 1682 L 1419 1678 L 1290 1671 Q 1264 1671 1136 1676.5 Q 1008 1682 996 1682 L 859 1693 Q 856 1694 778.5 1704.5 Q 701 1715 684.5 1719.5 Q 668 1724 635 1738.5 Q 602 1753 585 1765 Q 568 1777 556 1779.5 Q 544 1782 522 1763 Q 509 1753 493.5 1733 Q 478 1713 470 1697 Q 462 1681 465 1663 Q 465 1658 479.5 1628.5 Q 494 1599 498 1569.5 Q 502 1540 506 1479 Q 510 1418 510 1385 L 502 996 L 500 898 Z"/></g><g class="trace" fill="none" stroke="#c22" stroke-width="10" stroke-linecap="round" stroke-linejoin="round"><polyline points="140.00,1006.00 207.56,995.35 273.59,984.52 339.62,973.69 407.19,963.04 477.80,952.75 553.00,943.00 613.49,936.01 677.33,929.19 743.53,922.55 811.12,916.12 879.14,909.93 946.61,904.00 1012.55,898.35 1076.00,893.00 1146.24,887.17 1215.46,881.57 1283.58,876.30 1350.48,871.43 1416.09,867.04 1480.29,863.20 1543.00,860.00 1613.54,857.33 1681.30,855.74 1747.19,854.88 1812.15,854.37 1877.11,853.87 1943.00,853.00"/><polyline points="966.00,370.00 968.93,404.51 972.03,438.23 975.23,471.41 978.48,504.33 981.74,537.25 984.94,570.44 988.03,604.15 990.96,638.67 993.68,674.24 996.13,711.15 998.25,749.64 1000.00,790.00 1000.98,819.72 1001.77,850.40 1002.38,881.96 1002.84,914.30 1003.15,947.32 1003.35,980.93 1003.44,1015.04 1003.46,1049.56 1003.41,1084.38 1003.31,1119.43 1003.19,1154.60 1003.06,1189.80 1002.95,1224.94 1002.87,1259.92 1002.84,1294.65 1002.87,1329.04 1003.00,1363.00"/><polyline points="1450.00,306.00 1445.99,338.07 1441.95,370.25 1437.90,402.53 1433.84,434.86 1429.78,467.22 1425.71,499.58 1421.65,531.92 1417.60,564.19 1413.57,596.38 1409.56,628.44 1405.57,660.37 1401.62,692.11 1397.70,723.65 1393.83,754.96 1390.00,786.00 1385.96,818.94 1381.97,851.59 1378.03,883.97 1374.13,916.12 1370.27,948.08 1366.44,979.88 1362.62,1011.56 1358.83,1043.16 1355.04,1074.71 1351.25,1106.25 1347.46,1137.81 1343.66,1169.43 1339.84,1201.15 1336.00,1233.00"/><polyline points="1073.00,1293.00 1082.76,1291.52 1092.52,1290.03 1102.28,1288.55 1112.03,1287.07 1121.79,1285.59 1131.55,1284.10 1141.31,1282.62 1151.07,1281.14 1160.83,1279.66 1170.59,1278.17 1180.34,1276.69 1190.10,1275.21 1199.86,1273.72 1209.62,1272.24 1219.38,1270.76 1229.14,1269.28 1238.90,1267.79 1248.66,1266.31 1258.41,1264.83 1268.17,1263.34 1277.93,1261.86 1287.69,1260.38 1297.45,1258.90 1307.21,1257.41 1316.97,1255.93 1326.72,1254.45 1336.48,1252.97 1346.24,1251.48 1356.00,1250.00"/><polyline points="510.00,563.00 517.89,646.96 525.78,730.93 533.00,833.00 537.33,909.90 541.86,996.67 545.94,1088.29 548.87,1179.74 550.00,1266.00 547.75,1351.26 542.58,1438.85 536.82,1522.51 532.85,1595.98 533.00,1653.00 544.00,1719.88 580.00,1733.00 646.31,1719.25 763.00,1690.00 836.02,1681.20 924.11,1672.28 1020.69,1663.36 1119.18,1654.56 1213.00,1646.00 1302.05,1637.74 1390.70,1629.71 1479.14,1621.81 1567.51,1613.94 1656.00,1606.00"/></g>
</g>
<g transform="translate(6144,4096)">
  <g class="guides" stroke="#bbbbbb" stroke-width="12" fill="none" stroke-dasharray="40 30">
    <rect x="0" y="0" width="2048" height="2048" stroke="#888" stroke-width="14" stroke-dasharray="none"/>
    <line x1="1024" y1="0" x2="1024" y2="2048"/>
    <line x1="0" y1="1024" x2="2048" y2="1024"/>
    </g>
  <g class="ghost" fill="#e0e0e0"><path d="M 606 884 L 934 855 L 1050 845 L 1327 821 L 1457 814 L 1588 802 Q 1656 796 1668 794 L 1734 782 Q 1763 777 1782 778 Q 1807 780 1836 792 Q 1865 804 1891 819 Q 1917 834 1938.5 850.5 Q 1960 867 1968 885.5 Q 1976 904 1972 917 Q 1968 930 1923 927 L 1853 923 L 1741 915 Q 1678 912 1648 911 L 1441 909 L 1318 916 L 1050 932 L 937 941 L 606 977 L 502 996 Q 423 1009 374.5 1017 Q 326 1025 285 1037 Q 244 1049 229 1048 Q 210 1048 195.5 1042 Q 181 1036 138.5 1011.5 Q 96 987 85 975 Q 74 963 74 953 Q 74 946 81.5 937 Q 89 928 120 926 L 199 924 L 322 913 L 500 898 L 606 884 Z"/><path d="M 934 855 L 919 568 Q 916 524 909 485.5 Q 902 447 886.5 420 Q 871 393 870.5 379.5 Q 870 366 879 359 Q 888 352 910 352 Q 939 353 955 355 Q 971 357 1003 367 Q 1035 377 1050.5 390 Q 1066 403 1068 415.5 Q 1070 428 1059 463 Q 1053 481 1046.5 536.5 Q 1040 592 1042 622 L 1050 845 L 1050 932 L 1047 1259 L 1046 1331 Q 1039 1352 1034 1363 Q 1029 1374 1022 1380.5 Q 1015 1387 1001.5 1387.5 Q 988 1388 973 1364 Q 962 1348 954 1311.5 Q 946 1275 945 1225 L 937 941 L 934 855 Z"/><path d="M 1327 821 L 1352 509 Q 1355 464 1355.5 440.5 Q 1356 417 1354 388 Q 1351 357 1339.5 329 Q 1328 301 1332.5 289.5 Q 1337 278 1357 271 Q 1371 267 1395 273.5 Q 1419 280 1447 290.5 Q 1475 301 1511.5 323.5 Q 1548 346 1549 364.5 Q 1550 383 1543 399 L 1521 437 Q 1514 450 1507 477.5 Q 1500 505 1491 570 L 1457 814 L 1441 909 L 1385 1249 Q 1295 1326 1285 1223 L 1318 916 L 1327 821 Z"/><path d="M 1385 1249 Q 1395 1258 1407.5 1273 Q 1420 1288 1412 1299 Q 1408 1304 1394.5 1307.5 Q 1381 1311 1329 1311 L 1229 1319 L 1046 1331 L 1047 1259 Q 1096 1255 1128 1250.5 Q 1160 1246 1202.5 1237 Q 1245 1228 1248 1227 L 1285 1223 L 1385 1249 Z"/><path d="M 500 898 L 492 776 Q 490 746 486.5 731.5 Q 483 717 470.5 667.5 Q 458 618 443.5 599 Q 429 580 428 570.5 Q 427 561 435.5 553.5 Q 444 546 461 544 Q 481 543 502 547 Q 523 551 565 562.5 Q 607 574 619.5 591 Q 632 608 632 625 Q 631 634 624.5 656.5 Q 618 679 614 703.5 Q 610 728 610 753 L 606 884 L 606 977 L 611 1553 Q 611 1589 614 1605.5 Q 617 1622 626 1627 Q 635 1632 648 1630.5 Q 661 1629 683 1627 L 1304 1572 Q 1375 1566 1436.5 1558 Q 1498 1550 1526 1550 Q 1564 1551 1599.5 1560 Q 1635 1569 1662 1587.5 Q 1689 1606 1702.5 1624.5 Q 1716 1643 1716 1654 Q 1715 1661 1710.5 1667.5 Q 1706 1674 1692 1678.5 Q 1678 1683 1658 1684 Q 1637 1686 1564 1682 L 1419 1678 L 1290 1671 Q 1264 1671 1136 1676.5 Q 1008 1682 996 1682 L 859 1693 Q 856 1694 778.5 1704.5 Q 701 1715 684.5 1719.5 Q 668 1724 635 1738.5 Q 602 1753 585 1765 Q 568 1777 556 1779.5 Q 544 1782 522 1763 Q 509 1753 493.5 1733 Q 478 1713 470 1697 Q 462 1681 465 1663 Q 465 1658 479.5 1628.5 Q 494 1599 498 1569.5 Q 502 1540 506 1479 Q 510 1418 510 1385 L 502 996 L 500 898 Z"/></g>
</g>
<g transform="translate(0,6144)">
  <g class="guides" stroke="#bbbbbb" stroke-width="12" fill="none" stroke-dasharray="40 30">
    <rect x="0" y="0" width="2048" height="2048" stroke="#888" stroke-width="14" stroke-dasharray="none"/>
    <line x1="1024" y1="0" x2="1024" y2="2048"/>
    <line x1="0" y1="1024" x2="2048" y2="1024"/>
    </g>
  <g class="ghost" fill="#e0e0e0"><path d="M 606 884 L 934 855 L 1050 845 L 1327 821 L 1457 814 L 1588 802 Q 1656 796 1668 794 L 1734 782 Q 1763 777 1782 778 Q 1807 780 1836 792 Q 1865 804 1891 819 Q 1917 834 1938.5 850.5 Q 1960 867 1968 885.5 Q 1976 904 1972 917 Q 1968 930 1923 927 L 1853 923 L 1741 915 Q 1678 912 1648 911 L 1441 909 L 1318 916 L 1050 932 L 937 941 L 606 977 L 502 996 Q 423 1009 374.5 1017 Q 326 1025 285 1037 Q 244 1049 229 1048 Q 210 1048 195.5 1042 Q 181 1036 138.5 1011.5 Q 96 987 85 975 Q 74 963 74 953 Q 74 946 81.5 937 Q 89 928 120 926 L 199 924 L 322 913 L 500 898 L 606 884 Z"/><path d="M 934 855 L 919 568 Q 916 524 909 485.5 Q 902 447 886.5 420 Q 871 393 870.5 379.5 Q 870 366 879 359 Q 888 352 910 352 Q 939 353 955 355 Q 971 357 1003 367 Q 1035 377 1050.5 390 Q 1066 403 1068 415.5 Q 1070 428 1059 463 Q 1053 481 1046.5 536.5 Q 1040 592 1042 622 L 1050 845 L 1050 932 L 1047 1259 L 1046 1331 Q 1039 1352 1034 1363 Q 1029 1374 1022 1380.5 Q 1015 1387 1001.5 1387.5 Q 988 1388 973 1364 Q 962 1348 954 1311.5 Q 946 1275 945 1225 L 937 941 L 934 855 Z"/><path d="M 1327 821 L 1352 509 Q 1355 464 1355.5 440.5 Q 1356 417 1354 388 Q 1351 357 1339.5 329 Q 1328 301 1332.5 289.5 Q 1337 278 1357 271 Q 1371 267 1395 273.5 Q 1419 280 1447 290.5 Q 1475 301 1511.5 323.5 Q 1548 346 1549 364.5 Q 1550 383 1543 399 L 1521 437 Q 1514 450 1507 477.5 Q 1500 505 1491 570 L 1457 814 L 1441 909 L 1385 1249 Q 1295 1326 1285 1223 L 1318 916 L 1327 821 Z"/><path d="M 1385 1249 Q 1395 1258 1407.5 1273 Q 1420 1288 1412 1299 Q 1408 1304 1394.5 1307.5 Q 1381 1311 1329 1311 L 1229 1319 L 1046 1331 L 1047 1259 Q 1096 1255 1128 1250.5 Q 1160 1246 1202.5 1237 Q 1245 1228 1248 1227 L 1285 1223 L 1385 1249 Z"/><path d="M 500 898 L 492 776 Q 490 746 486.5 731.5 Q 483 717 470.5 667.5 Q 458 618 443.5 599 Q 429 580 428 570.5 Q 427 561 435.5 553.5 Q 444 546 461 544 Q 481 543 502 547 Q 523 551 565 562.5 Q 607 574 619.5 591 Q 632 608 632 625 Q 631 634 624.5 656.5 Q 618 679 614 703.5 Q 610 728 610 753 L 606 884 L 606 977 L 611 1553 Q 611 1589 614 1605.5 Q 617 1622 626 1627 Q 635 1632 648 1630.5 Q 661 1629 683 1627 L 1304 1572 Q 1375 1566 1436.5 1558 Q 1498 1550 1526 1550 Q 1564 1551 1599.5 1560 Q 1635 1569 1662 1587.5 Q 1689 1606 1702.5 1624.5 Q 1716 1643 1716 1654 Q 1715 1661 1710.5 1667.5 Q 1706 1674 1692 1678.5 Q 1678 1683 1658 1684 Q 1637 1686 1564 1682 L 1419 1678 L 1290 1671 Q 1264 1671 1136 1676.5 Q 1008 1682 996 1682 L 859 1693 Q 856 1694 778.5 1704.5 Q 701 1715 684.5 1719.5 Q 668 1724 635 1738.5 Q 602 1753 585 1765 Q 568 1777 556 1779.5 Q 544 1782 522 1763 Q 509 1753 493.5 1733 Q 478 1713 470 1697 Q 462 1681 465 1663 Q 465 1658 479.5 1628.5 Q 494 1599 498 1569.5 Q 502 1540 506 1479 Q 510 1418 510 1385 L 502 996 L 500 898 Z"/></g>
</g>
<g transform="translate(2048,6144)">
  <g class="guides" stroke="#bbbbbb" stroke-width="12" fill="none" stroke-dasharray="40 30">
    <rect x="0" y="0" width="2048" height="2048" stroke="#888" stroke-width="14" stroke-dasharray="none"/>
    <line x1="1024" y1="0" x2="1024" y2="2048"/>
    <line x1="0" y1="1024" x2="2048" y2="1024"/>
    </g>
  
</g>
<g transform="translate(4096,6144)">
  <g class="guides" stroke="#bbbbbb" stroke-width="12" fill="none" stroke-dasharray="40 30">
    <rect x="0" y="0" width="2048" height="2048" stroke="#888" stroke-width="14" stroke-dasharray="none"/>
    <line x1="1024" y1="0" x2="1024" y2="2048"/>
    <line x1="0" y1="1024" x2="2048" y2="1024"/>
    </g>
  
</g>
<g transform="translate(6144,6144)">
  <g class="guides" stroke="#bbbbbb" stroke-width="12" fill="none" stroke-dasharray="40 30">
    <rect x="0" y="0" width="2048" height="2048" stroke="#888" stroke-width="14" stroke-dasharray="none"/>
    <line x1="1024" y1="0" x2="1024" y2="2048"/>
    <line x1="0" y1="1024" x2="2048" y2="1024"/>
    </g>
  <g class="outline" fill="#ccc"><path d="M 623 797 Q 620 815 613 825 Q 606 835 594 836.5 Q 582 838 565.5 818 Q 549 798 545 765 L 508 500 Q 500 444 490 402.5 Q 480 361 459 328 L 431 288 Q 419 269 423 260.5 Q 427 252 448 249 L 517 262 L 559 271 L 565 315 L 599 501 L 607 563 L 626 721 L 623 797 Z"/><path d="M 559 271 Q 645 265 704 259 Q 763 253 850 241 Q 937 229 998 217 L 1154 185 L 1234 169 Q 1291 157 1316 157 Q 1334 158 1351 161.5 Q 1368 165 1424 188 Q 1480 211 1502 231 Q 1524 251 1526 263.5 Q 1528 276 1502.5 313 Q 1477 350 1466 390 L 1374 711 Q 1352 787 1322 805.5 Q 1292 824 1288 811 L 1243 750 Q 1193.5 660.5 1256 687 Q 1281 596 1285 573 L 1300 490 L 1310 443 L 1321 310 Q 1323 286 1318.5 270 Q 1314 254 1308.5 249.5 Q 1303 245 1297 242.5 Q 1291 240 1238 246 L 936 282 L 832 299 Q 726 308 671 314 Q 616 320 604 318 L 565 315 L 559 271 Z"/><path d="M 599 501 Q 674 492 743 485 Q 812 478 815 477 L 876 469 L 982 452 Q 1012 446 1028 443 L 1096 431 Q 1171 418 1201 418 Q 1241 419 1269 429 L 1310 443 L 1300 490 Q 1258 497 1237.5 500.5 Q 1217 504 1135.5 516.5 Q 1054 529 1037 530 L 982 535 L 879 552 Q 786 565 730.5 570.5 Q 675 576 655 571 L 607 563 L 599 501 Z"/><path d="M 876 469 Q 871 426 865.5 382.5 Q 860 339 843 315 L 832 299 L 936 282 Q 964 295 976.5 301.5 Q 989 308 995.5 315 Q 1002 322 1004 338 L 990 402 L 982 452 L 982 535 L 974 691 Q 931 750 884 701 L 879 552 L 876 469 Z"/><path d="M 695 794 L 623 797 L 626 721 L 884 701 L 974 691 Q 1027 684 1077 677 Q 1127 670 1143.5 667.5 Q 1160 665 1179 666 Q 1205 668 1229 677 L 1256 687 L 1243 750 L 1126 755 L 1026 767 L 768 791 L 695 794 Z"/><path d="M 768 791 Q 800 814 817 827.5 Q 834 841 851.5 862 Q 869 883 864 895 Q 862 900 853 907.5 Q 844 915 826 936 L 779 983 Q 778 984 729 1040 Q 680 1096 612 1155.5 Q 544 1215 464.5 1269.5 Q 385 1324 294 1364.5 Q 203 1405 165 1415 L 135 1423 Q 121 1427 117.5 1415.5 Q 114 1404 124 1398 L 156 1381 Q 200 1358 280 1302.5 Q 360 1247 451.5 1164 Q 543 1081 580 1036.5 Q 617 992 643.5 951.5 Q 670 911 681 880.5 Q 692 850 694 817 L 695 794 L 768 791 Z"/><path d="M 1126 755 Q 1193 814 1227 844 L 1344 955 Q 1402 1011 1446.5 1045.5 Q 1491 1080 1538.5 1108.5 Q 1586 1137 1647.5 1168 Q 1709 1199 1769 1222 L 1903 1275 Q 1929 1286 1930.5 1294.5 Q 1932 1303 1929 1307 Q 1926 1311 1903 1316 L 1856 1328 Q 1848 1330 1753 1347 Q 1658 1364 1632 1362 Q 1597 1360 1569 1345.5 Q 1541 1331 1486.5 1273.5 Q 1432 1216 1403 1180 Q 1374 1144 1319 1074 Q 1264 1004 1198.5 923 Q 1133 842 1099 819 L 1026 767 L 1126 755 Z"/><path d="M 501 1781 L 517 1762 L 565 1709 Q 591 1678 618 1623.5 Q 645 1569 662.5 1518 Q 680 1467 685 1417 Q 690 1367 690 1333 Q 689 1299 685.5 1274 Q 682 1249 676 1228 Q 670 1207 660.5 1191 Q 651 1175 652 1167 Q 653 1159 664 1152.5 Q 675 1146 695 1147 Q 712 1149 743 1155.5 Q 774 1162 800.5 1178.5 Q 827 1195 828 1206 Q 829 1217 819 1242 Q 813 1256 808 1282 Q 803 1308 801 1319 Q 799 1330 789 1396.5 Q 779 1463 763 1514.5 Q 747 1566 721 1611 Q 695 1656 656.5 1696.5 Q 618 1737 582.5 1761 Q 547 1785 528 1792 L 508 1800 Q 501 1803 496.5 1797 Q 492 1791 501 1781 Z"/><path d="M 1127 1655 L 1131 1261 Q 1131 1228 1129 1208.5 Q 1127 1189 1122.5 1157 Q 1118 1125 1113.5 1110.5 Q 1109 1096 1109.5 1088 Q 1110 1080 1116.5 1073.5 Q 1123 1067 1146 1070 Q 1161 1073 1194.5 1085 Q 1228 1097 1245.5 1113.5 Q 1263 1130 1264 1140.5 Q 1265 1151 1258 1170 Q 1249 1193 1244.5 1214 Q 1240 1235 1238.5 1270 Q 1237 1305 1237 1331 L 1233 1503 L 1230 1592 Q 1227 1668 1220 1717 L 1209 1782 Q 1200 1834 1186.5 1864.5 Q 1173 1895 1162 1893 Q 1150 1892 1143.5 1870 Q 1137 1848 1136 1834 Q 1135 1820 1130.5 1760 Q 1126 1700 1127 1655 Z"/></g><g class="trace" fill="none" stroke="#c22" stroke-width="10" stroke-linecap="round" stroke-linejoin="round"><polyline points="517.00,272.00 520.49,290.59 524.01,308.88 527.57,326.96 531.14,344.91 534.72,362.84 538.29,380.83 541.83,398.97 545.35,417.35 548.82,436.06 552.23,455.19 555.57,474.83 558.83,495.07 562.00,516.00 564.50,533.56 566.93,551.59 569.31,570.04 571.63,588.86 573.91,608.00 576.16,627.42 578.37,647.06 580.56,666.88 582.73,686.82 584.90,706.85 587.05,726.91 589.21,746.95 591.38,766.93 593.56,786.80 595.77,806.50 598.00,826.00"/><polyline points="564.00,280.00 632.75,268.02 702.41,256.26 772.06,244.50 840.81,232.52 907.76,220.09 972.00,207.00 1048.09,188.21 1123.86,166.50 1195.90,145.30 1260.75,127.99 1315.00,118.00 1407.56,115.62 1450.00,155.00 1447.99,197.29 1430.19,252.94 1407.79,320.87 1392.00,400.00 1389.04,456.65 1389.13,525.82 1390.67,600.94 1392.10,675.47 1391.85,742.86 1388.34,796.55 1380.00,830.00 1341.26,827.11 1287.63,761.56 1234.00,696.00"/><polyline points="610.00,540.00 633.83,537.03 657.66,534.07 681.48,531.10 705.31,528.14 729.14,525.17 752.97,522.21 776.79,519.24 800.62,516.28 824.45,513.31 848.28,510.34 872.10,507.38 895.93,504.41 919.76,501.45 943.59,498.48 967.41,495.52 991.24,492.55 1015.07,489.59 1038.90,486.62 1062.72,483.66 1086.55,480.69 1110.38,477.72 1134.21,474.76 1158.03,471.79 1181.86,468.83 1205.69,465.86 1229.52,462.90 1253.34,459.93 1277.17,456.97 1301.00,454.00"/><polyline points="918.00,294.00 918.28,308.48 918.55,322.97 918.83,337.45 919.10,351.93 919.38,366.41 919.66,380.90 919.93,395.38 920.21,409.86 920.48,424.34 920.76,438.83 921.03,453.31 921.31,467.79 921.59,482.28 921.86,496.76 922.14,511.24 922.41,525.72 922.69,540.21 922.97,554.69 923.24,569.17 923.52,583.66 923.79,598.14 924.07,612.62 924.34,627.10 924.62,641.59 924.90,656.07 925.17,670.55 925.45,685.03 925.72,699.52 926.00,714.00"/><polyline points="631.00,756.00 652.14,754.34 673.28,752.69 694.41,751.03 715.55,749.38 736.69,747.72 757.83,746.07 778.97,744.41 800.10,742.76 821.24,741.10 842.38,739.45 863.52,737.79 884.66,736.14 905.79,734.48 926.93,732.83 948.07,731.17 969.21,729.52 990.34,727.86 1011.48,726.21 1032.62,724.55 1053.76,722.90 1074.90,721.24 1096.03,719.59 1117.17,717.93 1138.31,716.28 1159.45,714.62 1180.59,712.97 1201.72,711.31 1222.86,709.66 1244.00,708.00"/><polyline points="805.00,828.00 784.18,851.02 763.28,874.57 742.31,898.55 721.28,922.85 700.23,947.33 679.16,971.89 658.10,996.42 637.07,1020.78 616.07,1044.88 595.14,1068.59 574.30,1091.80 553.55,1114.39 532.93,1136.25 512.44,1157.25 492.11,1177.29 471.96,1196.24 452.00,1214.00 424.08,1236.99 396.54,1257.66 369.32,1276.36 342.37,1293.41 315.64,1309.14 289.06,1323.88 262.60,1337.95 236.19,1351.70 209.77,1365.45 183.31,1379.53 156.73,1394.27 130.00,1410.00"/><polyline points="1098.00,769.00 1123.33,794.17 1148.96,820.29 1174.84,847.18 1200.91,874.66 1227.11,902.57 1253.38,930.71 1279.68,958.91 1305.93,986.99 1332.10,1014.78 1358.11,1042.08 1383.91,1068.74 1409.45,1094.56 1434.66,1119.37 1459.50,1142.99 1483.90,1165.24 1507.80,1185.95 1531.16,1204.93 1553.91,1222.00 1576.00,1237.00 1616.07,1259.52 1653.92,1275.11 1689.96,1284.99 1724.56,1290.38 1758.12,1292.50 1791.04,1292.58 1823.70,1291.85 1856.48,1291.53 1889.78,1292.84 1924.00,1297.00"/><polyline points="765.00,1170.00 760.53,1194.17 756.30,1218.95 752.27,1244.20 748.38,1269.81 744.59,1295.66 740.85,1321.63 737.11,1347.60 733.32,1373.45 729.44,1399.06 725.40,1424.31 721.18,1449.09 716.70,1473.26 711.94,1496.71 706.83,1519.33 701.33,1540.98 695.39,1561.56 688.96,1580.94 682.00,1599.00 669.39,1625.57 655.42,1648.82 640.31,1669.26 624.27,1687.43 607.51,1703.85 590.26,1719.04 572.72,1733.53 555.11,1747.85 537.65,1762.51 520.54,1778.06 504.00,1795.00"/><polyline points="1176.00,1093.00 1175.80,1120.09 1175.61,1147.08 1175.43,1174.01 1175.26,1200.90 1175.09,1227.77 1174.92,1254.65 1174.75,1281.56 1174.57,1308.53 1174.37,1335.59 1174.15,1362.75 1173.91,1390.05 1173.64,1417.51 1173.34,1445.15 1173.00,1473.00 1172.65,1499.20 1172.27,1525.58 1171.86,1552.13 1171.42,1578.82 1170.96,1605.63 1170.49,1632.54 1170.00,1659.54 1169.50,1686.60 1168.99,1713.70 1168.48,1740.81 1167.97,1767.93 1167.46,1795.03 1166.96,1822.09 1166.47,1849.09 1166.00,1876.00"/></g>
</g>
<g transform="translate(0,8192)">
  <g class="guides" stroke="#bbbbbb" stroke-width="12" fill="none" stroke-dasharray="40 30">
    <rect x="0" y="0" width="2048" height="2048" stroke="#888" stroke-width="14" stroke-dasharray="none"/>
    <line x1="1024" y1="0" x2="1024" y2="2048"/>
    <line x1="0" y1="1024" x2="2048" y2="1024"/>
    </g>
  <g class="ghost" fill="#e0e0e0"><path d="M 623 797 Q 620 815 613 825 Q 606 835 594 836.5 Q 582 838 565.5 818 Q 549 798 545 765 L 508 500 Q 500 444 490 402.5 Q 480 361 459 328 L 431 288 Q 419 269 423 260.5 Q 427 252 448 249 L 517 262 L 559 271 L 565 315 L 599 501 L 607 563 L 626 721 L 623 797 Z"/><path d="M 559 271 Q 645 265 704 259 Q 763 253 850 241 Q 937 229 998 217 L 1154 185 L 1234 169 Q 1291 157 1316 157 Q 1334 158 1351 161.5 Q 1368 165 1424 188 Q 1480 211 1502 231 Q 1524 251 1526 263.5 Q 1528 276 1502.5 313 Q 1477 350 1466 390 L 1374 711 Q 1352 787 1322 805.5 Q 1292 824 1288 811 L 1243 750 Q 1193.5 660.5 1256 687 Q 1281 596 1285 573 L 1300 490 L 1310 443 L 1321 310 Q 1323 286 1318.5 270 Q 1314 254 1308.5 249.5 Q 1303 245 1297 242.5 Q 1291 240 1238 246 L 936 282 L 832 299 Q 726 308 671 314 Q 616 320 604 318 L 565 315 L 559 271 Z"/><path d="M 599 501 Q 674 492 743 485 Q 812 478 815 477 L 876 469 L 982 452 Q 1012 446 1028 443 L 1096 431 Q 1171 418 1201 418 Q 1241 419 1269 429 L 1310 443 L 1300 490 Q 1258 497 1237.5 500.5 Q 1217 504 1135.5 516.5 Q 1054 529 1037 530 L 982 535 L 879 552 Q 786 565 730.5 570.5 Q 675 576 655 571 L 607 563 L 599 501 Z"/><path d="M 876 469 Q 871 426 865.5 382.5 Q 860 339 843 315 L 832 299 L 936 282 Q 964 295 976.5 301.5 Q 989 308 995.5 315 Q 1002 322 1004 338 L 990 402 L 982 452 L 982 535 L 974 691 Q 931 750 884 701 L 879 552 L 876 469 Z"/><path d="M 695 794 L 623 797 L 626 721 L 884 701 L 974 691 Q 1027 684 1077 677 Q 1127 670 1143.5 667.5 Q 1160 665 1179 666 Q 1205 668 1229 677 L 1256 687 L 1243 750 L 1126 755 L 1026 767 L 768 791 L 695 794 Z"/><path d="M 768 791 Q 800 814 817 827.5 Q 834 841 851.5 862 Q 869 883 864 895 Q 862 900 853 907.5 Q 844 915 826 936 L 779 983 Q 778 984 729 1040 Q 680 1096 612 1155.5 Q 544 1215 464.5 1269.5 Q 385 1324 294 1364.5 Q 203 1405 165 1415 L 135 1423 Q 121 1427 117.5 1415.5 Q 114 1404 124 1398 L 156 1381 Q 200 1358 280 1302.5 Q 360 1247 451.5 1164 Q 543 1081 580 1036.5 Q 617 992 643.5 951.5 Q 670 911 681 880.5 Q 692 850 694 817 L 695 794 L 768 791 Z"/><path d="M 1126 755 Q 1193 814 1227 844 L 1344 955 Q 1402 1011 1446.5 1045.5 Q 1491 1080 1538.5 1108.5 Q 1586 1137 1647.5 1168 Q 1709 1199 1769 1222 L 1903 1275 Q 1929 1286 1930.5 1294.5 Q 1932 1303 1929 1307 Q 1926 1311 1903 1316 L 1856 1328 Q 1848 1330 1753 1347 Q 1658 1364 1632 1362 Q 1597 1360 1569 1345.5 Q 1541 1331 1486.5 1273.5 Q 1432 1216 1403 1180 Q 1374 1144 1319 1074 Q 1264 1004 1198.5 923 Q 1133 842 1099 819 L 1026 767 L 1126 755 Z"/><path d="M 501 1781 L 517 1762 L 565 1709 Q 591 1678 618 1623.5 Q 645 1569 662.5 1518 Q 680 1467 685 1417 Q 690 1367 690 1333 Q 689 1299 685.5 1274 Q 682 1249 676 1228 Q 670 1207 660.5 1191 Q 651 1175 652 1167 Q 653 1159 664 1152.5 Q 675 1146 695 1147 Q 712 1149 743 1155.5 Q 774 1162 800.5 1178.5 Q 827 1195 828 1206 Q 829 1217 819 1242 Q 813 1256 808 1282 Q 803 1308 801 1319 Q 799 1330 789 1396.5 Q 779 1463 763 1514.5 Q 747 1566 721 1611 Q 695 1656 656.5 1696.5 Q 618 1737 582.5 1761 Q 547 1785 528 1792 L 508 1800 Q 501 1803 496.5 1797 Q 492 1791 501 1781 Z"/><path d="M 1127 1655 L 1131 1261 Q 1131 1228 1129 1208.5 Q 1127 1189 1122.5 1157 Q 1118 1125 1113.5 1110.5 Q 1109 1096 1109.5 1088 Q 1110 1080 1116.5 1073.5 Q 1123 1067 1146 1070 Q 1161 1073 1194.5 1085 Q 1228 1097 1245.5 1113.5 Q 1263 1130 1264 1140.5 Q 1265 1151 1258 1170 Q 1249 1193 1244.5 1214 Q 1240 1235 1238.5 1270 Q 1237 1305 1237 1331 L 1233 1503 L 1230 1592 Q 1227 1668 1220 1717 L 1209 1782 Q 1200 1834 1186.5 1864.5 Q 1173 1895 1162 1893 Q 1150 1892 1143.5 1870 Q 1137 1848 1136 1834 Q 1135 1820 1130.5 1760 Q 1126 1700 1127 1655 Z"/></g>
</g>
<g transform="translate(2048,8192)">
  <g class="guides" stroke="#bbbbbb" stroke-width="12" fill="none" stroke-dasharray="40 30">
    <rect x="0" y="0" width="2048" height="2048" stroke="#888" stroke-width="14" stroke-dasharray="none"/>
    <line x1="1024" y1="0" x2="1024" y2="2048"/>
    <line x1="0" y1="1024" x2="2048" y2="1024"/>
    </g>
  <g class="ghost" fill="#e0e0e0"><path d="M 623 797 Q 620 815 613 825 Q 606 835 594 836.5 Q 582 838 565.5 818 Q 549 798 545 765 L 508 500 Q 500 444 490 402.5 Q 480 361 459 328 L 431 288 Q 419 269 423 260.5 Q 427 252 448 249 L 517 262 L 559 271 L 565 315 L 599 501 L 607 563 L 626 721 L 623 797 Z"/><path d="M 559 271 Q 645 265 704 259 Q 763 253 850 241 Q 937 229 998 217 L 1154 185 L 1234 169 Q 1291 157 1316 157 Q 1334 158 1351 161.5 Q 1368 165 1424 188 Q 1480 211 1502 231 Q 1524 251 1526 263.5 Q 1528 276 1502.5 313 Q 1477 350 1466 390 L 1374 711 Q 1352 787 1322 805.5 Q 1292 824 1288 811 L 1243 750 Q 1193.5 660.5 1256 687 Q 1281 596 1285 573 L 1300 490 L 1310 443 L 1321 310 Q 1323 286 1318.5 270 Q 1314 254 1308.5 249.5 Q 1303 245 1297 242.5 Q 1291 240 1238 246 L 936 282 L 832 299 Q 726 308 671 314 Q 616 320 604 318 L 565 315 L 559 271 Z"/><path d="M 599 501 Q 674 492 743 485 Q 812 478 815 477 L 876 469 L 982 452 Q 1012 446 1028 443 L 1096 431 Q 1171 418 1201 418 Q 1241 419 1269 429 L 1310 443 L 1300 490 Q 1258 497 1237.5 500.5 Q 1217 504 1135.5 516.5 Q 1054 529 1037 530 L 982 535 L 879 552 Q 786 565 730.5 570.5 Q 675 576 655 571 L 607 563 L 599 501 Z"/><path d="M 876 469 Q 871 426 865.5 382.5 Q 860 339 843 315 L 832 299 L 936 282 Q 964 295 976.5 301.5 Q 989 308 995.5 315 Q 1002 322 1004 338 L 990 402 L 982 452 L 982 535 L 974 691 Q 931 750 884 701 L 879 552 L 876 469 Z"/><path d="M 695 794 L 623 797 L 626 721 L 884 701 L 974 691 Q 1027 684 1077 677 Q 1127 670 1143.5 667.5 Q 1160 665 1179 666 Q 1205 668 1229 677 L 1256 687 L 1243 750 L 1126 755 L 1026 767 L 768 791 L 695 794 Z"/><path d="M 768 791 Q 800 814 817 827.5 Q 834 841 851.5 862 Q 869 883 864 895 Q 862 900 853 907.5 Q 844 915 826 936 L 779 983 Q 778 984 729 1040 Q 680 1096 612 1155.5 Q 544 1215 464.5 1269.5 Q 385 1324 294 1364.5 Q 203 1405 165 1415 L 135 1423 Q 121 1427 117.5 1415.5 Q 114 1404 124 1398 L 156 1381 Q 200 1358 280 1302.5 Q 360 1247 451.5 1164 Q 543 1081 580 1036.5 Q 617 992 643.5 951.5 Q 670 911 681 880.5 Q 692 850 694 817 L 695 794 L 768 791 Z"/><path d="M 1126 755 Q 1193 814 1227 844 L 1344 955 Q 1402 1011 1446.5 1045.5 Q 1491 1080 1538.5 1108.5 Q 1586 1137 1647.5 1168 Q 1709 1199 1769 1222 L 1903 1275 Q 1929 1286 1930.5 1294.5 Q 1932 1303 1929 1307 Q 1926 1311 1903 1316 L 1856 1328 Q 1848 1330 1753 1347 Q 1658 1364 1632 1362 Q 1597 1360 1569 1345.5 Q 1541 1331 1486.5 1273.5 Q 1432 1216 1403 1180 Q 1374 1144 1319 1074 Q 1264 1004 1198.5 923 Q 1133 842 1099 819 L 1026 767 L 1126 755 Z"/><path d="M 501 1781 L 517 1762 L 565 1709 Q 591 1678 618 1623.5 Q 645 1569 662.5 1518 Q 680 1467 685 1417 Q 690 1367 690 1333 Q 689 1299 685.5 1274 Q 682 1249 676 1228 Q 670 1207 660.5 1191 Q 651 1175 652 1167 Q 653 1159 664 1152.5 Q 675 1146 695 1147 Q 712 1149 743 1155.5 Q 774 1162 800.5 1178.5 Q 827 1195 828 1206 Q 829 1217 819 1242 Q 813 1256 808 1282 Q 803 1308 801 1319 Q 799 1330 789 1396.5 Q 779 1463 763 1514.5 Q 747 1566 721 1611 Q 695 1656 656.5 1696.5 Q 618 1737 582.5 1761 Q 547 1785 528 1792 L 508 1800 Q 501 1803 496.5 1797 Q 492 1791 501 1781 Z"/><path d="M 1127 1655 L 1131 1261 Q 1131 1228 1129 1208.5 Q 1127 1189 1122.5 1157 Q 1118 1125 1113.5 1110.5 Q 1109 1096 1109.5 1088 Q 1110 1080 1116.5 1073.5 Q 1123 1067 1146 1070 Q 1161 1073 1194.5 1085 Q 1228 1097 1245.5 1113.5 Q 1263 1130 1264 1140.5 Q 1265 1151 1258 1170 Q 1249 1193 1244.5 1214 Q 1240 1235 1238.5 1270 Q 1237 1305 1237 1331 L 1233 1503 L 1230 1592 Q 1227 1668 1220 1717 L 1209 1782 Q 1200 1834 1186.5 1864.5 Q 1173 1895 1162 1893 Q 1150 1892 1143.5 1870 Q 1137 1848 1136 1834 Q 1135 1820 1130.5 1760 Q 1126 1700 1127 1655 Z"/></g>
</g>
<g transform="translate(4096,8192)">
  <g class="guides" stroke="#bbbbbb" stroke-width="12" fill="none" stroke-dasharray="40 30">
    <rect x="0" y="0" width="2048" height="2048" stroke="#888" stroke-width="14" stroke-dasharray="none"/>
    <line x1="1024" y1="0" x2="1024" y2="2048"/>
    <line x1="0" y1="1024" x2="2048" y2="1024"/>
    </g>
  
</g>
<g transform="translate(6144,8192)">
  <g class="guides" stroke="#bbbbbb" stroke-width="12" fill="none" stroke-dasharray="40 30">
    <rect x="0" y="0" width="2048" height="2048" stroke="#888" stroke-width="14" stroke-dasharray="none"/>
    <line x1="1024" y1="0" x2="1024" y2="2048"/>
    <line x1="0" y1="1024" x2="2048" y2="1024"/>
    </g>
  
</g>
</svg>