<svg xmlns="http://www.w3.org/2000/svg" viewBox="0 0 105.0 148.0" width="105.0mm" height="148.0mm">
<rect x="0" y="0" width="105.0" height="148.0" fill="white"/>
<rect x="0.5" y="0.5" width="104.0" height="147.0" fill="none" stroke="#aaa" stroke-width="0.4"/>
<g class="grid" fill="none" stroke="#c8c8c8" stroke-width="0.2">
  <line x1="20" y1="20" x2="85.0" y2="20"/>
  <line x1="20" y1="28.0" x2="85.0" y2="28.0"/>
  <line x1="20" y1="36.0" x2="85.0" y2="36.0"/>
  <line x1="20" y1="44.0" x2="85.0" y2="44.0"/>
  <line x1="20" y1="52.0" x2="85.0" y2="52.0"/>
  <line x1="20" y1="60.0" x2="85.0" y2="60.0"/>
  <line x1="20" y1="68.0" x2="85.0" y2="68.0"/>
  <line x1="20" y1="76.0" x2="85.0" y2="76.0"/>
  <line x1="20" y1="84.0" x2="85.0" y2="84.0"/>
  <line x1="20" y1="92.0" x2="85.0" y2="92.0"/>
  <line x1="20" y1="100.0" x2="85.0" y2="100.0"/>
  <line x1="20" y1="108.0" x2="85.0" y2="108.0"/>
  <line x1="20" y1="116.0" x2="85.0" y2="116.0"/>
  <line x1="20" y1="124.0" x2="85.0" y2="124.0"/>
  <line x1="20" y1="20" x2="20" y2="128.0"/>
  <line x1="28" y1="20" x2="28" y2="128.0"/>
  <line x1="36" y1="20" x2="36" y2="128.0"/>
  <line x1="44" y1="20" x2="44" y2="128.0"/>
  <line x1="52" y1="20" x2="52" y2="128.0"/>
  <line x1="60" y1="20" x2="60" y2="128.0"/>
  <line x1="68" y1="20" x2="68" y2="128.0"/>
  <line x1="76" y1="20" x2="76" y2="128.0"/>
  <line x1="84" y1="20" x2="84" y2="128.0"/>
  </g>
<g class="chars">
<g transform="translate(20,20) scale(0.00390625,0.00390625)"><g fill="#d5d5d5"><path d="M 855 458 Q 781 464 720 471.5 Q 659 479 640 479 Q 578 482 551.5 469.5 Q 525 457 513.5 441 Q 502 425 507.5 418.5 Q 513 412 526 412 L 556 412 Q 566 412 618 406 L 732 398 L 868 378 L 982 362 L 1144 337 L 1235 317 Q 1259 313 1279 312 Q 1313 312 1351 327.5 Q 1389 343 1386 360 Q 1383 377 1369 381 L 1330 393 Q 1310 399 1260 406 L 1132 426 Q 1066 436 1019 440 L 965 445 L 855 458 Z"/><path d="M 786 708 Q 752 710 734.5 711.5 Q 717 713 675.5 720.5 Q 634 728 614 728 Q 579 729 556.5 719.5 Q 534 710 521.5 697 Q 509 684 512 675.5 Q 515 667 534 665 L 571 662 Q 585 661 638.5 655.5 Q 692 650 740 645 L 808 639 L 918 621 L 1042 600 Q 1080 594 1132.5 581 Q 1185 568 1209 566 Q 1240 564 1266 569 Q 1292 574 1317.5 585.5 Q 1343 597 1343.5 610.5 Q 1344 624 1326 628 L 1306 633 Q 1292 637 1255 641 Q 1218 645 1157 654 L 1035 673 L 901 693 L 786 708 Z"/><path d="M 690 940 L 554 977 L 492 993 Q 431 1011 418 1012 Q 393 1015 367.5 1008 Q 342 1001 308.5 981 Q 275 961 265 946 Q 255 931 261 922 Q 267 913 289 912 L 339 910 Q 402 908 471 903.5 Q 540 899 598 888 L 725 867 L 845 851 Q 904 844 935 840 L 1142 822 Q 1196 817 1263 806.5 Q 1330 796 1370 786 L 1430 771 Q 1468 762 1491 762 Q 1516 763 1537.5 770.5 Q 1559 778 1601 795.5 Q 1643 813 1655.5 835 Q 1668 857 1660.5 870 Q 1653 883 1629 884 L 1584 886 L 1460 882 Q 1431 882 1349 885 Q 1267 888 1189 889 L 1116 890 L 1019 899 Q 928 908 910 910 L 811 922 L 690 940 Z"/><path d="M 725 867 Q 754 801 759 786 L 786 708 L 808 639 Q 835 558 839 538 L 855 458 L 868 378 L 878 280 Q 879 263 878 245.5 Q 877 228 872.5 196.5 Q 868 165 867 155 L 860 125 Q 857 111 860.5 105 Q 864 99 875 96 Q 890 92 920 102.5 Q 950 113 978 127.5 Q 1006 142 1026 162 Q 1046 182 1046 197 Q 1045 206 1031 229 Q 1017 252 1008 280 L 982 362 L 965 445 Q 943 524 939 541 L 918 621 L 901 693 Q 873 769 867 788 L 845 851 L 811 922 Q 751 1038 713 1093.5 Q 675 1149 609.5 1219 Q 544 1289 475 1343.5 Q 406 1398 344 1432.5 Q 282 1467 219.5 1489.5 Q 157 1512 136 1517 L 95 1528 Q 80 1532 76.5 1520.5 Q 73 1509 83 1502 L 125 1477 Q 133 1473 184.5 1444.5 Q 236 1416 299 1372.5 Q 362 1329 421 1275.5 Q 480 1222 551.5 1142.5 Q 623 1063 644 1023 L 690 940 L 725 867 Z"/><path d="M 1116 890 Q 1157 920 1181 939 Q 1205 958 1300.5 1039.5 Q 1396 1121 1472.5 1177.5 Q 1549 1234 1599 1260.5 Q 1649 1287 1745.5 1325.5 Q 1842 1364 1914 1383 L 1961 1396 Q 1969 1399 1975 1411.5 Q 1981 1424 1961 1428 L 1925 1436 L 1797 1461 Q 1701 1482 1667 1477 Q 1621 1472 1578.5 1444 Q 1536 1416 1500 1377.5 Q 1464 1339 1346 1210.5 Q 1228 1082 1166 1020 Q 1104 958 1074 937 L 1019 899 L 1116 890 Z"/><path d="M 754 1824 L 744 1856 Q 732 1892 716.5 1891.5 Q 701 1891 684 1865.5 Q 667 1840 664 1815 Q 661 1799 667 1749.5 Q 673 1700 671 1649 L 660 1374 Q 657 1317 650 1292 Q 643 1267 635.5 1252 Q 628 1237 630 1229 Q 632 1221 646 1216 Q 653 1214 679 1219 L 723 1230 Q 769.5 1238.5 760 1289 Q 762 1303 762.5 1311.5 Q 763 1320 760.5 1341.5 Q 758 1363 758 1376 L 752 1490 L 752 1545 L 756 1756 L 754 1824 Z"/><path d="M 723 1230 Q 755 1227 787.5 1222.5 Q 820 1218 868 1208 L 976 1185 Q 1032 1174 1056.5 1167 Q 1081 1160 1105 1150 Q 1129 1140 1138 1138 Q 1158 1135 1180.5 1143 Q 1203 1151 1230 1168 Q 1257 1185 1278 1203.5 Q 1299 1222 1299.5 1232 Q 1300 1242 1294 1257 Q 1287 1273 1282.5 1291.5 Q 1278 1310 1276 1325.5 Q 1274 1341 1271.5 1390 Q 1269 1439 1273 1498 Q 1275 1547 1282 1597.5 Q 1289 1648 1297.5 1700 Q 1306 1752 1305 1779 Q 1302 1829 1274.5 1881.5 Q 1247 1934 1222 1946 Q 1197 1958 1185 1955 Q 1169 1952 1150 1915 Q 1131 1878 1108 1844 L 1079 1802 Q 1006 1686.5 1121 1727 L 1163 1749 L 1173 1496 L 1174 1457 L 1172 1331 L 1172 1285 Q 1171 1253 1162.5 1244 Q 1154 1235 1134 1232 Q 1115 1230 1068 1233 L 982 1239 Q 948 1243 888.5 1257.5 Q 829 1272 805 1279.5 Q 781 1287 777 1287 L 760 1289 L 723 1230 Z"/><path d="M 1173 1496 Q 1129 1505 1107 1508 L 968 1533 Q 876 1550 838.5 1554 Q 801 1558 793 1555 L 752 1545 L 752 1490 Q 773 1490 788.5 1488.5 Q 804 1487 874 1473.5 Q 944 1460 990 1447.5 Q 1036 1435 1055 1433 Q 1073 1432 1100 1436 Q 1127 1440 1155 1450 L 1174 1457 L 1173 1496 Z"/><path d="M 1079 1802 Q 1038 1806 950.5 1813.5 Q 863 1821 848 1821 L 754 1824 L 756 1756 Q 844 1746 891 1740 Q 938 1734 995.5 1725 Q 1053 1716 1072 1716 Q 1105 1718 1121 1727 L 1079 1802 Z"/></g></g>
<g transform="translate(28,20) scale(0.00390625,0.00390625)"><g fill="#d5d5d5"><path d="M 264 1435 L 248 1490 Q 242 1511 226.5 1512.5 Q 211 1514 192 1484 Q 167 1448 159 1424.5 Q 151 1401 152 1361 Q 152 1336 163.5 1274.5 Q 175 1213 179.5 1184.5 Q 184 1156 191.5 1067.5 Q 199 979 200 934 L 206 639 Q 206 613 202.5 572.5 Q 199 532 193.5 507.5 Q 188 483 174 464 Q 160 445 156.5 435.5 Q 153 426 158.5 418 Q 164 410 181 407 Q 214 402 231 407 L 270 418 Q 303 429.5 300 477 Q 300 494 299.5 507.5 Q 299 521 297 547 Q 295 573 295 580 L 295 755 L 292 797 L 283 1045 L 283 1088 L 268 1356 L 264 1435 Z"/><path d="M 270 418 L 376 394 Q 394 390 429 379 Q 464 368 489.5 357 Q 515 346 528 346 Q 543 347 561 357 Q 579 367 611.5 389.5 Q 644 412 656.5 428.5 Q 669 445 667 463 Q 666 464 656 489 Q 646 514 645 539 L 643 588 L 640 655 L 639 1033 Q 638 1113 647.5 1214.5 Q 657 1316 656 1354 Q 654 1398 643.5 1427.5 Q 633 1457 612.5 1486 Q 592 1515 573 1529.5 Q 554 1544 537 1542 Q 520 1540 509 1504 L 479 1414 Q 431.5 1306.5 516 1339 Q 523 1283 527 1240 Q 531 1197 532 1156 L 534 1062 L 534 1014 L 534 773 L 534 711 L 534 540 Q 534 527 532 504 Q 530 481 524 468 Q 518 455 494 448 Q 470 441 440 443 Q 403 447 376 455 L 336 469 L 300 477 L 270 418 Z"/><path d="M 534 773 Q 491 780 443 788.5 Q 395 797 375.5 800 Q 356 803 334 800 L 292 797 L 295 755 Q 324 747 352.5 738.5 Q 381 730 417.5 716.5 Q 454 703 473 700 Q 497 698 509 702 L 534 711 L 534 773 Z"/><path d="M 534 1062 Q 504 1072 492.5 1074.5 Q 481 1077 406 1085 Q 331 1093 326 1092 L 283 1088 L 283 1045 Q 316 1035 334 1030 L 404 1014 Q 460 998 473 998 Q 491 999 504 1003 L 534 1014 L 534 1062 Z"/><path d="M 479 1414 Q 385 1420 366 1422 L 264 1435 L 268 1356 Q 306 1351 336.5 1347 Q 367 1343 399.5 1335.5 Q 432 1328 445 1327 Q 463 1327 481 1331 L 516 1339 L 479 1414 Z"/><path d="M 895 383 L 1088 357 Q 1145 350 1189 340 Q 1233 330 1288 311 Q 1343 292 1380 277 Q 1417 262 1435 260 Q 1459 259 1483.5 268 Q 1508 277 1552 297.5 Q 1596 318 1608.5 333.5 Q 1621 349 1619 363 Q 1617 371 1599 389 Q 1581 407 1562 438 Q 1543 469 1535 491 L 1483 622 Q 1410 657.5 1377 599 L 1402 483 Q 1412 436 1415 414.5 Q 1418 393 1408 384.5 Q 1398 376 1363 380 Q 1285 391 1268 394 L 1174 413 Q 1119 424 1072 430 L 1002 438 L 954 444 Q 879.5 430.5 895 383 Z"/><path d="M 1483 622 L 1503 641 Q 1519 657 1514 666.5 Q 1509 676 1488 678 L 1405 683 L 1210 705 L 1140 716 L 935 740 Q 908.5 701 938 672 Q 973 666 991 663 L 1057 655 Q 1086 652 1153 640 Q 1220 628 1272.5 615.5 Q 1325 603 1335 602 L 1377 599 L 1483 622 Z"/><path d="M 909 1049 L 903 1228 L 892 1446 Q 890 1478 898.5 1484.5 Q 907 1491 940 1472 L 1190 1330 Q 1216 1315 1223 1324.5 Q 1230 1334 1209 1355 L 1026 1539 Q 996 1569 967.5 1600 Q 939 1631 915.5 1659.5 Q 892 1688 879 1701 Q 866 1714 855.5 1714.5 Q 845 1715 828 1701 Q 807 1685 793.5 1664.5 Q 780 1644 771 1618 Q 762 1592 767 1573 Q 768 1568 775.5 1552 Q 783 1536 787 1521.5 Q 791 1507 795 1480.5 Q 799 1454 801.5 1416.5 Q 804 1379 805.5 1325 Q 807 1271 809 1205 L 817 704 Q 818 622 815.5 585.5 Q 813 549 807 520.5 Q 801 492 792 466 L 775 423 Q 767 404 770.5 389 Q 774 374 795 366 Q 808 362 840 369 L 895 383 Q 952.5 395.5 954 444 Q 954 463 953.5 468.5 Q 953 474 949 535 L 938 672 L 935 740 L 912 1019 L 909 1049 Z"/><path d="M 1347 938 Q 1393 930 1416 923 L 1486 902 Q 1510 897 1533 897 Q 1556 898 1588 905 Q 1620 912 1649.5 921 Q 1679 930 1679.5 940 Q 1680 950 1672.5 960 Q 1665 970 1650 973 L 1600 983 L 1369 1028 L 1274 1045 Q 1168 1065 1114.5 1070.5 Q 1061 1076 1015 1075 Q 969 1074 954 1067 L 909 1049 L 912 1019 Q 954 1010 974 1006.5 Q 994 1003 1063 993 Q 1132 983 1174 975 L 1246 962 L 1347 938 Z"/><path d="M 1210 705 Q 1254 714 1285 724.5 Q 1316 735 1323.5 749 Q 1331 763 1329.5 800 Q 1328 837 1335 870 L 1347 938 L 1369 1028 Q 1392 1095 1411.5 1146.5 Q 1431 1198 1464 1260.5 Q 1497 1323 1542 1380.5 Q 1587 1438 1630.5 1484.5 Q 1674 1531 1697.5 1544 Q 1721 1557 1731 1554 Q 1744 1552 1750 1530.5 Q 1756 1509 1778 1437 L 1800 1365 Q 1810 1331 1819.5 1331.5 Q 1829 1332 1831 1370 L 1833 1446 Q 1833 1483 1841 1526 L 1859 1621 Q 1867 1673 1880.5 1706 Q 1894 1739 1895.5 1754.5 Q 1897 1770 1887 1780 Q 1877 1790 1856 1790 Q 1825 1791 1780.5 1771 Q 1736 1751 1683.5 1710.5 Q 1631 1670 1578 1606.5 Q 1525 1543 1480.5 1477.5 Q 1436 1412 1402.5 1350 Q 1369 1288 1345 1230 Q 1321 1172 1300 1114 L 1274 1045 L 1246 962 Q 1225 903 1213 864.5 Q 1201 826 1190.5 800 Q 1180 774 1159.5 755.5 Q 1139 737 1140 733 L 1140 716 L 1210 705 Z"/></g></g>
<g transform="translate(36,20) scale(0.00390625,0.00390625)"><g fill="#d5d5d5"><path d="M 1043 428 L 762 466 Q 675 478 607 493.5 Q 539 509 512 508 Q 471 508 427.5 491.5 Q 384 475 370 460 Q 356 445 360 434 Q 360 432 364.5 427 Q 369 422 395 420 L 440 414 L 1030 344 Q 1166 328 1243 317 Q 1320 306 1357.5 300.5 Q 1395 295 1448.5 286 Q 1502 277 1536 270 Q 1570 263 1593 259.5 Q 1616 256 1644 260 Q 1671 265 1708 282 Q 1745 299 1770 321 Q 1795 343 1791 357 Q 1787 371 1770.5 376.5 Q 1754 382 1734.5 382.5 Q 1715 383 1687 385 Q 1659 387 1604.5 389 Q 1550 391 1454.5 396 Q 1359 401 1309 405 L 1143 419 L 1043 428 Z"/><path d="M 1143 419 Q 1159 432 1174 444.5 Q 1189 457 1200 476.5 Q 1211 496 1206 510 Q 1201 524 1182 544 L 1113 643 L 1090 675 L 1037 749 Q 984 822 940 877 Q 896 932 823 1004.5 Q 750 1077 677.5 1136 Q 605 1195 539 1238 Q 473 1281 407.5 1316.5 Q 342 1352 311 1362 L 264 1378 Q 244 1385 240 1377 Q 236 1369 256 1353 L 286 1331 Q 343 1290 401 1246.5 Q 459 1203 561.5 1113 Q 664 1023 756 920.5 Q 848 818 902.5 739.5 Q 957 661 986 605.5 Q 1015 550 1025.5 517 Q 1036 484 1039 461 L 1043 428 L 1143 419 Z"/><path d="M 1090 675 Q 1118 704 1137 725.5 Q 1156 747 1164 766 Q 1172 785 1172.5 804.5 Q 1173 824 1169 851 L 1160 911 L 1156 953 L 1140 1465 Q 1138 1507 1134.5 1581 Q 1131 1655 1125.5 1684 Q 1120 1713 1111.5 1743.5 Q 1103 1774 1092.5 1782 Q 1082 1790 1074 1790 Q 1065 1791 1055 1784 Q 1045 1777 1027.5 1742.5 Q 1010 1708 1001.5 1688.5 Q 993 1669 986 1638.5 Q 979 1608 978 1594.5 Q 977 1581 987 1547 Q 1011 1457 1019 1422 Q 1027 1387 1032 1320 L 1039 1214 Q 1045 1152 1046 1142 L 1048 930 Q 1048 855 1043 805 L 1037 749 L 1090 675 Z"/><path d="M 1160 911 Q 1191 917 1229.5 925 Q 1268 933 1321.5 947.5 Q 1375 962 1453 992 Q 1531 1022 1587.5 1050 Q 1644 1078 1697.5 1117.5 Q 1751 1157 1773.5 1195 Q 1796 1233 1800.5 1255.5 Q 1805 1278 1807 1307.5 Q 1809 1337 1797.5 1351.5 Q 1786 1366 1765 1371.5 Q 1744 1377 1714.5 1366.5 Q 1685 1356 1636.5 1320.5 Q 1588 1285 1547.5 1252 Q 1507 1219 1414 1139 Q 1321 1059 1270 1022.5 Q 1219 986 1195 973 L 1156 953 L 1160 911 Z"/></g></g>
<g transform="translate(44,20) scale(0.00390625,0.00390625)"><g fill="#d5d5d5"><path d="M 977 265 Q 1004 235 1011.5 221.5 Q 1019 208 1025 192.5 Q 1031 177 1034 168 L 1039 141 Q 1040 135 1043.5 130 Q 1047 125 1073 136 Q 1096 147 1110.5 155 Q 1125 163 1137 178.5 Q 1149 194 1146 202 Q 1144 207 1134 213.5 Q 1124 220 1103.5 235.5 Q 1083 251 1078 255 L 1039 288 L 982 336 Q 955 352 930 367.5 Q 905 383 895 388 L 862 403 Q 836 415 827 417 L 807 422 Q 793 426 792 420 Q 791 414 802 406 L 824 391 Q 848 375 862 364 L 905 329 L 937 303 L 977 265 Z"/><path d="M 937 303 Q 923 293 916 288 L 873 260 Q 846 242 837.5 237 Q 829 232 828.5 227.5 Q 828 223 832 220 Q 836 217 850 222 L 928 247 L 977 265 L 1039 288 Q 1061 298 1075.5 304 Q 1090 310 1104 319 Q 1118 328 1125.5 340 Q 1133 352 1134 373.5 Q 1135 395 1124.5 405.5 Q 1114 416 1105.5 416.5 Q 1097 417 1084 409 Q 1071 401 1045.5 381.5 Q 1020 362 1017 359 L 982 336 L 937 303 Z"/><path d="M 959 547 L 977 517 Q 985 504 991 485.5 Q 997 467 997.5 452.5 Q 998 438 1001.5 434.5 Q 1005 431 1023 435 Q 1042 441 1064.5 452.5 Q 1087 464 1097 478 Q 1107 492 1105 500 Q 1103 507 1082.5 520 Q 1062 533 1055 540 L 1020 573 L 968 616 Q 944 633 930 643 Q 916 653 893.5 666.5 Q 871 680 850.5 690.5 Q 830 701 812 706 L 794 711 Q 787 713 784.5 709.5 Q 782 706 791 699 L 820 677 Q 826 673 860 643 Q 894 613 895 612 L 923 583 L 959 547 Z"/><path d="M 923 583 Q 908 573 895.5 563.5 Q 883 554 867.5 542.5 Q 852 531 842 524.5 Q 832 518 826.5 511.5 Q 821 505 822.5 501.5 Q 824 498 833 497 Q 840 497 851 502.5 Q 862 508 890.5 518.5 Q 919 529 933 535 L 959 547 L 1020 573 Q 1047 586 1067.5 595.5 Q 1088 605 1096 615 Q 1104 625 1109.5 639.5 Q 1115 654 1112 672 Q 1109 686 1100.5 695.5 Q 1092 705 1081 705.5 Q 1070 706 1050 688 Q 1029 671 1018 660 L 968 616 L 923 583 Z"/><path d="M 549 291 Q 569 272 586.5 252.5 Q 604 233 620.5 202.5 Q 637 172 646.5 148 Q 656 124 662.5 120.5 Q 669 117 680 120 Q 688 123 705 134.5 Q 722 146 747.5 169 Q 773 192 773 208 Q 772 217 767.5 223.5 Q 763 230 749 234 L 720 241 Q 699 247 675 259 L 583 307 L 549 291 Z"/><path d="M 538 784 L 497 431 Q 491 385 480.5 364 Q 470 343 465 335 L 445 313 Q 437 304 437.5 294.5 Q 438 285 449.5 279 Q 461 273 480 274 Q 506 277 514 279 L 549 291 L 583 307 L 593 440 L 593 489 L 604 600 L 606 644 L 610 780 L 538 784 Z"/><path d="M 593 440 L 633 429 L 658 422 Q 678 417 688.5 413 Q 699 409 701 408 Q 709 407 726.5 414.5 Q 744 422 752.5 426.5 Q 761 431 762 436 Q 763 441 751 451 Q 736 463 726 466 Q 716 469 694 472 L 593 489 L 593 440 Z"/><path d="M 604 600 Q 638 590 658 584.5 Q 678 579 694 573.5 Q 710 568 717 567 Q 724 567 744 571 Q 764 575 772 581 Q 780 587 780.5 592.5 Q 781 598 773 606 Q 763 615 748 621.5 Q 733 628 705 631 L 606 644 L 604 600 Z"/><path d="M 1356 723 L 1384 579 L 1392 524 L 1415 399 L 1424 343 L 1426 308 L 1431 241 Q 1429 220 1421.5 213.5 Q 1414 207 1402 206 Q 1390 206 1363 213 L 1306 227 L 1270 238 Q 1258 242 1250 241 Q 1233 241 1216.5 232 Q 1200 223 1193 209.5 Q 1186 196 1188.5 192.5 Q 1191 189 1206 187 L 1234 184 Q 1247 183 1283.5 175.5 Q 1320 168 1350.5 158 Q 1381 148 1404.5 134.5 Q 1428 121 1435 119 Q 1450 116 1475.5 126 Q 1501 136 1527 150 Q 1553 164 1570.5 181 Q 1588 198 1587 212 Q 1586 220 1573.5 238.5 Q 1561 257 1551 277 Q 1541 297 1531.5 331.5 Q 1522 366 1515 396 L 1442 715 L 1356 723 Z"/><path d="M 1415 399 Q 1390 403 1362.5 406.5 Q 1335 410 1303.5 417 Q 1272 424 1261 424 Q 1251 425 1229 422.5 Q 1207 420 1196.5 412 Q 1186 404 1188 395 Q 1189 391 1194 387 Q 1199 383 1216 379 L 1338 350 Q 1357 346 1377.5 343 Q 1398 340 1403 340 L 1424 343 L 1415 399 Z"/><path d="M 1384 579 Q 1349 581 1333 583 L 1283 592 Q 1270 594 1237 595.5 Q 1204 597 1190.5 586 Q 1177 575 1179 567 Q 1180 561 1198 555 L 1225 549 L 1313 528 Q 1343 521 1357 522 L 1392 524 L 1384 579 Z"/><path d="M 361 864 Q 360 879 359 891 Q 358 903 351.5 933 Q 345 963 327.5 1006.5 Q 310 1050 287 1079 Q 264 1108 241 1106 Q 225 1106 211 1092 Q 197 1078 189.5 1049.5 Q 182 1021 182 1001.5 Q 182 982 187 966 Q 190 957 201.5 939 Q 213 921 228.5 895 Q 244 869 256.5 846.5 Q 269 824 272 813.5 Q 275 803 283 770 L 291 734 Q 294 718 307 715 Q 320 712 327 725 L 338 748 Q 346 767 347 767 L 354 793 L 361 864 Z"/><path d="M 610 780 Q 645 779 673 778 Q 701 777 715 776 L 1264 731 Q 1310 728 1316 727 L 1356 723 L 1442 715 Q 1489 710 1519.5 705.5 Q 1550 701 1578 694 L 1617 684 Q 1636 679 1648 679 Q 1667 680 1699.5 696 Q 1732 712 1762 736.5 Q 1792 761 1830.5 797 Q 1869 833 1865 854 Q 1861 872 1849 878 Q 1837 884 1823.5 885.5 Q 1810 887 1797 889 Q 1784 891 1744 897.5 Q 1704 904 1673.5 911 Q 1643 918 1613 930 L 1535 961 Q 1517 968 1510.5 962 Q 1504 956 1519 935 L 1592 833 Q 1612 805 1612.5 794 Q 1613 783 1602.5 774.5 Q 1592 766 1564 767 Q 1548 769 1479.5 772 Q 1411 775 1214.5 790 Q 1018 805 957 810 L 714 834 Q 606 845 562 852 L 486 866 Q 458 871 436 871 Q 402 873 377 867 L 361 864 L 354 793 Q 406 792 432 790 L 517 785 L 538 784 L 610 780 Z"/><path d="M 733 1482 L 725 1511 Q 716 1542 704 1542.5 Q 692 1543 682 1531 Q 671 1521 659.5 1492 Q 648 1463 643.5 1446 Q 639 1429 641 1408 Q 641 1401 644.5 1384.5 Q 648 1368 656.5 1316.5 Q 665 1265 666 1249 L 668 1084 Q 668 1049 665.5 1032 Q 663 1015 657 993.5 Q 651 972 639.5 956 Q 628 940 626 933 Q 624 926 628 919 Q 632 912 648 910 Q 660 909 710 923 L 742 933 L 749 987 L 746 1101 L 745 1143 L 742 1270 L 741 1311 L 737 1424 L 733 1482 Z"/><path d="M 742 933 L 1004 895 Q 1060 887 1097 881.5 Q 1134 876 1163 867 Q 1192 858 1203 857 Q 1217 857 1243.5 867.5 Q 1270 878 1290.5 888.5 Q 1311 899 1330.5 915.5 Q 1350 932 1350.5 940 Q 1351 948 1337 972 Q 1328 987 1324 1010 Q 1320 1033 1315 1071 Q 1310 1109 1312 1143 L 1317 1303 L 1321 1412 Q 1319 1431 1314 1453 Q 1309 1475 1298 1492.5 Q 1287 1510 1272 1526 Q 1257 1542 1250 1541 Q 1241 1541 1228 1527 Q 1215 1513 1207 1492 L 1187 1444 L 1205 1372 Q 1206 1348 1207.5 1328.5 Q 1209 1309 1209 1301 L 1208 1266 L 1207 1243 L 1201 1106 L 1199 1062 Q 1198 1047 1197.5 1041 Q 1197 1035 1194.5 1008 Q 1192 981 1189.5 965.5 Q 1187 950 1178.5 943 Q 1170 936 1139 939 L 1070 946 L 964 960 Q 882 971 881 971 L 801 984 L 749 987 L 742 933 Z"/><path d="M 746 1101 L 990 1064 L 1032 1058 Q 1041 1057 1064 1051.5 Q 1087 1046 1098 1045 Q 1118 1044 1146 1050 L 1199 1062 L 1201 1106 Q 1185 1110 1176.5 1111.5 Q 1168 1113 1128 1118 L 885 1149 Q 831 1156 814.5 1156.5 Q 798 1157 786 1153 L 745 1143 L 746 1101 Z"/><path d="M 742 1270 L 758 1268 L 1040 1222 L 1078 1216 Q 1099 1213 1108 1212 Q 1119 1212 1144 1217 Q 1169 1222 1174 1224 L 1207 1243 L 1208 1266 Q 1188 1273 1175.5 1276 Q 1163 1279 1146 1281 L 882 1316 Q 825 1324 814 1323 L 785 1320 Q 757 1318 754 1316 L 741 1311 L 742 1270 Z"/><path d="M 973 1468 L 940 1472 L 860 1482 L 780 1488 Q 761 1488 758 1487 L 733 1482 L 737 1424 L 950 1403 Q 972 1401 1030 1391.5 Q 1088 1382 1120.5 1376 Q 1153 1370 1162 1370 L 1205 1372 L 1187 1444 L 1100 1454 L 973 1468 Z"/><path d="M 860 1482 Q 878 1499 889.5 1513 Q 901 1527 906 1542 Q 911 1557 910 1563 Q 907 1572 898 1578 L 868 1592 Q 859 1598 843.5 1619 Q 828 1640 803.5 1666 Q 779 1692 740.5 1725.5 Q 702 1759 642 1794 Q 582 1829 537.5 1847 Q 493 1865 445 1879 Q 397 1893 366 1896 L 326 1901 Q 307 1904 304.5 1894.5 Q 302 1885 317 1879 L 341 1869 Q 371 1857 411.5 1838 Q 452 1819 499 1791 Q 546 1763 600.5 1720.5 Q 655 1678 689 1644 Q 723 1610 741.5 1582 Q 760 1554 767 1531 L 780 1488 L 860 1482 Z"/><path d="M 1100 1454 Q 1123 1472 1140 1486 Q 1157 1500 1157 1511 Q 1156 1519 1150 1528 L 1130 1551 Q 1120 1565 1111.5 1597.5 Q 1103 1630 1102.5 1667 Q 1102 1704 1117 1727 Q 1128 1748 1174 1777.5 Q 1220 1807 1386 1803 Q 1538 1800 1587 1770.5 Q 1636 1741 1652.5 1714.5 Q 1669 1688 1678.5 1657 Q 1688 1626 1694 1587 L 1701 1541 Q 1704 1517 1713.5 1516 Q 1723 1515 1731 1541 L 1745 1592 Q 1753 1624 1765 1647 Q 1777 1670 1798 1701.5 Q 1819 1733 1825.5 1745.5 Q 1832 1758 1832.5 1767.5 Q 1833 1777 1825 1791 Q 1808 1820 1755 1850.5 Q 1702 1881 1625 1904 Q 1548 1927 1407 1929 Q 1219 1933 1142.5 1888.5 Q 1066 1844 1033 1792.5 Q 1000 1741 1001 1695 L 1003 1561 Q 1003 1534 994 1509 Q 985 1484 981 1478 L 973 1468 L 1100 1454 Z"/></g></g>
<g transform="translate(52,20) scale(0.00390625,0.00390625)"><g fill="#d5d5d5"><path d="M 273 1395 L 259 1444 Q 248 1482 232.5 1484.5 Q 217 1487 203 1471 Q 196 1464 183.5 1434.5 Q 171 1405 163 1372.5 Q 155 1340 156 1316 Q 156 1302 168 1258 Q 180 1214 187 1157.5 Q 194 1101 197 1024 L 204 766 Q 205 719 196.5 675 Q 188 631 181 610 L 164 569 Q 157 548 163 539.5 Q 169 531 191 530 Q 213 530 248 544 L 282 558 Q 311 573.5 300 609 L 295 954 L 292 1004 L 280 1329 L 273 1395 Z"/><path d="M 282 558 L 367 538 Q 378 536 414 522.5 Q 450 509 469.5 498.5 Q 489 488 495 486 Q 509 484 538 494.5 Q 567 505 588.5 516.5 Q 610 528 623.5 546 Q 637 564 638.5 576.5 Q 640 589 625 631 Q 615 657 611.5 694 Q 608 731 607.5 814.5 Q 607 898 607 919 L 607 1066 Q 607 1119 613 1209.5 Q 619 1300 619.5 1344.5 Q 620 1389 610 1423 Q 599 1459 575.5 1490 Q 552 1521 534.5 1524 Q 517 1527 491 1490 Q 483 1479 462 1430 L 442 1382 Q 393.5 1278 507 1322 Q 513 1249 515.5 1199 Q 518 1149 518 1105 L 518 977 L 519 914 L 518 649 Q 517 608 499.5 590.5 Q 482 573 439 576 Q 421 578 336 598 L 300 609 L 282 558 Z"/><path d="M 518 977 Q 486 982 476 983 Q 466 984 425 989 Q 384 994 353.5 999.5 Q 323 1005 318 1004 L 292 1004 L 295 954 Q 321 947 335 942 L 386 924 Q 405 918 432 912 Q 459 906 465 907 L 519 914 L 518 977 Z"/><path d="M 442 1382 Q 413 1383 391 1384 Q 369 1385 337 1388 L 273 1395 L 280 1329 Q 304 1325 317 1322 L 392 1311 Q 438 1304 443 1305 L 507 1322 L 442 1382 Z"/><path d="M 1102 448 Q 1054 453 1019 455 Q 984 457 959 451.5 Q 934 446 915.5 437.5 Q 897 429 890 415 Q 883 401 885.5 395.5 Q 888 390 951 382 L 1102 365 L 1211 343 Q 1251 337 1281 330.5 Q 1311 324 1324 323 Q 1353 323 1381.5 334 Q 1410 345 1422 355 Q 1434 365 1436 376.5 Q 1438 388 1428.5 395 Q 1419 402 1366 410 L 1205 437 L 1102 448 Z"/><path d="M 1104 588 L 1102 448 L 1102 365 L 1099 298 Q 1097 266 1091 241 Q 1085 216 1074 194.5 Q 1063 173 1066.5 162.5 Q 1070 152 1096 148 Q 1110 146 1161.5 164 Q 1213 182 1224 193 Q 1235 204 1235 218 Q 1234 224 1225.5 245.5 Q 1217 267 1216 288 L 1211 343 L 1205 437 L 1195 575 Q 1143.5 654.5 1104 588 Z"/><path d="M 1195 575 L 1369 554 Q 1420 548 1441 548.5 Q 1462 549 1489.5 559 Q 1517 569 1536.5 589 Q 1556 609 1552 620.5 Q 1548 632 1528 638 Q 1514 643 1467 640 L 1388 644 L 1282 646 L 1010 671 Q 959 676 930.5 680.5 Q 902 685 893 685 Q 867 687 840 680.5 Q 813 674 790 655.5 Q 767 637 772 630 Q 777 623 808.5 621 Q 840 619 893 612 L 1104 588 L 1195 575 Z"/><path d="M 835 975 Q 776 976 739 980.5 Q 702 985 679.5 974.5 Q 657 964 659 954.5 Q 661 945 668.5 941.5 Q 676 938 729 930 L 832 915 L 935 891 Q 981 884 994.5 883.5 Q 1008 883 1041 883.5 Q 1074 884 1086 896 Q 1098 908 1096 915 Q 1094 922 1072 928 Q 1050 934 1024 938 L 932 955 L 835 975 Z"/><path d="M 832 915 L 829 868 Q 826 831 814 803 Q 802 775 803.5 765 Q 805 755 812.5 748.5 Q 820 742 844 744 Q 869 747 891.5 752 Q 914 757 930 769.5 Q 946 782 949 796 L 938 844 L 935 891 L 932 955 L 928 1089 Q 884 1178.5 840 1114 L 835 975 L 832 915 Z"/><path d="M 928 1089 L 1060 1049 Q 1107 1035 1115.5 1040.5 Q 1124 1046 1123.5 1053 Q 1123 1060 1099 1072 L 904 1173 Q 877 1187 851 1202 Q 825 1217 794 1236.5 Q 763 1256 746 1256 Q 726 1257 694 1234 Q 662 1211 648.5 1195.5 Q 635 1180 637 1171 Q 638 1166 644 1160 Q 650 1154 676 1152.5 Q 702 1151 726 1144 L 840 1114 L 928 1089 Z"/><path d="M 1377 932 Q 1334 939 1301.5 942.5 Q 1269 946 1241 941 Q 1223 939 1199 930 Q 1175 921 1171.5 908.5 Q 1168 896 1175 886 L 1235 879 L 1377 860 L 1477 842 Q 1499 835 1517.5 831 Q 1536 827 1561 827 Q 1583 828 1611.5 835 Q 1640 842 1651.5 855 Q 1663 868 1661 877 Q 1658 888 1642 892 Q 1626 896 1591 900 L 1471 915 L 1377 932 Z"/><path d="M 1380 1073 L 1377 932 L 1377 860 L 1375 816 Q 1374 803 1369 776 Q 1364 749 1355 730 Q 1346 711 1349 703 Q 1352 695 1370 690 Q 1388 686 1423 698 Q 1458 710 1474.5 720 Q 1491 730 1493 741.5 Q 1495 753 1488 774 Q 1480 797 1480 804 L 1477 842 L 1471 915 L 1464 1062 Q 1420 1129.5 1380 1073 Z"/><path d="M 1464 1062 L 1597 1041 Q 1647 1034 1659 1033.5 Q 1671 1033 1695.5 1040.5 Q 1720 1048 1732.5 1055.5 Q 1745 1063 1754 1077 Q 1763 1091 1759 1100 Q 1754 1110 1734.5 1111 Q 1715 1112 1658.5 1113.5 Q 1602 1115 1528 1122 L 1328 1142 Q 1284 1147 1256 1151 Q 1228 1155 1218 1155 Q 1194 1156 1168.5 1150.5 Q 1143 1145 1122 1128.5 Q 1101 1112 1105 1105.5 Q 1109 1099 1146.5 1096 Q 1184 1093 1218 1089 L 1380 1073 L 1464 1062 Z"/><path d="M 945 1366 Q 901 1373 879 1372.5 Q 857 1372 828.5 1368 Q 800 1364 776.5 1349 Q 753 1334 763 1316 Q 767 1308 783 1304.5 Q 799 1301 816 1299 L 844 1297 Q 878 1295 944 1286 L 1121 1263 L 1283 1239 Q 1310 1235 1358 1223.5 Q 1406 1212 1422 1211 Q 1444 1210 1480.5 1216.5 Q 1517 1223 1539.5 1235 Q 1562 1247 1563.5 1258 Q 1565 1269 1557 1277.5 Q 1549 1286 1501 1292 L 1334 1315 L 1191 1339 Q 1121 1345 1107 1347 L 1027 1358 L 945 1366 Z"/><path d="M 1027 1358 Q 1051 1382 1057.5 1392.5 Q 1064 1403 1069.5 1416 Q 1075 1429 1072 1439 Q 1069 1446 1052.5 1463 Q 1036 1480 1016 1508 L 955 1594 Q 927 1630 887 1668.5 Q 847 1707 785 1749.5 Q 723 1792 677 1814 Q 631 1836 565 1858 L 523 1872 Q 496 1881 488.5 1876.5 Q 481 1872 482.5 1865.5 Q 484 1859 504 1847 L 545 1822 L 601 1788 Q 635 1767 670 1740.5 Q 705 1714 756.5 1666 Q 808 1618 843 1575.5 Q 878 1533 904.5 1487 Q 931 1441 935 1416 L 945 1366 L 1027 1358 Z"/><path d="M 1334 1315 Q 1350 1332 1361.5 1348 Q 1373 1364 1372 1380 Q 1371 1389 1357.5 1413.5 Q 1344 1438 1332.5 1464.5 Q 1321 1491 1316 1550 L 1308 1633 Q 1304 1666 1310.5 1693 Q 1317 1720 1333.5 1736.5 Q 1350 1753 1402.5 1763.5 Q 1455 1774 1541 1772 Q 1613 1771 1666.5 1755.5 Q 1720 1740 1740.5 1711 Q 1761 1682 1770.5 1643.5 Q 1780 1605 1786 1572 L 1792 1534 Q 1797 1501 1805.5 1499.5 Q 1814 1498 1820 1523 L 1831 1570 L 1847 1639 Q 1856 1670 1871 1690.5 Q 1886 1711 1888.5 1715.5 Q 1891 1720 1891.5 1730.5 Q 1892 1741 1878 1763 Q 1860 1790 1841 1808 Q 1822 1826 1782.5 1847.5 Q 1743 1869 1685.5 1883 Q 1628 1897 1567 1900 Q 1489 1905 1425 1894 Q 1361 1883 1331 1870 Q 1301 1857 1274.5 1836.5 Q 1248 1816 1233 1792 Q 1218 1768 1211 1723 Q 1204 1678 1207 1639 L 1216 1475 Q 1216 1468 1212.5 1419.5 Q 1209 1371 1205 1363 L 1191 1339 L 1334 1315 Z"/></g></g>
<g transform="translate(68,20) scale(0.00390625,0.00390625)"><g fill="#d5d5d5"><path d="M 900 520 L 897 298 Q 896 255 892 226.5 Q 888 198 882 182 L 868 152 Q 865 145 864.5 138.5 Q 864 132 868 125 Q 871 119 878 116 Q 885 113 897 113 Q 909 114 932 120 Q 955 126 980.5 135 Q 1006 144 1019 153.5 Q 1032 163 1033 170 Q 1034 177 1026 202 Q 1018 227 1015 251 L 1006 323 L 1004 355 L 992 503 Q 912 611.5 900 520 Z"/><path d="M 1006 323 L 1174 267 L 1236 246 Q 1258 243 1283 249 Q 1308 255 1329 266 Q 1350 277 1350.5 286.5 Q 1351 296 1338 308 Q 1325 320 1303 324 L 1195 346 Q 1121 362 1108.5 363 Q 1096 364 1080 364 Q 1055 365 1045 362 L 1004 355 L 1006 323 Z"/><path d="M 875 589 Q 839 595 808.5 599.5 Q 778 604 767 605 L 663 624 L 623 631 L 565 644 L 450 648 Q 434 638 419 628.5 Q 404 619 402.5 609.5 Q 401 600 403.5 597 Q 406 594 426 591 L 482 584 Q 521 580 550 575.5 Q 579 571 639 561.5 Q 699 552 779 539 L 900 520 L 992 503 L 1171 475 L 1290 450 Q 1327 443 1338.5 439.5 Q 1350 436 1374.5 425.5 Q 1399 415 1411 413 Q 1427 411 1454.5 417.5 Q 1482 424 1530.5 448.5 Q 1579 473 1607.5 494 Q 1636 515 1636.5 533.5 Q 1637 552 1623 563 Q 1616 569 1593.5 574.5 Q 1571 580 1556.5 584 Q 1542 588 1498.5 610.5 Q 1455 633 1432 648 L 1371 689 Q 1355 700 1348.5 693.5 Q 1342 687 1348 673 L 1389 580 Q 1403 549 1401.5 538.5 Q 1400 528 1390.5 521.5 Q 1381 515 1329 522 L 1075 559 L 1030 566 L 986 572 L 875 589 Z"/><path d="M 565 644 Q 577 652 582 658.5 Q 587 665 587.5 674 Q 588 683 585 692 L 576 716 Q 570 733 564 773 L 552 847 L 529 997 Q 516 1072 498 1152 Q 480 1232 447 1323 Q 414 1414 360 1500 Q 306 1586 264 1631 Q 222 1676 183 1710 L 155 1734 Q 144 1744 138 1735.5 Q 132 1727 142 1711 L 171 1669 Q 201 1627 230 1579 Q 259 1531 294.5 1448 Q 330 1365 355 1279.5 Q 380 1194 393.5 1124.5 Q 407 1055 421.5 970.5 Q 436 886 441 847 L 451 735 Q 455 689 454 679 L 450 648 L 565 644 Z"/><path d="M 978 737 L 1067 709 Q 1113 695 1131.5 688 Q 1150 681 1162 678.5 Q 1174 676 1201 676 Q 1230 677 1253 680 Q 1276 683 1281 691 Q 1286 699 1279 711 Q 1272 723 1254 729 L 1220 740 Q 1171 756 1126 767 L 972 806 L 889 824 L 779 850 Q 747 858 733 860 Q 719 862 689.5 861.5 Q 660 861 649.5 861.5 Q 639 862 628.5 855.5 Q 618 849 619.5 840 Q 621 831 640 824 L 668 815 L 771 791 L 889 759 L 978 737 Z"/><path d="M 986 572 Q 1013 584 1018 596 Q 1023 608 1020 618 Q 1019 621 1013 630.5 Q 1007 640 1000 655.5 Q 993 671 991 682 L 978 737 L 972 806 Q 969 844 976.5 863.5 Q 984 883 1006 898 Q 1028 913 1082 911 Q 1107 911 1144.5 907.5 Q 1182 904 1205.5 898 Q 1229 892 1262 875.5 Q 1295 859 1309 857 Q 1330 855 1347.5 862 Q 1365 869 1386.5 882 Q 1408 895 1417 907.5 Q 1426 920 1422 935 Q 1417 951 1390 963.5 Q 1363 976 1325 986 Q 1287 996 1230.5 1000.5 Q 1174 1005 1115 1002 Q 1073 1001 1036 995 Q 999 989 970.5 976 Q 942 963 919 937 Q 896 911 895 883 L 889 824 L 889 759 L 887 692 Q 885 634 879 607 L 875 589 L 986 572 Z"/><path d="M 596 1389 Q 566 1417 546.5 1436 Q 527 1455 515 1463 L 487 1482 Q 466 1497 461.5 1490.5 Q 457 1484 469 1467 L 492 1433 Q 523 1387 552.5 1340.5 Q 582 1294 599 1261 Q 616 1228 636 1181.5 Q 656 1135 666.5 1104 Q 677 1073 680 1031 Q 683 989 684 985.5 Q 685 982 687 979 Q 689 976 694.5 972 Q 700 968 720 973 Q 734 977 772.5 995 Q 811 1013 820 1023 Q 829 1033 829 1043 Q 828 1052 819.5 1063 Q 811 1074 797.5 1089 Q 784 1104 779 1112 L 748 1162 L 708 1229 Q 679 1273 674 1280 L 627 1346 L 596 1389 Z"/><path d="M 801 1529 Q 778 1557 753 1586.5 Q 728 1616 699 1643.5 Q 670 1671 626 1705 Q 582 1739 552.5 1756.5 Q 523 1774 485.5 1791 Q 448 1808 426 1815 L 390 1827 Q 361 1837 358 1825.5 Q 355 1814 364 1808 L 405 1780 Q 446 1752 487 1718.5 Q 528 1685 588.5 1629.5 Q 649 1574 667 1551 L 725 1478 L 764 1419 L 826 1319 Q 837 1302 852.5 1271.5 Q 868 1241 875 1221 Q 882 1201 876.5 1196 Q 871 1191 861 1193 Q 851 1195 842 1199 L 784 1227 Q 768 1235 756.5 1238 Q 745 1241 735 1237 L 708 1229 L 748 1162 Q 786 1156 804 1151.5 Q 822 1147 853 1137 Q 884 1127 904.5 1116 Q 925 1105 933 1105 Q 943 1106 963.5 1119.5 Q 984 1133 1000.5 1147.5 Q 1017 1162 1028.5 1180 Q 1040 1198 1036 1211 Q 1033 1220 1014.5 1235 Q 996 1250 980 1265.5 Q 964 1281 952 1297 Q 940 1313 912 1360 L 846 1468 L 801 1529 Z"/><path d="M 725 1478 Q 688 1453 670 1440 L 633 1416 L 596 1389 L 627 1346 Q 660 1362 677 1371 L 732 1403 L 764 1419 L 846 1468 Q 879 1487 896 1496 L 993 1551 Q 1063 1590 1142 1626 Q 1221 1662 1293 1687.5 Q 1365 1713 1425.5 1727.5 Q 1486 1742 1626.5 1767 Q 1767 1792 1824 1800 L 1893 1810 Q 1914 1814 1912 1824 Q 1910 1834 1905 1839 Q 1900 1844 1862 1853 L 1807 1866 Q 1766 1876 1647.5 1909 Q 1529 1942 1471 1937 Q 1405 1932 1320.5 1889 Q 1236 1846 1149.5 1786 Q 1063 1726 972 1656 L 854 1568 L 801 1529 L 725 1478 Z"/><path d="M 1192 1197 L 1189 1284 Q 1188 1311 1181.5 1345.5 Q 1175 1380 1162 1406 Q 1149 1432 1121.5 1465 Q 1094 1498 1067 1512 L 1035 1529 Q 1018 1538 1010 1539 Q 1002 1540 999.5 1533 Q 997 1526 1010 1512 L 1036 1485 Q 1054 1466 1063.5 1448 Q 1073 1430 1084 1397 Q 1095 1364 1101.5 1333.5 Q 1108 1303 1106 1252 L 1104 1212 Q 1102 1180 1098 1166 Q 1094 1152 1085 1143 L 1067 1126 Q 1062 1118 1064 1111 Q 1066 1104 1091 1104 Q 1106 1105 1127 1111 Q 1148 1117 1162 1123 L 1194 1139 L 1192 1197 Z"/><path d="M 1194 1139 Q 1221 1133 1234 1128.5 Q 1247 1124 1268 1112 Q 1289 1100 1310.5 1084.5 Q 1332 1069 1343 1067 Q 1356 1066 1378 1075 Q 1400 1084 1428.5 1098.5 Q 1457 1113 1465.5 1125 Q 1474 1137 1469 1151 Q 1468 1154 1452.5 1169.5 Q 1437 1185 1427.5 1208 Q 1418 1231 1409.5 1269 Q 1401 1307 1400.5 1353 Q 1400 1399 1413 1420 Q 1419 1432 1434.5 1443.5 Q 1450 1455 1499 1455 Q 1539 1456 1553.5 1446 Q 1568 1436 1576 1420 Q 1584 1404 1592 1340 L 1597 1295 Q 1599 1270 1605 1268.5 Q 1611 1267 1623 1295 L 1640 1336 L 1655 1376 Q 1658 1384 1675 1408 L 1696 1441 Q 1706 1457 1707 1468 Q 1708 1479 1692 1497 Q 1672 1519 1635 1534.5 Q 1598 1550 1533 1555 Q 1480 1560 1445.5 1553.5 Q 1411 1547 1383.5 1530.5 Q 1356 1514 1341.5 1492.5 Q 1327 1471 1321.5 1442 Q 1316 1413 1316 1379 L 1316 1260 L 1318 1193 Q 1317 1178 1313 1174.5 Q 1309 1171 1303 1169 Q 1297 1167 1288.5 1167.5 Q 1280 1168 1249 1178 L 1192 1197 L 1194 1139 Z"/></g></g>
<g transform="translate(76,20) scale(0.00390625,0.00390625)"><g fill="#d5d5d5"><path d="M 900 520 L 897 298 Q 896 255 892 226.5 Q 888 198 882 182 L 868 152 Q 865 145 864.5 138.5 Q 864 132 868 125 Q 871 119 878 116 Q 885 113 897 113 Q 909 114 932 120 Q 955 126 980.5 135 Q 1006 144 1019 153.5 Q 1032 163 1033 170 Q 1034 177 1026 202 Q 1018 227 1015 251 L 1006 323 L 1004 355 L 992 503 Q 912 611.5 900 520 Z"/><path d="M 1006 323 L 1174 267 L 1236 246 Q 1258 243 1283 249 Q 1308 255 1329 266 Q 1350 277 1350.5 286.5 Q 1351 296 1338 308 Q 1325 320 1303 324 L 1195 346 Q 1121 362 1108.5 363 Q 1096 364 1080 364 Q 1055 365 1045 362 L 1004 355 L 1006 323 Z"/><path d="M 875 589 Q 839 595 808.5 599.5 Q 778 604 767 605 L 663 624 L 623 631 L 565 644 L 450 648 Q 434 638 419 628.5 Q 404 619 402.5 609.5 Q 401 600 403.5 597 Q 406 594 426 591 L 482 584 Q 521 580 550 575.5 Q 579 571 639 561.5 Q 699 552 779 539 L 900 520 L 992 503 L 1171 475 L 1290 450 Q 1327 443 1338.5 439.5 Q 1350 436 1374.5 425.5 Q 1399 415 1411 413 Q 1427 411 1454.5 417.5 Q 1482 424 1530.5 448.5 Q 1579 473 1607.5 494 Q 1636 515 1636.5 533.5 Q 1637 552 1623 563 Q 1616 569 1593.5 574.5 Q 1571 580 1556.5 584 Q 1542 588 1498.5 610.5 Q 1455 633 1432 648 L 1371 689 Q 1355 700 1348.5 693.5 Q 1342 687 1348 673 L 1389 580 Q 1403 549 1401.5 538.5 Q 1400 528 1390.5 521.5 Q 1381 515 1329 522 L 1075 559 L 1030 566 L 986 572 L 875 589 Z"/><path d="M 565 644 Q 577 652 582 658.5 Q 587 665 587.5 674 Q 588 683 585 692 L 576 716 Q 570 733 564 773 L 552 847 L 529 997 Q 516 1072 498 1152 Q 480 1232 447 1323 Q 414 1414 360 1500 Q 306 1586 264 1631 Q 222 1676 183 1710 L 155 1734 Q 144 1744 138 1735.5 Q 132 1727 142 1711 L 171 1669 Q 201 1627 230 1579 Q 259 1531 294.5 1448 Q 330 1365 355 1279.5 Q 380 1194 393.5 1124.5 Q 407 1055 421.5 970.5 Q 436 886 441 847 L 451 735 Q 455 689 454 679 L 450 648 L 565 644 Z"/><path d="M 978 737 L 1067 709 Q 1113 695 1131.5 688 Q 1150 681 1162 678.5 Q 1174 676 1201 676 Q 1230 677 1253 680 Q 1276 683 1281 691 Q 1286 699 1279 711 Q 1272 723 1254 729 L 1220 740 Q 1171 756 1126 767 L 972 806 L 889 824 L 779 850 Q 747 858 733 860 Q 719 862 689.5 861.5 Q 660 861 649.5 861.5 Q 639 862 628.5 855.5 Q 618 849 619.5 840 Q 621 831 640 824 L 668 815 L 771 791 L 889 759 L 978 737 Z"/><path d="M 986 572 Q 1013 584 1018 596 Q 1023 608 1020 618 Q 1019 621 1013 630.5 Q 1007 640 1000 655.5 Q 993 671 991 682 L 978 737 L 972 806 Q 969 844 976.5 863.5 Q 984 883 1006 898 Q 1028 913 1082 911 Q 1107 911 1144.5 907.5 Q 1182 904 1205.5 898 Q 1229 892 1262 875.5 Q 1295 859 1309 857 Q 1330 855 1347.5 862 Q 1365 869 1386.5 882 Q 1408 895 1417 907.5 Q 1426 920 1422 935 Q 1417 951 1390 963.5 Q 1363 976 1325 986 Q 1287 996 1230.5 1000.5 Q 1174 1005 1115 1002 Q 1073 1001 1036 995 Q 999 989 970.5 976 Q 942 963 919 937 Q 896 911 895 883 L 889 824 L 889 759 L 887 692 Q 885 634 879 607 L 875 589 L 986 572 Z"/><path d="M 596 1389 Q 566 1417 546.5 1436 Q 527 1455 515 1463 L 487 1482 Q 466 1497 461.5 1490.5 Q 457 1484 469 1467 L 492 1433 Q 523 1387 552.5 1340.5 Q 582 1294 599 1261 Q 616 1228 636 1181.5 Q 656 1135 666.5 1104 Q 677 1073 680 1031 Q 683 989 684 985.5 Q 685 982 687 979 Q 689 976 694.5 972 Q 700 968 720 973 Q 734 977 772.5 995 Q 811 1013 820 1023 Q 829 1033 829 1043 Q 828 1052 819.5 1063 Q 811 1074 797.5 1089 Q 784 1104 779 1112 L 748 1162 L 708 1229 Q 679 1273 674 1280 L 627 1346 L 596 1389 Z"/><path d="M 801 1529 Q 778 1557 753 1586.5 Q 728 1616 699 1643.5 Q 670 1671 626 1705 Q 582 1739 552.5 1756.5 Q 523 1774 485.5 1791 Q 448 1808 426 1815 L 390 1827 Q 361 1837 358 1825.5 Q 355 1814 364 1808 L 405 1780 Q 446 1752 487 1718.5 Q 528 1685 588.5 1629.5 Q 649 1574 667 1551 L 725 1478 L 764 1419 L 826 1319 Q 837 1302 852.5 1271.5 Q 868 1241 875 1221 Q 882 1201 876.5 1196 Q 871 1191 861 1193 Q 851 1195 842 1199 L 784 1227 Q 768 1235 756.5 1238 Q 745 1241 735 1237 L 708 1229 L 748 1162 Q 786 1156 804 1151.5 Q 822 1147 853 1137 Q 884 1127 904.5 1116 Q 925 1105 933 1105 Q 943 1106 963.5 1119.5 Q 984 1133 1000.5 1147.5 Q 1017 1162 1028.5 1180 Q 1040 1198 1036 1211 Q 1033 1220 1014.5 1235 Q 996 1250 980 1265.5 Q 964 1281 952 1297 Q 940 1313 912 1360 L 846 1468 L 801 1529 Z"/><path d="M 725 1478 Q 688 1453 670 1440 L 633 1416 L 596 1389 L 627 1346 Q 660 1362 677 1371 L 732 1403 L 764 1419 L 846 1468 Q 879 1487 896 1496 L 993 1551 Q 1063 1590 1142 1626 Q 1221 1662 1293 1687.5 Q 1365 1713 1425.5 1727.5 Q 1486 1742 1626.5 1767 Q 1767 1792 1824 1800 L 1893 1810 Q 1914 1814 1912 1824 Q 1910 1834 1905 1839 Q 1900 1844 1862 1853 L 1807 1866 Q 1766 1876 1647.5 1909 Q 1529 1942 1471 1937 Q 1405 1932 1320.5 1889 Q 1236 1846 1149.5 1786 Q 1063 1726 972 1656 L 854 1568 L 801 1529 L 725 1478 Z"/><path d="M 1192 1197 L 1189 1284 Q 1188 1311 1181.5 1345.5 Q 1175 1380 1162 1406 Q 1149 1432 1121.5 1465 Q 1094 1498 1067 1512 L 1035 1529 Q 1018 1538 1010 1539 Q 1002 1540 999.5 1533 Q 997 1526 1010 1512 L 1036 1485 Q 1054 1466 1063.5 1448 Q 1073 1430 1084 1397 Q 1095 1364 1101.5 1333.5 Q 1108 1303 1106 1252 L 1104 1212 Q 1102 1180 1098 1166 Q 1094 1152 1085 1143 L 1067 1126 Q 1062 1118 1064 1111 Q 1066 1104 1091 1104 Q 1106 1105 1127 1111 Q 1148 1117 1162 1123 L 1194 1139 L 1192 1197 Z"/><path d="M 1194 1139 Q 1221 1133 1234 1128.5 Q 1247 1124 1268 1112 Q 1289 1100 1310.5 1084.5 Q 1332 1069 1343 1067 Q 1356 1066 1378 1075 Q 1400 1084 1428.5 1098.5 Q 1457 1113 1465.5 1125 Q 1474 1137 1469 1151 Q 1468 1154 1452.5 1169.5 Q 1437 1185 1427.5 1208 Q 1418 1231 1409.5 1269 Q 1401 1307 1400.5 1353 Q 1400 1399 1413 1420 Q 1419 1432 1434.5 1443.5 Q 1450 1455 1499 1455 Q 1539 1456 1553.5 1446 Q 1568 1436 1576 1420 Q 1584 1404 1592 1340 L 1597 1295 Q 1599 1270 1605 1268.5 Q 1611 1267 1623 1295 L 1640 1336 L 1655 1376 Q 1658 1384 1675 1408 L 1696 1441 Q 1706 1457 1707 1468 Q 1708 1479 1692 1497 Q 1672 1519 1635 1534.5 Q 1598 1550 1533 1555 Q 1480 1560 1445.5 1553.5 Q 1411 1547 1383.5 1530.5 Q 1356 1514 1341.5 1492.5 Q 1327 1471 1321.5 1442 Q 1316 1413 1316 1379 L 1316 1260 L 1318 1193 Q 1317 1178 1313 1174.5 Q 1309 1171 1303 1169 Q 1297 1167 1288.5 1167.5 Q 1280 1168 1249 1178 L 1192 1197 L 1194 1139 Z"/></g></g>
<g transform="translate(20,28.0) scale(0.00390625,0.00390625)"><g fill="#d5d5d5"><path d="M 482 794 L 448 1485 Q 443 1582 441.5 1594 Q 440 1606 431 1660 Q 422 1714 408.5 1731.5 Q 395 1749 382 1748 Q 372 1748 358.5 1734.5 Q 345 1721 334 1694 Q 323 1667 317 1643 Q 311 1619 312 1597 Q 312 1583 327 1535 Q 342 1487 352 1431.5 Q 362 1376 368 1332.5 Q 374 1289 379 1237 Q 384 1185 390.5 1092 Q 397 999 399 904 L 404 572 Q 404 528 403.5 518 Q 403 508 399 443 Q 395 378 375.5 348.5 Q 356 319 359.5 311 Q 363 303 373.5 297.5 Q 384 292 415 301 Q 449 312 450 312 L 474 321 Q 499.5 328 493 359 L 489 527 L 486 565 L 483 732 L 482 794 Z"/><path d="M 474 321 Q 512 314 535 309.5 Q 558 305 585 298.5 Q 612 292 650 281.5 Q 688 271 718 256.5 Q 748 242 755 241 Q 771 239 804 251 Q 837 263 860 277.5 Q 883 292 897.5 304 Q 912 316 915 322.5 Q 918 329 918 335 Q 917 342 903.5 360 Q 890 378 876.5 416 Q 863 454 857 481 L 802 703 Q 794 732 784.5 755.5 Q 775 779 755 787 Q 729 798 723 787 L 699 759 Q 659 700 703 709 Q 714 664 715 658 L 738 541 L 744 502 L 755 410 Q 761 358 758.5 340 Q 756 322 746.5 317.5 Q 737 313 719 316 Q 693 321 674 325 L 597 343 Q 544 355 517 357 L 493 359 L 474 321 Z"/><path d="M 738 541 Q 692 549 669 552 L 616 560 Q 566 568 546 568.5 Q 526 569 511 567 L 486 565 L 489 527 Q 521 523 538 518 L 582 504 L 632 489 Q 658 479 664 478 Q 675 477 723 494 L 744 502 L 738 541 Z"/><path d="M 699 759 L 482 794 L 483 732 Q 513 726 534.5 722 Q 556 718 571.5 714.5 Q 587 711 610.5 703 Q 634 695 645 694 Q 659 694 683 702 L 703 709 L 699 759 Z"/><path d="M 1251 691 Q 1239 719 1229.5 727 Q 1220 735 1209 736 Q 1198 737 1183 708 Q 1177 698 1171.5 679.5 Q 1166 661 1167 650 Q 1167 647 1170.5 631.5 Q 1174 616 1176 593.5 Q 1178 571 1178 557 L 1171 405 Q 1169 365 1164 337 Q 1159 309 1152 291 Q 1145 273 1135 255.5 Q 1125 238 1123.5 227.5 Q 1122 217 1128.5 211 Q 1135 205 1154 207 Q 1167 209 1191 215 L 1226 224 Q 1254 239 1250 286 L 1255 442 L 1256 475 L 1261 632 L 1251 691 Z"/><path d="M 1226 224 L 1395 194 Q 1436 187 1476.5 176 Q 1517 165 1539.5 154.5 Q 1562 144 1571 143 Q 1582 143 1599 149.5 Q 1616 156 1647.5 172.5 Q 1679 189 1698 202.5 Q 1717 216 1726 229 Q 1735 242 1735.5 249.5 Q 1736 257 1714 284 Q 1696 305 1689 337 Q 1682 369 1682 402 L 1682 1543 Q 1682 1649 1679.5 1684 Q 1677 1719 1668 1765 Q 1659 1811 1636.5 1847 Q 1614 1883 1589.5 1896.5 Q 1565 1910 1548 1906 Q 1533 1904 1506 1864.5 Q 1479 1825 1437 1786 L 1380 1734 Q 1369 1725 1350 1709 L 1323 1687 Q 1311 1678 1316.5 1668.5 Q 1322 1659 1337 1663 L 1370 1673 Q 1405 1684 1448.5 1701 Q 1492 1718 1513 1708 Q 1529 1700 1539.5 1679.5 Q 1550 1659 1553 1618.5 Q 1556 1578 1558 1528.5 Q 1560 1479 1562 1376 L 1572 660 L 1569 618 L 1570 447 L 1570 421 L 1565 321 Q 1563 283 1557 269.5 Q 1551 256 1536.5 249 Q 1522 242 1480 246.5 Q 1438 251 1420 254 L 1250 286 L 1226 224 Z"/><path d="M 1255 442 L 1333 423 L 1395 408 Q 1415 403 1437.5 393.5 Q 1460 384 1471 382 Q 1483 381 1506 387.5 Q 1529 394 1550 408 L 1570 421 L 1570 447 Q 1545 454 1522 459 Q 1499 464 1469.5 467 Q 1440 470 1369.5 477 Q 1299 484 1284 480 L 1256 475 L 1255 442 Z"/><path d="M 1572 660 L 1419 682 L 1364 688 Q 1308 695 1303 695 Q 1286 696 1276 694 L 1251 691 L 1261 632 L 1324 625 Q 1349 623 1394 615 Q 1439 607 1466 599.5 Q 1493 592 1505 592 Q 1519 594 1543 605 L 1569 618 L 1572 660 Z"/><path d="M 757 938 L 726 939 Q 699 940 676.5 936 Q 654 932 642 926 Q 630 920 625.5 910 Q 621 900 624.5 895.5 Q 628 891 641 889 L 679 884 L 749 876 Q 814 869 873 858.5 Q 932 848 1014.5 833 Q 1097 818 1127 809 L 1181 794 L 1215 784 Q 1230 782 1250.5 786.5 Q 1271 791 1302 805 Q 1333 819 1332 833 Q 1330 845 1314.5 855.5 Q 1299 866 1256 873 L 1173 888 L 1068 905 Q 1022 910 1000 913 L 904 926 L 851 930 L 757 938 Z"/><path d="M 784 1411 L 778 1061 Q 777 1039 774 1009 Q 771 979 767 967 L 757 938 L 851 930 Q 900 951 899 962.5 Q 898 974 892 990 Q 886 1006 885 1019 L 882 1058 L 883 1109 L 876 1221 L 872 1270 L 868 1398 Q 820 1462.5 784 1411 Z"/><path d="M 1176 1434 L 1172 1526 Q 1169 1593 1166 1626.5 Q 1163 1660 1157 1699.5 Q 1151 1739 1145 1767.5 Q 1139 1796 1129 1814 Q 1119 1832 1111 1831 Q 1105 1831 1097.5 1822.5 Q 1090 1814 1089 1781 L 1083 1732 Q 1080 1710 1080.5 1660 Q 1081 1610 1081 1589 L 1077 1442 L 1080 1369 L 1082 1238 L 1080 1206 L 1081 1076 L 1081 1044 L 1081 981 Q 1081 945 1076 930 L 1068 905 L 1173 888 Q 1188 902 1197 911.5 Q 1206 921 1208.5 931 Q 1211 941 1201.5 970.5 Q 1192 1000 1191 1030 L 1178 1355 L 1176 1434 Z"/><path d="M 1081 1076 Q 1067 1082 1059 1084 Q 1051 1086 1003 1093 L 938 1104 L 883 1109 L 882 1058 Q 918 1050 949.5 1041 Q 981 1032 1004.5 1030.5 Q 1028 1029 1050 1035 L 1081 1044 L 1081 1076 Z"/><path d="M 1082 1238 Q 1050 1245 1032 1249 Q 1014 1253 970 1260 Q 926 1267 916 1267 L 872 1270 L 876 1221 Q 904 1216 920 1212 Q 936 1208 956.5 1199.5 Q 977 1191 985 1189 Q 1002 1186 1038 1195 L 1080 1206 L 1082 1238 Z"/><path d="M 1178 1355 L 1260 1340 Q 1277 1337 1301.5 1331 Q 1326 1325 1339 1325 Q 1358 1326 1383 1336 L 1419 1354 Q 1451 1370 1461.5 1386 Q 1472 1402 1466.5 1411 Q 1461 1420 1442 1422 L 1367 1424 L 1176 1434 L 1077 1442 L 865 1468 L 765 1486 L 688 1498 Q 657 1506 648 1505 Q 637 1505 624 1501 L 592 1490 Q 559 1481 544 1468.5 Q 529 1456 535 1448 Q 541 1440 554 1438 L 613 1432 L 716 1422 L 784 1411 L 868 1398 L 1080 1369 L 1178 1355 Z"/></g></g>
<g transform="translate(28,28.0) scale(0.00390625,0.00390625)"><g fill="#d5d5d5"><path d="M 297 1042 Q 294 1062 291.5 1071.5 Q 289 1081 284 1091 Q 279 1101 273 1102.5 Q 267 1104 259 1097 Q 252 1093 240 1075.5 Q 228 1058 223 1025.5 Q 218 993 208 889 L 195 759 Q 190 714 180.5 683.5 Q 171 653 154.5 631 Q 138 609 136 604 Q 134 599 134 593.5 Q 134 588 138 581 Q 141 577 144.5 576 Q 148 575 152 574 Q 157 574 195 580 L 269 594 Q 284.5 604.5 280 647 L 297 973 L 297 1042 Z"/><path d="M 269 594 Q 314 587 329 584 Q 344 581 399.5 566.5 Q 455 552 475 543 L 533 515 Q 543 512 552 511 Q 561 511 588 519 Q 615 527 648 547.5 Q 681 568 687 580 Q 693 592 693.5 596.5 Q 694 601 690 610 L 657 659 Q 645 678 636 706 L 611 782 Q 596 827 582 901 L 569 968 Q 497.5 997.25 470 946.5 Q 474 941 479.5 929 Q 485 917 492 866 L 506 771 Q 508 754 514 706.5 Q 520 659 519 644 Q 517 629 511 623 Q 505 617 491 615 Q 477 613 465 615 L 423 622 Q 396 627 358 637.5 Q 320 648 312 647 L 280 647 L 269 594 Z"/><path d="M 569 968 Q 580 976 589.5 984 Q 599 992 598 998.5 Q 597 1005 592 1009.5 Q 587 1014 519 1020 L 297 1042 L 297 973 Q 336 970 381 962 Q 426 954 446 953 Q 466 952 470 946.5 L 569 968 Z"/><path d="M 1178 381 Q 1153 350 1135.5 325 Q 1118 300 1088 248 Q 1058 196 1047.5 179.5 Q 1037 163 1041 154 Q 1043 149 1049 146 Q 1055 143 1065 142 Q 1081 142 1119.5 154.5 Q 1158 167 1187 182.5 Q 1216 198 1236 222.5 Q 1256 247 1264.5 278.5 Q 1273 310 1269 325 L 1259 371 Q 1237.5 431 1178 381 Z"/><path d="M 913 488 Q 876 488 847 485.5 Q 818 483 801 466 Q 784 449 787 440 Q 789 432 797.5 429 Q 806 426 838 422 L 1178 381 L 1259 371 L 1458 329 Q 1478 325 1493.5 327 Q 1509 329 1541.5 340.5 Q 1574 352 1588.5 366.5 Q 1603 381 1602 389.5 Q 1601 398 1595.5 404 Q 1590 410 1555 415 L 1370 445 L 1327 451 Q 1187 470 1162 471 L 965 488 L 913 488 Z"/><path d="M 1049 802 Q 1033 784 1020.5 766.5 Q 1008 749 994.5 714 Q 981 679 954 602 L 913 488 L 965 488 Q 990 506 1022 532 Q 1054 558 1083.5 617.5 Q 1113 677 1108 730 L 1103 800 Q 1094 845 1049 802 Z"/><path d="M 1370 445 Q 1415 466 1435.5 478 Q 1456 490 1466.5 501 Q 1477 512 1476.5 519.5 Q 1476 527 1470 535 L 1450 554 Q 1442 562 1429 585 Q 1416 608 1382 659 Q 1348 710 1335 726 L 1291 780 Q 1247.5 824.5 1246 785 Q 1265 743 1280 706 Q 1295 669 1304 633 Q 1313 597 1320.5 543 Q 1328 489 1328 478 L 1327 451 L 1370 445 Z"/><path d="M 801 884 Q 796 910 782.5 983 Q 769 1056 739 1084 Q 709 1112 697 1119.5 Q 685 1127 677 1127 Q 666 1128 656.5 1121.5 Q 647 1115 637 1097.5 Q 627 1080 630 1042 Q 631 1010 639 991 Q 647 972 678.5 921.5 Q 710 871 722.5 840 Q 735 809 746 780.5 Q 757 752 767 750.5 Q 777 749 778 753 L 799 815 Q 805 844.5 801 884 Z"/><path d="M 799 815 Q 861 818 868 817 L 1049 802 L 1103 800 L 1246 785 L 1291 780 L 1639 727 Q 1718 715 1730 716 Q 1742 717 1762 725.5 Q 1782 734 1828.5 774.5 Q 1875 815 1894 841 Q 1913 867 1913.5 881.5 Q 1914 896 1909 904 Q 1902 916 1883 922 Q 1864 928 1803 943 Q 1742 958 1697 978 L 1642 1003 Q 1621 1013 1615 1008 Q 1609 1003 1609.5 998.5 Q 1610 994 1618 978 L 1655 905 Q 1669 877 1672.5 850.5 Q 1676 824 1670 813 Q 1664 802 1645.5 800.5 Q 1627 799 1588 802 L 1192 839 L 1106 859 Q 1057 865 1011.5 870.5 Q 966 876 915 885.5 Q 864 895 843.5 895.5 Q 823 896 816 891 L 801 884 L 799 815 Z"/><path d="M 952 1136 L 952 1307 Q 952 1434 949 1469 Q 946 1504 936.5 1524.5 Q 927 1545 919.5 1551 Q 912 1557 905.5 1557.5 Q 899 1558 890 1550 Q 873 1538 861 1512 Q 849 1486 851 1455 L 860 1283 Q 862 1242 854 1197.5 Q 846 1153 835.5 1119 Q 825 1085 822.5 1071.5 Q 820 1058 825 1052.5 Q 830 1047 841 1047.5 Q 852 1048 868 1052 L 943 1075 Q 961.5 1090.5 952 1136 Z"/><path d="M 1234 1034 L 1410 1003 Q 1418 1002 1444.5 993.5 Q 1471 985 1474 984 Q 1480 984 1512.5 998.5 Q 1545 1013 1556.5 1019 Q 1568 1025 1588 1042 Q 1608 1059 1610.5 1067.5 Q 1613 1076 1605 1094 L 1590 1127 Q 1577 1158 1574 1181.5 Q 1571 1205 1570 1294 L 1568 1388 Q 1566 1479 1539 1528.5 Q 1512 1578 1486 1592 Q 1460 1606 1448 1605 Q 1442 1605 1432.5 1601.5 Q 1423 1598 1402.5 1565.5 Q 1382 1533 1361 1510 Q 1340 1487 1323 1472 L 1296 1450 Q 1280 1438 1286 1431 Q 1292 1424 1306 1426 L 1337 1431 L 1397 1442 Q 1404 1443 1410 1443 Q 1418 1444 1421.5 1442 Q 1425 1440 1437 1430 Q 1449 1420 1449 1349 L 1456 1186 L 1454 1123 Q 1454 1098 1448 1090 Q 1443 1085 1432 1081 Q 1421 1077 1394 1079 L 1316 1084 L 1231 1091 L 1124 1108 Q 1093 1114 1068.5 1118.5 Q 1044 1123 1010.5 1134.5 Q 977 1146 967 1141 L 952 1136 L 943 1075 Q 1029 1068 1051 1064 L 1122 1052 L 1234 1034 Z"/><path d="M 1192 839 Q 1217 852 1236 863 Q 1255 874 1259.5 884 Q 1264 894 1264.5 901.5 Q 1265 909 1252.5 937.5 Q 1240 966 1239 982 L 1234 1034 L 1231 1091 L 1224 1517 Q 1221 1646 1216 1700 Q 1211 1754 1203 1800 Q 1195 1846 1183.5 1877 Q 1172 1908 1160 1906 Q 1154 1906 1143 1896.5 Q 1132 1887 1129 1846 L 1120 1761 Q 1119 1760 1121 1580 L 1124 1108 L 1122 1052 Q 1126 946 1118 913 L 1106 859 L 1192 839 Z"/></g></g>
<g transform="translate(36,28.0) scale(0.00390625,0.00390625)"><g fill="#d5d5d5"><path d="M 735 464 Q 768 427 786 404.5 Q 804 382 832.5 339 Q 861 296 881 260.5 Q 901 225 913 194 Q 925 163 927.5 138 Q 930 113 936.5 106.5 Q 943 100 966 103 Q 986 107 1020 123.5 Q 1054 140 1074 152.5 Q 1094 165 1107.5 183 Q 1121 201 1118 211 Q 1115 218 1095.5 228.5 Q 1076 239 1057.5 253.5 Q 1039 268 1007 295 L 828 448 Q 691.5 526 735 464 Z"/><path d="M 679 890 L 677 1038 L 673 1088 L 673 1160 Q 673 1193 672.5 1204 Q 672 1215 676.5 1220.5 Q 612.75 1363.25 559 1246 Q 559 1244 564.5 1224.5 Q 570 1205 573 1174 L 579 1119 Q 581 1090 582 1060 L 581 980 L 588 655 Q 588 630 586.5 602 Q 585 574 580.5 540.5 Q 576 507 570 490 L 556 456 Q 552 441 557 432.5 Q 562 424 598 431 Q 636 440 651 448 L 690 470 L 695 543 L 690 665 L 687 711 L 682 832 L 679 890 Z"/><path d="M 828 448 Q 902 435 964 424 Q 1026 413 1084 401.5 Q 1142 390 1173.5 385 Q 1205 380 1230 371.5 Q 1255 363 1263 362 Q 1275 362 1297 371.5 Q 1319 381 1352 402 Q 1385 423 1401 440.5 Q 1417 458 1416 468 Q 1415 474 1401.5 488.5 Q 1388 503 1379 523 L 1360 568 L 1341 612 L 1285 751 L 1264 807 Q 1253 836 1238 852.5 Q 1223 869 1205 868 Q 1186 868 1177 854 L 1163 837 L 1159 789 Q 1167 787 1173 763 L 1179 729 L 1196 639 L 1202 607 L 1213 531 Q 1214 522 1218 498.5 Q 1222 475 1217 467 Q 1212 459 1177 462 Q 1155 465 1092.5 473 Q 1030 481 990 487 Q 950 493 882 506 L 767 529 L 695 543 Q 607.5 516.5 690 470 L 735 464 L 828 448 Z"/><path d="M 1196 639 L 899 692 L 840 704 Q 814 709 779.5 713 Q 745 717 729 715 L 687 711 Q 628.5 693 690 665 L 1035 587 Q 1082 577 1094.5 575.5 Q 1107 574 1131 580.5 Q 1155 587 1177 596 L 1202 607 Q 1229 633 1196 639 Z"/><path d="M 1163 837 L 1004 854 Q 985 856 948 863 Q 911 870 855 879 Q 799 888 765.5 891.5 Q 732 895 715 893 L 679 890 Q 615.5 861 682 832 L 974 784 Q 977 784 1025 775 Q 1073 766 1096 767 Q 1115 769 1134.5 780 Q 1154 791 1159 789 Q 1211 823 1163 837 Z"/><path d="M 677 1038 Q 739 1029 789.5 1020.5 Q 840 1012 882.5 1004 Q 925 996 984.5 983 Q 1044 970 1087.5 961 Q 1131 952 1144 952 Q 1157 953 1177 957 L 1219 968 Q 1246 975 1254 985 Q 1262 995 1259.5 1002.5 Q 1257 1010 1244 1012 L 904 1076 Q 875 1082 849.5 1085.5 Q 824 1089 779 1094.5 Q 734 1100 720 1096 L 673 1088 Q 610 1063 677 1038 Z"/><path d="M 676.5 1220.5 Q 681 1226 709 1219 Q 741 1212 824 1197 L 968 1171 Q 1001 1166 1140.5 1147 Q 1280 1128 1365 1118.5 Q 1450 1109 1468.5 1106.5 Q 1487 1104 1518.5 1097.5 Q 1550 1091 1563 1091 Q 1576 1092 1592.5 1099 Q 1609 1106 1651.5 1130.5 Q 1694 1155 1706 1169 Q 1718 1183 1718.5 1190.5 Q 1719 1198 1711 1216 Q 1705 1229 1696.5 1258.5 Q 1688 1288 1687 1300 L 1684 1343 L 1658 1577 Q 1651 1632 1645.5 1666.5 Q 1640 1701 1625.5 1744.5 Q 1611 1788 1594 1821 Q 1577 1854 1552 1884 Q 1527 1914 1494.5 1933.5 Q 1462 1953 1447 1947 Q 1436 1944 1414 1912.5 Q 1392 1881 1383 1868 L 1341 1819 Q 1308 1781 1302 1774 L 1263 1735 Q 1250 1723 1256.5 1718 Q 1263 1713 1272 1715 L 1325 1730 Q 1327 1731 1365.5 1743.5 Q 1404 1756 1427.5 1760.5 Q 1451 1765 1463 1760 Q 1477 1755 1491 1724 Q 1505 1693 1516 1653.5 Q 1527 1614 1533.5 1572 Q 1540 1530 1547 1457.5 Q 1554 1385 1555.5 1346.5 Q 1557 1308 1556 1243 Q 1555 1210 1545 1198 Q 1535 1186 1494 1185 Q 1454 1185 1363 1193 L 1182 1209 Q 1135 1215 1025 1231 Q 915 1247 877.5 1254.5 Q 840 1262 776.5 1279 Q 713 1296 679.5 1315.5 Q 646 1335 636.5 1338.5 Q 627 1342 618 1339 Q 606 1337 589 1313.5 Q 572 1290 565 1275 Q 558 1260 559 1246 L 676.5 1220.5 Z"/><path d="M 420 1464 L 437 1419 Q 442 1404 454 1401.5 Q 466 1399 471 1416 L 482 1460 Q 488 1486 488.5 1536.5 Q 489 1587 482 1620 Q 478 1637 456.5 1693.5 Q 435 1750 414.5 1765.5 Q 394 1781 381 1779 Q 366 1778 352 1760 Q 338 1742 331 1708.5 Q 324 1675 328 1652 Q 332 1629 356 1591 Q 380 1553 392.5 1528.5 Q 405 1504 420 1464 Z"/><path d="M 645 1430 Q 644 1417 650 1412 Q 656 1407 671 1416 L 704 1438 Q 735 1460 755 1482 Q 775 1504 789.5 1544.5 Q 804 1585 803.5 1627 Q 803 1669 787 1687.5 Q 771 1706 754 1704 Q 739 1703 725.5 1685.5 Q 712 1668 702.5 1640.5 Q 693 1613 676.5 1558 Q 660 1503 654 1472 L 645 1430 Z"/><path d="M 905 1394 Q 901 1380 907 1372.5 Q 913 1365 932 1374 L 965 1391 Q 990 1405 1020 1425 Q 1050 1445 1065 1467.5 Q 1080 1490 1089 1533.5 Q 1098 1577 1088 1608 Q 1081 1627 1066.5 1639 Q 1052 1651 1038 1649 Q 1022 1648 1003.5 1619 Q 985 1590 966 1547.5 Q 947 1505 935.5 1471 Q 924 1437 921 1430 L 905 1394 Z"/><path d="M 1204 1411 L 1188 1377 Q 1181 1364 1185.5 1357.5 Q 1190 1351 1204 1355 L 1247 1369 Q 1270 1377 1300.5 1395 Q 1331 1413 1349.5 1431.5 Q 1368 1450 1374.5 1466.5 Q 1381 1483 1382.5 1526 Q 1384 1569 1372 1585.5 Q 1360 1602 1346.5 1603.5 Q 1333 1605 1313 1583 Q 1294 1564 1272 1527 L 1235 1466 Q 1212 1429 1204 1411 Z"/></g></g>
<g transform="translate(52,28.0) scale(0.00390625,0.00390625)"><g fill="#d5d5d5"><path d="M 1025 431 Q 1009 419 999.5 409.5 Q 990 400 971.5 376 Q 953 352 944 339.5 Q 935 327 909.5 287.5 Q 884 248 873.5 226.5 Q 863 205 868.5 197.5 Q 874 190 900 192 Q 917 194 949 203 Q 981 212 1012.5 224.5 Q 1044 237 1069 259 Q 1094 281 1103.5 303 Q 1113 325 1112 348 Q 1110 371 1100 392 L 1086 422 Q 1059.5 456.5 1025 431 Z"/><path d="M 1086 422 L 1209 406 L 1306 394 L 1388 379 L 1443 372 Q 1497 362 1501 361 Q 1518 361 1546 371 Q 1574 381 1607.5 397.5 Q 1641 414 1654 430.5 Q 1667 447 1665 456 Q 1662 469 1646.5 474 Q 1631 479 1579 481 L 1375 489 Q 1338 491 1217 501 L 953 523 Q 848 534 749 550 L 597 576 Q 526 587 498.5 593.5 Q 471 600 460 600 Q 439 601 415 593.5 Q 391 586 366 574 Q 341 562 323.5 548.5 Q 306 535 308 525 Q 309 519 315 514.5 Q 321 510 333.5 509.5 Q 346 509 374 505 Q 402 501 463 494 L 1025 431 L 1086 422 Z"/><path d="M 496 1073 Q 472 1098 439 1131 Q 406 1164 357 1200 Q 308 1236 254 1269 Q 200 1302 174 1313 L 140 1327 Q 120 1336 115.5 1328 Q 111 1320 123 1310 L 155 1285 Q 178 1267 216.5 1232 Q 255 1197 303 1147.5 Q 351 1098 402.5 1035 Q 454 972 491 917.5 Q 528 863 552.5 817 Q 577 771 587 744.5 Q 597 718 596.5 686 Q 596 654 602 646.5 Q 608 639 619 634.5 Q 630 630 656 643 Q 683 658 708.5 679.5 Q 734 701 749 725 Q 764 749 760 761 Q 757 769 732 786.5 Q 707 804 677 843 L 605 943 L 555 1007 L 496 1073 Z"/><path d="M 555 1007 Q 568 1024 584.5 1044 Q 601 1064 609 1079 Q 617 1094 618.5 1109 Q 620 1124 607 1188 Q 601 1216 599.5 1281.5 Q 598 1347 592 1431 Q 586 1515 580 1575 Q 574 1635 567 1693.5 Q 560 1752 556 1769 Q 552 1786 542.5 1814 Q 533 1842 521.5 1851.5 Q 510 1861 494 1857 Q 477 1854 457.5 1813 Q 438 1772 428.5 1743 Q 419 1714 424 1691 Q 425 1682 438.5 1655.5 Q 452 1629 464.5 1590 Q 477 1551 484 1513.5 Q 491 1476 496 1421 L 507 1279 Q 512 1210 513 1182 Q 513 1131 507 1110 L 496 1073 L 555 1007 Z"/><path d="M 836 1174 L 735 1246 Q 718 1258 711 1249.5 Q 704 1241 716 1227 L 733 1207 Q 740 1199 763 1169 L 848 1061 Q 882 1015 923.5 950 Q 965 885 992 835 Q 1019 785 1034.5 746.5 Q 1050 708 1057 676 L 1065 628 Q 1068 607 1075.5 602.5 Q 1083 598 1102 602 Q 1118 607 1154 627 Q 1190 647 1211.5 666.5 Q 1233 686 1228 702 Q 1225 710 1209 723.5 Q 1193 737 1191 739 L 1179 754 L 1159 779 L 1112 843 Q 1093 868 1082 883 Q 1071 898 1067 904 L 1036 951 L 1009 987 Q 979 1023 963.5 1040.5 Q 948 1058 942 1065 L 886 1127 L 836 1174 Z"/><path d="M 1159 779 Q 1220 766 1262 754.5 Q 1304 743 1331 732 Q 1358 721 1383.5 710 Q 1409 699 1419 697 Q 1435 695 1468 708.5 Q 1501 722 1518 729.5 Q 1535 737 1561 753.5 Q 1587 770 1587.5 784 Q 1588 798 1576 815 L 1554 843 Q 1540 861 1519.5 897.5 Q 1499 934 1483 965 L 1421 1092 Q 1386 1160 1355 1208 Q 1324 1256 1264 1340 L 1223 1397 L 1154 1468 Q 1117 1499 1079.5 1527.5 Q 1042 1556 984.5 1586 Q 927 1616 865 1637 Q 803 1658 749 1669 L 656 1688 Q 627 1694 627.5 1679 Q 628 1664 650 1654 L 724 1621 Q 788 1593 841 1564.5 Q 894 1536 949.5 1498.5 Q 1005 1461 1035 1433 L 1080 1392 L 1147 1325 Q 1164 1303 1186 1274 Q 1208 1245 1216 1232 L 1250 1178 L 1269 1147 Q 1291 1106 1314 1061 Q 1337 1016 1358 968 Q 1379 920 1392 884 Q 1405 848 1405.5 828.5 Q 1406 809 1399 803 Q 1392 797 1371 800 Q 1357 803 1305.5 816 Q 1254 829 1203 836.5 Q 1152 844 1136 843 L 1112 843 L 1159 779 Z"/><path d="M 1250 1178 Q 1218 1171 1196 1161.5 Q 1174 1152 1135.5 1116.5 Q 1097 1081 1079 1062 Q 1061 1043 1044 1024 L 1009 987 L 1036 951 Q 1066 959 1082 962.5 Q 1098 966 1130 975 Q 1162 984 1195 1004.5 Q 1228 1025 1243 1048.5 Q 1258 1072 1261 1092 L 1269 1147 L 1250 1178 Z"/><path d="M 1080 1392 Q 1052 1360 1025.5 1329 Q 999 1298 972.5 1273 Q 946 1248 908 1218 Q 870 1188 856 1182 L 836 1174 L 886 1127 Q 905 1130 921 1134.5 Q 937 1139 964 1161.5 Q 991 1184 1039 1230.5 Q 1087 1277 1102 1288 L 1147 1325 L 1223 1397 Q 1267 1432 1310.5 1463 Q 1354 1494 1413 1525.5 Q 1472 1557 1539.5 1581 Q 1607 1605 1676 1621 Q 1745 1637 1798.5 1647.5 Q 1852 1658 1872 1663 L 1915 1674 Q 1933 1679 1932 1691.5 Q 1931 1704 1912 1710 L 1863 1727 Q 1840 1735 1774 1746 L 1676 1763 Q 1639 1769 1601 1771 Q 1546 1775 1509.5 1767.5 Q 1473 1760 1438 1737.5 Q 1403 1715 1352.5 1668.5 Q 1302 1622 1265.5 1587.5 Q 1229 1553 1200 1519 L 1154 1468 L 1080 1392 Z"/></g></g>
<g transform="translate(60,28.0) scale(0.00390625,0.00390625)"><g fill="#d5d5d5"><path d="M 857 523 L 659 546 Q 620 551 569.5 552.5 Q 519 554 493 549 Q 467 544 443.5 528.5 Q 420 513 419.5 505.5 Q 419 498 425.5 492.5 Q 432 487 455 484 L 526 476 L 660 461 Q 672 460 764 446 L 819 438 L 858 432 L 978 410 Q 1028 402 1062 395 Q 1096 388 1137.5 377.5 Q 1179 367 1205.5 358.5 Q 1232 350 1244 349 Q 1266 348 1310 363.5 Q 1354 379 1367.5 397.5 Q 1381 416 1379 425 Q 1376 434 1363.5 440.5 Q 1351 447 1318 454 L 1247 470 Q 1232 474 1197.5 478 Q 1163 482 1105.5 491.5 Q 1048 501 1045 501 L 975 509 L 857 523 Z"/><path d="M 958 1121 L 954 1477 Q 953 1496 956.5 1575.5 Q 960 1655 963.5 1696.5 Q 967 1738 967 1753 Q 965 1775 959.5 1796.5 Q 954 1818 942.5 1856 Q 931 1894 914 1915 Q 897 1936 883.5 1936.5 Q 870 1937 852 1915 Q 831 1890 821.5 1851 Q 812 1812 808 1788 Q 804 1764 805 1749 Q 805 1738 813.5 1707 Q 822 1676 830 1626 Q 838 1576 841.5 1541 Q 845 1506 847 1443 L 854 1173 L 855 976 L 857 523 L 858 432 L 859 394 Q 860 338 857 303 Q 854 268 848 233 Q 842 198 832 175 Q 822 152 820 141 Q 818 130 825.5 121.5 Q 833 113 856 114 Q 871 115 890.5 120 Q 910 125 933.5 135.5 Q 957 146 977.5 157.5 Q 998 169 1007 182.5 Q 1016 196 1016 208 Q 1015 215 1006 234 Q 997 253 992 278 Q 987 303 984.5 324 Q 982 345 980 383 L 978 410 L 975 509 L 960 1025 L 958 1121 Z"/><path d="M 534 880 Q 502 924 484.5 945.5 Q 467 967 436 1001.5 Q 405 1036 378.5 1060.5 Q 352 1085 320 1108 Q 288 1131 262 1142 L 235 1154 Q 227 1158 222 1151.5 Q 217 1145 221 1140 L 240 1118 L 283 1072 Q 294 1060 343 996 Q 392 932 407.5 909.5 Q 423 887 448 842.5 Q 473 798 484 771.5 Q 495 745 500.5 722 Q 506 699 507.5 683 Q 509 667 508.5 647 Q 508 627 514.5 620 Q 521 613 535 612 Q 547 612 572 623 Q 597 634 610 642.5 Q 623 651 637.5 664.5 Q 652 678 656.5 689.5 Q 661 701 659 710 Q 657 717 650 727 L 613 770 L 555 840 L 534 880 Z"/><path d="M 555 840 Q 603 850 620.5 856.5 Q 638 863 666.5 876 Q 695 889 706 898.5 Q 717 908 729.5 934.5 Q 742 961 738 997 Q 736 1012 727.5 1030.5 Q 719 1049 705 1051 Q 696 1053 678 1045 Q 660 1037 645.5 1026.5 Q 631 1016 600 972 L 555 910 L 534 880 L 555 840 Z"/><path d="M 1240 856 Q 1197 900 1167.5 929 Q 1138 958 1113 977 L 1068 1010 L 1050 1025 Q 1029 1043 1020 1031.5 Q 1011 1020 1020 1010 L 1038 988 L 1072 947 Q 1108 902 1142.5 849 Q 1177 796 1199.5 754.5 Q 1222 713 1237.5 670.5 Q 1253 628 1256 604 Q 1259 580 1260.5 550.5 Q 1262 521 1268.5 512.5 Q 1275 504 1309 513 Q 1336 521 1363.5 539.5 Q 1391 558 1402.5 573.5 Q 1414 589 1413 602 Q 1411 613 1398 628 L 1377 650 Q 1360 668 1340 701 L 1308 754 L 1266 821 L 1240 856 Z"/><path d="M 1266 821 Q 1304 834 1344.5 846 Q 1385 858 1412.5 867 Q 1440 876 1469.5 894 Q 1499 912 1512 930.5 Q 1525 949 1532.5 977.5 Q 1540 1006 1532.5 1029 Q 1525 1052 1509 1060.5 Q 1493 1069 1462 1054 Q 1434 1042 1391 1000 Q 1348 958 1319 929 Q 1290 900 1288 897 L 1240 856 L 1266 821 Z"/><path d="M 854 1173 Q 833 1201 823 1216 Q 813 1231 789 1263.5 Q 765 1296 707.5 1358.5 Q 650 1421 604 1463.5 Q 558 1506 496.5 1548.5 Q 435 1591 369.5 1625.5 Q 304 1660 268 1675.5 Q 232 1691 204 1699 L 182 1706 Q 163 1712 159.5 1699.5 Q 156 1687 166 1680 L 189 1665 L 230 1640 Q 269 1617 329 1571.5 Q 389 1526 442.5 1480.5 Q 496 1435 537.5 1392.5 Q 579 1350 661 1252 Q 743 1154 760 1125 L 855 976 L 854 1173 Z"/><path d="M 960 1025 Q 1063 1118 1140.5 1187 Q 1218 1256 1275.5 1299.5 Q 1333 1343 1409 1386.5 Q 1485 1430 1547.5 1456 Q 1610 1482 1688 1510.5 Q 1766 1539 1804.5 1549 Q 1843 1559 1851 1562 L 1872 1571 Q 1886 1578 1888.5 1589.5 Q 1891 1601 1862 1607 L 1820 1616 Q 1783 1624 1752 1627.5 Q 1721 1631 1651 1637.5 Q 1581 1644 1553 1645 Q 1479 1648 1443.5 1635 Q 1408 1622 1384.5 1604.5 Q 1361 1587 1332.5 1557.5 Q 1304 1528 1246 1461.5 Q 1188 1395 1162 1363 L 1065 1245 L 958 1121 L 960 1025 Z"/></g></g>
<g transform="translate(68,28.0) scale(0.00390625,0.00390625)"><g fill="#d5d5d5"><path d="M 538 455 L 523 909 Q 517 1070 493 1193.5 Q 469 1317 425.5 1404 Q 382 1491 346.5 1532 Q 311 1573 248.5 1630 Q 186 1687 137 1712 L 104 1729 Q 91 1736 83 1725.5 Q 75 1715 89 1701 L 115 1676 Q 146 1647 203 1569.5 Q 260 1492 300 1420 Q 340 1348 364 1264.5 Q 388 1181 398 1086 Q 408 991 414 880 Q 420 769 419 708 Q 417 624 405.5 544 Q 394 464 384 442 L 354 392 Q 344 374 348 365.5 Q 352 357 379 353 Q 412 349 437 355 L 504 370 Q 553 386.5 538 455 Z"/><path d="M 504 370 L 821 336 Q 1104 306 1156.5 299 Q 1209 292 1265.5 280 Q 1322 268 1362 253 Q 1402 238 1418 237 Q 1441 236 1487 254.5 Q 1533 273 1561 289.5 Q 1589 306 1601.5 324 Q 1614 342 1614 355 Q 1613 364 1591 393.5 Q 1569 423 1556 483 L 1516 659 Q 1501 737 1492.5 826 Q 1484 915 1483 981 Q 1482 1047 1489 1126 Q 1496 1228 1516.5 1299.5 Q 1537 1371 1583 1453.5 Q 1629 1536 1688.5 1584 Q 1748 1632 1780 1616 Q 1801 1607 1812 1573.5 Q 1823 1540 1836.5 1473.5 Q 1850 1407 1851 1404 L 1860 1347 Q 1862 1330 1879.5 1327 Q 1897 1324 1900 1362 L 1903 1407 Q 1904 1430 1906.5 1481 Q 1909 1532 1912 1561 Q 1915 1590 1921.5 1629.5 Q 1928 1669 1933 1686.5 Q 1938 1704 1952.5 1740.5 Q 1967 1777 1963 1786 Q 1959 1794 1944 1804 Q 1929 1814 1895 1813 Q 1835 1812 1763.5 1780 Q 1692 1748 1626 1686 Q 1560 1624 1507 1533 Q 1454 1442 1427 1341.5 Q 1400 1241 1391.5 1152 Q 1383 1063 1384 959 Q 1384 882 1387.5 797.5 Q 1391 713 1402 599.5 Q 1413 486 1414.5 456 Q 1416 426 1419.5 403.5 Q 1423 381 1417 371 Q 1411 361 1380 358 Q 1356 356 1311 361 L 1230 369 L 1063 389 L 776 422 L 538 455 L 504 370 Z"/><path d="M 828 757 L 781 765 Q 747 771 715.5 766 Q 684 761 662 752 Q 640 743 630 732 Q 620 721 623 711 Q 626 701 653 698 L 710 692 Q 727 691 803.5 678 Q 880 665 898 660 L 968 642 Q 1022 629 1027 627 L 1068 615 Q 1082 611 1102 613 L 1147 621 Q 1208 631 1223.5 643 Q 1239 655 1239 665 Q 1238 676 1227 683 Q 1216 690 1170 698 L 937 739 L 828 757 Z"/><path d="M 755 1279 Q 752 1300 748.5 1310.5 Q 745 1321 738.5 1325 Q 732 1329 721 1323 Q 709 1318 700 1298.5 Q 691 1279 689 1273 Q 687 1267 683 1238 L 656 1071 Q 652 1048 644.5 1031 Q 637 1014 625 1000 Q 613 986 608.5 979.5 Q 604 973 606.5 967 Q 609 961 625 960 L 651 963 L 682 966 Q 733.5 973.5 735 1015 L 740 1087 L 751 1212 Q 755 1245.5 755 1279 Z"/><path d="M 980 925 L 985 923 Q 1037 917 1067 910.5 Q 1097 904 1131.5 893 Q 1166 882 1180 881 Q 1197 881 1211.5 887 Q 1226 893 1258.5 910.5 Q 1291 928 1301.5 940.5 Q 1312 953 1311 961 Q 1310 969 1289 989 Q 1268 1009 1252 1054 L 1200 1198 Q 1116 1296.5 1124 1167 L 1148 1028 Q 1154 988 1150.5 980 Q 1147 972 1138 968.5 Q 1129 965 1090 968 L 983 977 L 873 996 L 735 1015 L 682 966 L 870 947 L 980 925 Z"/><path d="M 1200 1198 Q 1217 1209 1224 1219 Q 1231 1229 1228.5 1234.5 Q 1226 1240 1207 1241 L 976 1258 L 879 1271 L 755 1279 L 751 1212 L 877 1199 L 977 1184 L 1124 1167 L 1200 1198 Z"/><path d="M 937 739 Q 968 752 987 766 Q 1006 780 1007 790.5 Q 1008 801 999 823 Q 990 845 985 888 L 980 925 L 985 923 L 983 977 L 977 1184 L 976 1258 L 972 1471 Q 918.5 1621 885 1487 L 879 1271 L 877 1199 L 873 996 L 870 947 L 865 880 Q 860 823 851 805 L 828 757 L 937 739 Z"/><path d="M 972 1471 L 1166 1434 Q 1390 1400.5 1198 1487 L 848 1578 Q 791 1593 744 1612 L 672 1641 Q 653 1648 642 1648 Q 626 1649 611.5 1641 Q 597 1633 559 1606 Q 521 1579 511.5 1555.5 Q 502 1532 507.5 1522.5 Q 513 1513 547.5 1518 Q 582 1523 610 1523 Q 634 1524 655 1521 L 729 1510 L 885 1487 L 972 1471 Z"/><path d="M 1166 1434 L 1116 1361 Q 1107 1349 1113.5 1341.5 Q 1120 1334 1130 1337 L 1151 1344 Q 1164 1349 1211 1374 Q 1258 1399 1274 1408.5 Q 1290 1418 1309.5 1439.5 Q 1329 1461 1340.5 1486 Q 1352 1511 1356.5 1543 Q 1361 1575 1346 1603.5 Q 1331 1632 1314 1632.5 Q 1297 1633 1277.5 1614 Q 1258 1595 1237 1557 L 1198 1487 L 1166 1434 Z"/></g></g>
<g transform="translate(76,28.0) scale(0.00390625,0.00390625)"><g fill="#d5d5d5"><path d="M 907 440 Q 855 448 829 450 L 709 461 L 639 468 Q 605 471 584 470 Q 541 469 507.5 458 Q 474 447 459 429 Q 444 411 452 403 Q 460 395 480 393 L 521 390 L 582 385 L 680 378 Q 722 375 846.5 359.5 Q 971 344 1030 336 Q 1089 328 1176.5 313.5 Q 1264 299 1308 289 L 1347 281 Q 1403 270 1419.5 270.5 Q 1436 271 1465.5 281.5 Q 1495 292 1520 311 Q 1545 330 1542 342 Q 1539 352 1527 356 Q 1515 360 1468 367 L 1394 378 L 1307 391 L 1177 405 L 1091 416 L 1006 427 L 907 440 Z"/><path d="M 406 871 Q 402 895 400 914.5 Q 398 934 403 988 L 439 1437 Q 441 1466 438 1502 Q 435 1538 430 1570.5 Q 425 1603 414.5 1619 Q 404 1635 393 1635.5 Q 382 1636 369 1621 Q 352 1605 336 1573.5 Q 320 1542 315 1529.5 Q 310 1517 305.5 1499 Q 301 1481 302 1466 Q 302 1462 306.5 1437 Q 311 1412 313.5 1356.5 Q 316 1301 316.5 1282 Q 317 1263 313 1198 L 299 1007 Q 291 912 285 883.5 Q 279 855 263 826 L 244 795 Q 230 769 235.5 763.5 Q 241 758 255.5 756 Q 270 754 291 756 Q 329 762 344 771 L 391 799 L 406 871 Z"/><path d="M 391 799 Q 435 795 458 791 L 557 776 L 750 752 L 945 727 L 1053 714 Q 1104 708 1189 697.5 Q 1274 687 1280 686 L 1454 656 Q 1529 644 1554 637 Q 1579 630 1603.5 619.5 Q 1628 609 1638 609 Q 1649 610 1675 629 L 1733 671 Q 1767 697 1789.5 723.5 Q 1812 750 1810 765 Q 1808 774 1791 796.5 Q 1774 819 1766.5 840 Q 1759 861 1750 914.5 Q 1741 968 1739 990 L 1711 1310 Q 1706 1358 1698 1415 Q 1690 1472 1676 1523 Q 1662 1574 1642.5 1615.5 Q 1623 1657 1595.5 1696 Q 1568 1735 1533 1762 Q 1498 1789 1477 1779 Q 1465 1775 1450 1749 L 1421 1701 Q 1417 1695 1380 1642 L 1344 1590 Q 1330 1572 1302 1535 L 1282 1509 Q 1267 1490 1273.5 1482 Q 1280 1474 1299 1483 L 1335 1501 L 1391 1533 Q 1408 1543 1446.5 1558 Q 1485 1573 1502 1568 Q 1522 1563 1541 1527.5 Q 1560 1492 1567.5 1463.5 Q 1575 1435 1586 1353.5 Q 1597 1272 1600 1238 L 1622 959 Q 1622 959 1622.5 885 Q 1623 811 1621 796 Q 1616 771 1603.5 758 Q 1591 745 1560.5 741 Q 1530 737 1475 740 Q 1315 751 1291 753 L 1146 767 L 1054 775 L 944 788 Q 818 806 713.5 820 Q 609 834 546.5 843.5 Q 484 853 445 862 L 406 871 L 391 799 Z"/><path d="M 945 727 L 945 686 Q 945 642 942 594 Q 939 546 933.5 518.5 Q 928 491 921 474 L 907 440 L 1006 427 Q 1039 437 1053 445 Q 1067 453 1077.5 464.5 Q 1088 476 1088.5 486 Q 1089 496 1082 511 Q 1072 532 1067 544 Q 1062 556 1058.5 585 Q 1055 614 1054 665 L 1053 714 L 1054 775 L 1046 1352 Q 1045 1374 1036.5 1423 Q 1028 1472 1022.5 1494 Q 1017 1516 1004 1531 Q 991 1546 979 1545 Q 969 1545 954 1527 Q 939 1509 930.5 1484.5 Q 922 1460 915 1437 Q 908 1414 905 1399 Q 902 1384 905 1367 Q 905 1362 913.5 1335.5 Q 922 1309 928 1267 Q 934 1225 937.5 1191.5 Q 941 1158 942 1102 L 944 788 L 945 727 Z"/><path d="M 608 914 L 629 919 Q 662 928 680 933.5 Q 698 939 724 951.5 Q 750 964 761.5 980 Q 773 996 777 1029.5 Q 781 1063 770.5 1084 Q 760 1105 741 1107.5 Q 722 1110 697 1087 Q 675 1070 653 1042 Q 631 1014 621.5 1000 Q 612 986 601 968 L 585 943 Q 573 925 576 920.5 Q 579 916 587.5 914 Q 596 912 608 914 Z"/><path d="M 770 1189 L 814 1169 Q 834 1160 840.5 1169 Q 847 1178 830 1194 L 809 1214 L 774 1248 Q 738 1283 703 1313 Q 668 1343 658 1353 L 622 1392 Q 607 1408 596 1410 Q 585 1412 567 1399 Q 547 1387 525.5 1360.5 Q 504 1334 494.5 1317 Q 485 1300 488 1291 Q 489 1283 495 1279 Q 501 1275 514 1274.5 Q 527 1274 545 1271 L 571 1267 Q 590 1264 622.5 1253 Q 655 1242 677 1233.5 Q 699 1225 718 1215 L 770 1189 Z"/><path d="M 1216 1077 L 1195 1085 Q 1179 1091 1175.5 1082.5 Q 1172 1074 1183 1062 L 1203 1040 Q 1227 1014 1239 999.5 Q 1251 985 1276.5 951 Q 1302 917 1310.5 900 Q 1319 883 1324.5 862.5 Q 1330 842 1337 837 Q 1344 832 1367 839 Q 1395 849 1418.5 869 Q 1442 889 1460.5 916 Q 1479 943 1473 956 Q 1468 965 1455 970 L 1421 978 Q 1406 982 1381 994 L 1313 1029 L 1247 1062 Q 1224 1074 1216 1077 Z"/><path d="M 1161 1210 L 1145 1191 Q 1135 1180 1141 1172 Q 1147 1164 1167 1169 L 1194 1177 Q 1222 1186 1253 1198 Q 1284 1210 1315 1227.5 Q 1346 1245 1373.5 1266.5 Q 1401 1288 1412 1309 Q 1423 1330 1422.5 1365 Q 1422 1400 1407.5 1418 Q 1393 1436 1373 1435 Q 1355 1435 1336.5 1416.5 Q 1318 1398 1295 1369 L 1235 1298 L 1188 1241 L 1161 1210 Z"/></g></g>
<g transform="translate(20,36.0) scale(0.00390625,0.00390625)"><g fill="#d5d5d5"><path d="M 719 285 L 776 270 L 828 256 Q 845 255 867 260 Q 889 265 917 274.5 Q 945 284 950.5 290.5 Q 956 297 955 305 Q 953 312 944.5 317.5 Q 936 323 932 323 L 715 363 L 622 380 L 513 397 L 459 406 Q 442 406 419.5 398 Q 397 390 382 380 Q 367 370 367.5 357.5 Q 368 345 384 343 L 413 340 Q 438 338 455 335 L 539 320 L 616 308 L 719 285 Z"/><path d="M 616 308 L 614 233 Q 613 199 607 170 Q 601 141 592 124.5 Q 583 108 582.5 100 Q 582 92 589 85 Q 596 78 614 77 Q 628 77 667.5 88 Q 707 99 723 111 Q 739 123 741 134 Q 743 145 735.5 167 Q 728 189 724 234 L 719 285 L 715 363 L 708 478 Q 674 531.5 628 497 L 622 380 L 616 308 Z"/><path d="M 708 478 L 768 465 Q 791 460 800 460.5 Q 809 461 820.5 463.5 Q 832 466 857.5 477 Q 883 488 887.5 498 Q 892 508 888 513 Q 885 517 876.5 518.5 Q 868 520 847.5 521 Q 827 522 811 524 Q 795 526 745 532 Q 695 538 657.5 543 Q 620 548 587 557 L 539 572 Q 514 580 501 578 Q 493 578 469.5 568.5 Q 446 559 437.5 551.5 Q 429 544 430 537 Q 431 530 448 527 L 497 520 Q 561 511 565 510 L 628 497 L 708 478 Z"/><path d="M 458 672 L 658 640 Q 674 638 732 627.5 Q 790 617 815.5 607 Q 841 597 848 596 Q 866 595 891.5 612 Q 917 629 939.5 648.5 Q 962 668 969 681 Q 976 694 976 700 Q 975 708 955 724 Q 935 740 925 759 L 891 824 Q 847.5 853 816 806 L 831 745 Q 839 711 832.5 700.5 Q 826 690 809 685 Q 794 682 760 684 L 704 689 L 613 702 Q 553 714 539 717 L 487 730 Q 440.5 709 458 672 Z"/><path d="M 604 847 Q 607 787 608 774 L 613 702 L 704 689 Q 701 723 701 726 L 694 830 Q 651 884.5 604 847 Z"/><path d="M 891 824 Q 902 832 908 837.5 Q 914 843 918.5 852 Q 923 861 920 870 Q 917 879 882 880 L 819 882 Q 806 883 769 888 L 694 898 L 600 913 Q 543 922 520 923 L 469 926 Q 438 893.5 479 865 Q 517 861 522 860 L 604 847 L 694 830 Q 720 824 743 817.5 Q 766 811 779 808.5 Q 792 806 804 806 L 816 806 L 891 824 Z"/><path d="M 469 926 Q 462 955 453.5 989 Q 445 1023 425 1068.5 Q 405 1114 378 1153 Q 351 1192 328 1216 Q 305 1240 279 1259 Q 253 1278 225.5 1294.5 Q 198 1311 183 1317 L 163 1325 Q 152 1330 148.5 1322 Q 145 1314 153 1306 L 174 1288 Q 185 1279 205.5 1258.5 Q 226 1238 244.5 1217.5 Q 263 1197 283 1168.5 Q 303 1140 321.5 1104 Q 340 1068 353.5 1027.5 Q 367 987 376.5 944.5 Q 386 902 387.5 876 Q 389 850 387 793 Q 385 761 382 746.5 Q 379 732 369.5 711.5 Q 360 691 358 682 Q 356 673 360 667.5 Q 364 662 371 659 Q 381 656 402.5 662 Q 424 668 431 668 L 458 672 L 487 730 Q 487 791 486 804 L 479 865 L 469 926 Z"/><path d="M 1125 267 Q 1123 308 1121.5 346 Q 1120 384 1112.5 422.5 Q 1105 461 1089 494.5 Q 1073 528 1046 552.5 Q 1019 577 996 588 L 975 598 Q 960 606 958 598 Q 956 590 960 584 L 978 561 Q 995 539 1011 505.5 Q 1027 472 1033 442.5 Q 1039 413 1041.5 366.5 Q 1044 320 1044 296 Q 1042 252 1025.5 230 Q 1009 208 1007 203.5 Q 1005 199 1008 193 Q 1011 187 1027 186 Q 1039 186 1069.5 195 Q 1100 204 1103 205 L 1127 216 L 1125 267 Z"/><path d="M 1127 216 L 1183 196 Q 1205 188 1231.5 177 Q 1258 166 1273 156.5 Q 1288 147 1298.5 143 Q 1309 139 1345 151 Q 1365 159 1393.5 172.5 Q 1422 186 1435.5 199.5 Q 1449 213 1448 223 Q 1447 231 1429.5 247 Q 1412 263 1405 272 Q 1398 281 1388 323.5 Q 1378 366 1391.5 387 Q 1405 408 1428 412 Q 1441 415 1472 406.5 Q 1503 398 1522 391 Q 1541 384 1548 382 Q 1562 380 1586 384.5 Q 1610 389 1632 399 Q 1654 409 1661.5 423.5 Q 1669 438 1667 449 Q 1663 465 1642.5 476 Q 1622 487 1585.5 493 Q 1549 499 1497 499 Q 1422 501 1376.5 481 Q 1331 461 1321 437 Q 1311 413 1307 371.5 Q 1303 330 1303 326 L 1304 266 Q 1303 252 1297.5 243.5 Q 1292 235 1260 237 Q 1259 238 1190 252 L 1125 267 L 1127 216 Z"/><path d="M 1023 659.5 Q 1010 647 1005.5 637.5 Q 1001 628 1004 623 Q 1006 619 1021 616 L 1066 606 L 1121 595 Q 1135 592 1189.5 577 Q 1244 562 1260 556 L 1327 531 Q 1347 525 1360 524 Q 1368 524 1418 542.5 Q 1468 561 1481 572 Q 1494 583 1492 595 Q 1490 602 1485.5 606.5 Q 1481 611 1463 623.5 Q 1445 636 1429 655 L 1366 743 L 1323 791 L 1257 848 Q 1229 863 1203.5 877 Q 1178 891 1154.5 902 Q 1131 913 1093.5 922.5 Q 1056 932 1026.5 936 Q 997 940 970 941 L 944 942 Q 935 943 931.5 935 Q 928 927 943 922 L 976 913 Q 1013 903 1028 898.5 Q 1043 894 1072.5 880 Q 1102 866 1132.5 849.5 Q 1163 833 1177 822 L 1202 804 L 1255 752 Q 1293 717 1303.5 700.5 Q 1314 684 1322.5 665.5 Q 1331 647 1333 635.5 Q 1335 624 1330.5 618 Q 1326 612 1320 611 Q 1314 610 1298 614 L 1268 623 Q 1259 626 1217 633 L 1174 641 L 1136 646 L 1096 652 Q 1059.5 661.75 1023 659.5 Z"/><path d="M 1202 804 L 1147 756 Q 1127 739 1081.5 705.5 Q 1036 672 1023 659.5 L 1096 652 Q 1131 676 1149 687 L 1192 713 L 1255 752 L 1323 791 Q 1359 814 1388.5 829 Q 1418 844 1493 868 Q 1568 892 1604 901.5 Q 1640 911 1717 924.5 Q 1794 938 1823.5 941.5 Q 1853 945 1864 947 L 1889 953 Q 1899 956 1899.5 966.5 Q 1900 977 1887 981 L 1852 993 Q 1837 998 1799.5 1007.5 Q 1762 1017 1709.5 1032 Q 1657 1047 1628.5 1052 Q 1600 1057 1575 1056 Q 1538 1055 1508 1042 Q 1478 1029 1424.5 987.5 Q 1371 946 1355 931 L 1257 848 L 1202 804 Z"/><path d="M 652 1121 Q 633 1120 606.5 1118 Q 580 1116 551.5 1105.5 Q 523 1095 524 1081 Q 524 1073 531 1066 Q 538 1059 559 1057 L 603 1053 L 732 1042 Q 784 1038 850 1029 L 999 1010 Q 1102 998 1141 990 L 1199 979 L 1255 968 Q 1267 968 1287 972.5 Q 1307 977 1329 984 Q 1351 991 1363.5 998.5 Q 1376 1006 1376.5 1012 Q 1377 1018 1374 1023 Q 1367 1034 1343 1040 Q 1319 1046 1292 1049 L 1170 1065 L 1074 1076 Q 930 1096 891 1098 L 790 1106 L 652 1121 Z"/><path d="M 692 1546 L 679 1259 Q 677 1228 672.5 1193.5 Q 668 1159 663 1147 L 652 1121 L 790 1106 Q 805 1129 805.5 1138.5 Q 806 1148 798.5 1167.5 Q 791 1187 791 1193 L 788 1217 L 789 1264 Q 786 1317 786 1328 L 784 1380 L 780 1425 L 780 1536 Q 730 1583 692 1546 Z"/><path d="M 1170 1065 Q 1199 1078 1206.5 1088 Q 1214 1098 1214.5 1104 Q 1215 1110 1203 1132 Q 1191 1154 1191 1208 L 1188 1503 L 1183 1578 L 1176 1764 Q 1174 1795 1166 1851.5 Q 1158 1908 1143 1940 L 1133 1961 Q 1127 1973 1119 1972.5 Q 1111 1972 1108 1961 L 1103 1944 Q 1096 1921 1092.5 1868 Q 1089 1815 1089 1780 L 1089 1581 L 1090 1512 L 1092 1388 L 1093 1357 L 1092 1225 L 1088 1196 Q 1086 1137 1083 1121 L 1074 1076 L 1170 1065 Z"/><path d="M 1092 1225 Q 1077 1228 1054.5 1232 Q 1032 1236 1019 1238 L 940 1249 L 874 1259 Q 836 1265 823 1264 L 789 1264 L 788 1217 Q 822 1212 856.5 1205.5 Q 891 1199 934 1188.5 Q 977 1178 997 1177 Q 1009 1177 1033.5 1180 Q 1058 1183 1068 1187 L 1088 1196 L 1092 1225 Z"/><path d="M 1092 1388 Q 1062 1394 1047 1396 L 1002 1402 L 946 1411 Q 906 1418 862 1422.5 Q 818 1427 810 1426 L 780 1425 L 784 1380 Q 820 1375 838 1371 L 891 1360 Q 945 1350 969.5 1344 Q 994 1338 1004 1337 Q 1018 1337 1038.5 1341.5 Q 1059 1346 1070 1349 L 1093 1357 L 1092 1388 Z"/><path d="M 1188 1503 Q 1268 1492 1331 1486.5 Q 1394 1481 1412 1477 L 1473 1466 Q 1510 1460 1525 1460.5 Q 1540 1461 1580 1476 Q 1620 1491 1641.5 1501.5 Q 1663 1512 1678 1529 Q 1693 1546 1690 1557.5 Q 1687 1569 1674.5 1577 Q 1662 1585 1629 1584 L 1557 1584 L 1427 1578 L 1183 1578 L 1089 1581 L 836 1603 Q 767 1609 714.5 1617 Q 662 1625 576.5 1638 Q 491 1651 456.5 1661 Q 422 1671 411 1671 Q 386 1673 353 1661 L 296 1638 Q 263 1627 253.5 1612 Q 244 1597 251 1588 Q 254 1583 266 1580.5 Q 278 1578 304 1577 L 359 1576 Q 384 1576 469 1567 L 628 1553 L 692 1546 L 780 1536 L 1090 1512 L 1188 1503 Z"/></g></g>
<g transform="translate(36,36.0) scale(0.00390625,0.00390625)"><g fill="#d5d5d5"><path d="M 755 516 L 778 634 Q 780 648 773 671 Q 766 694 755.5 698 Q 745 702 729.5 688 Q 714 674 705 647 L 670 543 L 642 469 Q 635 452 631 442.5 Q 627 433 611 397 Q 595 361 586 342 Q 577 323 562.5 305.5 Q 548 288 542 275.5 Q 536 263 543.5 251.5 Q 551 240 570 236 Q 587 233 629 239 L 669 245 Q 690 249 700.5 253.5 Q 711 258 719 265 Q 727 272 731 280 L 730 322 L 739 431 L 743 452 L 755 516 Z"/><path d="M 743 452 L 887 429 Q 912 426 917 440 Q 922 454 914 461.5 Q 906 469 898 471 L 755 516 L 670 543 L 550 580 Q 514 591 495.5 600.5 Q 477 610 459.5 620 Q 442 630 436 631 Q 427 633 408 626.5 Q 389 620 370.5 604 Q 352 588 335 568 Q 318 548 309.5 533.5 Q 301 519 302.5 510.5 Q 304 502 308 498.5 Q 312 495 326 495 Q 340 496 354 498 L 381 502 Q 399 505 419.5 503.5 Q 440 502 483 495 L 642 469 L 743 452 Z"/><path d="M 1314 416 L 1438 387 L 1509 367 Q 1524 366 1539 370 Q 1554 374 1584 387.5 Q 1614 401 1624.5 410.5 Q 1635 420 1635 431 Q 1634 444 1624 450 Q 1614 456 1594.5 460.5 Q 1575 465 1568 465 L 1515 471 L 1332 494 Q 1305 498 1301 498 L 1270 504 L 1162 526 Q 1124 541 1107.5 540.5 Q 1091 540 1082 537 Q 1073 534 1059 527 Q 1045 520 1035 514.5 Q 1025 509 1013.5 497.5 Q 1002 486 1005.5 477.5 Q 1009 469 1029 467 L 1061 464 Q 1064 464 1149 449 L 1188 442 L 1314 416 Z"/><path d="M 1270 504 Q 1255 533 1249.5 542.5 Q 1244 552 1215.5 598 Q 1187 644 1176 658 L 1151 690 Q 1128 719 1114 711.5 Q 1100 704 1113 668 L 1162 526 L 1188 442 L 1193 423 Q 1206 377 1211.5 354 Q 1217 331 1223.5 299.5 Q 1230 268 1233 244 Q 1236 212 1231 185.5 Q 1226 159 1230.5 147 Q 1235 135 1249.5 130 Q 1264 125 1294 138 Q 1327 155 1345 167 Q 1363 179 1384.5 201.5 Q 1406 224 1406.5 236 Q 1407 248 1393 268 Q 1380 287 1375 294.5 Q 1370 302 1365 313 L 1314 416 L 1270 504 Z"/><path d="M 553 1179 Q 516 1218 487.5 1246.5 Q 459 1275 408.5 1315.5 Q 358 1356 322.5 1379 Q 287 1402 225 1435 L 182 1458 Q 160 1470 153.5 1461.5 Q 147 1453 159 1443 L 209 1404 Q 230 1388 288 1330 Q 346 1272 392.5 1221.5 Q 439 1171 478.5 1118 Q 518 1065 552.5 1010 Q 587 955 598.5 927 Q 610 899 622.5 861 Q 635 823 636 799 Q 637 775 642.5 772 Q 648 769 659 769 Q 672 771 688.5 778.5 Q 705 786 732 802.5 Q 759 819 779.5 842 Q 800 865 797 878 Q 795 885 787 894 L 758 922 Q 738 941 691 1006 L 631 1085 L 607 1117 L 553 1179 Z"/><path d="M 607 1117 Q 632 1147 648 1165.5 Q 664 1184 667 1194 Q 670 1204 670 1213 Q 669 1225 659.5 1264 Q 650 1303 649 1348 L 641 1709 Q 638 1819 635.5 1832 Q 633 1845 622 1872 Q 611 1899 601 1909.5 Q 591 1920 581 1921.5 Q 571 1923 556 1904 Q 540 1886 531 1860.5 Q 522 1835 514 1803 Q 506 1771 507 1752 Q 507 1739 518 1702 Q 529 1665 539.5 1604.5 Q 550 1544 552 1508 L 559 1345 Q 560 1303 557 1243 L 553 1179 L 607 1117 Z"/><path d="M 1103 1198 Q 1181 1179 1244 1163.5 Q 1307 1148 1358 1132 L 1442 1107 L 1504 1088 Q 1517 1086 1527 1085 Q 1541 1085 1555.5 1090 Q 1570 1095 1615 1112 Q 1660 1129 1668 1140.5 Q 1676 1152 1674 1158 Q 1672 1162 1663.5 1167.5 Q 1655 1173 1649 1174 L 1581 1184 L 1440 1204 Q 1407 1210 1306 1229.5 Q 1205 1249 1176 1256 Q 1147 1263 1141 1261 L 1102 1257 Q 1075.5 1228.5 1103 1198 Z"/><path d="M 1102 1257 L 1097 1474 Q 1095 1558 1115.5 1602.5 Q 1136 1647 1187 1677.5 Q 1238 1708 1301 1712.5 Q 1364 1717 1423 1716 Q 1500 1716 1548.5 1709.5 Q 1597 1703 1633 1688 Q 1669 1673 1696 1642 Q 1723 1611 1736 1577.5 Q 1749 1544 1759 1498 L 1778 1411 Q 1785 1377 1796.5 1379.5 Q 1808 1382 1811 1402 L 1821 1478 Q 1830 1551 1842 1579.5 Q 1854 1608 1872 1643.5 Q 1890 1679 1891.5 1694 Q 1893 1709 1887 1724 Q 1874 1756 1834.5 1777.5 Q 1795 1799 1743 1815.5 Q 1691 1832 1629 1842 Q 1567 1852 1492 1853 Q 1387 1856 1290.5 1840 Q 1194 1824 1133 1787 Q 1072 1750 1041 1702 Q 1010 1654 1001.5 1597.5 Q 993 1541 995 1486 L 1000 1218 Q 1004 984 1002.5 959 Q 1001 934 992 907 L 982 880 Q 977 867 979 857.5 Q 981 848 989 840 Q 997 832 1030 842 Q 1043 847 1081.5 863 Q 1120 879 1135 894.5 Q 1150 910 1152.5 922.5 Q 1155 935 1148 959 L 1133 1003 Q 1124 1031 1119 1075 L 1103 1198 L 1102 1257 Z"/></g></g>
<g transform="translate(44,36.0) scale(0.00390625,0.00390625)"><g fill="#d5d5d5"><path d="M 718 473 Q 721 517 723 538 L 726 601 L 729 657 Q 730 679 710 683.5 Q 690 688 679 655 L 667 621 Q 663 611 648 558 L 631 499 L 615 427 Q 609 411 604 395 Q 599 379 589 353.5 Q 579 328 571 314 Q 563 300 545 275 Q 527 250 529 240.5 Q 531 231 547 223.5 Q 563 216 599 223 Q 653 235 677 242.5 Q 701 250 707 260 Q 710 268 706.5 293 Q 703 318 705 349 Q 705 370 707 377 L 711 410 L 718 473 Z"/><path d="M 631 499 Q 602 506 581.5 511.5 Q 561 517 525 530.5 Q 489 544 462.5 557.5 Q 436 571 425 571 Q 406 573 370.5 552.5 Q 335 532 307 507 Q 279 482 285.5 468 Q 292 454 312 454 L 348 454 L 423 455 Q 443 455 536 440 L 576 434 L 615 427 L 711 410 Q 730 407 770 399.5 Q 810 392 818 391 L 859 387 Q 884 385 889 399.5 Q 894 414 870 423 L 830 438 Q 794 452 774 457 L 718 473 L 631 499 Z"/><path d="M 1262 382 Q 1286 377 1299 374 L 1328 368 Q 1392 355 1408 352 Q 1424 349 1443 349 Q 1467 350 1490 359 L 1529 377 Q 1555 388 1562.5 399 Q 1570 410 1564 422.5 Q 1558 435 1519 438 L 1479 442 Q 1459 444 1413 446 L 1345 449 Q 1279 452 1262 455 L 1234 460 L 1133 475 Q 1118 478 1111 479 L 1085 486 Q 1059 493 1043 491 Q 1032 490 1002.5 480 Q 973 470 960 457.5 Q 947 445 950 437 Q 953 429 982 424 L 1037 416 Q 1089 409 1093 408 L 1147 402 L 1262 382 Z"/><path d="M 1234 460 Q 1213 498 1186 551.5 Q 1159 605 1139 628 L 1111 661 Q 1092 683 1082.5 676 Q 1073 669 1079 653 L 1094 612 Q 1099 597 1115 541 L 1133 475 L 1147 402 Q 1154 373 1158.5 350.5 Q 1163 328 1167 285.5 Q 1171 243 1170 226 Q 1168 208 1162.5 186 Q 1157 164 1160.5 153.5 Q 1164 143 1179.5 139 Q 1195 135 1221 147 Q 1260 166 1278.5 175.5 Q 1297 185 1316.5 203.5 Q 1336 222 1333 234 Q 1331 239 1321 251 Q 1311 263 1304 276 Q 1297 289 1287 313 Q 1277 337 1273 349 L 1262 382 L 1234 460 Z"/><path d="M 423 811 L 392 766 Q 383 755 388 745 Q 393 735 412 738 L 462 749 Q 491 756 538.5 774.5 Q 586 793 611.5 819.5 Q 637 846 637.5 880.5 Q 638 915 625 937.5 Q 612 960 591.5 964 Q 571 968 546 953 Q 523 941 507.5 923.5 Q 492 906 458.5 860.5 Q 425 815 423 811 Z"/><path d="M 239 1000 L 283 1009 Q 297 1012 349 1029 Q 401 1046 416.5 1058.5 Q 432 1071 446 1098 Q 460 1125 455 1163 Q 450 1201 426 1212.5 Q 402 1224 368 1204 Q 349 1194 309 1145 L 264 1092 L 225 1039 Q 213 1024 213.5 1015.5 Q 214 1007 219.5 1002.5 Q 225 998 239 1000 Z"/><path d="M 558 1293 L 444 1543 L 410 1615 Q 402 1633 382.5 1678 Q 363 1723 352.5 1748.5 Q 342 1774 333 1806 Q 324 1838 311.5 1853 Q 299 1868 286 1867 Q 273 1867 257.5 1848 Q 242 1829 233 1807 Q 224 1785 214 1752 Q 204 1719 203 1694.5 Q 202 1670 210 1661 Q 213 1657 232.5 1647.5 Q 252 1638 279.5 1611 Q 307 1584 345.5 1539 Q 384 1494 402 1467 L 524 1280 Q 541 1254 549 1246.5 Q 557 1239 564 1243 Q 571 1247 569.5 1259 Q 568 1271 558 1293 Z"/><path d="M 868 1002 Q 840 1032 813.5 1059 Q 787 1086 755 1113 L 685 1169 Q 663 1187 644 1192.5 Q 625 1198 621.5 1192.5 Q 618 1187 630 1169 Q 636 1159 647.5 1145.5 Q 659 1132 699 1080 L 751 1013 Q 768 989 800.5 933.5 Q 833 878 849.5 845 Q 866 812 874 783 L 885 727 Q 891 697 890 686 L 886 654 Q 887 643 893 638 Q 899 633 919 636 Q 944 641 962.5 647.5 Q 981 654 1011 673 Q 1041 692 1051 706 Q 1061 720 1059 730 Q 1057 736 1048.5 744.5 Q 1040 753 1031.5 763 Q 1023 773 1010 793 L 1002 805 L 971 861 Q 944 902 939 909 L 904 957 L 868 1002 Z"/><path d="M 1002 805 Q 1036 798 1073.5 789.5 Q 1111 781 1161 762.5 Q 1211 744 1241.5 729.5 Q 1272 715 1286 713 Q 1306 711 1330 720.5 Q 1354 730 1380.5 747 Q 1407 764 1421.5 779 Q 1436 794 1434 805 Q 1432 814 1416 825 L 1385 847 Q 1370 860 1343 892.5 Q 1316 925 1294 950 L 1230 1022 L 1164 1097 L 1107 1157 Q 1068 1198 1037.5 1227 Q 1007 1256 936.5 1309.5 Q 866 1363 816.5 1394 Q 767 1425 702.5 1458.5 Q 638 1492 595 1506 L 551 1521 Q 533 1527 525 1518.5 Q 517 1510 547 1491 L 588 1465 Q 616 1448 669 1412 Q 722 1376 772 1338.5 Q 822 1301 886 1244.5 Q 950 1188 982 1154 L 1032 1101 L 1082 1046 Q 1124 996 1145 969 L 1197 901 Q 1215 877 1224 858.5 Q 1233 840 1227 832.5 Q 1221 825 1209 824.5 Q 1197 824 1179 829 Q 1161 834 1137 838.5 Q 1113 843 1064 852.5 Q 1015 862 1000 861 L 971 861 L 1002 805 Z"/><path d="M 1164 1097 Q 1216 1127 1258 1150 Q 1300 1173 1345.5 1193 Q 1391 1213 1464 1238 Q 1537 1263 1591 1277 L 1703 1306 Q 1763 1324 1778 1326 L 1819 1334 Q 1847 1340 1844.5 1352.5 Q 1842 1365 1822 1369 L 1766 1382 Q 1764 1383 1695 1396 L 1611 1413 Q 1566 1421 1530 1421 Q 1479 1422 1448 1410.5 Q 1417 1399 1382 1377 Q 1347 1355 1279.5 1301.5 Q 1212 1248 1185 1224 L 1107 1157 L 1032 1101 Q 1007 1084 976.5 1061.5 Q 946 1039 927.5 1029.5 Q 909 1020 902 1016 L 868 1002 L 904 957 Q 923 963 935 967.5 Q 947 972 992 995 Q 1037 1018 1043 1021 L 1082 1046 L 1164 1097 Z"/><path d="M 884 1871 L 873 1897 Q 866 1912 855.5 1912.5 Q 845 1913 835 1899 Q 821 1883 815.5 1861 Q 810 1839 801 1774 L 778 1625 Q 772 1593 762 1569 Q 752 1545 736 1530 Q 720 1515 715.5 1507 Q 711 1499 714.5 1491.5 Q 718 1484 733 1480 Q 747 1477 792 1488 L 843 1502 Q 866 1526 865 1574 L 887 1806 L 884 1871 Z"/><path d="M 843 1502 L 1051 1469 L 1136 1458 Q 1173 1454 1206 1447 Q 1239 1440 1272 1430 Q 1305 1420 1319 1421 Q 1333 1423 1354.5 1436 Q 1376 1449 1402 1467 Q 1428 1485 1448 1507 Q 1468 1529 1464 1543 Q 1462 1549 1447 1563.5 Q 1432 1578 1414 1607.5 Q 1396 1637 1390 1651 L 1327 1791 Q 1268.5 1823.5 1230 1776 L 1268 1593 Q 1274 1562 1273 1552 Q 1272 1542 1264.5 1533.5 Q 1257 1525 1231 1522 Q 1192 1519 1130 1527 L 1034 1540 Q 941 1553 922 1558 L 865 1574 L 843 1502 Z"/><path d="M 1327 1791 L 1352 1817 Q 1363 1829 1356.5 1841.5 Q 1350 1854 1315 1854 L 1200 1854 Q 1141 1854 974 1865 L 884 1871 L 887 1806 Q 994 1795 1080 1790 Q 1166 1785 1167 1784 L 1230 1776 L 1327 1791 Z"/></g></g>
<g transform="translate(52,36.0) scale(0.00390625,0.00390625)"><g fill="#d5d5d5"><path d="M 540 772 Q 527 791 511 813 Q 495 835 481 851.5 Q 467 868 424 910.5 Q 381 953 365 964 L 326 992 Q 314 1001 307 995 Q 300 989 308 977 L 340 931 Q 372 884 415.5 812 Q 459 740 488.5 676.5 Q 518 613 547.5 537.5 Q 577 462 584 441 L 604 356 Q 613 318 611 295.5 Q 609 273 613 264 Q 617 255 634.5 251 Q 652 247 688 273 Q 733 307 748.5 321 Q 764 335 767 349 Q 770 363 765 376 Q 761 386 744 408 Q 727 430 715 453 L 690 507 L 645 588 L 621 636 L 577 716 L 540 772 Z"/><path d="M 577 716 Q 627 709 640.5 706 Q 654 703 732.5 683 Q 811 663 847 651.5 Q 883 640 902 639 Q 918 639 945.5 646 Q 973 653 995 666.5 Q 1017 680 1027 695.5 Q 1037 711 1032.5 720 Q 1028 729 1010 730 L 982 733 L 899 739 Q 868 742 824 750 L 763 761 L 660 788 Q 639 798 628 799.5 Q 617 801 592 794.5 Q 567 788 562 784 L 540 772 L 577 716 Z"/><path d="M 780 1067 Q 844 1057 892.5 1047.5 Q 941 1038 962.5 1034.5 Q 984 1031 1008 1031 Q 1037 1032 1065 1040.5 Q 1093 1049 1110.5 1070 Q 1128 1091 1123.5 1100.5 Q 1119 1110 1096 1111 L 1049 1114 Q 1024 1116 955 1125 L 852 1139 L 754 1156 L 632 1176 L 456 1217 Q 409 1228 364.5 1242 Q 320 1256 300 1256 Q 282 1257 257 1252.5 Q 232 1248 206.5 1237 Q 181 1226 162.5 1210 Q 144 1194 145.5 1180 Q 147 1166 167 1164 L 221 1159 Q 247 1157 349 1139 L 532 1111 L 650 1091 L 780 1067 Z"/><path d="M 763 761 Q 792 777 808.5 790 Q 825 803 826 810.5 Q 827 818 818 842 Q 816 846 810 878 L 799 925 L 780 1067 L 754 1156 L 732 1256 L 723 1281 Q 711 1316 696.5 1359 Q 682 1402 651 1466 Q 620 1530 576 1584.5 Q 532 1639 467.5 1687.5 Q 403 1736 354.5 1759 Q 306 1782 276 1789 L 237 1799 Q 214 1805 208.5 1794 Q 203 1783 225 1767 L 262 1740 Q 294 1717 336 1680 Q 378 1643 427.5 1589.5 Q 477 1536 512 1477.5 Q 547 1419 576.5 1344 Q 606 1269 619 1223 L 632 1176 L 650 1091 Q 658 1042 663 1008 Q 668 974 670.5 934 Q 673 894 672.5 860.5 Q 672 827 668 814 L 660 788 L 763 761 Z"/><path d="M 732 1256 Q 770 1272 822 1291.5 Q 874 1311 902.5 1324.5 Q 931 1338 983.5 1378 Q 1036 1418 1066.5 1458 Q 1097 1498 1109.5 1537 Q 1122 1576 1123.5 1606.5 Q 1125 1637 1112 1654.5 Q 1099 1672 1085.5 1672.5 Q 1072 1673 1052 1660 Q 1032 1647 1004 1619.5 Q 976 1592 946 1551 L 896 1481 Q 893 1479 840 1411.5 Q 787 1344 782 1339 L 723 1281 L 732 1256 Z"/><path d="M 1336 1451 L 1324 1481 Q 1316 1500 1305 1503 Q 1294 1506 1275 1482.5 Q 1256 1459 1252 1419 L 1209 1011 Q 1207 1001 1196.5 960.5 Q 1186 920 1181 908 Q 1176 896 1159 876.5 Q 1142 857 1144 846.5 Q 1146 836 1160 830 Q 1170 826 1196 831 L 1236 839 L 1272 852 Q 1303 866.5 1306 909 L 1336 1370 L 1336 1451 Z"/><path d="M 1272 852 L 1447 827 Q 1500 820 1518 816 Q 1536 812 1607 792.5 Q 1678 773 1700.5 766.5 Q 1723 760 1741 760 Q 1764 762 1789 776.5 Q 1814 791 1844.5 812.5 Q 1875 834 1888.5 851 Q 1902 868 1902.5 879.5 Q 1903 891 1887 914 Q 1870 938 1860 960 Q 1850 982 1842.5 1010.5 Q 1835 1039 1823 1103 L 1773 1362 Q 1685 1403.5 1653 1325 L 1684 1049 Q 1694 955 1693.5 918.5 Q 1693 882 1684 871 Q 1675 860 1639 859 Q 1614 859 1589.5 862.5 Q 1565 866 1501 875.5 Q 1437 885 1390 896.5 Q 1343 908 1336 908 L 1306 909 L 1272 852 Z"/><path d="M 1773 1362 L 1797 1384 Q 1812 1398 1809 1405.5 Q 1806 1413 1792 1415 Q 1782 1417 1757 1415.5 Q 1732 1414 1673 1421.5 Q 1614 1429 1539 1436 Q 1464 1443 1423 1449.5 Q 1382 1456 1372 1454 L 1336 1451 L 1336 1370 Q 1398 1366 1443.5 1361 Q 1489 1356 1552 1342.5 Q 1615 1329 1622 1328 L 1653 1325 L 1773 1362 Z"/></g></g>
<g transform="translate(60,36.0) scale(0.00390625,0.00390625)"><g fill="#d5d5d5"><path d="M 778 550 Q 707 587 680.5 597.5 Q 654 608 626 617 L 600 626 Q 581 633 576.5 625 Q 572 617 589 607 L 609 595 Q 621 588 669.5 553.5 Q 718 519 784.5 458 Q 851 397 910 323.5 Q 969 250 983 222 Q 997 194 1006 171.5 Q 1015 149 1017 130 Q 1019 111 1024.5 104 Q 1030 97 1045 95 Q 1054 95 1070.5 101 Q 1087 107 1103.5 117.5 Q 1120 128 1139.5 144.5 Q 1159 161 1171.5 179 Q 1184 197 1182 206 Q 1180 213 1173 219.5 Q 1166 226 1142 242 Q 1118 258 1104 275 L 1070 314 L 1010 378 Q 976 407 934.5 440.5 Q 893 474 856 500 L 817 528 L 778 550 Z"/><path d="M 1070 314 L 1173 289 Q 1195 284 1235.5 269 Q 1276 254 1309 236.5 Q 1342 219 1357 218 Q 1373 218 1405 231 Q 1437 244 1457.5 255.5 Q 1478 267 1491.5 279.5 Q 1505 292 1511.5 304 Q 1518 316 1515 328 Q 1512 338 1488.5 352 Q 1465 366 1444.5 386 Q 1424 406 1398 431.5 Q 1372 457 1297 538.5 Q 1222 620 1178.5 662 Q 1135 704 1050.5 773.5 Q 966 843 913 879.5 Q 860 916 777.5 959 Q 695 1002 638.5 1023.5 Q 582 1045 558 1051 L 520 1062 Q 512 1065 508 1056.5 Q 504 1048 517 1040 L 545 1023 Q 568 1009 627 972 Q 686 935 762.5 883.5 Q 839 832 873 801 L 926 754 L 981 710 Q 1003 688 1020.5 670 Q 1038 652 1113 570 Q 1188 488 1211 458 L 1257 397 Q 1269 382 1268.5 371 Q 1268 360 1260 355.5 Q 1252 351 1196.5 363 Q 1141 375 1089 381.5 Q 1037 388 1025 383 L 1010 378 L 1070 314 Z"/><path d="M 926 754 Q 914 749 903.5 742 Q 893 735 874 711 Q 855 687 845.5 671.5 Q 836 656 801 592 L 778 550 L 817 528 Q 854 541 879 551 Q 904 561 928.5 577.5 Q 953 594 962.5 611.5 Q 972 629 977 653 Q 982 677 982 681 L 981 710 L 926 754 Z"/><path d="M 831 1283 Q 805 1296 773.5 1311 Q 742 1326 700.5 1341 Q 659 1356 639 1362 L 600 1374 Q 588 1378 585.5 1372 Q 583 1366 594 1358 L 617 1343 L 673 1310 Q 713 1286 774 1238.5 Q 835 1191 892.5 1141.5 Q 950 1092 995 1044 Q 1040 996 1073.5 953 Q 1107 910 1114 891.5 Q 1121 873 1127 849 Q 1133 825 1133.5 807 Q 1134 789 1138 783.5 Q 1142 778 1154 776 Q 1166 774 1198 790 L 1223 803 Q 1244 816 1262.5 835 Q 1281 854 1289 870 Q 1297 886 1296 893 Q 1294 902 1268 916.5 Q 1242 931 1223 951 L 1176 999 L 1112 1074 Q 1067 1111 1016 1152 Q 965 1193 912 1230 L 876 1255 L 831 1283 Z"/><path d="M 1176 999 L 1313 968 Q 1367 956 1393 946 L 1462 918 Q 1492 909 1518 910 Q 1549 913 1581.5 931.5 Q 1614 950 1646 975 Q 1678 1000 1688 1016 Q 1698 1032 1698 1042 Q 1696 1058 1656 1084 Q 1616 1110 1587.5 1134.5 Q 1559 1159 1487 1240.5 Q 1415 1322 1368.5 1373 Q 1322 1424 1238 1502 Q 1154 1580 1063.5 1643 Q 973 1706 868 1765 Q 763 1824 686.5 1855 Q 610 1886 517 1915 Q 424 1944 392 1949 L 364 1954 Q 353 1956 345 1947.5 Q 337 1939 358 1929 L 377 1921 Q 409 1908 492 1869.5 Q 575 1831 649 1791 Q 723 1751 824 1684.5 Q 925 1618 976 1577 L 1034 1530 L 1090 1487 Q 1110 1470 1126 1455.5 Q 1142 1441 1202.5 1378 Q 1263 1315 1293 1279 L 1392 1157 Q 1432 1112 1437 1085 Q 1442 1058 1434.5 1048.5 Q 1427 1039 1397.5 1046.5 Q 1368 1054 1281 1065 L 1190 1078 L 1112 1074 L 1176 999 Z"/><path d="M 1034 1530 Q 998 1514 983 1502 Q 968 1490 942.5 1455.5 Q 917 1421 903 1399 L 859 1327 L 831 1283 L 912 1230 L 876 1255 Q 933 1273 969.5 1287.5 Q 1006 1302 1029.5 1321.5 Q 1053 1341 1064 1361.5 Q 1075 1382 1082.5 1419 Q 1090 1456 1090 1466 L 1090 1487 L 1034 1530 Z"/></g></g>
<g transform="translate(68,36.0) scale(0.00390625,0.00390625)"><g fill="#d5d5d5"><path d="M 991 577 L 990 365 Q 989 304 982 268.5 Q 975 233 964 208.5 Q 953 184 956.5 174.5 Q 960 165 971 158.5 Q 982 152 1010 157 Q 1046 165 1076 176.5 Q 1106 188 1124 203 Q 1142 218 1143.5 228.5 Q 1145 239 1136 260 Q 1127 281 1119 307.5 Q 1111 334 1109 387 L 1102 558 L 1103 946 Q 1103 1012 1101 1040 Q 1099 1068 1089 1102.5 Q 1079 1137 1060.5 1164 Q 1042 1191 1031 1189 Q 1022 1189 1002.5 1164 Q 983 1139 972 1101 Q 961 1063 960.5 1031 Q 960 999 971 931 Q 975 901 979.5 859.5 Q 984 818 986 773 L 991 577 Z"/><path d="M 346 1064 L 375 1032 Q 400 1004 447.5 932 Q 495 860 523.5 808.5 Q 552 757 570.5 704.5 Q 589 652 591 620.5 Q 593 589 600.5 582 Q 608 575 628.5 572.5 Q 649 570 695 598 Q 728 619 743.5 633.5 Q 759 648 768.5 665 Q 778 682 777 691 Q 775 702 752.5 720.5 Q 730 739 720 753 L 664 833 Q 633 876 583.5 926 Q 534 976 484 1015 Q 434 1054 381 1083 L 354 1098 Q 330 1112 323 1104.5 Q 316 1097 346 1064 Z"/><path d="M 1582 785 L 1432 601 L 1344 511 Q 1339 498 1342.5 493 Q 1346 488 1368 493 Q 1405 502 1452 516.5 Q 1499 531 1574 568 Q 1649 605 1692 641.5 Q 1735 678 1751.5 713 Q 1768 748 1769 785 Q 1770 822 1762 845 Q 1755 862 1744 871.5 Q 1733 881 1716.5 881.5 Q 1700 882 1663.5 861.5 Q 1627 841 1582 785 Z"/><path d="M 335 1889 L 306 1892 Q 280 1895 277 1884 Q 274 1873 306 1860 L 349 1843 Q 382 1830 486.5 1781 Q 591 1732 670 1690.5 Q 749 1649 828 1597 Q 907 1545 990.5 1478 Q 1074 1411 1153.5 1330 Q 1233 1249 1277.5 1184.5 Q 1322 1120 1350.5 1068 Q 1379 1016 1392 980 Q 1405 944 1405.5 914 Q 1406 884 1408 876.5 Q 1410 869 1416 862.5 Q 1422 856 1449 865 Q 1469 873 1498 895.5 Q 1527 918 1539.5 932.5 Q 1552 947 1566.5 974.5 Q 1581 1002 1575 1015 Q 1572 1022 1554 1036 Q 1536 1050 1520 1068 L 1493 1102 L 1466 1135 Q 1455 1148 1407.5 1218.5 Q 1360 1289 1300.5 1359.5 Q 1241 1430 1145 1513.5 Q 1049 1597 939.5 1662.5 Q 830 1728 722 1775.5 Q 614 1823 514.5 1852 Q 415 1881 335 1889 Z"/></g></g>
</g>

<g class="page-number"><text x="52.5" y="143.0" font-size="3" fill="#999" font-family="sans-serif" text-anchor="middle">- 1 -</text></g>
</svg>