<svg xmlns="http://www.w3.org/2000/svg" viewBox="0 0 210 210" width="210mm" height="210mm">
<rect x="0" y="0" width="210" height="210" fill="white"/>
<path d="M 99.99999999999999 20.0 L 169.28203230275506 59.999999999999964 L 169.28203230275508 140.0 L 100.00000000000003 180.0 L 30.717967697244887 140.0 L 30.717967697244873 60.000000000000064 Z" fill="none" stroke="#bbb" stroke-width="0.3" stroke-dasharray="2 2"/>
<g class="chars">
<g transform="translate(103.85,22.22) rotate(30.00) translate(-4.000,-4.000) scale(0.003906)" fill="#222"><path d="M 855 458 Q 781 464 720 471.5 Q 659 479 640 479 Q 578 482 551.5 469.5 Q 525 457 513.5 441 Q 502 425 507.5 418.5 Q 513 412 526 412 L 556 412 Q 566 412 618 406 L 732 398 L 868 378 L 982 362 L 1144 337 L 1235 317 Q 1259 313 1279 312 Q 1313 312 1351 327.5 Q 1389 343 1386 360 Q 1383 377 1369 381 L 1330 393 Q 1310 399 1260 406 L 1132 426 Q 1066 436 1019 440 L 965 445 L 855 458 Z"/><path d="M 786 708 Q 752 710 734.5 711.5 Q 717 713 675.5 720.5 Q 634 728 614 728 Q 579 729 556.5 719.5 Q 534 710 521.5 697 Q 509 684 512 675.5 Q 515 667 534 665 L 571 662 Q 585 661 638.5 655.5 Q 692 650 740 645 L 808 639 L 918 621 L 1042 600 Q 1080 594 1132.5 581 Q 1185 568 1209 566 Q 1240 564 1266 569 Q 1292 574 1317.5 585.5 Q 1343 597 1343.5 610.5 Q 1344 624 1326 628 L 1306 633 Q 1292 637 1255 641 Q 1218 645 1157 654 L 1035 673 L 901 693 L 786 708 Z"/><path d="M 690 940 L 554 977 L 492 993 Q 431 1011 418 1012 Q 393 1015 367.5 1008 Q 342 1001 308.5 981 Q 275 961 265 946 Q 255 931 261 922 Q 267 913 289 912 L 339 910 Q 402 908 471 903.5 Q 540 899 598 888 L 725 867 L 845 851 Q 904 844 935 840 L 1142 822 Q 1196 817 1263 806.5 Q 1330 796 1370 786 L 1430 771 Q 1468 762 1491 762 Q 1516 763 1537.5 770.5 Q 1559 778 1601 795.5 Q 1643 813 1655.5 835 Q 1668 857 1660.5 870 Q 1653 883 1629 884 L 1584 886 L 1460 882 Q 1431 882 1349 885 Q 1267 888 1189 889 L 1116 890 L 1019 899 Q 928 908 910 910 L 811 922 L 690 940 Z"/><path d="M 725 867 Q 754 801 759 786 L 786 708 L 808 639 Q 835 558 839 538 L 855 458 L 868 378 L 878 280 Q 879 263 878 245.5 Q 877 228 872.5 196.5 Q 868 165 867 155 L 860 125 Q 857 111 860.5 105 Q 864 99 875 96 Q 890 92 920 102.5 Q 950 113 978 127.5 Q 1006 142 1026 162 Q 1046 182 1046 197 Q 1045 206 1031 229 Q 1017 252 1008 280 L 982 362 L 965 445 Q 943 524 939 541 L 918 621 L 901 693 Q 873 769 867 788 L 845 851 L 811 922 Q 751 1038 713 1093.5 Q 675 1149 609.5 1219 Q 544 1289 475 1343.5 Q 406 1398 344 1432.5 Q 282 1467 219.5 1489.5 Q 157 1512 136 1517 L 95 1528 Q 80 1532 76.5 1520.5 Q 73 1509 83 1502 L 125 1477 Q 133 1473 184.5 1444.5 Q 236 1416 299 1372.5 Q 362 1329 421 1275.5 Q 480 1222 551.5 1142.5 Q 623 1063 644 1023 L 690 940 L 725 867 Z"/><path d="M 1116 890 Q 1157 920 1181 939 Q 1205 958 1300.5 1039.5 Q 1396 1121 1472.5 1177.5 Q 1549 1234 1599 1260.5 Q 1649 1287 1745.5 1325.5 Q 1842 1364 1914 1383 L 1961 1396 Q 1969 1399 1975 1411.5 Q 1981 1424 1961 1428 L 1925 1436 L 1797 1461 Q 1701 1482 1667 1477 Q 1621 1472 1578.5 1444 Q 1536 1416 1500 1377.5 Q 1464 1339 1346 1210.5 Q 1228 1082 1166 1020 Q 1104 958 1074 937 L 1019 899 L 1116 890 Z"/><path d="M 754 1824 L 744 1856 Q 732 1892 716.5 1891.5 Q 701 1891 684 1865.5 Q 667 1840 664 1815 Q 661 1799 667 1749.5 Q 673 1700 671 1649 L 660 1374 Q 657 1317 650 1292 Q 643 1267 635.5 1252 Q 628 1237 630 1229 Q 632 1221 646 1216 Q 653 1214 679 1219 L 723 1230 Q 769.5 1238.5 760 1289 Q 762 1303 762.5 1311.5 Q 763 1320 760.5 1341.5 Q 758 1363 758 1376 L 752 1490 L 752 1545 L 756 1756 L 754 1824 Z"/><path d="M 723 1230 Q 755 1227 787.5 1222.5 Q 820 1218 868 1208 L 976 1185 Q 1032 1174 1056.5 1167 Q 1081 1160 1105 1150 Q 1129 1140 1138 1138 Q 1158 1135 1180.5 1143 Q 1203 1151 1230 1168 Q 1257 1185 1278 1203.5 Q 1299 1222 1299.5 1232 Q 1300 1242 1294 1257 Q 1287 1273 1282.5 1291.5 Q 1278 1310 1276 1325.5 Q 1274 1341 1271.5 1390 Q 1269 1439 1273 1498 Q 1275 1547 1282 1597.5 Q 1289 1648 1297.5 1700 Q 1306 1752 1305 1779 Q 1302 1829 1274.5 1881.5 Q 1247 1934 1222 1946 Q 1197 1958 1185 1955 Q 1169 1952 1150 1915 Q 1131 1878 1108 1844 L 1079 1802 Q 1006 1686.5 1121 1727 L 1163 1749 L 1173 1496 L 1174 1457 L 1172 1331 L 1172 1285 Q 1171 1253 1162.5 1244 Q 1154 1235 1134 1232 Q 1115 1230 1068 1233 L 982 1239 Q 948 1243 888.5 1257.5 Q 829 1272 805 1279.5 Q 781 1287 777 1287 L 760 1289 L 723 1230 Z"/><path d="M 1173 1496 Q 1129 1505 1107 1508 L 968 1533 Q 876 1550 838.5 1554 Q 801 1558 793 1555 L 752 1545 L 752 1490 Q 773 1490 788.5 1488.5 Q 804 1487 874 1473.5 Q 944 1460 990 1447.5 Q 1036 1435 1055 1433 Q 1073 1432 1100 1436 Q 1127 1440 1155 1450 L 1174 1457 L 1173 1496 Z"/><path d="M 1079 1802 Q 1038 1806 950.5 1813.5 Q 863 1821 848 1821 L 754 1824 L 756 1756 Q 844 1746 891 1740 Q 938 1734 995.5 1725 Q 1053 1716 1072 1716 Q 1105 1718 1121 1727 L 1079 1802 Z"/></g>
<g transform="translate(111.55,26.67) rotate(30.00) translate(-4.000,-4.000) scale(0.003906)" fill="#222"><path d="M 937 298 Q 861 313 797 325.5 Q 733 338 690 340 L 651 342 Q 636 343 626.5 340 Q 617 337 616 331 Q 615 325 629 318 L 649 311 L 683 297 L 797 256 Q 846 238 910.5 207 Q 975 176 1011.5 152 Q 1048 128 1070.5 109 Q 1093 90 1104 87 Q 1117 85 1130 91 Q 1143 97 1194 127.5 Q 1245 158 1261 185 Q 1277 212 1265 224 Q 1259 229 1233.5 232 Q 1208 235 1185.5 239 Q 1163 243 1132 250 L 1028 275 L 937 298 Z"/><path d="M 864 553 L 694 576 L 590 598 L 513 612 Q 469 623 464 623 Q 437 627 414.5 621 Q 392 615 363.5 600.5 Q 335 586 318.5 569 Q 302 552 306.5 543 Q 311 534 330 533 L 384 531 Q 436 530 511.5 522 Q 587 514 696 502.5 Q 805 491 809 490 L 950 476 L 1039 471 L 1256 450 Q 1300 446 1337.5 440.5 Q 1375 435 1423 427.5 Q 1471 420 1492 420 Q 1518 422 1549.5 432.5 Q 1581 443 1606 457.5 Q 1631 472 1647.5 489 Q 1664 506 1662 516 Q 1659 525 1647 532 Q 1635 539 1618 539 L 1555 542 Q 1529 544 1457.5 539.5 Q 1386 535 1314 535 Q 1277 536 1158 539 L 1037 543 L 864 553 Z"/><path d="M 965 971 Q 953 952 941.5 929 Q 930 906 926 877 Q 922 848 928 815 L 940 746 L 950 617 L 950 476 Q 954 381 948 353 L 937 298 L 1028 275 Q 1046 286 1054.5 295.5 Q 1063 305 1064 312.5 Q 1065 320 1058 338 Q 1052 353 1046.5 374 Q 1041 395 1041 405 L 1039 471 L 1037 543 L 1032 580 L 1032 622 L 1034 834 Q 1034 876 1031 896.5 Q 1028 917 1021 929 L 1006 958 Q 973.5 986.5 965 971 Z"/><path d="M 950 617 Q 905 661 867 696.5 Q 829 732 754 791.5 Q 679 851 600.5 895.5 Q 522 940 432.5 971 Q 343 1002 302 1010 L 255 1020 Q 242 1023 237.5 1012.5 Q 233 1002 255 991 L 291 973 Q 307 965 384.5 922 Q 462 879 511 849.5 Q 560 820 629.5 767.5 Q 699 715 760.5 662 Q 822 609 849 573 L 864 553 Q 1009 444 950 617 Z"/><path d="M 1032 580 Q 1088 597 1117 606 L 1254 655 Q 1376 699 1388.5 704 Q 1401 709 1469 740 Q 1537 771 1558.5 785.5 Q 1580 800 1599 821.5 Q 1618 843 1629.5 871 Q 1641 899 1641.5 927.5 Q 1642 956 1635 964.5 Q 1628 973 1616 975.5 Q 1604 978 1583 967 Q 1562 957 1508.5 919.5 Q 1455 882 1428 863 Q 1401 844 1348 810 L 1208 722 L 1032 622 Q 959 581 1032 580 Z"/><path d="M 1006 958 Q 1062 942 1101 927.5 Q 1140 913 1158 911 Q 1199 908 1257.5 944.5 Q 1316 981 1330.5 992.5 Q 1345 1004 1355.5 1019 Q 1366 1034 1363 1043 Q 1360 1052 1328.5 1064.5 Q 1297 1077 1263.5 1091.5 Q 1230 1106 1212 1117 L 1111 1179 L 1037 1227 Q 946.5 1269 992 1203 L 1116 1054 Q 1135 1031 1133 1024 Q 1131 1017 1115 1014 Q 1099 1011 1054 1020 L 890 1053 L 780 1085 Q 742 1095 718 1090 Q 707 1088 680 1077.5 Q 653 1067 638.5 1048 Q 624 1029 628.5 1023 Q 633 1017 661 1015 L 695 1013 Q 732 1011 747 1008 L 965 971 L 1006 958 Z"/><path d="M 1037 1227 Q 1049 1250 1051.5 1261 Q 1054 1272 1054 1283 L 1054 1304 L 1061 1386 L 1069 1584 Q 1070 1629 1068.5 1691 Q 1067 1753 1060.5 1790 Q 1054 1827 1036.5 1872 Q 1019 1917 996 1939 Q 973 1961 959.5 1961.5 Q 946 1962 928 1944 Q 914 1932 890.5 1901.5 Q 867 1871 851 1852.5 Q 835 1834 813 1814 L 762 1769 Q 740 1750 745.5 1741 Q 751 1732 774 1736 L 828 1747 L 894 1762 Q 913 1764 925 1757.5 Q 937 1751 944.5 1728.5 Q 952 1706 954 1673 L 957 1607 L 962 1514 L 965 1396 L 961 1314 Q 953 1283 944.5 1261 Q 936 1239 917.5 1227 Q 899 1215 897 1209.5 Q 895 1204 898.5 1195 Q 902 1186 915 1183.5 Q 928 1181 943 1186 L 992 1203 L 1037 1227 Z"/><path d="M 1054 1304 L 1274 1287 Q 1315 1284 1401.5 1274.5 Q 1488 1265 1545 1256 Q 1602 1247 1629 1247 Q 1661 1248 1696.5 1258.5 Q 1732 1269 1759.5 1285 Q 1787 1301 1810 1319.5 Q 1833 1338 1832 1354 Q 1831 1370 1798 1371 L 1731 1374 L 1506 1374 L 1264 1376 L 1061 1386 L 965 1396 L 746 1418 L 617 1437 L 513 1451 Q 466 1459 424.5 1469.5 Q 383 1480 368 1478 Q 355 1478 329 1469.5 Q 303 1461 273.5 1448.5 Q 244 1436 229 1422.5 Q 214 1409 214 1400 Q 214 1391 221 1384.5 Q 228 1378 255 1376 L 354 1371 Q 392 1370 501 1359 L 669 1344 Q 733 1338 809 1330 L 961 1314 L 1054 1304 Z"/></g>
<g transform="translate(169.28,64.00) rotate(90.00) translate(-4.000,-4.000) scale(0.003906)" fill="#222"><path d="M 858 274 Q 793 281 761.5 284.5 Q 730 288 671 296 Q 612 304 570.5 309 Q 529 314 506 320 Q 483 326 477 326 Q 464 327 434.5 319.5 Q 405 312 396.5 308 Q 388 304 362.5 290.5 Q 337 277 334.5 266.5 Q 332 256 337 250 Q 340 245 354.5 244.5 Q 369 244 391 241.5 Q 413 239 467 234 L 570 223 L 726 209 L 1222 157 Q 1258 154 1328.5 145 Q 1399 136 1438 129.5 Q 1477 123 1497 124 Q 1513 126 1544 136.5 Q 1575 147 1596 158.5 Q 1617 170 1629.5 188.5 Q 1642 207 1636.5 216.5 Q 1631 226 1620 229 Q 1611 232 1590.5 230 Q 1570 228 1538.5 230.5 Q 1507 233 1451 234.5 Q 1395 236 1313.5 242 Q 1232 248 1137.5 253 Q 1043 258 1026 259 L 949 265 L 858 274 Z"/><path d="M 799 446 Q 812 427 822.5 410 Q 833 393 841.5 364 Q 850 335 853 314 L 858 274 L 949 265 Q 970 278 982 286.5 Q 994 295 1000 305 Q 1006 315 1004.5 322.5 Q 1003 330 988.5 340 Q 974 350 950 373 L 908 410 L 880 438 Q 752.5 504 799 446 Z"/><path d="M 708 1033 L 702 1050 Q 696 1066 685.5 1076.5 Q 675 1087 663 1086 Q 649 1086 636 1068.5 Q 623 1051 617.5 1033.5 Q 612 1016 612 991 Q 611 981 614.5 935.5 Q 618 890 618 807 Q 617 718 616 688 L 608 588 Q 603 534 592.5 501.5 Q 582 469 580.5 459.5 Q 579 450 585 443 Q 591 436 616 438 Q 643 441 657 446 L 697 460 Q 730 459.5 713 515 Q 715 538 716 549 L 716 599 L 716 643 L 716 694 L 714 814 L 713 860 Q 713 907 713 916 L 710 974 L 708 1033 Z"/><path d="M 697 460 Q 740 456 749 454 L 799 446 L 880 438 Q 933 430 961 426 L 1081 410 Q 1144 402 1199 390 Q 1254 378 1271 375.5 Q 1288 373 1303 374 Q 1319 376 1341 383.5 Q 1363 391 1393 408.5 Q 1423 426 1439.5 441.5 Q 1456 457 1456 468 Q 1455 475 1445.5 491 Q 1436 507 1431 526 Q 1426 545 1424 573.5 Q 1422 602 1421.5 669 Q 1421 736 1422 766 L 1425 877 Q 1425 928 1422 958 Q 1417 994 1405.5 1019.5 Q 1394 1045 1377 1059.5 Q 1360 1074 1348 1072 Q 1335 1071 1327.5 1062 Q 1320 1053 1309 1027 L 1297 999 Q 1222.5 910.5 1292 938 Q 1299 936 1298.5 911.5 Q 1298 887 1299 861 L 1300 807 L 1300 767 L 1300 621 L 1296 584 L 1296 538 Q 1296 507 1291.5 490 Q 1287 473 1275.5 464 Q 1264 455 1237 454 Q 1206 454 1141 462 L 1028 476 Q 987 482 916 493 Q 845 504 807.5 508.5 Q 770 513 752 513 L 713 515 L 697 460 Z"/><path d="M 1300 621 Q 1272 630 1259.5 632.5 Q 1247 635 1175 643 L 1066 660 L 927 679 L 813 696 Q 767 702 752 699 L 716 694 L 716 643 Q 771 637 799 632 L 902 615 L 1019 596 Q 1073 587 1122.5 575 Q 1172 563 1189 562 Q 1206 562 1233 568 L 1275 579 L 1296 584 L 1300 621 Z"/><path d="M 1300 807 Q 1274 814 1258.5 817 Q 1243 820 1186.5 824 Q 1130 828 1049 838 L 922 855 Q 856 864 814 866.5 Q 772 869 755 866 L 713 860 L 714 814 Q 761 810 788.5 807 Q 816 804 917 789 Q 1018 774 1036 771 L 1152 752 Q 1188 747 1209 747 Q 1228 748 1245 752 L 1280 763 L 1300 767 L 1300 807 Z"/><path d="M 1297 999 Q 1263 1002 1242 1003.5 Q 1221 1005 1156.5 1009 Q 1092 1013 1055 1016 L 949 1027 Q 899 1032 861 1033 L 794 1035 Q 749 1038 745 1037 L 708 1033 L 710 974 Q 769 971 830 968 Q 891 965 912.5 963 Q 934 961 1035.5 948.5 Q 1137 936 1171 929.5 Q 1205 923 1220 922 Q 1239 922 1250.5 925.5 Q 1262 929 1274.5 934.5 Q 1287 940 1292 938 L 1297 999 Z"/><path d="M 733 1376 Q 709 1409 690 1433.5 Q 671 1458 629 1505 Q 587 1552 550 1589.5 Q 513 1627 478.5 1654.5 Q 444 1682 386 1720.5 Q 328 1759 304 1771 L 245 1801 Q 226 1811 221 1802 Q 216 1793 232 1779 L 288 1733 Q 314 1711 351 1677 Q 388 1643 432 1597.5 Q 476 1552 518.5 1502.5 Q 561 1453 580 1424 L 631 1349 L 669 1281 Q 682 1257 692.5 1234.5 Q 703 1212 712 1181.5 Q 721 1151 723 1131.5 Q 725 1112 725.5 1094 Q 726 1076 730 1071 Q 734 1066 745 1064 Q 757 1063 779 1071.5 Q 801 1080 820 1090.5 Q 839 1101 857.5 1114.5 Q 876 1128 884.5 1144 Q 893 1160 889 1168 L 875 1179 L 851 1203 L 802 1270 L 783 1306 L 733 1376 Z"/><path d="M 851 1203 Q 879 1202 899.5 1200 Q 920 1198 952 1194.5 Q 984 1191 1045 1180 Q 1106 1169 1137.5 1164 Q 1169 1159 1201.5 1148.5 Q 1234 1138 1246 1138 Q 1257 1139 1281.5 1146.5 Q 1306 1154 1336.5 1170.5 Q 1367 1187 1384 1206.5 Q 1401 1226 1399 1238 Q 1397 1247 1376 1263.5 Q 1355 1280 1343 1292 Q 1331 1304 1306.5 1340 Q 1282 1376 1237.5 1438 Q 1193 1500 1177 1516 L 1133 1563 L 1055 1639 Q 1033 1658 1008 1678 Q 983 1698 959 1713.5 Q 935 1729 889 1751.5 Q 843 1774 810.5 1784.5 Q 778 1795 707.5 1811 Q 637 1827 616 1828 L 552 1831 Q 529 1833 528.5 1820.5 Q 528 1808 549 1801 L 605 1782 Q 630 1774 673 1755.5 Q 716 1737 762.5 1713 Q 809 1689 859.5 1657 Q 910 1625 932 1602 L 968 1566 L 1037 1500 Q 1055 1479 1081.5 1446 Q 1108 1413 1125.5 1387 Q 1143 1361 1173 1312.5 Q 1203 1264 1208.5 1243.5 Q 1214 1223 1208 1216.5 Q 1202 1210 1173 1216 L 961 1265 L 915 1276 Q 888 1282 864 1281 Q 837 1281 823 1276 L 802 1270 L 851 1203 Z"/><path d="M 1133 1563 Q 1184 1601 1219.5 1624 Q 1255 1647 1321.5 1679.5 Q 1388 1712 1430 1727.5 Q 1472 1743 1563 1770.5 Q 1654 1798 1695.5 1809 Q 1737 1820 1747 1823 L 1806 1842 Q 1826 1849 1825.5 1862 Q 1825 1875 1806 1879 L 1748 1893 Q 1729 1898 1683 1906.5 Q 1637 1915 1617 1917 L 1550 1922 Q 1501 1926 1494 1926 Q 1463 1927 1433 1918.5 Q 1403 1910 1363 1884 Q 1323 1858 1283 1828 Q 1243 1798 1195 1758.5 Q 1147 1719 1111 1687 L 1055 1639 L 968 1566 Q 931 1536 913 1519 L 847 1459 Q 795 1413 777 1402 L 733 1376 L 631 1349 Q 615 1346 598 1342 Q 581 1338 566 1327 Q 551 1316 552 1306 Q 552 1294 566.5 1287 Q 581 1280 599 1278 Q 627 1277 640 1278 L 669 1281 L 783 1306 Q 800 1310 811.5 1315 Q 823 1320 842.5 1335.5 Q 862 1351 890 1375 Q 918 1399 983 1454 L 1037 1500 L 1133 1563 Z"/></g>
<g transform="translate(169.28,72.00) rotate(90.00) translate(-4.000,-4.000) scale(0.003906)" fill="#222"><path d="M 937 298 Q 861 313 797 325.5 Q 733 338 690 340 L 651 342 Q 636 343 626.5 340 Q 617 337 616 331 Q 615 325 629 318 L 649 311 L 683 297 L 797 256 Q 846 238 910.5 207 Q 975 176 1011.5 152 Q 1048 128 1070.5 109 Q 1093 90 1104 87 Q 1117 85 1130 91 Q 1143 97 1194 127.5 Q 1245 158 1261 185 Q 1277 212 1265 224 Q 1259 229 1233.5 232 Q 1208 235 1185.5 239 Q 1163 243 1132 250 L 1028 275 L 937 298 Z"/><path d="M 864 553 L 694 576 L 590 598 L 513 612 Q 469 623 464 623 Q 437 627 414.5 621 Q 392 615 363.5 600.5 Q 335 586 318.5 569 Q 302 552 306.5 543 Q 311 534 330 533 L 384 531 Q 436 530 511.5 522 Q 587 514 696 502.5 Q 805 491 809 490 L 950 476 L 1039 471 L 1256 450 Q 1300 446 1337.5 440.5 Q 1375 435 1423 427.5 Q 1471 420 1492 420 Q 1518 422 1549.5 432.5 Q 1581 443 1606 457.5 Q 1631 472 1647.5 489 Q 1664 506 1662 516 Q 1659 525 1647 532 Q 1635 539 1618 539 L 1555 542 Q 1529 544 1457.5 539.5 Q 1386 535 1314 535 Q 1277 536 1158 539 L 1037 543 L 864 553 Z"/><path d="M 965 971 Q 953 952 941.5 929 Q 930 906 926 877 Q 922 848 928 815 L 940 746 L 950 617 L 950 476 Q 954 381 948 353 L 937 298 L 1028 275 Q 1046 286 1054.5 295.5 Q 1063 305 1064 312.5 Q 1065 320 1058 338 Q 1052 353 1046.5 374 Q 1041 395 1041 405 L 1039 471 L 1037 543 L 1032 580 L 1032 622 L 1034 834 Q 1034 876 1031 896.5 Q 1028 917 1021 929 L 1006 958 Q 973.5 986.5 965 971 Z"/><path d="M 950 617 Q 905 661 867 696.5 Q 829 732 754 791.5 Q 679 851 600.5 895.5 Q 522 940 432.5 971 Q 343 1002 302 1010 L 255 1020 Q 242 1023 237.5 1012.5 Q 233 1002 255 991 L 291 973 Q 307 965 384.5 922 Q 462 879 511 849.5 Q 560 820 629.5 767.5 Q 699 715 760.5 662 Q 822 609 849 573 L 864 553 Q 1009 444 950 617 Z"/><path d="M 1032 580 Q 1088 597 1117 606 L 1254 655 Q 1376 699 1388.5 704 Q 1401 709 1469 740 Q 1537 771 1558.5 785.5 Q 1580 800 1599 821.5 Q 1618 843 1629.5 871 Q 1641 899 1641.5 927.5 Q 1642 956 1635 964.5 Q 1628 973 1616 975.5 Q 1604 978 1583 967 Q 1562 957 1508.5 919.5 Q 1455 882 1428 863 Q 1401 844 1348 810 L 1208 722 L 1032 622 Q 959 581 1032 580 Z"/><path d="M 1006 958 Q 1062 942 1101 927.5 Q 1140 913 1158 911 Q 1199 908 1257.5 944.5 Q 1316 981 1330.5 992.5 Q 1345 1004 1355.5 1019 Q 1366 1034 1363 1043 Q 1360 1052 1328.5 1064.5 Q 1297 1077 1263.5 1091.5 Q 1230 1106 1212 1117 L 1111 1179 L 1037 1227 Q 946.5 1269 992 1203 L 1116 1054 Q 1135 1031 1133 1024 Q 1131 1017 1115 1014 Q 1099 1011 1054 1020 L 890 1053 L 780 1085 Q 742 1095 718 1090 Q 707 1088 680 1077.5 Q 653 1067 638.5 1048 Q 624 1029 628.5 1023 Q 633 1017 661 1015 L 695 1013 Q 732 1011 747 1008 L 965 971 L 1006 958 Z"/><path d="M 1037 1227 Q 1049 1250 1051.5 1261 Q 1054 1272 1054 1283 L 1054 1304 L 1061 1386 L 1069 1584 Q 1070 1629 1068.5 1691 Q 1067 1753 1060.5 1790 Q 1054 1827 1036.5 1872 Q 1019 1917 996 1939 Q 973 1961 959.5 1961.5 Q 946 1962 928 1944 Q 914 1932 890.5 1901.5 Q 867 1871 851 1852.5 Q 835 1834 813 1814 L 762 1769 Q 740 1750 745.5 1741 Q 751 1732 774 1736 L 828 1747 L 894 1762 Q 913 1764 925 1757.5 Q 937 1751 944.5 1728.5 Q 952 1706 954 1673 L 957 1607 L 962 1514 L 965 1396 L 961 1314 Q 953 1283 944.5 1261 Q 936 1239 917.5 1227 Q 899 1215 897 1209.5 Q 895 1204 898.5 1195 Q 902 1186 915 1183.5 Q 928 1181 943 1186 L 992 1203 L 1037 1227 Z"/><path d="M 1054 1304 L 1274 1287 Q 1315 1284 1401.5 1274.5 Q 1488 1265 1545 1256 Q 1602 1247 1629 1247 Q 1661 1248 1696.5 1258.5 Q 1732 1269 1759.5 1285 Q 1787 1301 1810 1319.5 Q 1833 1338 1832 1354 Q 1831 1370 1798 1371 L 1731 1374 L 1506 1374 L 1264 1376 L 1061 1386 L 965 1396 L 746 1418 L 617 1437 L 513 1451 Q 466 1459 424.5 1469.5 Q 383 1480 368 1478 Q 355 1478 329 1469.5 Q 303 1461 273.5 1448.5 Q 244 1436 229 1422.5 Q 214 1409 214 1400 Q 214 1391 221 1384.5 Q 228 1378 255 1376 L 354 1371 Q 392 1370 501 1359 L 669 1344 Q 733 1338 809 1330 L 961 1314 L 1054 1304 Z"/></g>
<g transform="translate(165.43,142.22) rotate(150.00) translate(-4.000,-4.000) scale(0.003906)" fill="#222"><path d="M 531 540 Q 500 552 450 571.5 Q 400 591 372 599 Q 344 607 313 610 L 263 616 Q 244 619 240 607.5 Q 236 596 257 586 L 308 562 Q 341 547 401 513 Q 461 479 498.5 455.5 Q 536 432 585 395 Q 634 358 659.5 335.5 Q 685 313 701.5 294.5 Q 718 276 728 256 Q 738 236 745 231.5 Q 752 227 772 232 Q 792 238 818 254 Q 844 270 869.5 290.5 Q 895 311 906.5 334.5 Q 918 358 911 371 Q 904 383 884 388 L 850 396 L 803 413 Q 779 422 739 439.5 Q 699 457 687 463 L 621 497 L 531 540 Z"/><path d="M 672 771 Q 697 766 721 761.5 Q 745 757 772 751 Q 799 745 817 745 Q 836 746 864 755 Q 892 764 909 773.5 Q 926 783 927.5 793 Q 929 803 917.5 813 Q 906 823 889 825 L 839 833 L 756 844 L 664 862 L 530 893 L 422 922 Q 410 925 377.5 935.5 Q 345 946 316 957 Q 287 968 277 969 Q 255 972 220 959.5 Q 185 947 161.5 934.5 Q 138 922 129 908.5 Q 120 895 124 885.5 Q 128 876 152 872 L 211 864 Q 258 858 322 844 L 470 812 L 517 803 L 565 792 L 672 771 Z"/><path d="M 565 792 L 566 749 Q 566 723 562.5 685.5 Q 559 648 554.5 615 Q 550 582 544 569 L 531 540 L 621 497 Q 648 510 661 516.5 Q 674 523 691.5 535.5 Q 709 548 712 561 Q 715 574 704 602 Q 693 630 686.5 661 Q 680 692 678 716 L 672 771 L 664 862 L 659 936 L 656 1023 L 655 1066 L 660 1607 Q 660 1654 659 1666 Q 658 1678 651.5 1704 Q 645 1730 638 1749 Q 631 1768 616 1794 Q 601 1820 585 1819 Q 573 1819 558 1804 Q 543 1789 528 1744.5 Q 513 1700 508 1682.5 Q 503 1665 504 1645 Q 504 1633 512 1601 Q 520 1569 529.5 1511.5 Q 539 1454 544 1415.5 Q 549 1377 553.5 1322 Q 558 1267 559 1236 L 561 1092 L 565 792 Z"/><path d="M 561 1092 Q 537 1132 525.5 1150 Q 514 1168 488 1208 Q 462 1248 418 1301.5 Q 374 1355 329.5 1395.5 Q 285 1436 242.5 1464 Q 200 1492 172 1505 L 119 1531 Q 99 1541 91 1530 Q 83 1519 100 1503 L 150 1458 Q 168 1442 207 1400 Q 246 1358 281.5 1316.5 Q 317 1275 363 1209 Q 409 1143 448.5 1070 Q 488 997 520 918 L 530 893 Q 675.5 795.5 561 1092 Z"/><path d="M 656 1023 L 666 1024 L 688 1029 Q 702 1033 741.5 1048.5 Q 781 1064 810 1077 Q 839 1090 859 1105.5 Q 879 1121 890.5 1137.5 Q 902 1154 904.5 1181 Q 907 1208 900 1228 Q 893 1247 880.5 1257.5 Q 868 1268 855.5 1269.5 Q 843 1271 822 1255 Q 806 1244 783 1219.5 Q 760 1195 741 1172 L 694 1113 L 655 1066 L 656 1023 Z"/><path d="M 914 870 Q 909 860 912.5 855.5 Q 916 851 926 850 Q 931 850 942 853 L 985 865 Q 1027 878 1063.5 905 Q 1100 932 1105 994 Q 1110 1056 1081.5 1069 Q 1053 1082 1027 1070 Q 996 1057 966 980 L 914 870 Z"/><path d="M 1299 1018 Q 1357 964 1388.5 930 Q 1420 896 1457 846 Q 1494 796 1511 768 Q 1528 740 1541 712 L 1566 654 Q 1573 637 1581.5 631.5 Q 1590 626 1600 625 Q 1611 625 1642 644.5 Q 1673 664 1694 684 Q 1715 704 1730 726.5 Q 1745 749 1746 759.5 Q 1747 770 1744 778 Q 1738 790 1710 802 Q 1682 814 1645.5 835 Q 1609 856 1580 874.5 Q 1551 893 1504 925 Q 1457 957 1430 973 L 1344 1025 Q 1331 1033 1329 1033 L 1314 1036 Q 1286.5 1041 1299 1018 Z"/><path d="M 1287 1089 Q 1279 1130 1270.5 1166 Q 1262 1202 1232.5 1273.5 Q 1203 1345 1165.5 1407.5 Q 1128 1470 1087 1512.5 Q 1046 1555 988 1594 Q 930 1633 896.5 1645.5 Q 863 1658 819 1670 L 775 1682 Q 758 1687 754 1676 Q 750 1665 770 1652 L 847 1603 Q 881 1581 940.5 1525 Q 1000 1469 1042 1411 Q 1084 1353 1118 1271.5 Q 1152 1190 1171 1103.5 Q 1190 1017 1200 887.5 Q 1210 758 1210 674 L 1210 500 Q 1210 466 1201 414.5 Q 1192 363 1185.5 348.5 Q 1179 334 1170 317.5 Q 1161 301 1164 293 Q 1165 289 1173.5 282 Q 1182 275 1210 276 Q 1247 278 1283.5 288.5 Q 1320 299 1341 311 Q 1362 323 1366 332 Q 1370 341 1366 356 Q 1365 359 1354 387 Q 1343 415 1341 447 L 1339 501 L 1331 642 Q 1318 863 1314 896 L 1299 1018 L 1287 1089 Z"/><path d="M 1314 1036 Q 1363 1128 1393.5 1175.5 Q 1424 1223 1489.5 1306 Q 1555 1389 1599 1430 Q 1643 1471 1724 1527 Q 1805 1583 1863 1611 L 1932 1645 Q 1954 1657 1955 1667 Q 1956 1677 1942 1679 L 1892 1687 Q 1855 1693 1811 1697 Q 1767 1701 1711 1700 Q 1656 1700 1628 1686.5 Q 1600 1673 1550 1596.5 Q 1500 1520 1441 1418 Q 1382 1316 1346 1228 L 1287 1089 Q 1250.5 955.5 1314 1036 Z"/></g>
<g transform="translate(157.74,146.67) rotate(150.00) translate(-4.000,-4.000) scale(0.003906)" fill="#222"><path d="M 937 298 Q 861 313 797 325.5 Q 733 338 690 340 L 651 342 Q 636 343 626.5 340 Q 617 337 616 331 Q 615 325 629 318 L 649 311 L 683 297 L 797 256 Q 846 238 910.5 207 Q 975 176 1011.5 152 Q 1048 128 1070.5 109 Q 1093 90 1104 87 Q 1117 85 1130 91 Q 1143 97 1194 127.5 Q 1245 158 1261 185 Q 1277 212 1265 224 Q 1259 229 1233.5 232 Q 1208 235 1185.5 239 Q 1163 243 1132 250 L 1028 275 L 937 298 Z"/><path d="M 864 553 L 694 576 L 590 598 L 513 612 Q 469 623 464 623 Q 437 627 414.5 621 Q 392 615 363.5 600.5 Q 335 586 318.5 569 Q 302 552 306.5 543 Q 311 534 330 533 L 384 531 Q 436 530 511.5 522 Q 587 514 696 502.5 Q 805 491 809 490 L 950 476 L 1039 471 L 1256 450 Q 1300 446 1337.5 440.5 Q 1375 435 1423 427.5 Q 1471 420 1492 420 Q 1518 422 1549.5 432.5 Q 1581 443 1606 457.5 Q 1631 472 1647.5 489 Q 1664 506 1662 516 Q 1659 525 1647 532 Q 1635 539 1618 539 L 1555 542 Q 1529 544 1457.5 539.5 Q 1386 535 1314 535 Q 1277 536 1158 539 L 1037 543 L 864 553 Z"/><path d="M 965 971 Q 953 952 941.5 929 Q 930 906 926 877 Q 922 848 928 815 L 940 746 L 950 617 L 950 476 Q 954 381 948 353 L 937 298 L 1028 275 Q 1046 286 1054.5 295.5 Q 1063 305 1064 312.5 Q 1065 320 1058 338 Q 1052 353 1046.5 374 Q 1041 395 1041 405 L 1039 471 L 1037 543 L 1032 580 L 1032 622 L 1034 834 Q 1034 876 1031 896.5 Q 1028 917 1021 929 L 1006 958 Q 973.5 986.5 965 971 Z"/><path d="M 950 617 Q 905 661 867 696.5 Q 829 732 754 791.5 Q 679 851 600.5 895.5 Q 522 940 432.5 971 Q 343 1002 302 1010 L 255 1020 Q 242 1023 237.5 1012.5 Q 233 1002 255 991 L 291 973 Q 307 965 384.5 922 Q 462 879 511 849.5 Q 560 820 629.5 767.5 Q 699 715 760.5 662 Q 822 609 849 573 L 864 553 Q 1009 444 950 617 Z"/><path d="M 1032 580 Q 1088 597 1117 606 L 1254 655 Q 1376 699 1388.5 704 Q 1401 709 1469 740 Q 1537 771 1558.5 785.5 Q 1580 800 1599 821.5 Q 1618 843 1629.5 871 Q 1641 899 1641.5 927.5 Q 1642 956 1635 964.5 Q 1628 973 1616 975.5 Q 1604 978 1583 967 Q 1562 957 1508.5 919.5 Q 1455 882 1428 863 Q 1401 844 1348 810 L 1208 722 L 1032 622 Q 959 581 1032 580 Z"/><path d="M 1006 958 Q 1062 942 1101 927.5 Q 1140 913 1158 911 Q 1199 908 1257.5 944.5 Q 1316 981 1330.5 992.5 Q 1345 1004 1355.5 1019 Q 1366 1034 1363 1043 Q 1360 1052 1328.5 1064.5 Q 1297 1077 1263.5 1091.5 Q 1230 1106 1212 1117 L 1111 1179 L 1037 1227 Q 946.5 1269 992 1203 L 1116 1054 Q 1135 1031 1133 1024 Q 1131 1017 1115 1014 Q 1099 1011 1054 1020 L 890 1053 L 780 1085 Q 742 1095 718 1090 Q 707 1088 680 1077.5 Q 653 1067 638.5 1048 Q 624 1029 628.5 1023 Q 633 1017 661 1015 L 695 1013 Q 732 1011 747 1008 L 965 971 L 1006 958 Z"/><path d="M 1037 1227 Q 1049 1250 1051.5 1261 Q 1054 1272 1054 1283 L 1054 1304 L 1061 1386 L 1069 1584 Q 1070 1629 1068.5 1691 Q 1067 1753 1060.5 1790 Q 1054 1827 1036.5 1872 Q 1019 1917 996 1939 Q 973 1961 959.5 1961.5 Q 946 1962 928 1944 Q 914 1932 890.5 1901.5 Q 867 1871 851 1852.5 Q 835 1834 813 1814 L 762 1769 Q 740 1750 745.5 1741 Q 751 1732 774 1736 L 828 1747 L 894 1762 Q 913 1764 925 1757.5 Q 937 1751 944.5 1728.5 Q 952 1706 954 1673 L 957 1607 L 962 1514 L 965 1396 L 961 1314 Q 953 1283 944.5 1261 Q 936 1239 917.5 1227 Q 899 1215 897 1209.5 Q 895 1204 898.5 1195 Q 902 1186 915 1183.5 Q 928 1181 943 1186 L 992 1203 L 1037 1227 Z"/><path d="M 1054 1304 L 1274 1287 Q 1315 1284 1401.5 1274.5 Q 1488 1265 1545 1256 Q 1602 1247 1629 1247 Q 1661 1248 1696.5 1258.5 Q 1732 1269 1759.5 1285 Q 1787 1301 1810 1319.5 Q 1833 1338 1832 1354 Q 1831 1370 1798 1371 L 1731 1374 L 1506 1374 L 1264 1376 L 1061 1386 L 965 1396 L 746 1418 L 617 1437 L 513 1451 Q 466 1459 424.5 1469.5 Q 383 1480 368 1478 Q 355 1478 329 1469.5 Q 303 1461 273.5 1448.5 Q 244 1436 229 1422.5 Q 214 1409 214 1400 Q 214 1391 221 1384.5 Q 228 1378 255 1376 L 354 1371 Q 392 1370 501 1359 L 669 1344 Q 733 1338 809 1330 L 961 1314 L 1054 1304 Z"/></g>
<g transform="translate(96.54,178.00) rotate(210.00) translate(-4.000,-4.000) scale(0.003906)" fill="#222"><path d="M 617 685 Q 559 738 531 760 Q 503 782 459.5 812.5 Q 416 843 392 854 L 361 869 Q 349 875 342 868 Q 335 861 350 846 L 376 821 L 414 785 Q 448 752 504 688 Q 560 624 598 574 Q 636 524 677 457.5 Q 718 391 741 344 Q 764 297 771 261 L 783 183 Q 785 175 787.5 170.5 Q 790 166 795 163 Q 800 160 811 161 Q 821 163 838.5 170 Q 856 177 889.5 202.5 Q 923 228 937 243.5 Q 951 259 949 272 Q 947 284 928 298 L 904 316 Q 889 329 872 355 L 846 396 L 799 465 L 754 521 Q 725 564 720 569 L 662 637 L 617 685 Z"/><path d="M 799 465 Q 848 459 887.5 452 Q 927 445 973.5 434 Q 1020 423 1052 413.5 Q 1084 404 1116.5 391 Q 1149 378 1164 376 Q 1189 374 1217.5 385.5 Q 1246 397 1280 418 Q 1314 439 1332.5 459.5 Q 1351 480 1348 496 Q 1345 507 1317.5 526.5 Q 1290 546 1268.5 564.5 Q 1247 583 1223.5 607.5 Q 1200 632 1168 671 L 1093 764 L 1010 857 L 943 927 Q 885 981 833.5 1027 Q 782 1073 717 1119.5 Q 652 1166 573 1212.5 Q 494 1259 429 1289 Q 364 1319 297 1342 Q 230 1365 199 1371 L 170 1377 Q 152 1381 148 1370 Q 144 1359 161 1350 L 200 1330 Q 246 1307 319.5 1267.5 Q 393 1228 468.5 1179.5 Q 544 1131 648 1052.5 Q 752 974 795 930 L 869 856 L 926 796 Q 1001 708 1035 660 L 1090 579 Q 1109 550 1118.5 535 Q 1128 520 1125.5 510.5 Q 1123 501 1116.5 496 Q 1110 491 1093 493 Q 1078 495 1031 505.5 Q 984 516 941 522.5 Q 898 529 864.5 532 Q 831 535 812 534 Q 786 534 776 529 L 754 521 L 799 465 Z"/><path d="M 869 856 Q 853 840 833.5 821 Q 814 802 762 764.5 Q 710 727 697 721 L 617 685 L 662 637 Q 691 646 709.5 653 Q 728 660 755.5 674.5 Q 783 689 820.5 716 Q 858 743 873 754 L 926 796 L 1010 857 Q 1117 938 1180 979 Q 1243 1020 1318 1060 Q 1393 1100 1465.5 1129 Q 1538 1158 1590 1176 Q 1642 1194 1730.5 1222 Q 1819 1250 1839 1255 L 1875 1266 Q 1899 1274 1898.5 1285 Q 1898 1296 1886 1299 L 1852 1308 Q 1820 1317 1743.5 1327.5 Q 1667 1338 1607.5 1344.5 Q 1548 1351 1510 1351 Q 1441 1353 1401.5 1337.5 Q 1362 1322 1276 1247 Q 1190 1172 1149 1132 L 1004 986 L 943 927 L 869 856 Z"/><path d="M 852 1266 L 803 1204 Q 790 1188 794.5 1180.5 Q 799 1173 820 1177 L 865 1187 Q 876 1190 932 1209 L 1001 1233 Q 1039 1249 1068 1273 Q 1097 1297 1111.5 1322 Q 1126 1347 1128.5 1377.5 Q 1131 1408 1119.5 1428 Q 1108 1448 1083.5 1454 Q 1059 1460 1016 1428 Q 989 1409 939 1362 Q 889 1315 852 1266 Z"/><path d="M 762 1585 L 728 1558 Q 705 1541 711 1531 Q 717 1521 739 1527 L 799 1544 Q 823 1551 888 1578 Q 953 1605 1008.5 1630.5 Q 1064 1656 1091.5 1690.5 Q 1119 1725 1129.5 1751.5 Q 1140 1778 1139 1811 Q 1137 1845 1121.5 1865 Q 1106 1885 1087.5 1889 Q 1069 1893 1035 1866 Q 1006 1845 973 1808 L 839 1657 Q 796 1613 762 1585 Z"/></g>
<g transform="translate(89.61,174.00) rotate(210.00) translate(-4.000,-4.000) scale(0.003906)" fill="#222"><path d="M 937 298 Q 861 313 797 325.5 Q 733 338 690 340 L 651 342 Q 636 343 626.5 340 Q 617 337 616 331 Q 615 325 629 318 L 649 311 L 683 297 L 797 256 Q 846 238 910.5 207 Q 975 176 1011.5 152 Q 1048 128 1070.5 109 Q 1093 90 1104 87 Q 1117 85 1130 91 Q 1143 97 1194 127.5 Q 1245 158 1261 185 Q 1277 212 1265 224 Q 1259 229 1233.5 232 Q 1208 235 1185.5 239 Q 1163 243 1132 250 L 1028 275 L 937 298 Z"/><path d="M 864 553 L 694 576 L 590 598 L 513 612 Q 469 623 464 623 Q 437 627 414.5 621 Q 392 615 363.5 600.5 Q 335 586 318.5 569 Q 302 552 306.5 543 Q 311 534 330 533 L 384 531 Q 436 530 511.5 522 Q 587 514 696 502.5 Q 805 491 809 490 L 950 476 L 1039 471 L 1256 450 Q 1300 446 1337.5 440.5 Q 1375 435 1423 427.5 Q 1471 420 1492 420 Q 1518 422 1549.5 432.5 Q 1581 443 1606 457.5 Q 1631 472 1647.5 489 Q 1664 506 1662 516 Q 1659 525 1647 532 Q 1635 539 1618 539 L 1555 542 Q 1529 544 1457.5 539.5 Q 1386 535 1314 535 Q 1277 536 1158 539 L 1037 543 L 864 553 Z"/><path d="M 965 971 Q 953 952 941.5 929 Q 930 906 926 877 Q 922 848 928 815 L 940 746 L 950 617 L 950 476 Q 954 381 948 353 L 937 298 L 1028 275 Q 1046 286 1054.5 295.5 Q 1063 305 1064 312.5 Q 1065 320 1058 338 Q 1052 353 1046.5 374 Q 1041 395 1041 405 L 1039 471 L 1037 543 L 1032 580 L 1032 622 L 1034 834 Q 1034 876 1031 896.5 Q 1028 917 1021 929 L 1006 958 Q 973.5 986.5 965 971 Z"/><path d="M 950 617 Q 905 661 867 696.5 Q 829 732 754 791.5 Q 679 851 600.5 895.5 Q 522 940 432.5 971 Q 343 1002 302 1010 L 255 1020 Q 242 1023 237.5 1012.5 Q 233 1002 255 991 L 291 973 Q 307 965 384.5 922 Q 462 879 511 849.5 Q 560 820 629.5 767.5 Q 699 715 760.5 662 Q 822 609 849 573 L 864 553 Q 1009 444 950 617 Z"/><path d="M 1032 580 Q 1088 597 1117 606 L 1254 655 Q 1376 699 1388.5 704 Q 1401 709 1469 740 Q 1537 771 1558.5 785.5 Q 1580 800 1599 821.5 Q 1618 843 1629.5 871 Q 1641 899 1641.5 927.5 Q 1642 956 1635 964.5 Q 1628 973 1616 975.5 Q 1604 978 1583 967 Q 1562 957 1508.5 919.5 Q 1455 882 1428 863 Q 1401 844 1348 810 L 1208 722 L 1032 622 Q 959 581 1032 580 Z"/><path d="M 1006 958 Q 1062 942 1101 927.5 Q 1140 913 1158 911 Q 1199 908 1257.5 944.5 Q 1316 981 1330.5 992.5 Q 1345 1004 1355.5 1019 Q 1366 1034 1363 1043 Q 1360 1052 1328.5 1064.5 Q 1297 1077 1263.5 1091.5 Q 1230 1106 1212 1117 L 1111 1179 L 1037 1227 Q 946.5 1269 992 1203 L 1116 1054 Q 1135 1031 1133 1024 Q 1131 1017 1115 1014 Q 1099 1011 1054 1020 L 890 1053 L 780 1085 Q 742 1095 718 1090 Q 707 1088 680 1077.5 Q 653 1067 638.5 1048 Q 624 1029 628.5 1023 Q 633 1017 661 1015 L 695 1013 Q 732 1011 747 1008 L 965 971 L 1006 958 Z"/><path d="M 1037 1227 Q 1049 1250 1051.5 1261 Q 1054 1272 1054 1283 L 1054 1304 L 1061 1386 L 1069 1584 Q 1070 1629 1068.5 1691 Q 1067 1753 1060.5 1790 Q 1054 1827 1036.5 1872 Q 1019 1917 996 1939 Q 973 1961 959.5 1961.5 Q 946 1962 928 1944 Q 914 1932 890.5 1901.5 Q 867 1871 851 1852.5 Q 835 1834 813 1814 L 762 1769 Q 740 1750 745.5 1741 Q 751 1732 774 1736 L 828 1747 L 894 1762 Q 913 1764 925 1757.5 Q 937 1751 944.5 1728.5 Q 952 1706 954 1673 L 957 1607 L 962 1514 L 965 1396 L 961 1314 Q 953 1283 944.5 1261 Q 936 1239 917.5 1227 Q 899 1215 897 1209.5 Q 895 1204 898.5 1195 Q 902 1186 915 1183.5 Q 928 1181 943 1186 L 992 1203 L 1037 1227 Z"/><path d="M 1054 1304 L 1274 1287 Q 1315 1284 1401.5 1274.5 Q 1488 1265 1545 1256 Q 1602 1247 1629 1247 Q 1661 1248 1696.5 1258.5 Q 1732 1269 1759.5 1285 Q 1787 1301 1810 1319.5 Q 1833 1338 1832 1354 Q 1831 1370 1798 1371 L 1731 1374 L 1506 1374 L 1264 1376 L 1061 1386 L 965 1396 L 746 1418 L 617 1437 L 513 1451 Q 466 1459 424.5 1469.5 Q 383 1480 368 1478 Q 355 1478 329 1469.5 Q 303 1461 273.5 1448.5 Q 244 1436 229 1422.5 Q 214 1409 214 1400 Q 214 1391 221 1384.5 Q 228 1378 255 1376 L 354 1371 Q 392 1370 501 1359 L 669 1344 Q 733 1338 809 1330 L 961 1314 L 1054 1304 Z"/></g>
<g transform="translate(30.72,135.56) rotate(270.00) translate(-4.000,-4.000) scale(0.003906)" fill="#222"><path d="M 855 226 L 822 177 Q 810 161 817.5 151 Q 825 141 845 145 L 906 158 Q 938 165 961.5 171.5 Q 985 178 1012.5 187.5 Q 1040 197 1062 212 Q 1084 227 1095 249.5 Q 1106 272 1106.5 310 Q 1107 348 1096 370 Q 1086 388 1074 393.5 Q 1062 399 1046 398 Q 1018 397 993 382 Q 968 367 946.5 342.5 Q 925 318 896 281.5 Q 867 245 855 226 Z"/><path d="M 1062 1079 L 1063 1479 Q 1063 1589 1062 1638 Q 1061 1687 1051 1731.5 Q 1041 1776 1014 1824.5 Q 987 1873 960 1888.5 Q 933 1904 921 1903 Q 904 1903 883 1883 L 794 1774 L 741 1718 L 699 1673 Q 683 1657 688.5 1648.5 Q 694 1640 705 1644 L 754 1664 Q 796 1682 832.5 1699.5 Q 869 1717 889 1707 Q 899 1702 908.5 1688.5 Q 918 1675 924 1645.5 Q 930 1616 933 1585 Q 936 1554 941.5 1446 Q 947 1338 948 1308 L 954 808 Q 954 778 949.5 734.5 Q 945 691 935 683.5 Q 925 676 914 675.5 Q 903 675 878 679 L 781 695 Q 733 703 710 702.5 Q 687 702 667.5 695.5 Q 648 689 636.5 677.5 Q 625 666 626.5 659 Q 628 652 653 648 L 702 640 Q 726 637 757.5 629 Q 789 621 822.5 610.5 Q 856 600 884.5 589.5 Q 913 579 937.5 569.5 Q 962 560 973 560 Q 982 561 1007 570 L 1049 586 Q 1064 593 1080.5 603.5 Q 1097 614 1099 623 Q 1101 632 1095 650 Q 1084 679 1080.5 696 Q 1077 713 1071.5 744 Q 1066 775 1062.5 800 Q 1059 825 1060 869 L 1062 971 L 1062 1079 Z"/><path d="M 225 1630 L 160 1649 Q 144 1654 142.5 1643 Q 141 1632 158 1619 L 207 1583 Q 252 1549 302 1509.5 Q 352 1470 397.5 1426.5 Q 443 1383 490 1329 Q 537 1275 576.5 1215.5 Q 616 1156 636.5 1116.5 Q 657 1077 661.5 1060.5 Q 666 1044 661.5 1038.5 Q 657 1033 622 1040 L 527 1060 Q 504 1065 447 1079.5 Q 390 1094 359 1100.5 Q 328 1107 316 1105 Q 299 1104 266.5 1084 Q 234 1064 222 1050.5 Q 210 1037 212.5 1030 Q 215 1023 243 1021 L 288 1018 Q 312 1017 387.5 1004.5 Q 463 992 495.5 986 Q 528 980 594 964 Q 660 948 690.5 937.5 Q 721 927 732 927 Q 751 928 780 950.5 Q 809 973 834 998 Q 859 1023 858 1037 Q 856 1050 836 1069 L 789 1113 Q 768 1135 719 1207.5 Q 670 1280 612.5 1348.5 Q 555 1417 493 1472 Q 431 1527 377 1558.5 Q 323 1590 286.5 1606.5 Q 250 1623 225 1630 Z"/><path d="M 1062 971 Q 1089 945 1146.5 889.5 Q 1204 834 1226.5 810 Q 1249 786 1297 722.5 Q 1345 659 1359.5 630 Q 1374 601 1383.5 572 Q 1393 543 1402.5 536.5 Q 1412 530 1442 537 Q 1473 546 1500.5 561 Q 1528 576 1557 596.5 Q 1586 617 1595.5 630 Q 1605 643 1605 652 Q 1603 666 1568.5 681.5 Q 1534 697 1514 710 Q 1494 723 1435.5 768.5 Q 1377 814 1294 869.5 Q 1211 925 1180 941 L 1078 996 Q 1030 1004.5 1062 971 Z"/><path d="M 1078 996 Q 1187 1116 1258 1183.5 Q 1329 1251 1409 1309.5 Q 1489 1368 1566.5 1409.5 Q 1644 1451 1704 1477 Q 1764 1503 1826 1527 L 1890 1553 Q 1904 1559 1904.5 1570 Q 1905 1581 1874 1589 Q 1842 1598 1779 1609 Q 1716 1620 1691 1623.5 Q 1666 1627 1622 1628 Q 1577 1630 1538 1627 Q 1499 1624 1480 1614.5 Q 1461 1605 1430 1576.5 Q 1399 1548 1378.5 1523 Q 1358 1498 1314 1434 L 1195 1269 L 1062 1079 C 981.3333333333333 998.3333333333333 1012.6666666666667 898.6666666666666 1078 996 Z"/></g>
<g transform="translate(30.72,126.67) rotate(270.00) translate(-4.000,-4.000) scale(0.003906)" fill="#222"><path d="M 323 887 Q 323 924 316 972 Q 309 1020 295.5 1062.5 Q 282 1105 266 1132.5 Q 250 1160 233.5 1177.5 Q 217 1195 198 1196 Q 179 1197 159 1169 Q 143 1149 137.5 1119.5 Q 132 1090 132 1062 Q 132 1034 139 1017 Q 142 1010 160 988.5 Q 178 967 194 939 Q 210 911 221 886 Q 232 861 241.5 830 Q 251 799 254.5 775 Q 258 751 262.5 743.5 Q 267 736 273.5 734 Q 280 732 293 752 Q 310 781 316 819 Q 322 857 323 887 Z"/><path d="M 580 747 L 567 1612 Q 566 1671 556.5 1719 Q 547 1767 539.5 1786.5 Q 532 1806 518.5 1825 Q 505 1844 495 1844.5 Q 485 1845 468 1823 Q 452 1804 439.5 1781 Q 427 1758 417 1706.5 Q 407 1655 408 1632 Q 408 1614 421.5 1555.5 Q 435 1497 442 1441 Q 449 1385 458 1286 L 470 1142 L 483 696 L 481 517 Q 480 447 470.5 385.5 Q 461 324 457 311.5 Q 453 299 442 270 Q 431 241 432 229 Q 432 219 437.5 213 Q 443 207 458 205 Q 487 202 537 231.5 Q 587 261 599 272 Q 611 283 618 295 Q 625 307 625.5 316 Q 626 325 618 346 Q 611 365 605 395 Q 599 425 598 454 L 588 698 L 580 747 Z"/><path d="M 588 698 L 667 722 Q 677 726 725 743.5 Q 773 761 796.5 774.5 Q 820 788 830 809 Q 840 830 841.5 851.5 Q 843 873 833.5 889 Q 824 905 799.5 911 Q 775 917 735.5 889.5 Q 696 862 666 831 L 580 747 L 588 698 Z"/><path d="M 1092 526 Q 1013 531 978 532.5 Q 943 534 928 532 Q 908 531 891 525.5 Q 874 520 858.5 510.5 Q 843 501 836.5 491 Q 830 481 832 475.5 Q 834 470 839.5 466.5 Q 845 463 920 455 L 1051 441 Q 1146 431 1234.5 418 Q 1323 405 1388 392.5 Q 1453 380 1491.5 368 Q 1530 356 1541 354 Q 1552 352 1564 352 Q 1593 353 1622 366.5 Q 1651 380 1663.5 391.5 Q 1676 403 1676.5 411.5 Q 1677 420 1673 425.5 Q 1669 431 1656 440 Q 1643 449 1535 465 L 1380 489 Q 1275 506 1265 506 L 1198 512 L 1092 526 Z"/><path d="M 1198 512 Q 1223 523 1236 532.5 Q 1249 542 1252 553.5 Q 1255 565 1239 584 L 1211 616 L 1180 700 L 1145 787 L 1114 859 Q 1089 917 1084 927 L 1047 1002 L 1031 1040 Q 977 1128 957 1152 L 924 1194 L 907 1216 L 846 1279 Q 833 1292 826 1289 Q 819 1286 818 1280 L 831 1257 L 854 1210 L 900 1125 Q 914 1097 952 1003 L 1011 858 Q 1034 798 1055 731 Q 1076 664 1083 626.5 Q 1090 589 1091 558 L 1092 526 L 1198 512 Z"/><path d="M 1145 787 L 1335 738 Q 1371 729 1410.5 715.5 Q 1450 702 1467 702 Q 1486 703 1539.5 731 Q 1593 759 1606.5 773.5 Q 1620 788 1622.5 797.5 Q 1625 807 1622.5 816 Q 1620 825 1601.5 851.5 Q 1583 878 1564 938 L 1511 1105 L 1368 1524 Q 1294 1613.5 1266 1537 L 1302 1422 L 1319 1385 L 1377 1142 L 1384 1122 L 1420 925 Q 1426 890 1428 856.5 Q 1430 823 1423 811 Q 1416 802 1404.5 797.5 Q 1393 793 1376 794 Q 1365 795 1294 811 Q 1223 827 1217 829 L 1114 859 L 1145 787 Z"/><path d="M 1377 1142 Q 1354 1147 1333.5 1148 Q 1313 1149 1288 1141.5 Q 1263 1134 1181.5 1104 Q 1100 1074 1100 1073 L 1031 1040 L 1047 1002 Q 1119 1006 1161.5 1010 Q 1204 1014 1240 1021.5 Q 1276 1029 1303 1042.5 Q 1330 1056 1344.5 1070.5 Q 1359 1085 1364 1092 L 1384 1122 L 1377 1142 Z"/><path d="M 1302 1422 Q 1248 1408 1216 1396.5 Q 1184 1385 1148.5 1367 Q 1113 1349 1056.5 1316 Q 1000 1283 983 1270 L 907 1216 L 924 1194 Q 974 1196 1011 1199.5 Q 1048 1203 1096 1213.5 Q 1144 1224 1175.5 1236 Q 1207 1248 1227 1261.5 Q 1247 1275 1265.5 1297 Q 1284 1319 1292 1333 L 1319 1385 L 1302 1422 Z"/><path d="M 1368 1524 Q 1445 1519 1499.5 1514 Q 1554 1509 1618 1498 L 1698 1485 L 1740 1478 Q 1751 1479 1772.5 1485 Q 1794 1491 1820.5 1503.5 Q 1847 1516 1882.5 1537 Q 1918 1558 1915 1575 Q 1914 1579 1911.5 1584 Q 1909 1589 1893 1597.5 Q 1877 1606 1805 1606 L 1655 1606 Q 1508 1606 1470 1606.5 Q 1432 1607 1365.5 1610 Q 1299 1613 1210 1620 Q 1121 1627 1074.5 1632 Q 1028 1637 968 1648 L 884 1664 L 830 1677 Q 813 1680 797 1679 Q 751 1677 700.5 1650 Q 650 1623 644 1613 Q 638 1603 640 1597 Q 640 1595 643.5 1591 Q 647 1587 653 1585 Q 659 1583 718 1578 L 962 1561 L 1266 1537 L 1368 1524 Z"/></g>
<g transform="translate(34.18,58.00) rotate(330.00) translate(-4.000,-4.000) scale(0.003906)" fill="#222"><path d="M 932 326 L 781 333 Q 716 336 698 336.5 Q 680 337 660.5 331.5 Q 641 326 627 318.5 Q 613 311 604 302.5 Q 595 294 598 282 Q 601 270 620 268 L 675 263 Q 714 260 813.5 247 Q 913 234 972 224 L 1092 204 Q 1140 197 1151 194.5 Q 1162 192 1191.5 184.5 Q 1221 177 1250 170.5 Q 1279 164 1295 163 Q 1326 162 1352 171 Q 1378 180 1396 193 Q 1414 206 1425.5 220 Q 1437 234 1436 241 Q 1434 250 1411.5 255.5 Q 1389 261 1350 268 Q 1311 275 1281 280 Q 1251 285 1164 295 L 992 315 L 932 326 Z"/><path d="M 603 766 L 538 642 L 502 570 Q 490 549 494.5 542 Q 499 535 512 533 Q 523 532 560.5 548 Q 598 564 624.5 576 Q 651 588 682.5 618 Q 714 648 726 680 Q 738 712 741 742.5 Q 744 773 740 798 Q 732 836 717 845 Q 702 854 690 854 Q 680 855 667.5 849.5 Q 655 844 633.5 814.5 Q 612 785 603 766 Z"/><path d="M 1273 810 L 1239 832 Q 1223 842 1216.5 833.5 Q 1210 825 1219 812 L 1246 773 L 1293 706 Q 1327 657 1345 626 Q 1363 595 1387.5 544 Q 1412 493 1422 466 Q 1432 439 1435.5 430.5 Q 1439 422 1448 416 Q 1457 410 1486 422 Q 1508 433 1532.5 451.5 Q 1557 470 1580 495.5 Q 1603 521 1603.5 535 Q 1604 549 1599 555 Q 1595 560 1581.5 565.5 Q 1568 571 1554.5 580.5 Q 1541 590 1527 602 L 1495 632 Q 1478 648 1412 703 Q 1346 758 1325 774 Q 1304 790 1273 810 Z"/><path d="M 1068 958 Q 1163 952 1224 947.5 Q 1285 943 1335 938.5 Q 1385 934 1435.5 928.5 Q 1486 923 1535 915 Q 1584 907 1625 898.5 Q 1666 890 1681 889 Q 1715 888 1748 900 Q 1781 912 1814.5 932 Q 1848 952 1868.5 972 Q 1889 992 1887.5 1002 Q 1886 1012 1878 1020 Q 1863 1034 1811 1031 Q 1759 1028 1706 1028 L 1466 1030 Q 1328 1032 1241 1035 L 1071 1042 L 946 1052 Q 888 1055 843 1058.5 Q 798 1062 705.5 1074 Q 613 1086 569 1093.5 Q 525 1101 476 1111 Q 427 1121 388 1132 Q 349 1143 330 1141 Q 317 1141 279.5 1129 Q 242 1117 227.5 1110.5 Q 213 1104 188 1088.5 Q 163 1073 159.5 1060.5 Q 156 1048 163 1040.5 Q 170 1033 192 1032 L 252 1030 Q 286 1029 350 1025 Q 414 1021 456.5 1017 Q 499 1013 625 1000 L 799 983 L 947 968 L 1068 958 Z"/><path d="M 1071 1042 L 1056 1448 Q 1053 1509 1047.5 1573 Q 1042 1637 1033.5 1703 Q 1025 1769 1017.5 1802 Q 1010 1835 999.5 1862 Q 989 1889 978 1887 Q 975 1887 967.5 1883.5 Q 960 1880 953.5 1857.5 Q 947 1835 944 1801.5 Q 941 1768 938.5 1689.5 Q 936 1611 937 1567 L 946 1052 L 947 968 L 952 546 Q 952 508 948.5 444 Q 945 380 939 355 L 932 326 L 992 315 Q 1035 330 1056.5 338.5 Q 1078 347 1093 357.5 Q 1108 368 1111 381 Q 1114 394 1107 415 L 1096 446 Q 1087 474 1085 506 L 1083 548 L 1078 619 L 1068 958 L 1071 1042 Z"/></g>
<g transform="translate(41.11,54.00) rotate(330.00) translate(-4.000,-4.000) scale(0.003906)" fill="#222"><path d="M 1046 443 Q 1017 417 1006 401 L 942 290 Q 913 244 912 227 Q 911 210 916 202.5 Q 921 195 959 206 Q 1016 225 1052.5 238.5 Q 1089 252 1115 282.5 Q 1141 313 1147 347 Q 1152 380 1145 396 L 1132 431 Q 1094 492 1046 443 Z"/><path d="M 583 555 Q 579 581 574.5 603.5 Q 570 626 549.5 674.5 Q 529 723 506.5 760 Q 484 797 459.5 801 Q 435 805 410.5 783.5 Q 386 762 385.5 726.5 Q 385 691 393 671 L 430 604 L 483 471 L 499 419 Q 509 393 521.5 391.5 Q 534 390 546 405 Q 558 420 566 443 L 576 473 Q 591.5 514 583 555 Z"/><path d="M 576 473 Q 766 467 803 463 L 1046 443 L 1132 431 L 1414 396 Q 1478 389 1511.5 378 Q 1545 367 1553 367 Q 1571 368 1597 383.5 Q 1623 399 1677 445 Q 1731 491 1747.5 522.5 Q 1764 554 1757 568 Q 1750 581 1717 589 L 1664 601 Q 1632 609 1581.5 627.5 Q 1531 646 1491 664 L 1437 688 Q 1415 698 1408.5 692 Q 1402 686 1414 666 L 1437 628 Q 1443 618 1467.5 582 Q 1492 546 1505 518.5 Q 1518 491 1509 477.5 Q 1500 464 1484 461.5 Q 1468 459 1437 460 L 1320 467 Q 1288 469 1156.5 484.5 Q 1025 500 1006 503 L 833 530 L 735 544 Q 651 561 648 560 L 583 555 L 576 473 Z"/><path d="M 1147 1449 L 1263 1506 Q 1327 1538 1369.5 1563.5 Q 1412 1589 1453 1633.5 Q 1494 1678 1509 1717 Q 1524 1756 1524 1786 Q 1523 1809 1515.5 1821.5 Q 1508 1834 1498 1840.5 Q 1488 1847 1477 1847 Q 1465 1848 1448 1840.5 Q 1431 1833 1407 1814.5 Q 1383 1796 1305.5 1723.5 Q 1228 1651 1162 1602 L 1069 1536 L 961 1469 L 816 1398 Q 766 1374 722 1359.5 Q 678 1345 660.5 1332 Q 643 1319 642 1304 Q 641 1289 655 1267 Q 658 1262 687.5 1224 Q 717 1186 732 1156 L 748 1122 L 779 1049 Q 792 1010 805 970.5 Q 818 931 825.5 887.5 Q 833 844 835 796 Q 837 748 834 728 L 821 679 Q 815 655 821.5 648.5 Q 828 642 848 642 Q 871 643 898.5 652.5 Q 926 662 960 683.5 Q 994 705 1009.5 723 Q 1025 741 1024 755 Q 1023 763 1012 781 Q 1001 799 981 829.5 Q 961 860 954 878 L 897 1010 L 884 1035 L 850 1114 L 777 1242 L 751 1282 Q 751 1294 769 1306 L 833 1328 L 1031 1400 L 1147 1449 Z"/><path d="M 1197 1017 Q 1204 977 1202 957 L 1195 900 Q 1196 889 1202 883 Q 1208 877 1226 878.5 Q 1244 880 1259 886.5 Q 1274 893 1304.5 910.5 Q 1335 928 1349.5 944.5 Q 1364 961 1362 969 L 1355 1005 L 1326 1086 Q 1308 1131 1289 1178 Q 1270 1225 1236.5 1296 Q 1203 1367 1172 1412 L 1147 1449 L 1069 1536 Q 1010 1591 963.5 1627.5 Q 917 1664 847 1700 Q 777 1736 693.5 1759 Q 610 1782 554 1784.5 Q 498 1787 465 1785 L 436 1784 Q 412 1784 405 1779 Q 398 1774 399.5 1766.5 Q 401 1759 423 1753 L 455 1745 Q 491 1736 516 1729.5 Q 541 1723 611.5 1697 Q 682 1671 756 1631.5 Q 830 1592 883 1541 L 961 1469 L 1031 1400 Q 1056 1365 1074.5 1336 Q 1093 1307 1120 1257 Q 1147 1207 1159 1172 L 1188 1091 L 1197 1017 Z"/><path d="M 884 1035 L 1197 1017 L 1355 1005 L 1486 990 L 1583 979 Q 1642 972 1683 964.5 Q 1724 957 1742 957 Q 1764 958 1785.5 966.5 Q 1807 975 1845.5 994.5 Q 1884 1014 1902.5 1028.5 Q 1921 1043 1920 1058 Q 1918 1069 1909 1076 Q 1900 1083 1875 1083 L 1793 1086 L 1487 1083 L 1326 1086 L 1188 1091 L 850 1114 L 748 1122 Q 688 1128 634.5 1134.5 Q 581 1141 499 1156 L 401 1175 L 322 1192 Q 294 1198 277 1197 Q 252 1197 227 1187 L 177 1163 Q 137 1145 128.5 1127 Q 120 1109 126 1101 Q 132 1093 154 1091 L 234 1087 L 393 1081 L 626 1061 L 779 1049 L 884 1035 Z"/></g>
</g>
</svg>