<svg xmlns="http://www.w3.org/2000/svg" viewBox="0 0 2048 2048" width="300" height="300" data-char="日" data-unicode="U+65E5">
  <g class="guides" stroke="#eee" stroke-width="2" fill="none">
    <rect x="0" y="0" width="2048" height="2048"/>
    <line x1="1024" y1="0" x2="1024" y2="2048"/>
    <line x1="0" y1="1024" x2="2048" y2="1024"/>
  </g>
  <g class="outlines">
    <path d="M 659 1537 L 654 1598 Q 649 1650 630.5 1652.5 Q 612 1655 587 1617 Q 562 1583 553 1556.5 Q 544 1530 543 1499.5 Q 542 1469 554 1395 Q 564 1337 569 1288 Q 574 1239 578.5 1168 Q 583 1097 590 931 Q 597 765 595 680 Q 593 623 587 590 Q 581 557 573 539 L 550 497 Q 543 479 547 473 Q 551 467 562 464.5 Q 573 462 593 464 Q 630 469 643 475 L 667 486 Q 701 501 695 552 L 684 981 L 682 1039 L 668 1460 L 659 1537 Z" fill="#ccc" data-stroke-index="0" data-kind="1"/>
    <path d="M 667 486 Q 738 475 801 465 Q 864 455 906 447 L 1077 413 Q 1145 401 1160 397 L 1218 383 Q 1238 379 1246.5 375.5 Q 1255 372 1272 363 Q 1289 354 1296 352 Q 1309 350 1333 359 Q 1357 368 1401.5 391 Q 1446 414 1475.5 439 Q 1505 464 1505 480 Q 1504 488 1494 505 Q 1484 522 1477 539.5 Q 1470 557 1466.5 575 Q 1463 593 1459 656 Q 1455 719 1455 720 L 1450 1064 Q 1449 1099 1454 1219 L 1458 1337 Q 1460 1392 1460 1412 Q 1459 1450 1454 1490 Q 1449 1530 1439.5 1560 Q 1430 1590 1407.5 1627.5 Q 1385 1665 1354 1685 Q 1323 1705 1305 1698 Q 1289 1693 1274.5 1654.5 Q 1260 1616 1241 1580 Q 1222 1544 1218 1535 L 1201 1505 Q 1147 1399 1221 1423 L 1271 1443 Q 1285 1403 1290 1380.5 Q 1295 1358 1300.5 1301 Q 1306 1244 1307 1226 L 1311 982 L 1316 935 L 1311 603 Q 1310 554 1304 529 Q 1298 504 1278.5 490 Q 1259 476 1215 475 Q 1157 475 1086 483.5 Q 1015 492 948.5 504.5 Q 882 517 819.5 533.5 Q 757 550 743 550 L 695 552 L 667 486 Z" fill="#ccc" data-stroke-index="1" data-kind="5"/>
    <path d="M 1311 982 Q 1258 992 1232 995 L 1119 1011 L 971 1036 Q 888 1050 822 1053.5 Q 756 1057 735 1051 L 682 1039 L 684 981 Q 723 978 755.5 975 Q 788 972 823.5 967 Q 859 962 948.5 945.5 Q 1038 929 1082 915.5 Q 1126 902 1140 900 Q 1154 898 1171 898 Q 1189 899 1214 905.5 Q 1239 912 1277 923 L 1316 935 L 1311 982 Z" fill="#ccc" data-stroke-index="2" data-kind="2"/>
    <path d="M 1201 1505 Q 1142 1508 1121 1510 Q 1100 1512 1039 1519 Q 978 1526 864.5 1537.5 Q 751 1549 710 1543 L 659 1537 L 668 1460 Q 702 1458 761 1455 Q 820 1452 857.5 1448.5 Q 895 1445 971.5 1435 Q 1048 1425 1095 1418 Q 1142 1411 1166 1412 Q 1200 1414 1221 1423 L 1201 1505 Z" fill="#ccc" data-stroke-index="3" data-kind="2"/>
  </g>
  <g class="tracks" fill="none" stroke-linecap="round" stroke-linejoin="round">
    <polyline points="626.00,476.00 625.93,515.72 625.86,555.45 625.79,595.17 625.72,634.90 625.66,674.62 625.59,714.34 625.52,754.07 625.45,793.79 625.38,833.52 625.31,873.24 625.24,912.97 625.17,952.69 625.10,992.41 625.03,1032.14 624.97,1071.86 624.90,1111.59 624.83,1151.31 624.76,1191.03 624.69,1230.76 624.62,1270.48 624.55,1310.21 624.48,1349.93 624.41,1389.66 624.34,1429.38 624.28,1469.10 624.21,1508.83 624.14,1548.55 624.07,1588.28 624.00,1628.00" stroke="#c00" stroke-width="8.0" data-stroke-index="0" data-kind="1"/>
    <polyline points="684.00,511.00 756.42,494.51 832.79,476.28 911.15,457.19 989.50,438.09 1065.88,419.86 1138.30,403.37 1204.78,389.48 1263.34,379.07 1312.00,373.00 1429.81,386.06 1459.00,446.00 1444.70,484.85 1405.07,541.93 1378.00,683.00 1376.81,730.65 1376.64,785.18 1377.38,845.78 1378.91,911.61 1381.09,981.85 1383.81,1055.67 1386.94,1132.25 1390.36,1210.76 1393.94,1290.36 1397.56,1370.24 1401.10,1449.58 1404.44,1527.53 1407.45,1603.28 1410.00,1676.00" stroke="#c00" stroke-width="8.0" data-stroke-index="1" data-kind="5"/>
    <polyline points="690.00,1006.00 711.17,1004.21 732.34,1002.41 753.52,1000.62 774.69,998.83 795.86,997.03 817.03,995.24 838.21,993.45 859.38,991.66 880.55,989.86 901.72,988.07 922.90,986.28 944.07,984.48 965.24,982.69 986.41,980.90 1007.59,979.10 1028.76,977.31 1049.93,975.52 1071.10,973.72 1092.28,971.93 1113.45,970.14 1134.62,968.34 1155.79,966.55 1176.97,964.76 1198.14,962.97 1219.31,961.17 1240.48,959.38 1261.66,957.59 1282.83,955.79 1304.00,954.00" stroke="#c00" stroke-width="8.0" data-stroke-index="2" data-kind="2"/>
    <polyline points="670.00,1510.00 688.21,1508.34 706.41,1506.69 724.62,1505.03 742.83,1503.38 761.03,1501.72 779.24,1500.07 797.45,1498.41 815.66,1496.76 833.86,1495.10 852.07,1493.45 870.28,1491.79 888.48,1490.14 906.69,1488.48 924.90,1486.83 943.10,1485.17 961.31,1483.52 979.52,1481.86 997.72,1480.21 1015.93,1478.55 1034.14,1476.90 1052.34,1475.24 1070.55,1473.59 1088.76,1471.93 1106.97,1470.28 1125.17,1468.62 1143.38,1466.97 1161.59,1465.31 1179.79,1463.66 1198.00,1462.00" stroke="#c00" stroke-width="8.0" data-stroke-index="3" data-kind="2"/>
  </g>
  <g class="numbers" font-family="sans-serif" font-weight="bold" fill="#008">
    <text x="586.0" y="456.0" font-size="140">1</text>
    <text x="644.0" y="491.0" font-size="140">2</text>
    <text x="650.0" y="986.0" font-size="140">3</text>
    <text x="630.0" y="1490.0" font-size="140">4</text>
  </g>
</svg>