<svg xmlns="http://www.w3.org/2000/svg" viewBox="0 0 2048 2048" width="300" height="300" data-char="永" data-unicode="U+6C38">
  <g class="guides" stroke="#eee" stroke-width="2" fill="none">
    <rect x="0" y="0" width="2048" height="2048"/>
    <line x1="1024" y1="0" x2="1024" y2="2048"/>
    <line x1="0" y1="1024" x2="2048" y2="1024"/>
  </g>
  <g class="outlines">
    <path d="M 880.0 224.0 Q 994.0 338.0 1070.0 364.0 Q 1106.0 366.0 1124.0 336.0 Q 1138.0 304.0 1128.0 266.0 Q 1092.0 170.0 954.0 144.0 Q 876.0 118.0 842.0 132.0 Q 828.0 138.0 836.0 166.0 Q 842.0 192.0 880.0 224.0 Z" fill="#ccc" data-stroke-index="0" data-kind="4"/>
    <path d="M 1064.0 904.0 Q 1064.0 706.0 1092.0 660.0 Q 1118.0 622.0 1092.0 598.0 Q 1048.0 560.0 972.0 528.0 Q 924.0 510.0 826.0 570.0 Q 742.0 602.0 612.0 622.0 Q 580.0 624.0 598.0 644.0 Q 618.0 664.0 648.0 676.0 Q 686.0 684.0 740.0 670.0 Q 812.0 650.0 882.0 626.0 Q 920.0 612.0 934.0 632.0 Q 946.0 668.0 950.0 724.0 Q 964.0 1258.0 940.0 1580.0 Q 938.0 1640.0 918.0 1666.0 Q 906.0 1678.0 738.0 1636.0 Q 684.0 1610.0 688.0 1642.0 Q 822.0 1746.0 900.0 1826.0 Q 926.0 1864.0 960.0 1876.0 Q 980.0 1884.0 998.0 1864.0 Q 1082.0 1768.0 1080.0 1646.0 Q 1066.0 1386.0 1064.0 994.0 L 1064.0 904.0 Z" fill="#ccc" data-stroke-index="1" data-kind="6"/>
    <path d="M 234.0 998.0 Q 208.0 998.0 204.0 1016.0 Q 202.0 1030.0 234.0 1046.0 Q 326.0 1096.0 384.0 1074.0 Q 618.0 1006.0 640.0 1010.0 Q 666.0 1016.0 646.0 1070.0 Q 560.0 1288.0 480.0 1390.0 Q 400.0 1506.0 252.0 1628.0 Q 222.0 1654.0 244.0 1658.0 Q 264.0 1660.0 306.0 1640.0 Q 440.0 1572.0 550.0 1456.0 Q 654.0 1352.0 788.0 1076.0 Q 808.0 1032.0 832.0 1006.0 Q 862.0 982.0 844.0 962.0 Q 824.0 936.0 748.0 910.0 Q 706.0 890.0 610.0 932.0 Q 430.0 976.0 234.0 998.0 Z" fill="#ccc" data-stroke-index="2" data-kind="5"/>
    <path d="M 1134.0 986.0 Q 1278.0 896.0 1490.0 748.0 Q 1534.0 716.0 1586.0 696.0 Q 1634.0 676.0 1612.0 636.0 Q 1586.0 598.0 1530.0 564.0 Q 1480.0 532.0 1450.0 536.0 Q 1424.0 538.0 1430.0 568.0 Q 1438.0 636.0 1282.0 790.0 Q 1202.0 870.0 1112.0 960.0 C 1070.0 1002.0 1084.0 1018.0 1134.0 986.0 Z" fill="#ccc" data-stroke-index="3" data-kind="5"/>
    <path d="M 1112.0 960.0 Q 1086.0 928.0 1064.0 904.0 C 1024.0 860.0 1030.0 946.0 1064.0 994.0 Q 1474.0 1572.0 1598.0 1568.0 Q 1742.0 1548.0 1866.0 1530.0 Q 1920.0 1524.0 1920.0 1510.0 Q 1922.0 1496.0 1860.0 1470.0 Q 1554.0 1366.0 1466.0 1294.0 Q 1356.0 1208.0 1134.0 986.0 L 1112.0 960.0 Z" fill="#ccc" data-stroke-index="4" data-kind="8"/>
  </g>
  <g class="tracks" fill="none" stroke-linecap="round" stroke-linejoin="round">
    <polyline points="856.00,152.00 864.46,156.83 873.16,161.75 882.04,166.75 891.06,171.80 900.17,176.89 909.33,182.00 918.49,187.11 927.60,192.20 936.62,197.25 945.51,202.25 954.20,207.17 962.67,212.00 970.85,216.72 978.72,221.31 986.21,225.75 993.28,230.02 999.90,234.11 1006.00,238.00 1018.13,246.11 1028.45,253.50 1037.20,260.27 1044.62,266.50 1050.97,272.30 1056.48,277.75 1061.41,282.95 1066.00,288.00 1073.56,299.48 1075.78,308.74 1078.00,318.00" stroke="#c00" stroke-width="8.0" data-stroke-index="0" data-kind="4"/>
    <polyline points="618.00,642.00 660.12,645.00 716.00,640.00 783.41,619.93 863.04,592.74 924.00,574.00 953.75,571.50 964.00,584.00 992.88,554.12 1016.00,638.00 1017.29,675.84 1018.14,723.43 1018.58,779.31 1018.66,841.99 1018.44,910.00 1017.97,981.86 1017.28,1056.08 1016.43,1131.21 1015.47,1205.74 1014.44,1278.22 1013.40,1347.16 1012.38,1411.09 1011.45,1468.52 1010.64,1517.98 1010.00,1558.00 1007.38,1673.12 1000.00,1682.00 992.75,1731.50 956.00,1752.00 908.70,1737.52 845.62,1709.12 776.23,1675.17 710.00,1644.00" stroke="#c00" stroke-width="8.0" data-stroke-index="1" data-kind="6"/>
    <polyline points="220.00,1018.00 257.75,1026.25 298.00,1032.00 336.38,1033.75 396.00,1026.00 439.42,1016.16 494.67,1002.16 553.01,986.88 605.70,973.20 644.00,964.00 673.00,959.25 678.00,966.00 710.88,972.50 734.00,996.00 730.44,1029.85 715.78,1075.70 690.00,1134.00 671.79,1170.25 649.41,1212.44 624.25,1257.75 597.70,1303.33 571.16,1346.36 546.00,1384.00 510.19,1431.28 474.50,1472.25 438.56,1508.59 402.00,1542.00 364.56,1571.44 326.50,1596.50 288.19,1619.81 250.00,1644.00" stroke="#c00" stroke-width="8.0" data-stroke-index="2" data-kind="5"/>
    <polyline points="1450.00,558.00 1462.89,575.19 1475.78,592.37 1486.00,608.00 1495.00,628.12 1498.00,644.00 1503.62,644.12 1486.00,660.00 1477.17,668.47 1466.38,678.85 1453.89,690.84 1440.00,704.15 1424.98,718.47 1409.12,733.50 1392.70,748.95 1376.00,764.52 1359.30,779.91 1342.88,794.81 1327.02,808.95 1312.00,822.00 1295.53,835.81 1278.01,849.99 1259.84,864.32 1241.41,878.59 1223.10,892.56 1205.33,906.03 1188.46,918.77 1172.90,930.56 1159.05,941.17 1147.28,950.39 1138.00,958.00 1127.12,971.75 1138.00,970.00" stroke="#c00" stroke-width="8.0" data-stroke-index="3" data-kind="5"/>
    <polyline points="1064.00,918.00 1083.25,962.62 1102.00,1002.00 1107.62,1013.38 1136.00,1044.00 1155.12,1065.11 1179.70,1092.25 1208.22,1123.64 1239.12,1157.50 1270.89,1192.05 1301.98,1225.50 1330.87,1256.08 1356.00,1282.00 1390.34,1316.00 1421.09,1345.04 1449.07,1370.08 1475.10,1392.08 1500.00,1412.00 1529.56,1438.67 1554.44,1457.78 1602.00,1474.00 1630.49,1479.74 1664.16,1484.83 1701.81,1489.40 1742.25,1493.62 1784.29,1497.64 1826.72,1501.61 1868.36,1505.68 1908.00,1510.00" stroke="#c00" stroke-width="8.0" data-stroke-index="4" data-kind="8"/>
  </g>
  <g class="numbers" font-family="sans-serif" font-weight="bold" fill="#008">
    <text x="816.0" y="132.0" font-size="140">1</text>
    <text x="578.0" y="622.0" font-size="140">2</text>
    <text x="180.0" y="998.0" font-size="140">3</text>
    <text x="1410.0" y="538.0" font-size="140">4</text>
    <text x="1024.0" y="898.0" font-size="140">5</text>
  </g>
</svg>