<svg xmlns="http://www.w3.org/2000/svg" viewBox="0 0 2048 2048" width="300" height="300" data-char="永" data-unicode="U+6C38">
  <g class="guides" stroke="#eee" stroke-width="2" fill="none">
    <rect x="0" y="0" width="2048" height="2048"/>
    <line x1="1024" y1="0" x2="1024" y2="2048"/>
    <line x1="0" y1="1024" x2="2048" y2="1024"/>
  </g>
  <g class="outlines">
    <path d="M 855 226 L 822 177 Q 810 161 817.5 151 Q 825 141 845 145 L 906 158 Q 938 165 961.5 171.5 Q 985 178 1012.5 187.5 Q 1040 197 1062 212 Q 1084 227 1095 249.5 Q 1106 272 1106.5 310 Q 1107 348 1096 370 Q 1086 388 1074 393.5 Q 1062 399 1046 398 Q 1018 397 993 382 Q 968 367 946.5 342.5 Q 925 318 896 281.5 Q 867 245 855 226 Z" fill="#ccc" data-stroke-index="0" data-kind="4"/>
    <path d="M 1062 1079 L 1063 1479 Q 1063 1589 1062 1638 Q 1061 1687 1051 1731.5 Q 1041 1776 1014 1824.5 Q 987 1873 960 1888.5 Q 933 1904 921 1903 Q 904 1903 883 1883 L 794 1774 L 741 1718 L 699 1673 Q 683 1657 688.5 1648.5 Q 694 1640 705 1644 L 754 1664 Q 796 1682 832.5 1699.5 Q 869 1717 889 1707 Q 899 1702 908.5 1688.5 Q 918 1675 924 1645.5 Q 930 1616 933 1585 Q 936 1554 941.5 1446 Q 947 1338 948 1308 L 954 808 Q 954 778 949.5 734.5 Q 945 691 935 683.5 Q 925 676 914 675.5 Q 903 675 878 679 L 781 695 Q 733 703 710 702.5 Q 687 702 667.5 695.5 Q 648 689 636.5 677.5 Q 625 666 626.5 659 Q 628 652 653 648 L 702 640 Q 726 637 757.5 629 Q 789 621 822.5 610.5 Q 856 600 884.5 589.5 Q 913 579 937.5 569.5 Q 962 560 973 560 Q 982 561 1007 570 L 1049 586 Q 1064 593 1080.5 603.5 Q 1097 614 1099 623 Q 1101 632 1095 650 Q 1084 679 1080.5 696 Q 1077 713 1071.5 744 Q 1066 775 1062.5 800 Q 1059 825 1060 869 L 1062 971 L 1062 1079 Z" fill="#ccc" data-stroke-index="1" data-kind="5"/>
    <path d="M 225 1630 L 160 1649 Q 144 1654 142.5 1643 Q 141 1632 158 1619 L 207 1583 Q 252 1549 302 1509.5 Q 352 1470 397.5 1426.5 Q 443 1383 490 1329 Q 537 1275 576.5 1215.5 Q 616 1156 636.5 1116.5 Q 657 1077 661.5 1060.5 Q 666 1044 661.5 1038.5 Q 657 1033 622 1040 L 527 1060 Q 504 1065 447 1079.5 Q 390 1094 359 1100.5 Q 328 1107 316 1105 Q 299 1104 266.5 1084 Q 234 1064 222 1050.5 Q 210 1037 212.5 1030 Q 215 1023 243 1021 L 288 1018 Q 312 1017 387.5 1004.5 Q 463 992 495.5 986 Q 528 980 594 964 Q 660 948 690.5 937.5 Q 721 927 732 927 Q 751 928 780 950.5 Q 809 973 834 998 Q 859 1023 858 1037 Q 856 1050 836 1069 L 789 1113 Q 768 1135 719 1207.5 Q 670 1280 612.5 1348.5 Q 555 1417 493 1472 Q 431 1527 377 1558.5 Q 323 1590 286.5 1606.5 Q 250 1623 225 1630 Z" fill="#ccc" data-stroke-index="2" data-kind="5"/>
    <path d="M 1062 971 Q 1089 945 1146.5 889.5 Q 1204 834 1226.5 810 Q 1249 786 1297 722.5 Q 1345 659 1359.5 630 Q 1374 601 1383.5 572 Q 1393 543 1402.5 536.5 Q 1412 530 1442 537 Q 1473 546 1500.5 561 Q 1528 576 1557 596.5 Q 1586 617 1595.5 630 Q 1605 643 1605 652 Q 1603 666 1568.5 681.5 Q 1534 697 1514 710 Q 1494 723 1435.5 768.5 Q 1377 814 1294 869.5 Q 1211 925 1180 941 L 1078 996 Q 1030 1004.5 1062 971 Z" fill="#ccc" data-stroke-index="3" data-kind="7"/>
    <path d="M 1078 996 Q 1187 1116 1258 1183.5 Q 1329 1251 1409 1309.5 Q 1489 1368 1566.5 1409.5 Q 1644 1451 1704 1477 Q 1764 1503 1826 1527 L 1890 1553 Q 1904 1559 1904.5 1570 Q 1905 1581 1874 1589 Q 1842 1598 1779 1609 Q 1716 1620 1691 1623.5 Q 1666 1627 1622 1628 Q 1577 1630 1538 1627 Q 1499 1624 1480 1614.5 Q 1461 1605 1430 1576.5 Q 1399 1548 1378.5 1523 Q 1358 1498 1314 1434 L 1195 1269 L 1062 1079 C 981.3333333333333 998.3333333333333 1012.6666666666667 898.6666666666666 1078 996 Z" fill="#ccc" data-stroke-index="4" data-kind="8"/>
  </g>
  <g class="tracks" fill="none" stroke-linecap="round" stroke-linejoin="round">
    <polyline points="828.00,161.00 836.62,167.69 845.24,174.38 853.86,181.07 862.48,187.76 871.10,194.45 879.72,201.14 888.34,207.83 896.97,214.52 905.59,221.21 914.21,227.90 922.83,234.59 931.45,241.28 940.07,247.97 948.69,254.66 957.31,261.34 965.93,268.03 974.55,274.72 983.17,281.41 991.79,288.10 1000.41,294.79 1009.03,301.48 1017.66,308.17 1026.28,314.86 1034.90,321.55 1043.52,328.24 1052.14,334.93 1060.76,341.62 1069.38,348.31 1078.00,355.00" stroke="#c00" stroke-width="8.0" data-stroke-index="0" data-kind="4"/>
    <polyline points="652.00,668.00 735.28,632.02 821.75,593.38 901.84,560.05 966.00,540.00 1045.12,528.75 1076.00,582.00 1072.13,637.23 1056.94,711.62 1036.50,797.18 1016.83,885.97 1004.00,970.00 1000.10,1047.68 1001.09,1124.32 1003.83,1202.32 1005.18,1284.08 1002.00,1372.00 997.77,1446.28 993.66,1532.96 988.66,1624.47 981.73,1713.28 971.83,1791.84 957.93,1852.59 939.00,1888.00 891.09,1882.41 829.19,1818.31 761.70,1730.80 697.00,1655.00" stroke="#c00" stroke-width="8.0" data-stroke-index="1" data-kind="5"/>
    <polyline points="246.00,1043.00 303.20,1021.90 363.38,998.64 425.04,974.30 486.70,949.96 546.87,926.70 604.07,905.59 656.82,887.72 703.62,874.17 743.00,866.00 854.56,884.00 879.00,951.00 860.97,984.58 824.58,1024.33 777.22,1068.79 726.23,1116.50 679.00,1166.00 643.28,1210.47 607.26,1259.19 570.44,1309.81 532.30,1360.04 492.32,1407.54 450.00,1450.00 404.65,1486.67 356.56,1519.26 306.62,1549.12 255.78,1577.63 204.93,1606.13 155.00,1636.00" stroke="#c00" stroke-width="8.0" data-stroke-index="2" data-kind="5"/>
    <polyline points="1516.00,575.00 1500.79,590.78 1485.58,606.77 1470.35,622.91 1455.12,639.15 1439.89,655.44 1424.66,671.74 1409.43,687.98 1394.20,704.12 1378.98,720.10 1363.78,735.89 1348.58,751.42 1333.41,766.65 1318.25,781.52 1303.11,795.99 1288.00,810.00 1271.84,824.47 1255.70,838.42 1239.59,851.91 1223.50,865.01 1207.42,877.78 1191.36,890.27 1175.31,902.56 1159.27,914.71 1143.23,926.77 1127.20,938.80 1111.16,950.89 1095.12,963.07 1079.06,975.42 1063.00,988.00" stroke="#c00" stroke-width="8.0" data-stroke-index="3" data-kind="7"/>
    <polyline points="1037.00,992.00 1062.12,1022.47 1086.92,1053.13 1111.56,1083.89 1136.19,1114.65 1160.99,1145.31 1186.11,1175.78 1211.71,1205.95 1237.95,1235.72 1265.00,1265.00 1289.70,1291.77 1314.40,1319.54 1339.27,1347.76 1364.48,1375.93 1390.19,1403.50 1416.56,1429.95 1443.76,1454.76 1471.96,1477.38 1501.32,1497.31 1532.00,1514.00 1564.29,1527.00 1598.18,1536.60 1633.39,1543.40 1669.63,1548.00 1706.62,1551.00 1744.09,1553.00 1781.74,1554.60 1819.30,1556.40 1856.48,1559.00 1893.00,1563.00" stroke="#c00" stroke-width="8.0" data-stroke-index="4" data-kind="8"/>
  </g>
  <g class="numbers" font-family="sans-serif" font-weight="bold" fill="#008">
    <text x="788.0" y="141.0" font-size="140">1</text>
    <text x="612.0" y="648.0" font-size="140">2</text>
    <text x="206.0" y="1023.0" font-size="140">3</text>
    <text x="1476.0" y="555.0" font-size="140">4</text>
    <text x="997.0" y="972.0" font-size="140">5</text>
  </g>
</svg>