<svg xmlns="http://www.w3.org/2000/svg" viewBox="0 0 210.0 297.0" width="210.0mm" height="297.0mm">
<rect x="0" y="0" width="210.0" height="297.0" fill="white"/>
<rect x="0.5" y="0.5" width="209.0" height="296.0" fill="none" stroke="#aaa" stroke-width="0.4"/>
<g class="grid" fill="none" stroke="#c8c8c8" stroke-width="0.2">
  <line x1="15.00" y1="15.00" x2="195.00" y2="15.00"/>
  <line x1="15.00" y1="30.00" x2="195.00" y2="30.00"/>
  <line x1="15.00" y1="45.00" x2="195.00" y2="45.00"/>
  <line x1="15.00" y1="60.00" x2="195.00" y2="60.00"/>
  <line x1="15.00" y1="75.00" x2="195.00" y2="75.00"/>
  <line x1="15.00" y1="90.00" x2="195.00" y2="90.00"/>
  <line x1="15.00" y1="105.00" x2="195.00" y2="105.00"/>
  <line x1="15.00" y1="120.00" x2="195.00" y2="120.00"/>
  <line x1="15.00" y1="135.00" x2="195.00" y2="135.00"/>
  <line x1="15.00" y1="150.00" x2="195.00" y2="150.00"/>
  <line x1="15.00" y1="165.00" x2="195.00" y2="165.00"/>
  <line x1="15.00" y1="180.00" x2="195.00" y2="180.00"/>
  <line x1="15.00" y1="195.00" x2="195.00" y2="195.00"/>
  <line x1="15.00" y1="210.00" x2="195.00" y2="210.00"/>
  <line x1="15.00" y1="225.00" x2="195.00" y2="225.00"/>
  <line x1="15.00" y1="240.00" x2="195.00" y2="240.00"/>
  <line x1="15.00" y1="255.00" x2="195.00" y2="255.00"/>
  <line x1="15.00" y1="270.00" x2="195.00" y2="270.00"/>
  <line x1="15.00" y1="282.00" x2="195.00" y2="282.00"/>
  <line x1="15.00" y1="15.00" x2="15.00" y2="282.00"/>
  <line x1="30.00" y1="15.00" x2="30.00" y2="282.00"/>
  <line x1="45.00" y1="15.00" x2="45.00" y2="282.00"/>
  <line x1="60.00" y1="15.00" x2="60.00" y2="282.00"/>
  <line x1="75.00" y1="15.00" x2="75.00" y2="282.00"/>
  <line x1="90.00" y1="15.00" x2="90.00" y2="282.00"/>
  <line x1="105.00" y1="15.00" x2="105.00" y2="282.00"/>
  <line x1="120.00" y1="15.00" x2="120.00" y2="282.00"/>
  <line x1="135.00" y1="15.00" x2="135.00" y2="282.00"/>
  <line x1="150.00" y1="15.00" x2="150.00" y2="282.00"/>
  <line x1="165.00" y1="15.00" x2="165.00" y2="282.00"/>
  <line x1="180.00" y1="15.00" x2="180.00" y2="282.00"/>
  <line x1="195.00" y1="15.00" x2="195.00" y2="282.00"/>
  </g>
<g class="chars">
<g transform="translate(15.0,15.0) scale(0.00732421875,0.00732421875)"><g fill="#222"><path d="M 855 226 L 822 177 Q 810 161 817.5 151 Q 825 141 845 145 L 906 158 Q 938 165 961.5 171.5 Q 985 178 1012.5 187.5 Q 1040 197 1062 212 Q 1084 227 1095 249.5 Q 1106 272 1106.5 310 Q 1107 348 1096 370 Q 1086 388 1074 393.5 Q 1062 399 1046 398 Q 1018 397 993 382 Q 968 367 946.5 342.5 Q 925 318 896 281.5 Q 867 245 855 226 Z"/><path d="M 1062 1079 L 1063 1479 Q 1063 1589 1062 1638 Q 1061 1687 1051 1731.5 Q 1041 1776 1014 1824.5 Q 987 1873 960 1888.5 Q 933 1904 921 1903 Q 904 1903 883 1883 L 794 1774 L 741 1718 L 699 1673 Q 683 1657 688.5 1648.5 Q 694 1640 705 1644 L 754 1664 Q 796 1682 832.5 1699.5 Q 869 1717 889 1707 Q 899 1702 908.5 1688.5 Q 918 1675 924 1645.5 Q 930 1616 933 1585 Q 936 1554 941.5 1446 Q 947 1338 948 1308 L 954 808 Q 954 778 949.5 734.5 Q 945 691 935 683.5 Q 925 676 914 675.5 Q 903 675 878 679 L 781 695 Q 733 703 710 702.5 Q 687 702 667.5 695.5 Q 648 689 636.5 677.5 Q 625 666 626.5 659 Q 628 652 653 648 L 702 640 Q 726 637 757.5 629 Q 789 621 822.5 610.5 Q 856 600 884.5 589.5 Q 913 579 937.5 569.5 Q 962 560 973 560 Q 982 561 1007 570 L 1049 586 Q 1064 593 1080.5 603.5 Q 1097 614 1099 623 Q 1101 632 1095 650 Q 1084 679 1080.5 696 Q 1077 713 1071.5 744 Q 1066 775 1062.5 800 Q 1059 825 1060 869 L 1062 971 L 1062 1079 Z"/><path d="M 225 1630 L 160 1649 Q 144 1654 142.5 1643 Q 141 1632 158 1619 L 207 1583 Q 252 1549 302 1509.5 Q 352 1470 397.5 1426.5 Q 443 1383 490 1329 Q 537 1275 576.5 1215.5 Q 616 1156 636.5 1116.5 Q 657 1077 661.5 1060.5 Q 666 1044 661.5 1038.5 Q 657 1033 622 1040 L 527 1060 Q 504 1065 447 1079.5 Q 390 1094 359 1100.5 Q 328 1107 316 1105 Q 299 1104 266.5 1084 Q 234 1064 222 1050.5 Q 210 1037 212.5 1030 Q 215 1023 243 1021 L 288 1018 Q 312 1017 387.5 1004.5 Q 463 992 495.5 986 Q 528 980 594 964 Q 660 948 690.5 937.5 Q 721 927 732 927 Q 751 928 780 950.5 Q 809 973 834 998 Q 859 1023 858 1037 Q 856 1050 836 1069 L 789 1113 Q 768 1135 719 1207.5 Q 670 1280 612.5 1348.5 Q 555 1417 493 1472 Q 431 1527 377 1558.5 Q 323 1590 286.5 1606.5 Q 250 1623 225 1630 Z"/><path d="M 1062 971 Q 1089 945 1146.5 889.5 Q 1204 834 1226.5 810 Q 1249 786 1297 722.5 Q 1345 659 1359.5 630 Q 1374 601 1383.5 572 Q 1393 543 1402.5 536.5 Q 1412 530 1442 537 Q 1473 546 1500.5 561 Q 1528 576 1557 596.5 Q 1586 617 1595.5 630 Q 1605 643 1605 652 Q 1603 666 1568.5 681.5 Q 1534 697 1514 710 Q 1494 723 1435.5 768.5 Q 1377 814 1294 869.5 Q 1211 925 1180 941 L 1078 996 Q 1030 1004.5 1062 971 Z"/><path d="M 1078 996 Q 1187 1116 1258 1183.5 Q 1329 1251 1409 1309.5 Q 1489 1368 1566.5 1409.5 Q 1644 1451 1704 1477 Q 1764 1503 1826 1527 L 1890 1553 Q 1904 1559 1904.5 1570 Q 1905 1581 1874 1589 Q 1842 1598 1779 1609 Q 1716 1620 1691 1623.5 Q 1666 1627 1622 1628 Q 1577 1630 1538 1627 Q 1499 1624 1480 1614.5 Q 1461 1605 1430 1576.5 Q 1399 1548 1378.5 1523 Q 1358 1498 1314 1434 L 1195 1269 L 1062 1079 C 981.3333333333333 998.3333333333333 1012.6666666666667 898.6666666666666 1078 996 Z"/></g></g>
<g transform="translate(30.0,15.0) scale(0.00732421875,0.00732421875)"><g fill="#222"><path d="M 892 298 L 872 271 Q 862 259 868.5 251 Q 875 243 892 246 L 934 254 Q 971 262 999 272 Q 1027 282 1057.5 300.5 Q 1088 319 1104 342.5 Q 1120 366 1120 398 Q 1119 421 1110 440.5 Q 1101 460 1085 473 Q 1069 486 1046 482 Q 1025 479 1007.5 460 Q 990 441 965.5 406.5 Q 941 372 917.5 337 Q 894 302 892 298 Z"/><path d="M 1268 467 L 1286 444 Q 1310 413 1332.5 378.5 Q 1355 344 1379.5 301.5 Q 1404 259 1412 219 Q 1420 179 1426 171 Q 1432 163 1443 160 Q 1454 157 1486 170 Q 1518 183 1527 187 L 1565 207 Q 1584 218 1596.5 229.5 Q 1609 241 1607 254 Q 1604 265 1579.5 275 Q 1555 285 1542.5 292.5 Q 1530 300 1496 332 Q 1462 364 1430 390 Q 1398 416 1366.5 437 Q 1335 458 1315 469 L 1288 484 Q 1265 497 1261.5 488 Q 1258 479 1268 467 Z"/><path d="M 1099 633 L 1003 645 Q 946 653 902 665.5 Q 858 678 843 677 Q 827 677 796.5 667 Q 766 657 749 649.5 Q 732 642 717 630.5 Q 702 619 704 610.5 Q 706 602 722 600 L 798 591 Q 821 589 921.5 576.5 Q 1022 564 1045.5 560.5 Q 1069 557 1170 544 Q 1271 531 1327 523 L 1438 509 Q 1498 502 1544.5 489.5 Q 1591 477 1609 477 Q 1631 478 1656.5 487 Q 1682 496 1714.5 513.5 Q 1747 531 1757.5 546 Q 1768 561 1763.5 572.5 Q 1759 584 1735 585 L 1664 588 Q 1568 593 1466 596 Q 1364 599 1342 602 L 1207 618 L 1099 633 Z"/><path d="M 1207 618 Q 1225 628 1243.5 640 Q 1262 652 1261 664 Q 1259 673 1246 684 L 1211 706 Q 1204 711 1159 756 L 1095 820 Q 970 906.5 1035 823 L 1072 747 Q 1075 740 1084.5 712 Q 1094 684 1095 679 L 1099 633 Q 1088 575.5 1207 618 Z"/><path d="M 958 1466 L 957 1485 Q 956 1493 952.5 1504 Q 949 1515 940.5 1518 Q 932 1521 915 1505 Q 899 1491 887.5 1472 Q 876 1453 868 1431.5 Q 860 1410 859.5 1393 Q 859 1376 872 1312 Q 876 1289 882.5 1213 Q 889 1137 890 1112 L 892 976 Q 892 948 889 917.5 Q 886 887 868 864.5 Q 850 842 848.5 832.5 Q 847 823 855.5 817 Q 864 811 885 815 L 922 823 L 959 835 L 981 885 L 977 1014 L 974 1067 L 971 1221 L 969 1270 L 962 1396 L 958 1466 Z"/><path d="M 1095 820 L 1310 781 Q 1359 773 1391 762 Q 1423 751 1432 750 Q 1448 750 1476.5 760.5 Q 1505 771 1528 781 Q 1551 791 1573.5 808 Q 1596 825 1598 838 Q 1600 851 1582 884 Q 1566 913 1559 950 Q 1552 987 1555 1092 L 1558 1260 L 1563 1377 Q 1563 1418 1558 1441 Q 1554 1456 1542.5 1483.5 Q 1531 1511 1512.5 1527.5 Q 1494 1544 1480 1539 Q 1470 1537 1455.5 1510.5 Q 1441 1484 1436 1466 L 1424 1431 L 1435 1367 L 1438 1208 L 1438 1163 L 1438 1013 L 1435 967 L 1434 897 Q 1433 865 1419.5 851.5 Q 1406 838 1388.5 834.5 Q 1371 831 1346 830.5 Q 1321 830 1275 838 L 1169 857 Q 1125 865 1077 877 Q 1029 889 1019 887 L 981 885 L 959 835 L 1035 823 L 1095 820 Z"/><path d="M 1438 1013 L 1171 1053 Q 1047 1072 1043 1071 L 974 1067 L 977 1014 L 1242 966 Q 1334 950 1356.5 949 Q 1379 948 1402 956 L 1435 967 L 1438 1013 Z"/><path d="M 1438 1208 L 1126 1266 L 1043 1283 L 969 1270 L 971 1221 L 1189 1178 Q 1255 1165 1289.5 1156.5 Q 1324 1148 1338 1146 Q 1368 1144 1394 1151 L 1438 1163 L 1438 1208 Z"/><path d="M 1424 1431 L 958 1466 Q 855 1421 962 1396 L 1214 1366 L 1315 1355 Q 1357 1349 1372 1350 Q 1383 1352 1409 1359 L 1435 1367 Q 1534.5 1404 1424 1431 Z"/><path d="M 307 468 L 283 435 Q 273 423 275 418.5 Q 277 414 283 411 Q 289 408 296 409 L 330 415 Q 359 421 382 426.5 Q 405 432 438.5 442.5 Q 472 453 495 463.5 Q 518 474 531.5 489.5 Q 545 505 550.5 524.5 Q 556 544 556 560 Q 555 574 548 597 Q 541 620 527.5 632.5 Q 514 645 497.5 648 Q 481 651 452 627 Q 433 613 398.5 573 Q 364 533 340 507.5 Q 316 482 307 468 Z"/><path d="M 372 1202.5 Q 369 1195 369.5 1188.5 Q 370 1182 378 1163 L 427 1044 Q 438 1017 440.5 1008 Q 443 999 438 993 Q 433 987 418 990 Q 412 992 397 998 Q 382 1004 346 1013 Q 310 1022 292 1025.5 Q 274 1029 248 1026 Q 227 1025 208 1019.5 Q 189 1014 179.5 1006.5 Q 170 999 171 993 Q 171 987 175 984.5 Q 179 982 204 976 L 242 967 Q 262 963 312 945.5 Q 362 928 384 917.5 Q 406 907 439.5 887.5 Q 473 868 484 866 Q 497 865 517 873.5 Q 537 882 563.5 897.5 Q 590 913 607.5 930 Q 625 947 624 960 Q 622 971 605 986 L 572 1014 Q 555 1029 540 1047 L 463 1137 Q 451 1151 440 1166 Q 429 1181 430 1188 L 372 1202.5 Z"/><path d="M 459 1490 Q 464 1473 465.5 1463.5 Q 467 1454 469 1432 Q 471 1410 466 1378 Q 460 1351 448 1322 Q 436 1293 422 1269 Q 408 1245 391.5 1227.5 Q 375 1210 372 1202.5 L 430 1188 Q 430 1196 445 1207 L 485 1237 Q 515 1262 532.5 1291 Q 550 1320 550.5 1356 Q 551 1392 540 1422 Q 531 1445 519 1464 L 504 1488 Q 431.5 1554 459 1490 Z"/><path d="M 504 1488 L 522 1488 Q 565 1491 591 1495 Q 617 1499 671.5 1515 Q 726 1531 821 1561 Q 916 1591 976.5 1607.5 Q 1037 1624 1137 1643.5 Q 1237 1663 1322.5 1671.5 Q 1408 1680 1515.5 1683.5 Q 1623 1687 1717.5 1686.5 Q 1812 1686 1822 1686 L 1912 1687 Q 1936 1688 1941.5 1700.5 Q 1947 1713 1924 1725 L 1871 1752 Q 1847 1765 1811 1777.5 Q 1775 1790 1677.5 1826.5 Q 1580 1863 1537 1876.5 Q 1494 1890 1466 1890 Q 1425 1892 1364.5 1869.5 Q 1304 1847 1194 1802.5 Q 1084 1758 957 1707.5 Q 830 1657 774.5 1635 Q 719 1613 678.5 1600 Q 638 1587 591 1580.5 Q 544 1574 497 1574 Q 441 1575 385.5 1583 Q 330 1591 307 1598 Q 284 1605 259 1617.5 Q 234 1630 223 1630 Q 209 1631 194.5 1623 Q 180 1615 158 1595.5 Q 136 1576 127.5 1564.5 Q 119 1553 112 1538 Q 105 1523 107.5 1514 Q 110 1505 123 1500 Q 130 1498 147.5 1502 Q 165 1506 191.5 1508 Q 218 1510 240 1509 Q 257 1509 303 1504 L 374 1497 Q 426 1492 434 1491 L 459 1490 L 504 1488 Z"/></g></g>
</g>

<g class="page-number"><text x="105.0" y="292.0" font-size="3" fill="#999" font-family="sans-serif" text-anchor="middle">- 1 -</text></g>
</svg>