<svg xmlns="http://www.w3.org/2000/svg" viewBox="0 0 210.0 297.0" width="210.0mm" height="297.0mm">
<rect x="0" y="0" width="210.0" height="297.0" fill="white"/>
<rect x="0.5" y="0.5" width="209.0" height="296.0" fill="none" stroke="#aaa" stroke-width="0.4"/>
<g class="grid" fill="none" stroke="#c8c8c8" stroke-width="0.2">
  <line x1="15.00" y1="15.00" x2="195.00" y2="15.00"/>
  <line x1="15.00" y1="30.00" x2="195.00" y2="30.00"/>
  <line x1="15.00" y1="45.00" x2="195.00" y2="45.00"/>
  <line x1="15.00" y1="60.00" x2="195.00" y2="60.00"/>
  <line x1="15.00" y1="75.00" x2="195.00" y2="75.00"/>
  <line x1="15.00" y1="90.00" x2="195.00" y2="90.00"/>
  <line x1="15.00" y1="105.00" x2="195.00" y2="105.00"/>
  <line x1="15.00" y1="120.00" x2="195.00" y2="120.00"/>
  <line x1="15.00" y1="135.00" x2="195.00" y2="135.00"/>
  <line x1="15.00" y1="150.00" x2="195.00" y2="150.00"/>
  <line x1="15.00" y1="165.00" x2="195.00" y2="165.00"/>
  <line x1="15.00" y1="180.00" x2="195.00" y2="180.00"/>
  <line x1="15.00" y1="195.00" x2="195.00" y2="195.00"/>
  <line x1="15.00" y1="210.00" x2="195.00" y2="210.00"/>
  <line x1="15.00" y1="225.00" x2="195.00" y2="225.00"/>
  <line x1="15.00" y1="240.00" x2="195.00" y2="240.00"/>
  <line x1="15.00" y1="255.00" x2="195.00" y2="255.00"/>
  <line x1="15.00" y1="270.00" x2="195.00" y2="270.00"/>
  <line x1="15.00" y1="282.00" x2="195.00" y2="282.00"/>
  <line x1="15.00" y1="15.00" x2="15.00" y2="282.00"/>
  <line x1="30.00" y1="15.00" x2="30.00" y2="282.00"/>
  <line x1="45.00" y1="15.00" x2="45.00" y2="282.00"/>
  <line x1="60.00" y1="15.00" x2="60.00" y2="282.00"/>
  <line x1="75.00" y1="15.00" x2="75.00" y2="282.00"/>
  <line x1="90.00" y1="15.00" x2="90.00" y2="282.00"/>
  <line x1="105.00" y1="15.00" x2="105.00" y2="282.00"/>
  <line x1="120.00" y1="15.00" x2="120.00" y2="282.00"/>
  <line x1="135.00" y1="15.00" x2="135.00" y2="282.00"/>
  <line x1="150.00" y1="15.00" x2="150.00" y2="282.00"/>
  <line x1="165.00" y1="15.00" x2="165.00" y2="282.00"/>
  <line x1="180.00" y1="15.00" x2="180.00" y2="282.00"/>
  <line x1="195.00" y1="15.00" x2="195.00" y2="282.00"/>
  </g>
<g class="chars">
<g transform="translate(15.0,15.0) scale(0.00732421875,0.00732421875)"><g fill="#222"><path d="M 664.0 82.0 Q 964.0 140.0 1068.0 188.0 Q 1172.0 232.0 1172.0 296.0 Q 1172.0 344.0 1128.0 344.0 Q 1102.0 344.0 1046.0 302.0 Q 924.0 206.0 652.0 120.0 M 468.0 620.0 L 430.0 532.0 Q 550.0 552.0 618.0 550.0 L 974.0 550.0 L 1034.0 476.0 L 1116.0 532.0 Q 1156.0 560.0 1156.0 580.0 Q 1156.0 608.0 1080.0 640.0 L 1080.0 806.0 Q 1132.0 966.0 1196.0 1074.0 Q 1460.0 916.0 1640.0 676.0 L 1756.0 762.0 Q 1780.0 778.0 1780.0 796.0 Q 1780.0 820.0 1736.0 820.0 Q 1724.0 820.0 1676.0 816.0 Q 1538.0 928.0 1464.0 976.0 Q 1392.0 1026.0 1220.0 1116.0 Q 1360.0 1348.0 1544.0 1488.0 Q 1712.0 1620.0 1976.0 1698.0 L 1964.0 1736.0 Q 1940.0 1732.0 1924.0 1732.0 Q 1864.0 1732.0 1828.0 1794.0 Q 1634.0 1694.0 1524.0 1602.0 Q 1340.0 1450.0 1204.0 1222.0 Q 1152.0 1134.0 1080.0 968.0 L 1080.0 1802.0 Q 1080.0 1944.0 920.0 1972.0 Q 918.0 1906.0 878.0 1880.0 Q 846.0 1860.0 718.0 1836.0 L 726.0 1792.0 Q 896.0 1820.0 928.0 1818.0 Q 984.0 1818.0 984.0 1760.0 L 984.0 608.0 L 618.0 608.0 Q 558.0 608.0 468.0 620.0 M 166.0 986.0 L 128.0 900.0 Q 256.0 918.0 316.0 918.0 L 670.0 918.0 L 732.0 846.0 L 816.0 900.0 Q 856.0 926.0 856.0 948.0 Q 856.0 976.0 780.0 1010.0 Q 616.0 1328.0 510.0 1460.0 Q 360.0 1648.0 88.0 1828.0 L 66.0 1796.0 Q 294.0 1616.0 442.0 1412.0 Q 580.0 1224.0 680.0 976.0 L 316.0 976.0 Q 256.0 976.0 166.0 986.0 Z"/></g></g>
<g transform="translate(30.0,15.0) scale(0.00732421875,0.00732421875)"><g fill="#222"><path d="M 1136.0 702.0 Q 1216.0 576.0 1236.0 496.0 L 974.0 496.0 Q 858.0 496.0 782.0 504.0 L 744.0 416.0 Q 840.0 440.0 974.0 438.0 L 1692.0 438.0 L 1790.0 336.0 L 1912.0 444.0 Q 1928.0 460.0 1928.0 468.0 Q 1928.0 496.0 1900.0 496.0 L 1344.0 496.0 Q 1296.0 584.0 1192.0 702.0 L 1612.0 702.0 L 1680.0 624.0 L 1762.0 680.0 Q 1802.0 706.0 1802.0 728.0 Q 1800.0 756.0 1724.0 788.0 L 1724.0 1404.0 Q 1724.0 1460.0 1736.0 1628.0 Q 1736.0 1636.0 1736.0 1640.0 Q 1736.0 1686.0 1668.0 1686.0 Q 1632.0 1688.0 1632.0 1660.0 L 1632.0 1626.0 L 980.0 1626.0 L 980.0 1660.0 Q 980.0 1696.0 932.0 1696.0 Q 868.0 1696.0 872.0 1640.0 L 876.0 1580.0 L 880.0 1500.0 L 884.0 1424.0 L 884.0 788.0 L 880.0 716.0 Q 876.0 648.0 872.0 612.0 L 992.0 702.0 M 1632.0 1048.0 L 980.0 1048.0 L 980.0 1276.0 L 1632.0 1276.0 M 980.0 992.0 L 1632.0 992.0 L 1632.0 760.0 L 980.0 760.0 M 1632.0 1332.0 L 980.0 1332.0 L 980.0 1566.0 L 1632.0 1566.0 M 1556.0 112.0 L 1664.0 176.0 Q 1692.0 192.0 1692.0 212.0 Q 1692.0 238.0 1654.0 238.0 L 1604.0 238.0 Q 1508.0 362.0 1408.0 414.0 L 1384.0 388.0 Q 1492.0 264.0 1556.0 112.0 M 984.0 116.0 Q 1180.0 244.0 1182.0 336.0 Q 1182.0 376.0 1154.0 396.0 Q 1140.0 404.0 1132.0 404.0 Q 1104.0 404.0 1090.0 348.0 Q 1072.0 280.0 1036.0 228.0 Q 1024.0 210.0 964.0 144.0 M 328.0 1596.0 Q 404.0 1488.0 440.0 1396.0 Q 480.0 1292.0 500.0 1124.0 L 252.0 1124.0 Q 228.0 1132.0 208.0 1132.0 Q 160.0 1132.0 160.0 1112.0 Q 160.0 1108.0 200.0 1056.0 Q 360.0 852.0 444.0 688.0 L 264.0 688.0 Q 202.0 688.0 116.0 700.0 L 76.0 614.0 Q 196.0 632.0 264.0 632.0 L 444.0 632.0 L 512.0 564.0 L 608.0 648.0 Q 624.0 660.0 622.0 676.0 Q 620.0 700.0 596.0 704.0 L 544.0 720.0 Q 516.0 760.0 456.0 848.0 Q 444.0 864.0 296.0 1068.0 L 496.0 1068.0 L 558.0 1004.0 L 648.0 1068.0 Q 668.0 1084.0 670.0 1102.0 Q 668.0 1120.0 648.0 1128.0 L 596.0 1148.0 Q 592.0 1164.0 592.0 1174.0 Q 538.0 1446.0 374.0 1608.0 Q 392.0 1622.0 420.0 1648.0 Q 504.0 1732.0 664.0 1770.0 Q 856.0 1816.0 1304.0 1816.0 L 1520.0 1816.0 Q 1800.0 1812.0 1980.0 1802.0 L 1980.0 1836.0 Q 1890.0 1852.0 1874.0 1918.0 Q 1834.0 1918.0 1812.0 1918.0 Q 1784.0 1918.0 1656.0 1916.0 Q 1544.0 1914.0 1388.0 1914.0 Q 876.0 1912.0 676.0 1856.0 Q 520.0 1812.0 418.0 1716.0 Q 364.0 1660.0 336.0 1660.0 Q 308.0 1660.0 248.0 1712.0 Q 224.0 1734.0 184.0 1766.0 L 184.0 1802.0 Q 184.0 1840.0 166.0 1840.0 Q 150.0 1840.0 130.0 1816.0 L 68.0 1732.0 Q 142.0 1692.0 198.0 1660.0 Q 288.0 1604.0 328.0 1596.0 M 260.0 96.0 Q 532.0 260.0 532.0 376.0 Q 532.0 400.0 520.0 416.0 Q 504.0 440.0 476.0 440.0 Q 444.0 440.0 420.0 372.0 Q 392.0 288.0 344.0 228.0 Q 320.0 200.0 236.0 122.0 Z"/></g></g>
</g>

<g class="page-number"><text x="105.0" y="292.0" font-size="3" fill="#999" font-family="sans-serif" text-anchor="middle">- 1 -</text></g>
</svg>