<svg xmlns="http://www.w3.org/2000/svg" viewBox="0 0 210.0 297.0" width="210.0mm" height="297.0mm">
<rect x="0" y="0" width="210.0" height="297.0" fill="white"/>
<rect x="0.5" y="0.5" width="209.0" height="296.0" fill="none" stroke="#aaa" stroke-width="0.4"/>
<g class="grid" fill="none" stroke="#c8c8c8" stroke-width="0.2">
  <line x1="15.00" y1="15.00" x2="195.00" y2="15.00"/>
  <line x1="15.00" y1="30.00" x2="195.00" y2="30.00"/>
  <line x1="15.00" y1="45.00" x2="195.00" y2="45.00"/>
  <line x1="15.00" y1="60.00" x2="195.00" y2="60.00"/>
  <line x1="15.00" y1="75.00" x2="195.00" y2="75.00"/>
  <line x1="15.00" y1="90.00" x2="195.00" y2="90.00"/>
  <line x1="15.00" y1="105.00" x2="195.00" y2="105.00"/>
  <line x1="15.00" y1="120.00" x2="195.00" y2="120.00"/>
  <line x1="15.00" y1="135.00" x2="195.00" y2="135.00"/>
  <line x1="15.00" y1="150.00" x2="195.00" y2="150.00"/>
  <line x1="15.00" y1="165.00" x2="195.00" y2="165.00"/>
  <line x1="15.00" y1="180.00" x2="195.00" y2="180.00"/>
  <line x1="15.00" y1="195.00" x2="195.00" y2="195.00"/>
  <line x1="15.00" y1="210.00" x2="195.00" y2="210.00"/>
  <line x1="15.00" y1="225.00" x2="195.00" y2="225.00"/>
  <line x1="15.00" y1="240.00" x2="195.00" y2="240.00"/>
  <line x1="15.00" y1="255.00" x2="195.00" y2="255.00"/>
  <line x1="15.00" y1="270.00" x2="195.00" y2="270.00"/>
  <line x1="15.00" y1="282.00" x2="195.00" y2="282.00"/>
  <line x1="15.00" y1="15.00" x2="15.00" y2="282.00"/>
  <line x1="30.00" y1="15.00" x2="30.00" y2="282.00"/>
  <line x1="45.00" y1="15.00" x2="45.00" y2="282.00"/>
  <line x1="60.00" y1="15.00" x2="60.00" y2="282.00"/>
  <line x1="75.00" y1="15.00" x2="75.00" y2="282.00"/>
  <line x1="90.00" y1="15.00" x2="90.00" y2="282.00"/>
  <line x1="105.00" y1="15.00" x2="105.00" y2="282.00"/>
  <line x1="120.00" y1="15.00" x2="120.00" y2="282.00"/>
  <line x1="135.00" y1="15.00" x2="135.00" y2="282.00"/>
  <line x1="150.00" y1="15.00" x2="150.00" y2="282.00"/>
  <line x1="165.00" y1="15.00" x2="165.00" y2="282.00"/>
  <line x1="180.00" y1="15.00" x2="180.00" y2="282.00"/>
  <line x1="195.00" y1="15.00" x2="195.00" y2="282.00"/>
  </g>
<g class="chars">
<g transform="translate(15.0,15.0) scale(0.00732421875,0.00732421875)"><g fill="#222"><path d="M 1062 1069.1 L 1063 1397.1 Q 1063 1487.3 1062 1527.48 Q 1061 1567.6599999999999 1051 1604.15 Q 1041 1640.6399999999999 1014 1680.4099999999999 Q 987 1720.1799999999998 960 1732.8899999999999 Q 933 1745.6 921 1744.78 Q 904 1744.78 883 1728.38 L 794 1639.0 L 741 1593.08 L 699 1556.1799999999998 Q 683 1543.06 688.5 1536.09 Q 694 1529.12 705 1532.4 L 754 1548.8 Q 796 1563.56 832.5 1577.9099999999999 Q 869 1592.26 889 1584.06 Q 899 1579.96 908.5 1568.8899999999999 Q 918 1557.82 924 1533.63 Q 930 1509.44 933 1484.02 Q 936 1458.6 941.5 1370.04 Q 947 1281.48 948 1256.88 L 954 846.88 Q 954 822.28 949.5 786.61 Q 945 750.94 935 744.79 Q 925 738.6400000000001 914 738.23 Q 903 737.8199999999999 878 741.1 L 781 754.22 Q 733 760.78 710 760.37 Q 687 759.96 667.5 754.63 Q 648 749.3 636.5 739.87 Q 625 730.44 626.5 724.7 Q 628 718.96 653 715.6800000000001 L 702 709.12 Q 726 706.6600000000001 757.5 700.1 Q 789 693.54 822.5 684.9300000000001 Q 856 676.3199999999999 884.5 667.71 Q 913 659.1 937.5 651.31 Q 962 643.52 973 643.52 Q 982 644.34 1007 651.72 L 1049 664.84 Q 1064 670.58 1080.5 679.19 Q 1097 687.8 1099 695.1800000000001 Q 1101 702.56 1095 717.3199999999999 Q 1084 741.1 1080.5 755.04 Q 1077 768.98 1071.5 794.4 Q 1066 819.82 1062.5 840.32 Q 1059 860.82 1060 896.9 L 1062 980.54 L 1062 1069.1 Z"/><path d="M 225 1520.92 L 160 1536.5 Q 144 1540.6 142.5 1531.58 Q 141 1522.56 158 1511.9 L 207 1482.38 Q 252 1454.5 302 1422.11 Q 352 1389.72 397.5 1354.05 Q 443 1318.38 490 1274.1 Q 537 1229.82 576.5 1181.03 Q 616 1132.24 636.5 1099.85 Q 657 1067.46 661.5 1053.93 Q 666 1040.4 661.5 1035.89 Q 657 1031.38 622 1037.12 L 527 1053.52 Q 504 1057.62 447 1069.51 Q 390 1081.4 359 1086.73 Q 328 1092.06 316 1090.42 Q 299 1089.6 266.5 1073.2 Q 234 1056.8 222 1045.73 Q 210 1034.66 212.5 1028.92 Q 215 1023.18 243 1021.54 L 288 1019.08 Q 312 1018.26 387.5 1008.01 Q 463 997.76 495.5 992.84 Q 528 987.92 594 974.8 Q 660 961.6800000000001 690.5 953.07 Q 721 944.46 732 944.46 Q 751 945.28 780 963.73 Q 809 982.18 834 1002.68 Q 859 1023.18 858 1034.66 Q 856 1045.32 836 1060.9 L 789 1096.98 Q 768 1115.02 719 1174.47 Q 670 1233.92 612.5 1290.09 Q 555 1346.26 493 1391.36 Q 431 1436.46 377 1462.29 Q 323 1488.12 286.5 1501.65 Q 250 1515.1799999999998 225 1520.92 Z"/><path d="M 1062 980.54 Q 1089 959.22 1146.5 913.71 Q 1204 868.2 1226.5 848.52 Q 1249 828.84 1297 776.77 Q 1345 724.7 1359.5 700.9200000000001 Q 1374 677.1400000000001 1383.5 653.36 Q 1393 629.58 1402.5 624.25 Q 1412 618.9200000000001 1442 624.6600000000001 Q 1473 632.04 1500.5 644.34 Q 1528 656.6400000000001 1557 673.45 Q 1586 690.26 1595.5 700.9200000000001 Q 1605 711.58 1605 718.96 Q 1603 730.44 1568.5 743.1500000000001 Q 1534 755.86 1514 766.52 Q 1494 777.1800000000001 1435.5 814.49 Q 1377 851.8 1294 897.31 Q 1211 942.82 1180 955.94 L 1078 1001.04 Q 1030 1008.01 1062 980.54 Z"/><path d="M 1078 1001.04 Q 1187 1099.44 1258 1154.79 Q 1329 1210.1399999999999 1409 1258.11 Q 1489 1306.08 1566.5 1340.11 Q 1644 1374.1399999999999 1704 1395.46 Q 1764 1416.78 1826 1436.46 L 1890 1457.78 Q 1904 1462.7 1904.5 1471.72 Q 1905 1480.74 1874 1487.3 Q 1842 1494.6799999999998 1779 1503.7 Q 1716 1512.72 1691 1515.59 Q 1666 1518.46 1622 1519.28 Q 1577 1520.92 1538 1518.46 Q 1499 1516.0 1480 1508.21 Q 1461 1500.42 1430 1477.05 Q 1399 1453.6799999999998 1378.5 1433.1799999999998 Q 1358 1412.6799999999998 1314 1360.2 L 1195 1224.9 L 1062 1069.1 C 981.3333333333333 1002.9533333333333 1012.6666666666667 921.2266666666667 1078 1001.04 Z"/></g><g fill="none" stroke-linecap="round" stroke-linejoin="round" stroke="#222"><polyline stroke-width="27.0" points="828.00,316.34 836.62,321.83 845.24,327.31 853.86,332.80 862.48,338.28 871.10,343.77 879.72,349.25 888.34,354.74 896.97,360.22 905.59,365.71 914.21,371.20 922.83,376.68 931.45,382.17 940.07,387.65 948.69,393.14 957.31,398.62 965.93,404.11 974.55,409.59 983.17,415.08 991.79,420.56 1000.41,426.05 1009.03,431.54 1017.66,437.02 1026.28,442.51 1034.90,447.99 1043.52,453.48 1052.14,458.96 1060.76,464.45 1069.38,469.93 1078.00,475.42 1146.57,463.89 1215.15,452.36"/></g></g>
<g transform="translate(30.0,15.0) scale(0.00732421875,0.00732421875)"><g fill="#222"><path d="M 1268 567.26 L 1286 548.4000000000001 Q 1310 522.98 1332.5 494.69000000000005 Q 1355 466.4 1379.5 431.55000000000007 Q 1404 396.70000000000005 1412 363.9000000000001 Q 1420 331.1 1426 324.5400000000001 Q 1432 317.98 1443 315.5200000000001 Q 1454 313.06000000000006 1486 323.72 Q 1518 334.38 1527 337.6600000000001 L 1565 354.06000000000006 Q 1584 363.08000000000004 1596.5 372.51 Q 1609 381.94000000000005 1607 392.6 Q 1604 401.62 1579.5 409.82000000000005 Q 1555 418.02 1542.5 424.1700000000001 Q 1530 430.32000000000005 1496 456.56000000000006 Q 1462 482.80000000000007 1430 504.12 Q 1398 525.44 1366.5 542.6600000000001 Q 1335 559.8800000000001 1315 568.9000000000001 L 1288 581.2 Q 1265 591.86 1261.5 584.48 Q 1258 577.1 1268 567.26 Z"/><path d="M 1207 691.08 Q 1225 699.28 1243.5 709.12 Q 1262 718.96 1261 728.8 Q 1259 736.1800000000001 1246 745.2 L 1211 763.24 Q 1204 767.34 1159 804.24 L 1095 856.72 Q 970 927.65 1035 859.1800000000001 L 1072 796.86 Q 1075 791.12 1084.5 768.1600000000001 Q 1094 745.2 1095 741.1 L 1099 703.38 Q 1088 656.23 1207 691.08 Z"/><path d="M 958 1386.44 L 957 1402.02 Q 956 1408.58 952.5 1417.6 Q 949 1426.62 940.5 1429.08 Q 932 1431.54 915 1418.42 Q 899 1406.94 887.5 1391.36 Q 876 1375.78 868 1358.15 Q 860 1340.52 859.5 1326.58 Q 859 1312.6399999999999 872 1260.16 Q 876 1241.3 882.5 1178.98 Q 889 1116.66 890 1096.16 L 892 984.64 Q 892 961.6800000000001 889 936.67 Q 886 911.66 868 893.21 Q 850 874.76 848.5 866.97 Q 847 859.1800000000001 855.5 854.26 Q 864 849.34 885 852.62 L 922 859.1800000000001 L 959 869.02 L 981 910.02 L 977 1015.8 L 974 1059.26 L 971 1185.54 L 969 1225.72 L 962 1329.04 L 958 1386.44 Z"/><path d="M 1095 856.72 L 1310 824.74 Q 1359 818.1800000000001 1391 809.1600000000001 Q 1423 800.14 1432 799.32 Q 1448 799.32 1476.5 807.9300000000001 Q 1505 816.54 1528 824.74 Q 1551 832.94 1573.5 846.88 Q 1596 860.82 1598 871.48 Q 1600 882.14 1582 909.2 Q 1566 932.98 1559 963.32 Q 1552 993.66 1555 1079.76 L 1558 1217.52 L 1563 1313.46 Q 1563 1347.08 1558 1365.94 Q 1554 1378.24 1542.5 1400.79 Q 1531 1423.34 1512.5 1436.87 Q 1494 1450.4 1480 1446.3 Q 1470 1444.6599999999999 1455.5 1422.9299999999998 Q 1441 1401.2 1436 1386.44 L 1424 1357.74 L 1435 1305.26 L 1438 1174.88 L 1438 1137.98 L 1438 1014.98 L 1435 977.26 L 1434 919.86 Q 1433 893.62 1419.5 882.55 Q 1406 871.48 1388.5 868.61 Q 1371 865.74 1346 865.33 Q 1321 864.9200000000001 1275 871.48 L 1169 887.06 Q 1125 893.62 1077 903.46 Q 1029 913.3 1019 911.66 L 981 910.02 L 959 869.02 L 1035 859.1800000000001 L 1095 856.72 Z"/><path d="M 372 1170.37 Q 369 1164.22 369.5 1158.8899999999999 Q 370 1153.56 378 1137.98 L 427 1040.4 Q 438 1018.26 440.5 1010.88 Q 443 1003.5 438 998.58 Q 433 993.66 418 996.12 Q 412 997.76 397 1002.68 Q 382 1007.6 346 1014.98 Q 310 1022.36 292 1025.23 Q 274 1028.1 248 1025.64 Q 227 1024.82 208 1020.31 Q 189 1015.8 179.5 1009.65 Q 170 1003.5 171 998.58 Q 171 993.66 175 991.61 Q 179 989.56 204 984.64 L 242 977.26 Q 262 973.98 312 959.63 Q 362 945.28 384 936.67 Q 406 928.06 439.5 912.07 Q 473 896.08 484 894.44 Q 497 893.62 517 900.59 Q 537 907.56 563.5 920.27 Q 590 932.98 607.5 946.92 Q 625 960.86 624 971.52 Q 622 980.54 605 992.84 L 572 1015.8 Q 555 1028.1 540 1042.86 L 463 1116.66 Q 451 1128.14 440 1140.44 Q 429 1152.74 430 1158.48 L 372 1170.37 Z"/><path d="M 459 1406.12 Q 464 1392.1799999999998 465.5 1384.3899999999999 Q 467 1376.6 469 1358.56 Q 471 1340.52 466 1314.28 Q 460 1292.1399999999999 448 1268.36 Q 436 1244.58 422 1224.9 Q 408 1205.22 391.5 1190.87 Q 375 1176.52 372 1170.37 L 430 1158.48 Q 430 1165.04 445 1174.06 L 485 1198.66 Q 515 1219.16 532.5 1242.94 Q 550 1266.72 550.5 1296.24 Q 551 1325.76 540 1350.36 Q 531 1369.22 519 1384.8 L 504 1404.48 Q 431.5 1458.6 459 1406.12 Z"/></g><g fill="none" stroke-linecap="round" stroke-linejoin="round" stroke="#222"><polyline stroke-width="27.0" points="886.00,399.98 894.50,404.41 903.21,408.79 912.10,413.13 921.09,417.45 930.16,421.75 939.24,426.05 948.29,430.35 957.25,434.68 966.08,439.03 974.73,443.43 983.15,447.88 991.28,452.39 999.08,456.98 1006.50,461.66 1013.49,466.43 1020.00,471.32 1027.31,477.50 1033.90,483.83 1039.87,490.31 1045.32,496.92 1050.34,503.62 1055.01,510.39 1059.44,517.23 1063.71,524.10 1067.92,530.98 1072.16,537.86 1076.53,544.71 1081.11,551.51 1086.00,558.24 1154.98,568.01 1223.96,577.79"/><polyline stroke-width="27.0" points="716.00,686.98 752.60,688.43 784.40,690.84 818.60,692.77 862.40,692.78 923.00,689.44 950.42,687.03 981.32,683.83 1015.17,679.96 1051.44,675.56 1089.60,670.77 1129.11,665.71 1169.44,660.54 1210.06,655.36 1250.43,650.33 1290.03,645.58 1328.31,641.24 1364.76,637.45 1398.83,634.34 1430.00,632.04 1473.76,629.91 1513.68,629.07 1550.52,629.28 1585.05,630.26 1618.04,631.76 1650.26,633.53 1682.48,635.29 1715.47,636.80 1750.00,637.78 1797.37,595.52 1844.75,553.27"/><polyline stroke-width="27.0" points="973.00,1037.12 988.68,1035.72 1004.78,1034.28 1021.23,1032.80 1037.97,1031.30 1054.92,1029.78 1072.03,1028.25 1089.22,1026.70 1106.44,1025.16 1123.61,1023.61 1140.67,1022.08 1157.56,1020.57 1174.21,1019.07 1190.55,1017.61 1206.52,1016.18 1222.05,1014.80 1237.08,1013.46 1251.54,1012.17 1265.36,1010.95 1278.49,1009.79 1290.84,1008.71 1302.37,1007.70 1313.00,1006.78 1340.51,1004.45 1360.55,1002.82 1375.16,1001.72 1386.37,1000.93 1396.22,1000.28 1406.75,999.56 1420.00,998.58 1460.61,951.83 1501.21,905.07"/><polyline stroke-width="27.0" points="980.00,1217.52 995.35,1214.84 1011.13,1212.06 1027.26,1209.20 1043.69,1206.27 1060.37,1203.28 1077.22,1200.26 1094.19,1197.20 1111.22,1194.13 1128.25,1191.07 1145.23,1188.01 1162.08,1184.99 1178.75,1182.00 1195.18,1179.07 1211.32,1176.21 1227.09,1173.43 1242.44,1170.75 1257.32,1168.18 1271.66,1165.73 1285.39,1163.41 1298.47,1161.25 1310.83,1159.25 1322.41,1157.43 1333.16,1155.80 1343.00,1154.38 1378.06,1150.34 1397.67,1149.83 1408.45,1151.35 1417.02,1153.37 1430.00,1154.38 1480.37,1114.52 1530.74,1074.66"/><polyline stroke-width="27.0" points="963.00,1353.64 979.02,1352.69 995.47,1351.70 1012.29,1350.68 1029.42,1349.64 1046.78,1348.57 1064.31,1347.48 1081.95,1346.39 1099.64,1345.29 1117.30,1344.19 1134.88,1343.10 1152.30,1342.02 1169.51,1340.97 1186.44,1339.94 1203.02,1338.94 1219.19,1337.98 1234.89,1337.06 1250.05,1336.19 1264.60,1335.37 1278.48,1334.62 1291.62,1333.93 1303.97,1333.31 1315.45,1332.77 1326.00,1332.32 1357.89,1331.35 1378.81,1331.38 1392.44,1332.06 1402.41,1333.08 1412.38,1334.09 1426.00,1334.78 1474.72,1293.57 1523.45,1252.36"/><polyline stroke-width="27.0" points="290.00,522.98 299.77,527.86 309.83,532.76 320.11,537.67 330.56,542.59 341.12,547.51 351.74,552.44 362.36,557.37 372.92,562.29 383.38,567.21 393.66,572.12 403.71,577.02 413.48,581.90 422.91,586.76 431.95,591.61 440.53,596.43 448.61,601.22 456.11,605.99 463.00,610.72 472.86,618.39 481.15,625.98 488.12,633.50 494.01,640.96 499.07,648.38 503.56,655.77 507.72,663.14 511.79,670.51 516.03,677.89 520.69,685.29 526.00,692.72 594.89,702.91 663.78,713.09"/><polyline stroke-width="27.0" points="126.00,1455.32 197.22,1447.73 268.44,1440.13 346.00,1435.64 407.35,1432.71 470.56,1429.95 540.74,1432.08 623.00,1443.84 677.71,1457.25 737.94,1475.59 802.08,1497.14 868.55,1520.15 935.76,1542.92 1002.10,1563.71 1066.00,1580.78 1127.84,1595.26 1189.17,1609.05 1250.12,1621.61 1310.84,1632.41 1371.47,1640.91 1432.14,1646.56 1493.00,1648.84 1554.00,1646.78 1615.00,1640.54 1676.00,1631.25 1737.00,1620.07 1798.00,1608.13 1859.00,1596.56 1920.00,1586.52 1954.20,1536.44 1988.40,1486.36"/></g></g>
</g>

<g class="page-number"><text x="105.0" y="292.0" font-size="3" fill="#999" font-family="sans-serif" text-anchor="middle">- 1 -</text></g>
</svg>