<svg xmlns="http://www.w3.org/2000/svg" viewBox="0 0 297.000 210.000" width="297.000mm" height="210.000mm"><g fill="#000000" stroke="none"><g transform="translate(89.000,68.600) scale(0.006836)"><path d="M 989 420 Q 965 455 940.5 489.5 Q 916 524 859.5 601.5 Q 803 679 746 747 Q 689 815 603.5 896 Q 518 977 442.5 1031.5 Q 367 1086 290.5 1127 Q 214 1168 175 1180 L 140 1191 Q 118 1198 111.5 1187.5 Q 105 1177 129 1161 L 168 1136 Q 209 1110 265.5 1063 Q 322 1016 406 940.5 Q 490 865 556 797.5 Q 622 730 674.5 661.5 Q 727 593 781 513 Q 835 433 854 394 Q 873 355 885 317.5 Q 897 280 896 248.5 Q 895 217 898 206.5 Q 901 196 912 190.5 Q 923 185 949 197 Q 975 211 1008.5 239 Q 1042 267 1056.5 287.5 Q 1071 308 1068 319 L 1045 342 L 1022 365 L 989 420 Z"/><path d="M 1022 365 Q 1051 386 1079 406 Q 1107 426 1125 441 Q 1143 456 1182 497 Q 1221 538 1287.5 604 Q 1354 670 1409 719 Q 1464 768 1530 815.5 Q 1596 863 1650.5 890.5 Q 1705 918 1765 942 Q 1825 966 1849 975 L 1915 1000 Q 1930 1006 1933 1016 Q 1936 1026 1933 1033 Q 1930 1040 1905 1045 L 1843 1058 Q 1814 1064 1723.5 1069 Q 1633 1074 1613 1073 Q 1573 1072 1547 1061.5 Q 1521 1051 1482.5 1010.5 Q 1444 970 1369 869.5 Q 1294 769 1228 685 L 1147 583 Q 1093 515 1068 488 Q 1043 461 1028 449 L 989 420 L 1022 365 Z"/><path d="M 864 972 Q 835 977 801 984.5 Q 767 992 751 991 Q 731 991 705 984 Q 679 977 654.5 964.5 Q 630 952 631 939 Q 631 930 635.5 927 Q 640 924 662 920 L 719 910 Q 746 906 819.5 891 Q 893 876 972.5 864.5 Q 1052 853 1085 844.5 Q 1118 836 1132 835 Q 1158 834 1183 842.5 Q 1208 851 1242.5 871 Q 1277 891 1276 903 Q 1274 915 1261 921.5 Q 1248 928 1237 928 L 983 948 L 864 972 Z"/><path d="M 895 1267 Q 880 1270 873 1270 L 812 1278 Q 744 1287 694 1296.5 Q 644 1306 625 1306 Q 592 1308 561 1301 Q 530 1294 504.5 1282 Q 479 1270 471 1257 Q 463 1244 467 1236 Q 471 1228 481 1227 L 502 1226 Q 520 1226 561 1221 Q 602 1216 678 1208.5 Q 754 1201 795.5 1196.5 Q 837 1192 856 1189 L 895 1184 L 1025 1169 Q 1065 1164 1098.5 1159.5 Q 1132 1155 1178.5 1144.5 Q 1225 1134 1243 1133 Q 1271 1133 1298 1140.5 Q 1325 1148 1346 1158.5 Q 1367 1169 1387.5 1185.5 Q 1408 1202 1407 1212 Q 1405 1223 1386 1232.5 Q 1367 1242 1335 1243 L 1246 1247 L 1176 1247 L 1061 1256 L 1021 1258 L 895 1267 Z"/><path d="M 895 1711 L 895 1267 L 895 1184 L 895 1125 Q 895 1093 891 1067.5 Q 887 1042 883 1022.5 Q 879 1003 876 997 L 864 972 L 983 948 Q 1007 961 1027.5 975 Q 1048 989 1048.5 1000.5 Q 1049 1012 1043 1028.5 Q 1037 1045 1030 1083.5 Q 1023 1122 1024 1128 L 1025 1169 L 1021 1258 L 1012 1702 Q 938.5 1811.5 895 1711 Z"/><path d="M 524 1472 L 499 1436 Q 489 1422 495 1414 Q 501 1406 513 1408 L 562 1418 Q 574 1421 621.5 1436 Q 669 1451 700.5 1466 Q 732 1481 745.5 1499.5 Q 759 1518 765 1542.5 Q 771 1567 762 1607 Q 753 1642 738.5 1656 Q 724 1670 708.5 1672 Q 693 1674 665 1647 Q 644 1628 632 1613 Q 620 1598 577.5 1543.5 Q 535 1489 524 1472 Z"/><path d="M 1133 1617 L 1109 1631 L 1081 1648 Q 1069 1647 1066.5 1640 Q 1064 1633 1081 1611 L 1107 1578 Q 1143 1533 1152 1520.5 Q 1161 1508 1187.5 1470 Q 1214 1432 1223 1412 Q 1232 1392 1235.5 1379.5 Q 1239 1367 1241.5 1349 Q 1244 1331 1249 1325.5 Q 1254 1320 1273 1323 Q 1291 1327 1320 1345.5 Q 1349 1364 1364 1376 Q 1379 1388 1394.5 1408 Q 1410 1428 1415.5 1446 Q 1421 1464 1417 1473 Q 1413 1480 1386.5 1486.5 Q 1360 1493 1332.5 1508.5 Q 1305 1524 1260.5 1547.5 Q 1216 1571 1189.5 1585 Q 1163 1599 1133 1617 Z"/><path d="M 1012 1702 Q 1061 1698 1086 1695 L 1213 1684 L 1324 1673 Q 1380 1668 1417.5 1659.5 Q 1455 1651 1466 1650 Q 1484 1650 1507.5 1658 Q 1531 1666 1569.5 1683.5 Q 1608 1701 1623.5 1719 Q 1639 1737 1636 1747 Q 1632 1756 1615.5 1761.5 Q 1599 1767 1561 1769 L 1478 1775 Q 1452 1777 1378.5 1777.5 Q 1305 1778 1182.5 1782.5 Q 1060 1787 979 1792 Q 898 1797 793.5 1806 Q 689 1815 667.5 1818.5 Q 646 1822 589 1832.5 Q 532 1843 504 1851 Q 476 1859 466 1859 Q 451 1860 426 1854.5 Q 401 1849 375 1837 Q 349 1825 325 1808.5 Q 301 1792 294.5 1781 Q 288 1770 291.5 1762.5 Q 295 1755 325 1753 L 381 1751 Q 415 1750 447 1747.5 Q 479 1745 560.5 1737.5 Q 642 1730 697 1725 L 816 1717 L 895 1711 L 1012 1702 Z"/></g><g transform="translate(104.000,68.600) scale(0.006836)"><path d="M 427 393 Q 424 440 423 463 L 416 647 L 392 1152 Q 387 1300 385 1337 L 379 1416 L 375 1492 Q 371 1529 363.5 1559 Q 356 1589 344 1605 Q 332 1621 323 1622.5 Q 314 1624 300 1608 Q 283 1591 268.5 1556.5 Q 254 1522 248.5 1499 Q 243 1476 244 1459 Q 244 1451 254.5 1422.5 Q 265 1394 274 1344.5 Q 283 1295 287 1263.5 Q 291 1232 295 1167 L 326 647 Q 328 603 325.5 550.5 Q 323 498 317 461 Q 311 424 305.5 402.5 Q 300 381 289 357.5 Q 278 334 281.5 321 Q 285 308 303 302 Q 314 299 340 307 L 382 321 L 427 340 L 427 393 Z"/><path d="M 427 340 L 835 283 L 924 271 L 987 254 Q 1034 243 1041 240 L 1072 228 Q 1105 220 1152 244 Q 1164 251 1185.5 265 Q 1207 279 1228 297 Q 1249 315 1249.5 330 Q 1250 345 1239 362 L 1220 391 Q 1209 411 1204 449.5 Q 1199 488 1196.5 524.5 Q 1194 561 1193 708 L 1186 999 Q 1185 1021 1186 1208 L 1186 1419 Q 1186 1527 1178 1574 Q 1170 1619 1153.5 1652.5 Q 1137 1686 1108 1713.5 Q 1079 1741 1057 1737 Q 1038 1734 1020 1707 L 995 1663 Q 983 1644 952.5 1606.5 Q 922 1569 905 1552 L 886 1533 Q 869 1517 876 1510 Q 883 1503 897 1507 L 924 1516 L 958 1528 Q 976 1535 997.5 1541 Q 1019 1547 1031 1542 Q 1049 1536 1058.5 1500.5 Q 1068 1465 1071 1407 L 1078 1270 Q 1078 1246 1079 1104.5 Q 1080 963 1084 790.5 Q 1088 618 1088.5 579 Q 1089 540 1089 427 L 1089 396 Q 1089 350 1074 337.5 Q 1059 325 1022 324 Q 1013 324 945.5 327 Q 878 330 860 332 L 427 393 L 427 340 Z"/><path d="M 513 516 Q 513 511 520 504 Q 527 497 559 512 Q 622 544 641 566 Q 660 588 662 623 Q 664 658 654.5 674 Q 645 690 626.5 691.5 Q 608 693 587 663 Q 572 645 550.5 599.5 Q 529 554 520.5 535.5 Q 512 517 513 516 Z"/><path d="M 742 733 L 800 538 L 807 491 Q 811 471 810.5 456 Q 810 441 813.5 439.5 Q 817 438 827 439 Q 852 444 872 453 Q 892 462 905 472.5 Q 918 483 924 492 Q 930 501 930 508 Q 929 516 913 529.5 Q 897 543 893 550 L 779 724 Q 744.5 772.5 742 733 Z"/><path d="M 655 822 Q 600 830 564 834.5 Q 528 839 507 833 Q 495 831 477.5 822.5 Q 460 814 455.5 806.5 Q 451 799 453 794.5 Q 455 790 488 783 L 742 733 L 779 724 Q 821 714 856.5 705.5 Q 892 697 916 699 Q 922 700 955 709.5 Q 988 719 994.5 729 Q 1001 739 996.5 750 Q 992 761 967 765 L 755 804 L 655 822 Z"/><path d="M 668 1195 L 672 924 Q 672 911 666 877 L 660 844 L 655 822 L 755 804 Q 768 817 772 826.5 Q 776 836 768 877.5 Q 760 919 760 924 L 735 1178 Q 709.5 1244.5 668 1195 Z"/><path d="M 735 1178 L 883 1158 Q 922 1175 877 1200 Q 817 1214 771 1224.5 Q 725 1235 661 1253 Q 597 1271 569 1285 Q 541 1299 520 1317.5 Q 499 1336 487.5 1336.5 Q 476 1337 460 1317 Q 447 1303 439 1282 Q 431 1261 432 1250 Q 432 1241 443.5 1219.5 Q 455 1198 464 1170.5 Q 473 1143 476.5 1111 Q 480 1079 477.5 1064.5 Q 475 1050 468.5 1025.5 Q 462 1001 466.5 995.5 Q 471 990 485.5 988 Q 500 986 530 1004 Q 550 1018 561 1029.5 Q 572 1041 576 1055 L 552 1152 L 544 1189 Q 537 1207 539.5 1212.5 Q 542 1218 551 1220 L 585 1211 L 668 1195 L 735 1178 Z"/><path d="M 883 1158 L 886 1035 Q 886 1027 881.5 992.5 Q 877 958 872 945 Q 867 932 868.5 927.5 Q 870 923 876.5 918 Q 883 913 913 922 L 952 933 Q 976 941 988 953 Q 1000 965 1000 977 L 986 1014 L 956 1202 Q 946 1265 932.5 1291.5 Q 919 1318 908 1317 Q 896 1317 890.5 1306 Q 885 1295 883 1270 L 877 1200 L 883 1158 Z"/><path d="M 1445 755 L 1442 994 L 1441 1030 Q 1440 1054 1442 1086.5 Q 1444 1119 1444 1131 Q 1442 1156 1435.5 1175 Q 1429 1194 1420.5 1211 Q 1412 1228 1403.5 1234 Q 1395 1240 1390 1239 Q 1380 1239 1365 1219 Q 1350 1199 1340.5 1178 Q 1331 1157 1329.5 1143.5 Q 1328 1130 1332 1102 Q 1334 1083 1336 1065 Q 1338 1047 1339.5 1023.5 Q 1341 1000 1341 975 L 1341 755 Q 1341 743 1337 699 L 1333 651 Q 1330 621 1319.5 596.5 Q 1309 572 1312.5 563 Q 1316 554 1328 548 Q 1340 542 1382 555 L 1419 566 Q 1436 573 1452.5 586 Q 1469 599 1470.5 609 Q 1472 619 1460 647 Q 1451 668 1448 700 Q 1445 732 1445 755 Z"/><path d="M 1469 1601 L 1493 1608 L 1535 1620 Q 1588 1638 1605 1636 Q 1619 1635 1626.5 1629 Q 1634 1623 1641 1575 Q 1648 1527 1648 1386 L 1642 531 Q 1641 515 1629 430 Q 1617 345 1612 321.5 Q 1607 298 1590 263 L 1573 229 Q 1565 213 1568 200.5 Q 1571 188 1588.5 181 Q 1606 174 1638 183 Q 1680 196 1708.5 210 Q 1737 224 1770.5 249 Q 1804 274 1804 296 Q 1803 305 1790.5 332 Q 1778 359 1772.5 390 Q 1767 421 1761.5 483 Q 1756 545 1756 591 L 1756 1424 Q 1756 1474 1762.5 1554 Q 1769 1634 1769.5 1679.5 Q 1770 1725 1759 1765 Q 1753 1785 1741 1813 Q 1729 1841 1715 1855.5 Q 1701 1870 1687.5 1871 Q 1674 1872 1653 1850 Q 1637 1836 1608.5 1800 Q 1580 1764 1559 1741 L 1512 1693 Q 1496 1677 1471 1647 L 1447 1619 Q 1440 1612 1445.5 1604 Q 1451 1596 1469 1601 Z"/></g><g transform="translate(119.000,68.600) scale(0.006836)"><path d="M 516 593 Q 522 578 526 570 L 546 528 Q 558 502 573.5 461.5 Q 589 421 604.5 378 Q 620 335 627 310 Q 634 285 638 263 Q 642 241 641 225 Q 640 209 644 204.5 Q 648 200 664 200 Q 678 201 700 205.5 Q 722 210 746 222 Q 770 234 782 246.5 Q 794 259 799.5 268.5 Q 805 278 803 284 Q 801 288 790 296.5 Q 779 305 766.5 320.5 Q 754 336 743 350 L 688 428 Q 669 455 617 522 L 569 584 Q 522.5 622.5 516 593 Z"/><path d="M 413 1082 L 420 857 L 420 744 Q 420 703 418 686 Q 415 667 408 646 Q 401 625 393.5 608 Q 386 591 385.5 582 Q 385 573 389 567 Q 393 561 406 559 Q 418 558 439 563.5 Q 460 569 482 578 L 516 593 Q 564 609 544 657 Q 537 672 532 686 Q 527 700 523 742 Q 519 784 518 825 L 510 1067 L 505 1152 Q 503 1183 501.5 1201 Q 500 1219 494.5 1267 Q 489 1315 478 1368.5 Q 467 1422 440.5 1487 Q 414 1552 380 1601.5 Q 346 1651 303.5 1695.5 Q 261 1740 236 1755 L 200 1777 Q 185 1786 177.5 1778 Q 170 1770 189 1749 L 206 1730 Q 217 1718 241 1684.5 Q 265 1651 285 1617 Q 305 1583 328.5 1527.5 Q 352 1472 368 1414 Q 384 1356 391.5 1306 Q 399 1256 401 1243 L 408 1177 L 413 1082 Z"/><path d="M 569 584 L 689 554 Q 700 552 724.5 542.5 Q 749 533 767.5 524 Q 786 515 795 514 Q 808 513 827.5 522.5 Q 847 532 870 548 Q 893 564 910.5 582 Q 928 600 928.5 611 Q 929 622 918 643 Q 908 662 902.5 679.5 Q 897 697 893.5 721 Q 890 745 890 816 L 888 1007 L 887 1055 L 881 1570 Q 880 1637 869.5 1687 Q 859 1737 840 1770.5 Q 821 1804 800 1821.5 Q 779 1839 767 1838 Q 754 1838 745 1829.5 Q 736 1821 715.5 1788.5 Q 695 1756 665 1722 L 625 1677 L 605 1655 Q 587 1636 595 1628.5 Q 603 1621 622 1627 L 644 1635 Q 646 1637 682 1649 Q 718 1661 731 1655 Q 745 1649 752 1624 Q 759 1599 763.5 1562.5 Q 768 1526 770 1497 L 786 1080 L 787 1023 L 788 723 L 784 665 Q 781 626 771 618 Q 761 610 740 612 Q 719 614 693 620 L 544 657 Q 430.5 597.5 569 584 Z"/><path d="M 581 797 L 609 808 Q 624 814 652.5 829 Q 681 844 694 858.5 Q 707 873 712.5 892.5 Q 718 912 716 940 Q 713 971 701.5 986.5 Q 690 1002 677.5 1002.5 Q 665 1003 650 988 Q 636 975 618.5 942.5 Q 601 910 595 897.5 Q 589 885 573 846 L 562 821 Q 555 807 560.5 799.5 Q 566 792 581 797 Z"/><path d="M 726 1353 Q 724 1375 713.5 1393 Q 703 1411 683 1413.5 Q 663 1416 641 1387 Q 632 1377 620.5 1353 Q 609 1329 593 1299 Q 577 1269 568 1250 Q 559 1231 558.5 1222 Q 558 1213 561.5 1207 Q 565 1201 590 1208 Q 614 1216 634 1225 Q 654 1234 672.5 1246 Q 691 1258 703.5 1274 Q 716 1290 721.5 1309 Q 727 1328 726 1353 Z"/><path d="M 888 1007 L 930 1004 Q 943 1004 948 1015.5 Q 953 1027 940.5 1035 Q 928 1043 911 1048 L 887 1055 L 786 1080 L 505 1152 L 408 1177 L 379 1184 Q 360 1189 341.5 1195 Q 323 1201 297.5 1210 Q 272 1219 253.5 1227 Q 235 1235 225 1235 Q 206 1236 184 1222 Q 162 1208 131.5 1177 Q 101 1146 92 1129 Q 83 1112 86.5 1102 Q 90 1092 104 1089 Q 109 1089 119.5 1092 Q 130 1095 148.5 1098.5 Q 167 1102 184 1104 Q 201 1106 230 1105 Q 253 1105 291 1100.5 Q 329 1096 353 1092 L 413 1082 L 510 1067 L 787 1023 L 888 1007 Z"/><path d="M 1223 520 L 1208 558 Q 1207 624 1205 669.5 Q 1203 715 1197.5 749 Q 1192 783 1181.5 818.5 Q 1171 854 1154 882.5 Q 1137 911 1102 941.5 Q 1067 972 1033 988 L 998 1005 Q 989 1010 985.5 1001 Q 982 992 993 980 L 1015 955 Q 1033 934 1050.5 908.5 Q 1068 883 1082.5 846 Q 1097 809 1103 768 Q 1109 727 1110.5 672 Q 1112 617 1113.5 592 Q 1115 567 1114 553 Q 1110 513 1089 491 L 1072 474 Q 1065 466 1066.5 458.5 Q 1068 451 1073.5 448.5 Q 1079 446 1088 446 Q 1127 450 1146 456 L 1190 471 Q 1222.5 477.5 1223 520 Z"/><path d="M 1190 471 Q 1289 440 1326 424 Q 1363 408 1381.5 397 Q 1400 386 1408 384 Q 1418 383 1459.5 396.5 Q 1501 410 1524.5 420.5 Q 1548 431 1561 443 Q 1574 455 1576 463 Q 1578 471 1569 488 L 1549 523 Q 1539 541 1528 567 Q 1517 593 1510.5 627.5 Q 1504 662 1499.5 723 Q 1495 784 1511 809.5 Q 1527 835 1559 840 Q 1574 843 1600.5 837.5 Q 1627 832 1643.5 826 Q 1660 820 1683.5 809.5 Q 1707 799 1718 797 Q 1737 795 1762 808.5 Q 1787 822 1808.5 836 Q 1830 850 1836 858 Q 1842 866 1842 874 Q 1841 885 1826 899 Q 1811 913 1770 926 Q 1729 939 1650 940 Q 1576 942 1537.5 932.5 Q 1499 923 1475.5 909 Q 1452 895 1430 858.5 Q 1408 822 1406.5 785.5 Q 1405 749 1406 744 L 1416 535 Q 1416 534 1415.5 524.5 Q 1415 515 1412.5 508.5 Q 1410 502 1408 499.5 Q 1406 497 1401.5 494 Q 1397 491 1382 490 Q 1347 490 1324 496 L 1223 520 L 1190 471 Z"/><path d="M 1010.5 1193 Q 993 1183 985.5 1176.5 Q 978 1170 977.5 1159 Q 977 1148 998 1139 Q 1013 1132 1035 1136 L 1052 1139 Q 1085 1134 1139 1125.5 Q 1193 1117 1246 1104 Q 1299 1091 1354.5 1075.5 Q 1410 1060 1435.5 1049.5 Q 1461 1039 1470 1037 Q 1483 1036 1505.5 1041 Q 1528 1046 1558.5 1058 Q 1589 1070 1618 1087 Q 1647 1104 1649 1114.5 Q 1651 1125 1648 1134 Q 1644 1145 1618.5 1167.5 Q 1593 1190 1579.5 1212 Q 1566 1234 1534 1301 Q 1502 1368 1462 1433 L 1414 1512 L 1341 1596 Q 1315 1619 1284 1645.5 Q 1253 1672 1214.5 1695.5 Q 1176 1719 1134 1737.5 Q 1092 1756 1051 1768.5 Q 1010 1781 968 1788 L 909 1798 Q 893 1801 888 1789.5 Q 883 1778 902 1770 L 954 1750 Q 992 1736 1038.5 1709.5 Q 1085 1683 1138.5 1642.5 Q 1192 1602 1217 1576 L 1278 1515 L 1331 1448 Q 1349 1419 1369.5 1386.5 Q 1390 1354 1419.5 1297 Q 1449 1240 1457 1209.5 Q 1465 1179 1466 1163.5 Q 1467 1148 1463.5 1143 Q 1460 1138 1443 1139.5 Q 1426 1141 1399 1147 Q 1372 1153 1298 1165 Q 1224 1177 1200 1179.5 Q 1176 1182 1156 1183 L 1106 1186 Q 1058.25 1197.5 1010.5 1193 Z"/><path d="M 1278 1515 L 1149 1334 Q 1100 1266 1064 1234.5 Q 1028 1203 1010.5 1193 L 1106 1186 L 1124 1201 L 1331 1448 L 1414 1512 Q 1474 1563 1534 1602.5 Q 1594 1642 1710 1682 Q 1826 1722 1873 1734 L 1947 1754 Q 1961 1758 1961.5 1771.5 Q 1962 1785 1942 1790 L 1875 1808 Q 1843 1817 1771.5 1830.5 Q 1700 1844 1674 1847 Q 1648 1850 1628 1850 Q 1591 1852 1563.5 1843.5 Q 1536 1835 1497 1786 L 1418 1691 Q 1389 1657 1378 1642 L 1341 1596 L 1278 1515 Z"/></g><g transform="translate(134.000,68.600) scale(0.006836)"><path d="M 832 617 L 850 735 Q 852 751 846 773 Q 840 795 829 798.5 Q 818 802 804 789 Q 790 776 782 745 L 751 639 L 727 566 Q 719 544 714 530 Q 709 516 699 490.5 Q 689 465 676.5 436.5 Q 664 408 651.5 389 Q 639 370 633.5 357 Q 628 344 635.5 333.5 Q 643 323 661 319 Q 681 316 709.5 321.5 Q 738 327 755.5 331.5 Q 773 336 782.5 340.5 Q 792 345 800.5 352 Q 809 359 812 367 L 809 410 L 818 523 L 822 553 L 832 617 Z"/><path d="M 822 553 L 986 531 Q 1012 528 1016 541 Q 1020 554 1011.5 561.5 Q 1003 569 996 571 L 832 617 L 751 639 L 638 670 Q 600 681 578 690 Q 556 699 540 708.5 Q 524 718 519 718 Q 510 720 490 712.5 Q 470 705 456 693 Q 442 681 418.5 657 Q 395 633 388.5 620.5 Q 382 608 384 599.5 Q 386 591 390 587 Q 394 583 408 584 Q 415 585 433 588 Q 451 591 469 593 Q 487 595 502.5 594.5 Q 518 594 569 587 L 727 566 L 822 553 Z"/><path d="M 1424 498 L 1559 469 L 1634 449 Q 1650 448 1670.5 453.5 Q 1691 459 1716 472 Q 1741 485 1753.5 496.5 Q 1766 508 1766 518 Q 1765 531 1753.5 537.5 Q 1742 544 1726 547 Q 1710 550 1695 551 L 1600 559 L 1516 566 Q 1456 572 1421 578 L 1389 584 L 1289 603 L 1258 609 L 1206 621 Q 1195 621 1181.5 616.5 Q 1168 612 1162 609 Q 1156 606 1138.5 595.5 Q 1121 585 1110.5 574.5 Q 1100 564 1104.5 555 Q 1109 546 1128 544 L 1161 542 Q 1173 542 1269 525 L 1309 518 L 1424 498 Z"/><path d="M 1389 584 Q 1372 618 1359.5 646 Q 1347 674 1334.5 700 Q 1322 726 1303 754 L 1280 788 Q 1260 818 1246 813 Q 1232 808 1244 767 L 1289 603 L 1309 518 Q 1320 462 1325.5 432.5 Q 1331 403 1335.5 375.5 Q 1340 348 1342 318 Q 1344 282 1339 256 Q 1334 230 1337.5 216.5 Q 1341 203 1354 197 Q 1367 191 1396 204 Q 1426 219 1445 232.5 Q 1464 246 1484.5 268 Q 1505 290 1505.5 303 Q 1506 316 1494 337 Q 1481 359 1478 364.5 Q 1475 370 1469 386 L 1424 498 L 1389 584 Z"/><path d="M 848 1096 Q 798 1104 739 1112.5 Q 680 1121 642 1129 L 490 1162 L 424 1177 Q 403 1179 376 1172 Q 349 1165 296.5 1142.5 Q 244 1120 237 1106.5 Q 230 1093 235 1085 Q 238 1078 252 1075 L 284 1073 L 346 1067 Q 360 1066 440 1062.5 Q 520 1059 690 1038 L 900 1013 L 1036 1001 Q 1194 988 1305 978.5 Q 1416 969 1491 956 L 1602 937 Q 1692 922 1703 923 Q 1714 924 1743.5 932 Q 1773 940 1809 955 Q 1845 970 1870 985 Q 1895 1000 1905 1012.5 Q 1915 1025 1912.5 1035.5 Q 1910 1046 1882 1054 Q 1854 1062 1807 1062 L 1653 1063 Q 1446 1065 1390 1066.5 Q 1334 1068 1140 1078 L 981 1087 L 848 1096 Z"/><path d="M 900 1013 Q 913 984 925 956 Q 937 928 943.5 901.5 Q 950 875 952 850 L 954 806 Q 955 782 962 776 Q 969 770 979 768 Q 991 767 1017 779.5 Q 1043 792 1061.5 808 Q 1080 824 1096.5 842 Q 1113 860 1115.5 870 Q 1118 880 1115 890 Q 1111 900 1091.5 922.5 Q 1072 945 1064 958 L 1036 1001 L 981 1087 Q 898 1205 880 1228 L 784 1357 L 724 1427 Q 690 1465 658.5 1498 Q 627 1531 555.5 1588.5 Q 484 1646 429.5 1684 Q 375 1722 318 1753.5 Q 261 1785 220 1801 L 173 1820 Q 138 1834 133 1823 Q 128 1812 143 1801 L 213 1754 Q 244 1733 295 1693.5 Q 346 1654 411.5 1595.5 Q 477 1537 544.5 1467.5 Q 612 1398 680 1319 Q 748 1240 776 1199 L 848 1096 L 900 1013 Z"/><path d="M 784 1357 L 825 1364 Q 843 1382 841 1416 L 857 1707 L 865 1790 Q 855 1827 843 1841 Q 831 1855 824 1853 Q 821 1853 811.5 1847 Q 802 1841 787.5 1806.5 Q 773 1772 771 1751 L 744 1498 Q 741 1471 737 1461 L 724 1427 L 784 1357 Z"/><path d="M 825 1364 Q 997 1343 1097.5 1328 Q 1198 1313 1278 1295 L 1353 1278 L 1399 1263 Q 1409 1263 1436 1273.5 Q 1463 1284 1486.5 1296.5 Q 1510 1309 1537.5 1330 Q 1565 1351 1572 1359.5 Q 1579 1368 1580 1375.5 Q 1581 1383 1573 1394 Q 1572 1395 1552.5 1416 Q 1533 1437 1521.5 1459.5 Q 1510 1482 1501 1511 L 1446 1677 Q 1361 1714 1330 1651 L 1365 1461 Q 1376 1401 1370 1387 Q 1364 1373 1353 1366.5 Q 1342 1360 1302 1363 L 1269 1365 L 1036 1394 L 898 1416 Q 877 1419 873 1418 L 841 1416 L 825 1364 Z"/><path d="M 1446 1677 Q 1467 1698 1476.5 1711 Q 1486 1724 1485.5 1731.5 Q 1485 1739 1464 1746 L 1385 1749 L 865 1790 L 857 1707 Q 988 1698 1058 1690 Q 1128 1682 1238 1665 L 1330 1651 L 1446 1677 Z"/></g><g transform="translate(149.000,68.600) scale(0.006836)"><path d="M 377 503 L 346 450 Q 336 434 343.5 424.5 Q 351 415 377 422 L 426 437 Q 467 450 508.5 471.5 Q 550 493 566 519.5 Q 582 546 581 589 Q 580 622 570.5 638.5 Q 561 655 550.5 661 Q 540 667 529 666 Q 519 666 498.5 658.5 Q 478 651 452 620.5 Q 426 590 410 561 L 377 503 Z"/><path d="M 187 917 L 156 876 Q 140 857 145 847.5 Q 150 838 176 842 L 232 851 Q 263 857 300 868 Q 337 879 359.5 897.5 Q 382 916 393 940 Q 404 964 404 988 Q 403 1010 394.5 1029.5 Q 386 1049 375 1056 Q 364 1063 349 1063 Q 333 1064 311 1055 Q 289 1046 243 987 L 187 917 Z"/><path d="M 397 1259 L 484 1115 Q 501 1087 516.5 1096 Q 532 1105 521 1132 L 479 1229 L 418 1371 Q 415 1377 363 1487 Q 311 1597 287 1662 L 260 1740 Q 248 1773 234 1787 Q 220 1801 209 1799 Q 198 1798 185 1781.5 Q 172 1765 163 1743 L 143 1686 Q 123 1631 120 1611.5 Q 117 1592 123 1577 Q 128 1566 154.5 1549.5 Q 181 1533 207.5 1510 Q 234 1487 271 1441 Q 308 1395 340 1347.5 Q 372 1300 397 1259 Z"/><path d="M 785 1171 Q 773 1220 763 1261.5 Q 753 1303 735.5 1356.5 Q 718 1410 689.5 1472 Q 661 1534 614 1608 Q 567 1682 494 1733 L 450 1764 Q 431 1777 426 1769.5 Q 421 1762 429 1752 L 471 1693 Q 506 1643 547 1563 Q 588 1483 620.5 1379.5 Q 653 1276 672 1178.5 Q 691 1081 697.5 1009.5 Q 704 938 705 870 Q 705 814 700 794 L 691 757 Q 674 743 660 730.5 Q 646 718 648 709 Q 649 702 658 697 Q 667 692 688 689 L 731 684 L 840 669 Q 880.5 669.5 851 746 Q 841 792 837 818 Q 833 844 821.5 931 Q 810 1018 805 1049 L 796 1104 L 785 1171 Z"/><path d="M 1189 609 Q 1245 598 1290.5 589 Q 1336 580 1381 567 Q 1426 554 1445 554 Q 1467 555 1499 568.5 Q 1531 582 1556 595 L 1631 640 Q 1663 659 1671.5 675 Q 1680 691 1676 702 Q 1672 711 1656 720 L 1589 751 Q 1583 754 1536 784 L 1457 832 L 1401 870 Q 1381 884 1374.5 878.5 Q 1368 873 1378 851 L 1428 731 Q 1439 704 1435.5 687 Q 1432 670 1420.5 664 Q 1409 658 1389 661 L 1367 665 L 1187 689 L 1069 708 Q 1017 718 968 727 Q 919 736 909 737 L 851 746 Q 743 779.5 691 757 Q 674 743 660 730.5 Q 646 718 648 709 Q 649 702 658 697 Q 667 692 688 689 L 731 684 L 840 669 Q 977 651 987 648 L 1069 630 L 1189 609 Z"/><path d="M 1187 689 L 1177 1057 Q 1109 1132 1067 1077 L 1069 708 L 1069 630 L 1072 461 Q 1072 432 1065 379.5 Q 1058 327 1052 302 Q 1046 277 1032.5 256.5 Q 1019 236 1015.5 223 Q 1012 210 1018 204 Q 1024 198 1044 198 Q 1075 200 1088 201 Q 1101 202 1128.5 209.5 Q 1156 217 1182 229 Q 1208 241 1225.5 254 Q 1243 267 1245 276.5 Q 1247 286 1241 302 L 1220 351 Q 1213 369 1205.5 405 Q 1198 441 1197 467 L 1189 609 L 1187 689 Z"/><path d="M 1177 1057 L 1243 1045 Q 1279 1039 1293 1034.5 Q 1307 1030 1331.5 1017.5 Q 1356 1005 1369 1004 Q 1381 1004 1403.5 1011.5 Q 1426 1019 1462.5 1039 Q 1499 1059 1512.5 1073.5 Q 1526 1088 1526.5 1097.5 Q 1527 1107 1497 1135 Q 1485 1147 1467.5 1173.5 Q 1450 1200 1436 1226 L 1389 1318 Q 1359 1373 1320 1429 L 1267 1505 L 1192 1588 Q 1145 1621 1096.5 1652 Q 1048 1683 976 1715 Q 904 1747 850.5 1762.5 Q 797 1778 740.5 1789.5 Q 684 1801 655 1803 L 610 1807 Q 580 1810 579.5 1798 Q 579 1786 597 1781 L 652 1765 Q 691 1754 755 1729.5 Q 819 1705 871 1677.5 Q 923 1650 994 1606.5 Q 1065 1563 1075 1552 L 1117 1509 L 1180 1433 Q 1206 1397 1223.5 1369 Q 1241 1341 1255 1308.5 Q 1269 1276 1279.5 1247 Q 1290 1218 1301.5 1180 Q 1313 1142 1304 1128.5 Q 1295 1115 1245 1120.5 Q 1195 1126 1168.5 1130.5 Q 1142 1135 1008 1160 L 919 1177 Q 717.5 1204.5 796 1104 Q 830 1105 855.5 1104 Q 881 1103 934 1095 L 1001 1085 L 1067 1077 L 1177 1057 Z"/><path d="M 1267 1505 Q 1319 1541 1355 1563 Q 1391 1585 1443.5 1610.5 Q 1496 1636 1543.5 1655 Q 1591 1674 1661 1695.5 Q 1731 1717 1794.5 1731.5 Q 1858 1746 1877 1752 L 1913 1764 Q 1925 1769 1925.5 1779 Q 1926 1789 1907 1797 Q 1890 1805 1853 1810 L 1762 1827 Q 1732 1833 1645.5 1844 Q 1559 1855 1517 1852 Q 1475 1850 1440 1835 Q 1405 1820 1351 1763 L 1292 1701 Q 1235 1643 1228 1632 L 1192 1588 L 1117 1509 Q 1093 1479 1081 1463 L 1028 1399 Q 965 1322 947.5 1303 Q 930 1284 889.5 1247.5 Q 849 1211 839 1205 L 785 1171 L 796 1104 Q 830 1105 855.5 1104 L 919 1177 Q 947 1202 956 1211 Q 965 1220 1014 1274.5 Q 1063 1329 1109 1369 L 1180 1433 L 1267 1505 Z"/></g><g transform="translate(164.000,68.600) scale(0.006836)"><path d="M 578 593 L 568 616 Q 561 632 548.5 633.5 Q 536 635 523 619 Q 508 603 501 567 L 485 491 L 452 342 Q 445 312 434.5 294 Q 424 276 406 262.5 Q 388 249 382 240.5 Q 376 232 379.5 224.5 Q 383 217 402 215 Q 412 215 438 220.5 Q 464 226 469 226 L 503 232 Q 529.5 246 534 304 Q 543 346 552.5 389 Q 562 432 566 457 L 577 530 Q 582.5 559.5 578 593 Z"/><path d="M 503 232 L 771 208 L 1009 184 L 1250 163 Q 1298 158 1341 150 Q 1384 142 1399 141 Q 1414 141 1427.5 144 Q 1441 147 1489 170.5 Q 1537 194 1564.5 216 Q 1592 238 1590 256 Q 1588 267 1580 275.5 Q 1572 284 1551.5 303.5 Q 1531 323 1516 340.5 Q 1501 358 1491 377 L 1410 529 Q 1399 550 1380 567 Q 1361 584 1337 584 Q 1300 586 1298 569 L 1288 540 Q 1252 449 1306 492 L 1323 442 L 1342 380 Q 1357 331 1358.5 325.5 Q 1360 320 1366.5 290 Q 1373 260 1368.5 249.5 Q 1364 239 1346.5 235 Q 1329 231 1289 231 L 1109 235 L 1027 243 Q 976 247 951 249 L 856 259 L 794 263 L 722 276 Q 630 287 608 291 L 534 304 L 503 232 Z"/><path d="M 815 511 Q 807 486 802 467.5 Q 797 449 787.5 407 Q 778 365 767 335.5 Q 756 306 740 292 L 722 276 L 794 263 Q 812 269 826.5 273.5 Q 841 278 859.5 289 Q 878 300 880.5 308.5 Q 883 317 881 331 Q 879 345 876 385 Q 873 425 873 431 L 872 469 L 870 506 Q 843.5 542.5 815 511 Z"/><path d="M 1002 488 Q 1009 450 1015 423 Q 1021 396 1025.5 374 Q 1030 352 1032.5 321.5 Q 1035 291 1031 267 L 1027 243 L 1109 235 Q 1124 245 1133.5 251.5 Q 1143 258 1155 271 Q 1167 284 1166.5 291 Q 1166 298 1157.5 309 Q 1149 320 1134 346 L 1110 384 L 1077 444 L 1056 478 Q 1021 518 1002 488 Z"/><path d="M 1288 540 Q 1233 542 1202 543.5 Q 1171 545 1030 556.5 Q 889 568 851 571 L 670 590 Q 628 594 608 593 L 578 593 L 577 530 L 815 511 L 870 506 L 1002 488 L 1056 478 Q 1093 475 1137 470 Q 1181 465 1209 464 Q 1224 464 1246 466.5 Q 1268 469 1280 476 L 1306 492 L 1288 540 Z"/><path d="M 526 1103 Q 461 1116 434 1125 Q 407 1134 386.5 1143.5 Q 366 1153 342.5 1164 Q 319 1175 311 1174 Q 300 1174 291.5 1166.5 Q 283 1159 274.5 1142 Q 266 1125 259.5 1105.5 Q 253 1086 257 1073 Q 260 1061 290 1038.5 Q 320 1016 349 980.5 Q 378 945 411 886 Q 444 827 454 801 Q 464 775 470 758 L 484 712 L 495 667 Q 502 656 511.5 653.5 Q 521 651 541 662 Q 580 686 606 718 Q 632 750 624 765 Q 621 771 612 778 L 580 803 Q 556 823 534 852 L 424 996 Q 391 1039 385.5 1049.5 Q 380 1060 383 1065 Q 386 1070 409 1066 L 448 1060 Q 485 1055 513 1052 L 568 1047 Q 620 1067 526 1103 Z"/><path d="M 694 1303 Q 652 1318 632 1326 L 538 1368 Q 438 1412 418.5 1424.5 Q 399 1437 381 1451 Q 363 1465 353 1467 Q 343 1469 327 1459 Q 305 1447 290 1417.5 Q 275 1388 282 1371 Q 283 1368 286.5 1363.5 Q 290 1359 316.5 1346 Q 343 1333 389 1275 L 526 1103 L 568 1047 Q 594 1013 604.5 996 Q 615 979 627.5 955 Q 640 931 649.5 907 Q 659 883 662.5 861 Q 666 839 669.5 830.5 Q 673 822 682 818 Q 691 814 710 828 Q 720 836 735 851.5 Q 750 867 756.5 877.5 Q 763 888 773.5 910 Q 784 932 781 941 Q 778 948 763.5 959 Q 749 970 725 995 L 665 1055 L 461 1290 Q 448 1305 433 1323.5 Q 418 1342 420.5 1347 Q 423 1352 436 1352 L 473 1338 L 683 1267 Q 714.5 1272 694 1303 Z"/><path d="M 683 1267 Q 678 1255 674 1244.5 Q 670 1234 666.5 1225.5 Q 663 1217 651 1192 L 642 1175 Q 636 1165 641.5 1159.5 Q 647 1154 658 1159 L 670 1165 Q 705 1183 727.5 1198 Q 750 1213 767.5 1242 Q 785 1271 785.5 1301.5 Q 786 1332 769 1350.5 Q 752 1369 738 1367 Q 720 1366 708 1335 L 694 1303 L 683 1267 Z"/><path d="M 216 1620 L 206 1587 Q 200 1566 206.5 1558.5 Q 213 1551 225 1555 L 254 1567 Q 269 1574 293.5 1587 Q 318 1600 340 1618.5 Q 362 1637 378.5 1668 Q 395 1699 397.5 1732.5 Q 400 1766 386.5 1793 Q 373 1820 353.5 1823.5 Q 334 1827 311 1806 Q 292 1790 268 1735 Q 244 1680 231.5 1655.5 Q 219 1631 216 1620 Z"/><path d="M 469 1496 L 485 1501 Q 493 1504 518 1514.5 Q 543 1525 563 1536 Q 583 1547 599.5 1569 Q 616 1591 614 1626 Q 612 1648 600.5 1665.5 Q 589 1683 575.5 1686 Q 562 1689 542 1671 Q 526 1658 504 1621 L 479 1582 Q 463 1558 454 1539 L 444 1520 Q 435 1505 442.5 1498 Q 450 1491 469 1496 Z"/><path d="M 667 1418 L 689 1425 Q 702 1430 725 1440.5 Q 748 1451 764.5 1464 Q 781 1477 790 1494.5 Q 799 1512 799.5 1537 Q 800 1562 791 1581 Q 782 1600 765.5 1604 Q 749 1608 729 1588 Q 721 1581 710 1561 L 682 1514 L 658 1465 L 646 1443 Q 637 1428 643.5 1420.5 Q 650 1413 667 1418 Z"/><path d="M 959 999 Q 942 1018 933 1026 L 875 1074 Q 828 1115 821 1119 L 790 1138 Q 773 1149 765 1139.5 Q 757 1130 775 1110 L 805 1076 Q 830 1047 857 1013.5 Q 884 980 912 938 Q 940 896 972.5 838 Q 1005 780 1019 744.5 Q 1033 709 1038 675 L 1044 622 Q 1045 611 1050 606 Q 1055 601 1066 600 Q 1079 600 1102 610 Q 1125 620 1136.5 627.5 Q 1148 635 1160.5 647.5 Q 1173 660 1184 677 Q 1195 694 1193 702 Q 1191 707 1172.5 720.5 Q 1154 734 1134.5 765.5 Q 1115 797 1102.5 816.5 Q 1090 836 1061 874 Q 1032 912 1027 919 L 1001 951 L 959 999 Z"/><path d="M 1001 951 Q 1035 946 1045.5 944.5 Q 1087.75 952.75 1074 1003 Q 1067 1024 1064 1036 Q 1061 1048 1058 1064.5 Q 1055 1081 1054 1103 L 1052 1133 L 1050 1161 L 1047 1208 L 1040 1366 L 1038 1405 L 1027 1617 L 1030 1617 L 1025 1655 L 1017 1805 Q 1014 1844 1002 1875.5 Q 990 1907 978 1909.5 Q 966 1912 949 1894 Q 934 1880 921 1850.5 Q 908 1821 901.5 1801.5 Q 895 1782 897 1764 Q 897 1758 909 1725.5 Q 921 1693 930 1631 L 941 1557 Q 946 1518 948 1487 L 965 1162 Q 965 1148 965.5 1102 Q 966 1056 965 1047 L 959 999 L 1001 951 Z"/><path d="M 1402 900 Q 1382 885 1375 877 Q 1368 869 1346.5 840.5 Q 1325 812 1307 787 Q 1289 762 1281 747 L 1268 726 Q 1260 714 1259.5 706.5 Q 1259 699 1263.5 693.5 Q 1268 688 1289 692 L 1326 701 Q 1346 707 1357 710.5 Q 1368 714 1403 728.5 Q 1438 743 1450 754.5 Q 1462 766 1470 788.5 Q 1478 811 1475 845 Q 1472 864 1470 869 L 1459 891 Q 1433.5 926.5 1402 900 Z"/><path d="M 1045.5 944.5 Q 1056 943 1093.5 940 Q 1131 937 1206.5 928 Q 1282 919 1304 916 Q 1326 913 1348 909 L 1402 900 L 1459 891 Q 1500 888 1520 882 L 1541 876 L 1574 867 Q 1616 856 1628 855.5 Q 1640 855 1665.5 862 Q 1691 869 1715.5 880.5 Q 1740 892 1740.5 904.5 Q 1741 917 1728 921 L 1698 932 Q 1684 937 1648 942 L 1546 958 L 1501 963 L 1449 970 L 1313 986 Q 1257 992 1230 995 L 1166 1003 Q 1126 1008 1114 1006 L 1074 1003 L 1045.5 944.5 Z"/><path d="M 1428 1110 Q 1457 1105 1478.5 1100.5 Q 1500 1096 1526 1089 Q 1552 1082 1564 1080 Q 1584 1079 1607.5 1084 Q 1631 1089 1649.5 1096.5 Q 1668 1104 1679 1113.5 Q 1690 1123 1690.5 1135 Q 1691 1147 1674 1149 L 1620 1156 L 1537 1169 L 1482 1176 L 1426 1184 L 1326 1198 Q 1295 1203 1267 1206.5 Q 1239 1210 1195 1218 Q 1151 1226 1128.5 1226.5 Q 1106 1227 1084 1219 L 1047 1208 L 1050 1161 Q 1065 1160 1083.5 1158.5 Q 1102 1157 1117 1155 L 1234 1138 Q 1254 1136 1287 1131 L 1327 1126 L 1428 1110 Z"/><path d="M 1426 1322 Q 1442 1320 1453 1318 Q 1464 1316 1484.5 1312.5 Q 1505 1309 1531.5 1302.5 Q 1558 1296 1571 1294 Q 1593 1293 1610.5 1297.5 Q 1628 1302 1652 1311 Q 1676 1320 1684.5 1328.5 Q 1693 1337 1693.5 1349 Q 1694 1361 1678 1363 L 1624 1370 L 1544 1380 L 1489 1387 L 1425 1394 L 1324 1407 Q 1271 1413 1250.5 1415.5 Q 1230 1418 1186.5 1425 Q 1143 1432 1124 1431.5 Q 1105 1431 1087 1423 L 1038 1405 L 1040 1366 L 1061 1366 Q 1078 1366 1122 1361 L 1226 1350 L 1286 1342 L 1325 1337 L 1426 1322 Z"/><path d="M 1449 970 Q 1444 986 1440.5 1002.5 Q 1437 1019 1434 1053 L 1428 1110 L 1426 1184 L 1426 1322 L 1425 1394 L 1424 1440 Q 1422 1488 1423 1509.5 Q 1424 1531 1425 1543 L 1426 1563 Q 1371.5 1629.5 1311 1582 Q 1312 1569 1313 1562 L 1318 1522 Q 1319 1510 1321.5 1477 Q 1324 1444 1324 1426 L 1324 1407 L 1325 1337 L 1326 1198 L 1327 1126 Q 1326 1104 1325.5 1087 Q 1325 1070 1323.5 1047.5 Q 1322 1025 1320 1016 L 1313 986 L 1449 970 Z"/><path d="M 1426 1563 Q 1454 1560 1469 1558 L 1577 1543 Q 1630 1537 1664.5 1529 Q 1699 1521 1706 1520 Q 1734 1518 1759 1527.5 Q 1784 1537 1804 1550.5 Q 1824 1564 1833.5 1576.5 Q 1843 1589 1840.5 1601.5 Q 1838 1614 1821 1614 L 1785 1614 L 1738 1615 L 1642 1614 Q 1574 1614 1489.5 1622 Q 1405 1630 1358.5 1638.5 Q 1312 1647 1247 1661 Q 1182 1675 1157 1684 Q 1132 1693 1125 1693 Q 1108 1695 1086.5 1688.5 Q 1065 1682 1059 1677 L 1025 1655 L 1027 1617 L 1030 1617 L 1061 1614 Q 1118 1609 1144 1605 L 1213 1595 L 1254 1591 L 1311 1582 L 1426 1563 Z"/></g><g transform="translate(179.000,68.600) scale(0.006836)"><path d="M 1060 358 Q 1037 339 1029 330 Q 1021 321 998.5 291.5 Q 976 262 961.5 236.5 Q 947 211 933 183 L 916 151 Q 910 141 909 134.5 Q 908 128 913.5 122.5 Q 919 117 950 124 L 977 131 Q 983 133 1024 147.5 Q 1065 162 1080.5 169.5 Q 1096 177 1112 194 Q 1128 211 1136 234 Q 1144 257 1139 297 Q 1136 320 1133 325 L 1119 352 Q 1092.5 385 1060 358 Z"/><path d="M 543 453 Q 535 488 529.5 505 Q 524 522 512.5 548 Q 501 574 473.5 614 Q 446 654 416 679 Q 386 704 365 697 Q 350 693 340 677 Q 330 661 329.5 631.5 Q 329 602 333 584 Q 337 565 344 554 Q 351 543 362.5 531 Q 374 519 406 484 Q 438 449 448 437 Q 458 425 464 415 Q 470 405 485 375 L 502 341 Q 509 326 522 325.5 Q 535 325 538 339 L 547 389 L 543 453 Z"/><path d="M 1119 352 Q 1169 348 1244 341.5 Q 1319 335 1330 333.5 Q 1341 332 1407.5 325 Q 1474 318 1498 315 Q 1522 312 1541.5 308 Q 1561 304 1569 303 Q 1588 303 1616 315.5 Q 1644 328 1672.5 353 Q 1701 378 1730.5 406.5 Q 1760 435 1765 450 Q 1770 465 1765 473 Q 1759 482 1735 484 L 1695 488 Q 1675 491 1640.5 497.5 Q 1606 504 1581.5 510 Q 1557 516 1513 530 L 1450 551 Q 1435 556 1428.5 548.5 Q 1422 541 1439 523 L 1472 488 L 1506 459 Q 1532 437 1532.5 421 Q 1533 405 1527 397 Q 1521 389 1505 386 Q 1489 383 1465 384 L 1370 393 Q 1343 396 1249.5 401.5 Q 1156 407 1095 413 Q 1034 419 911 434 L 822 445 Q 758 453 705.5 460.5 Q 653 468 633 470 Q 595 474 588 470 L 543 453 L 547 389 Q 570 389 583 388 L 608 388 Q 638 388 772 381.5 Q 906 375 937 371 L 998 364 L 1060 358 L 1119 352 Z"/><path d="M 565 685 L 568 709 Q 571 740 571.5 757.5 Q 572 775 567 806 Q 559 850 546.5 883.5 Q 534 917 515 945 Q 496 973 473.5 993.5 Q 451 1014 433.5 1016.5 Q 416 1019 403 1008.5 Q 390 998 383 972 Q 376 946 385 924 Q 389 912 405 893 L 426 868 Q 429 864 454 831.5 Q 479 799 488 785.5 Q 497 772 504 757.5 Q 511 743 521 720 L 534 687 Q 540 672 551.5 671.5 Q 563 671 565 685 Z"/><path d="M 808 916 Q 785 894 769 876 Q 753 858 734 828.5 Q 715 799 697.5 763.5 Q 680 728 673 704 L 660 659 Q 649 630 655 625 Q 661 620 670 619 Q 679 618 696 662 Q 700 675 714.5 700 Q 729 725 737.5 738 Q 746 751 778 786.5 Q 810 822 828 833 L 875 867 L 970 913 Q 1029 918 1071 919 Q 1113 920 1152.5 916 Q 1192 912 1232 904.5 Q 1272 897 1287 891.5 Q 1302 886 1305 878 Q 1308 870 1306 857 Q 1304 851 1297 832 L 1283 794 L 1270 761 Q 1265 749 1269 745 Q 1273 741 1291 751 L 1339 781 Q 1362 796 1377 804.5 Q 1392 813 1439 836.5 Q 1486 860 1499.5 866 Q 1513 872 1518 877.5 Q 1523 883 1525 891 Q 1527 899 1524 907 Q 1521 913 1511 924 Q 1501 935 1474 953.5 Q 1447 972 1367 989 Q 1287 1006 1223.5 1012 Q 1160 1018 1078 1014 Q 1021 1012 987 1005 Q 953 998 934 989 L 894 973 L 808 916 Z"/><path d="M 845 546 L 835 530 Q 827 518 829 512.5 Q 831 507 839 506 Q 847 505 869 511 L 894 519 Q 905 523 933 536.5 Q 961 550 975 561 Q 989 572 1000.5 586.5 Q 1012 601 1017 618.5 Q 1022 636 1017 657 Q 1012 676 1000.5 686.5 Q 989 697 972 696 Q 953 696 936.5 681 Q 920 666 900.5 639 Q 881 612 864 581 Q 847 550 845 546 Z"/><path d="M 1429 668 L 1409 647 Q 1398 636 1403.5 625.5 Q 1409 615 1437 621 L 1473 629 Q 1488 633 1544 653 L 1605 675 Q 1652 694 1682 718 Q 1712 742 1724 769 Q 1736 796 1735.5 835.5 Q 1735 875 1718 895 Q 1701 915 1669 910 Q 1647 907 1632.5 892 Q 1618 877 1573 822 L 1522 764 Q 1483 720 1475 711 L 1429 668 Z"/><path d="M 875 867 Q 940 815 979.5 782.5 Q 1019 750 1048.5 720.5 Q 1078 691 1109 653 Q 1140 615 1157.5 587.5 Q 1175 560 1180.5 541.5 Q 1186 523 1191.5 518.5 Q 1197 514 1209 514 Q 1218 515 1235 526 Q 1252 537 1268 552 Q 1284 567 1300 589 Q 1316 611 1313 622 Q 1310 629 1302.5 636 Q 1295 643 1272 657.5 Q 1249 672 1224.5 692 Q 1200 712 1158 753 Q 1116 794 1085 823 Q 1054 852 1037 864 L 970 913 L 894 973 Q 850 1003 802 1035 Q 754 1067 699.5 1097.5 Q 645 1128 581 1156.5 Q 517 1185 472 1197.5 Q 427 1210 366 1217 L 309 1224 Q 286 1227 283 1221.5 Q 280 1216 282 1210 L 300 1203 L 359 1180 Q 394 1166 450.5 1139.5 Q 507 1113 560.5 1083 Q 614 1053 671 1017.5 Q 728 982 749 964 L 808 916 L 875 867 Z"/><path d="M 712 1540 Q 705 1559 700.5 1568 Q 696 1577 690 1583 Q 684 1589 677 1588 Q 669 1588 657 1576 Q 645 1564 638 1551.5 Q 631 1539 621 1485 L 595 1354 Q 587 1315 575.5 1290.5 Q 564 1266 554 1257 L 533 1241 Q 523 1229 526.5 1222.5 Q 530 1216 542.5 1211 Q 555 1206 568 1210 L 639 1228 L 693 1297 L 711 1479 L 712 1540 Z"/><path d="M 639 1228 L 938 1190 L 1084 1172 Q 1117 1168 1137.5 1166 Q 1158 1164 1203.5 1159 Q 1249 1154 1287.5 1142.5 Q 1326 1131 1334 1130 Q 1360 1128 1388 1139.5 Q 1416 1151 1441 1166.5 Q 1466 1182 1492 1199.5 Q 1518 1217 1520 1231 Q 1522 1245 1514 1256 Q 1512 1259 1495 1270.5 Q 1478 1282 1459.5 1302.5 Q 1441 1323 1434 1336 L 1369 1450 Q 1267.5 1485 1272 1426 L 1298 1327 Q 1309 1284 1311 1266 Q 1313 1248 1302 1236.5 Q 1291 1225 1249 1228 L 1182 1233 Q 1147 1236 1114 1239 L 1074 1243 L 942 1256 Q 917 1259 906 1261 L 856 1271 Q 797 1283 767 1292 Q 737 1301 734 1300 L 693 1297 L 639 1228 Z"/><path d="M 942 1525 Q 915 1528 902 1529 L 845 1533 L 766 1539 L 712 1540 L 711 1479 Q 784 1475 838 1471.5 Q 892 1468 902 1467 L 942 1464 L 1064 1451 Q 1100 1447 1118 1444 L 1192 1433 L 1272 1426 L 1369 1450 L 1396 1472 Q 1407 1482 1404.5 1490 Q 1402 1498 1396 1502.5 Q 1390 1507 1337 1507 L 1261 1507 Q 1223 1507 1170 1510 L 1102 1514 L 1062 1516 L 942 1525 Z"/><path d="M 942 1717 L 942 1525 L 942 1464 L 942 1256 L 938 1190 Q 933 1146 923 1128 L 903 1096 Q 894 1078 900 1065.5 Q 906 1053 925 1048 Q 940 1044 977.5 1053 Q 1015 1062 1039.5 1069.5 Q 1064 1077 1085 1091 Q 1106 1105 1105 1119 L 1094 1141 L 1084 1172 L 1074 1243 Q 1073 1258 1073 1265 L 1067 1335 L 1064 1451 L 1062 1516 L 1057 1697 Q 959.5 1810 942 1717 Z"/><path d="M 1057 1697 L 1357 1647 Q 1469.5 1635.5 1390 1698 L 692 1855 Q 674 1860 631.5 1873 Q 589 1886 576.5 1891.5 Q 564 1897 537.5 1912 Q 511 1927 496.5 1927.5 Q 482 1928 457 1908 Q 435 1892 406.5 1861 Q 378 1830 369.5 1809.5 Q 361 1789 369.5 1781 Q 378 1773 391 1772 Q 398 1772 416.5 1777 Q 435 1782 452 1783 Q 462 1784 515 1782 Q 568 1780 580 1778 L 942 1717 L 1057 1697 Z"/><path d="M 1357 1647 Q 1353 1642 1352 1639 L 1310 1589 L 1294 1564 Q 1284 1550 1290.5 1540.5 Q 1297 1531 1325 1541 L 1359 1554 Q 1380 1563 1430 1591.5 Q 1480 1620 1506.5 1636.5 Q 1533 1653 1559.5 1683 Q 1586 1713 1593 1741.5 Q 1600 1770 1596.5 1807.5 Q 1593 1845 1573.5 1863.5 Q 1554 1882 1522 1872 Q 1500 1866 1478 1834 L 1436 1767 L 1414 1734 L 1390 1698 L 1357 1647 Z"/></g><g transform="translate(194.000,68.600) scale(0.006836)"><path d="M 522 915 Q 477 924 460.5 928 Q 444 932 392 947.5 Q 340 963 324.5 970 Q 309 977 290 988 Q 271 999 263 998 Q 248 998 236.5 984.5 Q 225 971 215 949 Q 205 927 200 908 Q 195 889 200 879 Q 203 872 222.5 859 Q 242 846 256 835 Q 270 824 305 786 Q 340 748 377.5 687.5 Q 415 627 453 554 Q 491 481 504 448 Q 517 415 526.5 379.5 Q 536 344 536.5 322.5 Q 537 301 542 293.5 Q 547 286 556.5 283.5 Q 566 281 585 292 Q 619 313 638.5 326.5 Q 658 340 673.5 362 Q 689 384 686 400 Q 683 410 666 427 Q 649 444 635.5 459.5 Q 622 475 601.5 502 Q 581 529 523 609.5 Q 465 690 461 696 L 376 808 Q 355 836 348 849.5 Q 341 863 346.5 872.5 Q 352 882 389 879 L 556 866 Q 596 893.5 522 915 Z"/><path d="M 556 866 L 633 747 Q 652 718 667.5 679 Q 683 640 685 618 Q 687 596 692 588 Q 697 580 707 578.5 Q 717 577 732 585 Q 744 593 760 609 Q 776 625 789 645.5 Q 802 666 810 687 Q 818 708 808 723 Q 805 727 789 738.5 Q 773 750 751 775 L 708 822 Q 697 835 660 884.5 Q 623 934 552 1018 L 417 1178 Q 391 1209 393.5 1215 Q 396 1221 411 1224 L 482 1201 L 656 1149 Q 692.5 1155 679 1191 L 482 1262 Q 457 1271 423.5 1287.5 Q 390 1304 372.5 1313.5 Q 355 1323 339.5 1335.5 Q 324 1348 316 1347 Q 309 1347 301 1342 Q 293 1337 281 1322.5 Q 269 1308 261 1294.5 Q 253 1281 247 1261.5 Q 241 1242 246 1232 Q 249 1225 275.5 1211 Q 302 1197 326.5 1168.5 Q 351 1140 400 1079.5 Q 449 1019 458 1006 L 522 915 L 556 866 Z"/><path d="M 656 1149 Q 640 1118 629.5 1099.5 Q 619 1081 614.5 1069.5 Q 610 1058 613.5 1053.5 Q 617 1049 632 1050 Q 651 1052 677 1061 Q 703 1070 729.5 1085.5 Q 756 1101 775.5 1125 Q 795 1149 800.5 1183.5 Q 806 1218 794 1242 Q 785 1259 769.5 1266.5 Q 754 1274 740 1267 Q 731 1264 720 1248 L 701 1221 L 679 1191 L 656 1149 Z"/><path d="M 132 1480 L 159 1491 Q 169 1496 199.5 1516.5 Q 230 1537 248.5 1551.5 Q 267 1566 282 1590 Q 297 1614 302 1637.5 Q 307 1661 305 1689 Q 302 1722 293.5 1736.5 Q 285 1751 274 1758.5 Q 263 1766 249 1765 Q 232 1764 220 1751.5 Q 208 1739 193 1708 Q 178 1677 172 1660 L 146 1595 Q 129 1553 125 1539 L 113 1499 Q 110 1487 114 1481 Q 118 1475 132 1480 Z"/><path d="M 378 1452 L 369 1430 Q 365 1421 368.5 1415.5 Q 372 1410 385 1413 L 413 1422 Q 437 1430 455 1437 Q 473 1444 496.5 1459 Q 520 1474 531 1487 Q 542 1500 547.5 1519 Q 553 1538 548 1563 Q 543 1586 531.5 1597.5 Q 520 1609 502.5 1610.5 Q 485 1612 465 1595 Q 450 1584 436.5 1563 Q 423 1542 409 1514 Q 395 1486 387.5 1472.5 Q 380 1459 378 1452 Z"/><path d="M 599 1363 L 590 1343 Q 585 1334 588.5 1328.5 Q 592 1323 604 1326 L 630 1334 Q 651 1341 669 1348 Q 687 1355 708.5 1368 Q 730 1381 742 1395 Q 754 1409 759 1430.5 Q 764 1452 758 1472 Q 753 1488 742.5 1498.5 Q 732 1509 716 1511 Q 700 1513 681 1497 Q 668 1488 652 1463 Q 636 1438 629 1423 L 613 1390 L 599 1363 Z"/><path d="M 1081 444 Q 1201 422 1274 406.5 Q 1347 391 1401.5 372.5 Q 1456 354 1477 353 Q 1497 353 1520.5 359.5 Q 1544 366 1564.5 378.5 Q 1585 391 1595 403 Q 1605 415 1605 425 Q 1604 441 1562.5 454 Q 1521 467 1452 480.5 Q 1383 494 1318.5 503 Q 1254 512 1169 523.5 Q 1084 535 1061 533 Q 1021 532 989 518.5 Q 957 505 944.5 491.5 Q 932 478 935.5 471 Q 939 464 953 462 L 1081 444 Z"/><path d="M 921 995 Q 923 1003 938 1015 Q 953 1027 981 1042 Q 1009 1057 1045 1081.5 Q 1081 1106 1092 1125 Q 1103 1144 1103.5 1173 Q 1104 1202 1093 1221 Q 1082 1240 1063 1241.5 Q 1044 1243 1015 1206 Q 995 1182 974.5 1158 Q 954 1134 931 1108.5 Q 908 1083 881 1056.5 Q 854 1030 853.5 1018 Q 853 1006 869 976 Q 879 957 893 917 L 913 859 Q 933 798 941.5 763 Q 950 728 953 698.5 Q 956 669 965 662 Q 974 655 992 658 Q 1004 661 1031 680.5 Q 1058 700 1072.5 715.5 Q 1087 731 1086 746 Q 1085 757 1065 777 Q 1045 797 1025 827 L 992 875 L 945 944 Q 929 967 924.5 980 Q 920 993 921 995 Z"/><path d="M 1203 951 Q 1204 956 1225 969.5 Q 1246 983 1276.5 997.5 Q 1307 1012 1341 1029.5 Q 1375 1047 1386 1064 Q 1397 1081 1397.5 1110.5 Q 1398 1140 1387 1159.5 Q 1376 1179 1359.5 1179.5 Q 1343 1180 1319 1154 Q 1264 1097 1245 1077.5 Q 1226 1058 1194.5 1032 Q 1163 1006 1150.5 994 Q 1138 982 1137.5 969.5 Q 1137 957 1153 927 Q 1159 915 1178 867 L 1197 820 Q 1217 768 1224.5 735.5 Q 1232 703 1236 670 Q 1240 637 1249 630.5 Q 1258 624 1276 627 Q 1291 631 1311 645 Q 1331 659 1351 678.5 Q 1371 698 1371 711 Q 1370 722 1348.5 742 Q 1327 762 1292 808.5 Q 1257 855 1240 876 Q 1223 897 1211.5 920 Q 1200 943 1203 951 Z"/><path d="M 1514 909 Q 1515 916 1539 929.5 Q 1563 943 1604.5 956.5 Q 1646 970 1676 984.5 Q 1706 999 1724.5 1018.5 Q 1743 1038 1748.5 1072.5 Q 1754 1107 1739 1126 Q 1724 1145 1704 1144 Q 1687 1144 1666 1122.5 Q 1645 1101 1604.5 1062.5 Q 1564 1024 1546 1011 L 1472 961 Q 1450 943 1448 928.5 Q 1446 914 1462 886 Q 1478 857 1491 832 Q 1504 807 1520.5 762 Q 1537 717 1543.5 686.5 Q 1550 656 1554.5 620.5 Q 1559 585 1568.5 578.5 Q 1578 572 1595 575 Q 1609 578 1632.5 595 Q 1656 612 1673.5 631.5 Q 1691 651 1689 666 Q 1687 676 1666 698 Q 1645 720 1630 738 Q 1615 756 1581.5 802.5 Q 1548 849 1530.5 878 Q 1513 907 1514 909 Z"/><path d="M 1195 1362 L 1034 1373 Q 1007 1375 980 1369.5 Q 953 1364 937.5 1349.5 Q 922 1335 923 1325 Q 924 1314 965 1308 L 1052 1298 L 1304 1263 Q 1366 1255 1428.5 1239 Q 1491 1223 1513 1223 Q 1524 1224 1567 1231.5 Q 1610 1239 1624.5 1249.5 Q 1639 1260 1638 1269 Q 1637 1278 1623.5 1287.5 Q 1610 1297 1581 1301 L 1316 1342 L 1195 1362 Z"/><path d="M 1227 1627 Q 1225 1548 1222.5 1492.5 Q 1220 1437 1213 1416 L 1195 1362 L 1316 1342 Q 1333 1354 1340 1364 Q 1347 1374 1347.5 1388 Q 1348 1402 1339.5 1433 Q 1331 1464 1329 1491 L 1318 1619 Q 1271.5 1671 1227 1627 Z"/><path d="M 1318 1619 L 1575 1591 Q 1653 1583 1707.5 1572 Q 1762 1561 1784 1562 Q 1806 1565 1834.5 1576.5 Q 1863 1588 1885 1601 Q 1907 1614 1922 1631.5 Q 1937 1649 1934 1658.5 Q 1931 1668 1922 1674 Q 1910 1682 1894 1681 Q 1878 1680 1816 1680 L 1641 1674 Q 1606 1674 1489 1680 L 1296 1689 Q 1194 1696 1118 1706.5 Q 1042 1717 983.5 1729.5 Q 925 1742 885 1753.5 Q 845 1765 827 1764 Q 808 1764 783.5 1756.5 Q 759 1749 747.5 1743 Q 736 1737 707 1720 Q 678 1703 677 1688 Q 676 1673 696 1672 L 755 1670 Q 770 1670 826 1666 Q 882 1662 904 1660 L 1069 1642 L 1227 1627 L 1318 1619 Z"/></g></g><g fill="#888888" stroke="none"><g transform="translate(138.700,85.200) scale(0.002930)"><path d="M 943 449 Q 914 457 865.5 471.5 Q 817 486 787.5 492.5 Q 758 499 692.5 507.5 Q 627 516 601 516 L 548 517 Q 530 518 525.5 508 Q 521 498 545 492 L 595 480 Q 635 471 674 458 Q 713 445 771 422 Q 829 399 869.5 380.5 Q 910 362 964 331.5 Q 1018 301 1057 275.5 Q 1096 250 1119.5 229.5 Q 1143 209 1156.5 189.5 Q 1170 170 1177.5 166 Q 1185 162 1198 163 Q 1210 165 1248 191 Q 1286 217 1292.5 222.5 Q 1299 228 1315 250 Q 1331 272 1329 283 Q 1326 292 1318.5 297 Q 1311 302 1292.5 306 Q 1274 310 1259 315.5 Q 1244 321 1216 334 Q 1188 347 1105 381 L 1033 411 L 943 449 Z"/><path d="M 992 777 Q 948 784 926 786 L 836 796 L 734 809 Q 687 814 642 813 Q 602 813 579 806.5 Q 556 800 538 782 Q 520 764 524 754 Q 526 746 547.5 743 Q 569 740 616 736.5 Q 663 733 694 729 L 782 716 Q 840 708 849 706 L 988 682 L 1099 665 Q 1147 656 1183.5 649 Q 1220 642 1252 633 L 1320 614 Q 1345 607 1360 606 Q 1379 605 1399.5 611 Q 1420 617 1445.5 630 Q 1471 643 1478 655 Q 1485 667 1484 673 Q 1482 680 1460.5 689 Q 1439 698 1416.5 704.5 Q 1394 711 1333 723 Q 1272 735 1241.5 740 Q 1211 745 1164 751 L 1104 759 L 992 777 Z"/><path d="M 1108 985 Q 1159 981 1206 976.5 Q 1253 972 1324 965 Q 1395 958 1435.5 952.5 Q 1476 947 1511.5 941.5 Q 1547 936 1579 930 Q 1611 924 1629 924 Q 1648 925 1674.5 932 Q 1701 939 1728.5 950.5 Q 1756 962 1776.5 975 Q 1797 988 1803.5 1002 Q 1810 1016 1805 1027.5 Q 1800 1039 1765 1041 Q 1743 1043 1705 1042.5 Q 1667 1042 1551 1044 L 1385 1047 L 1234 1053 L 1109 1057 L 1006 1068 L 759 1095 Q 678 1104 642 1110 L 528 1132 Q 456 1145 433 1151 Q 410 1157 400 1157 Q 389 1158 370 1154 Q 351 1150 326 1141 Q 301 1132 276 1118.5 Q 251 1105 245 1092.5 Q 239 1080 241 1073 Q 243 1067 255.5 1063 Q 268 1059 292.5 1058.5 Q 317 1058 372.5 1054 Q 428 1050 495 1044.5 Q 562 1039 604 1034 L 1001 993 L 1108 985 Z"/><path d="M 988 682 Q 985 652 982.5 625.5 Q 980 599 973.5 560.5 Q 967 522 960 501 L 943 449 L 1033 411 Q 1055 423 1070 433 Q 1085 443 1088.5 452 Q 1092 461 1091.5 471.5 Q 1091 482 1093 518 L 1094 568 L 1099 665 L 1104 759 L 1108 985 L 1109 1057 Q 1109 1133 1110 1209.5 Q 1111 1286 1111 1325 Q 1110 1391 1107 1472 Q 1104 1553 1098 1620 Q 1092 1687 1079.5 1734 Q 1067 1781 1049 1818 Q 1031 1855 1012.5 1870.5 Q 994 1886 984 1885 Q 975 1885 963 1877.5 Q 951 1870 941 1859 L 897 1804 Q 883 1788 853 1760 L 808 1719 L 763 1678 Q 750 1667 754.5 1660 Q 759 1653 777 1658 L 827 1674 L 872 1684 L 914 1695 Q 929 1697 940 1691.5 Q 951 1686 961 1657 Q 971 1628 978.5 1566 Q 986 1504 991.5 1438.5 Q 997 1373 1000.5 1302.5 Q 1004 1232 1005 1190 L 1006 1068 L 1001 993 L 992 777 L 988 682 Z"/></g><g transform="translate(145.500,85.200) scale(0.002930)"><path d="M 545 750 L 435 765 Q 397 771 374.5 772 Q 352 773 324 770 Q 296 767 277.5 763.5 Q 259 760 241.5 748.5 Q 224 737 227.5 726 Q 231 715 248 713 L 292 708 Q 317 706 387.5 695.5 Q 458 685 480 679 L 546 664 L 643 644 Q 674 635 703.5 624.5 Q 733 614 748 612 Q 771 610 790 614.5 Q 809 619 822 624 Q 835 629 852 639 Q 869 649 869.5 659 Q 870 669 862 678 Q 852 688 808 698.5 Q 764 709 738 715 Q 712 721 688 724 L 639 732 L 545 750 Z"/><path d="M 546 664 L 547 513 Q 547 460 540 393 Q 533 326 527 294 Q 521 262 509.5 233.5 Q 498 205 496.5 186 Q 495 167 506 160 Q 517 153 530 152 Q 555 151 585 163 Q 615 175 650.5 195.5 Q 686 216 698 234 Q 710 252 710.5 264.5 Q 711 277 701 297 L 687 323 Q 678 342 671 368.5 Q 664 395 661.5 411.5 Q 659 428 651.5 496 Q 644 564 644 584 L 643 644 L 639 732 L 634 959 L 635 1037 L 629 1268 Q 628 1288 633 1357 L 638 1468 Q 639 1510 639.5 1537 Q 640 1564 635 1596 Q 629 1633 614.5 1668 Q 600 1703 581.5 1727 Q 563 1751 550.5 1757 Q 538 1763 527 1760 Q 514 1758 501 1739 L 480 1707 Q 470 1694 429 1649.5 Q 388 1605 379 1596 L 324 1549 Q 308 1536 315.5 1526.5 Q 323 1517 338 1521 L 426 1546 L 459 1556 Q 486 1563 499 1554 Q 509 1547 512.5 1531.5 Q 516 1516 518 1484 L 536 1113 L 544 1014 L 545 750 L 546 664 Z"/><path d="M 634 959 L 771 875 Q 785 866 795 876 Q 805 886 785 904 L 635 1037 L 536 1113 L 409 1219 Q 368 1253 343.5 1275 Q 319 1297 301.5 1315.5 Q 284 1334 271 1350.5 Q 258 1367 250.5 1369.5 Q 243 1372 232 1370 Q 215 1369 201 1362.5 Q 187 1356 154 1333 Q 121 1310 107.5 1290 Q 94 1270 96 1259 Q 97 1253 102 1249 Q 107 1245 126 1243 Q 145 1241 175.5 1229 Q 206 1217 228 1203 L 544 1014 L 634 959 Z"/><path d="M 1279 727 L 1283 430 Q 1283 373 1281.5 339 Q 1280 305 1263.5 275 Q 1247 245 1242.5 230 Q 1238 215 1248 207 Q 1258 199 1277 200 Q 1295 202 1320.5 208.5 Q 1346 215 1369.5 223 Q 1393 231 1403.5 242.5 Q 1414 254 1415 267 Q 1416 280 1400 322 Q 1391 344 1385 396.5 Q 1379 449 1379 504 L 1377 832 Q 1376 926 1373 970 Q 1370 1014 1366.5 1038 Q 1363 1062 1352 1090.5 Q 1341 1119 1327 1117 Q 1318 1117 1303 1100.5 Q 1288 1084 1278.5 1066 Q 1269 1048 1261 1022 Q 1253 996 1255 970 Q 1255 965 1261 931.5 Q 1267 898 1272.5 832 Q 1278 766 1279 727 Z"/><path d="M 878 1098 L 852 1120 Q 835 1135 826.5 1127.5 Q 818 1120 833 1096 L 855 1061 Q 874 1031 902.5 972.5 Q 931 914 950 868 Q 969 822 980 787 Q 991 752 997 719.5 Q 1003 687 999 667.5 Q 995 648 996 638.5 Q 997 629 1005 626 Q 1013 623 1023 624 Q 1039 627 1057.5 633 Q 1076 639 1104 654.5 Q 1132 670 1148 690.5 Q 1164 711 1160 724 Q 1158 730 1136 756 Q 1114 782 1108 790.5 Q 1102 799 1080.5 838 Q 1059 877 1039 908 Q 1019 939 990 975 Q 961 1011 927.5 1047.5 Q 894 1084 878 1098 Z"/><path d="M 1575 632 Q 1563 624 1562.5 611.5 Q 1562 599 1582 602 L 1624 610 Q 1646 615 1678 623.5 Q 1710 632 1771.5 653.5 Q 1833 675 1873 700.5 Q 1913 726 1930.5 751 Q 1948 776 1951 817 Q 1954 858 1938 877.5 Q 1922 897 1901.5 901 Q 1881 905 1852 885 Q 1835 874 1804.5 839 Q 1774 804 1725 756.5 Q 1676 709 1654 692 L 1575 632 Z"/><path d="M 768 1872 L 806 1850 Q 829 1837 877 1802.5 Q 925 1768 994.5 1711 Q 1064 1654 1153 1570.5 Q 1242 1487 1305.5 1414.5 Q 1369 1342 1423.5 1264 Q 1478 1186 1502.5 1141.5 Q 1527 1097 1551 1044 Q 1575 991 1576 947 Q 1577 903 1585 889 Q 1593 875 1610 874 Q 1619 874 1645 891 Q 1671 908 1690.5 922 Q 1710 936 1732.5 961 Q 1755 986 1753 1003 Q 1751 1015 1729 1037 Q 1707 1059 1686.5 1085.5 Q 1666 1112 1626 1171 Q 1586 1230 1560 1266.5 Q 1534 1303 1474.5 1377.5 Q 1415 1452 1353 1517 Q 1291 1582 1223 1638.5 Q 1155 1695 1112 1725.5 Q 1069 1756 998.5 1798 Q 928 1840 890.5 1857 Q 853 1874 821 1883 L 773 1897 Q 759 1901 755.5 1891 Q 752 1881 768 1872 Z"/></g><g transform="translate(152.300,85.200) scale(0.002930)"><path d="M 862 751 L 690 776 Q 658 781 596 793.5 Q 534 806 510 806 Q 487 807 471.5 803 Q 456 799 425 785.5 Q 394 772 381.5 755.5 Q 369 739 371.5 731.5 Q 374 724 442 715 L 888 662 L 999 648 L 1216 612 L 1299 599 Q 1346 591 1361 590 Q 1388 590 1416.5 600 Q 1445 610 1471.5 625 Q 1498 640 1506.5 654 Q 1515 668 1515 679 Q 1514 687 1508.5 696 Q 1503 705 1471.5 704.5 Q 1440 704 1395 707 L 1235 718 L 1135 723 L 1052 729 L 1000 732 L 862 751 Z"/><path d="M 998 1474 Q 999 1501 1000 1530.5 Q 1001 1560 1006 1635 Q 1011 1710 1009 1726 Q 1005 1744 996 1773.5 Q 987 1803 976 1825 Q 965 1847 947.5 1872 Q 930 1897 918 1896 Q 907 1896 881.5 1865.5 Q 856 1835 847 1804 Q 838 1773 831.5 1741 Q 825 1709 826 1693 Q 826 1680 838.5 1640.5 Q 851 1601 863 1532 L 870 1490 L 875 1388 L 880 1287 L 888 935 L 888 662 L 888 398 Q 888 378 883 329 Q 878 280 873 262.5 Q 868 245 856 223.5 Q 844 202 839.5 189 Q 835 176 841.5 165.5 Q 848 155 878 154 Q 909 154 939 163.5 Q 969 173 999.5 186.5 Q 1030 200 1041.5 215.5 Q 1053 231 1052 247 Q 1051 257 1037 286 Q 1023 315 1016.5 357 Q 1010 399 1006 494 L 999 648 L 1000 732 L 1000 747 L 998 849 L 994 1363 L 998 1474 Z"/><path d="M 888 935 Q 855 985 834 1014.5 Q 813 1044 762 1105 Q 711 1166 656 1224 Q 601 1282 542.5 1328 Q 484 1374 427.5 1408.5 Q 371 1443 313.5 1473 Q 256 1503 209 1520 L 147 1543 Q 116 1555 110 1549 Q 104 1543 105 1535.5 Q 106 1528 133 1510 L 192 1470 Q 251 1430 336 1363 Q 421 1296 490.5 1232.5 Q 560 1169 624 1096.5 Q 688 1024 752.5 935 Q 817 846 837 803 L 862 751 Q 968 699 888 935 Z"/><path d="M 1000 747 Q 1035 787 1062 816 Q 1089 845 1151 907.5 Q 1213 970 1264 1016.5 Q 1315 1063 1387 1120 Q 1459 1177 1510 1209 Q 1561 1241 1640 1280 Q 1719 1319 1789 1346 L 1864 1374 L 1914 1393 Q 1942 1404 1941.5 1419 Q 1941 1434 1902 1440 L 1847 1449 Q 1816 1454 1718 1466 Q 1620 1478 1567 1475 Q 1507 1472 1472 1453.5 Q 1437 1435 1357.5 1334 Q 1278 1233 1247 1193 Q 1216 1153 1160 1073 L 1079 959 L 998 849 Q 939 754 1000 747 Z"/><path d="M 870 1490 Q 839 1492 825 1493 L 742 1502 Q 703 1506 673 1504 Q 633 1503 599 1492.5 Q 565 1482 558.5 1469.5 Q 552 1457 554 1449 Q 555 1442 566.5 1435 Q 578 1428 589 1426 Q 600 1424 665 1415 L 875 1388 L 994 1363 L 1059 1351 Q 1117 1341 1131 1340.5 Q 1145 1340 1191 1349.5 Q 1237 1359 1262 1370 Q 1287 1381 1287.5 1392 Q 1288 1403 1279 1413 Q 1270 1423 1232.5 1433.5 Q 1195 1444 1179 1446 L 998 1474 L 870 1490 Z"/></g></g><g fill="#000000" stroke="none"><g transform="translate(111.750,127.700) scale(0.002441)"><path d="M 545 750 L 435 765 Q 397 771 374.5 772 Q 352 773 324 770 Q 296 767 277.5 763.5 Q 259 760 241.5 748.5 Q 224 737 227.5 726 Q 231 715 248 713 L 292 708 Q 317 706 387.5 695.5 Q 458 685 480 679 L 546 664 L 643 644 Q 674 635 703.5 624.5 Q 733 614 748 612 Q 771 610 790 614.5 Q 809 619 822 624 Q 835 629 852 639 Q 869 649 869.5 659 Q 870 669 862 678 Q 852 688 808 698.5 Q 764 709 738 715 Q 712 721 688 724 L 639 732 L 545 750 Z"/><path d="M 546 664 L 547 513 Q 547 460 540 393 Q 533 326 527 294 Q 521 262 509.5 233.5 Q 498 205 496.5 186 Q 495 167 506 160 Q 517 153 530 152 Q 555 151 585 163 Q 615 175 650.5 195.5 Q 686 216 698 234 Q 710 252 710.5 264.5 Q 711 277 701 297 L 687 323 Q 678 342 671 368.5 Q 664 395 661.5 411.5 Q 659 428 651.5 496 Q 644 564 644 584 L 643 644 L 639 732 L 634 959 L 635 1037 L 629 1268 Q 628 1288 633 1357 L 638 1468 Q 639 1510 639.5 1537 Q 640 1564 635 1596 Q 629 1633 614.5 1668 Q 600 1703 581.5 1727 Q 563 1751 550.5 1757 Q 538 1763 527 1760 Q 514 1758 501 1739 L 480 1707 Q 470 1694 429 1649.5 Q 388 1605 379 1596 L 324 1549 Q 308 1536 315.5 1526.5 Q 323 1517 338 1521 L 426 1546 L 459 1556 Q 486 1563 499 1554 Q 509 1547 512.5 1531.5 Q 516 1516 518 1484 L 536 1113 L 544 1014 L 545 750 L 546 664 Z"/><path d="M 634 959 L 771 875 Q 785 866 795 876 Q 805 886 785 904 L 635 1037 L 536 1113 L 409 1219 Q 368 1253 343.5 1275 Q 319 1297 301.5 1315.5 Q 284 1334 271 1350.5 Q 258 1367 250.5 1369.5 Q 243 1372 232 1370 Q 215 1369 201 1362.5 Q 187 1356 154 1333 Q 121 1310 107.5 1290 Q 94 1270 96 1259 Q 97 1253 102 1249 Q 107 1245 126 1243 Q 145 1241 175.5 1229 Q 206 1217 228 1203 L 544 1014 L 634 959 Z"/><path d="M 1279 727 L 1283 430 Q 1283 373 1281.5 339 Q 1280 305 1263.5 275 Q 1247 245 1242.5 230 Q 1238 215 1248 207 Q 1258 199 1277 200 Q 1295 202 1320.5 208.5 Q 1346 215 1369.5 223 Q 1393 231 1403.5 242.5 Q 1414 254 1415 267 Q 1416 280 1400 322 Q 1391 344 1385 396.5 Q 1379 449 1379 504 L 1377 832 Q 1376 926 1373 970 Q 1370 1014 1366.5 1038 Q 1363 1062 1352 1090.5 Q 1341 1119 1327 1117 Q 1318 1117 1303 1100.5 Q 1288 1084 1278.5 1066 Q 1269 1048 1261 1022 Q 1253 996 1255 970 Q 1255 965 1261 931.5 Q 1267 898 1272.5 832 Q 1278 766 1279 727 Z"/><path d="M 878 1098 L 852 1120 Q 835 1135 826.5 1127.5 Q 818 1120 833 1096 L 855 1061 Q 874 1031 902.5 972.5 Q 931 914 950 868 Q 969 822 980 787 Q 991 752 997 719.5 Q 1003 687 999 667.5 Q 995 648 996 638.5 Q 997 629 1005 626 Q 1013 623 1023 624 Q 1039 627 1057.5 633 Q 1076 639 1104 654.5 Q 1132 670 1148 690.5 Q 1164 711 1160 724 Q 1158 730 1136 756 Q 1114 782 1108 790.5 Q 1102 799 1080.5 838 Q 1059 877 1039 908 Q 1019 939 990 975 Q 961 1011 927.5 1047.5 Q 894 1084 878 1098 Z"/><path d="M 1575 632 Q 1563 624 1562.5 611.5 Q 1562 599 1582 602 L 1624 610 Q 1646 615 1678 623.5 Q 1710 632 1771.5 653.5 Q 1833 675 1873 700.5 Q 1913 726 1930.5 751 Q 1948 776 1951 817 Q 1954 858 1938 877.5 Q 1922 897 1901.5 901 Q 1881 905 1852 885 Q 1835 874 1804.5 839 Q 1774 804 1725 756.5 Q 1676 709 1654 692 L 1575 632 Z"/><path d="M 768 1872 L 806 1850 Q 829 1837 877 1802.5 Q 925 1768 994.5 1711 Q 1064 1654 1153 1570.5 Q 1242 1487 1305.5 1414.5 Q 1369 1342 1423.5 1264 Q 1478 1186 1502.5 1141.5 Q 1527 1097 1551 1044 Q 1575 991 1576 947 Q 1577 903 1585 889 Q 1593 875 1610 874 Q 1619 874 1645 891 Q 1671 908 1690.5 922 Q 1710 936 1732.5 961 Q 1755 986 1753 1003 Q 1751 1015 1729 1037 Q 1707 1059 1686.5 1085.5 Q 1666 1112 1626 1171 Q 1586 1230 1560 1266.5 Q 1534 1303 1474.5 1377.5 Q 1415 1452 1353 1517 Q 1291 1582 1223 1638.5 Q 1155 1695 1112 1725.5 Q 1069 1756 998.5 1798 Q 928 1840 890.5 1857 Q 853 1874 821 1883 L 773 1897 Q 759 1901 755.5 1891 Q 752 1881 768 1872 Z"/></g><g transform="translate(117.250,127.700) scale(0.002441)"><path d="M 984 342 Q 960 322 947.5 308 Q 935 294 922 270 L 876 190 Q 862 168 856 150 Q 850 132 855.5 125.5 Q 861 119 885 121 Q 926 126 977.5 146 Q 1029 166 1054 196 Q 1079 226 1081 262 Q 1082 290 1075 299 L 1053 332 Q 1022.5 365 984 342 Z"/><path d="M 467 452 Q 457 490 449.5 516 Q 442 542 426 582 Q 410 622 385.5 654.5 Q 361 687 341 684 Q 322 682 308 658 Q 294 634 293 608 Q 292 582 300 561 L 324 516 L 352 454 Q 370 414 378 375 Q 386 336 394.5 325 Q 403 314 414.5 311 Q 426 308 445 347 L 457 373 Q 468 410.5 467 452 Z"/><path d="M 1053 332 L 1365 294 Q 1383 292 1456.5 279.5 Q 1530 267 1551 269 Q 1584 274 1628.5 308 Q 1673 342 1713.5 382.5 Q 1754 423 1754.5 439 Q 1755 455 1749 463 Q 1740 474 1722 477 Q 1704 480 1653.5 484 Q 1603 488 1580 493 L 1523 509 L 1459 525 Q 1420 535 1417 530 Q 1414 525 1422 514 L 1476 438 Q 1497 408 1500.5 392 Q 1504 376 1498.5 368.5 Q 1493 361 1456 360.5 Q 1419 360 1395 360 Q 1311 362 1224 372 Q 1137 382 950 405 Q 763 428 703.5 436.5 Q 644 445 594 453 Q 544 461 524 462 Q 495 464 485 459 L 467 452 L 457 373 L 598 369 L 984 342 L 1053 332 Z"/><path d="M 643 620 Q 676 591 690 578 Q 704 565 722.5 546 Q 741 527 761 492 Q 781 457 789 452 Q 797 447 808 446 Q 818 446 827 450.5 Q 836 455 866 481.5 Q 896 508 903.5 519 Q 911 530 911 542 Q 910 549 906.5 554 Q 903 559 878 565.5 Q 853 572 812 588 L 677 642 Q 576 665 643 620 Z"/><path d="M 648.5 1088 Q 640 1077 635 1056 L 628 997 L 596 765 Q 590 724 578.5 697 Q 567 670 550 651.5 Q 533 633 530 627 Q 527 621 527.5 615.5 Q 528 610 535 604 Q 544 596 584 605 L 643 620 L 677 642 Q 683 710 684 726 L 688 789 L 692 846 L 705 997 Q 720.75 1165.5 648.5 1088 Z"/><path d="M 688 789 L 732 775 Q 759 767 770 765.5 Q 781 764 797 765 Q 807 767 839.5 775.5 Q 872 784 872.5 793 Q 873 802 866 808 Q 860 813 845 815 L 800 825 L 692 846 L 688 789 Z"/><path d="M 1196 951 Q 1217 882 1220 866 L 1233 790 L 1241 741 Q 1246 699 1252 672 Q 1258 645 1257 632 L 1250 600 Q 1248 592 1233 588 L 1079 604 Q 1075 605 1056.5 604 Q 1038 603 1025.5 594.5 Q 1013 586 1012 576.5 Q 1011 567 1013 563.5 Q 1015 560 1020 557 L 1076 552 L 1217 516 L 1263 500 Q 1280 494 1292 494 Q 1304 495 1323 502 L 1373 528 Q 1405 545 1412 556 Q 1419 567 1418.5 577 Q 1418 587 1402 613.5 Q 1386 640 1375 683 L 1310 935 Q 1294 994 1287.5 1015.5 Q 1281 1037 1266.5 1054.5 Q 1252 1072 1239 1072 Q 1218 1074 1214 1062 L 1187 1015 Q 1141.5 929 1196 951 Z"/><path d="M 1233 790 L 1089 811 Q 1060 816 1042 815.5 Q 1024 815 1003.5 805 Q 983 795 982.5 788.5 Q 982 782 985.5 777.5 Q 989 773 1006.5 768.5 Q 1024 764 1041 761 L 1133 747 L 1190 732 Q 1193 732 1221 737 L 1241 741 L 1233 790 Z"/><path d="M 705 997 L 983 965 L 1123 943 Q 1157 941 1176 946 L 1196 951 L 1187 1015 L 708 1065 L 705 997 Z"/><path d="M 653 1282 Q 587 1320 544 1341 Q 501 1362 458 1373 L 423 1382 Q 396 1389 393 1382 Q 390 1375 415 1358 L 452 1333 Q 487 1309 545.5 1265.5 Q 604 1222 631 1191.5 Q 658 1161 662 1145 L 671 1110 Q 657 1099 648.5 1088 L 708 1065 Q 758 1080 784.5 1094 Q 811 1108 821 1121 Q 831 1134 831.5 1138.5 Q 832 1143 832 1147 L 763 1198 L 697 1244 L 653 1282 Z"/><path d="M 697 1244 L 1265 1178 Q 1297 1175 1359.5 1167.5 Q 1422 1160 1455 1149.5 Q 1488 1139 1499 1138 Q 1516 1138 1539 1149 Q 1562 1160 1593.5 1185.5 Q 1625 1211 1641.5 1233 Q 1658 1255 1654 1268 Q 1652 1271 1639 1286.5 Q 1626 1302 1616.5 1342 Q 1607 1382 1605 1406 L 1579 1676 Q 1573 1732 1556.5 1775.5 Q 1540 1819 1514.5 1849 Q 1489 1879 1438.5 1910.5 Q 1388 1942 1368 1929 Q 1359 1925 1346.5 1904 Q 1334 1883 1305 1843.5 Q 1276 1804 1264 1789 L 1227 1748 Q 1212 1732 1215.5 1725 Q 1219 1718 1247 1721 L 1313 1730 L 1368 1738 Q 1394 1742 1406 1738 Q 1425 1732 1441.5 1702.5 Q 1458 1673 1469.5 1618 Q 1481 1563 1486.5 1499 Q 1492 1435 1494 1372.5 Q 1496 1310 1492 1278 Q 1489 1261 1480 1249 Q 1471 1237 1432 1238 L 1261 1246 L 974 1270 Q 939 1273 862 1287.5 Q 785 1302 747 1304 Q 699 1307 685 1298 L 653 1282 L 697 1244 Z"/><path d="M 376 1798 Q 359 1797 343 1776.5 Q 327 1756 324.5 1719 Q 322 1682 332 1650 Q 337 1633 359 1590.5 Q 381 1548 393.5 1520.5 Q 406 1493 413.5 1474 Q 421 1455 425.5 1453 Q 430 1451 443 1470 Q 456 1492 465 1517.5 Q 474 1543 476 1583 Q 478 1623 470 1660 Q 464 1683 446 1727.5 Q 428 1772 406.5 1785.5 Q 385 1799 376 1798 Z"/><path d="M 680 1628 L 643 1518 Q 629 1476 628 1468.5 Q 627 1461 633 1457 Q 639 1453 656 1458 Q 678 1466 706 1485 Q 734 1504 750 1522.5 Q 766 1541 774.5 1561 Q 783 1581 783 1600 Q 782 1616 774.5 1638 Q 767 1660 756 1672.5 Q 745 1685 730.5 1685.5 Q 716 1686 702.5 1671.5 Q 689 1657 680 1628 Z"/><path d="M 921 1568 L 876 1453 Q 866 1430 863 1413 Q 860 1396 865 1392 Q 870 1388 886 1392 Q 902 1398 934.5 1415 Q 967 1432 982 1446 Q 997 1460 1008.5 1486.5 Q 1020 1513 1020 1542 Q 1019 1567 1007 1587.5 Q 995 1608 975.5 1612.5 Q 956 1617 943.5 1605.5 Q 931 1594 921 1568 Z"/><path d="M 1200 1532 L 1130 1412 Q 1110 1379 1117 1373 Q 1124 1367 1142 1368 Q 1169 1371 1205.5 1381 Q 1242 1391 1275 1416 Q 1308 1441 1319.5 1464 Q 1331 1487 1331 1525 Q 1330 1557 1316 1578.5 Q 1302 1600 1274 1599 Q 1256 1599 1239.5 1586 Q 1223 1573 1200 1532 Z"/></g><g transform="translate(122.750,127.700) scale(0.002441)"><path d="M 943 632 L 820 640 Q 767 644 729.5 642.5 Q 692 641 669 635.5 Q 646 630 631.5 613 Q 617 596 620.5 588 Q 624 580 661 576 L 720 570 L 830 559 L 944 542 L 1066 520 L 1139 506 Q 1183 498 1214 489 Q 1245 480 1256 478 Q 1274 477 1286.5 480 Q 1299 483 1326 494.5 Q 1353 506 1364.5 515 Q 1376 524 1375.5 539 Q 1375 554 1348 559 L 1284 573 Q 1231 585 1159 595 L 1064 609 L 943 632 Z"/><path d="M 943 875 L 943 632 L 944 542 L 944 410 Q 944 352 941.5 312.5 Q 939 273 933.5 245.5 Q 928 218 919 197 Q 910 176 906.5 165.5 Q 903 155 908.5 147.5 Q 914 140 936 139 Q 952 139 979 143.5 Q 1006 148 1026.5 153.5 Q 1047 159 1066 169.5 Q 1085 180 1094 192.5 Q 1103 205 1103 214 Q 1102 221 1092 238 Q 1082 255 1078 268.5 Q 1074 282 1070.5 324 Q 1067 366 1067 389 L 1066 520 L 1064 609 L 1064 863 Q 998.5 927 943 875 Z"/><path d="M 1061 934 Q 918 951 811.5 965 Q 705 979 634 992 Q 563 1005 497.5 1018 Q 432 1031 398.5 1041.5 Q 365 1052 352 1052 Q 331 1054 305.5 1045 Q 280 1036 242.5 1015 Q 205 994 193 976.5 Q 181 959 186 949 Q 191 939 216 937 L 263 935 Q 381 930 424 927.5 Q 467 925 595.5 910.5 Q 724 896 759 892 L 850 884 L 943 875 L 1064 863 L 1143 855 L 1306 840 Q 1388 831 1444 824.5 Q 1500 818 1541 812 L 1644 796 L 1697 788 L 1737 780 Q 1762 778 1797 788.5 Q 1832 799 1864 814.5 Q 1896 830 1919.5 848 Q 1943 866 1943.5 878.5 Q 1944 891 1922.5 901 Q 1901 911 1833 912 L 1674 915 Q 1638 916 1520 916.5 Q 1402 917 1351 918 L 1227 921 L 1061 934 Z"/><path d="M 754 1305 Q 732 1320 704 1338.5 Q 676 1357 580.5 1410.5 Q 485 1464 420 1490 Q 355 1516 273 1543 Q 191 1570 163 1573 L 125 1578 Q 107 1581 101.5 1567 Q 96 1553 114 1545 L 161 1525 L 221 1500 Q 278 1475 379.5 1416.5 Q 481 1358 614 1274 Q 747 1190 809 1138 L 1061 934 L 1143 855 L 1255 746 Q 1311 692 1342.5 654.5 Q 1374 617 1409 563 Q 1444 509 1454.5 485 Q 1465 461 1472 432.5 Q 1479 404 1481.5 387 Q 1484 370 1489 364.5 Q 1494 359 1518 365 Q 1536 371 1558.5 384 Q 1581 397 1599 415 Q 1617 433 1630.5 451 Q 1644 469 1648 482 Q 1652 495 1649 502.5 Q 1646 510 1621.5 525 Q 1597 540 1546 593 L 1447 696 Q 1441 702 1357 788 L 1306 840 L 1227 921 Q 1035 1098 957 1158 L 898 1204 L 754 1305 Z"/><path d="M 827 1775 Q 831 1844 814 1860.5 Q 797 1877 785 1877.5 Q 773 1878 755 1847 Q 738 1821 728 1793.5 Q 718 1766 717.5 1751.5 Q 717 1737 731 1697 Q 743 1662 752 1615.5 Q 761 1569 765.5 1517.5 Q 770 1466 770 1413 Q 769 1358 763 1337 L 754 1305 Q 798.5 1192.5 829 1266 Q 844 1282 850.5 1292.5 Q 857 1303 859 1313 L 856 1350 L 850 1469 L 847 1524 L 830 1713 L 827 1775 Z"/><path d="M 898 1204 L 1076 1171 Q 1104 1166 1173.5 1151 Q 1243 1136 1269 1125 Q 1295 1114 1304 1113 Q 1323 1111 1348.5 1123.5 Q 1374 1136 1416.5 1171.5 Q 1459 1207 1459.5 1216.5 Q 1460 1226 1447 1248 Q 1431 1276 1426.5 1301 Q 1422 1326 1423 1377 L 1426 1668 Q 1426 1719 1409 1781 Q 1392 1843 1354 1882 Q 1316 1921 1296 1910 Q 1285 1905 1267.5 1864.5 Q 1250 1824 1245 1805 L 1229 1753 Q 1201 1661.5 1275 1708 Q 1288 1707 1295 1682 Q 1302 1657 1307 1585 L 1313 1465 L 1313 1421 L 1313 1278 Q 1313 1246 1306.5 1239.5 Q 1300 1233 1285.5 1227 Q 1271 1221 1239 1219 Q 1192 1217 1171.5 1219.5 Q 1151 1222 1063 1237 L 957 1254 Q 878 1270 867 1268 L 829 1266 Q 819.5 1209 898 1204 Z"/><path d="M 1313 1465 Q 1264 1474 1240 1478 L 1118 1499 Q 1010 1518 984 1522.5 Q 958 1527 928 1529 Q 898 1531 878 1528 L 847 1524 L 850 1469 Q 914 1459 947 1452 L 1055 1430 Q 1140 1414 1162.5 1408.5 Q 1185 1403 1200 1402 Q 1226 1401 1266 1410 L 1313 1421 L 1313 1465 Z"/><path d="M 1229 1753 Q 1148 1758 1073 1762 Q 998 1766 941.5 1771.5 Q 885 1777 876 1776 L 827 1775 L 830 1713 L 1133 1685 L 1195 1679 Q 1222 1679 1247 1694 Q 1272 1709 1275 1708 L 1229 1753 Z"/></g><g transform="translate(134.750,127.700) scale(0.002441)"><path d="M 896 546 Q 810 555 758 559 Q 706 563 655 562 Q 593 562 564.5 553 Q 536 544 516.5 525.5 Q 497 507 500.5 497 Q 504 487 538 484 L 598 480 Q 672 476 839 455 Q 1006 434 1086 419 L 1229 393 Q 1291 383 1321.5 374.5 Q 1352 366 1360 365 Q 1383 363 1428 373 Q 1473 383 1495 405 Q 1517 427 1514 437 Q 1511 445 1496 453 Q 1481 461 1449 466 L 1371 480 L 1282 493 L 1193 508 L 1061 526 L 896 546 Z"/><path d="M 943 1086 Q 899 1093 854.5 1099.5 Q 810 1106 757 1106 Q 709 1107 672 1102.5 Q 635 1098 600 1076 Q 565 1054 574.5 1042.5 Q 584 1031 618 1028 L 665 1025 L 746 1020 L 943 994 L 1062 977 L 1220 953 Q 1233 951 1280 939.5 Q 1327 928 1349 929 Q 1366 930 1394 938.5 Q 1422 947 1445 960.5 Q 1468 974 1472.5 985 Q 1477 996 1473 1005 Q 1469 1014 1442 1019 L 1382 1031 Q 1336 1041 1296 1045 L 1062 1075 L 943 1086 Z"/><path d="M 943 994 L 941 769 Q 940 754 934 696 Q 928 638 923.5 614 Q 919 590 910 573 L 896 546 L 1061 526 Q 1080 538 1093.5 547 Q 1107 556 1115 567 Q 1123 578 1124.5 589.5 Q 1126 601 1113 630 Q 1104 650 1094 686 Q 1084 722 1076.5 764.5 Q 1069 807 1068 839 L 1062 977 L 1062 1075 L 1064 1513 Q 1005 1575 954 1521 L 943 1086 L 943 994 Z"/><path d="M 1064 1513 L 1313 1495 Q 1404 1489 1449.5 1484 Q 1495 1479 1556 1466.5 Q 1617 1454 1642 1454 Q 1673 1456 1717.5 1470 Q 1762 1484 1790 1498 Q 1818 1512 1836 1531.5 Q 1854 1551 1854 1561 Q 1853 1578 1838.5 1585.5 Q 1824 1593 1785 1593 L 1679 1595 Q 1607 1597 1420 1598 Q 1233 1599 1145 1602 Q 1057 1605 864.5 1621 Q 672 1637 559 1653 L 482 1664 Q 463 1667 425 1676 Q 387 1685 370 1685 Q 341 1686 305 1673 Q 269 1660 247 1649.5 Q 225 1639 207.5 1623.5 Q 190 1608 193 1599.5 Q 196 1591 207 1584 Q 218 1577 245 1576 L 320 1574 Q 388 1573 497.5 1566.5 Q 607 1560 808 1537 L 954 1521 L 1064 1513 Z"/></g><g transform="translate(140.250,127.700) scale(0.002441)"><path d="M 962 1353 L 973 664 L 962 451 Q 960 415 953 370 Q 946 325 932.5 292.5 Q 919 260 919.5 245.5 Q 920 231 928 223.5 Q 936 216 963 220 Q 989 225 1020 235.5 Q 1051 246 1090 264 Q 1129 282 1150 302 Q 1171 322 1172.5 335.5 Q 1174 349 1168 362 L 1144 401 Q 1136 415 1122.5 465.5 Q 1109 516 1100 564.5 Q 1091 613 1089 701 L 1076 1100 L 1087 1502 L 1091 1610 Q 1090 1662 1079.5 1694.5 Q 1069 1727 1043.5 1768.5 Q 1018 1810 999.5 1820.5 Q 981 1831 973 1830 Q 961 1830 949 1816.5 Q 937 1803 906.5 1759.5 Q 876 1716 834.5 1673.5 Q 793 1631 764 1606 L 727 1575 Q 711 1563 716.5 1554 Q 722 1545 742 1550 L 803 1568 Q 859 1584 882 1587 Q 905 1590 918 1582.5 Q 931 1575 938 1560.5 Q 945 1546 952 1470 L 962 1353 Z"/><path d="M 246 1314 Q 278 1267 319 1207.5 Q 360 1148 389 1092 Q 418 1036 439 978.5 Q 460 921 466.5 894.5 Q 473 868 471.5 840 Q 470 812 476.5 806 Q 483 800 506 806 Q 522 811 556 832.5 Q 590 854 616.5 882.5 Q 643 911 632 933 Q 628 940 611.5 955 Q 595 970 588 977.5 Q 581 985 517 1082 Q 453 1179 394.5 1238 Q 336 1297 266 1343 L 239 1361 Q 219 1375 213.5 1366.5 Q 208 1358 223 1340 L 246 1314 Z"/><path d="M 1414 862 L 1389 830 Q 1380 819 1384 810 Q 1388 801 1399 804 L 1442 817 Q 1473 827 1523.5 852 Q 1574 877 1639 920 Q 1704 963 1751.5 1023 Q 1799 1083 1817.5 1138.5 Q 1836 1194 1835 1237 Q 1833 1275 1817.5 1296.5 Q 1802 1318 1781 1321.5 Q 1760 1325 1736 1307 Q 1720 1296 1695 1261 Q 1670 1226 1609.5 1134 Q 1549 1042 1514.5 992 Q 1480 942 1454 910 L 1414 862 Z"/></g><g transform="translate(145.750,127.700) scale(0.002441)"><path d="M 399 1217 L 396 1255 Q 391 1312 373.5 1311.5 Q 356 1311 343 1301 Q 330 1291 314.5 1260 Q 299 1229 297.5 1193.5 Q 296 1158 309 1089 Q 320 1030 323.5 998.5 Q 327 967 334.5 825.5 Q 342 684 342.5 651 Q 343 618 337 552 Q 332 503 325 484 Q 318 465 307 446.5 Q 296 428 299 418 Q 302 408 322 406.5 Q 342 405 351 409 L 407 432 Q 436.5 436.5 424 485 Q 425 519 426.5 556.5 Q 428 594 427 622 L 419 798 L 418 855 L 404 1153 L 399 1217 Z"/><path d="M 407 432 Q 466 421 494 415.5 Q 522 410 569 400 Q 616 390 635.5 384.5 Q 655 379 675.5 370.5 Q 696 362 705 362 Q 712 363 734 371.5 Q 756 380 776.5 393 Q 797 406 817 424 Q 837 442 841 451 Q 845 460 841 474 L 827 504 Q 822 516 820.5 536.5 Q 819 557 818 602.5 Q 817 648 814 759 Q 811 870 816 941 Q 817 976 825.5 1059 Q 834 1142 833 1167 Q 829 1212 809.5 1261.5 Q 790 1311 759 1339 Q 728 1367 713 1356 Q 706 1352 696 1320.5 Q 686 1289 666 1236 L 655 1208 Q 609 1108.5 663 1139 L 691 1155 Q 696 1137 702.5 1110.5 Q 709 1084 710 1047 L 716 822 L 716 774 L 719 568 Q 719 528 718 514.5 Q 717 501 709 487.5 Q 701 474 687.5 466.5 Q 674 459 645 458 Q 616 458 578.5 461 Q 541 464 518 468 L 424 485 L 407 432 Z"/><path d="M 716 822 Q 678 830 660 833 L 577 846 Q 510 857 484.5 859 Q 459 861 443 858 L 418 855 L 419 798 Q 439 796 464 792.5 Q 489 789 520.5 782.5 Q 552 776 579.5 769 Q 607 762 621 760 Q 652 757 674 763 L 716 774 L 716 822 Z"/><path d="M 655 1208 Q 549 1218 498.5 1223 Q 448 1228 437 1225 L 399 1217 L 404 1153 L 541 1139 L 621 1130 Q 650 1132 663 1139 L 655 1208 Z"/><path d="M 1113 1097 Q 1097 1163 1078.5 1230.5 Q 1060 1298 1011.5 1401 Q 963 1504 923 1557.5 Q 883 1611 840.5 1653 Q 798 1695 777 1706 L 746 1722 Q 731 1730 725 1724 Q 719 1718 729 1706 L 760 1669 L 791 1633 Q 815 1604 856.5 1528 Q 898 1452 931 1371 Q 964 1290 990.5 1177.5 Q 1017 1065 1028.5 988 Q 1040 911 1049.5 812.5 Q 1059 714 1061 637.5 Q 1063 561 1062 511 Q 1059 456 1053 412.5 Q 1047 369 1034.5 344 Q 1022 319 1023.5 310 Q 1025 301 1032.5 296 Q 1040 291 1058 293 Q 1072 296 1099 304.5 Q 1126 313 1136 318 L 1166 334 Q 1205 346.5 1192 399 Q 1190 416 1189 424 L 1181 477 Q 1176 511 1175 535 L 1166 733 L 1164 766 Q 1153 853 1152 863 L 1124 1062 L 1113 1097 Z"/><path d="M 1166 334 Q 1229 328 1264 323 Q 1299 318 1355 306.5 Q 1411 295 1444 286 Q 1477 277 1508 265 L 1561 243 Q 1571 239 1578 238 Q 1592 237 1616.5 249.5 Q 1641 262 1671.5 281 Q 1702 300 1727 320.5 Q 1752 341 1751 357 Q 1750 364 1745 374 L 1734 393 Q 1725 409 1717 430 Q 1709 451 1706.5 461.5 Q 1704 472 1695 577 L 1693 999 Q 1692 1155 1696 1315 Q 1700 1475 1693 1551 Q 1686 1616 1673.5 1663 Q 1661 1710 1642 1750 Q 1623 1790 1605 1801 Q 1587 1812 1576 1811 Q 1560 1811 1533 1775 Q 1506 1739 1470 1702 L 1395 1630 Q 1360 1597 1345 1586 L 1322 1570 Q 1310 1563 1314 1552.5 Q 1318 1542 1333 1545 L 1364 1553 L 1431 1573 Q 1455 1580 1492.5 1588 Q 1530 1596 1539 1590 Q 1547 1585 1555 1548.5 Q 1563 1512 1565 1495 L 1567 1423 L 1576 1110 L 1575 1072 L 1576 1051 L 1579 745 L 1576 716 L 1578 466 Q 1578 399 1567 381 Q 1556 363 1527 353 Q 1500 345 1442 355 L 1350 370 L 1261 387 L 1192 399 L 1166 334 Z"/><path d="M 1579 745 Q 1541 750 1523 752 L 1425 769 Q 1361 780 1300 783.5 Q 1239 787 1217 780 L 1164 766 L 1166 733 Q 1253 716 1308 705 Q 1363 694 1403.5 684.5 Q 1444 675 1461 674 Q 1501 673 1520 685 L 1576 716 L 1579 745 Z"/><path d="M 1575 1072 Q 1553 1078 1533.5 1082.5 Q 1514 1087 1475 1091 L 1357 1104 Q 1271 1115 1248 1115 Q 1194 1117 1161 1108 L 1113 1097 L 1124 1062 Q 1241 1045 1331.5 1027.5 Q 1422 1010 1440.5 1007 Q 1459 1004 1475 1005 Q 1511 1008 1536 1025 L 1576 1051 L 1575 1072 Z"/></g><line x1="134.750" y1="132.950" x2="184.750" y2="132.950" stroke="#000" stroke-width="0.3"/></g><g fill="#000000" stroke="none"><g transform="translate(140.900,198.350) scale(0.001709)"><path d="M 263 1419 L 255 1462 Q 248 1497 235.5 1499.5 Q 223 1502 211.5 1497 Q 200 1492 185 1464.5 Q 170 1437 162 1411.5 Q 154 1386 154 1359 Q 154 1341 166 1279 Q 178 1217 186 1167 Q 194 1117 197 1027 L 208 679 Q 208 656 201.5 617 Q 195 578 189.5 560 Q 184 542 172.5 524 Q 161 506 160 496.5 Q 159 487 166 479 Q 173 471 199 474 Q 240 479 258 487 L 285 499 Q 316.5 506 306 557 Q 308 580 308 590 L 300 652 L 289 946 L 285 1002 L 266 1358 L 263 1419 Z"/><path d="M 285 499 Q 313 494 338 488.5 Q 363 483 396.5 475 Q 430 467 451 460 Q 472 453 482 448 L 525 429 Q 535 426 545 426 Q 557 427 574.5 434.5 Q 592 442 620 460.5 Q 648 479 662 494 Q 676 509 677 520 Q 678 531 673 543 L 662 566 Q 658 575 654 600 Q 650 625 647.5 661.5 Q 645 698 645 718 L 639 944 Q 637 999 640.5 1084 Q 644 1169 650 1227 L 658 1311 Q 661 1357 658 1386 Q 653 1422 622 1487.5 Q 591 1553 558 1539 Q 547 1535 536 1520 L 503 1453 Q 418 1303.5 533 1350 Q 544 1230 545 1214 L 556 957 L 554 932 L 554 638 Q 554 559 542.5 546 Q 531 533 517 527 Q 503 521 478 521 Q 433 522 406 530 L 306 557 L 285 499 Z"/><path d="M 556 957 Q 407 1009 357 1005 L 285 1002 L 289 946 Q 342 936 385.5 922 Q 429 908 445 907 Q 459 907 494 916 L 554 932 L 556 957 Z"/><path d="M 503 1453 L 481 1406 Q 458 1408 447 1408 L 317 1417 L 263 1419 L 266 1358 Q 327 1350 377 1345.5 Q 427 1341 447.5 1338 Q 468 1335 481 1336 Q 488 1337 506 1342 L 533 1350 L 503 1453 Z"/><path d="M 1173 518 L 1062 534 Q 1049 536 1004 549 L 956 562 Q 926 571 914 571 Q 899 572 871 567 Q 843 562 826.5 554.5 Q 810 547 788 534 Q 766 521 767 513 Q 767 503 781 496 L 806 493 L 845 487 Q 869 484 941.5 474 Q 1014 464 1062 455 L 1099 448 L 1173 434 L 1293 415 L 1460 385 L 1549 368 Q 1570 368 1597.5 377 Q 1625 386 1648.5 401 Q 1672 416 1686 431 Q 1700 446 1698 460 Q 1696 474 1680 474 L 1624 476 L 1532 479 Q 1474 482 1420 486 Q 1366 490 1362 490 L 1291 499 L 1173 518 Z"/><path d="M 1291 499 L 1288 726 Q 1236 808.5 1170 751 L 1173 518 L 1173 434 L 1173 426 Q 1172 390 1172 385 L 1171 312 Q 1170 295 1168.5 285.5 Q 1167 276 1164 261 Q 1161 246 1154 220 Q 1147 194 1135.5 173 Q 1124 152 1123 140.5 Q 1122 129 1132 120 Q 1142 111 1169 112 Q 1197 114 1222 120 Q 1247 126 1267.5 134 Q 1288 142 1307.5 155.5 Q 1327 169 1330 181 Q 1333 193 1318 228 Q 1308 251 1305 277 L 1298 326 L 1293 415 L 1291 499 Z"/><path d="M 1288 726 Q 1314 721 1344.5 714.5 Q 1375 708 1422.5 695.5 Q 1470 683 1496 683 Q 1519 684 1543 691 Q 1567 698 1602 721 Q 1637 744 1630 757 Q 1623 770 1605 771 L 1565 774 L 1415 785 Q 1345 792 1263.5 807 Q 1182 822 1170 824 Q 1158 826 1147.5 828 Q 1137 830 1123 835 L 1078 852 Q 1041 866 1018 866 Q 992 867 963 857 Q 934 847 913.5 834.5 Q 893 822 892.5 814.5 Q 892 807 901 800 L 937 794 L 984 785 L 1098 766 Q 1116 763 1120 762 L 1170 751 L 1288 726 Z"/><path d="M 1473 1017 L 1654 988 Q 1734 976 1756 978 Q 1778 980 1820.5 995.5 Q 1863 1011 1881 1034.5 Q 1899 1058 1893 1070.5 Q 1887 1083 1852 1083 L 1808 1083 L 1766 1083 L 1599 1091 L 1471 1097 L 1360 1106 Q 1311 1113 1284 1117 Q 1257 1121 1171.5 1136 Q 1086 1151 1022.5 1160 Q 959 1169 934 1174 L 876 1189 Q 851 1195 834 1195 Q 801 1196 768.5 1183 Q 736 1170 716.5 1156.5 Q 697 1143 700 1133 Q 702 1125 717 1119 L 753 1116 L 822 1108 Q 877 1102 1051.5 1079 Q 1226 1056 1285 1046 L 1354 1035 L 1473 1017 Z"/><path d="M 1354 1035 L 1351 988 Q 1349 959 1341.5 934.5 Q 1334 910 1329 899 L 1317 880 Q 1313 874 1311.5 864 Q 1310 854 1318.5 848 Q 1327 842 1346 844 Q 1384 851 1422 863.5 Q 1460 876 1473 886 Q 1486 896 1489 906.5 Q 1492 917 1490 930 Q 1489 934 1481.5 955.5 Q 1474 977 1474 994 L 1473 1017 L 1471 1097 L 1477 1375 L 1479 1556 L 1482 1638 Q 1482 1709 1471 1769 Q 1459 1829 1437.5 1865 Q 1416 1901 1380.5 1923.5 Q 1345 1946 1326 1936 Q 1316 1932 1295 1903 Q 1274 1874 1241.5 1837 Q 1209 1800 1185 1778 L 1137 1738 L 1115 1719 Q 1109 1715 1114 1707 Q 1119 1699 1126 1700 L 1151 1706 Q 1162 1709 1207.5 1722 Q 1253 1735 1278.5 1739 Q 1304 1743 1317 1738 Q 1342 1729 1347.5 1670.5 Q 1353 1612 1357.5 1511.5 Q 1362 1411 1362 1364 L 1360 1106 L 1354 1035 Z"/><path d="M 901 1280 L 934 1286 Q 952 1290 990 1305 Q 1028 1320 1052 1337.5 Q 1076 1355 1087 1376 Q 1098 1397 1098 1428 Q 1097 1451 1084 1476.5 Q 1071 1502 1042 1500 Q 1028 1500 1010.5 1486 Q 993 1472 957 1423 Q 921 1374 890 1325 L 881 1311 Q 872 1299 878 1288 Q 884 1277 901 1280 Z"/></g><g transform="translate(144.800,198.350) scale(0.001709)"><path d="M 263 1419 L 255 1462 Q 248 1497 235.5 1499.5 Q 223 1502 211.5 1497 Q 200 1492 185 1464.5 Q 170 1437 162 1411.5 Q 154 1386 154 1359 Q 154 1341 166 1279 Q 178 1217 186 1167 Q 194 1117 197 1027 L 208 679 Q 208 656 201.5 617 Q 195 578 189.5 560 Q 184 542 172.5 524 Q 161 506 160 496.5 Q 159 487 166 479 Q 173 471 199 474 Q 240 479 258 487 L 285 499 Q 316.5 506 306 557 Q 308 580 308 590 L 300 652 L 289 946 L 285 1002 L 266 1358 L 263 1419 Z"/><path d="M 285 499 Q 313 494 338 488.5 Q 363 483 396.5 475 Q 430 467 451 460 Q 472 453 482 448 L 525 429 Q 535 426 545 426 Q 557 427 574.5 434.5 Q 592 442 620 460.5 Q 648 479 662 494 Q 676 509 677 520 Q 678 531 673 543 L 662 566 Q 658 575 654 600 Q 650 625 647.5 661.5 Q 645 698 645 718 L 639 944 Q 637 999 640.5 1084 Q 644 1169 650 1227 L 658 1311 Q 661 1357 658 1386 Q 653 1422 622 1487.5 Q 591 1553 558 1539 Q 547 1535 536 1520 L 503 1453 Q 418 1303.5 533 1350 Q 544 1230 545 1214 L 556 957 L 554 932 L 554 638 Q 554 559 542.5 546 Q 531 533 517 527 Q 503 521 478 521 Q 433 522 406 530 L 306 557 L 285 499 Z"/><path d="M 556 957 Q 407 1009 357 1005 L 285 1002 L 289 946 Q 342 936 385.5 922 Q 429 908 445 907 Q 459 907 494 916 L 554 932 L 556 957 Z"/><path d="M 503 1453 L 481 1406 Q 458 1408 447 1408 L 317 1417 L 263 1419 L 266 1358 Q 327 1350 377 1345.5 Q 427 1341 447.5 1338 Q 468 1335 481 1336 Q 488 1337 506 1342 L 533 1350 L 503 1453 Z"/><path d="M 1173 518 L 1062 534 Q 1049 536 1004 549 L 956 562 Q 926 571 914 571 Q 899 572 871 567 Q 843 562 826.5 554.5 Q 810 547 788 534 Q 766 521 767 513 Q 767 503 781 496 L 806 493 L 845 487 Q 869 484 941.5 474 Q 1014 464 1062 455 L 1099 448 L 1173 434 L 1293 415 L 1460 385 L 1549 368 Q 1570 368 1597.5 377 Q 1625 386 1648.5 401 Q 1672 416 1686 431 Q 1700 446 1698 460 Q 1696 474 1680 474 L 1624 476 L 1532 479 Q 1474 482 1420 486 Q 1366 490 1362 490 L 1291 499 L 1173 518 Z"/><path d="M 1291 499 L 1288 726 Q 1236 808.5 1170 751 L 1173 518 L 1173 434 L 1173 426 Q 1172 390 1172 385 L 1171 312 Q 1170 295 1168.5 285.5 Q 1167 276 1164 261 Q 1161 246 1154 220 Q 1147 194 1135.5 173 Q 1124 152 1123 140.5 Q 1122 129 1132 120 Q 1142 111 1169 112 Q 1197 114 1222 120 Q 1247 126 1267.5 134 Q 1288 142 1307.5 155.5 Q 1327 169 1330 181 Q 1333 193 1318 228 Q 1308 251 1305 277 L 1298 326 L 1293 415 L 1291 499 Z"/><path d="M 1288 726 Q 1314 721 1344.5 714.5 Q 1375 708 1422.5 695.5 Q 1470 683 1496 683 Q 1519 684 1543 691 Q 1567 698 1602 721 Q 1637 744 1630 757 Q 1623 770 1605 771 L 1565 774 L 1415 785 Q 1345 792 1263.5 807 Q 1182 822 1170 824 Q 1158 826 1147.5 828 Q 1137 830 1123 835 L 1078 852 Q 1041 866 1018 866 Q 992 867 963 857 Q 934 847 913.5 834.5 Q 893 822 892.5 814.5 Q 892 807 901 800 L 937 794 L 984 785 L 1098 766 Q 1116 763 1120 762 L 1170 751 L 1288 726 Z"/><path d="M 1473 1017 L 1654 988 Q 1734 976 1756 978 Q 1778 980 1820.5 995.5 Q 1863 1011 1881 1034.5 Q 1899 1058 1893 1070.5 Q 1887 1083 1852 1083 L 1808 1083 L 1766 1083 L 1599 1091 L 1471 1097 L 1360 1106 Q 1311 1113 1284 1117 Q 1257 1121 1171.5 1136 Q 1086 1151 1022.5 1160 Q 959 1169 934 1174 L 876 1189 Q 851 1195 834 1195 Q 801 1196 768.5 1183 Q 736 1170 716.5 1156.5 Q 697 1143 700 1133 Q 702 1125 717 1119 L 753 1116 L 822 1108 Q 877 1102 1051.5 1079 Q 1226 1056 1285 1046 L 1354 1035 L 1473 1017 Z"/><path d="M 1354 1035 L 1351 988 Q 1349 959 1341.5 934.5 Q 1334 910 1329 899 L 1317 880 Q 1313 874 1311.5 864 Q 1310 854 1318.5 848 Q 1327 842 1346 844 Q 1384 851 1422 863.5 Q 1460 876 1473 886 Q 1486 896 1489 906.5 Q 1492 917 1490 930 Q 1489 934 1481.5 955.5 Q 1474 977 1474 994 L 1473 1017 L 1471 1097 L 1477 1375 L 1479 1556 L 1482 1638 Q 1482 1709 1471 1769 Q 1459 1829 1437.5 1865 Q 1416 1901 1380.5 1923.5 Q 1345 1946 1326 1936 Q 1316 1932 1295 1903 Q 1274 1874 1241.5 1837 Q 1209 1800 1185 1778 L 1137 1738 L 1115 1719 Q 1109 1715 1114 1707 Q 1119 1699 1126 1700 L 1151 1706 Q 1162 1709 1207.5 1722 Q 1253 1735 1278.5 1739 Q 1304 1743 1317 1738 Q 1342 1729 1347.5 1670.5 Q 1353 1612 1357.5 1511.5 Q 1362 1411 1362 1364 L 1360 1106 L 1354 1035 Z"/><path d="M 901 1280 L 934 1286 Q 952 1290 990 1305 Q 1028 1320 1052 1337.5 Q 1076 1355 1087 1376 Q 1098 1397 1098 1428 Q 1097 1451 1084 1476.5 Q 1071 1502 1042 1500 Q 1028 1500 1010.5 1486 Q 993 1472 957 1423 Q 921 1374 890 1325 L 881 1311 Q 872 1299 878 1288 Q 884 1277 901 1280 Z"/></g><g transform="translate(148.700,198.350) scale(0.001709)"><path d="M 545 750 L 435 765 Q 397 771 374.5 772 Q 352 773 324 770 Q 296 767 277.5 763.5 Q 259 760 241.5 748.5 Q 224 737 227.5 726 Q 231 715 248 713 L 292 708 Q 317 706 387.5 695.5 Q 458 685 480 679 L 546 664 L 643 644 Q 674 635 703.5 624.5 Q 733 614 748 612 Q 771 610 790 614.5 Q 809 619 822 624 Q 835 629 852 639 Q 869 649 869.5 659 Q 870 669 862 678 Q 852 688 808 698.5 Q 764 709 738 715 Q 712 721 688 724 L 639 732 L 545 750 Z"/><path d="M 546 664 L 547 513 Q 547 460 540 393 Q 533 326 527 294 Q 521 262 509.5 233.5 Q 498 205 496.5 186 Q 495 167 506 160 Q 517 153 530 152 Q 555 151 585 163 Q 615 175 650.5 195.5 Q 686 216 698 234 Q 710 252 710.5 264.5 Q 711 277 701 297 L 687 323 Q 678 342 671 368.5 Q 664 395 661.5 411.5 Q 659 428 651.5 496 Q 644 564 644 584 L 643 644 L 639 732 L 634 959 L 635 1037 L 629 1268 Q 628 1288 633 1357 L 638 1468 Q 639 1510 639.5 1537 Q 640 1564 635 1596 Q 629 1633 614.5 1668 Q 600 1703 581.5 1727 Q 563 1751 550.5 1757 Q 538 1763 527 1760 Q 514 1758 501 1739 L 480 1707 Q 470 1694 429 1649.5 Q 388 1605 379 1596 L 324 1549 Q 308 1536 315.5 1526.5 Q 323 1517 338 1521 L 426 1546 L 459 1556 Q 486 1563 499 1554 Q 509 1547 512.5 1531.5 Q 516 1516 518 1484 L 536 1113 L 544 1014 L 545 750 L 546 664 Z"/><path d="M 634 959 L 771 875 Q 785 866 795 876 Q 805 886 785 904 L 635 1037 L 536 1113 L 409 1219 Q 368 1253 343.5 1275 Q 319 1297 301.5 1315.5 Q 284 1334 271 1350.5 Q 258 1367 250.5 1369.5 Q 243 1372 232 1370 Q 215 1369 201 1362.5 Q 187 1356 154 1333 Q 121 1310 107.5 1290 Q 94 1270 96 1259 Q 97 1253 102 1249 Q 107 1245 126 1243 Q 145 1241 175.5 1229 Q 206 1217 228 1203 L 544 1014 L 634 959 Z"/><path d="M 1279 727 L 1283 430 Q 1283 373 1281.5 339 Q 1280 305 1263.5 275 Q 1247 245 1242.5 230 Q 1238 215 1248 207 Q 1258 199 1277 200 Q 1295 202 1320.5 208.5 Q 1346 215 1369.5 223 Q 1393 231 1403.5 242.5 Q 1414 254 1415 267 Q 1416 280 1400 322 Q 1391 344 1385 396.5 Q 1379 449 1379 504 L 1377 832 Q 1376 926 1373 970 Q 1370 1014 1366.5 1038 Q 1363 1062 1352 1090.5 Q 1341 1119 1327 1117 Q 1318 1117 1303 1100.5 Q 1288 1084 1278.5 1066 Q 1269 1048 1261 1022 Q 1253 996 1255 970 Q 1255 965 1261 931.5 Q 1267 898 1272.5 832 Q 1278 766 1279 727 Z"/><path d="M 878 1098 L 852 1120 Q 835 1135 826.5 1127.5 Q 818 1120 833 1096 L 855 1061 Q 874 1031 902.5 972.5 Q 931 914 950 868 Q 969 822 980 787 Q 991 752 997 719.5 Q 1003 687 999 667.5 Q 995 648 996 638.5 Q 997 629 1005 626 Q 1013 623 1023 624 Q 1039 627 1057.5 633 Q 1076 639 1104 654.5 Q 1132 670 1148 690.5 Q 1164 711 1160 724 Q 1158 730 1136 756 Q 1114 782 1108 790.5 Q 1102 799 1080.5 838 Q 1059 877 1039 908 Q 1019 939 990 975 Q 961 1011 927.5 1047.5 Q 894 1084 878 1098 Z"/><path d="M 1575 632 Q 1563 624 1562.5 611.5 Q 1562 599 1582 602 L 1624 610 Q 1646 615 1678 623.5 Q 1710 632 1771.5 653.5 Q 1833 675 1873 700.5 Q 1913 726 1930.5 751 Q 1948 776 1951 817 Q 1954 858 1938 877.5 Q 1922 897 1901.5 901 Q 1881 905 1852 885 Q 1835 874 1804.5 839 Q 1774 804 1725 756.5 Q 1676 709 1654 692 L 1575 632 Z"/><path d="M 768 1872 L 806 1850 Q 829 1837 877 1802.5 Q 925 1768 994.5 1711 Q 1064 1654 1153 1570.5 Q 1242 1487 1305.5 1414.5 Q 1369 1342 1423.5 1264 Q 1478 1186 1502.5 1141.5 Q 1527 1097 1551 1044 Q 1575 991 1576 947 Q 1577 903 1585 889 Q 1593 875 1610 874 Q 1619 874 1645 891 Q 1671 908 1690.5 922 Q 1710 936 1732.5 961 Q 1755 986 1753 1003 Q 1751 1015 1729 1037 Q 1707 1059 1686.5 1085.5 Q 1666 1112 1626 1171 Q 1586 1230 1560 1266.5 Q 1534 1303 1474.5 1377.5 Q 1415 1452 1353 1517 Q 1291 1582 1223 1638.5 Q 1155 1695 1112 1725.5 Q 1069 1756 998.5 1798 Q 928 1840 890.5 1857 Q 853 1874 821 1883 L 773 1897 Q 759 1901 755.5 1891 Q 752 1881 768 1872 Z"/></g><g transform="translate(152.600,198.350) scale(0.001709)"><path d="M 522 915 Q 477 924 460.5 928 Q 444 932 392 947.5 Q 340 963 324.5 970 Q 309 977 290 988 Q 271 999 263 998 Q 248 998 236.5 984.5 Q 225 971 215 949 Q 205 927 200 908 Q 195 889 200 879 Q 203 872 222.5 859 Q 242 846 256 835 Q 270 824 305 786 Q 340 748 377.5 687.5 Q 415 627 453 554 Q 491 481 504 448 Q 517 415 526.5 379.5 Q 536 344 536.5 322.5 Q 537 301 542 293.5 Q 547 286 556.5 283.5 Q 566 281 585 292 Q 619 313 638.5 326.5 Q 658 340 673.5 362 Q 689 384 686 400 Q 683 410 666 427 Q 649 444 635.5 459.5 Q 622 475 601.5 502 Q 581 529 523 609.5 Q 465 690 461 696 L 376 808 Q 355 836 348 849.5 Q 341 863 346.5 872.5 Q 352 882 389 879 L 556 866 Q 596 893.5 522 915 Z"/><path d="M 556 866 L 633 747 Q 652 718 667.5 679 Q 683 640 685 618 Q 687 596 692 588 Q 697 580 707 578.5 Q 717 577 732 585 Q 744 593 760 609 Q 776 625 789 645.5 Q 802 666 810 687 Q 818 708 808 723 Q 805 727 789 738.5 Q 773 750 751 775 L 708 822 Q 697 835 660 884.5 Q 623 934 552 1018 L 417 1178 Q 391 1209 393.5 1215 Q 396 1221 411 1224 L 482 1201 L 656 1149 Q 692.5 1155 679 1191 L 482 1262 Q 457 1271 423.5 1287.5 Q 390 1304 372.5 1313.5 Q 355 1323 339.5 1335.5 Q 324 1348 316 1347 Q 309 1347 301 1342 Q 293 1337 281 1322.5 Q 269 1308 261 1294.5 Q 253 1281 247 1261.5 Q 241 1242 246 1232 Q 249 1225 275.5 1211 Q 302 1197 326.5 1168.5 Q 351 1140 400 1079.5 Q 449 1019 458 1006 L 522 915 L 556 866 Z"/><path d="M 656 1149 Q 640 1118 629.5 1099.5 Q 619 1081 614.5 1069.5 Q 610 1058 613.5 1053.5 Q 617 1049 632 1050 Q 651 1052 677 1061 Q 703 1070 729.5 1085.5 Q 756 1101 775.5 1125 Q 795 1149 800.5 1183.5 Q 806 1218 794 1242 Q 785 1259 769.5 1266.5 Q 754 1274 740 1267 Q 731 1264 720 1248 L 701 1221 L 679 1191 L 656 1149 Z"/><path d="M 132 1480 L 159 1491 Q 169 1496 199.5 1516.5 Q 230 1537 248.5 1551.5 Q 267 1566 282 1590 Q 297 1614 302 1637.5 Q 307 1661 305 1689 Q 302 1722 293.5 1736.5 Q 285 1751 274 1758.5 Q 263 1766 249 1765 Q 232 1764 220 1751.5 Q 208 1739 193 1708 Q 178 1677 172 1660 L 146 1595 Q 129 1553 125 1539 L 113 1499 Q 110 1487 114 1481 Q 118 1475 132 1480 Z"/><path d="M 378 1452 L 369 1430 Q 365 1421 368.5 1415.5 Q 372 1410 385 1413 L 413 1422 Q 437 1430 455 1437 Q 473 1444 496.5 1459 Q 520 1474 531 1487 Q 542 1500 547.5 1519 Q 553 1538 548 1563 Q 543 1586 531.5 1597.5 Q 520 1609 502.5 1610.5 Q 485 1612 465 1595 Q 450 1584 436.5 1563 Q 423 1542 409 1514 Q 395 1486 387.5 1472.5 Q 380 1459 378 1452 Z"/><path d="M 599 1363 L 590 1343 Q 585 1334 588.5 1328.5 Q 592 1323 604 1326 L 630 1334 Q 651 1341 669 1348 Q 687 1355 708.5 1368 Q 730 1381 742 1395 Q 754 1409 759 1430.5 Q 764 1452 758 1472 Q 753 1488 742.5 1498.5 Q 732 1509 716 1511 Q 700 1513 681 1497 Q 668 1488 652 1463 Q 636 1438 629 1423 L 613 1390 L 599 1363 Z"/><path d="M 1081 444 Q 1201 422 1274 406.5 Q 1347 391 1401.5 372.5 Q 1456 354 1477 353 Q 1497 353 1520.5 359.5 Q 1544 366 1564.5 378.5 Q 1585 391 1595 403 Q 1605 415 1605 425 Q 1604 441 1562.5 454 Q 1521 467 1452 480.5 Q 1383 494 1318.5 503 Q 1254 512 1169 523.5 Q 1084 535 1061 533 Q 1021 532 989 518.5 Q 957 505 944.5 491.5 Q 932 478 935.5 471 Q 939 464 953 462 L 1081 444 Z"/><path d="M 921 995 Q 923 1003 938 1015 Q 953 1027 981 1042 Q 1009 1057 1045 1081.5 Q 1081 1106 1092 1125 Q 1103 1144 1103.5 1173 Q 1104 1202 1093 1221 Q 1082 1240 1063 1241.5 Q 1044 1243 1015 1206 Q 995 1182 974.5 1158 Q 954 1134 931 1108.5 Q 908 1083 881 1056.5 Q 854 1030 853.5 1018 Q 853 1006 869 976 Q 879 957 893 917 L 913 859 Q 933 798 941.5 763 Q 950 728 953 698.5 Q 956 669 965 662 Q 974 655 992 658 Q 1004 661 1031 680.5 Q 1058 700 1072.5 715.5 Q 1087 731 1086 746 Q 1085 757 1065 777 Q 1045 797 1025 827 L 992 875 L 945 944 Q 929 967 924.5 980 Q 920 993 921 995 Z"/><path d="M 1203 951 Q 1204 956 1225 969.5 Q 1246 983 1276.5 997.5 Q 1307 1012 1341 1029.5 Q 1375 1047 1386 1064 Q 1397 1081 1397.5 1110.5 Q 1398 1140 1387 1159.5 Q 1376 1179 1359.5 1179.5 Q 1343 1180 1319 1154 Q 1264 1097 1245 1077.5 Q 1226 1058 1194.5 1032 Q 1163 1006 1150.5 994 Q 1138 982 1137.5 969.5 Q 1137 957 1153 927 Q 1159 915 1178 867 L 1197 820 Q 1217 768 1224.5 735.5 Q 1232 703 1236 670 Q 1240 637 1249 630.5 Q 1258 624 1276 627 Q 1291 631 1311 645 Q 1331 659 1351 678.5 Q 1371 698 1371 711 Q 1370 722 1348.5 742 Q 1327 762 1292 808.5 Q 1257 855 1240 876 Q 1223 897 1211.5 920 Q 1200 943 1203 951 Z"/><path d="M 1514 909 Q 1515 916 1539 929.5 Q 1563 943 1604.5 956.5 Q 1646 970 1676 984.5 Q 1706 999 1724.5 1018.5 Q 1743 1038 1748.5 1072.5 Q 1754 1107 1739 1126 Q 1724 1145 1704 1144 Q 1687 1144 1666 1122.5 Q 1645 1101 1604.5 1062.5 Q 1564 1024 1546 1011 L 1472 961 Q 1450 943 1448 928.5 Q 1446 914 1462 886 Q 1478 857 1491 832 Q 1504 807 1520.5 762 Q 1537 717 1543.5 686.5 Q 1550 656 1554.5 620.5 Q 1559 585 1568.5 578.5 Q 1578 572 1595 575 Q 1609 578 1632.5 595 Q 1656 612 1673.5 631.5 Q 1691 651 1689 666 Q 1687 676 1666 698 Q 1645 720 1630 738 Q 1615 756 1581.5 802.5 Q 1548 849 1530.5 878 Q 1513 907 1514 909 Z"/><path d="M 1195 1362 L 1034 1373 Q 1007 1375 980 1369.5 Q 953 1364 937.5 1349.5 Q 922 1335 923 1325 Q 924 1314 965 1308 L 1052 1298 L 1304 1263 Q 1366 1255 1428.5 1239 Q 1491 1223 1513 1223 Q 1524 1224 1567 1231.5 Q 1610 1239 1624.5 1249.5 Q 1639 1260 1638 1269 Q 1637 1278 1623.5 1287.5 Q 1610 1297 1581 1301 L 1316 1342 L 1195 1362 Z"/><path d="M 1227 1627 Q 1225 1548 1222.5 1492.5 Q 1220 1437 1213 1416 L 1195 1362 L 1316 1342 Q 1333 1354 1340 1364 Q 1347 1374 1347.5 1388 Q 1348 1402 1339.5 1433 Q 1331 1464 1329 1491 L 1318 1619 Q 1271.5 1671 1227 1627 Z"/><path d="M 1318 1619 L 1575 1591 Q 1653 1583 1707.5 1572 Q 1762 1561 1784 1562 Q 1806 1565 1834.5 1576.5 Q 1863 1588 1885 1601 Q 1907 1614 1922 1631.5 Q 1937 1649 1934 1658.5 Q 1931 1668 1922 1674 Q 1910 1682 1894 1681 Q 1878 1680 1816 1680 L 1641 1674 Q 1606 1674 1489 1680 L 1296 1689 Q 1194 1696 1118 1706.5 Q 1042 1717 983.5 1729.5 Q 925 1742 885 1753.5 Q 845 1765 827 1764 Q 808 1764 783.5 1756.5 Q 759 1749 747.5 1743 Q 736 1737 707 1720 Q 678 1703 677 1688 Q 676 1673 696 1672 L 755 1670 Q 770 1670 826 1666 Q 882 1662 904 1660 L 1069 1642 L 1227 1627 L 1318 1619 Z"/></g></g></svg>