<svg xmlns="http://www.w3.org/2000/svg" viewBox="0 0 297.000 210.000" width="297.000mm" height="210.000mm"><g fill="#000000" stroke="none"><g transform="translate(132.500,32.800) scale(0.004883)"><path d="M 889 1291 Q 884 1315 876 1333 Q 868 1351 853 1355 Q 838 1359 817 1332 Q 802 1314 797.5 1283 Q 793 1252 788 1179 Q 783 1106 782 1094 L 747 709 Q 741 653 737.5 632 Q 734 611 720.5 575.5 Q 707 540 692 518 Q 677 496 675 482.5 Q 673 469 683 459 Q 686 456 743 464 L 803 477 Q 831.5 499.5 830 542 L 887 1216 L 889 1291 Z"/><path d="M 803 477 L 1359 405 Q 1371 404 1443 392.5 Q 1515 381 1554.5 369.5 Q 1594 358 1608 358 Q 1631 359 1659 371.5 Q 1687 384 1719 402.5 Q 1751 421 1767.5 439 Q 1784 457 1785 468.5 Q 1786 480 1769 514 Q 1755 541 1749 584 Q 1743 627 1736.5 732 Q 1730 837 1726 887 L 1706 1099 Q 1696 1206 1683 1250 Q 1670 1294 1650.5 1329.5 Q 1631 1365 1609 1383 Q 1587 1401 1574 1399 Q 1561 1398 1550 1385 Q 1539 1372 1522 1332 L 1497 1282 L 1479 1243 Q 1434.5 1168.5 1480 1144 Q 1511 1144 1529 1157 L 1569 1183 Q 1578 1136 1585.5 1092.5 Q 1593 1049 1603 882 Q 1613 715 1614 687 Q 1615 659 1617 569.5 Q 1619 480 1606.5 469 Q 1594 458 1568 454.5 Q 1542 451 1477 459 L 830 542 L 803 477 Z"/><path d="M 1108 1006 Q 1102 1029 1091.5 1037.5 Q 1081 1046 1067 1040 Q 1056 1037 1048.5 1022 Q 1041 1007 1036 971 L 1017 853 Q 1013 830 1004.5 802 Q 996 774 982 762 Q 968 750 965.5 742.5 Q 963 735 973 724 L 1014 724 L 1076 729 Q 1093.5 747.5 1091 776 L 1103 946 L 1108 1006 Z"/><path d="M 1076 729 Q 1139 718 1173.5 710 Q 1208 702 1236.5 692.5 Q 1265 683 1290.5 672 Q 1316 661 1326 659 Q 1345 657 1384 676 Q 1423 695 1437 708.5 Q 1451 722 1451.5 731.5 Q 1452 741 1438 761 Q 1423 781 1413 802 Q 1403 823 1395 853 L 1373 931 Q 1310 1011.5 1297 922 L 1314 793 Q 1318 759 1316 752 Q 1314 745 1305.5 739.5 Q 1297 734 1233 747 L 1091 776 L 1076 729 Z"/><path d="M 1373 931 Q 1386 942 1395 952.5 Q 1404 963 1401.5 971 Q 1399 979 1386 983 L 1326 983 L 1108 1006 L 1103 946 L 1297 922 L 1373 931 Z"/><path d="M 1479 1243 L 889 1291 L 887 1216 L 1341 1164 Q 1408 1157 1438.5 1151 Q 1469 1145 1480 1144 Q 1511 1144 1529 1157 L 1569 1183 L 1479 1243 Z"/><path d="M 246 339 L 224 304 Q 215 291 217 286 Q 219 281 224.5 279 Q 230 277 238 278 L 270 284 Q 281 287 324 300.5 Q 367 314 380.5 319 Q 394 324 420.5 338.5 Q 447 353 458 368 Q 469 383 473.5 403.5 Q 478 424 478 440 Q 477 457 470 479 Q 463 501 448.5 514 Q 434 527 419 529.5 Q 404 532 377 506 Q 359 490 324.5 445 Q 290 400 272 376.5 Q 254 353 246 339 Z"/><path d="M 351 1081 Q 348 1075 348.5 1067.5 Q 349 1060 356 1041 L 403 915 L 416 883 Q 420 867 415 861.5 Q 410 856 395 859 Q 388 861 374 866 L 299 888 Q 269 897 254.5 900 Q 240 903 209 900 Q 183 899 168 894 Q 153 889 142.5 880.5 Q 132 872 133 866 Q 133 861 137 858 Q 141 855 166 848 L 203 838 Q 232 830 274.5 814.5 Q 317 799 350.5 783 Q 384 767 416.5 747.5 Q 449 728 459 726 Q 473 725 492.5 734 Q 512 743 537.5 760 Q 563 777 580.5 795 Q 598 813 597 827 Q 595 838 578 854 L 546 883 Q 532 897 515 918 L 439 1013 Q 431 1022 418.5 1041 Q 406 1060 407 1067 Q 379 1114 351 1081 Z"/><path d="M 491 1384 Q 491 1359 490 1327 Q 489 1295 475.5 1256 Q 462 1217 446.5 1192.5 Q 431 1168 411.5 1142 Q 392 1116 373 1101.5 Q 354 1087 351 1081 L 407 1067 Q 407 1077 426 1090 L 477 1122 Q 512 1146 535.5 1181.5 Q 559 1217 563 1264 Q 565 1298 558 1334 L 548 1387 Q 464.5 1440.5 491 1384 Z"/><path d="M 548 1387 Q 568 1389 589.5 1392 Q 611 1395 658.5 1407.5 Q 706 1420 802 1449 Q 898 1478 972 1498 Q 1046 1518 1140 1535.5 Q 1234 1553 1327 1561.5 Q 1420 1570 1529.5 1573 Q 1639 1576 1729.5 1576 Q 1820 1576 1840 1576 L 1931 1577 Q 1957 1578 1962.5 1589.5 Q 1968 1601 1943 1613 L 1889 1639 Q 1864 1651 1827.5 1663.5 Q 1791 1676 1691.5 1711 Q 1592 1746 1548.5 1759 Q 1505 1772 1475 1772 Q 1434 1773 1365.5 1750 Q 1297 1727 1154.5 1672 Q 1012 1617 975 1602 L 790 1534 Q 713 1506 671 1493.5 Q 629 1481 580.5 1473.5 Q 532 1466 486 1466 Q 427 1467 372 1476 Q 317 1485 290 1492 Q 263 1499 239 1510.5 Q 215 1522 206 1522 Q 192 1523 176 1514 Q 160 1505 139.5 1488 Q 119 1471 109 1458 Q 99 1445 92.5 1431.5 Q 86 1418 87.5 1409 Q 89 1400 104 1395 Q 111 1393 128 1396.5 Q 145 1400 174.5 1402 Q 204 1404 223 1403 Q 246 1403 287 1399 L 359 1392 Q 405 1388 421 1387 L 465 1385 L 491 1384 L 548 1387 Z"/></g><g transform="translate(143.500,32.800) scale(0.004883)"><path d="M 551 787 Q 607 721 639 680 Q 671 639 714.5 578.5 Q 758 518 798.5 458 Q 839 398 852 371.5 Q 865 345 881 305 Q 897 265 899 241 Q 901 217 905.5 212.5 Q 910 208 917 205 Q 924 202 936 202 Q 955 203 995 219 Q 1035 235 1061.5 249 Q 1088 263 1107 282.5 Q 1126 302 1127 311.5 Q 1128 321 1127 326 Q 1124 335 1118.5 340.5 Q 1113 346 1084 364 Q 1055 382 1036.5 397 Q 1018 412 1005 424.5 Q 992 437 963.5 465.5 Q 935 494 827.5 598.5 Q 720 703 707 713 L 620 785 Q 530.5 861 551 787 Z"/><path d="M 457 874 L 474 1526 L 479 1589 Q 480 1623 472 1655 Q 464 1685 449 1708 Q 434 1731 421 1731.5 Q 408 1732 390 1708 Q 376 1691 361 1660 Q 346 1629 345 1611 Q 344 1593 349.5 1556 Q 355 1519 356 1470 L 358 1342 Q 359 1242 351 1132 L 342 1028 Q 337 975 334 952 Q 331 929 324.5 906 Q 318 883 306 854 Q 294 825 284 805 Q 274 785 277 775 Q 280 765 298 761 Q 306 760 325 763 L 352 768 Q 382 775 409 786 L 442 800 Q 457.5 830 457 874 Z"/><path d="M 620 785 Q 803 758 916 742.5 Q 1029 727 1156.5 714.5 Q 1284 702 1318.5 697 Q 1353 692 1396 684.5 Q 1439 677 1476 668.5 Q 1513 660 1534 653 Q 1555 646 1563 645 Q 1585 643 1616.5 657.5 Q 1648 672 1676 689 L 1720 718 Q 1757 743 1764.5 757 Q 1772 771 1772 785 Q 1771 799 1752 836.5 Q 1733 874 1726 910 Q 1719 946 1711 1037 L 1693 1210 L 1673 1445 Q 1663 1530 1645.5 1593 Q 1628 1656 1592.5 1715.5 Q 1557 1775 1524.5 1804 Q 1492 1833 1474 1839.5 Q 1456 1846 1442 1846 Q 1421 1847 1405.5 1837 Q 1390 1827 1372 1792 Q 1354 1757 1341.5 1736.5 Q 1329 1716 1297 1670 Q 1265 1624 1248 1606 L 1231 1589 Q 1213 1572 1222.5 1564 Q 1232 1556 1244 1561 L 1275 1574 Q 1300 1585 1346 1596.5 Q 1392 1608 1419 1606 Q 1441 1606 1455.5 1597 Q 1470 1588 1485.5 1556 Q 1501 1524 1510.5 1468.5 Q 1520 1413 1530 1326 Q 1540 1239 1544.5 1187.5 Q 1549 1136 1553.5 1034.5 Q 1558 933 1561 885 Q 1564 837 1556 809 Q 1548 781 1531 769 Q 1514 757 1452 761 Q 1441 762 1397 763 Q 1353 764 1291 769 L 1185 778 L 1047 789 Q 993 794 879.5 806.5 Q 766 819 714.5 827 Q 663 835 540 858 L 457 874 L 442 800 Q 479 795 485 794 L 551 787 L 620 785 Z"/><path d="M 822 1423 Q 816 1446 813 1464.5 Q 810 1483 804.5 1488.5 Q 799 1494 796.5 1494.5 Q 794 1495 791 1494 Q 782 1493 772.5 1488 Q 763 1483 754 1465.5 Q 745 1448 743 1424 L 717 1199 Q 713 1172 706 1143 Q 699 1114 692.5 1095 Q 686 1076 679 1067 L 663 1050 Q 653 1034 659 1027 Q 665 1020 686 1021 Q 698 1022 714.5 1024.5 Q 731 1027 746 1032 L 803 1052 Q 811.5 1073.5 808 1101 L 818 1351 L 822 1423 Z"/><path d="M 803 1052 Q 903 1032 954 1020.5 Q 1005 1009 1036 1001 Q 1067 993 1088 984 Q 1109 975 1116 973 Q 1136 970 1178 990 Q 1220 1010 1247 1034.5 Q 1274 1059 1272 1075 Q 1270 1083 1255 1102 Q 1240 1121 1230.5 1137.5 Q 1221 1154 1212 1174.5 Q 1203 1195 1198 1218 L 1167 1339 Q 1088 1385 1053 1319 L 1080 1158 Q 1088 1107 1087 1094.5 Q 1086 1082 1079 1074.5 Q 1072 1067 1060 1063 Q 1048 1059 1038 1058 Q 1021 1057 947.5 1073 Q 874 1089 867 1090 L 808 1101 L 803 1052 Z"/><path d="M 1167 1339 Q 1177 1351 1187 1364 Q 1197 1377 1194 1385 Q 1190 1394 1179 1396 L 1154 1396 L 822 1423 L 818 1351 L 1053 1319 L 1167 1339 Z"/></g><g transform="translate(154.500,32.800) scale(0.004883)"><path d="M 918 600 Q 898 588 886.5 579 Q 875 570 850.5 542.5 Q 826 515 788 448 Q 750 381 731 344 L 715 314 Q 710 307 719.5 298.5 Q 729 290 740 292 L 776 300 Q 793 304 853 331.5 Q 913 359 937.5 377 Q 962 395 978.5 425.5 Q 995 456 996 492 Q 996 527 987 551 L 973 590 Q 951.5 627 918 600 Z"/><path d="M 1109 659 Q 994 669 947 675 Q 900 681 731.5 708.5 Q 563 736 497.5 754 Q 432 772 410 773 Q 371 776 342.5 766 Q 314 756 287.5 741.5 Q 261 727 257.5 713.5 Q 254 700 262 692 Q 266 689 284 687 L 328 681 L 356 679 Q 414 675 553 653.5 Q 692 632 838 611 L 918 600 L 973 590 L 1254 548 Q 1328 537 1371 525 Q 1414 513 1430 513 Q 1444 514 1499 528 Q 1554 542 1578.5 565.5 Q 1603 589 1604.5 601.5 Q 1606 614 1593 624 Q 1584 631 1564.5 631.5 Q 1545 632 1514.5 634 Q 1484 636 1409 636.5 Q 1334 637 1310 639 L 1185 651 L 1109 659 Z"/><path d="M 940 1176 Q 972 1134 998.5 1094.5 Q 1025 1055 1058 977.5 Q 1091 900 1109 826 Q 1127 752 1119 715 L 1109 659 L 1185 651 Q 1214 668 1249 689.5 Q 1284 711 1292 733.5 Q 1300 756 1298.5 764.5 Q 1297 773 1290 784 L 1274 807 Q 1262 825 1246 862 L 1205 956 Q 1141 1102 1115 1140 L 1040 1255 L 959 1349 Q 879 1419 810.5 1472 Q 742 1525 646 1571.5 Q 550 1618 442 1644 Q 334 1670 268 1669.5 Q 202 1669 186 1666 L 147 1659 Q 134 1657 133.5 1647 Q 133 1637 147 1634 L 200 1623 Q 252 1613 346 1584.5 Q 440 1556 566 1488.5 Q 692 1421 768 1351 L 874 1257 L 940 1176 Z"/><path d="M 874 1257 Q 824 1199 799 1173 Q 774 1147 718 1093 Q 662 1039 628.5 1011.5 Q 595 984 565.5 965.5 Q 536 947 516 938 Q 496 929 475 927 Q 454 925 449.5 920.5 Q 445 916 444.5 906.5 Q 444 897 459.5 888.5 Q 475 880 501 879 Q 525 879 538 881.5 Q 551 884 567.5 891 Q 584 898 618 918 Q 652 938 680 957.5 Q 708 977 751 1012 L 853 1101 L 940 1176 L 1040 1255 Q 1100 1304 1162 1350.5 Q 1224 1397 1304 1443 Q 1384 1489 1499.5 1538.5 Q 1615 1588 1708 1618 L 1866 1668 L 1898 1679 Q 1920 1687 1914.5 1700.5 Q 1909 1714 1898 1715 L 1874 1718 Q 1831 1724 1673.5 1742 Q 1516 1760 1468 1757 Q 1408 1755 1368 1738.5 Q 1328 1722 1287.5 1689.5 Q 1247 1657 1191 1600.5 Q 1135 1544 1030 1427 L 959 1349 L 874 1257 Z"/></g></g><g fill="#cccccc" stroke="none"><g transform="translate(129.800,72.100) scale(0.003418)"><path d="M 360 418 Q 343 407 335.5 401.5 Q 328 396 322.5 388 Q 317 380 321 373 Q 323 369 329 367.5 Q 335 366 356 363 L 403 357 L 531 342 Q 608 333 684 321.5 Q 760 310 806.5 300.5 Q 853 291 896 280 Q 939 269 957.5 260.5 Q 976 252 982 250 Q 996 247 1022.5 257 Q 1049 267 1065.5 276 Q 1082 285 1096 296.5 Q 1110 308 1110.5 318.5 Q 1111 329 1096.5 337.5 Q 1082 346 1041 353 L 975 365 Q 965 367 868 379 L 748 396 L 678 404 Q 636 409 544 422 L 495 429 Q 409.5 447.5 360 418 Z"/><path d="M 495 429 Q 505 440 509.5 448.5 Q 514 457 514 466 Q 513 471 503 491 Q 493 511 490 537 L 487 565 L 481 607 L 472 708 Q 469 741 452.5 854 Q 436 967 426.5 1026 Q 417 1085 390 1186 Q 363 1287 323 1381.5 Q 283 1476 241 1538.5 Q 199 1601 166 1641 L 147 1664 Q 136 1678 126.5 1671 Q 117 1664 125 1647 L 147 1604 Q 177 1546 198.5 1497 Q 220 1448 255 1337 Q 290 1226 306 1151.5 Q 322 1077 335 982 Q 348 887 355.5 814 Q 363 741 366 685 L 369 588 Q 371 536 371 522 Q 370 517 368.5 481 Q 367 445 365 437 L 360 418 L 495 429 Z"/><path d="M 659 692 L 670 650 Q 680 610 688 563.5 Q 696 517 699 485 L 702 429 Q 702 421 704.5 418 Q 707 415 718 415 Q 731 416 744 419 Q 757 422 791.5 436 Q 826 450 839.5 465.5 Q 853 481 850 491 Q 848 496 841 501 L 824 511 Q 816 516 806 526 Q 796 536 777 568 L 708 683 Q 629.5 783.5 659 692 Z"/><path d="M 640 1143 L 629 1173 Q 614 1171 605.5 1166.5 Q 597 1162 587 1148.5 Q 577 1135 575 1110 L 545 862 Q 539 814 529 787 Q 519 760 512 748 L 491 717 Q 480 700 484 694 Q 488 688 506 688 Q 507 689 536 693 L 568 699 Q 608 707.5 604 748 L 623 890 L 630 934 L 643 1085 Q 643.5 1114 640 1143 Z"/><path d="M 708 683 Q 727 680 739 678 Q 751 676 800.5 664 Q 850 652 878.5 643 Q 907 634 934 619.5 Q 961 605 972 604 Q 985 604 1010 616 L 1070 649 Q 1103 667 1121 682 Q 1139 697 1139 712 Q 1138 721 1122.5 742 Q 1107 763 1103 781 L 1041 1048 Q 1026 1112 999.5 1137 Q 973 1162 964 1147 L 935 1119 Q 884 1073.5 933 1060 L 963 895 L 968 841 L 976 763 Q 979 727 974 717 Q 969 707 953.5 699 Q 938 691 884 705 Q 878 707 793 722 L 704 740 Q 657 749 628 748 L 604 748 L 568 699 Q 608 699 617 697 L 659 692 L 708 683 Z"/><path d="M 623 890 L 754 863 Q 769 860 817.5 846 Q 866 832 885 831 Q 900 831 937 836 L 968 841 L 963 895 L 841 919 L 747 934 Q 716 940 707 940 Q 687 942 662 938 L 630 934 L 623 890 Z"/><path d="M 935 1119 L 835 1128 L 722 1140 L 640 1143 L 643 1085 L 848 1057 L 892 1049 L 933 1060 L 935 1119 Z"/><path d="M 835 1128 Q 847 1139 854 1147 Q 861 1155 861 1161 Q 860 1164 852.5 1176.5 Q 845 1189 842 1223.5 Q 839 1258 840 1293 L 842 1573 Q 842 1616 836 1655.5 Q 830 1695 814 1719.5 Q 798 1744 767.5 1764.5 Q 737 1785 724 1777 Q 717 1774 708 1750.5 Q 699 1727 686 1708 Q 673 1689 647 1661 Q 621 1633 604 1617 L 577 1593 Q 569 1587 574.5 1580.5 Q 580 1574 588 1576 L 623 1587 L 669 1601 Q 707 1614 720 1607 Q 735 1600 741 1577.5 Q 747 1555 748 1514 L 753 1295 Q 753 1257 747.5 1225.5 Q 742 1194 737 1179 L 722 1140 L 835 1128 Z"/><path d="M 402 1556 L 380 1572 L 353 1593 Q 341 1594 337.5 1586.5 Q 334 1579 349 1556 L 371 1522 Q 379 1508 403 1465.5 Q 427 1423 440 1396 Q 453 1369 463.5 1336.5 Q 474 1304 475.5 1282.5 Q 477 1261 482 1255.5 Q 487 1250 509 1253 Q 534 1257 551.5 1266.5 Q 569 1276 592.5 1293 Q 616 1310 627 1327 Q 638 1344 632 1356 Q 629 1362 610 1373 Q 591 1384 569 1404 L 501 1472 Q 499 1474 455.5 1512 Q 412 1550 402 1556 Z"/><path d="M 941 1297 L 928 1276 Q 919 1263 925 1254.5 Q 931 1246 945 1253 L 980 1273 Q 1016 1294 1031 1303.5 Q 1046 1313 1075 1337 Q 1104 1361 1118.5 1380.5 Q 1133 1400 1140.5 1428 Q 1148 1456 1148 1482 Q 1147 1504 1138.5 1522 Q 1130 1540 1115.5 1544 Q 1101 1548 1076 1521 Q 1060 1505 1046.5 1481.5 Q 1033 1458 1005 1407 Q 977 1356 963 1332 L 941 1297 Z"/><path d="M 1391 404 Q 1343 415 1316.5 423.5 Q 1290 432 1280 432 Q 1259 434 1232.5 425 Q 1206 416 1174.5 398 Q 1143 380 1146 366 Q 1147 361 1152 356.5 Q 1157 352 1169 350 L 1215 345 Q 1242 343 1261 339.5 Q 1280 336 1331 327 Q 1382 318 1453 306 L 1601 282 Q 1615 280 1654.5 271 Q 1694 262 1705 259.5 Q 1716 257 1734.5 252 Q 1753 247 1762 246 Q 1778 246 1800 254 Q 1822 262 1843 273.5 Q 1864 285 1879.5 298.5 Q 1895 312 1896 321 Q 1897 330 1884.5 341 Q 1872 352 1830 354 L 1766 358 Q 1748 360 1675 367 L 1567 378 L 1456 393 L 1391 404 Z"/><path d="M 1330 651 Q 1345 618 1359 585.5 Q 1373 553 1378 529 Q 1383 505 1387 459 L 1391 404 L 1456 393 Q 1472 402 1481 407.5 Q 1490 413 1506 424.5 Q 1522 436 1529.5 447 Q 1537 458 1535.5 465.5 Q 1534 473 1523 484 Q 1512 495 1498 512.5 Q 1484 530 1453 569.5 Q 1422 609 1411 622 L 1397 639 Q 1297.5 745 1330 651 Z"/><path d="M 1278 1366 L 1274 1403 Q 1270 1432 1254.5 1432.5 Q 1239 1433 1225 1414 Q 1211 1397 1203 1380.5 Q 1195 1364 1188 1337.5 Q 1181 1311 1182 1292 Q 1182 1282 1188.5 1250.5 Q 1195 1219 1203.5 1150 Q 1212 1081 1213 1062 L 1219 823 Q 1219 790 1216 769 Q 1213 748 1206 725.5 Q 1199 703 1190 686.5 Q 1181 670 1177.5 661.5 Q 1174 653 1179 644.5 Q 1184 636 1198 633 Q 1207 632 1257 648 L 1287 659 Q 1317 677 1303 715 L 1298 880 L 1297 930 L 1292 1092 L 1290 1138 L 1285 1301 L 1278 1366 Z"/><path d="M 1397 639 L 1572 607 Q 1603 602 1631 595 Q 1659 588 1684 578.5 Q 1709 569 1720 568 Q 1735 568 1756.5 577.5 Q 1778 587 1801 601.5 Q 1824 616 1841.5 632.5 Q 1859 649 1859.5 658.5 Q 1860 668 1847 693 Q 1838 710 1833.5 735 Q 1829 760 1825.5 797.5 Q 1822 835 1823 880 L 1827 1213 L 1833 1335 Q 1831 1353 1825.5 1376.5 Q 1820 1400 1809.5 1421 Q 1799 1442 1785.5 1456.5 Q 1772 1471 1760.5 1472 Q 1749 1473 1738 1453.5 Q 1727 1434 1719 1402 L 1702 1341 Q 1703 1324 1716 1291 Q 1718 1269 1719 1257 L 1721 1214 Q 1724 1164 1724 1158 L 1722 1096 L 1721 1049 L 1718 878 L 1717 836 Q 1716 797 1715.5 779.5 Q 1715 762 1714.5 749 Q 1714 736 1711.5 705.5 Q 1709 675 1700 667.5 Q 1691 660 1674.5 661 Q 1658 662 1599 669 L 1505 681 Q 1487 684 1431 698 Q 1375 712 1352 712 L 1303 715 L 1287 659 L 1330 651 L 1397 639 Z"/><path d="M 1298 880 L 1516 838 Q 1545 833 1555 830 L 1589 821 Q 1605 817 1616 816 Q 1634 815 1658 820 Q 1682 825 1696 829 L 1717 836 L 1718 878 L 1420 931 Q 1370 940 1356 940.5 Q 1342 941 1328 937 L 1297 930 L 1298 880 Z"/><path d="M 1292 1092 L 1577 1039 Q 1595 1036 1614 1032 Q 1633 1028 1643 1028 Q 1649 1029 1675.5 1034 Q 1702 1039 1707 1041 L 1721 1049 L 1722 1096 L 1679 1105 L 1425 1144 Q 1380 1151 1359 1151.5 Q 1338 1152 1332 1149 L 1290 1138 L 1292 1092 Z"/><path d="M 1702 1341 L 1388 1371 L 1317 1374 L 1278 1366 L 1285 1301 L 1531 1273 Q 1563 1270 1587 1266 Q 1611 1262 1621 1262 Q 1652 1263 1675 1273 L 1716 1291 L 1702 1341 Z"/><path d="M 1388 1371 Q 1416 1384 1430 1391.5 Q 1444 1399 1460 1414 Q 1476 1429 1473 1442 Q 1471 1448 1466.5 1452.5 Q 1462 1457 1440 1473 Q 1418 1489 1393 1518 L 1339 1582 Q 1304 1622 1255.5 1665 Q 1207 1708 1165 1738 Q 1123 1768 1101 1780 L 1070 1797 Q 1054 1806 1047.5 1803 Q 1041 1800 1040.5 1792.5 Q 1040 1785 1061 1765 L 1081 1746 Q 1094 1734 1124.5 1698.5 Q 1155 1663 1181.5 1630.5 Q 1208 1598 1235 1560.5 Q 1262 1523 1277.5 1493.5 Q 1293 1464 1304 1434.5 Q 1315 1405 1316 1390 L 1317 1374 L 1388 1371 Z"/><path d="M 1603 1471 L 1583 1447 Q 1572 1434 1573 1427 Q 1574 1420 1581.5 1419 Q 1589 1418 1603 1422 L 1630 1431 Q 1652 1439 1690.5 1459 Q 1729 1479 1770 1504 Q 1811 1529 1843.5 1556.5 Q 1876 1584 1897 1621.5 Q 1918 1659 1921.5 1699.5 Q 1925 1740 1907.5 1763.5 Q 1890 1787 1869 1789 Q 1848 1791 1817 1756 Q 1800 1738 1775.5 1702.5 Q 1751 1667 1706 1606 Q 1661 1545 1643.5 1522 Q 1626 1499 1603 1471 Z"/></g><g transform="translate(137.400,72.100) scale(0.003418)"><path d="M 475 1353 L 468 851 Q 467 797 461.5 738 Q 456 679 449.5 647 Q 443 615 426.5 589 Q 410 563 412 553 Q 414 543 424 536 Q 434 529 461 532 Q 490 536 505 539.5 Q 520 543 564 561 Q 608 579 626 593.5 Q 644 608 646 620.5 Q 648 633 628 681 Q 620 699 615 740.5 Q 610 782 606.5 814.5 Q 603 847 602 929 L 594 1305 Q 514.5 1499 475 1353 Z"/><path d="M 594 1305 Q 662 1278 720 1253.5 Q 778 1229 840.5 1195 Q 903 1161 918 1154 L 958 1137 Q 976 1130 986 1140 Q 996 1150 984 1162 L 958 1189 Q 937 1210 881 1249 L 759 1335 Q 750 1342 650.5 1407.5 Q 551 1473 510.5 1501 Q 470 1529 446 1548 Q 422 1567 405 1570.5 Q 388 1574 359 1557 Q 332 1543 297.5 1508.5 Q 263 1474 251 1447.5 Q 239 1421 248 1408 Q 253 1401 277 1396 L 336 1388 Q 382 1382 406 1374 L 475 1353 L 594 1305 Z"/><path d="M 823 414 L 864 425 Q 889 432 925.5 449 Q 962 466 994 485 Q 1026 504 1044 524.5 Q 1062 545 1071.5 577.5 Q 1081 610 1081 653 Q 1080 692 1066 707 Q 1052 722 1027 722 Q 1006 723 984 709 Q 962 695 923 640 L 878 578 L 814 473 L 793 439 Q 783 424 790 416 Q 797 408 823 414 Z"/><path d="M 1340 1226 Q 1300 1276 1251 1330.5 Q 1202 1385 1117 1442 Q 1032 1499 947 1532.5 Q 862 1566 800 1582 L 742 1596 Q 722 1602 716 1590 Q 710 1578 728 1569 L 795 1536 Q 838 1515 926 1460.5 Q 1014 1406 1077.5 1347 Q 1141 1288 1207 1198.5 Q 1273 1109 1309.5 1032 Q 1346 955 1373 862 Q 1400 769 1414.5 692 Q 1429 615 1429 559 Q 1428 521 1422 496 L 1403 444 Q 1394 418 1400 409.5 Q 1406 401 1416 397 Q 1427 394 1454.5 401 Q 1482 408 1510 417.5 Q 1538 427 1566.5 443 Q 1595 459 1616 475.5 Q 1637 492 1639.5 503 Q 1642 514 1637 525 L 1615 555 Q 1605 570 1598.5 593 Q 1592 616 1577.5 671.5 Q 1563 727 1543.5 795 Q 1524 863 1491.5 953 Q 1459 1043 1433 1082 L 1369 1183 L 1340 1226 Z"/><path d="M 1369 1183 Q 1437 1211 1493.5 1237 Q 1550 1263 1614 1307 Q 1678 1351 1721.5 1403 Q 1765 1455 1782 1498.5 Q 1799 1542 1799.5 1578 Q 1800 1614 1784 1633 Q 1775 1644 1763 1648.5 Q 1751 1653 1738 1652 Q 1727 1652 1711.5 1647.5 Q 1696 1643 1660.5 1612.5 Q 1625 1582 1599 1550.5 Q 1573 1519 1513.5 1439.5 Q 1454 1360 1435 1337 L 1340 1226 L 1369 1183 Z"/></g><g transform="translate(145.000,72.100) scale(0.003418)"><path d="M 573 1499 L 571 745 Q 570 734 566 659 Q 562 584 558.5 562 Q 555 540 539.5 511 Q 524 482 523.5 471.5 Q 523 461 530.5 452 Q 538 443 562 442 Q 582 442 621.5 450 Q 661 458 691.5 474.5 Q 722 491 724.5 504.5 Q 727 518 718 548 Q 712 566 710 584 Q 708 602 707 619.5 Q 706 637 705 701 L 699 953 L 699 1015 L 692 1449 Q 637.5 1574 573 1499 Z"/><path d="M 699 953 L 821 917 L 874 901 Q 890 900 910.5 906 Q 931 912 951 923 Q 971 934 972.5 944.5 Q 974 955 966 965 Q 956 977 926 982 Q 896 987 847.5 998 Q 799 1009 770 1014 Q 741 1019 730 1017 L 699 1015 L 699 953 Z"/><path d="M 295 1602 L 282 1232 Q 280 1191 276 1132.5 Q 272 1074 266 1053.5 Q 260 1033 249.5 1013.5 Q 239 994 241.5 984.5 Q 244 975 255 969.5 Q 266 964 287 965 Q 301 967 320.5 970 Q 340 973 369 983.5 Q 398 994 413.5 1005.5 Q 429 1017 431 1027 Q 433 1037 421 1066 Q 413 1085 408 1139.5 Q 403 1194 404 1232 L 410 1563 Q 342.5 1687.5 295 1602 Z"/><path d="M 410 1563 L 573 1499 L 692 1449 L 905 1366 Q 925 1359 934 1356 Q 943 1353 950 1358.5 Q 957 1364 953 1375 Q 949 1386 929 1399 L 894 1422 Q 889 1426 801 1477 L 679 1552 L 517 1646 L 437 1698 Q 371 1739 346 1761 Q 321 1783 309 1784 Q 294 1787 274 1778 Q 254 1769 236 1755.5 Q 218 1742 189.5 1718.5 Q 161 1695 154.5 1677.5 Q 148 1660 154 1650 Q 158 1643 176 1638 L 223 1627 L 295 1602 L 410 1563 Z"/><path d="M 1157 915 L 1308 876 Q 1361 863 1404.5 849.5 Q 1448 836 1490 819 Q 1532 802 1550 801 Q 1564 801 1595.5 810 Q 1627 819 1652.5 832 Q 1678 845 1678 865 Q 1677 878 1665.5 890.5 Q 1654 903 1617 912 L 1528 934 Q 1485 944 1447 951 L 1341 970 L 1313 976 Q 1293 981 1248 983 Q 1203 985 1189 982 L 1157 978 Q 1110 951.5 1157 915 Z"/><path d="M 1157 978 L 1144 1254 Q 1139 1356 1149.5 1439.5 Q 1160 1523 1192 1561.5 Q 1224 1600 1296.5 1613.5 Q 1369 1627 1471 1625 Q 1593 1624 1636.5 1600 Q 1680 1576 1704.5 1545.5 Q 1729 1515 1740.5 1484 Q 1752 1453 1764 1405 Q 1776 1357 1781 1318 L 1786 1273 Q 1788 1255 1801 1251.5 Q 1814 1248 1818 1277 L 1823 1321 Q 1823 1325 1828 1375 Q 1833 1425 1839.5 1458 Q 1846 1491 1859 1522 L 1884 1580 Q 1894 1607 1893 1622 Q 1889 1653 1843 1682 Q 1797 1711 1739 1730.5 Q 1681 1750 1610 1761 Q 1539 1772 1467 1771 Q 1379 1771 1304 1756 Q 1229 1741 1174 1711 Q 1119 1681 1083.5 1616.5 Q 1048 1552 1050 1497 L 1044 1266 L 1056 632 L 1057 502 Q 1057 465 1057 451 L 1052 392 Q 1047 340 1035.5 317 Q 1024 294 1024.5 283.5 Q 1025 273 1033.5 267 Q 1042 261 1066 264 Q 1104 271 1120 277 Q 1136 283 1166 300.5 Q 1196 318 1212 333 Q 1228 348 1229.5 357.5 Q 1231 367 1219 394 Q 1208 417 1201 454.5 Q 1194 492 1189 538.5 Q 1184 585 1180 634 L 1157 915 L 1157 978 Z"/></g><g transform="translate(152.600,72.100) scale(0.003418)"><path d="M 516 746 Q 494 749 463 751.5 Q 432 754 408 755 Q 384 756 372 755 Q 336 753 312.5 739.5 Q 289 726 285 712.5 Q 281 699 287 692 Q 293 685 319 683 L 361 680 Q 396 678 481 665 Q 566 652 604.5 644 Q 643 636 705.5 620 Q 768 604 797.5 594 Q 827 584 842 584 Q 860 585 889.5 598.5 Q 919 612 943.5 630 Q 968 648 965.5 656.5 Q 963 665 946 675 Q 929 685 850 697 L 644 730 L 516 746 Z"/><path d="M 540 1228 L 544 934 Q 545 852 543.5 830.5 Q 542 809 533 788 L 516 746 L 644 730 Q 679 746 684 757.5 Q 689 769 689 783 L 675 866 L 638 1200 Q 601 1299 540 1228 Z"/><path d="M 638 1200 Q 744 1174 798 1158 L 942 1117 L 973 1109 Q 991 1105 994.5 1118 Q 998 1131 981 1139 L 953 1152 Q 890 1181 773.5 1237.5 Q 657 1294 598 1320.5 Q 539 1347 515 1358.5 Q 491 1370 463 1386 L 388 1431 Q 363 1445 349 1445 Q 333 1446 300.5 1432.5 Q 268 1419 235 1384 L 205 1353 Q 187 1337 186 1326 Q 185 1315 196 1305 Q 203 1300 229.5 1300.5 Q 256 1301 297 1292 L 393 1269 Q 460 1253 463 1252 L 540 1228 L 638 1200 Z"/><path d="M 1226 840 L 1098 874 Q 1092 876 1060 888.5 Q 1028 901 1017 902 Q 994 905 970 894 L 931 872 Q 909 861 899.5 850.5 Q 890 840 894 831 Q 896 825 905.5 821.5 Q 915 818 938 816 L 987 812 L 1061 805 L 1135 799 L 1242 780 L 1383 756 L 1502 731 Q 1559 719 1569 716 L 1621 697 L 1673 680 Q 1691 674 1699 673 Q 1714 672 1735.5 681.5 Q 1757 691 1781 706.5 Q 1805 722 1822.5 735.5 Q 1840 749 1852 766.5 Q 1864 784 1862 796 Q 1860 802 1849 817 Q 1838 832 1828 856 Q 1818 880 1811.5 900.5 Q 1805 921 1799 946 Q 1793 971 1782.5 1029.5 Q 1772 1088 1737.5 1281 Q 1703 1474 1677 1549 Q 1651 1624 1614 1681.5 Q 1577 1739 1537.5 1773 Q 1498 1807 1466 1819.5 Q 1434 1832 1423 1828 Q 1414 1826 1406 1816 Q 1398 1806 1386 1778.5 Q 1374 1751 1348 1703 Q 1322 1655 1303.5 1626.5 Q 1285 1598 1276 1586 L 1265 1573 Q 1261 1569 1266 1565 Q 1271 1561 1282 1567 L 1304 1580 Q 1313 1586 1356 1609 Q 1399 1632 1426 1630 Q 1478 1627 1523 1539.5 Q 1568 1452 1604.5 1288.5 Q 1641 1125 1651.5 1067.5 Q 1662 1010 1670 952.5 Q 1678 895 1678.5 852 Q 1679 809 1668 797.5 Q 1657 786 1638.5 783 Q 1620 780 1591 782 Q 1515 790 1480 795 L 1365 813 L 1226 840 Z"/><path d="M 1242 780 Q 1265 703 1279 649.5 Q 1293 596 1304 527.5 Q 1315 459 1321.5 405 Q 1328 351 1328 321 Q 1327 297 1324 280 Q 1321 263 1316.5 245 Q 1312 227 1315 218 Q 1317 211 1322.5 206.5 Q 1328 202 1345 203 Q 1363 205 1386.5 214.5 Q 1410 224 1437.5 239.5 Q 1465 255 1482.5 270.5 Q 1500 286 1507.5 299 Q 1515 312 1514 322 Q 1512 329 1502.5 342.5 Q 1493 356 1484 373.5 Q 1475 391 1470 407 L 1456 467 L 1383 756 L 1365 813 Q 1337 897 1314 964.5 Q 1291 1032 1254.5 1126.5 Q 1218 1221 1164.5 1317 Q 1111 1413 1054.5 1493.5 Q 998 1574 926 1651.5 Q 854 1729 794.5 1771 Q 735 1813 694 1833 L 664 1848 Q 648 1856 642.5 1846.5 Q 637 1837 649 1825 L 677 1797 Q 706 1768 754.5 1714.5 Q 803 1661 857 1589.5 Q 911 1518 961.5 1440 Q 1012 1362 1062 1265 Q 1112 1168 1144.5 1081 Q 1177 994 1203 913 L 1226 840 L 1242 780 Z"/></g><g transform="translate(160.200,72.100) scale(0.003418)"><path d="M 655 549 L 580 623 Q 517 685 488.5 708 Q 460 731 406.5 766 Q 353 801 323 818 L 267 849 Q 243 862 233 858.5 Q 223 855 222.5 847.5 Q 222 840 247 820 L 282 792 Q 322 760 357.5 722.5 Q 393 685 439 631 Q 485 577 512 540.5 Q 539 504 553.5 479 Q 568 454 581.5 426 Q 595 398 598 380 L 600 346 Q 601 333 607.5 326 Q 614 319 638 325 Q 657 331 690.5 357 Q 724 383 740.5 406 Q 757 429 757 440 Q 756 452 745 462 L 718 480 L 655 549 Z"/><path d="M 480 1176 Q 466 1188 427 1224 Q 388 1260 360 1282.5 Q 332 1305 284.5 1337.5 Q 237 1370 200 1386 L 144 1411 Q 112 1425 107.5 1417.5 Q 103 1410 104 1403.5 Q 105 1397 125 1383 L 172 1350 Q 211 1323 267 1271.5 Q 323 1220 351.5 1187.5 Q 380 1155 437 1084 Q 494 1013 512 987 Q 530 961 558 913 Q 586 865 598 841.5 Q 610 818 612 796 L 616 728 Q 623 714 636 710 Q 649 706 677 721 Q 701 735 722.5 751 Q 744 767 759 783 Q 774 799 777 815 Q 780 831 769 846 Q 767 848 750 861 Q 733 874 700 917 L 646 987 Q 623 1016 609 1033 Q 595 1050 578 1070 L 539 1115 L 480 1176 Z"/><path d="M 539 1115 Q 557 1129 565 1136 L 588 1163 Q 602 1178 606 1185.5 Q 610 1193 606 1213 L 597 1245 Q 586 1283 588 1360 L 593 1616 Q 595 1732 592.5 1753.5 Q 590 1775 579 1815 Q 568 1855 554.5 1865 Q 541 1875 527 1875.5 Q 513 1876 493 1830 Q 472 1787 465.5 1760.5 Q 459 1734 460.5 1715.5 Q 462 1697 477.5 1641.5 Q 493 1586 495 1501 L 497 1366 Q 497 1332 496.5 1284.5 Q 496 1237 491 1219 L 480 1176 L 539 1115 Z"/><path d="M 1309 466 L 1460 434 L 1533 413 Q 1545 412 1562.5 414.5 Q 1580 417 1591.5 421 Q 1603 425 1625 434.5 Q 1647 444 1652 450.5 Q 1657 457 1654.5 465 Q 1652 473 1636.5 483.5 Q 1621 494 1567 504 L 1465 524 L 1287 555 L 1172 572 Q 1081 581 1033 584.5 Q 985 588 969 584 Q 953 580 944 576 Q 935 572 923.5 565.5 Q 912 559 907.5 548 Q 903 537 908 530 Q 911 526 934 525 L 977 519 L 1184 491 L 1309 466 Z"/><path d="M 1184 491 L 1202 348 Q 1206 313 1205.5 296.5 Q 1205 280 1202.5 259 Q 1200 238 1196 226 L 1183 193 Q 1179 179 1184 170.5 Q 1189 162 1208 159 Q 1229 156 1259 168 Q 1289 180 1301 186.5 Q 1313 193 1338.5 209.5 Q 1364 226 1369.5 233 Q 1375 240 1375.5 248 Q 1376 256 1367 272 Q 1359 286 1354.5 296 Q 1350 306 1340 337 Q 1330 368 1328 380 L 1309 466 L 1287 555 L 1236 736 Q 1159.5 809.5 1139 747 L 1172 572 L 1184 491 Z"/><path d="M 992 1125 Q 988 1147 981.5 1153.5 Q 975 1160 969 1161 Q 962 1163 951.5 1159 Q 941 1155 931 1129 Q 921 1103 912 1048 L 891 921 Q 885 890 878.5 869 Q 872 848 864 834.5 Q 856 821 848 813 L 832 800 Q 822 791 823.5 783 Q 825 775 832.5 771.5 Q 840 768 850 768 Q 862 769 868 770 L 899 777 Q 955 786 951 831 L 992 1066 Q 997 1095.5 992 1125 Z"/><path d="M 1236 736 L 1573 689 Q 1621 683 1645.5 677.5 Q 1670 672 1679 671 Q 1713 671 1757.5 702 Q 1802 733 1810 742.5 Q 1818 752 1818.5 760 Q 1819 768 1813 776 Q 1812 777 1797.5 788 Q 1783 799 1773 817 L 1747 872 L 1662 1038 Q 1636 1089 1626.5 1102 Q 1617 1115 1607 1121 Q 1597 1127 1588 1126 Q 1571 1126 1566 1117 L 1549 1095 Q 1500 1015.5 1563 1036 L 1617 858 Q 1631 812 1633.5 793 Q 1636 774 1631 767 Q 1627 764 1620 762 Q 1613 760 1607.5 759.5 Q 1602 759 1551 763 L 1421 774 L 1340 782 L 1171 802 L 1081 815 L 951 831 L 899 777 L 1139 747 L 1236 736 Z"/><path d="M 1139 1055 L 1110 896 Q 1106 876 1100 857.5 Q 1094 839 1091 833 L 1081 815 L 1171 802 Q 1189 808 1195.5 814.5 Q 1202 821 1205 829 Q 1206 834 1203 853.5 Q 1200 873 1202 896 L 1209 1049 Q 1172 1106 1139 1055 Z"/><path d="M 1327 1037 L 1339 900 L 1345 850 Q 1346 830 1345 820 L 1340 782 L 1421 774 Q 1442 786 1447 795.5 Q 1452 805 1452 814 Q 1451 821 1443.5 836.5 Q 1436 852 1423 890 L 1388 992 L 1375 1032 Q 1338 1074.5 1327 1037 Z"/><path d="M 1549 1095 Q 1513 1099 1496 1100 L 1348 1105 L 1093 1128 Q 1062 1131 1045 1131.5 Q 1028 1132 1022 1130 L 992 1125 L 992 1066 L 1139 1055 L 1209 1049 L 1327 1037 L 1375 1032 Q 1399 1030 1412 1028 L 1452 1022 Q 1471 1021 1496.5 1023.5 Q 1522 1026 1529 1027 L 1563 1036 L 1549 1095 Z"/><path d="M 1088 1253 Q 1233 1224 1323.5 1211 Q 1414 1198 1439.5 1193 Q 1465 1188 1479 1187 Q 1503 1187 1532.5 1196 Q 1562 1205 1571.5 1209 Q 1581 1213 1586.5 1219 Q 1592 1225 1591 1232 Q 1589 1239 1576 1245.5 Q 1563 1252 1548.5 1255.5 Q 1534 1259 1455 1270 L 1179 1311 Q 1115 1321 1079.5 1319.5 Q 1044 1318 1024 1311.5 Q 1004 1305 994 1297 Q 984 1289 986.5 1278.5 Q 989 1268 1002 1266 L 1088 1253 Z"/><path d="M 870 1520 Q 870 1525 867.5 1551.5 Q 865 1578 859 1613.5 Q 853 1649 836.5 1702 Q 820 1755 793 1777 Q 766 1799 751 1796 Q 731 1794 719 1771 Q 707 1748 700.5 1715.5 Q 694 1683 704 1657 Q 707 1648 726 1622 Q 745 1596 762.5 1561.5 Q 780 1527 793 1492.5 Q 806 1458 812.5 1437.5 Q 819 1417 824.5 1415 Q 830 1413 835.5 1412.5 Q 841 1412 850 1431 Q 859 1452 864 1483 Q 869 1514 870 1520 Z"/><path d="M 1549 1604 L 1530 1557 Q 1515 1522 1518.5 1517.5 Q 1522 1513 1526.5 1512.5 Q 1531 1512 1560 1538 L 1640 1612 Q 1666 1636 1718.5 1666 Q 1771 1696 1781 1703 Q 1791 1710 1798 1722 Q 1805 1734 1805.5 1752 Q 1806 1770 1798 1784 Q 1789 1799 1752 1822.5 Q 1715 1846 1641 1868 Q 1567 1890 1484 1891 Q 1410 1893 1329.5 1877.5 Q 1249 1862 1193.5 1838 Q 1138 1814 1095.5 1777 Q 1053 1740 1020 1688.5 Q 987 1637 973 1587 L 951 1512 Q 944 1491 933 1467 Q 922 1443 923 1435 Q 923 1428 927 1423.5 Q 931 1419 941 1418 Q 952 1418 966.5 1424 Q 981 1430 988.5 1438.5 Q 996 1447 1000.5 1457.5 Q 1005 1468 1012.5 1499 Q 1020 1530 1030.5 1561 Q 1041 1592 1062 1625 Q 1083 1658 1116.5 1684 Q 1150 1710 1195 1730.5 Q 1240 1751 1283 1760.5 Q 1326 1770 1386 1769 Q 1436 1769 1481 1762 Q 1526 1755 1544.5 1739.5 Q 1563 1724 1567 1712 Q 1571 1700 1564.5 1663 Q 1558 1626 1549 1604 Z"/><path d="M 1204 1397 L 1291 1417 Q 1335 1428 1356.5 1446.5 Q 1378 1465 1385.5 1481 Q 1393 1497 1390 1526 Q 1386 1560 1374 1572 Q 1362 1584 1347 1588.5 Q 1332 1593 1319 1589 Q 1301 1585 1276.5 1559 Q 1252 1533 1235 1507 L 1190 1439 Q 1178 1422 1178.5 1413.5 Q 1179 1405 1183.5 1399.5 Q 1188 1394 1204 1397 Z"/><path d="M 1647 1356 Q 1717 1374 1755.5 1385.5 Q 1794 1397 1837 1412.5 Q 1880 1428 1903.5 1447 Q 1927 1466 1935.5 1491 Q 1944 1516 1944 1546 Q 1943 1579 1934 1595 Q 1925 1611 1913.5 1617.5 Q 1902 1624 1891 1623 Q 1873 1623 1848 1599 L 1802 1553 Q 1774 1526 1719.5 1480 Q 1665 1434 1643 1416 L 1584 1371 Q 1567 1359 1577.5 1351 Q 1588 1343 1599 1345 L 1647 1356 Z"/></g></g><g fill="#000000" stroke="none"><g transform="translate(30.000,161.050) scale(0.002686)"><path d="M 727 288 L 697 242 Q 685 225 682.5 219 Q 680 213 683 207.5 Q 686 202 692 200 Q 698 198 717 201 L 763 210 Q 804 219 838 233.5 Q 872 248 890.5 269.5 Q 909 291 919 317 Q 929 343 928 364 Q 926 391 914.5 407 Q 903 423 893.5 429 Q 884 435 868 434 Q 855 434 842.5 429 Q 830 424 817 412 Q 804 400 791.5 384.5 Q 779 369 727 288 Z"/><path d="M 1117 385 L 1150 329 Q 1168 298 1186.5 259.5 Q 1205 221 1214.5 200 Q 1224 179 1227.5 164.5 Q 1231 150 1232 128.5 Q 1233 107 1235.5 98.5 Q 1238 90 1247 84.5 Q 1256 79 1279 84 Q 1293 88 1320 100 Q 1347 112 1365.5 121 Q 1384 130 1398.5 145 Q 1413 160 1412 171 Q 1411 174 1408 181 Q 1405 188 1390 197 L 1354 219 Q 1347 225 1327 245 L 1292 281 Q 1275 298 1232.5 338 Q 1190 378 1170 394 L 1129 426 Q 1104 445 1097 438.5 Q 1090 432 1092 420 L 1117 385 Z"/><path d="M 934 587 L 726 616 Q 670 624 643.5 623 Q 617 622 589 609.5 Q 561 597 552 589.5 Q 543 582 540.5 575 Q 538 568 541 562.5 Q 544 557 569 555 L 666 549 Q 765 543 891.5 526.5 Q 1018 510 1074 499.5 Q 1130 489 1218 471 Q 1306 453 1345.5 436.5 Q 1385 420 1397 418 Q 1423 414 1446.5 422.5 Q 1470 431 1507.5 453 Q 1545 475 1561 490 Q 1577 505 1577.5 518 Q 1578 531 1567 546 Q 1566 547 1541 573 Q 1516 599 1503 628 L 1437 777 Q 1343 833 1337 757 L 1364 627 L 1375 576 Q 1378 550 1370.5 543.5 Q 1363 537 1342 538 Q 1318 540 1261.5 544.5 Q 1205 549 1160 555 L 1019 576 L 934 587 Z"/><path d="M 502 924 Q 482 902 472.5 892.5 Q 463 883 462 878 Q 461 873 464.5 867.5 Q 468 862 475 858 L 531 855 L 638 848 L 966 812 L 1088 790 L 1337 757 L 1437 777 Q 1469 792 1476 805.5 Q 1483 819 1480.5 826.5 Q 1478 834 1466.5 840 Q 1455 846 1420 847 L 1275 852 L 1084 869 L 970 882 L 613 921 Q 557.5 935.5 502 924 Z"/><path d="M 940 1175 Q 859 1191 806.5 1202 Q 754 1213 707 1225 Q 660 1237 638 1247 L 569 1279 L 522 1301 Q 506 1308 498 1307 Q 489 1307 478 1300.5 Q 467 1294 442 1253 L 426 1228 Q 416 1213 417 1204.5 Q 418 1196 437 1175 L 464 1145 Q 490 1117 499 1082 Q 508 1047 509 1005 Q 509 972 507 957 L 502 924 L 613 921 Q 623 937 627.5 946 Q 632 955 632.5 962 Q 633 969 621 993 Q 609 1017 608 1043 L 605 1094 Q 603 1117 605.5 1125 Q 608 1133 617 1138 Q 626 1143 644 1140 L 682 1133 L 967 1089 L 1082 1074 L 1394 1048 Q 1449 1044 1483.5 1038.5 Q 1518 1033 1561 1018.5 Q 1604 1004 1619 1003 Q 1648 1003 1705.5 1039.5 Q 1763 1076 1778 1088 Q 1793 1100 1799.5 1113 Q 1806 1126 1798 1144 Q 1793 1154 1778.5 1168 Q 1764 1182 1752.5 1195.5 Q 1741 1209 1734.5 1223 Q 1728 1237 1717 1281 L 1688 1393 Q 1668 1471 1646.5 1512.5 Q 1625 1554 1589 1596 Q 1553 1638 1525 1653 Q 1497 1668 1485 1664 Q 1475 1662 1469 1655 Q 1463 1648 1443 1608.5 Q 1423 1569 1399 1540 Q 1375 1511 1348 1480 L 1314 1443 L 1302 1432 Q 1295 1419 1303 1415 Q 1311 1411 1329 1417 L 1368 1432 L 1439 1454 Q 1479 1467 1494 1461 Q 1505 1457 1524.5 1433.5 Q 1544 1410 1556.5 1374.5 Q 1569 1339 1579 1297 Q 1589 1255 1594.5 1228 Q 1600 1201 1599 1184 Q 1596 1158 1585 1149 Q 1574 1140 1560 1134.5 Q 1546 1129 1509 1128 Q 1461 1127 1423 1129 Q 1385 1131 1272 1140 L 1077 1157 L 940 1175 Z"/><path d="M 966 812 L 963 736 Q 961 708 956.5 683 Q 952 658 949 643 L 934 587 L 1019 576 Q 1071 594 1089 605.5 Q 1107 617 1112 625.5 Q 1117 634 1113 651 Q 1112 653 1104.5 674 Q 1097 695 1095 717 L 1088 790 L 1084 869 L 1082 1074 L 1077 1157 L 1072 1671 L 1075 1803 Q 1073 1857 1061 1892.5 Q 1049 1928 1032.5 1947 Q 1016 1966 1008 1965 Q 1001 1965 985.5 1950.5 Q 970 1936 962.5 1924 Q 955 1912 943.5 1881.5 Q 932 1851 929 1833 Q 926 1815 940.5 1748.5 Q 955 1682 957 1592 L 962 1313 L 967 1089 L 970 882 L 966 812 Z"/><path d="M 962 1313 Q 884 1396 832 1448 Q 780 1500 721.5 1546.5 Q 663 1593 600 1626 Q 537 1659 457 1693.5 Q 377 1728 343 1740 L 277 1763 Q 256 1771 250.5 1758 Q 245 1745 274 1727 L 330 1694 Q 400 1653 476 1604.5 Q 552 1556 618.5 1504 Q 685 1452 754.5 1382.5 Q 824 1313 858 1272 L 940 1175 Q 1067 1100 962 1313 Z"/></g><g transform="translate(36.000,161.050) scale(0.002686)"><path d="M 1024 639 L 1201 427 L 1242 371 Q 1260 347 1258.5 334 Q 1257 321 1246 314 Q 1235 307 1193 310 Q 1151 313 1127 317 L 861 362 Q 799 373 772.5 378 Q 746 383 716.5 391 Q 687 399 675 399 Q 657 400 638 392.5 Q 619 385 594 370.5 Q 569 356 554 342.5 Q 539 329 542 319 Q 543 313 549.5 309 Q 556 305 579 304 L 631 302 Q 656 302 772.5 289.5 Q 889 277 1001 256 L 1110 236 Q 1164 226 1221.5 210 Q 1279 194 1298 193 Q 1326 193 1364 209.5 Q 1402 226 1440.5 249.5 Q 1479 273 1502.5 301 Q 1526 329 1522 344 Q 1519 353 1509 361.5 Q 1499 370 1445 397 Q 1391 424 1329 471 L 1262 522 L 1067 673 Q 990.5 706 1024 639 Z"/><path d="M 1001 920 L 993 814 Q 990 784 981 751 Q 972 718 960 695 Q 948 672 932 659.5 Q 916 647 915 638.5 Q 914 630 922 624 Q 930 618 953.5 621 Q 977 624 991 628 L 1024 639 L 1067 673 Q 1078 688 1084 699.5 Q 1090 711 1094 757 L 1107 915 L 1116 1004 L 1124 1284 L 1116 1476 Q 1114 1521 1103 1596.5 Q 1092 1672 1079 1712 Q 1066 1752 1044 1790 Q 1022 1828 1004 1841.5 Q 986 1855 973 1855 Q 959 1856 944.5 1845 Q 930 1834 904.5 1797.5 Q 879 1761 839.5 1720 Q 800 1679 780 1659 L 753 1634 Q 740 1623 743 1615.5 Q 746 1608 757 1607.5 Q 768 1607 795 1614 L 871 1634 Q 899 1642 917 1636.5 Q 935 1631 946.5 1616 Q 958 1601 971 1550 Q 984 1499 991 1438 Q 998 1377 1003 1272 Q 1008 1167 1007 1115 L 1004 1009 L 1001 920 Z"/><path d="M 1107 915 L 1332 898 Q 1372 895 1463 884.5 Q 1554 874 1606 863 Q 1658 852 1678 852 Q 1706 853 1748.5 866.5 Q 1791 880 1825.5 896.5 Q 1860 913 1877 933 Q 1894 953 1891 968 Q 1888 980 1875 987.5 Q 1862 995 1831 995 L 1747 997 L 1354 995 L 1116 1004 L 1004 1009 L 858 1018 Q 780 1023 719 1029 Q 658 1035 585.5 1046 Q 513 1057 461 1067 Q 409 1077 372 1087.5 Q 335 1098 321 1098 Q 300 1099 269 1089 Q 238 1079 209.5 1060.5 Q 181 1042 166 1022 Q 151 1002 156 992 Q 161 982 186 980 L 233 978 Q 304 975 356 972 Q 408 969 511.5 961.5 Q 615 954 706 946 L 1001 920 L 1107 915 Z"/></g><g transform="translate(43.500,161.050) scale(0.002686)"><path d="M 896 546 Q 810 555 758 559 Q 706 563 655 562 Q 593 562 564.5 553 Q 536 544 516.5 525.5 Q 497 507 500.5 497 Q 504 487 538 484 L 598 480 Q 672 476 839 455 Q 1006 434 1086 419 L 1229 393 Q 1291 383 1321.5 374.5 Q 1352 366 1360 365 Q 1383 363 1428 373 Q 1473 383 1495 405 Q 1517 427 1514 437 Q 1511 445 1496 453 Q 1481 461 1449 466 L 1371 480 L 1282 493 L 1193 508 L 1061 526 L 896 546 Z"/><path d="M 943 1086 Q 899 1093 854.5 1099.5 Q 810 1106 757 1106 Q 709 1107 672 1102.5 Q 635 1098 600 1076 Q 565 1054 574.5 1042.5 Q 584 1031 618 1028 L 665 1025 L 746 1020 L 943 994 L 1062 977 L 1220 953 Q 1233 951 1280 939.5 Q 1327 928 1349 929 Q 1366 930 1394 938.5 Q 1422 947 1445 960.5 Q 1468 974 1472.5 985 Q 1477 996 1473 1005 Q 1469 1014 1442 1019 L 1382 1031 Q 1336 1041 1296 1045 L 1062 1075 L 943 1086 Z"/><path d="M 943 994 L 941 769 Q 940 754 934 696 Q 928 638 923.5 614 Q 919 590 910 573 L 896 546 L 1061 526 Q 1080 538 1093.5 547 Q 1107 556 1115 567 Q 1123 578 1124.5 589.5 Q 1126 601 1113 630 Q 1104 650 1094 686 Q 1084 722 1076.5 764.5 Q 1069 807 1068 839 L 1062 977 L 1062 1075 L 1064 1513 Q 1005 1575 954 1521 L 943 1086 L 943 994 Z"/><path d="M 1064 1513 L 1313 1495 Q 1404 1489 1449.5 1484 Q 1495 1479 1556 1466.5 Q 1617 1454 1642 1454 Q 1673 1456 1717.5 1470 Q 1762 1484 1790 1498 Q 1818 1512 1836 1531.5 Q 1854 1551 1854 1561 Q 1853 1578 1838.5 1585.5 Q 1824 1593 1785 1593 L 1679 1595 Q 1607 1597 1420 1598 Q 1233 1599 1145 1602 Q 1057 1605 864.5 1621 Q 672 1637 559 1653 L 482 1664 Q 463 1667 425 1676 Q 387 1685 370 1685 Q 341 1686 305 1673 Q 269 1660 247 1649.5 Q 225 1639 207.5 1623.5 Q 190 1608 193 1599.5 Q 196 1591 207 1584 Q 218 1577 245 1576 L 320 1574 Q 388 1573 497.5 1566.5 Q 607 1560 808 1537 L 954 1521 L 1064 1513 Z"/></g><g transform="translate(49.500,161.050) scale(0.002686)"><path d="M 962 1353 L 973 664 L 962 451 Q 960 415 953 370 Q 946 325 932.5 292.5 Q 919 260 919.5 245.5 Q 920 231 928 223.5 Q 936 216 963 220 Q 989 225 1020 235.5 Q 1051 246 1090 264 Q 1129 282 1150 302 Q 1171 322 1172.5 335.5 Q 1174 349 1168 362 L 1144 401 Q 1136 415 1122.5 465.5 Q 1109 516 1100 564.5 Q 1091 613 1089 701 L 1076 1100 L 1087 1502 L 1091 1610 Q 1090 1662 1079.5 1694.5 Q 1069 1727 1043.5 1768.5 Q 1018 1810 999.5 1820.5 Q 981 1831 973 1830 Q 961 1830 949 1816.5 Q 937 1803 906.5 1759.5 Q 876 1716 834.5 1673.5 Q 793 1631 764 1606 L 727 1575 Q 711 1563 716.5 1554 Q 722 1545 742 1550 L 803 1568 Q 859 1584 882 1587 Q 905 1590 918 1582.5 Q 931 1575 938 1560.5 Q 945 1546 952 1470 L 962 1353 Z"/><path d="M 246 1314 Q 278 1267 319 1207.5 Q 360 1148 389 1092 Q 418 1036 439 978.5 Q 460 921 466.5 894.5 Q 473 868 471.5 840 Q 470 812 476.5 806 Q 483 800 506 806 Q 522 811 556 832.5 Q 590 854 616.5 882.5 Q 643 911 632 933 Q 628 940 611.5 955 Q 595 970 588 977.5 Q 581 985 517 1082 Q 453 1179 394.5 1238 Q 336 1297 266 1343 L 239 1361 Q 219 1375 213.5 1366.5 Q 208 1358 223 1340 L 246 1314 Z"/><path d="M 1414 862 L 1389 830 Q 1380 819 1384 810 Q 1388 801 1399 804 L 1442 817 Q 1473 827 1523.5 852 Q 1574 877 1639 920 Q 1704 963 1751.5 1023 Q 1799 1083 1817.5 1138.5 Q 1836 1194 1835 1237 Q 1833 1275 1817.5 1296.5 Q 1802 1318 1781 1321.5 Q 1760 1325 1736 1307 Q 1720 1296 1695 1261 Q 1670 1226 1609.5 1134 Q 1549 1042 1514.5 992 Q 1480 942 1454 910 L 1414 862 Z"/></g><g transform="translate(55.500,161.050) scale(0.002686)"><path d="M 399 1217 L 396 1255 Q 391 1312 373.5 1311.5 Q 356 1311 343 1301 Q 330 1291 314.5 1260 Q 299 1229 297.5 1193.5 Q 296 1158 309 1089 Q 320 1030 323.5 998.5 Q 327 967 334.5 825.5 Q 342 684 342.5 651 Q 343 618 337 552 Q 332 503 325 484 Q 318 465 307 446.5 Q 296 428 299 418 Q 302 408 322 406.5 Q 342 405 351 409 L 407 432 Q 436.5 436.5 424 485 Q 425 519 426.5 556.5 Q 428 594 427 622 L 419 798 L 418 855 L 404 1153 L 399 1217 Z"/><path d="M 407 432 Q 466 421 494 415.5 Q 522 410 569 400 Q 616 390 635.5 384.5 Q 655 379 675.5 370.5 Q 696 362 705 362 Q 712 363 734 371.5 Q 756 380 776.5 393 Q 797 406 817 424 Q 837 442 841 451 Q 845 460 841 474 L 827 504 Q 822 516 820.5 536.5 Q 819 557 818 602.5 Q 817 648 814 759 Q 811 870 816 941 Q 817 976 825.5 1059 Q 834 1142 833 1167 Q 829 1212 809.5 1261.5 Q 790 1311 759 1339 Q 728 1367 713 1356 Q 706 1352 696 1320.5 Q 686 1289 666 1236 L 655 1208 Q 609 1108.5 663 1139 L 691 1155 Q 696 1137 702.5 1110.5 Q 709 1084 710 1047 L 716 822 L 716 774 L 719 568 Q 719 528 718 514.5 Q 717 501 709 487.5 Q 701 474 687.5 466.5 Q 674 459 645 458 Q 616 458 578.5 461 Q 541 464 518 468 L 424 485 L 407 432 Z"/><path d="M 716 822 Q 678 830 660 833 L 577 846 Q 510 857 484.5 859 Q 459 861 443 858 L 418 855 L 419 798 Q 439 796 464 792.5 Q 489 789 520.5 782.5 Q 552 776 579.5 769 Q 607 762 621 760 Q 652 757 674 763 L 716 774 L 716 822 Z"/><path d="M 655 1208 Q 549 1218 498.5 1223 Q 448 1228 437 1225 L 399 1217 L 404 1153 L 541 1139 L 621 1130 Q 650 1132 663 1139 L 655 1208 Z"/><path d="M 1113 1097 Q 1097 1163 1078.5 1230.5 Q 1060 1298 1011.5 1401 Q 963 1504 923 1557.5 Q 883 1611 840.5 1653 Q 798 1695 777 1706 L 746 1722 Q 731 1730 725 1724 Q 719 1718 729 1706 L 760 1669 L 791 1633 Q 815 1604 856.5 1528 Q 898 1452 931 1371 Q 964 1290 990.5 1177.5 Q 1017 1065 1028.5 988 Q 1040 911 1049.5 812.5 Q 1059 714 1061 637.5 Q 1063 561 1062 511 Q 1059 456 1053 412.5 Q 1047 369 1034.5 344 Q 1022 319 1023.5 310 Q 1025 301 1032.5 296 Q 1040 291 1058 293 Q 1072 296 1099 304.5 Q 1126 313 1136 318 L 1166 334 Q 1205 346.5 1192 399 Q 1190 416 1189 424 L 1181 477 Q 1176 511 1175 535 L 1166 733 L 1164 766 Q 1153 853 1152 863 L 1124 1062 L 1113 1097 Z"/><path d="M 1166 334 Q 1229 328 1264 323 Q 1299 318 1355 306.5 Q 1411 295 1444 286 Q 1477 277 1508 265 L 1561 243 Q 1571 239 1578 238 Q 1592 237 1616.5 249.5 Q 1641 262 1671.5 281 Q 1702 300 1727 320.5 Q 1752 341 1751 357 Q 1750 364 1745 374 L 1734 393 Q 1725 409 1717 430 Q 1709 451 1706.5 461.5 Q 1704 472 1695 577 L 1693 999 Q 1692 1155 1696 1315 Q 1700 1475 1693 1551 Q 1686 1616 1673.5 1663 Q 1661 1710 1642 1750 Q 1623 1790 1605 1801 Q 1587 1812 1576 1811 Q 1560 1811 1533 1775 Q 1506 1739 1470 1702 L 1395 1630 Q 1360 1597 1345 1586 L 1322 1570 Q 1310 1563 1314 1552.5 Q 1318 1542 1333 1545 L 1364 1553 L 1431 1573 Q 1455 1580 1492.5 1588 Q 1530 1596 1539 1590 Q 1547 1585 1555 1548.5 Q 1563 1512 1565 1495 L 1567 1423 L 1576 1110 L 1575 1072 L 1576 1051 L 1579 745 L 1576 716 L 1578 466 Q 1578 399 1567 381 Q 1556 363 1527 353 Q 1500 345 1442 355 L 1350 370 L 1261 387 L 1192 399 L 1166 334 Z"/><path d="M 1579 745 Q 1541 750 1523 752 L 1425 769 Q 1361 780 1300 783.5 Q 1239 787 1217 780 L 1164 766 L 1166 733 Q 1253 716 1308 705 Q 1363 694 1403.5 684.5 Q 1444 675 1461 674 Q 1501 673 1520 685 L 1576 716 L 1579 745 Z"/><path d="M 1575 1072 Q 1553 1078 1533.5 1082.5 Q 1514 1087 1475 1091 L 1357 1104 Q 1271 1115 1248 1115 Q 1194 1117 1161 1108 L 1113 1097 L 1124 1062 Q 1241 1045 1331.5 1027.5 Q 1422 1010 1440.5 1007 Q 1459 1004 1475 1005 Q 1511 1008 1536 1025 L 1576 1051 L 1575 1072 Z"/></g><line x1="43.500" y1="166.825" x2="83.500" y2="166.825" stroke="#000" stroke-width="0.3"/><g transform="translate(85.500,161.050) scale(0.002686)"><path d="M 360 418 Q 343 407 335.5 401.5 Q 328 396 322.5 388 Q 317 380 321 373 Q 323 369 329 367.5 Q 335 366 356 363 L 403 357 L 531 342 Q 608 333 684 321.5 Q 760 310 806.5 300.5 Q 853 291 896 280 Q 939 269 957.5 260.5 Q 976 252 982 250 Q 996 247 1022.5 257 Q 1049 267 1065.5 276 Q 1082 285 1096 296.5 Q 1110 308 1110.5 318.5 Q 1111 329 1096.5 337.5 Q 1082 346 1041 353 L 975 365 Q 965 367 868 379 L 748 396 L 678 404 Q 636 409 544 422 L 495 429 Q 409.5 447.5 360 418 Z"/><path d="M 495 429 Q 505 440 509.5 448.5 Q 514 457 514 466 Q 513 471 503 491 Q 493 511 490 537 L 487 565 L 481 607 L 472 708 Q 469 741 452.5 854 Q 436 967 426.5 1026 Q 417 1085 390 1186 Q 363 1287 323 1381.5 Q 283 1476 241 1538.5 Q 199 1601 166 1641 L 147 1664 Q 136 1678 126.5 1671 Q 117 1664 125 1647 L 147 1604 Q 177 1546 198.5 1497 Q 220 1448 255 1337 Q 290 1226 306 1151.5 Q 322 1077 335 982 Q 348 887 355.5 814 Q 363 741 366 685 L 369 588 Q 371 536 371 522 Q 370 517 368.5 481 Q 367 445 365 437 L 360 418 L 495 429 Z"/><path d="M 659 692 L 670 650 Q 680 610 688 563.5 Q 696 517 699 485 L 702 429 Q 702 421 704.5 418 Q 707 415 718 415 Q 731 416 744 419 Q 757 422 791.5 436 Q 826 450 839.5 465.5 Q 853 481 850 491 Q 848 496 841 501 L 824 511 Q 816 516 806 526 Q 796 536 777 568 L 708 683 Q 629.5 783.5 659 692 Z"/><path d="M 640 1143 L 629 1173 Q 614 1171 605.5 1166.5 Q 597 1162 587 1148.5 Q 577 1135 575 1110 L 545 862 Q 539 814 529 787 Q 519 760 512 748 L 491 717 Q 480 700 484 694 Q 488 688 506 688 Q 507 689 536 693 L 568 699 Q 608 707.5 604 748 L 623 890 L 630 934 L 643 1085 Q 643.5 1114 640 1143 Z"/><path d="M 708 683 Q 727 680 739 678 Q 751 676 800.5 664 Q 850 652 878.5 643 Q 907 634 934 619.5 Q 961 605 972 604 Q 985 604 1010 616 L 1070 649 Q 1103 667 1121 682 Q 1139 697 1139 712 Q 1138 721 1122.5 742 Q 1107 763 1103 781 L 1041 1048 Q 1026 1112 999.5 1137 Q 973 1162 964 1147 L 935 1119 Q 884 1073.5 933 1060 L 963 895 L 968 841 L 976 763 Q 979 727 974 717 Q 969 707 953.5 699 Q 938 691 884 705 Q 878 707 793 722 L 704 740 Q 657 749 628 748 L 604 748 L 568 699 Q 608 699 617 697 L 659 692 L 708 683 Z"/><path d="M 623 890 L 754 863 Q 769 860 817.5 846 Q 866 832 885 831 Q 900 831 937 836 L 968 841 L 963 895 L 841 919 L 747 934 Q 716 940 707 940 Q 687 942 662 938 L 630 934 L 623 890 Z"/><path d="M 935 1119 L 835 1128 L 722 1140 L 640 1143 L 643 1085 L 848 1057 L 892 1049 L 933 1060 L 935 1119 Z"/><path d="M 835 1128 Q 847 1139 854 1147 Q 861 1155 861 1161 Q 860 1164 852.5 1176.5 Q 845 1189 842 1223.5 Q 839 1258 840 1293 L 842 1573 Q 842 1616 836 1655.5 Q 830 1695 814 1719.5 Q 798 1744 767.5 1764.5 Q 737 1785 724 1777 Q 717 1774 708 1750.5 Q 699 1727 686 1708 Q 673 1689 647 1661 Q 621 1633 604 1617 L 577 1593 Q 569 1587 574.5 1580.5 Q 580 1574 588 1576 L 623 1587 L 669 1601 Q 707 1614 720 1607 Q 735 1600 741 1577.5 Q 747 1555 748 1514 L 753 1295 Q 753 1257 747.5 1225.5 Q 742 1194 737 1179 L 722 1140 L 835 1128 Z"/><path d="M 402 1556 L 380 1572 L 353 1593 Q 341 1594 337.5 1586.5 Q 334 1579 349 1556 L 371 1522 Q 379 1508 403 1465.5 Q 427 1423 440 1396 Q 453 1369 463.5 1336.5 Q 474 1304 475.5 1282.5 Q 477 1261 482 1255.5 Q 487 1250 509 1253 Q 534 1257 551.5 1266.5 Q 569 1276 592.5 1293 Q 616 1310 627 1327 Q 638 1344 632 1356 Q 629 1362 610 1373 Q 591 1384 569 1404 L 501 1472 Q 499 1474 455.5 1512 Q 412 1550 402 1556 Z"/><path d="M 941 1297 L 928 1276 Q 919 1263 925 1254.5 Q 931 1246 945 1253 L 980 1273 Q 1016 1294 1031 1303.5 Q 1046 1313 1075 1337 Q 1104 1361 1118.5 1380.5 Q 1133 1400 1140.5 1428 Q 1148 1456 1148 1482 Q 1147 1504 1138.5 1522 Q 1130 1540 1115.5 1544 Q 1101 1548 1076 1521 Q 1060 1505 1046.5 1481.5 Q 1033 1458 1005 1407 Q 977 1356 963 1332 L 941 1297 Z"/><path d="M 1391 404 Q 1343 415 1316.5 423.5 Q 1290 432 1280 432 Q 1259 434 1232.5 425 Q 1206 416 1174.5 398 Q 1143 380 1146 366 Q 1147 361 1152 356.5 Q 1157 352 1169 350 L 1215 345 Q 1242 343 1261 339.5 Q 1280 336 1331 327 Q 1382 318 1453 306 L 1601 282 Q 1615 280 1654.5 271 Q 1694 262 1705 259.5 Q 1716 257 1734.5 252 Q 1753 247 1762 246 Q 1778 246 1800 254 Q 1822 262 1843 273.5 Q 1864 285 1879.5 298.5 Q 1895 312 1896 321 Q 1897 330 1884.5 341 Q 1872 352 1830 354 L 1766 358 Q 1748 360 1675 367 L 1567 378 L 1456 393 L 1391 404 Z"/><path d="M 1330 651 Q 1345 618 1359 585.5 Q 1373 553 1378 529 Q 1383 505 1387 459 L 1391 404 L 1456 393 Q 1472 402 1481 407.5 Q 1490 413 1506 424.5 Q 1522 436 1529.5 447 Q 1537 458 1535.5 465.5 Q 1534 473 1523 484 Q 1512 495 1498 512.5 Q 1484 530 1453 569.5 Q 1422 609 1411 622 L 1397 639 Q 1297.5 745 1330 651 Z"/><path d="M 1278 1366 L 1274 1403 Q 1270 1432 1254.5 1432.5 Q 1239 1433 1225 1414 Q 1211 1397 1203 1380.5 Q 1195 1364 1188 1337.5 Q 1181 1311 1182 1292 Q 1182 1282 1188.5 1250.5 Q 1195 1219 1203.5 1150 Q 1212 1081 1213 1062 L 1219 823 Q 1219 790 1216 769 Q 1213 748 1206 725.5 Q 1199 703 1190 686.5 Q 1181 670 1177.5 661.5 Q 1174 653 1179 644.5 Q 1184 636 1198 633 Q 1207 632 1257 648 L 1287 659 Q 1317 677 1303 715 L 1298 880 L 1297 930 L 1292 1092 L 1290 1138 L 1285 1301 L 1278 1366 Z"/><path d="M 1397 639 L 1572 607 Q 1603 602 1631 595 Q 1659 588 1684 578.5 Q 1709 569 1720 568 Q 1735 568 1756.5 577.5 Q 1778 587 1801 601.5 Q 1824 616 1841.5 632.5 Q 1859 649 1859.5 658.5 Q 1860 668 1847 693 Q 1838 710 1833.5 735 Q 1829 760 1825.5 797.5 Q 1822 835 1823 880 L 1827 1213 L 1833 1335 Q 1831 1353 1825.5 1376.5 Q 1820 1400 1809.5 1421 Q 1799 1442 1785.5 1456.5 Q 1772 1471 1760.5 1472 Q 1749 1473 1738 1453.5 Q 1727 1434 1719 1402 L 1702 1341 Q 1703 1324 1716 1291 Q 1718 1269 1719 1257 L 1721 1214 Q 1724 1164 1724 1158 L 1722 1096 L 1721 1049 L 1718 878 L 1717 836 Q 1716 797 1715.5 779.5 Q 1715 762 1714.5 749 Q 1714 736 1711.5 705.5 Q 1709 675 1700 667.5 Q 1691 660 1674.5 661 Q 1658 662 1599 669 L 1505 681 Q 1487 684 1431 698 Q 1375 712 1352 712 L 1303 715 L 1287 659 L 1330 651 L 1397 639 Z"/><path d="M 1298 880 L 1516 838 Q 1545 833 1555 830 L 1589 821 Q 1605 817 1616 816 Q 1634 815 1658 820 Q 1682 825 1696 829 L 1717 836 L 1718 878 L 1420 931 Q 1370 940 1356 940.5 Q 1342 941 1328 937 L 1297 930 L 1298 880 Z"/><path d="M 1292 1092 L 1577 1039 Q 1595 1036 1614 1032 Q 1633 1028 1643 1028 Q 1649 1029 1675.5 1034 Q 1702 1039 1707 1041 L 1721 1049 L 1722 1096 L 1679 1105 L 1425 1144 Q 1380 1151 1359 1151.5 Q 1338 1152 1332 1149 L 1290 1138 L 1292 1092 Z"/><path d="M 1702 1341 L 1388 1371 L 1317 1374 L 1278 1366 L 1285 1301 L 1531 1273 Q 1563 1270 1587 1266 Q 1611 1262 1621 1262 Q 1652 1263 1675 1273 L 1716 1291 L 1702 1341 Z"/><path d="M 1388 1371 Q 1416 1384 1430 1391.5 Q 1444 1399 1460 1414 Q 1476 1429 1473 1442 Q 1471 1448 1466.5 1452.5 Q 1462 1457 1440 1473 Q 1418 1489 1393 1518 L 1339 1582 Q 1304 1622 1255.5 1665 Q 1207 1708 1165 1738 Q 1123 1768 1101 1780 L 1070 1797 Q 1054 1806 1047.5 1803 Q 1041 1800 1040.5 1792.5 Q 1040 1785 1061 1765 L 1081 1746 Q 1094 1734 1124.5 1698.5 Q 1155 1663 1181.5 1630.5 Q 1208 1598 1235 1560.5 Q 1262 1523 1277.5 1493.5 Q 1293 1464 1304 1434.5 Q 1315 1405 1316 1390 L 1317 1374 L 1388 1371 Z"/><path d="M 1603 1471 L 1583 1447 Q 1572 1434 1573 1427 Q 1574 1420 1581.5 1419 Q 1589 1418 1603 1422 L 1630 1431 Q 1652 1439 1690.5 1459 Q 1729 1479 1770 1504 Q 1811 1529 1843.5 1556.5 Q 1876 1584 1897 1621.5 Q 1918 1659 1921.5 1699.5 Q 1925 1740 1907.5 1763.5 Q 1890 1787 1869 1789 Q 1848 1791 1817 1756 Q 1800 1738 1775.5 1702.5 Q 1751 1667 1706 1606 Q 1661 1545 1643.5 1522 Q 1626 1499 1603 1471 Z"/></g><g transform="translate(91.500,161.050) scale(0.002686)"><path d="M 475 1353 L 468 851 Q 467 797 461.5 738 Q 456 679 449.5 647 Q 443 615 426.5 589 Q 410 563 412 553 Q 414 543 424 536 Q 434 529 461 532 Q 490 536 505 539.5 Q 520 543 564 561 Q 608 579 626 593.5 Q 644 608 646 620.5 Q 648 633 628 681 Q 620 699 615 740.5 Q 610 782 606.5 814.5 Q 603 847 602 929 L 594 1305 Q 514.5 1499 475 1353 Z"/><path d="M 594 1305 Q 662 1278 720 1253.5 Q 778 1229 840.5 1195 Q 903 1161 918 1154 L 958 1137 Q 976 1130 986 1140 Q 996 1150 984 1162 L 958 1189 Q 937 1210 881 1249 L 759 1335 Q 750 1342 650.5 1407.5 Q 551 1473 510.5 1501 Q 470 1529 446 1548 Q 422 1567 405 1570.5 Q 388 1574 359 1557 Q 332 1543 297.5 1508.5 Q 263 1474 251 1447.5 Q 239 1421 248 1408 Q 253 1401 277 1396 L 336 1388 Q 382 1382 406 1374 L 475 1353 L 594 1305 Z"/><path d="M 823 414 L 864 425 Q 889 432 925.5 449 Q 962 466 994 485 Q 1026 504 1044 524.5 Q 1062 545 1071.5 577.5 Q 1081 610 1081 653 Q 1080 692 1066 707 Q 1052 722 1027 722 Q 1006 723 984 709 Q 962 695 923 640 L 878 578 L 814 473 L 793 439 Q 783 424 790 416 Q 797 408 823 414 Z"/><path d="M 1340 1226 Q 1300 1276 1251 1330.5 Q 1202 1385 1117 1442 Q 1032 1499 947 1532.5 Q 862 1566 800 1582 L 742 1596 Q 722 1602 716 1590 Q 710 1578 728 1569 L 795 1536 Q 838 1515 926 1460.5 Q 1014 1406 1077.5 1347 Q 1141 1288 1207 1198.5 Q 1273 1109 1309.5 1032 Q 1346 955 1373 862 Q 1400 769 1414.5 692 Q 1429 615 1429 559 Q 1428 521 1422 496 L 1403 444 Q 1394 418 1400 409.5 Q 1406 401 1416 397 Q 1427 394 1454.5 401 Q 1482 408 1510 417.5 Q 1538 427 1566.5 443 Q 1595 459 1616 475.5 Q 1637 492 1639.5 503 Q 1642 514 1637 525 L 1615 555 Q 1605 570 1598.5 593 Q 1592 616 1577.5 671.5 Q 1563 727 1543.5 795 Q 1524 863 1491.5 953 Q 1459 1043 1433 1082 L 1369 1183 L 1340 1226 Z"/><path d="M 1369 1183 Q 1437 1211 1493.5 1237 Q 1550 1263 1614 1307 Q 1678 1351 1721.5 1403 Q 1765 1455 1782 1498.5 Q 1799 1542 1799.5 1578 Q 1800 1614 1784 1633 Q 1775 1644 1763 1648.5 Q 1751 1653 1738 1652 Q 1727 1652 1711.5 1647.5 Q 1696 1643 1660.5 1612.5 Q 1625 1582 1599 1550.5 Q 1573 1519 1513.5 1439.5 Q 1454 1360 1435 1337 L 1340 1226 L 1369 1183 Z"/></g><g transform="translate(97.500,161.050) scale(0.002686)"><path d="M 573 1499 L 571 745 Q 570 734 566 659 Q 562 584 558.5 562 Q 555 540 539.5 511 Q 524 482 523.5 471.5 Q 523 461 530.5 452 Q 538 443 562 442 Q 582 442 621.5 450 Q 661 458 691.5 474.5 Q 722 491 724.5 504.5 Q 727 518 718 548 Q 712 566 710 584 Q 708 602 707 619.5 Q 706 637 705 701 L 699 953 L 699 1015 L 692 1449 Q 637.5 1574 573 1499 Z"/><path d="M 699 953 L 821 917 L 874 901 Q 890 900 910.5 906 Q 931 912 951 923 Q 971 934 972.5 944.5 Q 974 955 966 965 Q 956 977 926 982 Q 896 987 847.5 998 Q 799 1009 770 1014 Q 741 1019 730 1017 L 699 1015 L 699 953 Z"/><path d="M 295 1602 L 282 1232 Q 280 1191 276 1132.5 Q 272 1074 266 1053.5 Q 260 1033 249.5 1013.5 Q 239 994 241.5 984.5 Q 244 975 255 969.5 Q 266 964 287 965 Q 301 967 320.5 970 Q 340 973 369 983.5 Q 398 994 413.5 1005.5 Q 429 1017 431 1027 Q 433 1037 421 1066 Q 413 1085 408 1139.5 Q 403 1194 404 1232 L 410 1563 Q 342.5 1687.5 295 1602 Z"/><path d="M 410 1563 L 573 1499 L 692 1449 L 905 1366 Q 925 1359 934 1356 Q 943 1353 950 1358.5 Q 957 1364 953 1375 Q 949 1386 929 1399 L 894 1422 Q 889 1426 801 1477 L 679 1552 L 517 1646 L 437 1698 Q 371 1739 346 1761 Q 321 1783 309 1784 Q 294 1787 274 1778 Q 254 1769 236 1755.5 Q 218 1742 189.5 1718.5 Q 161 1695 154.5 1677.5 Q 148 1660 154 1650 Q 158 1643 176 1638 L 223 1627 L 295 1602 L 410 1563 Z"/><path d="M 1157 915 L 1308 876 Q 1361 863 1404.5 849.5 Q 1448 836 1490 819 Q 1532 802 1550 801 Q 1564 801 1595.5 810 Q 1627 819 1652.5 832 Q 1678 845 1678 865 Q 1677 878 1665.5 890.5 Q 1654 903 1617 912 L 1528 934 Q 1485 944 1447 951 L 1341 970 L 1313 976 Q 1293 981 1248 983 Q 1203 985 1189 982 L 1157 978 Q 1110 951.5 1157 915 Z"/><path d="M 1157 978 L 1144 1254 Q 1139 1356 1149.5 1439.5 Q 1160 1523 1192 1561.5 Q 1224 1600 1296.5 1613.5 Q 1369 1627 1471 1625 Q 1593 1624 1636.5 1600 Q 1680 1576 1704.5 1545.5 Q 1729 1515 1740.5 1484 Q 1752 1453 1764 1405 Q 1776 1357 1781 1318 L 1786 1273 Q 1788 1255 1801 1251.5 Q 1814 1248 1818 1277 L 1823 1321 Q 1823 1325 1828 1375 Q 1833 1425 1839.5 1458 Q 1846 1491 1859 1522 L 1884 1580 Q 1894 1607 1893 1622 Q 1889 1653 1843 1682 Q 1797 1711 1739 1730.5 Q 1681 1750 1610 1761 Q 1539 1772 1467 1771 Q 1379 1771 1304 1756 Q 1229 1741 1174 1711 Q 1119 1681 1083.5 1616.5 Q 1048 1552 1050 1497 L 1044 1266 L 1056 632 L 1057 502 Q 1057 465 1057 451 L 1052 392 Q 1047 340 1035.5 317 Q 1024 294 1024.5 283.5 Q 1025 273 1033.5 267 Q 1042 261 1066 264 Q 1104 271 1120 277 Q 1136 283 1166 300.5 Q 1196 318 1212 333 Q 1228 348 1229.5 357.5 Q 1231 367 1219 394 Q 1208 417 1201 454.5 Q 1194 492 1189 538.5 Q 1184 585 1180 634 L 1157 915 L 1157 978 Z"/></g><g transform="translate(103.500,161.050) scale(0.002686)"><path d="M 516 746 Q 494 749 463 751.5 Q 432 754 408 755 Q 384 756 372 755 Q 336 753 312.5 739.5 Q 289 726 285 712.5 Q 281 699 287 692 Q 293 685 319 683 L 361 680 Q 396 678 481 665 Q 566 652 604.5 644 Q 643 636 705.5 620 Q 768 604 797.5 594 Q 827 584 842 584 Q 860 585 889.5 598.5 Q 919 612 943.5 630 Q 968 648 965.5 656.5 Q 963 665 946 675 Q 929 685 850 697 L 644 730 L 516 746 Z"/><path d="M 540 1228 L 544 934 Q 545 852 543.5 830.5 Q 542 809 533 788 L 516 746 L 644 730 Q 679 746 684 757.5 Q 689 769 689 783 L 675 866 L 638 1200 Q 601 1299 540 1228 Z"/><path d="M 638 1200 Q 744 1174 798 1158 L 942 1117 L 973 1109 Q 991 1105 994.5 1118 Q 998 1131 981 1139 L 953 1152 Q 890 1181 773.5 1237.5 Q 657 1294 598 1320.5 Q 539 1347 515 1358.5 Q 491 1370 463 1386 L 388 1431 Q 363 1445 349 1445 Q 333 1446 300.5 1432.5 Q 268 1419 235 1384 L 205 1353 Q 187 1337 186 1326 Q 185 1315 196 1305 Q 203 1300 229.5 1300.5 Q 256 1301 297 1292 L 393 1269 Q 460 1253 463 1252 L 540 1228 L 638 1200 Z"/><path d="M 1226 840 L 1098 874 Q 1092 876 1060 888.5 Q 1028 901 1017 902 Q 994 905 970 894 L 931 872 Q 909 861 899.5 850.5 Q 890 840 894 831 Q 896 825 905.5 821.5 Q 915 818 938 816 L 987 812 L 1061 805 L 1135 799 L 1242 780 L 1383 756 L 1502 731 Q 1559 719 1569 716 L 1621 697 L 1673 680 Q 1691 674 1699 673 Q 1714 672 1735.5 681.5 Q 1757 691 1781 706.5 Q 1805 722 1822.5 735.5 Q 1840 749 1852 766.5 Q 1864 784 1862 796 Q 1860 802 1849 817 Q 1838 832 1828 856 Q 1818 880 1811.5 900.5 Q 1805 921 1799 946 Q 1793 971 1782.5 1029.5 Q 1772 1088 1737.5 1281 Q 1703 1474 1677 1549 Q 1651 1624 1614 1681.5 Q 1577 1739 1537.5 1773 Q 1498 1807 1466 1819.5 Q 1434 1832 1423 1828 Q 1414 1826 1406 1816 Q 1398 1806 1386 1778.5 Q 1374 1751 1348 1703 Q 1322 1655 1303.5 1626.5 Q 1285 1598 1276 1586 L 1265 1573 Q 1261 1569 1266 1565 Q 1271 1561 1282 1567 L 1304 1580 Q 1313 1586 1356 1609 Q 1399 1632 1426 1630 Q 1478 1627 1523 1539.5 Q 1568 1452 1604.5 1288.5 Q 1641 1125 1651.5 1067.5 Q 1662 1010 1670 952.5 Q 1678 895 1678.5 852 Q 1679 809 1668 797.5 Q 1657 786 1638.5 783 Q 1620 780 1591 782 Q 1515 790 1480 795 L 1365 813 L 1226 840 Z"/><path d="M 1242 780 Q 1265 703 1279 649.5 Q 1293 596 1304 527.5 Q 1315 459 1321.5 405 Q 1328 351 1328 321 Q 1327 297 1324 280 Q 1321 263 1316.5 245 Q 1312 227 1315 218 Q 1317 211 1322.5 206.5 Q 1328 202 1345 203 Q 1363 205 1386.5 214.5 Q 1410 224 1437.5 239.5 Q 1465 255 1482.5 270.5 Q 1500 286 1507.5 299 Q 1515 312 1514 322 Q 1512 329 1502.5 342.5 Q 1493 356 1484 373.5 Q 1475 391 1470 407 L 1456 467 L 1383 756 L 1365 813 Q 1337 897 1314 964.5 Q 1291 1032 1254.5 1126.5 Q 1218 1221 1164.5 1317 Q 1111 1413 1054.5 1493.5 Q 998 1574 926 1651.5 Q 854 1729 794.5 1771 Q 735 1813 694 1833 L 664 1848 Q 648 1856 642.5 1846.5 Q 637 1837 649 1825 L 677 1797 Q 706 1768 754.5 1714.5 Q 803 1661 857 1589.5 Q 911 1518 961.5 1440 Q 1012 1362 1062 1265 Q 1112 1168 1144.5 1081 Q 1177 994 1203 913 L 1226 840 L 1242 780 Z"/></g><g transform="translate(109.500,161.050) scale(0.002686)"><path d="M 655 549 L 580 623 Q 517 685 488.5 708 Q 460 731 406.5 766 Q 353 801 323 818 L 267 849 Q 243 862 233 858.5 Q 223 855 222.5 847.5 Q 222 840 247 820 L 282 792 Q 322 760 357.5 722.5 Q 393 685 439 631 Q 485 577 512 540.5 Q 539 504 553.5 479 Q 568 454 581.5 426 Q 595 398 598 380 L 600 346 Q 601 333 607.5 326 Q 614 319 638 325 Q 657 331 690.5 357 Q 724 383 740.5 406 Q 757 429 757 440 Q 756 452 745 462 L 718 480 L 655 549 Z"/><path d="M 480 1176 Q 466 1188 427 1224 Q 388 1260 360 1282.5 Q 332 1305 284.5 1337.5 Q 237 1370 200 1386 L 144 1411 Q 112 1425 107.5 1417.5 Q 103 1410 104 1403.5 Q 105 1397 125 1383 L 172 1350 Q 211 1323 267 1271.5 Q 323 1220 351.5 1187.5 Q 380 1155 437 1084 Q 494 1013 512 987 Q 530 961 558 913 Q 586 865 598 841.5 Q 610 818 612 796 L 616 728 Q 623 714 636 710 Q 649 706 677 721 Q 701 735 722.5 751 Q 744 767 759 783 Q 774 799 777 815 Q 780 831 769 846 Q 767 848 750 861 Q 733 874 700 917 L 646 987 Q 623 1016 609 1033 Q 595 1050 578 1070 L 539 1115 L 480 1176 Z"/><path d="M 539 1115 Q 557 1129 565 1136 L 588 1163 Q 602 1178 606 1185.5 Q 610 1193 606 1213 L 597 1245 Q 586 1283 588 1360 L 593 1616 Q 595 1732 592.5 1753.5 Q 590 1775 579 1815 Q 568 1855 554.5 1865 Q 541 1875 527 1875.5 Q 513 1876 493 1830 Q 472 1787 465.5 1760.5 Q 459 1734 460.5 1715.5 Q 462 1697 477.5 1641.5 Q 493 1586 495 1501 L 497 1366 Q 497 1332 496.5 1284.5 Q 496 1237 491 1219 L 480 1176 L 539 1115 Z"/><path d="M 1309 466 L 1460 434 L 1533 413 Q 1545 412 1562.5 414.5 Q 1580 417 1591.5 421 Q 1603 425 1625 434.5 Q 1647 444 1652 450.5 Q 1657 457 1654.5 465 Q 1652 473 1636.5 483.5 Q 1621 494 1567 504 L 1465 524 L 1287 555 L 1172 572 Q 1081 581 1033 584.5 Q 985 588 969 584 Q 953 580 944 576 Q 935 572 923.5 565.5 Q 912 559 907.5 548 Q 903 537 908 530 Q 911 526 934 525 L 977 519 L 1184 491 L 1309 466 Z"/><path d="M 1184 491 L 1202 348 Q 1206 313 1205.5 296.5 Q 1205 280 1202.5 259 Q 1200 238 1196 226 L 1183 193 Q 1179 179 1184 170.5 Q 1189 162 1208 159 Q 1229 156 1259 168 Q 1289 180 1301 186.5 Q 1313 193 1338.5 209.5 Q 1364 226 1369.5 233 Q 1375 240 1375.5 248 Q 1376 256 1367 272 Q 1359 286 1354.5 296 Q 1350 306 1340 337 Q 1330 368 1328 380 L 1309 466 L 1287 555 L 1236 736 Q 1159.5 809.5 1139 747 L 1172 572 L 1184 491 Z"/><path d="M 992 1125 Q 988 1147 981.5 1153.5 Q 975 1160 969 1161 Q 962 1163 951.5 1159 Q 941 1155 931 1129 Q 921 1103 912 1048 L 891 921 Q 885 890 878.5 869 Q 872 848 864 834.5 Q 856 821 848 813 L 832 800 Q 822 791 823.5 783 Q 825 775 832.5 771.5 Q 840 768 850 768 Q 862 769 868 770 L 899 777 Q 955 786 951 831 L 992 1066 Q 997 1095.5 992 1125 Z"/><path d="M 1236 736 L 1573 689 Q 1621 683 1645.5 677.5 Q 1670 672 1679 671 Q 1713 671 1757.5 702 Q 1802 733 1810 742.5 Q 1818 752 1818.5 760 Q 1819 768 1813 776 Q 1812 777 1797.5 788 Q 1783 799 1773 817 L 1747 872 L 1662 1038 Q 1636 1089 1626.5 1102 Q 1617 1115 1607 1121 Q 1597 1127 1588 1126 Q 1571 1126 1566 1117 L 1549 1095 Q 1500 1015.5 1563 1036 L 1617 858 Q 1631 812 1633.5 793 Q 1636 774 1631 767 Q 1627 764 1620 762 Q 1613 760 1607.5 759.5 Q 1602 759 1551 763 L 1421 774 L 1340 782 L 1171 802 L 1081 815 L 951 831 L 899 777 L 1139 747 L 1236 736 Z"/><path d="M 1139 1055 L 1110 896 Q 1106 876 1100 857.5 Q 1094 839 1091 833 L 1081 815 L 1171 802 Q 1189 808 1195.5 814.5 Q 1202 821 1205 829 Q 1206 834 1203 853.5 Q 1200 873 1202 896 L 1209 1049 Q 1172 1106 1139 1055 Z"/><path d="M 1327 1037 L 1339 900 L 1345 850 Q 1346 830 1345 820 L 1340 782 L 1421 774 Q 1442 786 1447 795.5 Q 1452 805 1452 814 Q 1451 821 1443.5 836.5 Q 1436 852 1423 890 L 1388 992 L 1375 1032 Q 1338 1074.5 1327 1037 Z"/><path d="M 1549 1095 Q 1513 1099 1496 1100 L 1348 1105 L 1093 1128 Q 1062 1131 1045 1131.5 Q 1028 1132 1022 1130 L 992 1125 L 992 1066 L 1139 1055 L 1209 1049 L 1327 1037 L 1375 1032 Q 1399 1030 1412 1028 L 1452 1022 Q 1471 1021 1496.5 1023.5 Q 1522 1026 1529 1027 L 1563 1036 L 1549 1095 Z"/><path d="M 1088 1253 Q 1233 1224 1323.5 1211 Q 1414 1198 1439.5 1193 Q 1465 1188 1479 1187 Q 1503 1187 1532.5 1196 Q 1562 1205 1571.5 1209 Q 1581 1213 1586.5 1219 Q 1592 1225 1591 1232 Q 1589 1239 1576 1245.5 Q 1563 1252 1548.5 1255.5 Q 1534 1259 1455 1270 L 1179 1311 Q 1115 1321 1079.5 1319.5 Q 1044 1318 1024 1311.5 Q 1004 1305 994 1297 Q 984 1289 986.5 1278.5 Q 989 1268 1002 1266 L 1088 1253 Z"/><path d="M 870 1520 Q 870 1525 867.5 1551.5 Q 865 1578 859 1613.5 Q 853 1649 836.5 1702 Q 820 1755 793 1777 Q 766 1799 751 1796 Q 731 1794 719 1771 Q 707 1748 700.5 1715.5 Q 694 1683 704 1657 Q 707 1648 726 1622 Q 745 1596 762.5 1561.5 Q 780 1527 793 1492.5 Q 806 1458 812.5 1437.5 Q 819 1417 824.5 1415 Q 830 1413 835.5 1412.5 Q 841 1412 850 1431 Q 859 1452 864 1483 Q 869 1514 870 1520 Z"/><path d="M 1549 1604 L 1530 1557 Q 1515 1522 1518.5 1517.5 Q 1522 1513 1526.5 1512.5 Q 1531 1512 1560 1538 L 1640 1612 Q 1666 1636 1718.5 1666 Q 1771 1696 1781 1703 Q 1791 1710 1798 1722 Q 1805 1734 1805.5 1752 Q 1806 1770 1798 1784 Q 1789 1799 1752 1822.5 Q 1715 1846 1641 1868 Q 1567 1890 1484 1891 Q 1410 1893 1329.5 1877.5 Q 1249 1862 1193.5 1838 Q 1138 1814 1095.5 1777 Q 1053 1740 1020 1688.5 Q 987 1637 973 1587 L 951 1512 Q 944 1491 933 1467 Q 922 1443 923 1435 Q 923 1428 927 1423.5 Q 931 1419 941 1418 Q 952 1418 966.5 1424 Q 981 1430 988.5 1438.5 Q 996 1447 1000.5 1457.5 Q 1005 1468 1012.5 1499 Q 1020 1530 1030.5 1561 Q 1041 1592 1062 1625 Q 1083 1658 1116.5 1684 Q 1150 1710 1195 1730.5 Q 1240 1751 1283 1760.5 Q 1326 1770 1386 1769 Q 1436 1769 1481 1762 Q 1526 1755 1544.5 1739.5 Q 1563 1724 1567 1712 Q 1571 1700 1564.5 1663 Q 1558 1626 1549 1604 Z"/><path d="M 1204 1397 L 1291 1417 Q 1335 1428 1356.5 1446.5 Q 1378 1465 1385.5 1481 Q 1393 1497 1390 1526 Q 1386 1560 1374 1572 Q 1362 1584 1347 1588.5 Q 1332 1593 1319 1589 Q 1301 1585 1276.5 1559 Q 1252 1533 1235 1507 L 1190 1439 Q 1178 1422 1178.5 1413.5 Q 1179 1405 1183.5 1399.5 Q 1188 1394 1204 1397 Z"/><path d="M 1647 1356 Q 1717 1374 1755.5 1385.5 Q 1794 1397 1837 1412.5 Q 1880 1428 1903.5 1447 Q 1927 1466 1935.5 1491 Q 1944 1516 1944 1546 Q 1943 1579 1934 1595 Q 1925 1611 1913.5 1617.5 Q 1902 1624 1891 1623 Q 1873 1623 1848 1599 L 1802 1553 Q 1774 1526 1719.5 1480 Q 1665 1434 1643 1416 L 1584 1371 Q 1567 1359 1577.5 1351 Q 1588 1343 1599 1345 L 1647 1356 Z"/></g><g transform="translate(121.500,161.050) scale(0.002686)"><path d="M 889 1291 Q 884 1315 876 1333 Q 868 1351 853 1355 Q 838 1359 817 1332 Q 802 1314 797.5 1283 Q 793 1252 788 1179 Q 783 1106 782 1094 L 747 709 Q 741 653 737.5 632 Q 734 611 720.5 575.5 Q 707 540 692 518 Q 677 496 675 482.5 Q 673 469 683 459 Q 686 456 743 464 L 803 477 Q 831.5 499.5 830 542 L 887 1216 L 889 1291 Z"/><path d="M 803 477 L 1359 405 Q 1371 404 1443 392.5 Q 1515 381 1554.5 369.5 Q 1594 358 1608 358 Q 1631 359 1659 371.5 Q 1687 384 1719 402.5 Q 1751 421 1767.5 439 Q 1784 457 1785 468.5 Q 1786 480 1769 514 Q 1755 541 1749 584 Q 1743 627 1736.5 732 Q 1730 837 1726 887 L 1706 1099 Q 1696 1206 1683 1250 Q 1670 1294 1650.5 1329.5 Q 1631 1365 1609 1383 Q 1587 1401 1574 1399 Q 1561 1398 1550 1385 Q 1539 1372 1522 1332 L 1497 1282 L 1479 1243 Q 1434.5 1168.5 1480 1144 Q 1511 1144 1529 1157 L 1569 1183 Q 1578 1136 1585.5 1092.5 Q 1593 1049 1603 882 Q 1613 715 1614 687 Q 1615 659 1617 569.5 Q 1619 480 1606.5 469 Q 1594 458 1568 454.5 Q 1542 451 1477 459 L 830 542 L 803 477 Z"/><path d="M 1108 1006 Q 1102 1029 1091.5 1037.5 Q 1081 1046 1067 1040 Q 1056 1037 1048.5 1022 Q 1041 1007 1036 971 L 1017 853 Q 1013 830 1004.5 802 Q 996 774 982 762 Q 968 750 965.5 742.5 Q 963 735 973 724 L 1014 724 L 1076 729 Q 1093.5 747.5 1091 776 L 1103 946 L 1108 1006 Z"/><path d="M 1076 729 Q 1139 718 1173.5 710 Q 1208 702 1236.5 692.5 Q 1265 683 1290.5 672 Q 1316 661 1326 659 Q 1345 657 1384 676 Q 1423 695 1437 708.5 Q 1451 722 1451.5 731.5 Q 1452 741 1438 761 Q 1423 781 1413 802 Q 1403 823 1395 853 L 1373 931 Q 1310 1011.5 1297 922 L 1314 793 Q 1318 759 1316 752 Q 1314 745 1305.5 739.5 Q 1297 734 1233 747 L 1091 776 L 1076 729 Z"/><path d="M 1373 931 Q 1386 942 1395 952.5 Q 1404 963 1401.5 971 Q 1399 979 1386 983 L 1326 983 L 1108 1006 L 1103 946 L 1297 922 L 1373 931 Z"/><path d="M 1479 1243 L 889 1291 L 887 1216 L 1341 1164 Q 1408 1157 1438.5 1151 Q 1469 1145 1480 1144 Q 1511 1144 1529 1157 L 1569 1183 L 1479 1243 Z"/><path d="M 246 339 L 224 304 Q 215 291 217 286 Q 219 281 224.5 279 Q 230 277 238 278 L 270 284 Q 281 287 324 300.5 Q 367 314 380.5 319 Q 394 324 420.5 338.5 Q 447 353 458 368 Q 469 383 473.5 403.5 Q 478 424 478 440 Q 477 457 470 479 Q 463 501 448.5 514 Q 434 527 419 529.5 Q 404 532 377 506 Q 359 490 324.5 445 Q 290 400 272 376.5 Q 254 353 246 339 Z"/><path d="M 351 1081 Q 348 1075 348.5 1067.5 Q 349 1060 356 1041 L 403 915 L 416 883 Q 420 867 415 861.5 Q 410 856 395 859 Q 388 861 374 866 L 299 888 Q 269 897 254.5 900 Q 240 903 209 900 Q 183 899 168 894 Q 153 889 142.5 880.5 Q 132 872 133 866 Q 133 861 137 858 Q 141 855 166 848 L 203 838 Q 232 830 274.5 814.5 Q 317 799 350.5 783 Q 384 767 416.5 747.5 Q 449 728 459 726 Q 473 725 492.5 734 Q 512 743 537.5 760 Q 563 777 580.5 795 Q 598 813 597 827 Q 595 838 578 854 L 546 883 Q 532 897 515 918 L 439 1013 Q 431 1022 418.5 1041 Q 406 1060 407 1067 Q 379 1114 351 1081 Z"/><path d="M 491 1384 Q 491 1359 490 1327 Q 489 1295 475.5 1256 Q 462 1217 446.5 1192.5 Q 431 1168 411.5 1142 Q 392 1116 373 1101.5 Q 354 1087 351 1081 L 407 1067 Q 407 1077 426 1090 L 477 1122 Q 512 1146 535.5 1181.5 Q 559 1217 563 1264 Q 565 1298 558 1334 L 548 1387 Q 464.5 1440.5 491 1384 Z"/><path d="M 548 1387 Q 568 1389 589.5 1392 Q 611 1395 658.5 1407.5 Q 706 1420 802 1449 Q 898 1478 972 1498 Q 1046 1518 1140 1535.5 Q 1234 1553 1327 1561.5 Q 1420 1570 1529.5 1573 Q 1639 1576 1729.5 1576 Q 1820 1576 1840 1576 L 1931 1577 Q 1957 1578 1962.5 1589.5 Q 1968 1601 1943 1613 L 1889 1639 Q 1864 1651 1827.5 1663.5 Q 1791 1676 1691.5 1711 Q 1592 1746 1548.5 1759 Q 1505 1772 1475 1772 Q 1434 1773 1365.5 1750 Q 1297 1727 1154.5 1672 Q 1012 1617 975 1602 L 790 1534 Q 713 1506 671 1493.5 Q 629 1481 580.5 1473.5 Q 532 1466 486 1466 Q 427 1467 372 1476 Q 317 1485 290 1492 Q 263 1499 239 1510.5 Q 215 1522 206 1522 Q 192 1523 176 1514 Q 160 1505 139.5 1488 Q 119 1471 109 1458 Q 99 1445 92.5 1431.5 Q 86 1418 87.5 1409 Q 89 1400 104 1395 Q 111 1393 128 1396.5 Q 145 1400 174.5 1402 Q 204 1404 223 1403 Q 246 1403 287 1399 L 359 1392 Q 405 1388 421 1387 L 465 1385 L 491 1384 L 548 1387 Z"/></g><g transform="translate(127.500,161.050) scale(0.002686)"><path d="M 551 787 Q 607 721 639 680 Q 671 639 714.5 578.5 Q 758 518 798.5 458 Q 839 398 852 371.5 Q 865 345 881 305 Q 897 265 899 241 Q 901 217 905.5 212.5 Q 910 208 917 205 Q 924 202 936 202 Q 955 203 995 219 Q 1035 235 1061.5 249 Q 1088 263 1107 282.5 Q 1126 302 1127 311.5 Q 1128 321 1127 326 Q 1124 335 1118.5 340.5 Q 1113 346 1084 364 Q 1055 382 1036.5 397 Q 1018 412 1005 424.5 Q 992 437 963.5 465.5 Q 935 494 827.5 598.5 Q 720 703 707 713 L 620 785 Q 530.5 861 551 787 Z"/><path d="M 457 874 L 474 1526 L 479 1589 Q 480 1623 472 1655 Q 464 1685 449 1708 Q 434 1731 421 1731.5 Q 408 1732 390 1708 Q 376 1691 361 1660 Q 346 1629 345 1611 Q 344 1593 349.5 1556 Q 355 1519 356 1470 L 358 1342 Q 359 1242 351 1132 L 342 1028 Q 337 975 334 952 Q 331 929 324.5 906 Q 318 883 306 854 Q 294 825 284 805 Q 274 785 277 775 Q 280 765 298 761 Q 306 760 325 763 L 352 768 Q 382 775 409 786 L 442 800 Q 457.5 830 457 874 Z"/><path d="M 620 785 Q 803 758 916 742.5 Q 1029 727 1156.5 714.5 Q 1284 702 1318.5 697 Q 1353 692 1396 684.5 Q 1439 677 1476 668.5 Q 1513 660 1534 653 Q 1555 646 1563 645 Q 1585 643 1616.5 657.5 Q 1648 672 1676 689 L 1720 718 Q 1757 743 1764.5 757 Q 1772 771 1772 785 Q 1771 799 1752 836.5 Q 1733 874 1726 910 Q 1719 946 1711 1037 L 1693 1210 L 1673 1445 Q 1663 1530 1645.5 1593 Q 1628 1656 1592.5 1715.5 Q 1557 1775 1524.5 1804 Q 1492 1833 1474 1839.5 Q 1456 1846 1442 1846 Q 1421 1847 1405.5 1837 Q 1390 1827 1372 1792 Q 1354 1757 1341.5 1736.5 Q 1329 1716 1297 1670 Q 1265 1624 1248 1606 L 1231 1589 Q 1213 1572 1222.5 1564 Q 1232 1556 1244 1561 L 1275 1574 Q 1300 1585 1346 1596.5 Q 1392 1608 1419 1606 Q 1441 1606 1455.5 1597 Q 1470 1588 1485.5 1556 Q 1501 1524 1510.5 1468.5 Q 1520 1413 1530 1326 Q 1540 1239 1544.5 1187.5 Q 1549 1136 1553.5 1034.5 Q 1558 933 1561 885 Q 1564 837 1556 809 Q 1548 781 1531 769 Q 1514 757 1452 761 Q 1441 762 1397 763 Q 1353 764 1291 769 L 1185 778 L 1047 789 Q 993 794 879.5 806.5 Q 766 819 714.5 827 Q 663 835 540 858 L 457 874 L 442 800 Q 479 795 485 794 L 551 787 L 620 785 Z"/><path d="M 822 1423 Q 816 1446 813 1464.5 Q 810 1483 804.5 1488.5 Q 799 1494 796.5 1494.5 Q 794 1495 791 1494 Q 782 1493 772.5 1488 Q 763 1483 754 1465.5 Q 745 1448 743 1424 L 717 1199 Q 713 1172 706 1143 Q 699 1114 692.5 1095 Q 686 1076 679 1067 L 663 1050 Q 653 1034 659 1027 Q 665 1020 686 1021 Q 698 1022 714.5 1024.5 Q 731 1027 746 1032 L 803 1052 Q 811.5 1073.5 808 1101 L 818 1351 L 822 1423 Z"/><path d="M 803 1052 Q 903 1032 954 1020.5 Q 1005 1009 1036 1001 Q 1067 993 1088 984 Q 1109 975 1116 973 Q 1136 970 1178 990 Q 1220 1010 1247 1034.5 Q 1274 1059 1272 1075 Q 1270 1083 1255 1102 Q 1240 1121 1230.5 1137.5 Q 1221 1154 1212 1174.5 Q 1203 1195 1198 1218 L 1167 1339 Q 1088 1385 1053 1319 L 1080 1158 Q 1088 1107 1087 1094.5 Q 1086 1082 1079 1074.5 Q 1072 1067 1060 1063 Q 1048 1059 1038 1058 Q 1021 1057 947.5 1073 Q 874 1089 867 1090 L 808 1101 L 803 1052 Z"/><path d="M 1167 1339 Q 1177 1351 1187 1364 Q 1197 1377 1194 1385 Q 1190 1394 1179 1396 L 1154 1396 L 822 1423 L 818 1351 L 1053 1319 L 1167 1339 Z"/></g><g transform="translate(135.000,161.050) scale(0.002686)"><path d="M 213 856 L 240 834 Q 287 796 306.5 779 Q 326 762 374.5 712.5 Q 423 663 450.5 628.5 Q 478 594 513 543.5 Q 548 493 555.5 469.5 Q 563 446 566.5 409 Q 570 372 579.5 368 Q 589 364 599 364 Q 617 365 644.5 380 Q 672 395 696.5 412.5 Q 721 430 734.5 447 Q 748 464 745 478 Q 742 487 722.5 505 Q 703 523 683 543 L 599 629 Q 552 677 506.5 716 Q 461 755 428 776 Q 395 797 337 830 Q 279 863 258 869 L 221 881 Q 210 885 205 876 Q 200 867 213 856 Z"/><path d="M 1131 295 Q 1159 302 1218 319 Q 1277 336 1340.5 358.5 Q 1404 381 1453 409.5 Q 1502 438 1522 469.5 Q 1542 501 1543.5 540.5 Q 1545 580 1529.5 600 Q 1514 620 1493 625 Q 1472 630 1437 611 Q 1416 601 1388 578.5 Q 1360 556 1305 507 Q 1250 458 1233 443.5 Q 1216 429 1172 393.5 Q 1128 358 1109.5 343.5 Q 1091 329 1071 315.5 Q 1051 302 1052 296 Q 1053 290 1067 285 Q 1076 283 1096 287 L 1131 295 Z"/><path d="M 950 1173 Q 991 1093 1011 1045 Q 1031 997 1045 940.5 Q 1059 884 1067.5 826 Q 1076 768 1071 740 L 1061 701 Q 1055 669 1066.5 660 Q 1078 651 1101 654 Q 1121 658 1148 675 Q 1175 692 1204.5 715.5 Q 1234 739 1245 758 Q 1256 777 1256.5 793.5 Q 1257 810 1244 834 L 1219 876 Q 1209 894 1191.5 941 Q 1174 988 1145.5 1063 Q 1117 1138 1101 1166 L 1049 1259 L 981 1362 Q 923 1426 874 1473.5 Q 825 1521 755.5 1566 Q 686 1611 610 1644 Q 534 1677 469.5 1691 Q 405 1705 352 1710.5 Q 299 1716 263 1716 L 218 1716 Q 195 1716 188.5 1703.5 Q 182 1691 208 1684 L 251 1673 Q 275 1667 339 1647.5 Q 403 1628 463.5 1602.5 Q 524 1577 595.5 1528.5 Q 667 1480 723 1432.5 Q 779 1385 811 1346 L 883 1262 L 950 1173 Z"/><path d="M 1049 1259 Q 1097 1306 1131 1335 Q 1165 1364 1229 1408 Q 1293 1452 1353.5 1487.5 Q 1414 1523 1479 1552.5 Q 1544 1582 1601 1599 L 1719 1633 L 1831 1666 Q 1853 1673 1857 1691.5 Q 1861 1710 1829 1717 L 1764 1732 Q 1730 1740 1660.5 1749.5 Q 1591 1759 1499 1765 Q 1426 1771 1395 1760 Q 1364 1749 1318 1713.5 Q 1272 1678 1226.5 1635 Q 1181 1592 1144 1551.5 Q 1107 1511 1056 1450 L 981 1362 L 883 1262 Q 846 1217 825.5 1192.5 Q 805 1168 742.5 1101.5 Q 680 1035 656.5 1018 Q 633 1001 600 986 Q 567 971 542.5 966.5 Q 518 962 507.5 954.5 Q 497 947 497.5 930 Q 498 913 510 903 Q 522 893 559.5 894 Q 597 895 611.5 896.5 Q 626 898 659 913 Q 692 928 720 947 L 824 1049 L 950 1173 L 1049 1259 Z"/></g><g transform="translate(141.000,161.050) scale(0.002686)"><path d="M 1415 1265 Q 1447 1263 1463 1263 L 1524 1265 Q 1571 1265 1584 1268 Q 1597 1271 1614 1279.5 Q 1631 1288 1658 1305 Q 1685 1322 1712.5 1348 Q 1740 1374 1757 1408 Q 1774 1442 1774.5 1461 Q 1775 1480 1761.5 1490.5 Q 1748 1501 1732.5 1499 Q 1717 1497 1682 1480 L 1633 1457 Q 1618 1451 1545 1424 Q 1472 1397 1466 1395 L 1405 1378 L 1268 1363 Q 1136 1354 1058 1351.5 Q 980 1349 887 1353 Q 794 1357 732.5 1368.5 Q 671 1380 625.5 1396.5 Q 580 1413 564 1422.5 Q 548 1432 522.5 1449.5 Q 497 1467 486.5 1468 Q 476 1469 467 1460 Q 456 1452 449.5 1413.5 Q 443 1375 441.5 1350 Q 440 1325 445 1312 Q 446 1306 463.5 1280 Q 481 1254 496.5 1215 Q 512 1176 522.5 1142 Q 533 1108 558 996 L 575 917 L 586 828 L 601 714 Q 603 694 606.5 614.5 Q 610 535 610 504 Q 609 472 604.5 430 Q 600 388 593.5 370.5 Q 587 353 576 332 Q 565 311 565.5 302 Q 566 293 574.5 286.5 Q 583 280 606 283 Q 650 290 665 294 L 734 314 Q 770.5 327 751 380 Q 743 481 735.5 565 Q 728 649 720 720 L 709 811 L 698 898 L 631 1220 L 617 1279 Q 615 1295 619.5 1300 Q 624 1305 654 1295 Q 670 1290 692 1288.5 Q 714 1287 775 1279.5 Q 836 1272 936 1265 Q 1036 1258 1126 1260 L 1291 1263 L 1415 1265 Z"/><path d="M 1449 854 Q 1447 881 1446.5 896.5 Q 1446 912 1438 1022.5 Q 1430 1133 1426 1167 L 1415 1265 L 1405 1378 Q 1399 1413 1392 1448.5 Q 1385 1484 1368.5 1545 Q 1352 1606 1333 1647.5 Q 1314 1689 1288.5 1725.5 Q 1263 1762 1238.5 1787 Q 1214 1812 1192.5 1822.5 Q 1171 1833 1160 1831 Q 1144 1829 1121 1794 Q 1098 1759 1072.5 1726 Q 1047 1693 1013 1655.5 Q 979 1618 946 1588 L 918 1563 Q 898 1546 903 1539 Q 908 1532 931 1540 L 968 1555 Q 1002 1569 1048 1587 Q 1094 1605 1115.5 1610 Q 1137 1615 1150 1612 Q 1176 1607 1206 1547 Q 1236 1487 1245.5 1458 Q 1255 1429 1260 1404 L 1268 1363 L 1291 1263 Q 1300 1204 1304 1173 L 1326 931 L 1333 855 L 1335 762 L 1347 438 Q 1349 381 1348.5 359 Q 1348 337 1335.5 326 Q 1323 315 1291 314 Q 1274 314 1221 318.5 Q 1168 323 1085.5 331.5 Q 1003 340 931.5 350.5 Q 860 361 814 369 L 751 380 L 734 314 L 926 286 L 1057 267 Q 1178 250 1220 244 Q 1262 238 1296.5 229 Q 1331 220 1343 219 Q 1366 219 1396.5 230 Q 1427 241 1463 260.5 Q 1499 280 1515.5 299.5 Q 1532 319 1532.5 330 Q 1533 341 1510 378 Q 1498 396 1490 423.5 Q 1482 451 1477 483 Q 1472 515 1469 555 L 1458 712 L 1455 752 L 1449 854 Z"/><path d="M 915 522 L 898 492 L 890 478 Q 887 470 891.5 464 Q 896 458 920 462 L 961 469 Q 976 473 1005.5 483.5 Q 1035 494 1060 509.5 Q 1085 525 1099.5 547.5 Q 1114 570 1114.5 602 Q 1115 634 1103 656 Q 1091 678 1065 688.5 Q 1039 699 1002 662 Q 990 652 971 617 L 938 563 L 915 522 Z"/><path d="M 899 1030 L 883 1000 L 874 985 Q 871 977 876 971 Q 881 965 904 968 Q 933 974 955.5 979 Q 978 984 1007 997 Q 1036 1010 1058.5 1028.5 Q 1081 1047 1090 1070 Q 1099 1093 1098 1124 Q 1096 1155 1085 1176 Q 1074 1197 1055.5 1203.5 Q 1037 1210 1021 1204 Q 1005 1199 990.5 1181 Q 976 1163 954.5 1129 Q 933 1095 922 1074 L 899 1030 Z"/><path d="M 1455 752 L 1547 742 Q 1559 741 1604.5 732.5 Q 1650 724 1689.5 718 Q 1729 712 1750 712 Q 1775 714 1815.5 726.5 Q 1856 739 1896.5 762.5 Q 1937 786 1947.5 803.5 Q 1958 821 1953 833.5 Q 1948 846 1933 851 Q 1918 856 1887 854 L 1823 851 Q 1728 847 1650 848 L 1508 851 Q 1488 851 1487 851 L 1449 854 L 1333 855 L 914 879 L 698 898 L 575 917 L 481 928 Q 432 934 393.5 940.5 Q 355 947 318.5 958.5 Q 282 970 270 970 Q 249 971 209 956 Q 169 941 143.5 927.5 Q 118 914 105 899 Q 92 884 95.5 872.5 Q 99 861 122 859 L 183 856 L 250 851 L 372 845 Q 391 844 489 836 L 586 828 L 709 811 L 1335 762 L 1455 752 Z"/></g><line x1="135.000" y1="166.825" x2="175.000" y2="166.825" stroke="#000" stroke-width="0.3"/></g><g fill="#000000" stroke="none"><g transform="translate(140.900,198.350) scale(0.001709)"><path d="M 263 1419 L 255 1462 Q 248 1497 235.5 1499.5 Q 223 1502 211.5 1497 Q 200 1492 185 1464.5 Q 170 1437 162 1411.5 Q 154 1386 154 1359 Q 154 1341 166 1279 Q 178 1217 186 1167 Q 194 1117 197 1027 L 208 679 Q 208 656 201.5 617 Q 195 578 189.5 560 Q 184 542 172.5 524 Q 161 506 160 496.5 Q 159 487 166 479 Q 173 471 199 474 Q 240 479 258 487 L 285 499 Q 316.5 506 306 557 Q 308 580 308 590 L 300 652 L 289 946 L 285 1002 L 266 1358 L 263 1419 Z"/><path d="M 285 499 Q 313 494 338 488.5 Q 363 483 396.5 475 Q 430 467 451 460 Q 472 453 482 448 L 525 429 Q 535 426 545 426 Q 557 427 574.5 434.5 Q 592 442 620 460.5 Q 648 479 662 494 Q 676 509 677 520 Q 678 531 673 543 L 662 566 Q 658 575 654 600 Q 650 625 647.5 661.5 Q 645 698 645 718 L 639 944 Q 637 999 640.5 1084 Q 644 1169 650 1227 L 658 1311 Q 661 1357 658 1386 Q 653 1422 622 1487.5 Q 591 1553 558 1539 Q 547 1535 536 1520 L 503 1453 Q 418 1303.5 533 1350 Q 544 1230 545 1214 L 556 957 L 554 932 L 554 638 Q 554 559 542.5 546 Q 531 533 517 527 Q 503 521 478 521 Q 433 522 406 530 L 306 557 L 285 499 Z"/><path d="M 556 957 Q 407 1009 357 1005 L 285 1002 L 289 946 Q 342 936 385.5 922 Q 429 908 445 907 Q 459 907 494 916 L 554 932 L 556 957 Z"/><path d="M 503 1453 L 481 1406 Q 458 1408 447 1408 L 317 1417 L 263 1419 L 266 1358 Q 327 1350 377 1345.5 Q 427 1341 447.5 1338 Q 468 1335 481 1336 Q 488 1337 506 1342 L 533 1350 L 503 1453 Z"/><path d="M 1173 518 L 1062 534 Q 1049 536 1004 549 L 956 562 Q 926 571 914 571 Q 899 572 871 567 Q 843 562 826.5 554.5 Q 810 547 788 534 Q 766 521 767 513 Q 767 503 781 496 L 806 493 L 845 487 Q 869 484 941.5 474 Q 1014 464 1062 455 L 1099 448 L 1173 434 L 1293 415 L 1460 385 L 1549 368 Q 1570 368 1597.5 377 Q 1625 386 1648.5 401 Q 1672 416 1686 431 Q 1700 446 1698 460 Q 1696 474 1680 474 L 1624 476 L 1532 479 Q 1474 482 1420 486 Q 1366 490 1362 490 L 1291 499 L 1173 518 Z"/><path d="M 1291 499 L 1288 726 Q 1236 808.5 1170 751 L 1173 518 L 1173 434 L 1173 426 Q 1172 390 1172 385 L 1171 312 Q 1170 295 1168.5 285.5 Q 1167 276 1164 261 Q 1161 246 1154 220 Q 1147 194 1135.5 173 Q 1124 152 1123 140.5 Q 1122 129 1132 120 Q 1142 111 1169 112 Q 1197 114 1222 120 Q 1247 126 1267.5 134 Q 1288 142 1307.5 155.5 Q 1327 169 1330 181 Q 1333 193 1318 228 Q 1308 251 1305 277 L 1298 326 L 1293 415 L 1291 499 Z"/><path d="M 1288 726 Q 1314 721 1344.5 714.5 Q 1375 708 1422.5 695.5 Q 1470 683 1496 683 Q 1519 684 1543 691 Q 1567 698 1602 721 Q 1637 744 1630 757 Q 1623 770 1605 771 L 1565 774 L 1415 785 Q 1345 792 1263.5 807 Q 1182 822 1170 824 Q 1158 826 1147.5 828 Q 1137 830 1123 835 L 1078 852 Q 1041 866 1018 866 Q 992 867 963 857 Q 934 847 913.5 834.5 Q 893 822 892.5 814.5 Q 892 807 901 800 L 937 794 L 984 785 L 1098 766 Q 1116 763 1120 762 L 1170 751 L 1288 726 Z"/><path d="M 1473 1017 L 1654 988 Q 1734 976 1756 978 Q 1778 980 1820.5 995.5 Q 1863 1011 1881 1034.5 Q 1899 1058 1893 1070.5 Q 1887 1083 1852 1083 L 1808 1083 L 1766 1083 L 1599 1091 L 1471 1097 L 1360 1106 Q 1311 1113 1284 1117 Q 1257 1121 1171.5 1136 Q 1086 1151 1022.5 1160 Q 959 1169 934 1174 L 876 1189 Q 851 1195 834 1195 Q 801 1196 768.5 1183 Q 736 1170 716.5 1156.5 Q 697 1143 700 1133 Q 702 1125 717 1119 L 753 1116 L 822 1108 Q 877 1102 1051.5 1079 Q 1226 1056 1285 1046 L 1354 1035 L 1473 1017 Z"/><path d="M 1354 1035 L 1351 988 Q 1349 959 1341.5 934.5 Q 1334 910 1329 899 L 1317 880 Q 1313 874 1311.5 864 Q 1310 854 1318.5 848 Q 1327 842 1346 844 Q 1384 851 1422 863.5 Q 1460 876 1473 886 Q 1486 896 1489 906.5 Q 1492 917 1490 930 Q 1489 934 1481.5 955.5 Q 1474 977 1474 994 L 1473 1017 L 1471 1097 L 1477 1375 L 1479 1556 L 1482 1638 Q 1482 1709 1471 1769 Q 1459 1829 1437.5 1865 Q 1416 1901 1380.5 1923.5 Q 1345 1946 1326 1936 Q 1316 1932 1295 1903 Q 1274 1874 1241.5 1837 Q 1209 1800 1185 1778 L 1137 1738 L 1115 1719 Q 1109 1715 1114 1707 Q 1119 1699 1126 1700 L 1151 1706 Q 1162 1709 1207.5 1722 Q 1253 1735 1278.5 1739 Q 1304 1743 1317 1738 Q 1342 1729 1347.5 1670.5 Q 1353 1612 1357.5 1511.5 Q 1362 1411 1362 1364 L 1360 1106 L 1354 1035 Z"/><path d="M 901 1280 L 934 1286 Q 952 1290 990 1305 Q 1028 1320 1052 1337.5 Q 1076 1355 1087 1376 Q 1098 1397 1098 1428 Q 1097 1451 1084 1476.5 Q 1071 1502 1042 1500 Q 1028 1500 1010.5 1486 Q 993 1472 957 1423 Q 921 1374 890 1325 L 881 1311 Q 872 1299 878 1288 Q 884 1277 901 1280 Z"/></g><g transform="translate(144.800,198.350) scale(0.001709)"><path d="M 263 1419 L 255 1462 Q 248 1497 235.5 1499.5 Q 223 1502 211.5 1497 Q 200 1492 185 1464.5 Q 170 1437 162 1411.5 Q 154 1386 154 1359 Q 154 1341 166 1279 Q 178 1217 186 1167 Q 194 1117 197 1027 L 208 679 Q 208 656 201.5 617 Q 195 578 189.5 560 Q 184 542 172.5 524 Q 161 506 160 496.5 Q 159 487 166 479 Q 173 471 199 474 Q 240 479 258 487 L 285 499 Q 316.5 506 306 557 Q 308 580 308 590 L 300 652 L 289 946 L 285 1002 L 266 1358 L 263 1419 Z"/><path d="M 285 499 Q 313 494 338 488.5 Q 363 483 396.5 475 Q 430 467 451 460 Q 472 453 482 448 L 525 429 Q 535 426 545 426 Q 557 427 574.5 434.5 Q 592 442 620 460.5 Q 648 479 662 494 Q 676 509 677 520 Q 678 531 673 543 L 662 566 Q 658 575 654 600 Q 650 625 647.5 661.5 Q 645 698 645 718 L 639 944 Q 637 999 640.5 1084 Q 644 1169 650 1227 L 658 1311 Q 661 1357 658 1386 Q 653 1422 622 1487.5 Q 591 1553 558 1539 Q 547 1535 536 1520 L 503 1453 Q 418 1303.5 533 1350 Q 544 1230 545 1214 L 556 957 L 554 932 L 554 638 Q 554 559 542.5 546 Q 531 533 517 527 Q 503 521 478 521 Q 433 522 406 530 L 306 557 L 285 499 Z"/><path d="M 556 957 Q 407 1009 357 1005 L 285 1002 L 289 946 Q 342 936 385.5 922 Q 429 908 445 907 Q 459 907 494 916 L 554 932 L 556 957 Z"/><path d="M 503 1453 L 481 1406 Q 458 1408 447 1408 L 317 1417 L 263 1419 L 266 1358 Q 327 1350 377 1345.5 Q 427 1341 447.5 1338 Q 468 1335 481 1336 Q 488 1337 506 1342 L 533 1350 L 503 1453 Z"/><path d="M 1173 518 L 1062 534 Q 1049 536 1004 549 L 956 562 Q 926 571 914 571 Q 899 572 871 567 Q 843 562 826.5 554.5 Q 810 547 788 534 Q 766 521 767 513 Q 767 503 781 496 L 806 493 L 845 487 Q 869 484 941.5 474 Q 1014 464 1062 455 L 1099 448 L 1173 434 L 1293 415 L 1460 385 L 1549 368 Q 1570 368 1597.5 377 Q 1625 386 1648.5 401 Q 1672 416 1686 431 Q 1700 446 1698 460 Q 1696 474 1680 474 L 1624 476 L 1532 479 Q 1474 482 1420 486 Q 1366 490 1362 490 L 1291 499 L 1173 518 Z"/><path d="M 1291 499 L 1288 726 Q 1236 808.5 1170 751 L 1173 518 L 1173 434 L 1173 426 Q 1172 390 1172 385 L 1171 312 Q 1170 295 1168.5 285.5 Q 1167 276 1164 261 Q 1161 246 1154 220 Q 1147 194 1135.5 173 Q 1124 152 1123 140.5 Q 1122 129 1132 120 Q 1142 111 1169 112 Q 1197 114 1222 120 Q 1247 126 1267.5 134 Q 1288 142 1307.5 155.5 Q 1327 169 1330 181 Q 1333 193 1318 228 Q 1308 251 1305 277 L 1298 326 L 1293 415 L 1291 499 Z"/><path d="M 1288 726 Q 1314 721 1344.5 714.5 Q 1375 708 1422.5 695.5 Q 1470 683 1496 683 Q 1519 684 1543 691 Q 1567 698 1602 721 Q 1637 744 1630 757 Q 1623 770 1605 771 L 1565 774 L 1415 785 Q 1345 792 1263.5 807 Q 1182 822 1170 824 Q 1158 826 1147.5 828 Q 1137 830 1123 835 L 1078 852 Q 1041 866 1018 866 Q 992 867 963 857 Q 934 847 913.5 834.5 Q 893 822 892.5 814.5 Q 892 807 901 800 L 937 794 L 984 785 L 1098 766 Q 1116 763 1120 762 L 1170 751 L 1288 726 Z"/><path d="M 1473 1017 L 1654 988 Q 1734 976 1756 978 Q 1778 980 1820.5 995.5 Q 1863 1011 1881 1034.5 Q 1899 1058 1893 1070.5 Q 1887 1083 1852 1083 L 1808 1083 L 1766 1083 L 1599 1091 L 1471 1097 L 1360 1106 Q 1311 1113 1284 1117 Q 1257 1121 1171.5 1136 Q 1086 1151 1022.5 1160 Q 959 1169 934 1174 L 876 1189 Q 851 1195 834 1195 Q 801 1196 768.5 1183 Q 736 1170 716.5 1156.5 Q 697 1143 700 1133 Q 702 1125 717 1119 L 753 1116 L 822 1108 Q 877 1102 1051.5 1079 Q 1226 1056 1285 1046 L 1354 1035 L 1473 1017 Z"/><path d="M 1354 1035 L 1351 988 Q 1349 959 1341.5 934.5 Q 1334 910 1329 899 L 1317 880 Q 1313 874 1311.5 864 Q 1310 854 1318.5 848 Q 1327 842 1346 844 Q 1384 851 1422 863.5 Q 1460 876 1473 886 Q 1486 896 1489 906.5 Q 1492 917 1490 930 Q 1489 934 1481.5 955.5 Q 1474 977 1474 994 L 1473 1017 L 1471 1097 L 1477 1375 L 1479 1556 L 1482 1638 Q 1482 1709 1471 1769 Q 1459 1829 1437.5 1865 Q 1416 1901 1380.5 1923.5 Q 1345 1946 1326 1936 Q 1316 1932 1295 1903 Q 1274 1874 1241.5 1837 Q 1209 1800 1185 1778 L 1137 1738 L 1115 1719 Q 1109 1715 1114 1707 Q 1119 1699 1126 1700 L 1151 1706 Q 1162 1709 1207.5 1722 Q 1253 1735 1278.5 1739 Q 1304 1743 1317 1738 Q 1342 1729 1347.5 1670.5 Q 1353 1612 1357.5 1511.5 Q 1362 1411 1362 1364 L 1360 1106 L 1354 1035 Z"/><path d="M 901 1280 L 934 1286 Q 952 1290 990 1305 Q 1028 1320 1052 1337.5 Q 1076 1355 1087 1376 Q 1098 1397 1098 1428 Q 1097 1451 1084 1476.5 Q 1071 1502 1042 1500 Q 1028 1500 1010.5 1486 Q 993 1472 957 1423 Q 921 1374 890 1325 L 881 1311 Q 872 1299 878 1288 Q 884 1277 901 1280 Z"/></g><g transform="translate(148.700,198.350) scale(0.001709)"><path d="M 545 750 L 435 765 Q 397 771 374.5 772 Q 352 773 324 770 Q 296 767 277.5 763.5 Q 259 760 241.5 748.5 Q 224 737 227.5 726 Q 231 715 248 713 L 292 708 Q 317 706 387.5 695.5 Q 458 685 480 679 L 546 664 L 643 644 Q 674 635 703.5 624.5 Q 733 614 748 612 Q 771 610 790 614.5 Q 809 619 822 624 Q 835 629 852 639 Q 869 649 869.5 659 Q 870 669 862 678 Q 852 688 808 698.5 Q 764 709 738 715 Q 712 721 688 724 L 639 732 L 545 750 Z"/><path d="M 546 664 L 547 513 Q 547 460 540 393 Q 533 326 527 294 Q 521 262 509.5 233.5 Q 498 205 496.5 186 Q 495 167 506 160 Q 517 153 530 152 Q 555 151 585 163 Q 615 175 650.5 195.5 Q 686 216 698 234 Q 710 252 710.5 264.5 Q 711 277 701 297 L 687 323 Q 678 342 671 368.5 Q 664 395 661.5 411.5 Q 659 428 651.5 496 Q 644 564 644 584 L 643 644 L 639 732 L 634 959 L 635 1037 L 629 1268 Q 628 1288 633 1357 L 638 1468 Q 639 1510 639.5 1537 Q 640 1564 635 1596 Q 629 1633 614.5 1668 Q 600 1703 581.5 1727 Q 563 1751 550.5 1757 Q 538 1763 527 1760 Q 514 1758 501 1739 L 480 1707 Q 470 1694 429 1649.5 Q 388 1605 379 1596 L 324 1549 Q 308 1536 315.5 1526.5 Q 323 1517 338 1521 L 426 1546 L 459 1556 Q 486 1563 499 1554 Q 509 1547 512.5 1531.5 Q 516 1516 518 1484 L 536 1113 L 544 1014 L 545 750 L 546 664 Z"/><path d="M 634 959 L 771 875 Q 785 866 795 876 Q 805 886 785 904 L 635 1037 L 536 1113 L 409 1219 Q 368 1253 343.5 1275 Q 319 1297 301.5 1315.5 Q 284 1334 271 1350.5 Q 258 1367 250.5 1369.5 Q 243 1372 232 1370 Q 215 1369 201 1362.5 Q 187 1356 154 1333 Q 121 1310 107.5 1290 Q 94 1270 96 1259 Q 97 1253 102 1249 Q 107 1245 126 1243 Q 145 1241 175.5 1229 Q 206 1217 228 1203 L 544 1014 L 634 959 Z"/><path d="M 1279 727 L 1283 430 Q 1283 373 1281.5 339 Q 1280 305 1263.5 275 Q 1247 245 1242.5 230 Q 1238 215 1248 207 Q 1258 199 1277 200 Q 1295 202 1320.5 208.5 Q 1346 215 1369.5 223 Q 1393 231 1403.5 242.5 Q 1414 254 1415 267 Q 1416 280 1400 322 Q 1391 344 1385 396.5 Q 1379 449 1379 504 L 1377 832 Q 1376 926 1373 970 Q 1370 1014 1366.5 1038 Q 1363 1062 1352 1090.5 Q 1341 1119 1327 1117 Q 1318 1117 1303 1100.5 Q 1288 1084 1278.5 1066 Q 1269 1048 1261 1022 Q 1253 996 1255 970 Q 1255 965 1261 931.5 Q 1267 898 1272.5 832 Q 1278 766 1279 727 Z"/><path d="M 878 1098 L 852 1120 Q 835 1135 826.5 1127.5 Q 818 1120 833 1096 L 855 1061 Q 874 1031 902.5 972.5 Q 931 914 950 868 Q 969 822 980 787 Q 991 752 997 719.5 Q 1003 687 999 667.5 Q 995 648 996 638.5 Q 997 629 1005 626 Q 1013 623 1023 624 Q 1039 627 1057.5 633 Q 1076 639 1104 654.5 Q 1132 670 1148 690.5 Q 1164 711 1160 724 Q 1158 730 1136 756 Q 1114 782 1108 790.5 Q 1102 799 1080.5 838 Q 1059 877 1039 908 Q 1019 939 990 975 Q 961 1011 927.5 1047.5 Q 894 1084 878 1098 Z"/><path d="M 1575 632 Q 1563 624 1562.5 611.5 Q 1562 599 1582 602 L 1624 610 Q 1646 615 1678 623.5 Q 1710 632 1771.5 653.5 Q 1833 675 1873 700.5 Q 1913 726 1930.5 751 Q 1948 776 1951 817 Q 1954 858 1938 877.5 Q 1922 897 1901.5 901 Q 1881 905 1852 885 Q 1835 874 1804.5 839 Q 1774 804 1725 756.5 Q 1676 709 1654 692 L 1575 632 Z"/><path d="M 768 1872 L 806 1850 Q 829 1837 877 1802.5 Q 925 1768 994.5 1711 Q 1064 1654 1153 1570.5 Q 1242 1487 1305.5 1414.5 Q 1369 1342 1423.5 1264 Q 1478 1186 1502.5 1141.5 Q 1527 1097 1551 1044 Q 1575 991 1576 947 Q 1577 903 1585 889 Q 1593 875 1610 874 Q 1619 874 1645 891 Q 1671 908 1690.5 922 Q 1710 936 1732.5 961 Q 1755 986 1753 1003 Q 1751 1015 1729 1037 Q 1707 1059 1686.5 1085.5 Q 1666 1112 1626 1171 Q 1586 1230 1560 1266.5 Q 1534 1303 1474.5 1377.5 Q 1415 1452 1353 1517 Q 1291 1582 1223 1638.5 Q 1155 1695 1112 1725.5 Q 1069 1756 998.5 1798 Q 928 1840 890.5 1857 Q 853 1874 821 1883 L 773 1897 Q 759 1901 755.5 1891 Q 752 1881 768 1872 Z"/></g><g transform="translate(152.600,198.350) scale(0.001709)"><path d="M 522 915 Q 477 924 460.5 928 Q 444 932 392 947.5 Q 340 963 324.5 970 Q 309 977 290 988 Q 271 999 263 998 Q 248 998 236.5 984.5 Q 225 971 215 949 Q 205 927 200 908 Q 195 889 200 879 Q 203 872 222.5 859 Q 242 846 256 835 Q 270 824 305 786 Q 340 748 377.5 687.5 Q 415 627 453 554 Q 491 481 504 448 Q 517 415 526.5 379.5 Q 536 344 536.5 322.5 Q 537 301 542 293.5 Q 547 286 556.5 283.5 Q 566 281 585 292 Q 619 313 638.5 326.5 Q 658 340 673.5 362 Q 689 384 686 400 Q 683 410 666 427 Q 649 444 635.5 459.5 Q 622 475 601.5 502 Q 581 529 523 609.5 Q 465 690 461 696 L 376 808 Q 355 836 348 849.5 Q 341 863 346.5 872.5 Q 352 882 389 879 L 556 866 Q 596 893.5 522 915 Z"/><path d="M 556 866 L 633 747 Q 652 718 667.5 679 Q 683 640 685 618 Q 687 596 692 588 Q 697 580 707 578.5 Q 717 577 732 585 Q 744 593 760 609 Q 776 625 789 645.5 Q 802 666 810 687 Q 818 708 808 723 Q 805 727 789 738.5 Q 773 750 751 775 L 708 822 Q 697 835 660 884.5 Q 623 934 552 1018 L 417 1178 Q 391 1209 393.5 1215 Q 396 1221 411 1224 L 482 1201 L 656 1149 Q 692.5 1155 679 1191 L 482 1262 Q 457 1271 423.5 1287.5 Q 390 1304 372.5 1313.5 Q 355 1323 339.5 1335.5 Q 324 1348 316 1347 Q 309 1347 301 1342 Q 293 1337 281 1322.5 Q 269 1308 261 1294.5 Q 253 1281 247 1261.5 Q 241 1242 246 1232 Q 249 1225 275.5 1211 Q 302 1197 326.5 1168.5 Q 351 1140 400 1079.5 Q 449 1019 458 1006 L 522 915 L 556 866 Z"/><path d="M 656 1149 Q 640 1118 629.5 1099.5 Q 619 1081 614.5 1069.5 Q 610 1058 613.5 1053.5 Q 617 1049 632 1050 Q 651 1052 677 1061 Q 703 1070 729.5 1085.5 Q 756 1101 775.5 1125 Q 795 1149 800.5 1183.5 Q 806 1218 794 1242 Q 785 1259 769.5 1266.5 Q 754 1274 740 1267 Q 731 1264 720 1248 L 701 1221 L 679 1191 L 656 1149 Z"/><path d="M 132 1480 L 159 1491 Q 169 1496 199.5 1516.5 Q 230 1537 248.5 1551.5 Q 267 1566 282 1590 Q 297 1614 302 1637.5 Q 307 1661 305 1689 Q 302 1722 293.5 1736.5 Q 285 1751 274 1758.5 Q 263 1766 249 1765 Q 232 1764 220 1751.5 Q 208 1739 193 1708 Q 178 1677 172 1660 L 146 1595 Q 129 1553 125 1539 L 113 1499 Q 110 1487 114 1481 Q 118 1475 132 1480 Z"/><path d="M 378 1452 L 369 1430 Q 365 1421 368.5 1415.5 Q 372 1410 385 1413 L 413 1422 Q 437 1430 455 1437 Q 473 1444 496.5 1459 Q 520 1474 531 1487 Q 542 1500 547.5 1519 Q 553 1538 548 1563 Q 543 1586 531.5 1597.5 Q 520 1609 502.5 1610.5 Q 485 1612 465 1595 Q 450 1584 436.5 1563 Q 423 1542 409 1514 Q 395 1486 387.5 1472.5 Q 380 1459 378 1452 Z"/><path d="M 599 1363 L 590 1343 Q 585 1334 588.5 1328.5 Q 592 1323 604 1326 L 630 1334 Q 651 1341 669 1348 Q 687 1355 708.5 1368 Q 730 1381 742 1395 Q 754 1409 759 1430.5 Q 764 1452 758 1472 Q 753 1488 742.5 1498.5 Q 732 1509 716 1511 Q 700 1513 681 1497 Q 668 1488 652 1463 Q 636 1438 629 1423 L 613 1390 L 599 1363 Z"/><path d="M 1081 444 Q 1201 422 1274 406.5 Q 1347 391 1401.5 372.5 Q 1456 354 1477 353 Q 1497 353 1520.5 359.5 Q 1544 366 1564.5 378.5 Q 1585 391 1595 403 Q 1605 415 1605 425 Q 1604 441 1562.5 454 Q 1521 467 1452 480.5 Q 1383 494 1318.5 503 Q 1254 512 1169 523.5 Q 1084 535 1061 533 Q 1021 532 989 518.5 Q 957 505 944.5 491.5 Q 932 478 935.5 471 Q 939 464 953 462 L 1081 444 Z"/><path d="M 921 995 Q 923 1003 938 1015 Q 953 1027 981 1042 Q 1009 1057 1045 1081.5 Q 1081 1106 1092 1125 Q 1103 1144 1103.5 1173 Q 1104 1202 1093 1221 Q 1082 1240 1063 1241.5 Q 1044 1243 1015 1206 Q 995 1182 974.5 1158 Q 954 1134 931 1108.5 Q 908 1083 881 1056.5 Q 854 1030 853.5 1018 Q 853 1006 869 976 Q 879 957 893 917 L 913 859 Q 933 798 941.5 763 Q 950 728 953 698.5 Q 956 669 965 662 Q 974 655 992 658 Q 1004 661 1031 680.5 Q 1058 700 1072.5 715.5 Q 1087 731 1086 746 Q 1085 757 1065 777 Q 1045 797 1025 827 L 992 875 L 945 944 Q 929 967 924.5 980 Q 920 993 921 995 Z"/><path d="M 1203 951 Q 1204 956 1225 969.5 Q 1246 983 1276.5 997.5 Q 1307 1012 1341 1029.5 Q 1375 1047 1386 1064 Q 1397 1081 1397.5 1110.5 Q 1398 1140 1387 1159.5 Q 1376 1179 1359.5 1179.5 Q 1343 1180 1319 1154 Q 1264 1097 1245 1077.5 Q 1226 1058 1194.5 1032 Q 1163 1006 1150.5 994 Q 1138 982 1137.5 969.5 Q 1137 957 1153 927 Q 1159 915 1178 867 L 1197 820 Q 1217 768 1224.5 735.5 Q 1232 703 1236 670 Q 1240 637 1249 630.5 Q 1258 624 1276 627 Q 1291 631 1311 645 Q 1331 659 1351 678.5 Q 1371 698 1371 711 Q 1370 722 1348.5 742 Q 1327 762 1292 808.5 Q 1257 855 1240 876 Q 1223 897 1211.5 920 Q 1200 943 1203 951 Z"/><path d="M 1514 909 Q 1515 916 1539 929.5 Q 1563 943 1604.5 956.5 Q 1646 970 1676 984.5 Q 1706 999 1724.5 1018.5 Q 1743 1038 1748.5 1072.5 Q 1754 1107 1739 1126 Q 1724 1145 1704 1144 Q 1687 1144 1666 1122.5 Q 1645 1101 1604.5 1062.5 Q 1564 1024 1546 1011 L 1472 961 Q 1450 943 1448 928.5 Q 1446 914 1462 886 Q 1478 857 1491 832 Q 1504 807 1520.5 762 Q 1537 717 1543.5 686.5 Q 1550 656 1554.5 620.5 Q 1559 585 1568.5 578.5 Q 1578 572 1595 575 Q 1609 578 1632.5 595 Q 1656 612 1673.5 631.5 Q 1691 651 1689 666 Q 1687 676 1666 698 Q 1645 720 1630 738 Q 1615 756 1581.5 802.5 Q 1548 849 1530.5 878 Q 1513 907 1514 909 Z"/><path d="M 1195 1362 L 1034 1373 Q 1007 1375 980 1369.5 Q 953 1364 937.5 1349.5 Q 922 1335 923 1325 Q 924 1314 965 1308 L 1052 1298 L 1304 1263 Q 1366 1255 1428.5 1239 Q 1491 1223 1513 1223 Q 1524 1224 1567 1231.5 Q 1610 1239 1624.5 1249.5 Q 1639 1260 1638 1269 Q 1637 1278 1623.5 1287.5 Q 1610 1297 1581 1301 L 1316 1342 L 1195 1362 Z"/><path d="M 1227 1627 Q 1225 1548 1222.5 1492.5 Q 1220 1437 1213 1416 L 1195 1362 L 1316 1342 Q 1333 1354 1340 1364 Q 1347 1374 1347.5 1388 Q 1348 1402 1339.5 1433 Q 1331 1464 1329 1491 L 1318 1619 Q 1271.5 1671 1227 1627 Z"/><path d="M 1318 1619 L 1575 1591 Q 1653 1583 1707.5 1572 Q 1762 1561 1784 1562 Q 1806 1565 1834.5 1576.5 Q 1863 1588 1885 1601 Q 1907 1614 1922 1631.5 Q 1937 1649 1934 1658.5 Q 1931 1668 1922 1674 Q 1910 1682 1894 1681 Q 1878 1680 1816 1680 L 1641 1674 Q 1606 1674 1489 1680 L 1296 1689 Q 1194 1696 1118 1706.5 Q 1042 1717 983.5 1729.5 Q 925 1742 885 1753.5 Q 845 1765 827 1764 Q 808 1764 783.5 1756.5 Q 759 1749 747.5 1743 Q 736 1737 707 1720 Q 678 1703 677 1688 Q 676 1673 696 1672 L 755 1670 Q 770 1670 826 1666 Q 882 1662 904 1660 L 1069 1642 L 1227 1627 L 1318 1619 Z"/></g></g></svg>