<svg xmlns="http://www.w3.org/2000/svg" viewBox="0 0 297.000 210.000" width="297.000mm" height="210.000mm"><g fill="#000000" stroke="none"><g transform="translate(104.000,68.600) scale(0.006836)"><path d="M 918 600 Q 898 588 886.5 579 Q 875 570 850.5 542.5 Q 826 515 788 448 Q 750 381 731 344 L 715 314 Q 710 307 719.5 298.5 Q 729 290 740 292 L 776 300 Q 793 304 853 331.5 Q 913 359 937.5 377 Q 962 395 978.5 425.5 Q 995 456 996 492 Q 996 527 987 551 L 973 590 Q 951.5 627 918 600 Z"/><path d="M 1109 659 Q 994 669 947 675 Q 900 681 731.5 708.5 Q 563 736 497.5 754 Q 432 772 410 773 Q 371 776 342.5 766 Q 314 756 287.5 741.5 Q 261 727 257.5 713.5 Q 254 700 262 692 Q 266 689 284 687 L 328 681 L 356 679 Q 414 675 553 653.5 Q 692 632 838 611 L 918 600 L 973 590 L 1254 548 Q 1328 537 1371 525 Q 1414 513 1430 513 Q 1444 514 1499 528 Q 1554 542 1578.5 565.5 Q 1603 589 1604.5 601.5 Q 1606 614 1593 624 Q 1584 631 1564.5 631.5 Q 1545 632 1514.5 634 Q 1484 636 1409 636.5 Q 1334 637 1310 639 L 1185 651 L 1109 659 Z"/><path d="M 940 1176 Q 972 1134 998.5 1094.5 Q 1025 1055 1058 977.5 Q 1091 900 1109 826 Q 1127 752 1119 715 L 1109 659 L 1185 651 Q 1214 668 1249 689.5 Q 1284 711 1292 733.5 Q 1300 756 1298.5 764.5 Q 1297 773 1290 784 L 1274 807 Q 1262 825 1246 862 L 1205 956 Q 1141 1102 1115 1140 L 1040 1255 L 959 1349 Q 879 1419 810.5 1472 Q 742 1525 646 1571.5 Q 550 1618 442 1644 Q 334 1670 268 1669.5 Q 202 1669 186 1666 L 147 1659 Q 134 1657 133.5 1647 Q 133 1637 147 1634 L 200 1623 Q 252 1613 346 1584.5 Q 440 1556 566 1488.5 Q 692 1421 768 1351 L 874 1257 L 940 1176 Z"/><path d="M 874 1257 Q 824 1199 799 1173 Q 774 1147 718 1093 Q 662 1039 628.5 1011.5 Q 595 984 565.5 965.5 Q 536 947 516 938 Q 496 929 475 927 Q 454 925 449.5 920.5 Q 445 916 444.5 906.5 Q 444 897 459.5 888.5 Q 475 880 501 879 Q 525 879 538 881.5 Q 551 884 567.5 891 Q 584 898 618 918 Q 652 938 680 957.5 Q 708 977 751 1012 L 853 1101 L 940 1176 L 1040 1255 Q 1100 1304 1162 1350.5 Q 1224 1397 1304 1443 Q 1384 1489 1499.5 1538.5 Q 1615 1588 1708 1618 L 1866 1668 L 1898 1679 Q 1920 1687 1914.5 1700.5 Q 1909 1714 1898 1715 L 1874 1718 Q 1831 1724 1673.5 1742 Q 1516 1760 1468 1757 Q 1408 1755 1368 1738.5 Q 1328 1722 1287.5 1689.5 Q 1247 1657 1191 1600.5 Q 1135 1544 1030 1427 L 959 1349 L 874 1257 Z"/></g><g transform="translate(119.000,68.600) scale(0.006836)"><path d="M 435 569 Q 400 577 385.5 579 Q 371 581 355 581.5 Q 339 582 324 581 Q 290 580 264.5 572 Q 239 564 227.5 551.5 Q 216 539 219.5 532.5 Q 223 526 249 522 L 310 513 Q 344 508 405.5 496 Q 467 484 515.5 472 Q 564 460 616.5 442.5 Q 669 425 685 420.5 Q 701 416 716 416 Q 732 417 756.5 427.5 Q 781 438 797.5 449 Q 814 460 814 472 Q 813 485 796.5 494 Q 780 503 755 509 L 702 523 L 598 543 L 516 561 L 435 569 Z"/><path d="M 293 1053 Q 280 1068 264 1086 Q 248 1104 221 1128 Q 194 1152 185 1159 L 161 1177 Q 145 1189 137.5 1182 Q 130 1175 140 1163 L 162 1136 Q 170 1126 197 1088.5 Q 224 1051 249 1014.5 Q 274 978 299.5 928.5 Q 325 879 357 811.5 Q 389 744 405 703 Q 421 662 427 632.5 Q 433 603 434 596 L 435 569 L 516 561 Q 534 574 552.5 591.5 Q 571 609 567.5 619.5 Q 564 630 550.5 644.5 Q 537 659 521 692 L 482 767 L 454 825 L 426 871 Q 393 924 388 931 L 319 1028 L 293 1053 Z"/><path d="M 454 825 Q 476 822 495.5 819 Q 515 816 559.5 806.5 Q 604 797 634 784 Q 664 771 673 769 Q 690 767 721 781.5 Q 752 796 779 815.5 Q 806 835 805 852 Q 804 863 786 884 Q 768 905 762 913 Q 756 921 740.5 948 Q 725 975 707 1012 L 653 1124 Q 623 1184 573.5 1270.5 Q 524 1357 485.5 1412 Q 447 1467 392 1527.5 Q 337 1588 285.5 1632 Q 234 1676 197 1699 Q 160 1722 126 1739 L 102 1751 Q 86 1759 83 1749 Q 80 1739 87 1732 L 109 1712 L 150 1676 Q 182 1648 242.5 1580 Q 303 1512 337 1467.5 Q 371 1423 410 1360 L 435 1319 L 469 1264 L 508 1198 Q 525 1162 535 1143 L 559 1096 Q 587 1038 604.5 986 Q 622 934 636.5 902 Q 651 870 642 862.5 Q 633 855 621 856 Q 609 857 580 865 L 505 878 Q 463 887 458 884 L 426 871 L 454 825 Z"/><path d="M 469 1264 Q 459 1265 450.5 1264.5 Q 442 1264 432 1258.5 Q 422 1253 406 1224.5 Q 390 1196 360.5 1149.5 Q 331 1103 314 1080 L 293 1053 L 319 1028 Q 341 1037 370.5 1049 Q 400 1061 435.5 1087.5 Q 471 1114 486.5 1137.5 Q 502 1161 503 1165 L 508 1198 L 469 1264 Z"/><path d="M 975 737 Q 958 765 939.5 793 Q 921 821 892.5 849.5 Q 864 878 850 889 L 825 909 Q 814 918 807.5 912.5 Q 801 907 808 895 L 819 876 Q 829 859 851.5 808.5 Q 874 758 890 711 Q 906 664 915 619.5 Q 924 575 928 541 Q 931 511 927.5 489 Q 924 467 928.5 461 Q 933 455 946 453 Q 956 452 973 459 Q 990 466 1014.5 480 Q 1039 494 1050.5 508 Q 1062 522 1063.5 531 Q 1065 540 1059 552 L 1041 578 Q 1034 588 1022 620 L 1000 677 L 975 737 Z"/><path d="M 1169 733 Q 1136 741 1127 742 Q 1118 743 1084 745 Q 1050 747 1050 746 L 975 737 L 1000 677 Q 1056 671 1064 669 L 1170 650 L 1264 631 Q 1306 620 1341.5 610.5 Q 1377 601 1408 587.5 Q 1439 574 1450 572 Q 1466 570 1486.5 574.5 Q 1507 579 1526 587 Q 1545 595 1558.5 606 Q 1572 617 1572.5 626.5 Q 1573 636 1561 645.5 Q 1549 655 1508 665 L 1392 695 L 1261 717 L 1169 733 Z"/><path d="M 1125 1031 L 994 1048 Q 950 1054 921.5 1063.5 Q 893 1073 885 1073 Q 866 1075 836 1062 L 789 1042 Q 769 1034 757.5 1021.5 Q 746 1009 750.5 1002 Q 755 995 770 993 L 928 972 L 1164 942 L 1257 929 L 1367 912 Q 1418 904 1465 896 Q 1512 888 1544.5 879.5 Q 1577 871 1590 870 Q 1611 870 1643.5 882 Q 1676 894 1697.5 908 Q 1719 922 1732.5 935 Q 1746 948 1746 956 Q 1745 968 1735.5 974 Q 1726 980 1685 981 L 1606 984 Q 1557 986 1397 998 L 1254 1009 L 1125 1031 Z"/><path d="M 1164 942 L 1169 733 L 1170 650 L 1170 366 Q 1170 322 1162 269.5 Q 1154 217 1141 192 Q 1128 167 1130 158.5 Q 1132 150 1140.5 144.5 Q 1149 139 1175 141 Q 1203 145 1215.5 147.5 Q 1228 150 1253 162 Q 1278 174 1295 186 Q 1312 198 1313 207.5 Q 1314 217 1309 230 Q 1301 250 1297 262 Q 1293 274 1289 299.5 Q 1285 325 1279.5 368 Q 1274 411 1273 447 L 1264 631 L 1261 717 L 1257 929 L 1254 1009 L 1254 1035 L 1251 1108 L 1254 1493 L 1258 1692 L 1260 1761 Q 1257 1804 1242.5 1835.5 Q 1228 1867 1214.5 1887.5 Q 1201 1908 1189 1909.5 Q 1177 1911 1164 1901 Q 1146 1889 1126 1828 L 1111 1784 Q 1105 1761 1108 1736 Q 1109 1727 1114.5 1701.5 Q 1120 1676 1127.5 1637.5 Q 1135 1599 1137.5 1576.5 Q 1140 1554 1143 1496 L 1159 1162 L 1164 942 Z"/><path d="M 1159 1162 Q 1134 1196 1103.5 1236 Q 1073 1276 1023 1333.5 Q 973 1391 909.5 1446.5 Q 846 1502 787.5 1535.5 Q 729 1569 662.5 1597.5 Q 596 1626 580 1631 L 546 1642 Q 525 1649 519.5 1640.5 Q 514 1632 535 1620 L 555 1610 Q 570 1602 639.5 1552.5 Q 709 1503 750.5 1470.5 Q 792 1438 851.5 1380.5 Q 911 1323 958 1267 Q 1005 1211 1046 1152.5 Q 1087 1094 1103 1067 L 1125 1031 Q 1268 966.5 1159 1162 Z"/><path d="M 1254 1035 Q 1285 1070 1317 1105.5 Q 1349 1141 1399.5 1193.5 Q 1450 1246 1497.5 1284.5 Q 1545 1323 1607 1365 Q 1669 1407 1714.5 1431 Q 1760 1455 1820.5 1479.5 Q 1881 1504 1898 1509 L 1940 1524 Q 1965 1534 1965.5 1543.5 Q 1966 1553 1949 1557 L 1907 1568 Q 1879 1576 1832 1582 Q 1785 1588 1758 1590.5 Q 1731 1593 1695 1593 Q 1654 1594 1634.5 1588.5 Q 1615 1583 1592 1567.5 Q 1569 1552 1520 1488 L 1444 1390 Q 1426 1367 1365 1276 L 1306 1190 L 1251 1108 L 1254 1035 Z"/></g><g transform="translate(134.000,68.600) scale(0.006836)"><path d="M 774 471 L 792 587 Q 798 627 794.5 645.5 Q 791 664 777.5 669 Q 764 674 753.5 660 Q 743 646 732 612 L 690 493 L 663 425 Q 650 390 642 371 Q 634 352 619.5 320.5 Q 605 289 591 270.5 Q 577 252 572 240 Q 567 228 573.5 218 Q 580 208 599 204 Q 618 201 645 205.5 Q 672 210 697.5 215 Q 723 220 733.5 228 Q 744 236 748 245 Q 750 252 747.5 279.5 Q 745 307 750 336 L 762 410 L 774 471 Z"/><path d="M 690 493 Q 669 499 656.5 503 Q 644 507 606 521 Q 568 535 540.5 543 Q 513 551 491 562 Q 469 573 464 573 Q 447 575 429 564.5 Q 411 554 379.5 530 Q 348 506 337.5 486.5 Q 327 467 333 457.5 Q 339 448 362 447 Q 370 447 405 451.5 Q 440 456 491 451 Q 544 447 602 436 L 663 425 L 762 410 L 852 395 L 890 392 Q 916 390 925.5 400.5 Q 935 411 928.5 422.5 Q 922 434 899 440 L 860 451 L 774 471 L 690 493 Z"/><path d="M 1200 450 Q 1184 454 1172 458 Q 1160 462 1158 462 Q 1140 466 1118 456 L 1079 436 Q 1042 418 1045.5 407.5 Q 1049 397 1058 395 L 1091 389 L 1177 375 L 1218 367 L 1339 343 Q 1376 338 1385.5 335.5 Q 1395 333 1416 328 L 1475 314 Q 1503 307 1515 306 Q 1531 306 1552 313.5 Q 1573 321 1601.5 334 Q 1630 347 1645 360 Q 1660 373 1657 387 Q 1654 401 1628 403 L 1578 408 Q 1539 412 1484 414 Q 1429 416 1405.5 418 Q 1382 420 1344 425 L 1303 431 L 1200 450 Z"/><path d="M 1303 431 Q 1294 454 1289 464 L 1244 546 Q 1225 582 1219 590 L 1191 628 Q 1170 656 1157 650 Q 1144 644 1152 617 L 1170 557 L 1191 487 L 1200 450 L 1218 367 Q 1223 339 1227 317 Q 1231 295 1234 275 Q 1237 255 1239 228 Q 1240 197 1233.5 173.5 Q 1227 150 1230 140.5 Q 1233 131 1247.5 124.5 Q 1262 118 1290 128 Q 1316 138 1338 151 Q 1360 164 1379.5 180.5 Q 1399 197 1400.5 208 Q 1402 219 1391 238 L 1378 259 Q 1374 266 1363 288.5 Q 1352 311 1349 318 L 1339 343 L 1303 431 Z"/><path d="M 982 805 Q 968 788 958 773 Q 948 758 936 731.5 Q 924 705 912 673.5 Q 900 642 893 626.5 Q 886 611 888.5 603.5 Q 891 596 924 600 Q 941 603 986.5 624 Q 1032 645 1050.5 658.5 Q 1069 672 1078 700 Q 1084 724 1080 743 L 1070 792 Q 1028 856.5 982 805 Z"/><path d="M 690 926 Q 674 933 662.5 936 Q 651 939 632 937 Q 607 935 584 926.5 Q 561 918 538.5 905 Q 516 892 518 880 Q 520 868 543 865 L 590 859 L 687 845 L 796 831 L 888 818 L 982 805 L 1070 792 Q 1122 785 1158.5 779.5 Q 1195 774 1231 768 Q 1267 762 1302 753 Q 1337 744 1354 744 Q 1375 745 1404 756 Q 1433 767 1465 786.5 Q 1497 806 1495 819 Q 1493 830 1485.5 834 Q 1478 838 1453 839 L 1389 843 Q 1317 848 1311 848 L 1233 854 L 1188 854 Q 1151 858 1131.5 860 Q 1112 862 1036.5 871.5 Q 961 881 911.5 888 Q 862 895 827 902 L 735 921 L 690 926 Z"/><path d="M 813 1225 Q 796 1207 790 1197 Q 784 1187 772 1153 L 751 1100 Q 747 1092 716 1001 L 690 926 L 735 921 Q 766 938 785.5 952 Q 805 966 828.5 994.5 Q 852 1023 869 1054.5 Q 886 1086 888 1121 Q 889 1155 879 1185 L 867 1221 Q 840 1261 813 1225 Z"/><path d="M 1233 854 Q 1259 866 1274 875 Q 1289 884 1311 903 Q 1333 922 1338.5 938 Q 1344 954 1340.5 961 Q 1337 968 1326 977.5 Q 1315 987 1301 1005 Q 1287 1023 1278.5 1035 Q 1270 1047 1244 1091 L 1204 1156 L 1181 1195 Q 1133.5 1237 1126 1195 Q 1138 1154 1145.5 1125.5 Q 1153 1097 1160.5 1065 Q 1168 1033 1173.5 997 Q 1179 961 1179.5 943 Q 1180 925 1179 897.5 Q 1178 870 1181 866 L 1188 854 L 1233 854 Z"/><path d="M 1181 1195 Q 1253 1189 1289 1184 L 1467 1162 Q 1554 1153 1600.5 1143.5 Q 1647 1134 1667 1135 Q 1687 1137 1721 1150.5 Q 1755 1164 1780 1177 Q 1805 1190 1829.5 1209 Q 1854 1228 1852 1240.5 Q 1850 1253 1828 1259.5 Q 1806 1266 1738 1265 L 1480 1263 Q 1414 1263 1317 1266.5 Q 1220 1270 1159 1273 L 1007 1284 Q 864 1294 834 1297 Q 804 1300 712 1313.5 Q 620 1327 578.5 1334 Q 537 1341 492.5 1351 Q 448 1361 411 1373 Q 374 1385 358 1384 Q 336 1384 302 1369 L 246 1343 Q 217 1331 202 1313 Q 187 1295 193 1287 Q 199 1279 221 1277 L 276 1273 L 351 1271 Q 383 1270 446 1263.5 Q 509 1257 607.5 1247.5 Q 706 1238 718 1236 L 813 1225 L 867 1221 Q 976 1208 999 1206 L 1126 1195 L 1181 1195 Z"/><path d="M 762 1876 L 755 1910 Q 751 1925 733 1925.5 Q 715 1926 698 1899 Q 681 1872 677 1839 L 639 1595 Q 634 1566 628 1550 Q 622 1534 612.5 1522 Q 603 1510 586 1494.5 Q 569 1479 568 1469.5 Q 567 1460 591 1451 Q 596 1450 639 1455 L 699 1466 Q 724 1479.5 725 1525 L 758 1795 L 762 1876 Z"/><path d="M 699 1466 L 1088 1417 L 1170 1403 Q 1237 1392 1270.5 1383 Q 1304 1374 1315 1373 Q 1337 1373 1367 1387 Q 1397 1401 1422.5 1417.5 Q 1448 1434 1464 1453 Q 1480 1472 1478 1484 Q 1476 1492 1459.5 1511 Q 1443 1530 1428.5 1557.5 Q 1414 1585 1406 1618 L 1367 1773 Q 1283.5 1806.5 1260 1740 L 1289 1570 Q 1293 1547 1294.5 1521.5 Q 1296 1496 1289.5 1485 Q 1283 1474 1244 1473 Q 1222 1473 1174 1477 L 1096 1484 L 725 1525 L 699 1466 Z"/><path d="M 1367 1773 L 1391 1798 Q 1405 1813 1402.5 1823 Q 1400 1833 1369 1834 L 1259 1839 Q 1235 1841 1111 1850 L 929 1863 L 762 1876 L 758 1795 Q 826 1790 879 1785.5 Q 932 1781 989 1774.5 Q 1046 1768 1121 1756.5 Q 1196 1745 1216 1743 L 1260 1740 L 1367 1773 Z"/></g><g transform="translate(149.000,68.600) scale(0.006836)"><path d="M 644 393 Q 635 362 631 351 Q 627 340 612 302 Q 597 264 585 247 Q 573 230 568.5 218.5 Q 564 207 571.5 197.5 Q 579 188 597 185 Q 612 184 645.5 190 Q 679 196 690.5 199 Q 702 202 712.5 208 Q 723 214 730 220 Q 737 226 740 234 L 737 273 L 741 378 L 750 442 L 761 574 Q 762 597 759 613 Q 756 629 744.5 632 Q 733 635 719.5 622 Q 706 609 699 581 L 667 459 L 644 393 Z"/><path d="M 667 459 L 563 490 Q 531 500 506.5 509 Q 482 518 469 525.5 Q 456 533 452 533 Q 444 535 425.5 527.5 Q 407 520 392 506.5 Q 377 493 358.5 471.5 Q 340 450 333 437.5 Q 326 425 329 415 Q 330 410 334 406 Q 338 402 351 403 Q 354 404 371 407.5 Q 388 411 406 413 Q 424 415 440.5 414.5 Q 457 414 501 409 L 644 393 L 741 378 L 892 362 Q 915 360 919 377.5 Q 923 395 900 401 L 750 442 L 667 459 Z"/><path d="M 1292 340 L 1406 318 L 1478 301 Q 1493 301 1511.5 306 Q 1530 311 1555 323.5 Q 1580 336 1591 346 Q 1602 356 1602 366 Q 1600 378 1590 383.5 Q 1580 389 1566 390 L 1534 394 L 1481 398 L 1355 407 L 1255 418 L 1167 429 L 1117 439 L 1068 449 Q 1057 449 1045 445 Q 1033 441 1025 437 Q 1017 433 1002.5 424.5 Q 988 416 978 406 Q 968 396 971.5 387.5 Q 975 379 995 378 L 1027 377 L 1110 368 L 1183 360 L 1292 340 Z"/><path d="M 1183 360 Q 1193 321 1197 300 L 1204 258 Q 1210 221 1211 208 Q 1212 184 1206.5 161 Q 1201 138 1204 127 Q 1207 116 1219.5 110.5 Q 1232 105 1260 116 Q 1291 129 1308 139 Q 1325 149 1344.5 166 Q 1364 183 1365 193 Q 1366 203 1355 221 Q 1344 237 1340.5 243.5 Q 1337 250 1332 260 L 1292 340 L 1255 418 Q 1230 454 1211.5 480 Q 1193 506 1178 521 L 1157 542 Q 1144 555 1138 548 Q 1132 541 1136 529 L 1142 509 L 1167 429 L 1183 360 Z"/><path d="M 396 741 Q 431 732 446.5 727 Q 462 722 516 703.5 Q 570 685 577 682 L 628 663 Q 645 657 656 656 Q 669 656 694 664.5 Q 719 673 730.5 678.5 Q 742 684 765 698 Q 788 712 794.5 720 Q 801 728 801 735 Q 800 744 793 750 Q 786 756 772 765 Q 758 774 748.5 782 Q 739 790 714.5 811.5 Q 690 833 684 839 L 571 950 Q 562 959 558.5 964.5 Q 555 970 556 973 L 501.5 983.5 Q 500 978 500.5 973.5 Q 501 969 504 962 L 535 923 L 609 809 Q 619 793 621.5 780 Q 624 767 622 762.5 Q 620 758 613.5 755 Q 607 752 598 752 Q 583 753 558 758 Q 533 763 487 770 L 417 782 Q 299.5 767.5 396 741 Z"/><path d="M 556 973 Q 556 978 570.5 987.5 Q 585 997 587 998 L 613 1020 Q 635 1039 654 1061 Q 673 1083 687 1113 Q 701 1143 705.5 1173 Q 710 1203 710.5 1236 Q 711 1269 704 1293 Q 698 1311 680.5 1342.5 Q 663 1374 646 1387 Q 629 1400 619 1398 Q 608 1397 598 1383 L 579 1351 Q 570 1338 551 1318 L 510 1279 Q 484 1255 474 1247 L 449 1229 Q 440 1223 442 1217 Q 444 1211 460 1214 L 489 1221 Q 508 1226 529.5 1230 Q 551 1234 562.5 1228.5 Q 574 1223 580 1211.5 Q 586 1200 586.5 1177 Q 587 1154 581 1127 Q 575 1104 562 1074.5 Q 549 1045 526 1017 Q 464 939 556 973 Z"/><path d="M 417 782 Q 418 795 418.5 803.5 Q 419 812 417 831 Q 411 873 410 889 Q 409 905 408 947 Q 407 989 403.5 1106 Q 400 1223 399 1243 L 387 1425 L 374 1645 Q 367 1723 358 1785.5 Q 349 1848 339 1881 Q 329 1914 315 1924.5 Q 301 1935 291 1933 Q 281 1932 269 1917.5 Q 257 1903 247.5 1881 Q 238 1859 232 1829.5 Q 226 1800 228 1780 Q 229 1768 241.5 1735 Q 254 1702 266.5 1656 Q 279 1610 289.5 1533.5 Q 300 1457 306 1394 Q 312 1331 316.5 1244.5 Q 321 1158 322 1111 Q 323 1064 323.5 993 Q 324 922 323 898 Q 321 870 317 848.5 Q 313 827 308 809.5 Q 303 792 298.5 782 Q 294 772 287.5 760.5 Q 281 749 280 740.5 Q 279 732 284.5 726 Q 290 720 311 720 Q 332 721 341.5 722.5 Q 351 724 370 731 L 396 741 L 417 782 Z"/><path d="M 1223 705 Q 1204 684 1193 669.5 Q 1182 655 1165 632.5 Q 1148 610 1138 593 Q 1128 576 1130.5 571.5 Q 1133 567 1159 571 L 1206 580 Q 1233 586 1256.5 596.5 Q 1280 607 1285 621.5 Q 1290 636 1289 653 Q 1287 668 1286 673 L 1280 694 Q 1258.5 769.5 1223 705 Z"/><path d="M 1336 757 Q 1307 760 1272.5 763.5 Q 1238 767 1208.5 773 Q 1179 779 1102.5 796.5 Q 1026 814 1002.5 823 Q 979 832 971 832 Q 957 834 933 826.5 Q 909 819 892 809 Q 875 799 862.5 787.5 Q 850 776 852 769 Q 854 762 875 759 L 919 754 L 986 742 Q 995 741 1058 734 Q 1121 727 1170 716 L 1223 705 L 1280 694 Q 1309 688 1362 678.5 Q 1415 669 1443.5 661.5 Q 1472 654 1483 652 Q 1511 650 1537 659 Q 1563 668 1579 678.5 Q 1595 689 1608.5 701.5 Q 1622 714 1621 722 Q 1619 731 1605.5 736.5 Q 1592 742 1570 742 L 1528 742 L 1479 746 L 1420 747 L 1336 757 Z"/><path d="M 1420 747 Q 1441 766 1451 778 Q 1461 790 1466 804.5 Q 1471 819 1468 827.5 Q 1465 836 1452 840 L 1429 844 Q 1415 847 1396 857 L 1372 871 L 1339 889 L 1237 949 Q 1218 961 1194.5 974.5 Q 1171 988 1109 1013 L 1020 1049 Q 984 1065 969 1068 L 927 1078 Q 916 1081 912.5 1075.5 Q 909 1070 911 1066 Q 913 1062 923 1056 L 960 1036 Q 993 1018 1017 1005 Q 1041 992 1077 968.5 Q 1113 945 1129 934 L 1164 910 L 1236 855 Q 1250 844 1255.5 839 Q 1261 834 1282.5 813.5 Q 1304 793 1307 790 L 1336 757 L 1420 747 Z"/><path d="M 1339 889 Q 1361 899 1385 909.5 Q 1409 920 1429.5 937.5 Q 1450 955 1456.5 976 Q 1463 997 1453 1013.5 Q 1443 1030 1422 1034.5 Q 1401 1039 1374 1026 L 1320 995 L 1255 958 L 1237 949 L 1164 910 Q 1144 900 1133.5 894.5 Q 1123 889 1115 885 L 1071 868 L 1040 854 Q 1025 848 1026.5 837.5 Q 1028 827 1054 828 L 1096 831 Q 1140 835 1163.5 839.5 Q 1187 844 1215 850 L 1236 855 L 1339 889 Z"/><path d="M 769 1195 Q 752 1184 736 1173.5 Q 720 1163 722 1152 Q 722 1146 726.5 1142.5 Q 731 1139 747 1137 L 781 1134 L 898 1125 L 1139 1098 L 1295 1081 Q 1318 1078 1383.5 1068 Q 1449 1058 1480.5 1053.5 Q 1512 1049 1543 1038 Q 1574 1027 1584 1026 Q 1597 1026 1617 1033.5 Q 1637 1041 1667 1057.5 Q 1697 1074 1717 1089.5 Q 1737 1105 1735 1115.5 Q 1733 1126 1722 1132 Q 1711 1138 1658 1141 L 1358 1160 L 909 1197 L 769 1195 Z"/><path d="M 909 1197 Q 925 1210 932.5 1221 Q 940 1232 939 1241 Q 938 1246 927.5 1262.5 Q 917 1279 909 1327 L 894 1394 L 877 1489 Q 865 1543 840.5 1596 Q 816 1649 781 1703.5 Q 746 1758 701.5 1804.5 Q 657 1851 609.5 1883.5 Q 562 1916 538 1925 L 504 1938 Q 485 1946 480.5 1936 Q 476 1926 490 1914 L 521 1888 Q 561 1854 605 1803.5 Q 649 1753 687 1690 Q 725 1627 747 1563 Q 769 1499 775.5 1447 Q 782 1395 784 1355.5 Q 786 1316 786 1288 Q 785 1246 780 1231 L 769 1195 L 909 1197 Z"/><path d="M 1029 1470 Q 1010 1493 993 1512.5 Q 976 1532 960.5 1547.5 Q 945 1563 927 1575 L 901 1593 Q 897 1596 892.5 1595.5 Q 888 1595 885.5 1588.5 Q 883 1582 888 1574 L 901 1550 Q 913 1528 924 1505.5 Q 935 1483 950 1449.5 Q 965 1416 975 1389 Q 985 1362 991 1337.5 Q 997 1313 995.5 1298 Q 994 1283 996.5 1279 Q 999 1275 1007 1273 Q 1017 1271 1035 1276.5 Q 1053 1282 1069.5 1288.5 Q 1086 1295 1098 1304.5 Q 1110 1314 1115.5 1323 Q 1121 1332 1121 1340 Q 1120 1348 1114 1354 L 1097 1368 Q 1088 1376 1083 1385 L 1068 1409 L 1029 1470 Z"/><path d="M 1325 1371 Q 1371 1363 1400.5 1356.5 Q 1430 1350 1462.5 1341 Q 1495 1332 1509 1330 Q 1529 1329 1546.5 1333.5 Q 1564 1338 1587 1348 Q 1610 1358 1620 1367 Q 1630 1376 1630 1383 Q 1629 1392 1615 1399 Q 1601 1406 1584 1409 L 1548 1417 L 1439 1434 L 1319 1454 L 1225 1466 Q 1189 1470 1152.5 1473.5 Q 1116 1477 1106 1475 L 1029 1470 L 1068 1409 Q 1102 1404 1140 1398 Q 1178 1392 1184 1391 L 1224 1386 L 1325 1371 Z"/><path d="M 1313 1578 Q 1355 1572 1375.5 1567.5 Q 1396 1563 1422 1557 Q 1448 1551 1459 1550 Q 1475 1549 1500 1554 Q 1525 1559 1542.5 1564.5 Q 1560 1570 1575.5 1579 Q 1591 1588 1590 1594 Q 1589 1599 1579 1605 Q 1569 1611 1558 1613 L 1522 1621 Q 1501 1626 1462.5 1632 Q 1424 1638 1383 1643 L 1310 1652 L 1218 1665 Q 1191 1668 1156 1672 Q 1121 1676 1120 1676 Q 1081 1679 1050.5 1673 Q 1020 1667 1006 1655.5 Q 992 1644 993 1637.5 Q 994 1631 999 1625.5 Q 1004 1620 1020 1618 L 1053 1614 L 1103 1609 Q 1123 1607 1175 1599 L 1221 1592 L 1313 1578 Z"/><path d="M 1319 1454 L 1313 1578 L 1310 1652 L 1302 1780 Q 1254 1910.5 1214 1789 L 1218 1665 L 1221 1592 L 1225 1466 L 1224 1386 L 1220 1331 Q 1217 1292 1204 1265.5 Q 1191 1239 1190.5 1229 Q 1190 1219 1196 1210.5 Q 1202 1202 1235 1205 Q 1259 1208 1283.5 1213.5 Q 1308 1219 1330 1232 Q 1352 1245 1353 1256.5 Q 1354 1268 1342 1291.5 Q 1330 1315 1328 1338 L 1325 1371 L 1319 1454 Z"/><path d="M 1302 1780 Q 1354 1777 1391.5 1774.5 Q 1429 1772 1462 1768 L 1539 1758 Q 1586 1752 1620 1746 Q 1654 1740 1669 1740 Q 1690 1742 1717 1752.5 Q 1744 1763 1769 1776.5 Q 1794 1790 1808 1807.5 Q 1822 1825 1819.5 1834.5 Q 1817 1844 1800 1848.5 Q 1783 1853 1730 1853 L 1671 1854 L 1519 1853 Q 1441 1853 1379 1856 Q 1317 1859 1264 1862.5 Q 1211 1866 1190.5 1868 Q 1170 1870 1105.5 1877 Q 1041 1884 1021.5 1888.5 Q 1002 1893 981.5 1899 Q 961 1905 944 1912 Q 927 1919 919 1919 Q 909 1920 890 1915.5 Q 871 1911 846.5 1900.5 Q 822 1890 803.5 1879.5 Q 785 1869 776.5 1855 Q 768 1841 771.5 1833.5 Q 775 1826 787 1825 L 808 1824 Q 826 1824 855.5 1821.5 Q 885 1819 944.5 1813.5 Q 1004 1808 1065 1803.5 Q 1126 1799 1136 1797 L 1214 1789 L 1302 1780 Z"/></g><g transform="translate(164.000,68.600) scale(0.006836)"><path d="M 392 959 Q 396 1000 392 1053 Q 388 1106 376 1145 Q 364 1184 345.5 1220 Q 327 1256 303.5 1274.5 Q 280 1293 266 1292 Q 244 1292 226 1267.5 Q 208 1243 203 1213.5 Q 198 1184 197 1154 Q 196 1124 203 1107 Q 205 1102 220.5 1080.5 Q 236 1059 254 1023.5 Q 272 988 279.5 970 Q 287 952 297 914.5 Q 307 877 309 854 Q 311 831 317.5 822.5 Q 324 814 335 814 Q 346 815 361.5 853 Q 377 891 383 914.5 Q 389 938 392 959 Z"/><path d="M 1427 1026 L 1528 1143 Q 1561 1182 1590.5 1203.5 Q 1620 1225 1653 1246 L 1713 1287 Q 1738 1305 1748.5 1320.5 Q 1759 1336 1757 1361 Q 1755 1378 1745 1396 Q 1735 1414 1680.5 1447.5 Q 1626 1481 1516 1504.5 Q 1406 1528 1297 1528 Q 1194 1529 1103 1510.5 Q 1012 1492 947 1463.5 Q 882 1435 832 1397 Q 782 1359 741.5 1309 Q 701 1259 672.5 1201.5 Q 644 1144 631 1105 Q 618 1066 607 1019 L 581 914 Q 577 902 563.5 868.5 Q 550 835 555 827 Q 560 819 569.5 816 Q 579 813 595 819 Q 607 825 623 838 Q 639 851 644.5 860.5 Q 650 870 659 906 L 680 1000 Q 694 1064 717 1107.5 Q 740 1151 776.5 1195.5 Q 813 1240 860 1276 Q 907 1312 959 1333 Q 1011 1354 1059.5 1361.5 Q 1108 1369 1172.5 1370.5 Q 1237 1372 1289 1370 Q 1355 1368 1395.5 1352.5 Q 1436 1337 1444 1319 Q 1452 1301 1454 1276.5 Q 1456 1252 1441 1204 L 1391 1049 Q 1383 1025 1396 1015.5 Q 1409 1006 1427 1026 Z"/><path d="M 845 590 L 819 552 Q 808 537 815 528 Q 822 519 833 521 L 885 532 Q 898 535 934.5 547.5 Q 971 560 991 567 Q 1011 574 1036.5 587 Q 1062 600 1076 617 Q 1090 634 1098 664 Q 1106 694 1096 736 Q 1087 772 1071.5 787.5 Q 1056 803 1040 806 Q 1024 809 994 778 Q 974 759 955 735 Q 936 711 898 662 Q 860 613 845 590 Z"/><path d="M 1653 844 L 1538 693 L 1445 591 Q 1433 572 1438 565.5 Q 1443 559 1457.5 557.5 Q 1472 556 1512 573 L 1652 634 Q 1725 666 1773 705.5 Q 1821 745 1836 779 Q 1851 813 1850 852 Q 1848 886 1836 909.5 Q 1824 933 1809 940.5 Q 1794 948 1780 948.5 Q 1766 949 1733.5 928.5 Q 1701 908 1653 844 Z"/></g><g transform="translate(179.000,68.600) scale(0.006836)"><path d="M 486 798 Q 484 827 477 842 Q 470 857 461 859.5 Q 452 862 440 850 Q 427 840 418 807.5 Q 409 775 407 753 L 378 523 Q 373 486 362.5 464.5 Q 352 443 346 433 L 326 407 Q 316 394 317.5 386.5 Q 319 379 326.5 375 Q 334 371 347 371 Q 358 372 391 380 L 445 394 Q 468 414 467 458 L 486 723 L 486 798 Z"/><path d="M 445 394 Q 509 387 545.5 379.5 Q 582 372 621 359.5 Q 660 347 696.5 330.5 Q 733 314 750 312 Q 771 311 809.5 326 Q 848 341 877 360.5 Q 906 380 906 401 Q 905 412 887 436.5 Q 869 461 858 484 Q 847 507 841 530 L 793 704 Q 735.5 742 694 684 L 724 479 Q 727 455 725.5 442 Q 724 429 714 424.5 Q 704 420 695 419 Q 676 418 648 422.5 Q 620 427 573 439 Q 526 451 519 451 L 467 458 L 445 394 Z"/><path d="M 793 704 Q 804 711 816 721 Q 828 731 826 739.5 Q 824 748 818.5 751 Q 813 754 761 761 L 486 798 L 486 723 Q 536 714 562.5 709 Q 589 704 619.5 697 Q 650 690 655 689 L 694 684 L 793 704 Z"/><path d="M 1149 736 Q 1148 757 1141.5 770.5 Q 1135 784 1124 784.5 Q 1113 785 1100 771 Q 1088 761 1081 748 Q 1074 735 1072 715 L 1047 489 L 1040 422 Q 1035 395 1012.5 359 Q 990 323 989.5 317 Q 989 311 994 303 Q 997 298 1003 295 Q 1009 292 1018 291 L 1063 303 L 1127 321 L 1135 387 L 1150 663 L 1149 736 Z"/><path d="M 1127 321 Q 1189 313 1227 306.5 Q 1265 300 1315.5 288 Q 1366 276 1406 257.5 Q 1446 239 1461 238 Q 1476 238 1498 246 Q 1520 254 1538.5 264 Q 1557 274 1576 287 Q 1595 300 1602.5 310 Q 1610 320 1610.5 332 Q 1611 344 1592 370 Q 1577 391 1561.5 420 Q 1546 449 1535 487 L 1485 647 Q 1415.5 680 1394 617 L 1424 424 Q 1431 375 1427.5 366 Q 1424 357 1414.5 352.5 Q 1405 348 1390 349 Q 1350 352 1311 360 L 1203 383 Q 1175 388 1159 387 L 1135 387 L 1127 321 Z"/><path d="M 1485 647 Q 1503 660 1512.5 668 Q 1522 676 1524 686 Q 1526 696 1519 699.5 Q 1512 703 1506 703 L 1221 735 Q 1178 740 1174 739 L 1149 736 L 1150 663 Q 1184 658 1217.5 651.5 Q 1251 645 1296 637 Q 1341 629 1357 625 L 1394 617 L 1485 647 Z"/><path d="M 783 1040 Q 779 1110 774 1158 Q 769 1206 755 1261 Q 741 1316 716 1374.5 Q 691 1433 651 1491 Q 611 1549 554.5 1601.5 Q 498 1654 417.5 1698 Q 337 1742 290.5 1759 Q 244 1776 217 1783 L 187 1791 Q 173 1795 166.5 1788.5 Q 160 1782 175 1773 L 202 1758 L 282 1714 Q 337 1683 394.5 1638 Q 452 1593 506.5 1528.5 Q 561 1464 596 1387.5 Q 631 1311 648 1231 Q 665 1151 662 1095 Q 659 1048 647 1017 Q 635 986 623 970.5 Q 611 955 610.5 949 Q 610 943 619.5 933 Q 629 923 655 924 Q 673 925 688.5 930 Q 704 935 729 947 L 786 976 L 783 1040 Z"/><path d="M 786 976 Q 842 972 873 967 Q 904 962 951 951 Q 998 940 1030 928 Q 1062 916 1095 897.5 Q 1128 879 1144 879 Q 1159 880 1188 897.5 Q 1217 915 1244 938.5 Q 1271 962 1268 978 Q 1266 986 1249.5 1003.5 Q 1233 1021 1219 1044 Q 1205 1067 1191 1113.5 Q 1177 1160 1161.5 1244 Q 1146 1328 1140 1400.5 Q 1134 1473 1154 1539 Q 1167 1583 1192.5 1613 Q 1218 1643 1261 1659 Q 1304 1675 1352.5 1678.5 Q 1401 1682 1453 1682 Q 1559 1683 1610 1664.5 Q 1661 1646 1686.5 1619.5 Q 1712 1593 1731.5 1532.5 Q 1751 1472 1762 1417 L 1780 1327 Q 1783 1308 1793 1307.5 Q 1803 1307 1805 1327 L 1811 1419 Q 1813 1461 1818 1491.5 Q 1823 1522 1835 1561.5 Q 1847 1601 1861.5 1628.5 Q 1876 1656 1876.5 1667 Q 1877 1678 1872 1690 Q 1863 1712 1843.5 1729.5 Q 1824 1747 1780.5 1765.5 Q 1737 1784 1677 1795 Q 1617 1806 1554 1810 Q 1443 1819 1360.5 1809.5 Q 1278 1800 1218.5 1777.5 Q 1159 1755 1116 1710 Q 1073 1665 1053.5 1602 Q 1034 1539 1035 1441 Q 1035 1382 1042 1272.5 Q 1049 1163 1055.5 1115 Q 1062 1067 1063 1050 Q 1064 1033 1057.5 1024.5 Q 1051 1016 1018 1019 Q 985 1023 972 1025 Q 959 1027 910 1036 Q 861 1045 840 1045 Q 824 1046 808 1043 L 783 1040 L 786 976 Z"/></g></g><g fill="#888888" stroke="none"><g transform="translate(104.700,85.200) scale(0.002930)"><path d="M 943 449 Q 914 457 865.5 471.5 Q 817 486 787.5 492.5 Q 758 499 692.5 507.5 Q 627 516 601 516 L 548 517 Q 530 518 525.5 508 Q 521 498 545 492 L 595 480 Q 635 471 674 458 Q 713 445 771 422 Q 829 399 869.5 380.5 Q 910 362 964 331.5 Q 1018 301 1057 275.5 Q 1096 250 1119.5 229.5 Q 1143 209 1156.5 189.5 Q 1170 170 1177.5 166 Q 1185 162 1198 163 Q 1210 165 1248 191 Q 1286 217 1292.5 222.5 Q 1299 228 1315 250 Q 1331 272 1329 283 Q 1326 292 1318.5 297 Q 1311 302 1292.5 306 Q 1274 310 1259 315.5 Q 1244 321 1216 334 Q 1188 347 1105 381 L 1033 411 L 943 449 Z"/><path d="M 992 777 Q 948 784 926 786 L 836 796 L 734 809 Q 687 814 642 813 Q 602 813 579 806.5 Q 556 800 538 782 Q 520 764 524 754 Q 526 746 547.5 743 Q 569 740 616 736.5 Q 663 733 694 729 L 782 716 Q 840 708 849 706 L 988 682 L 1099 665 Q 1147 656 1183.5 649 Q 1220 642 1252 633 L 1320 614 Q 1345 607 1360 606 Q 1379 605 1399.5 611 Q 1420 617 1445.5 630 Q 1471 643 1478 655 Q 1485 667 1484 673 Q 1482 680 1460.5 689 Q 1439 698 1416.5 704.5 Q 1394 711 1333 723 Q 1272 735 1241.5 740 Q 1211 745 1164 751 L 1104 759 L 992 777 Z"/><path d="M 1108 985 Q 1159 981 1206 976.5 Q 1253 972 1324 965 Q 1395 958 1435.5 952.5 Q 1476 947 1511.5 941.5 Q 1547 936 1579 930 Q 1611 924 1629 924 Q 1648 925 1674.5 932 Q 1701 939 1728.5 950.5 Q 1756 962 1776.5 975 Q 1797 988 1803.5 1002 Q 1810 1016 1805 1027.5 Q 1800 1039 1765 1041 Q 1743 1043 1705 1042.5 Q 1667 1042 1551 1044 L 1385 1047 L 1234 1053 L 1109 1057 L 1006 1068 L 759 1095 Q 678 1104 642 1110 L 528 1132 Q 456 1145 433 1151 Q 410 1157 400 1157 Q 389 1158 370 1154 Q 351 1150 326 1141 Q 301 1132 276 1118.5 Q 251 1105 245 1092.5 Q 239 1080 241 1073 Q 243 1067 255.5 1063 Q 268 1059 292.5 1058.5 Q 317 1058 372.5 1054 Q 428 1050 495 1044.5 Q 562 1039 604 1034 L 1001 993 L 1108 985 Z"/><path d="M 988 682 Q 985 652 982.5 625.5 Q 980 599 973.5 560.5 Q 967 522 960 501 L 943 449 L 1033 411 Q 1055 423 1070 433 Q 1085 443 1088.5 452 Q 1092 461 1091.5 471.5 Q 1091 482 1093 518 L 1094 568 L 1099 665 L 1104 759 L 1108 985 L 1109 1057 Q 1109 1133 1110 1209.5 Q 1111 1286 1111 1325 Q 1110 1391 1107 1472 Q 1104 1553 1098 1620 Q 1092 1687 1079.5 1734 Q 1067 1781 1049 1818 Q 1031 1855 1012.5 1870.5 Q 994 1886 984 1885 Q 975 1885 963 1877.5 Q 951 1870 941 1859 L 897 1804 Q 883 1788 853 1760 L 808 1719 L 763 1678 Q 750 1667 754.5 1660 Q 759 1653 777 1658 L 827 1674 L 872 1684 L 914 1695 Q 929 1697 940 1691.5 Q 951 1686 961 1657 Q 971 1628 978.5 1566 Q 986 1504 991.5 1438.5 Q 997 1373 1000.5 1302.5 Q 1004 1232 1005 1190 L 1006 1068 L 1001 993 L 992 777 L 988 682 Z"/></g><g transform="translate(111.500,85.200) scale(0.002930)"><path d="M 545 750 L 435 765 Q 397 771 374.5 772 Q 352 773 324 770 Q 296 767 277.5 763.5 Q 259 760 241.5 748.5 Q 224 737 227.5 726 Q 231 715 248 713 L 292 708 Q 317 706 387.5 695.5 Q 458 685 480 679 L 546 664 L 643 644 Q 674 635 703.5 624.5 Q 733 614 748 612 Q 771 610 790 614.5 Q 809 619 822 624 Q 835 629 852 639 Q 869 649 869.5 659 Q 870 669 862 678 Q 852 688 808 698.5 Q 764 709 738 715 Q 712 721 688 724 L 639 732 L 545 750 Z"/><path d="M 546 664 L 547 513 Q 547 460 540 393 Q 533 326 527 294 Q 521 262 509.5 233.5 Q 498 205 496.5 186 Q 495 167 506 160 Q 517 153 530 152 Q 555 151 585 163 Q 615 175 650.5 195.5 Q 686 216 698 234 Q 710 252 710.5 264.5 Q 711 277 701 297 L 687 323 Q 678 342 671 368.5 Q 664 395 661.5 411.5 Q 659 428 651.5 496 Q 644 564 644 584 L 643 644 L 639 732 L 634 959 L 635 1037 L 629 1268 Q 628 1288 633 1357 L 638 1468 Q 639 1510 639.5 1537 Q 640 1564 635 1596 Q 629 1633 614.5 1668 Q 600 1703 581.5 1727 Q 563 1751 550.5 1757 Q 538 1763 527 1760 Q 514 1758 501 1739 L 480 1707 Q 470 1694 429 1649.5 Q 388 1605 379 1596 L 324 1549 Q 308 1536 315.5 1526.5 Q 323 1517 338 1521 L 426 1546 L 459 1556 Q 486 1563 499 1554 Q 509 1547 512.5 1531.5 Q 516 1516 518 1484 L 536 1113 L 544 1014 L 545 750 L 546 664 Z"/><path d="M 634 959 L 771 875 Q 785 866 795 876 Q 805 886 785 904 L 635 1037 L 536 1113 L 409 1219 Q 368 1253 343.5 1275 Q 319 1297 301.5 1315.5 Q 284 1334 271 1350.5 Q 258 1367 250.5 1369.5 Q 243 1372 232 1370 Q 215 1369 201 1362.5 Q 187 1356 154 1333 Q 121 1310 107.5 1290 Q 94 1270 96 1259 Q 97 1253 102 1249 Q 107 1245 126 1243 Q 145 1241 175.5 1229 Q 206 1217 228 1203 L 544 1014 L 634 959 Z"/><path d="M 1279 727 L 1283 430 Q 1283 373 1281.5 339 Q 1280 305 1263.5 275 Q 1247 245 1242.5 230 Q 1238 215 1248 207 Q 1258 199 1277 200 Q 1295 202 1320.5 208.5 Q 1346 215 1369.5 223 Q 1393 231 1403.5 242.5 Q 1414 254 1415 267 Q 1416 280 1400 322 Q 1391 344 1385 396.5 Q 1379 449 1379 504 L 1377 832 Q 1376 926 1373 970 Q 1370 1014 1366.5 1038 Q 1363 1062 1352 1090.5 Q 1341 1119 1327 1117 Q 1318 1117 1303 1100.5 Q 1288 1084 1278.5 1066 Q 1269 1048 1261 1022 Q 1253 996 1255 970 Q 1255 965 1261 931.5 Q 1267 898 1272.5 832 Q 1278 766 1279 727 Z"/><path d="M 878 1098 L 852 1120 Q 835 1135 826.5 1127.5 Q 818 1120 833 1096 L 855 1061 Q 874 1031 902.5 972.5 Q 931 914 950 868 Q 969 822 980 787 Q 991 752 997 719.5 Q 1003 687 999 667.5 Q 995 648 996 638.5 Q 997 629 1005 626 Q 1013 623 1023 624 Q 1039 627 1057.5 633 Q 1076 639 1104 654.5 Q 1132 670 1148 690.5 Q 1164 711 1160 724 Q 1158 730 1136 756 Q 1114 782 1108 790.5 Q 1102 799 1080.5 838 Q 1059 877 1039 908 Q 1019 939 990 975 Q 961 1011 927.5 1047.5 Q 894 1084 878 1098 Z"/><path d="M 1575 632 Q 1563 624 1562.5 611.5 Q 1562 599 1582 602 L 1624 610 Q 1646 615 1678 623.5 Q 1710 632 1771.5 653.5 Q 1833 675 1873 700.5 Q 1913 726 1930.5 751 Q 1948 776 1951 817 Q 1954 858 1938 877.5 Q 1922 897 1901.5 901 Q 1881 905 1852 885 Q 1835 874 1804.5 839 Q 1774 804 1725 756.5 Q 1676 709 1654 692 L 1575 632 Z"/><path d="M 768 1872 L 806 1850 Q 829 1837 877 1802.5 Q 925 1768 994.5 1711 Q 1064 1654 1153 1570.5 Q 1242 1487 1305.5 1414.5 Q 1369 1342 1423.5 1264 Q 1478 1186 1502.5 1141.5 Q 1527 1097 1551 1044 Q 1575 991 1576 947 Q 1577 903 1585 889 Q 1593 875 1610 874 Q 1619 874 1645 891 Q 1671 908 1690.5 922 Q 1710 936 1732.5 961 Q 1755 986 1753 1003 Q 1751 1015 1729 1037 Q 1707 1059 1686.5 1085.5 Q 1666 1112 1626 1171 Q 1586 1230 1560 1266.5 Q 1534 1303 1474.5 1377.5 Q 1415 1452 1353 1517 Q 1291 1582 1223 1638.5 Q 1155 1695 1112 1725.5 Q 1069 1756 998.5 1798 Q 928 1840 890.5 1857 Q 853 1874 821 1883 L 773 1897 Q 759 1901 755.5 1891 Q 752 1881 768 1872 Z"/></g><g transform="translate(118.300,85.200) scale(0.002930)"><path d="M 862 751 L 690 776 Q 658 781 596 793.5 Q 534 806 510 806 Q 487 807 471.5 803 Q 456 799 425 785.5 Q 394 772 381.5 755.5 Q 369 739 371.5 731.5 Q 374 724 442 715 L 888 662 L 999 648 L 1216 612 L 1299 599 Q 1346 591 1361 590 Q 1388 590 1416.5 600 Q 1445 610 1471.5 625 Q 1498 640 1506.5 654 Q 1515 668 1515 679 Q 1514 687 1508.5 696 Q 1503 705 1471.5 704.5 Q 1440 704 1395 707 L 1235 718 L 1135 723 L 1052 729 L 1000 732 L 862 751 Z"/><path d="M 998 1474 Q 999 1501 1000 1530.5 Q 1001 1560 1006 1635 Q 1011 1710 1009 1726 Q 1005 1744 996 1773.5 Q 987 1803 976 1825 Q 965 1847 947.5 1872 Q 930 1897 918 1896 Q 907 1896 881.5 1865.5 Q 856 1835 847 1804 Q 838 1773 831.5 1741 Q 825 1709 826 1693 Q 826 1680 838.5 1640.5 Q 851 1601 863 1532 L 870 1490 L 875 1388 L 880 1287 L 888 935 L 888 662 L 888 398 Q 888 378 883 329 Q 878 280 873 262.5 Q 868 245 856 223.5 Q 844 202 839.5 189 Q 835 176 841.5 165.5 Q 848 155 878 154 Q 909 154 939 163.5 Q 969 173 999.5 186.5 Q 1030 200 1041.5 215.5 Q 1053 231 1052 247 Q 1051 257 1037 286 Q 1023 315 1016.5 357 Q 1010 399 1006 494 L 999 648 L 1000 732 L 1000 747 L 998 849 L 994 1363 L 998 1474 Z"/><path d="M 888 935 Q 855 985 834 1014.5 Q 813 1044 762 1105 Q 711 1166 656 1224 Q 601 1282 542.5 1328 Q 484 1374 427.5 1408.5 Q 371 1443 313.5 1473 Q 256 1503 209 1520 L 147 1543 Q 116 1555 110 1549 Q 104 1543 105 1535.5 Q 106 1528 133 1510 L 192 1470 Q 251 1430 336 1363 Q 421 1296 490.5 1232.5 Q 560 1169 624 1096.5 Q 688 1024 752.5 935 Q 817 846 837 803 L 862 751 Q 968 699 888 935 Z"/><path d="M 1000 747 Q 1035 787 1062 816 Q 1089 845 1151 907.5 Q 1213 970 1264 1016.5 Q 1315 1063 1387 1120 Q 1459 1177 1510 1209 Q 1561 1241 1640 1280 Q 1719 1319 1789 1346 L 1864 1374 L 1914 1393 Q 1942 1404 1941.5 1419 Q 1941 1434 1902 1440 L 1847 1449 Q 1816 1454 1718 1466 Q 1620 1478 1567 1475 Q 1507 1472 1472 1453.5 Q 1437 1435 1357.5 1334 Q 1278 1233 1247 1193 Q 1216 1153 1160 1073 L 1079 959 L 998 849 Q 939 754 1000 747 Z"/><path d="M 870 1490 Q 839 1492 825 1493 L 742 1502 Q 703 1506 673 1504 Q 633 1503 599 1492.5 Q 565 1482 558.5 1469.5 Q 552 1457 554 1449 Q 555 1442 566.5 1435 Q 578 1428 589 1426 Q 600 1424 665 1415 L 875 1388 L 994 1363 L 1059 1351 Q 1117 1341 1131 1340.5 Q 1145 1340 1191 1349.5 Q 1237 1359 1262 1370 Q 1287 1381 1287.5 1392 Q 1288 1403 1279 1413 Q 1270 1423 1232.5 1433.5 Q 1195 1444 1179 1446 L 998 1474 L 870 1490 Z"/></g><g transform="translate(131.900,85.200) scale(0.002930)"><path d="M 873 432 Q 833 443 797.5 451.5 Q 762 460 717 468 Q 672 476 631 481 L 552 492 Q 523 496 521.5 481 Q 520 466 543 460 L 599 445 Q 655 430 728.5 402.5 Q 802 375 892 337.5 Q 982 300 1044 264 L 1105 229 Q 1150 206 1163.5 192.5 Q 1177 179 1186 175.5 Q 1195 172 1218 180 Q 1233 186 1255.5 201.5 Q 1278 217 1311.5 244.5 Q 1345 272 1352 286 Q 1359 300 1358 306 Q 1355 320 1335 326 Q 1315 332 1274 338 L 1190 352 L 1064 380 L 987 397 L 873 432 Z"/><path d="M 1045 614 Q 1136 609 1206.5 603.5 Q 1277 598 1380 586 Q 1483 574 1543.5 562 Q 1604 550 1620 549 Q 1645 549 1672.5 557.5 Q 1700 566 1749 585.5 Q 1798 605 1809 626 Q 1820 647 1817 654 Q 1814 660 1801 665 Q 1788 670 1730.5 674 Q 1673 678 1661 677 L 1459 674 Q 1325 673 1193 679 L 1032 687 L 911 697 Q 798 707 736 715 Q 674 723 617 734 L 532 751 Q 479 762 448 771.5 Q 417 781 406 781 Q 388 783 362.5 776.5 Q 337 770 304.5 755.5 Q 272 741 252.5 727.5 Q 233 714 230.5 705 Q 228 696 230 690 Q 233 682 243.5 680.5 Q 254 679 309 677 L 461 672 Q 482 672 715 645 L 908 622 L 1045 614 Z"/><path d="M 646 1349 Q 636 1374 627 1379.5 Q 618 1385 611 1384 Q 603 1384 597 1378 Q 591 1372 579 1350 Q 567 1328 554 1235 L 524 1024 Q 520 997 504.5 967 Q 489 937 474 923 Q 459 909 455 903.5 Q 451 898 453 891 Q 455 884 461 880.5 Q 467 877 478 877 L 530 885 L 578 891 Q 636 914.5 614 968 L 629 1104 L 638 1159 L 649 1285 L 646 1349 Z"/><path d="M 1022 842 L 1214 823 Q 1280 817 1316.5 812.5 Q 1353 808 1377 801 Q 1401 794 1409 793 Q 1419 793 1442 801 Q 1465 809 1503 837.5 Q 1541 866 1557.5 886.5 Q 1574 907 1575.5 916.5 Q 1577 926 1561 948 Q 1541 975 1524.5 1000.5 Q 1508 1026 1492 1070 L 1452 1179 Q 1438 1217 1421 1270 Q 1404 1323 1382.5 1344 Q 1361 1365 1341 1368.5 Q 1321 1372 1313 1367 Q 1297 1359 1299 1349 L 1298 1319 L 1304 1277 Q 1316 1229 1318 1223 L 1346 1100 L 1354 1055 L 1368 957 Q 1372 926 1369 914 Q 1366 902 1355.5 894.5 Q 1345 887 1315 889 Q 1303 890 1245.5 892 Q 1188 894 1130 899 L 1019 909 L 913 919 Q 850 928 783 937.5 Q 716 947 658 959 L 614 968 L 578 891 L 913 853 L 1022 842 Z"/><path d="M 629 1104 L 910 1080 L 1014 1065 Q 1127 1053 1182.5 1043.5 Q 1238 1034 1261 1035 Q 1284 1037 1309 1043 L 1354 1055 L 1346 1100 Q 1308 1107 1276 1111.5 Q 1244 1116 1157 1124 L 1014 1138 L 909 1150 Q 864 1156 842 1157 L 758 1164 Q 693 1171 683 1168 L 638 1159 L 629 1104 Z"/><path d="M 1298 1319 L 1007 1334 L 909 1340 L 646 1349 L 649 1285 L 908 1272 L 1009 1263 L 1157 1252 Q 1212 1248 1231.5 1248.5 Q 1251 1249 1259 1253 L 1304 1277 L 1298 1319 Z"/><path d="M 1005 1500 L 1225 1469 Q 1234 1468 1274 1469 Q 1314 1470 1342.5 1487 Q 1371 1504 1374.5 1513 Q 1378 1522 1378 1526 Q 1376 1539 1353 1544 Q 1330 1549 1293 1552 L 1003 1580 L 909 1590 Q 812 1598 777 1599 Q 742 1600 718 1600 Q 668 1601 650 1595 Q 632 1589 609.5 1576 Q 587 1563 583.5 1554 Q 580 1545 583 1541 Q 586 1537 602 1535 L 661 1530 L 799 1520 L 909 1509 L 1005 1500 Z"/><path d="M 908 622 Q 902 552 897 512 Q 892 472 886 459 L 873 432 L 987 397 Q 1028 414 1049 426 Q 1070 438 1074.5 448 Q 1079 458 1078 466.5 Q 1077 475 1067.5 497.5 Q 1058 520 1055 546 L 1045 614 L 1032 687 L 1022 842 L 1019 909 L 1014 1065 L 1014 1138 L 1009 1263 L 1007 1334 L 1005 1500 L 1003 1580 L 1002 1731 Q 950.5 1873 909 1735 L 909 1590 L 909 1509 L 909 1340 L 908 1272 L 909 1150 L 910 1080 L 913 919 L 913 853 L 911 697 L 908 622 Z"/><path d="M 1002 1731 L 1284 1711 Q 1418 1702 1457.5 1693 Q 1497 1684 1511 1684 Q 1527 1685 1567.5 1697 Q 1608 1709 1628 1717.5 Q 1648 1726 1671 1740 Q 1694 1754 1702.5 1764.5 Q 1711 1775 1710 1783 Q 1708 1794 1693 1801 Q 1678 1808 1642 1808 L 1564 1812 L 1343 1811 Q 1188 1811 1097 1813.5 Q 1006 1816 865.5 1825.5 Q 725 1835 646 1845 L 535 1860 L 457 1872 Q 427 1872 394.5 1858 Q 362 1844 335 1827 Q 308 1810 301 1801 Q 294 1792 294.5 1786.5 Q 295 1781 299 1777 Q 303 1773 330 1772 L 438 1768 Q 552 1764 671 1754 L 909 1735 L 1002 1731 Z"/></g><g transform="translate(138.700,85.200) scale(0.002930)"><path d="M 536 279 L 520 254 Q 509 238 513 230.5 Q 517 223 531 221 Q 538 221 552 224 L 600 237 Q 641 249 670 261 Q 699 273 724.5 291 Q 750 309 761.5 331 Q 773 353 772 391 Q 770 432 752.5 451.5 Q 735 471 710.5 472.5 Q 686 474 652 439 Q 634 422 601.5 376.5 Q 569 331 560 317 L 536 279 Z"/><path d="M 531 1092 Q 505 1123 488.5 1142 Q 472 1161 433.5 1199.5 Q 395 1238 364.5 1267 Q 334 1296 295.5 1325.5 Q 257 1355 209.5 1384 Q 162 1413 136 1424 L 98 1441 Q 84 1448 76.5 1446 Q 69 1444 67.5 1436 Q 66 1428 79 1417 L 119 1386 Q 135 1374 201 1313 Q 267 1252 292 1227 Q 317 1202 381.5 1125.5 Q 446 1049 483 1002 L 570 888 Q 611 835 624 815 L 645 781 Q 653 769 651.5 762 Q 650 755 639 751.5 Q 628 748 593 759 L 383 824 Q 350 834 323 844 Q 296 854 287 854 Q 271 855 241 840 Q 211 825 196 815 Q 181 805 171 793 Q 161 781 163 774 Q 164 766 171 763.5 Q 178 761 210 759 L 261 756 Q 294 755 358.5 742.5 Q 423 730 465.5 720.5 Q 508 711 543.5 700 Q 579 689 603.5 679 Q 628 669 649.5 657 Q 671 645 681 643 Q 694 642 719.5 653 Q 745 664 772 680.5 Q 799 697 815.5 715.5 Q 832 734 831 746 Q 829 755 807.5 773.5 Q 786 792 757.5 820.5 Q 729 849 711.5 868.5 Q 694 888 664.5 926 Q 635 964 620 983 L 575 1041 L 531 1092 Z"/><path d="M 575 1041 Q 586 1051 592 1057 Q 598 1063 612.5 1078 Q 627 1093 632 1101 L 648 1129 L 639 1185 Q 634 1207 631.5 1224.5 Q 629 1242 628 1282 L 617 1567 L 622 1684 Q 620 1698 613.5 1728 Q 607 1758 601 1776 Q 595 1794 580.5 1817.5 Q 566 1841 554 1840 Q 543 1840 529.5 1820.5 Q 516 1801 501.5 1761.5 Q 487 1722 484.5 1707 Q 482 1692 483 1679 Q 483 1669 489.5 1646.5 Q 496 1624 506.5 1576 Q 517 1528 521 1505 Q 525 1482 528 1447 L 539 1276 Q 540 1260 539 1215 L 538 1163 Q 537 1134 536 1126 L 531 1092 L 575 1041 Z"/><path d="M 648 1129 L 672 1103 Q 690 1084 707 1059 Q 724 1034 735.5 1013 Q 747 992 751.5 979.5 Q 756 967 760 951 Q 764 935 770.5 929.5 Q 777 924 786 923 Q 795 923 812 933 Q 829 943 847.5 958 Q 866 973 878.5 991 Q 891 1009 888 1018 Q 886 1024 881 1028 Q 876 1032 860.5 1038 Q 845 1044 818 1060 L 745 1101 Q 722 1114 694 1132 L 683 1139 L 648 1129 Z"/><path d="M 683 1139 Q 698 1143 723 1150 Q 748 1157 780.5 1174.5 Q 813 1192 834.5 1219 Q 856 1246 854.5 1271 Q 853 1296 838 1310 Q 823 1324 803 1322.5 Q 783 1321 757 1299 L 693 1237 L 639 1185 Q 594 1109 683 1139 Z"/><path d="M 1067 479 Q 1044 511 1027.5 531.5 Q 1011 552 969.5 596 Q 928 640 907 653 L 886 666 Q 863 681 859 679 Q 855 677 854 671.5 Q 853 666 866 646 L 891 607 Q 931 545 955.5 501.5 Q 980 458 1007 400 Q 1034 342 1043.5 305.5 Q 1053 269 1056 247 Q 1058 227 1055 207 Q 1052 187 1056.5 181.5 Q 1061 176 1081 177 Q 1102 179 1142.5 193.5 Q 1183 208 1198.5 229 Q 1214 250 1212 261 Q 1210 267 1200 280 Q 1190 293 1172.5 316 Q 1155 339 1146 353 L 1094 434 L 1067 479 Z"/><path d="M 1094 434 L 1314 380 Q 1331 376 1400 356 Q 1469 336 1497.5 325 Q 1526 314 1539 313 Q 1550 313 1566.5 318 Q 1583 323 1617.5 336.5 Q 1652 350 1665.5 363.5 Q 1679 377 1676 386.5 Q 1673 396 1650 399 L 1583 410 L 1475 424 Q 1459 427 1354 447.5 Q 1249 468 1210.5 478.5 Q 1172 489 1156 490 Q 1126 493 1099 486 L 1067 479 L 1094 434 Z"/><path d="M 1127 1087 Q 1121 1098 1115 1106.5 Q 1109 1115 1102 1115.5 Q 1095 1116 1084 1104 Q 1070 1090 1061.5 1075.5 Q 1053 1061 1045 1040 Q 1037 1019 1036.5 1010 Q 1036 1001 1047 961 Q 1050 946 1053 910.5 Q 1056 875 1056 864 L 1054 753 Q 1053 732 1048 705.5 Q 1043 679 1031 660.5 Q 1019 642 1018.5 634 Q 1018 626 1026 618 Q 1034 610 1049 609 Q 1058 609 1094 622 L 1135 638 L 1140 698 L 1140 835 L 1137 884 L 1136 1026 L 1127 1087 Z"/><path d="M 1135 638 L 1294 605 Q 1326 599 1359 591 Q 1392 583 1419.5 570.5 Q 1447 558 1454 557 Q 1467 556 1495.5 566 Q 1524 576 1548.5 589 Q 1573 602 1592 618 Q 1611 634 1612 644 Q 1613 654 1602 679 Q 1593 698 1586 728 Q 1579 758 1579 783 L 1579 897 L 1587 966 Q 1588 1012 1562 1058 Q 1548 1083 1535.5 1090.5 Q 1523 1098 1518 1098 Q 1508 1099 1494 1079 L 1472 1050 L 1464 986 Q 1471 928 1472 914 L 1476 853 L 1472 805 L 1468 738 Q 1465 696 1462.5 688 Q 1460 680 1452 671.5 Q 1444 663 1437.5 658.5 Q 1431 654 1400 654.5 Q 1369 655 1284 671 L 1140 698 L 1135 638 Z"/><path d="M 1476 853 L 1230 887 L 1137 884 L 1140 835 L 1269 812 Q 1291 809 1313.5 803 Q 1336 797 1362.5 789.5 Q 1389 782 1403 782 Q 1422 783 1450 795 L 1472 805 L 1476 853 Z"/><path d="M 1472 1050 L 1195 1086 L 1159 1091 L 1127 1087 L 1136 1026 L 1264 1006 Q 1330 996 1367.5 987 Q 1405 978 1410 978 L 1464 986 L 1472 1050 Z"/><path d="M 1085 1444 Q 1038 1483 1009 1505.5 Q 980 1528 951.5 1547 Q 923 1566 888.5 1585 Q 854 1604 839 1607 L 820 1611 Q 796 1618 792.5 1610.5 Q 789 1603 809 1589 L 831 1573 Q 845 1563 895.5 1516.5 Q 946 1470 959 1454 L 1008 1397 L 1048 1346 Q 1062 1329 1076 1311 Q 1090 1293 1111.5 1253.5 Q 1133 1214 1138.5 1196 Q 1144 1178 1145.5 1152 Q 1147 1126 1148 1120 Q 1149 1114 1152 1110 Q 1155 1106 1173 1108 Q 1191 1110 1219 1129 Q 1247 1148 1266.5 1171.5 Q 1286 1195 1281 1199 L 1255 1238 L 1202 1310 Q 1178 1345 1174 1350 L 1135 1397 L 1085 1444 Z"/><path d="M 1255 1238 L 1348 1218 Q 1388 1210 1413 1201 L 1467 1182 Q 1485 1177 1499 1177 Q 1515 1178 1540 1190 Q 1565 1202 1588 1214 Q 1611 1226 1620 1235.5 Q 1629 1245 1629.5 1253 Q 1630 1261 1623 1270 Q 1621 1273 1603.5 1289 Q 1586 1305 1568 1328.5 Q 1550 1352 1547 1356 L 1476 1473 L 1402 1580 L 1322 1661 Q 1288 1685 1251 1709 Q 1214 1733 1149 1762 Q 1084 1791 1002 1814.5 Q 920 1838 876 1845 Q 832 1852 808 1851 L 772 1850 Q 747 1850 746.5 1839.5 Q 746 1829 764 1824 L 806 1813 Q 827 1808 881 1790.5 Q 935 1773 993.5 1749 Q 1052 1725 1119 1689 Q 1186 1653 1212 1631 L 1255 1597 L 1318 1525 Q 1336 1498 1354 1469.5 Q 1372 1441 1391 1402.5 Q 1410 1364 1418.5 1337.5 Q 1427 1311 1427 1300 Q 1426 1292 1422 1286 Q 1418 1280 1402 1280 Q 1391 1281 1359 1290 L 1292 1308 Q 1258 1322 1254 1322 Q 1236 1325 1225 1319 L 1202 1310 L 1255 1238 Z"/><path d="M 1255 1597 Q 1227 1573 1214 1560 L 1134 1484 L 1085 1444 L 1008 1397 Q 987 1385 967.5 1373 Q 948 1361 935 1356 L 904 1348 Q 891 1344 888 1335.5 Q 885 1327 898 1318 Q 911 1309 922 1307.5 Q 933 1306 958 1310 Q 983 1314 1002 1323 L 1048 1346 L 1135 1397 L 1318 1525 L 1402 1580 Q 1439 1603 1485.5 1629.5 Q 1532 1656 1607 1687 Q 1682 1718 1758 1740 L 1891 1777 L 1948 1794 Q 1966 1800 1974.5 1806 Q 1983 1812 1980 1819 Q 1977 1826 1965 1829 L 1919 1841 Q 1901 1846 1853 1851 L 1740 1866 Q 1690 1873 1653 1873 Q 1610 1874 1582.5 1866 Q 1555 1858 1510 1825.5 Q 1465 1793 1426 1756 L 1322 1661 L 1255 1597 Z"/></g><g transform="translate(164.500,85.200) scale(0.002930)"><path d="M 990 434 Q 1031 394 1055 368 Q 1079 342 1107.5 307 Q 1136 272 1153.5 247 Q 1171 222 1178.5 189 Q 1186 156 1193.5 150 Q 1201 144 1217 144 Q 1227 145 1256 157 L 1306 176 Q 1327 186 1346.5 201 Q 1366 216 1367.5 228 Q 1369 240 1355 253 Q 1350 257 1322 271 Q 1294 285 1257 316.5 Q 1220 348 1170 382 Q 1120 416 1056 448 L 988 483 Q 879 518.5 990 434 Z"/><path d="M 988 483 L 988 513 L 982 572 Q 967 666 962 690 L 947 756 L 938 817 Q 923 891 920 906 L 900 990 L 856 1119 Q 833 1170 817 1199.5 Q 801 1229 770.5 1271 Q 740 1313 710 1344.5 Q 680 1376 651 1398 L 623 1420 Q 608 1432 603 1425.5 Q 598 1419 614 1396 L 634 1366 Q 668 1315 683.5 1289.5 Q 699 1264 724.5 1211 Q 750 1158 772 1097.5 Q 794 1037 809 977.5 Q 824 918 842.5 823 Q 861 728 864.5 685.5 Q 868 643 870 574 Q 872 505 854 471.5 Q 836 438 835.5 429.5 Q 835 421 842.5 414.5 Q 850 408 875 411 Q 909 417 930 421 L 990 434 L 988 483 Z"/><path d="M 988 513 Q 1044 507 1091 501 Q 1138 495 1188 484 Q 1238 473 1303 453.5 Q 1368 434 1402.5 419.5 Q 1437 405 1452 404 Q 1467 404 1497.5 415.5 Q 1528 427 1550.5 438.5 Q 1573 450 1585 461.5 Q 1597 473 1597.5 482 Q 1598 491 1594 500 Q 1590 508 1569.5 531 Q 1549 554 1537 584 L 1484 715 Q 1396 776.5 1398 688 L 1417 587 Q 1425 543 1420.5 529.5 Q 1416 516 1403.5 509 Q 1391 502 1365 505 Q 1337 509 1252 527.5 Q 1167 546 1130 552.5 Q 1093 559 1049 564 L 982 572 L 988 513 Z"/><path d="M 1484 715 Q 1497 726 1503.5 734 Q 1510 742 1510.5 750.5 Q 1511 759 1496 765 L 1457 767 L 1378 772 L 938 817 Q 867.5 786.5 947 756 Q 1077 741 1160.5 729 Q 1244 717 1333 700 L 1398 688 Q 1461 681.5 1484 715 Z"/><path d="M 945 1297 Q 951 1378 950.5 1415.5 Q 950 1453 934.5 1484 Q 919 1515 901 1512 Q 889 1511 872.5 1488 Q 856 1465 854 1440 Q 852 1425 859 1375.5 Q 866 1326 864 1275 L 856 1119 Q 891 895.5 938 1064 L 945 1232 L 945 1297 Z"/><path d="M 900 990 Q 966 984 1031.5 977 Q 1097 970 1250 949 Q 1403 928 1455 921.5 Q 1507 915 1536 909 Q 1565 903 1595 894 Q 1625 885 1639 884 Q 1659 884 1683 892.5 Q 1707 901 1736 919 Q 1765 937 1789 960 Q 1813 983 1813 999 Q 1812 1009 1796.5 1033.5 Q 1781 1058 1774.5 1080.5 Q 1768 1103 1764 1160 L 1749 1344 Q 1743 1412 1737 1448 Q 1731 1484 1715.5 1520 Q 1700 1556 1672.5 1590.5 Q 1645 1625 1611.5 1641.5 Q 1578 1658 1563 1649 Q 1553 1644 1543 1624 L 1524 1584 Q 1519 1575 1501 1545 Q 1483 1515 1472 1502 L 1449 1477 Q 1440 1468 1444 1461 Q 1448 1454 1459 1457 L 1496 1470 Q 1496 1471 1532 1479 Q 1568 1487 1578 1484 Q 1595 1480 1608 1460 Q 1621 1440 1632.5 1397 Q 1644 1354 1645 1336 L 1655 1217 L 1654 1187 L 1655 1064 Q 1655 1029 1648 1015 Q 1641 1001 1623 993 Q 1605 985 1568 988 L 1415 1003 L 1319 1007 L 1176 1026 L 1086 1044 L 938 1064 Q 789 1043 900 990 Z"/><path d="M 1655 1217 Q 1631 1227 1616.5 1231.5 Q 1602 1236 1572.5 1241 Q 1543 1246 1509 1250 L 1415 1262 L 1324 1274 L 1185 1287 L 1106 1292 L 945 1297 L 945 1232 L 1103 1215 L 1189 1203 L 1328 1187 L 1422 1175 Q 1465 1170 1495 1165 Q 1525 1160 1547.5 1160.5 Q 1570 1161 1603 1171 L 1654 1187 L 1655 1217 Z"/><path d="M 1185 1287 Q 1183 1349 1184.5 1383.5 Q 1186 1418 1185 1430 Q 1182 1458 1169.5 1479 Q 1157 1500 1146 1502.5 Q 1135 1505 1120 1489 Q 1109 1479 1102.5 1457.5 Q 1096 1436 1096 1420 L 1106 1348 L 1106 1292 L 1103 1215 Q 1103 1181 1102 1152.5 Q 1101 1124 1093 1081 L 1086 1044 Q 1061 955 1176 1026 Q 1193 1040 1204 1049.5 Q 1215 1059 1216.5 1067 Q 1218 1075 1207.5 1098.5 Q 1197 1122 1195 1148 L 1189 1203 L 1185 1287 Z"/><path d="M 1415 1262 L 1403 1432 Q 1400 1471 1393.5 1491.5 Q 1387 1512 1377 1528.5 Q 1367 1545 1357 1544 Q 1347 1544 1339.5 1534.5 Q 1332 1525 1324.5 1506 Q 1317 1487 1316 1475 L 1319 1432 L 1324 1274 L 1328 1187 L 1328 1101 L 1319 1007 Q 1317 940 1415 1003 Q 1430 1015 1441 1024.5 Q 1452 1034 1454.5 1041.5 Q 1457 1049 1444.5 1076 Q 1432 1103 1428 1135 L 1422 1175 L 1415 1262 Z"/><path d="M 335 467 L 307 432 Q 298 422 300 415 Q 302 408 307 405.5 Q 312 403 322 404 L 358 409 Q 379 413 414 421 Q 449 429 477 437.5 Q 505 446 532 458.5 Q 559 471 574 487 Q 589 503 595 523.5 Q 601 544 601 561 Q 600 576 592.5 601.5 Q 585 627 571.5 640.5 Q 558 654 540.5 658 Q 523 662 491 636 Q 474 624 443 588 L 387 527 Q 355 493 335 467 Z"/><path d="M 351 1195.5 Q 347 1189 347.5 1183.5 Q 348 1178 356 1157 L 404 1034 Q 411 1014 415 999.5 Q 419 985 414.5 980.5 Q 410 976 396 978 Q 389 980 377.5 984 Q 366 988 328.5 999.5 Q 291 1011 273.5 1014.5 Q 256 1018 228 1015 Q 205 1014 188 1008.5 Q 171 1003 161.5 995 Q 152 987 153 980 Q 153 975 161 970 L 186 964 L 222 954 Q 247 947 290.5 932 Q 334 917 366 901.5 Q 398 886 423 868 Q 448 850 459 848 Q 471 847 492.5 857 Q 514 867 538 882.5 Q 562 898 579.5 916 Q 597 934 596 947 Q 594 957 572.5 977 Q 551 997 539.5 1008.5 Q 528 1020 515 1036 L 439 1130 Q 419 1155 411.5 1165 Q 404 1175 406 1183 L 351 1195.5 Z"/><path d="M 463 1500 Q 465 1487 467 1475.5 Q 469 1464 471.5 1435.5 Q 474 1407 461 1364 Q 452 1336 435 1306.5 Q 418 1277 403 1255 Q 388 1233 371.5 1217.5 Q 355 1202 351 1195.5 L 406 1183 Q 407 1192 426 1204 L 476 1236 Q 504 1257 524 1285.5 Q 544 1314 548.5 1350.5 Q 553 1387 541 1439 Q 533 1469 528 1480 L 519 1499 Q 441 1579.5 463 1500 Z"/><path d="M 519 1499 Q 548 1503 564 1504.5 Q 580 1506 595.5 1508 Q 611 1510 696.5 1535.5 Q 782 1561 796 1565 L 953 1613 Q 1044 1640 1136 1658.5 Q 1228 1677 1319.5 1685.5 Q 1411 1694 1525.5 1698.5 Q 1640 1703 1724 1703 L 1828 1703 L 1919 1704 Q 1943 1705 1949 1718 Q 1955 1731 1931 1743 L 1877 1770 Q 1855 1781 1794 1802 L 1647 1856 Q 1592 1876 1544 1891 Q 1496 1906 1468 1906 Q 1427 1908 1360 1883.5 Q 1293 1859 1158 1803.5 Q 1023 1748 975 1728 L 792 1655 Q 716 1625 675.5 1612.5 Q 635 1600 587.5 1593 Q 540 1586 493 1585 Q 434 1585 380 1593.5 Q 326 1602 299.5 1609 Q 273 1616 249 1628.5 Q 225 1641 216 1641 Q 202 1642 186 1632.5 Q 170 1623 153.5 1608 Q 137 1593 124 1577.5 Q 111 1562 104.5 1548 Q 98 1534 100.5 1524.5 Q 103 1515 116 1510 Q 123 1508 138.5 1511.5 Q 154 1515 188.5 1517 Q 223 1519 234 1519 Q 258 1520 297 1515 L 368 1507 Q 402 1504 429 1502 L 463 1500 L 519 1499 Z"/></g></g><g fill="#000000" stroke="none"><g transform="translate(111.750,127.700) scale(0.002441)"><path d="M 545 750 L 435 765 Q 397 771 374.5 772 Q 352 773 324 770 Q 296 767 277.5 763.5 Q 259 760 241.5 748.5 Q 224 737 227.5 726 Q 231 715 248 713 L 292 708 Q 317 706 387.5 695.5 Q 458 685 480 679 L 546 664 L 643 644 Q 674 635 703.5 624.5 Q 733 614 748 612 Q 771 610 790 614.5 Q 809 619 822 624 Q 835 629 852 639 Q 869 649 869.5 659 Q 870 669 862 678 Q 852 688 808 698.5 Q 764 709 738 715 Q 712 721 688 724 L 639 732 L 545 750 Z"/><path d="M 546 664 L 547 513 Q 547 460 540 393 Q 533 326 527 294 Q 521 262 509.5 233.5 Q 498 205 496.5 186 Q 495 167 506 160 Q 517 153 530 152 Q 555 151 585 163 Q 615 175 650.5 195.5 Q 686 216 698 234 Q 710 252 710.5 264.5 Q 711 277 701 297 L 687 323 Q 678 342 671 368.5 Q 664 395 661.5 411.5 Q 659 428 651.5 496 Q 644 564 644 584 L 643 644 L 639 732 L 634 959 L 635 1037 L 629 1268 Q 628 1288 633 1357 L 638 1468 Q 639 1510 639.5 1537 Q 640 1564 635 1596 Q 629 1633 614.5 1668 Q 600 1703 581.5 1727 Q 563 1751 550.5 1757 Q 538 1763 527 1760 Q 514 1758 501 1739 L 480 1707 Q 470 1694 429 1649.5 Q 388 1605 379 1596 L 324 1549 Q 308 1536 315.5 1526.5 Q 323 1517 338 1521 L 426 1546 L 459 1556 Q 486 1563 499 1554 Q 509 1547 512.5 1531.5 Q 516 1516 518 1484 L 536 1113 L 544 1014 L 545 750 L 546 664 Z"/><path d="M 634 959 L 771 875 Q 785 866 795 876 Q 805 886 785 904 L 635 1037 L 536 1113 L 409 1219 Q 368 1253 343.5 1275 Q 319 1297 301.5 1315.5 Q 284 1334 271 1350.5 Q 258 1367 250.5 1369.5 Q 243 1372 232 1370 Q 215 1369 201 1362.5 Q 187 1356 154 1333 Q 121 1310 107.5 1290 Q 94 1270 96 1259 Q 97 1253 102 1249 Q 107 1245 126 1243 Q 145 1241 175.5 1229 Q 206 1217 228 1203 L 544 1014 L 634 959 Z"/><path d="M 1279 727 L 1283 430 Q 1283 373 1281.5 339 Q 1280 305 1263.5 275 Q 1247 245 1242.5 230 Q 1238 215 1248 207 Q 1258 199 1277 200 Q 1295 202 1320.5 208.5 Q 1346 215 1369.5 223 Q 1393 231 1403.5 242.5 Q 1414 254 1415 267 Q 1416 280 1400 322 Q 1391 344 1385 396.5 Q 1379 449 1379 504 L 1377 832 Q 1376 926 1373 970 Q 1370 1014 1366.5 1038 Q 1363 1062 1352 1090.5 Q 1341 1119 1327 1117 Q 1318 1117 1303 1100.5 Q 1288 1084 1278.5 1066 Q 1269 1048 1261 1022 Q 1253 996 1255 970 Q 1255 965 1261 931.5 Q 1267 898 1272.5 832 Q 1278 766 1279 727 Z"/><path d="M 878 1098 L 852 1120 Q 835 1135 826.5 1127.5 Q 818 1120 833 1096 L 855 1061 Q 874 1031 902.5 972.5 Q 931 914 950 868 Q 969 822 980 787 Q 991 752 997 719.5 Q 1003 687 999 667.5 Q 995 648 996 638.5 Q 997 629 1005 626 Q 1013 623 1023 624 Q 1039 627 1057.5 633 Q 1076 639 1104 654.5 Q 1132 670 1148 690.5 Q 1164 711 1160 724 Q 1158 730 1136 756 Q 1114 782 1108 790.5 Q 1102 799 1080.5 838 Q 1059 877 1039 908 Q 1019 939 990 975 Q 961 1011 927.5 1047.5 Q 894 1084 878 1098 Z"/><path d="M 1575 632 Q 1563 624 1562.5 611.5 Q 1562 599 1582 602 L 1624 610 Q 1646 615 1678 623.5 Q 1710 632 1771.5 653.5 Q 1833 675 1873 700.5 Q 1913 726 1930.5 751 Q 1948 776 1951 817 Q 1954 858 1938 877.5 Q 1922 897 1901.5 901 Q 1881 905 1852 885 Q 1835 874 1804.5 839 Q 1774 804 1725 756.5 Q 1676 709 1654 692 L 1575 632 Z"/><path d="M 768 1872 L 806 1850 Q 829 1837 877 1802.5 Q 925 1768 994.5 1711 Q 1064 1654 1153 1570.5 Q 1242 1487 1305.5 1414.5 Q 1369 1342 1423.5 1264 Q 1478 1186 1502.5 1141.5 Q 1527 1097 1551 1044 Q 1575 991 1576 947 Q 1577 903 1585 889 Q 1593 875 1610 874 Q 1619 874 1645 891 Q 1671 908 1690.5 922 Q 1710 936 1732.5 961 Q 1755 986 1753 1003 Q 1751 1015 1729 1037 Q 1707 1059 1686.5 1085.5 Q 1666 1112 1626 1171 Q 1586 1230 1560 1266.5 Q 1534 1303 1474.5 1377.5 Q 1415 1452 1353 1517 Q 1291 1582 1223 1638.5 Q 1155 1695 1112 1725.5 Q 1069 1756 998.5 1798 Q 928 1840 890.5 1857 Q 853 1874 821 1883 L 773 1897 Q 759 1901 755.5 1891 Q 752 1881 768 1872 Z"/></g><g transform="translate(117.250,127.700) scale(0.002441)"><path d="M 984 342 Q 960 322 947.5 308 Q 935 294 922 270 L 876 190 Q 862 168 856 150 Q 850 132 855.5 125.5 Q 861 119 885 121 Q 926 126 977.5 146 Q 1029 166 1054 196 Q 1079 226 1081 262 Q 1082 290 1075 299 L 1053 332 Q 1022.5 365 984 342 Z"/><path d="M 467 452 Q 457 490 449.5 516 Q 442 542 426 582 Q 410 622 385.5 654.5 Q 361 687 341 684 Q 322 682 308 658 Q 294 634 293 608 Q 292 582 300 561 L 324 516 L 352 454 Q 370 414 378 375 Q 386 336 394.5 325 Q 403 314 414.5 311 Q 426 308 445 347 L 457 373 Q 468 410.5 467 452 Z"/><path d="M 1053 332 L 1365 294 Q 1383 292 1456.5 279.5 Q 1530 267 1551 269 Q 1584 274 1628.5 308 Q 1673 342 1713.5 382.5 Q 1754 423 1754.5 439 Q 1755 455 1749 463 Q 1740 474 1722 477 Q 1704 480 1653.5 484 Q 1603 488 1580 493 L 1523 509 L 1459 525 Q 1420 535 1417 530 Q 1414 525 1422 514 L 1476 438 Q 1497 408 1500.5 392 Q 1504 376 1498.5 368.5 Q 1493 361 1456 360.5 Q 1419 360 1395 360 Q 1311 362 1224 372 Q 1137 382 950 405 Q 763 428 703.5 436.5 Q 644 445 594 453 Q 544 461 524 462 Q 495 464 485 459 L 467 452 L 457 373 L 598 369 L 984 342 L 1053 332 Z"/><path d="M 643 620 Q 676 591 690 578 Q 704 565 722.5 546 Q 741 527 761 492 Q 781 457 789 452 Q 797 447 808 446 Q 818 446 827 450.5 Q 836 455 866 481.5 Q 896 508 903.5 519 Q 911 530 911 542 Q 910 549 906.5 554 Q 903 559 878 565.5 Q 853 572 812 588 L 677 642 Q 576 665 643 620 Z"/><path d="M 648.5 1088 Q 640 1077 635 1056 L 628 997 L 596 765 Q 590 724 578.5 697 Q 567 670 550 651.5 Q 533 633 530 627 Q 527 621 527.5 615.5 Q 528 610 535 604 Q 544 596 584 605 L 643 620 L 677 642 Q 683 710 684 726 L 688 789 L 692 846 L 705 997 Q 720.75 1165.5 648.5 1088 Z"/><path d="M 688 789 L 732 775 Q 759 767 770 765.5 Q 781 764 797 765 Q 807 767 839.5 775.5 Q 872 784 872.5 793 Q 873 802 866 808 Q 860 813 845 815 L 800 825 L 692 846 L 688 789 Z"/><path d="M 1196 951 Q 1217 882 1220 866 L 1233 790 L 1241 741 Q 1246 699 1252 672 Q 1258 645 1257 632 L 1250 600 Q 1248 592 1233 588 L 1079 604 Q 1075 605 1056.5 604 Q 1038 603 1025.5 594.5 Q 1013 586 1012 576.5 Q 1011 567 1013 563.5 Q 1015 560 1020 557 L 1076 552 L 1217 516 L 1263 500 Q 1280 494 1292 494 Q 1304 495 1323 502 L 1373 528 Q 1405 545 1412 556 Q 1419 567 1418.5 577 Q 1418 587 1402 613.5 Q 1386 640 1375 683 L 1310 935 Q 1294 994 1287.5 1015.5 Q 1281 1037 1266.5 1054.5 Q 1252 1072 1239 1072 Q 1218 1074 1214 1062 L 1187 1015 Q 1141.5 929 1196 951 Z"/><path d="M 1233 790 L 1089 811 Q 1060 816 1042 815.5 Q 1024 815 1003.5 805 Q 983 795 982.5 788.5 Q 982 782 985.5 777.5 Q 989 773 1006.5 768.5 Q 1024 764 1041 761 L 1133 747 L 1190 732 Q 1193 732 1221 737 L 1241 741 L 1233 790 Z"/><path d="M 705 997 L 983 965 L 1123 943 Q 1157 941 1176 946 L 1196 951 L 1187 1015 L 708 1065 L 705 997 Z"/><path d="M 653 1282 Q 587 1320 544 1341 Q 501 1362 458 1373 L 423 1382 Q 396 1389 393 1382 Q 390 1375 415 1358 L 452 1333 Q 487 1309 545.5 1265.5 Q 604 1222 631 1191.5 Q 658 1161 662 1145 L 671 1110 Q 657 1099 648.5 1088 L 708 1065 Q 758 1080 784.5 1094 Q 811 1108 821 1121 Q 831 1134 831.5 1138.5 Q 832 1143 832 1147 L 763 1198 L 697 1244 L 653 1282 Z"/><path d="M 697 1244 L 1265 1178 Q 1297 1175 1359.5 1167.5 Q 1422 1160 1455 1149.5 Q 1488 1139 1499 1138 Q 1516 1138 1539 1149 Q 1562 1160 1593.5 1185.5 Q 1625 1211 1641.5 1233 Q 1658 1255 1654 1268 Q 1652 1271 1639 1286.5 Q 1626 1302 1616.5 1342 Q 1607 1382 1605 1406 L 1579 1676 Q 1573 1732 1556.5 1775.5 Q 1540 1819 1514.5 1849 Q 1489 1879 1438.5 1910.5 Q 1388 1942 1368 1929 Q 1359 1925 1346.5 1904 Q 1334 1883 1305 1843.5 Q 1276 1804 1264 1789 L 1227 1748 Q 1212 1732 1215.5 1725 Q 1219 1718 1247 1721 L 1313 1730 L 1368 1738 Q 1394 1742 1406 1738 Q 1425 1732 1441.5 1702.5 Q 1458 1673 1469.5 1618 Q 1481 1563 1486.5 1499 Q 1492 1435 1494 1372.5 Q 1496 1310 1492 1278 Q 1489 1261 1480 1249 Q 1471 1237 1432 1238 L 1261 1246 L 974 1270 Q 939 1273 862 1287.5 Q 785 1302 747 1304 Q 699 1307 685 1298 L 653 1282 L 697 1244 Z"/><path d="M 376 1798 Q 359 1797 343 1776.5 Q 327 1756 324.5 1719 Q 322 1682 332 1650 Q 337 1633 359 1590.5 Q 381 1548 393.5 1520.5 Q 406 1493 413.5 1474 Q 421 1455 425.5 1453 Q 430 1451 443 1470 Q 456 1492 465 1517.5 Q 474 1543 476 1583 Q 478 1623 470 1660 Q 464 1683 446 1727.5 Q 428 1772 406.5 1785.5 Q 385 1799 376 1798 Z"/><path d="M 680 1628 L 643 1518 Q 629 1476 628 1468.5 Q 627 1461 633 1457 Q 639 1453 656 1458 Q 678 1466 706 1485 Q 734 1504 750 1522.5 Q 766 1541 774.5 1561 Q 783 1581 783 1600 Q 782 1616 774.5 1638 Q 767 1660 756 1672.5 Q 745 1685 730.5 1685.5 Q 716 1686 702.5 1671.5 Q 689 1657 680 1628 Z"/><path d="M 921 1568 L 876 1453 Q 866 1430 863 1413 Q 860 1396 865 1392 Q 870 1388 886 1392 Q 902 1398 934.5 1415 Q 967 1432 982 1446 Q 997 1460 1008.5 1486.5 Q 1020 1513 1020 1542 Q 1019 1567 1007 1587.5 Q 995 1608 975.5 1612.5 Q 956 1617 943.5 1605.5 Q 931 1594 921 1568 Z"/><path d="M 1200 1532 L 1130 1412 Q 1110 1379 1117 1373 Q 1124 1367 1142 1368 Q 1169 1371 1205.5 1381 Q 1242 1391 1275 1416 Q 1308 1441 1319.5 1464 Q 1331 1487 1331 1525 Q 1330 1557 1316 1578.5 Q 1302 1600 1274 1599 Q 1256 1599 1239.5 1586 Q 1223 1573 1200 1532 Z"/></g><g transform="translate(122.750,127.700) scale(0.002441)"><path d="M 943 632 L 820 640 Q 767 644 729.5 642.5 Q 692 641 669 635.5 Q 646 630 631.5 613 Q 617 596 620.5 588 Q 624 580 661 576 L 720 570 L 830 559 L 944 542 L 1066 520 L 1139 506 Q 1183 498 1214 489 Q 1245 480 1256 478 Q 1274 477 1286.5 480 Q 1299 483 1326 494.5 Q 1353 506 1364.5 515 Q 1376 524 1375.5 539 Q 1375 554 1348 559 L 1284 573 Q 1231 585 1159 595 L 1064 609 L 943 632 Z"/><path d="M 943 875 L 943 632 L 944 542 L 944 410 Q 944 352 941.5 312.5 Q 939 273 933.5 245.5 Q 928 218 919 197 Q 910 176 906.5 165.5 Q 903 155 908.5 147.5 Q 914 140 936 139 Q 952 139 979 143.5 Q 1006 148 1026.5 153.5 Q 1047 159 1066 169.5 Q 1085 180 1094 192.5 Q 1103 205 1103 214 Q 1102 221 1092 238 Q 1082 255 1078 268.5 Q 1074 282 1070.5 324 Q 1067 366 1067 389 L 1066 520 L 1064 609 L 1064 863 Q 998.5 927 943 875 Z"/><path d="M 1061 934 Q 918 951 811.5 965 Q 705 979 634 992 Q 563 1005 497.5 1018 Q 432 1031 398.5 1041.5 Q 365 1052 352 1052 Q 331 1054 305.5 1045 Q 280 1036 242.5 1015 Q 205 994 193 976.5 Q 181 959 186 949 Q 191 939 216 937 L 263 935 Q 381 930 424 927.5 Q 467 925 595.5 910.5 Q 724 896 759 892 L 850 884 L 943 875 L 1064 863 L 1143 855 L 1306 840 Q 1388 831 1444 824.5 Q 1500 818 1541 812 L 1644 796 L 1697 788 L 1737 780 Q 1762 778 1797 788.5 Q 1832 799 1864 814.5 Q 1896 830 1919.5 848 Q 1943 866 1943.5 878.5 Q 1944 891 1922.5 901 Q 1901 911 1833 912 L 1674 915 Q 1638 916 1520 916.5 Q 1402 917 1351 918 L 1227 921 L 1061 934 Z"/><path d="M 754 1305 Q 732 1320 704 1338.5 Q 676 1357 580.5 1410.5 Q 485 1464 420 1490 Q 355 1516 273 1543 Q 191 1570 163 1573 L 125 1578 Q 107 1581 101.5 1567 Q 96 1553 114 1545 L 161 1525 L 221 1500 Q 278 1475 379.5 1416.5 Q 481 1358 614 1274 Q 747 1190 809 1138 L 1061 934 L 1143 855 L 1255 746 Q 1311 692 1342.5 654.5 Q 1374 617 1409 563 Q 1444 509 1454.5 485 Q 1465 461 1472 432.5 Q 1479 404 1481.5 387 Q 1484 370 1489 364.5 Q 1494 359 1518 365 Q 1536 371 1558.5 384 Q 1581 397 1599 415 Q 1617 433 1630.5 451 Q 1644 469 1648 482 Q 1652 495 1649 502.5 Q 1646 510 1621.5 525 Q 1597 540 1546 593 L 1447 696 Q 1441 702 1357 788 L 1306 840 L 1227 921 Q 1035 1098 957 1158 L 898 1204 L 754 1305 Z"/><path d="M 827 1775 Q 831 1844 814 1860.5 Q 797 1877 785 1877.5 Q 773 1878 755 1847 Q 738 1821 728 1793.5 Q 718 1766 717.5 1751.5 Q 717 1737 731 1697 Q 743 1662 752 1615.5 Q 761 1569 765.5 1517.5 Q 770 1466 770 1413 Q 769 1358 763 1337 L 754 1305 Q 798.5 1192.5 829 1266 Q 844 1282 850.5 1292.5 Q 857 1303 859 1313 L 856 1350 L 850 1469 L 847 1524 L 830 1713 L 827 1775 Z"/><path d="M 898 1204 L 1076 1171 Q 1104 1166 1173.5 1151 Q 1243 1136 1269 1125 Q 1295 1114 1304 1113 Q 1323 1111 1348.5 1123.5 Q 1374 1136 1416.5 1171.5 Q 1459 1207 1459.5 1216.5 Q 1460 1226 1447 1248 Q 1431 1276 1426.5 1301 Q 1422 1326 1423 1377 L 1426 1668 Q 1426 1719 1409 1781 Q 1392 1843 1354 1882 Q 1316 1921 1296 1910 Q 1285 1905 1267.5 1864.5 Q 1250 1824 1245 1805 L 1229 1753 Q 1201 1661.5 1275 1708 Q 1288 1707 1295 1682 Q 1302 1657 1307 1585 L 1313 1465 L 1313 1421 L 1313 1278 Q 1313 1246 1306.5 1239.5 Q 1300 1233 1285.5 1227 Q 1271 1221 1239 1219 Q 1192 1217 1171.5 1219.5 Q 1151 1222 1063 1237 L 957 1254 Q 878 1270 867 1268 L 829 1266 Q 819.5 1209 898 1204 Z"/><path d="M 1313 1465 Q 1264 1474 1240 1478 L 1118 1499 Q 1010 1518 984 1522.5 Q 958 1527 928 1529 Q 898 1531 878 1528 L 847 1524 L 850 1469 Q 914 1459 947 1452 L 1055 1430 Q 1140 1414 1162.5 1408.5 Q 1185 1403 1200 1402 Q 1226 1401 1266 1410 L 1313 1421 L 1313 1465 Z"/><path d="M 1229 1753 Q 1148 1758 1073 1762 Q 998 1766 941.5 1771.5 Q 885 1777 876 1776 L 827 1775 L 830 1713 L 1133 1685 L 1195 1679 Q 1222 1679 1247 1694 Q 1272 1709 1275 1708 L 1229 1753 Z"/></g><g transform="translate(134.750,127.700) scale(0.002441)"><path d="M 896 546 Q 810 555 758 559 Q 706 563 655 562 Q 593 562 564.5 553 Q 536 544 516.5 525.5 Q 497 507 500.5 497 Q 504 487 538 484 L 598 480 Q 672 476 839 455 Q 1006 434 1086 419 L 1229 393 Q 1291 383 1321.5 374.5 Q 1352 366 1360 365 Q 1383 363 1428 373 Q 1473 383 1495 405 Q 1517 427 1514 437 Q 1511 445 1496 453 Q 1481 461 1449 466 L 1371 480 L 1282 493 L 1193 508 L 1061 526 L 896 546 Z"/><path d="M 943 1086 Q 899 1093 854.5 1099.5 Q 810 1106 757 1106 Q 709 1107 672 1102.5 Q 635 1098 600 1076 Q 565 1054 574.5 1042.5 Q 584 1031 618 1028 L 665 1025 L 746 1020 L 943 994 L 1062 977 L 1220 953 Q 1233 951 1280 939.5 Q 1327 928 1349 929 Q 1366 930 1394 938.5 Q 1422 947 1445 960.5 Q 1468 974 1472.5 985 Q 1477 996 1473 1005 Q 1469 1014 1442 1019 L 1382 1031 Q 1336 1041 1296 1045 L 1062 1075 L 943 1086 Z"/><path d="M 943 994 L 941 769 Q 940 754 934 696 Q 928 638 923.5 614 Q 919 590 910 573 L 896 546 L 1061 526 Q 1080 538 1093.5 547 Q 1107 556 1115 567 Q 1123 578 1124.5 589.5 Q 1126 601 1113 630 Q 1104 650 1094 686 Q 1084 722 1076.5 764.5 Q 1069 807 1068 839 L 1062 977 L 1062 1075 L 1064 1513 Q 1005 1575 954 1521 L 943 1086 L 943 994 Z"/><path d="M 1064 1513 L 1313 1495 Q 1404 1489 1449.5 1484 Q 1495 1479 1556 1466.5 Q 1617 1454 1642 1454 Q 1673 1456 1717.5 1470 Q 1762 1484 1790 1498 Q 1818 1512 1836 1531.5 Q 1854 1551 1854 1561 Q 1853 1578 1838.5 1585.5 Q 1824 1593 1785 1593 L 1679 1595 Q 1607 1597 1420 1598 Q 1233 1599 1145 1602 Q 1057 1605 864.5 1621 Q 672 1637 559 1653 L 482 1664 Q 463 1667 425 1676 Q 387 1685 370 1685 Q 341 1686 305 1673 Q 269 1660 247 1649.5 Q 225 1639 207.5 1623.5 Q 190 1608 193 1599.5 Q 196 1591 207 1584 Q 218 1577 245 1576 L 320 1574 Q 388 1573 497.5 1566.5 Q 607 1560 808 1537 L 954 1521 L 1064 1513 Z"/></g><g transform="translate(140.250,127.700) scale(0.002441)"><path d="M 962 1353 L 973 664 L 962 451 Q 960 415 953 370 Q 946 325 932.5 292.5 Q 919 260 919.5 245.5 Q 920 231 928 223.5 Q 936 216 963 220 Q 989 225 1020 235.5 Q 1051 246 1090 264 Q 1129 282 1150 302 Q 1171 322 1172.5 335.5 Q 1174 349 1168 362 L 1144 401 Q 1136 415 1122.5 465.5 Q 1109 516 1100 564.5 Q 1091 613 1089 701 L 1076 1100 L 1087 1502 L 1091 1610 Q 1090 1662 1079.5 1694.5 Q 1069 1727 1043.5 1768.5 Q 1018 1810 999.5 1820.5 Q 981 1831 973 1830 Q 961 1830 949 1816.5 Q 937 1803 906.5 1759.5 Q 876 1716 834.5 1673.5 Q 793 1631 764 1606 L 727 1575 Q 711 1563 716.5 1554 Q 722 1545 742 1550 L 803 1568 Q 859 1584 882 1587 Q 905 1590 918 1582.5 Q 931 1575 938 1560.5 Q 945 1546 952 1470 L 962 1353 Z"/><path d="M 246 1314 Q 278 1267 319 1207.5 Q 360 1148 389 1092 Q 418 1036 439 978.5 Q 460 921 466.5 894.5 Q 473 868 471.5 840 Q 470 812 476.5 806 Q 483 800 506 806 Q 522 811 556 832.5 Q 590 854 616.5 882.5 Q 643 911 632 933 Q 628 940 611.5 955 Q 595 970 588 977.5 Q 581 985 517 1082 Q 453 1179 394.5 1238 Q 336 1297 266 1343 L 239 1361 Q 219 1375 213.5 1366.5 Q 208 1358 223 1340 L 246 1314 Z"/><path d="M 1414 862 L 1389 830 Q 1380 819 1384 810 Q 1388 801 1399 804 L 1442 817 Q 1473 827 1523.5 852 Q 1574 877 1639 920 Q 1704 963 1751.5 1023 Q 1799 1083 1817.5 1138.5 Q 1836 1194 1835 1237 Q 1833 1275 1817.5 1296.5 Q 1802 1318 1781 1321.5 Q 1760 1325 1736 1307 Q 1720 1296 1695 1261 Q 1670 1226 1609.5 1134 Q 1549 1042 1514.5 992 Q 1480 942 1454 910 L 1414 862 Z"/></g><g transform="translate(145.750,127.700) scale(0.002441)"><path d="M 399 1217 L 396 1255 Q 391 1312 373.5 1311.5 Q 356 1311 343 1301 Q 330 1291 314.5 1260 Q 299 1229 297.5 1193.5 Q 296 1158 309 1089 Q 320 1030 323.5 998.5 Q 327 967 334.5 825.5 Q 342 684 342.5 651 Q 343 618 337 552 Q 332 503 325 484 Q 318 465 307 446.5 Q 296 428 299 418 Q 302 408 322 406.5 Q 342 405 351 409 L 407 432 Q 436.5 436.5 424 485 Q 425 519 426.5 556.5 Q 428 594 427 622 L 419 798 L 418 855 L 404 1153 L 399 1217 Z"/><path d="M 407 432 Q 466 421 494 415.5 Q 522 410 569 400 Q 616 390 635.5 384.5 Q 655 379 675.5 370.5 Q 696 362 705 362 Q 712 363 734 371.5 Q 756 380 776.5 393 Q 797 406 817 424 Q 837 442 841 451 Q 845 460 841 474 L 827 504 Q 822 516 820.5 536.5 Q 819 557 818 602.5 Q 817 648 814 759 Q 811 870 816 941 Q 817 976 825.5 1059 Q 834 1142 833 1167 Q 829 1212 809.5 1261.5 Q 790 1311 759 1339 Q 728 1367 713 1356 Q 706 1352 696 1320.5 Q 686 1289 666 1236 L 655 1208 Q 609 1108.5 663 1139 L 691 1155 Q 696 1137 702.5 1110.5 Q 709 1084 710 1047 L 716 822 L 716 774 L 719 568 Q 719 528 718 514.5 Q 717 501 709 487.5 Q 701 474 687.5 466.5 Q 674 459 645 458 Q 616 458 578.5 461 Q 541 464 518 468 L 424 485 L 407 432 Z"/><path d="M 716 822 Q 678 830 660 833 L 577 846 Q 510 857 484.5 859 Q 459 861 443 858 L 418 855 L 419 798 Q 439 796 464 792.5 Q 489 789 520.5 782.5 Q 552 776 579.5 769 Q 607 762 621 760 Q 652 757 674 763 L 716 774 L 716 822 Z"/><path d="M 655 1208 Q 549 1218 498.5 1223 Q 448 1228 437 1225 L 399 1217 L 404 1153 L 541 1139 L 621 1130 Q 650 1132 663 1139 L 655 1208 Z"/><path d="M 1113 1097 Q 1097 1163 1078.5 1230.5 Q 1060 1298 1011.5 1401 Q 963 1504 923 1557.5 Q 883 1611 840.5 1653 Q 798 1695 777 1706 L 746 1722 Q 731 1730 725 1724 Q 719 1718 729 1706 L 760 1669 L 791 1633 Q 815 1604 856.5 1528 Q 898 1452 931 1371 Q 964 1290 990.5 1177.5 Q 1017 1065 1028.5 988 Q 1040 911 1049.5 812.5 Q 1059 714 1061 637.5 Q 1063 561 1062 511 Q 1059 456 1053 412.5 Q 1047 369 1034.5 344 Q 1022 319 1023.5 310 Q 1025 301 1032.5 296 Q 1040 291 1058 293 Q 1072 296 1099 304.5 Q 1126 313 1136 318 L 1166 334 Q 1205 346.5 1192 399 Q 1190 416 1189 424 L 1181 477 Q 1176 511 1175 535 L 1166 733 L 1164 766 Q 1153 853 1152 863 L 1124 1062 L 1113 1097 Z"/><path d="M 1166 334 Q 1229 328 1264 323 Q 1299 318 1355 306.5 Q 1411 295 1444 286 Q 1477 277 1508 265 L 1561 243 Q 1571 239 1578 238 Q 1592 237 1616.5 249.5 Q 1641 262 1671.5 281 Q 1702 300 1727 320.5 Q 1752 341 1751 357 Q 1750 364 1745 374 L 1734 393 Q 1725 409 1717 430 Q 1709 451 1706.5 461.5 Q 1704 472 1695 577 L 1693 999 Q 1692 1155 1696 1315 Q 1700 1475 1693 1551 Q 1686 1616 1673.5 1663 Q 1661 1710 1642 1750 Q 1623 1790 1605 1801 Q 1587 1812 1576 1811 Q 1560 1811 1533 1775 Q 1506 1739 1470 1702 L 1395 1630 Q 1360 1597 1345 1586 L 1322 1570 Q 1310 1563 1314 1552.5 Q 1318 1542 1333 1545 L 1364 1553 L 1431 1573 Q 1455 1580 1492.5 1588 Q 1530 1596 1539 1590 Q 1547 1585 1555 1548.5 Q 1563 1512 1565 1495 L 1567 1423 L 1576 1110 L 1575 1072 L 1576 1051 L 1579 745 L 1576 716 L 1578 466 Q 1578 399 1567 381 Q 1556 363 1527 353 Q 1500 345 1442 355 L 1350 370 L 1261 387 L 1192 399 L 1166 334 Z"/><path d="M 1579 745 Q 1541 750 1523 752 L 1425 769 Q 1361 780 1300 783.5 Q 1239 787 1217 780 L 1164 766 L 1166 733 Q 1253 716 1308 705 Q 1363 694 1403.5 684.5 Q 1444 675 1461 674 Q 1501 673 1520 685 L 1576 716 L 1579 745 Z"/><path d="M 1575 1072 Q 1553 1078 1533.5 1082.5 Q 1514 1087 1475 1091 L 1357 1104 Q 1271 1115 1248 1115 Q 1194 1117 1161 1108 L 1113 1097 L 1124 1062 Q 1241 1045 1331.5 1027.5 Q 1422 1010 1440.5 1007 Q 1459 1004 1475 1005 Q 1511 1008 1536 1025 L 1576 1051 L 1575 1072 Z"/></g><line x1="134.750" y1="132.950" x2="184.750" y2="132.950" stroke="#000" stroke-width="0.3"/></g><g fill="#000000" stroke="none"><g transform="translate(140.900,198.350) scale(0.001709)"><path d="M 263 1419 L 255 1462 Q 248 1497 235.5 1499.5 Q 223 1502 211.5 1497 Q 200 1492 185 1464.5 Q 170 1437 162 1411.5 Q 154 1386 154 1359 Q 154 1341 166 1279 Q 178 1217 186 1167 Q 194 1117 197 1027 L 208 679 Q 208 656 201.5 617 Q 195 578 189.5 560 Q 184 542 172.5 524 Q 161 506 160 496.5 Q 159 487 166 479 Q 173 471 199 474 Q 240 479 258 487 L 285 499 Q 316.5 506 306 557 Q 308 580 308 590 L 300 652 L 289 946 L 285 1002 L 266 1358 L 263 1419 Z"/><path d="M 285 499 Q 313 494 338 488.5 Q 363 483 396.5 475 Q 430 467 451 460 Q 472 453 482 448 L 525 429 Q 535 426 545 426 Q 557 427 574.5 434.5 Q 592 442 620 460.5 Q 648 479 662 494 Q 676 509 677 520 Q 678 531 673 543 L 662 566 Q 658 575 654 600 Q 650 625 647.5 661.5 Q 645 698 645 718 L 639 944 Q 637 999 640.5 1084 Q 644 1169 650 1227 L 658 1311 Q 661 1357 658 1386 Q 653 1422 622 1487.5 Q 591 1553 558 1539 Q 547 1535 536 1520 L 503 1453 Q 418 1303.5 533 1350 Q 544 1230 545 1214 L 556 957 L 554 932 L 554 638 Q 554 559 542.5 546 Q 531 533 517 527 Q 503 521 478 521 Q 433 522 406 530 L 306 557 L 285 499 Z"/><path d="M 556 957 Q 407 1009 357 1005 L 285 1002 L 289 946 Q 342 936 385.5 922 Q 429 908 445 907 Q 459 907 494 916 L 554 932 L 556 957 Z"/><path d="M 503 1453 L 481 1406 Q 458 1408 447 1408 L 317 1417 L 263 1419 L 266 1358 Q 327 1350 377 1345.5 Q 427 1341 447.5 1338 Q 468 1335 481 1336 Q 488 1337 506 1342 L 533 1350 L 503 1453 Z"/><path d="M 1173 518 L 1062 534 Q 1049 536 1004 549 L 956 562 Q 926 571 914 571 Q 899 572 871 567 Q 843 562 826.5 554.5 Q 810 547 788 534 Q 766 521 767 513 Q 767 503 781 496 L 806 493 L 845 487 Q 869 484 941.5 474 Q 1014 464 1062 455 L 1099 448 L 1173 434 L 1293 415 L 1460 385 L 1549 368 Q 1570 368 1597.5 377 Q 1625 386 1648.5 401 Q 1672 416 1686 431 Q 1700 446 1698 460 Q 1696 474 1680 474 L 1624 476 L 1532 479 Q 1474 482 1420 486 Q 1366 490 1362 490 L 1291 499 L 1173 518 Z"/><path d="M 1291 499 L 1288 726 Q 1236 808.5 1170 751 L 1173 518 L 1173 434 L 1173 426 Q 1172 390 1172 385 L 1171 312 Q 1170 295 1168.5 285.5 Q 1167 276 1164 261 Q 1161 246 1154 220 Q 1147 194 1135.5 173 Q 1124 152 1123 140.5 Q 1122 129 1132 120 Q 1142 111 1169 112 Q 1197 114 1222 120 Q 1247 126 1267.5 134 Q 1288 142 1307.5 155.5 Q 1327 169 1330 181 Q 1333 193 1318 228 Q 1308 251 1305 277 L 1298 326 L 1293 415 L 1291 499 Z"/><path d="M 1288 726 Q 1314 721 1344.5 714.5 Q 1375 708 1422.5 695.5 Q 1470 683 1496 683 Q 1519 684 1543 691 Q 1567 698 1602 721 Q 1637 744 1630 757 Q 1623 770 1605 771 L 1565 774 L 1415 785 Q 1345 792 1263.5 807 Q 1182 822 1170 824 Q 1158 826 1147.5 828 Q 1137 830 1123 835 L 1078 852 Q 1041 866 1018 866 Q 992 867 963 857 Q 934 847 913.5 834.5 Q 893 822 892.5 814.5 Q 892 807 901 800 L 937 794 L 984 785 L 1098 766 Q 1116 763 1120 762 L 1170 751 L 1288 726 Z"/><path d="M 1473 1017 L 1654 988 Q 1734 976 1756 978 Q 1778 980 1820.5 995.5 Q 1863 1011 1881 1034.5 Q 1899 1058 1893 1070.5 Q 1887 1083 1852 1083 L 1808 1083 L 1766 1083 L 1599 1091 L 1471 1097 L 1360 1106 Q 1311 1113 1284 1117 Q 1257 1121 1171.5 1136 Q 1086 1151 1022.5 1160 Q 959 1169 934 1174 L 876 1189 Q 851 1195 834 1195 Q 801 1196 768.5 1183 Q 736 1170 716.5 1156.5 Q 697 1143 700 1133 Q 702 1125 717 1119 L 753 1116 L 822 1108 Q 877 1102 1051.5 1079 Q 1226 1056 1285 1046 L 1354 1035 L 1473 1017 Z"/><path d="M 1354 1035 L 1351 988 Q 1349 959 1341.5 934.5 Q 1334 910 1329 899 L 1317 880 Q 1313 874 1311.5 864 Q 1310 854 1318.5 848 Q 1327 842 1346 844 Q 1384 851 1422 863.5 Q 1460 876 1473 886 Q 1486 896 1489 906.5 Q 1492 917 1490 930 Q 1489 934 1481.5 955.5 Q 1474 977 1474 994 L 1473 1017 L 1471 1097 L 1477 1375 L 1479 1556 L 1482 1638 Q 1482 1709 1471 1769 Q 1459 1829 1437.5 1865 Q 1416 1901 1380.5 1923.5 Q 1345 1946 1326 1936 Q 1316 1932 1295 1903 Q 1274 1874 1241.5 1837 Q 1209 1800 1185 1778 L 1137 1738 L 1115 1719 Q 1109 1715 1114 1707 Q 1119 1699 1126 1700 L 1151 1706 Q 1162 1709 1207.5 1722 Q 1253 1735 1278.5 1739 Q 1304 1743 1317 1738 Q 1342 1729 1347.5 1670.5 Q 1353 1612 1357.5 1511.5 Q 1362 1411 1362 1364 L 1360 1106 L 1354 1035 Z"/><path d="M 901 1280 L 934 1286 Q 952 1290 990 1305 Q 1028 1320 1052 1337.5 Q 1076 1355 1087 1376 Q 1098 1397 1098 1428 Q 1097 1451 1084 1476.5 Q 1071 1502 1042 1500 Q 1028 1500 1010.5 1486 Q 993 1472 957 1423 Q 921 1374 890 1325 L 881 1311 Q 872 1299 878 1288 Q 884 1277 901 1280 Z"/></g><g transform="translate(144.800,198.350) scale(0.001709)"><path d="M 263 1419 L 255 1462 Q 248 1497 235.5 1499.5 Q 223 1502 211.5 1497 Q 200 1492 185 1464.5 Q 170 1437 162 1411.5 Q 154 1386 154 1359 Q 154 1341 166 1279 Q 178 1217 186 1167 Q 194 1117 197 1027 L 208 679 Q 208 656 201.5 617 Q 195 578 189.5 560 Q 184 542 172.5 524 Q 161 506 160 496.5 Q 159 487 166 479 Q 173 471 199 474 Q 240 479 258 487 L 285 499 Q 316.5 506 306 557 Q 308 580 308 590 L 300 652 L 289 946 L 285 1002 L 266 1358 L 263 1419 Z"/><path d="M 285 499 Q 313 494 338 488.5 Q 363 483 396.5 475 Q 430 467 451 460 Q 472 453 482 448 L 525 429 Q 535 426 545 426 Q 557 427 574.5 434.5 Q 592 442 620 460.5 Q 648 479 662 494 Q 676 509 677 520 Q 678 531 673 543 L 662 566 Q 658 575 654 600 Q 650 625 647.5 661.5 Q 645 698 645 718 L 639 944 Q 637 999 640.5 1084 Q 644 1169 650 1227 L 658 1311 Q 661 1357 658 1386 Q 653 1422 622 1487.5 Q 591 1553 558 1539 Q 547 1535 536 1520 L 503 1453 Q 418 1303.5 533 1350 Q 544 1230 545 1214 L 556 957 L 554 932 L 554 638 Q 554 559 542.5 546 Q 531 533 517 527 Q 503 521 478 521 Q 433 522 406 530 L 306 557 L 285 499 Z"/><path d="M 556 957 Q 407 1009 357 1005 L 285 1002 L 289 946 Q 342 936 385.5 922 Q 429 908 445 907 Q 459 907 494 916 L 554 932 L 556 957 Z"/><path d="M 503 1453 L 481 1406 Q 458 1408 447 1408 L 317 1417 L 263 1419 L 266 1358 Q 327 1350 377 1345.5 Q 427 1341 447.5 1338 Q 468 1335 481 1336 Q 488 1337 506 1342 L 533 1350 L 503 1453 Z"/><path d="M 1173 518 L 1062 534 Q 1049 536 1004 549 L 956 562 Q 926 571 914 571 Q 899 572 871 567 Q 843 562 826.5 554.5 Q 810 547 788 534 Q 766 521 767 513 Q 767 503 781 496 L 806 493 L 845 487 Q 869 484 941.5 474 Q 1014 464 1062 455 L 1099 448 L 1173 434 L 1293 415 L 1460 385 L 1549 368 Q 1570 368 1597.5 377 Q 1625 386 1648.5 401 Q 1672 416 1686 431 Q 1700 446 1698 460 Q 1696 474 1680 474 L 1624 476 L 1532 479 Q 1474 482 1420 486 Q 1366 490 1362 490 L 1291 499 L 1173 518 Z"/><path d="M 1291 499 L 1288 726 Q 1236 808.5 1170 751 L 1173 518 L 1173 434 L 1173 426 Q 1172 390 1172 385 L 1171 312 Q 1170 295 1168.5 285.5 Q 1167 276 1164 261 Q 1161 246 1154 220 Q 1147 194 1135.5 173 Q 1124 152 1123 140.5 Q 1122 129 1132 120 Q 1142 111 1169 112 Q 1197 114 1222 120 Q 1247 126 1267.5 134 Q 1288 142 1307.5 155.5 Q 1327 169 1330 181 Q 1333 193 1318 228 Q 1308 251 1305 277 L 1298 326 L 1293 415 L 1291 499 Z"/><path d="M 1288 726 Q 1314 721 1344.5 714.5 Q 1375 708 1422.5 695.5 Q 1470 683 1496 683 Q 1519 684 1543 691 Q 1567 698 1602 721 Q 1637 744 1630 757 Q 1623 770 1605 771 L 1565 774 L 1415 785 Q 1345 792 1263.5 807 Q 1182 822 1170 824 Q 1158 826 1147.5 828 Q 1137 830 1123 835 L 1078 852 Q 1041 866 1018 866 Q 992 867 963 857 Q 934 847 913.5 834.5 Q 893 822 892.5 814.5 Q 892 807 901 800 L 937 794 L 984 785 L 1098 766 Q 1116 763 1120 762 L 1170 751 L 1288 726 Z"/><path d="M 1473 1017 L 1654 988 Q 1734 976 1756 978 Q 1778 980 1820.5 995.5 Q 1863 1011 1881 1034.5 Q 1899 1058 1893 1070.5 Q 1887 1083 1852 1083 L 1808 1083 L 1766 1083 L 1599 1091 L 1471 1097 L 1360 1106 Q 1311 1113 1284 1117 Q 1257 1121 1171.5 1136 Q 1086 1151 1022.5 1160 Q 959 1169 934 1174 L 876 1189 Q 851 1195 834 1195 Q 801 1196 768.5 1183 Q 736 1170 716.5 1156.5 Q 697 1143 700 1133 Q 702 1125 717 1119 L 753 1116 L 822 1108 Q 877 1102 1051.5 1079 Q 1226 1056 1285 1046 L 1354 1035 L 1473 1017 Z"/><path d="M 1354 1035 L 1351 988 Q 1349 959 1341.5 934.5 Q 1334 910 1329 899 L 1317 880 Q 1313 874 1311.5 864 Q 1310 854 1318.5 848 Q 1327 842 1346 844 Q 1384 851 1422 863.5 Q 1460 876 1473 886 Q 1486 896 1489 906.5 Q 1492 917 1490 930 Q 1489 934 1481.5 955.5 Q 1474 977 1474 994 L 1473 1017 L 1471 1097 L 1477 1375 L 1479 1556 L 1482 1638 Q 1482 1709 1471 1769 Q 1459 1829 1437.5 1865 Q 1416 1901 1380.5 1923.5 Q 1345 1946 1326 1936 Q 1316 1932 1295 1903 Q 1274 1874 1241.5 1837 Q 1209 1800 1185 1778 L 1137 1738 L 1115 1719 Q 1109 1715 1114 1707 Q 1119 1699 1126 1700 L 1151 1706 Q 1162 1709 1207.5 1722 Q 1253 1735 1278.5 1739 Q 1304 1743 1317 1738 Q 1342 1729 1347.5 1670.5 Q 1353 1612 1357.5 1511.5 Q 1362 1411 1362 1364 L 1360 1106 L 1354 1035 Z"/><path d="M 901 1280 L 934 1286 Q 952 1290 990 1305 Q 1028 1320 1052 1337.5 Q 1076 1355 1087 1376 Q 1098 1397 1098 1428 Q 1097 1451 1084 1476.5 Q 1071 1502 1042 1500 Q 1028 1500 1010.5 1486 Q 993 1472 957 1423 Q 921 1374 890 1325 L 881 1311 Q 872 1299 878 1288 Q 884 1277 901 1280 Z"/></g><g transform="translate(148.700,198.350) scale(0.001709)"><path d="M 545 750 L 435 765 Q 397 771 374.5 772 Q 352 773 324 770 Q 296 767 277.5 763.5 Q 259 760 241.5 748.5 Q 224 737 227.5 726 Q 231 715 248 713 L 292 708 Q 317 706 387.5 695.5 Q 458 685 480 679 L 546 664 L 643 644 Q 674 635 703.5 624.5 Q 733 614 748 612 Q 771 610 790 614.5 Q 809 619 822 624 Q 835 629 852 639 Q 869 649 869.5 659 Q 870 669 862 678 Q 852 688 808 698.5 Q 764 709 738 715 Q 712 721 688 724 L 639 732 L 545 750 Z"/><path d="M 546 664 L 547 513 Q 547 460 540 393 Q 533 326 527 294 Q 521 262 509.5 233.5 Q 498 205 496.5 186 Q 495 167 506 160 Q 517 153 530 152 Q 555 151 585 163 Q 615 175 650.5 195.5 Q 686 216 698 234 Q 710 252 710.5 264.5 Q 711 277 701 297 L 687 323 Q 678 342 671 368.5 Q 664 395 661.5 411.5 Q 659 428 651.5 496 Q 644 564 644 584 L 643 644 L 639 732 L 634 959 L 635 1037 L 629 1268 Q 628 1288 633 1357 L 638 1468 Q 639 1510 639.5 1537 Q 640 1564 635 1596 Q 629 1633 614.5 1668 Q 600 1703 581.5 1727 Q 563 1751 550.5 1757 Q 538 1763 527 1760 Q 514 1758 501 1739 L 480 1707 Q 470 1694 429 1649.5 Q 388 1605 379 1596 L 324 1549 Q 308 1536 315.5 1526.5 Q 323 1517 338 1521 L 426 1546 L 459 1556 Q 486 1563 499 1554 Q 509 1547 512.5 1531.5 Q 516 1516 518 1484 L 536 1113 L 544 1014 L 545 750 L 546 664 Z"/><path d="M 634 959 L 771 875 Q 785 866 795 876 Q 805 886 785 904 L 635 1037 L 536 1113 L 409 1219 Q 368 1253 343.5 1275 Q 319 1297 301.5 1315.5 Q 284 1334 271 1350.5 Q 258 1367 250.5 1369.5 Q 243 1372 232 1370 Q 215 1369 201 1362.5 Q 187 1356 154 1333 Q 121 1310 107.5 1290 Q 94 1270 96 1259 Q 97 1253 102 1249 Q 107 1245 126 1243 Q 145 1241 175.5 1229 Q 206 1217 228 1203 L 544 1014 L 634 959 Z"/><path d="M 1279 727 L 1283 430 Q 1283 373 1281.5 339 Q 1280 305 1263.5 275 Q 1247 245 1242.5 230 Q 1238 215 1248 207 Q 1258 199 1277 200 Q 1295 202 1320.5 208.5 Q 1346 215 1369.5 223 Q 1393 231 1403.5 242.5 Q 1414 254 1415 267 Q 1416 280 1400 322 Q 1391 344 1385 396.5 Q 1379 449 1379 504 L 1377 832 Q 1376 926 1373 970 Q 1370 1014 1366.5 1038 Q 1363 1062 1352 1090.5 Q 1341 1119 1327 1117 Q 1318 1117 1303 1100.5 Q 1288 1084 1278.5 1066 Q 1269 1048 1261 1022 Q 1253 996 1255 970 Q 1255 965 1261 931.5 Q 1267 898 1272.5 832 Q 1278 766 1279 727 Z"/><path d="M 878 1098 L 852 1120 Q 835 1135 826.5 1127.5 Q 818 1120 833 1096 L 855 1061 Q 874 1031 902.5 972.5 Q 931 914 950 868 Q 969 822 980 787 Q 991 752 997 719.5 Q 1003 687 999 667.5 Q 995 648 996 638.5 Q 997 629 1005 626 Q 1013 623 1023 624 Q 1039 627 1057.5 633 Q 1076 639 1104 654.5 Q 1132 670 1148 690.5 Q 1164 711 1160 724 Q 1158 730 1136 756 Q 1114 782 1108 790.5 Q 1102 799 1080.5 838 Q 1059 877 1039 908 Q 1019 939 990 975 Q 961 1011 927.5 1047.5 Q 894 1084 878 1098 Z"/><path d="M 1575 632 Q 1563 624 1562.5 611.5 Q 1562 599 1582 602 L 1624 610 Q 1646 615 1678 623.5 Q 1710 632 1771.5 653.5 Q 1833 675 1873 700.5 Q 1913 726 1930.5 751 Q 1948 776 1951 817 Q 1954 858 1938 877.5 Q 1922 897 1901.5 901 Q 1881 905 1852 885 Q 1835 874 1804.5 839 Q 1774 804 1725 756.5 Q 1676 709 1654 692 L 1575 632 Z"/><path d="M 768 1872 L 806 1850 Q 829 1837 877 1802.5 Q 925 1768 994.5 1711 Q 1064 1654 1153 1570.5 Q 1242 1487 1305.5 1414.5 Q 1369 1342 1423.5 1264 Q 1478 1186 1502.5 1141.5 Q 1527 1097 1551 1044 Q 1575 991 1576 947 Q 1577 903 1585 889 Q 1593 875 1610 874 Q 1619 874 1645 891 Q 1671 908 1690.5 922 Q 1710 936 1732.5 961 Q 1755 986 1753 1003 Q 1751 1015 1729 1037 Q 1707 1059 1686.5 1085.5 Q 1666 1112 1626 1171 Q 1586 1230 1560 1266.5 Q 1534 1303 1474.5 1377.5 Q 1415 1452 1353 1517 Q 1291 1582 1223 1638.5 Q 1155 1695 1112 1725.5 Q 1069 1756 998.5 1798 Q 928 1840 890.5 1857 Q 853 1874 821 1883 L 773 1897 Q 759 1901 755.5 1891 Q 752 1881 768 1872 Z"/></g><g transform="translate(152.600,198.350) scale(0.001709)"><path d="M 522 915 Q 477 924 460.5 928 Q 444 932 392 947.5 Q 340 963 324.5 970 Q 309 977 290 988 Q 271 999 263 998 Q 248 998 236.5 984.5 Q 225 971 215 949 Q 205 927 200 908 Q 195 889 200 879 Q 203 872 222.5 859 Q 242 846 256 835 Q 270 824 305 786 Q 340 748 377.5 687.5 Q 415 627 453 554 Q 491 481 504 448 Q 517 415 526.5 379.5 Q 536 344 536.5 322.5 Q 537 301 542 293.5 Q 547 286 556.5 283.5 Q 566 281 585 292 Q 619 313 638.5 326.5 Q 658 340 673.5 362 Q 689 384 686 400 Q 683 410 666 427 Q 649 444 635.5 459.5 Q 622 475 601.5 502 Q 581 529 523 609.5 Q 465 690 461 696 L 376 808 Q 355 836 348 849.5 Q 341 863 346.5 872.5 Q 352 882 389 879 L 556 866 Q 596 893.5 522 915 Z"/><path d="M 556 866 L 633 747 Q 652 718 667.5 679 Q 683 640 685 618 Q 687 596 692 588 Q 697 580 707 578.5 Q 717 577 732 585 Q 744 593 760 609 Q 776 625 789 645.5 Q 802 666 810 687 Q 818 708 808 723 Q 805 727 789 738.5 Q 773 750 751 775 L 708 822 Q 697 835 660 884.5 Q 623 934 552 1018 L 417 1178 Q 391 1209 393.5 1215 Q 396 1221 411 1224 L 482 1201 L 656 1149 Q 692.5 1155 679 1191 L 482 1262 Q 457 1271 423.5 1287.5 Q 390 1304 372.5 1313.5 Q 355 1323 339.5 1335.5 Q 324 1348 316 1347 Q 309 1347 301 1342 Q 293 1337 281 1322.5 Q 269 1308 261 1294.5 Q 253 1281 247 1261.5 Q 241 1242 246 1232 Q 249 1225 275.5 1211 Q 302 1197 326.5 1168.5 Q 351 1140 400 1079.5 Q 449 1019 458 1006 L 522 915 L 556 866 Z"/><path d="M 656 1149 Q 640 1118 629.5 1099.5 Q 619 1081 614.5 1069.5 Q 610 1058 613.5 1053.5 Q 617 1049 632 1050 Q 651 1052 677 1061 Q 703 1070 729.5 1085.5 Q 756 1101 775.5 1125 Q 795 1149 800.5 1183.5 Q 806 1218 794 1242 Q 785 1259 769.5 1266.5 Q 754 1274 740 1267 Q 731 1264 720 1248 L 701 1221 L 679 1191 L 656 1149 Z"/><path d="M 132 1480 L 159 1491 Q 169 1496 199.5 1516.5 Q 230 1537 248.5 1551.5 Q 267 1566 282 1590 Q 297 1614 302 1637.5 Q 307 1661 305 1689 Q 302 1722 293.5 1736.5 Q 285 1751 274 1758.5 Q 263 1766 249 1765 Q 232 1764 220 1751.5 Q 208 1739 193 1708 Q 178 1677 172 1660 L 146 1595 Q 129 1553 125 1539 L 113 1499 Q 110 1487 114 1481 Q 118 1475 132 1480 Z"/><path d="M 378 1452 L 369 1430 Q 365 1421 368.5 1415.5 Q 372 1410 385 1413 L 413 1422 Q 437 1430 455 1437 Q 473 1444 496.5 1459 Q 520 1474 531 1487 Q 542 1500 547.5 1519 Q 553 1538 548 1563 Q 543 1586 531.5 1597.5 Q 520 1609 502.5 1610.5 Q 485 1612 465 1595 Q 450 1584 436.5 1563 Q 423 1542 409 1514 Q 395 1486 387.5 1472.5 Q 380 1459 378 1452 Z"/><path d="M 599 1363 L 590 1343 Q 585 1334 588.5 1328.5 Q 592 1323 604 1326 L 630 1334 Q 651 1341 669 1348 Q 687 1355 708.5 1368 Q 730 1381 742 1395 Q 754 1409 759 1430.5 Q 764 1452 758 1472 Q 753 1488 742.5 1498.5 Q 732 1509 716 1511 Q 700 1513 681 1497 Q 668 1488 652 1463 Q 636 1438 629 1423 L 613 1390 L 599 1363 Z"/><path d="M 1081 444 Q 1201 422 1274 406.5 Q 1347 391 1401.5 372.5 Q 1456 354 1477 353 Q 1497 353 1520.5 359.5 Q 1544 366 1564.5 378.5 Q 1585 391 1595 403 Q 1605 415 1605 425 Q 1604 441 1562.5 454 Q 1521 467 1452 480.5 Q 1383 494 1318.5 503 Q 1254 512 1169 523.5 Q 1084 535 1061 533 Q 1021 532 989 518.5 Q 957 505 944.5 491.5 Q 932 478 935.5 471 Q 939 464 953 462 L 1081 444 Z"/><path d="M 921 995 Q 923 1003 938 1015 Q 953 1027 981 1042 Q 1009 1057 1045 1081.5 Q 1081 1106 1092 1125 Q 1103 1144 1103.5 1173 Q 1104 1202 1093 1221 Q 1082 1240 1063 1241.5 Q 1044 1243 1015 1206 Q 995 1182 974.5 1158 Q 954 1134 931 1108.5 Q 908 1083 881 1056.5 Q 854 1030 853.5 1018 Q 853 1006 869 976 Q 879 957 893 917 L 913 859 Q 933 798 941.5 763 Q 950 728 953 698.5 Q 956 669 965 662 Q 974 655 992 658 Q 1004 661 1031 680.5 Q 1058 700 1072.5 715.5 Q 1087 731 1086 746 Q 1085 757 1065 777 Q 1045 797 1025 827 L 992 875 L 945 944 Q 929 967 924.5 980 Q 920 993 921 995 Z"/><path d="M 1203 951 Q 1204 956 1225 969.5 Q 1246 983 1276.5 997.5 Q 1307 1012 1341 1029.5 Q 1375 1047 1386 1064 Q 1397 1081 1397.5 1110.5 Q 1398 1140 1387 1159.5 Q 1376 1179 1359.5 1179.5 Q 1343 1180 1319 1154 Q 1264 1097 1245 1077.5 Q 1226 1058 1194.5 1032 Q 1163 1006 1150.5 994 Q 1138 982 1137.5 969.5 Q 1137 957 1153 927 Q 1159 915 1178 867 L 1197 820 Q 1217 768 1224.5 735.5 Q 1232 703 1236 670 Q 1240 637 1249 630.5 Q 1258 624 1276 627 Q 1291 631 1311 645 Q 1331 659 1351 678.5 Q 1371 698 1371 711 Q 1370 722 1348.5 742 Q 1327 762 1292 808.5 Q 1257 855 1240 876 Q 1223 897 1211.5 920 Q 1200 943 1203 951 Z"/><path d="M 1514 909 Q 1515 916 1539 929.5 Q 1563 943 1604.5 956.5 Q 1646 970 1676 984.5 Q 1706 999 1724.5 1018.5 Q 1743 1038 1748.5 1072.5 Q 1754 1107 1739 1126 Q 1724 1145 1704 1144 Q 1687 1144 1666 1122.5 Q 1645 1101 1604.5 1062.5 Q 1564 1024 1546 1011 L 1472 961 Q 1450 943 1448 928.5 Q 1446 914 1462 886 Q 1478 857 1491 832 Q 1504 807 1520.5 762 Q 1537 717 1543.5 686.5 Q 1550 656 1554.5 620.5 Q 1559 585 1568.5 578.5 Q 1578 572 1595 575 Q 1609 578 1632.5 595 Q 1656 612 1673.5 631.5 Q 1691 651 1689 666 Q 1687 676 1666 698 Q 1645 720 1630 738 Q 1615 756 1581.5 802.5 Q 1548 849 1530.5 878 Q 1513 907 1514 909 Z"/><path d="M 1195 1362 L 1034 1373 Q 1007 1375 980 1369.5 Q 953 1364 937.5 1349.5 Q 922 1335 923 1325 Q 924 1314 965 1308 L 1052 1298 L 1304 1263 Q 1366 1255 1428.5 1239 Q 1491 1223 1513 1223 Q 1524 1224 1567 1231.5 Q 1610 1239 1624.5 1249.5 Q 1639 1260 1638 1269 Q 1637 1278 1623.5 1287.5 Q 1610 1297 1581 1301 L 1316 1342 L 1195 1362 Z"/><path d="M 1227 1627 Q 1225 1548 1222.5 1492.5 Q 1220 1437 1213 1416 L 1195 1362 L 1316 1342 Q 1333 1354 1340 1364 Q 1347 1374 1347.5 1388 Q 1348 1402 1339.5 1433 Q 1331 1464 1329 1491 L 1318 1619 Q 1271.5 1671 1227 1627 Z"/><path d="M 1318 1619 L 1575 1591 Q 1653 1583 1707.5 1572 Q 1762 1561 1784 1562 Q 1806 1565 1834.5 1576.5 Q 1863 1588 1885 1601 Q 1907 1614 1922 1631.5 Q 1937 1649 1934 1658.5 Q 1931 1668 1922 1674 Q 1910 1682 1894 1681 Q 1878 1680 1816 1680 L 1641 1674 Q 1606 1674 1489 1680 L 1296 1689 Q 1194 1696 1118 1706.5 Q 1042 1717 983.5 1729.5 Q 925 1742 885 1753.5 Q 845 1765 827 1764 Q 808 1764 783.5 1756.5 Q 759 1749 747.5 1743 Q 736 1737 707 1720 Q 678 1703 677 1688 Q 676 1673 696 1672 L 755 1670 Q 770 1670 826 1666 Q 882 1662 904 1660 L 1069 1642 L 1227 1627 L 1318 1619 Z"/></g></g></svg>